<svg id="Capa_1" data-name="Capa 1" xmlns="http://www.w3.org/2000/svg" viewBox="0 0 40 40"><defs><style>.cls-1,.cls-3{fill:none;stroke-linecap:round;}.cls-1{stroke:#393939;stroke-linejoin:round;}.cls-2{fill:#a72c2c;}.cls-3{stroke:#a72c2c;stroke-miterlimit:10;}</style></defs><title>07-moto-equipacion-carretera-monos</title><path class="cls-1" d="M14.59,30a1.23,1.23,0,0,1,1.18-.7,2.52,2.52,0,0,1,2.29,1.9"/><path class="cls-1" d="M21.93,31.19s.67-2.71,3.43-1.18"/><path class="cls-1" d="M16.08,2.43a4.6,4.6,0,0,0-2.29,1c-1.08,1-3.74,7-3.79,8.79s1.46,6.5,1.51,6.69.65.36,1.21.21a.94.94,0,0,0,.64-1A20.38,20.38,0,0,1,13,15.89a18.84,18.84,0,0,0,0-2.48,6.56,6.56,0,0,1-.07-2c.1-.29,1.94-2.67,1.94-2.67s.54,2.46.77,3.7a8.26,8.26,0,0,1-.07,3.69c-.33,1.53-.83,8.4-.92,9.31a37.28,37.28,0,0,0-.1,4.15,41.22,41.22,0,0,0,.69,5.69,13.51,13.51,0,0,0,1.53,3.67c.18.23,1.14-.08,1.36-.21a7.41,7.41,0,0,0,.37-2.59c0-.66-.13-1.35-.08-2.18a6.87,6.87,0,0,0-.14-2.21,8.07,8.07,0,0,1-.34-2.83c.13-1,.55-2.47.83-3.69S20,21.26,20,21.13c.05.13,1,2.9,1.33,4.08s.7,2.69.83,3.69a8.07,8.07,0,0,1-.34,2.83,6.87,6.87,0,0,0-.14,2.21c.05.83-.08,1.52-.08,2.18A7.41,7.41,0,0,0,22,38.71c.22.13,1.18.44,1.36.21a13.51,13.51,0,0,0,1.53-3.67,41.22,41.22,0,0,0,.69-5.69,37.28,37.28,0,0,0-.1-4.15c-.09-.91-.59-7.78-.92-9.31a8.26,8.26,0,0,1-.07-3.69c.23-1.24.77-3.7.77-3.7s1.84,2.38,1.94,2.67a6.56,6.56,0,0,1-.07,2,18.84,18.84,0,0,0-.05,2.48,20.38,20.38,0,0,1-.41,2.21.94.94,0,0,0,.64,1c.56.15,1.17,0,1.21-.21S30.05,14,30,12.22s-2.71-7.81-3.79-8.79a4.15,4.15,0,0,0-1.91-.92"/><line class="cls-1" x1="20" y1="5.25" x2="19.99" y2="18.69"/><path class="cls-1" d="M20,5.15c.12-1.06,1.22-1.06,1.71-1.73A2.47,2.47,0,0,0,22.18,2,2.81,2.81,0,0,0,20,1a2.71,2.71,0,0,0-2.06,1.06h0a2.36,2.36,0,0,0,.47,1.38c.49.68,1.47.65,1.59,1.71"/><path class="cls-2" d="M22,6a.51.51,0,0,0-.22.48.49.49,0,0,0,.19.33.52.52,0,0,0,.36.11h0a.51.51,0,0,0,.43-.55A.53.53,0,0,0,22.59,6a.52.52,0,0,0-.36-.11A.63.63,0,0,0,22,6Z"/><line class="cls-3" x1="24.14" y1="6.27" x2="25.65" y2="6.02"/></svg>