<svg id="Capa_1" data-name="Capa 1" xmlns="http://www.w3.org/2000/svg" viewBox="0 0 40 40"><defs><style>.cls-1,.cls-3{fill:none;stroke-linecap:round;}.cls-1{stroke:#393939;stroke-linejoin:round;}.cls-2{fill:#a72c2c;}.cls-3{stroke:#a72c2c;stroke-miterlimit:10;}</style></defs><title>10-moto-equipacion-carretera-protecciones</title><path class="cls-1" d="M9.38,10.17s2.1-.71,3.32.29,2.68,3.35,4.33,3.62a18.47,18.47,0,0,0,3,.23"/><path class="cls-1" d="M11,19.45s2.1-.08,2.77,1.12,1.83,2.79,3.48,3a20.24,20.24,0,0,0,2.79.18"/><path class="cls-1" d="M11.48,28.6a2.21,2.21,0,0,1,2.31.79c.74,1.17,1.07,3.2,3.18,3.47a18.51,18.51,0,0,0,3,.2"/><path class="cls-1" d="M9.81,26.73c.17.89.3,1.57.32,1.66s1.35.21,1.35.21l-.74.26c-.42.15-1.12.59-.24,2.67S15.56,38,16.2,38h7.6c.64,0,4.81-4.38,5.7-6.47s.18-2.52-.24-2.67l-.74-.26s1.28,0,1.35-.21.85-4.61,1.28-6.26.3-2.13,0-2.24S29,19.45,29,19.45a10.83,10.83,0,0,0,2-.2c.64-.18.77-1,.89-2a47.33,47.33,0,0,0,0-5.85c-.12-.47-1.29-1.23-1.29-1.23s1,.11,1.11-.3a3.79,3.79,0,0,0-.27-2.17c-.3-.39-6.42-5.32-7.27-5.54A30.2,30.2,0,0,0,20,2a30.2,30.2,0,0,0-4.19.15c-.85.22-7,5.15-7.27,5.54a3.79,3.79,0,0,0-.27,2.17c.11.41,1.11.3,1.11.3s-1.17.76-1.29,1.23a47.33,47.33,0,0,0,0,5.85c.12,1,.25,1.82.89,2a10.83,10.83,0,0,0,2,.2s-1.8.33-2.11.44-.42.59,0,2.24a1.05,1.05,0,0,1,.05.19"/><path class="cls-1" d="M30.62,10.17s-2.1-.71-3.32.29S24.62,13.81,23,14.08a18.47,18.47,0,0,1-3,.23"/><path class="cls-1" d="M29,19.45s-2.1-.08-2.77,1.12-1.83,2.79-3.48,3a20.24,20.24,0,0,1-2.79.18"/><path class="cls-1" d="M28.52,28.6a2.21,2.21,0,0,0-2.31.79c-.74,1.17-1.07,3.2-3.18,3.47a18.51,18.51,0,0,1-3,.2"/><path class="cls-2" d="M9.08,24.05a.49.49,0,0,0-.21.48.48.48,0,0,0,.18.33.52.52,0,0,0,.36.11h0a.51.51,0,0,0,.43-.55.54.54,0,0,0-.18-.34A.53.53,0,0,0,9.32,24,.62.62,0,0,0,9.08,24.05Z"/><line class="cls-3" x1="11.65" y1="24.27" x2="13.41" y2="24.08"/><line class="cls-3" x1="11.86" y1="26.19" x2="13.62" y2="26.01"/></svg>