<svg id="Capa_1" data-name="Capa 1" xmlns="http://www.w3.org/2000/svg" viewBox="0 0 40 40"><defs><style>.cls-1,.cls-2{fill:none;stroke-linecap:round;}.cls-1{stroke:#a72c2c;stroke-miterlimit:10;}.cls-2{stroke:#363636;stroke-linejoin:round;}</style></defs><title>11-moto-equipacion-carretera-termicos</title><path class="cls-1" d="M2.77,18.33,15.05,29.78a12.29,12.29,0,0,1,8.87-4.13c5.5,0,9.08.81,14-3.27"/><path class="cls-2" d="M2.77,20.55,15.05,32s3.6-4.91,9.1-4.91,8.76,1.25,13.71-2.83"/><path class="cls-2" d="M38,20.54a15.77,15.77,0,0,1-10.72,3.62c-6.86-.12-9.93,1.35-12.18,3.51L2,15.12s2.79-3.58,10-3.32S21.58,10.25,24.9,8Z"/><polyline class="cls-2" points="26.43 14.88 25.05 13.63 23.67 14.88"/><path class="cls-2" d="M25.05,13.63v1.23a3.83,3.83,0,0,1-.8,1.78l0,0,0,0h0a1.82,1.82,0,0,0-.3,1,1.77,1.77,0,0,0,.3,1h0l0,0,0,0a3.78,3.78,0,0,1,.8,1.78V21.8"/><polyline class="cls-2" points="21.97 14.88 20.59 13.63 19.22 14.88"/><path class="cls-2" d="M20.6,13.63v1.23a3.93,3.93,0,0,1-.8,1.78l0,0,0,0h0a1.74,1.74,0,0,0-.3,1,1.69,1.69,0,0,0,.3,1h0l0,0,0,0a3.88,3.88,0,0,1,.8,1.78V21.8"/><polyline class="cls-2" points="17.52 14.88 16.14 13.63 14.76 14.88"/><path class="cls-2" d="M16.14,13.63v1.23a3.93,3.93,0,0,1-.79,1.78l0,0,0,0h0a1.81,1.81,0,0,0-.29,1,1.76,1.76,0,0,0,.29,1h0l0,0,0,0a3.88,3.88,0,0,1,.79,1.78V21.8"/></svg>