<svg id="Capa_1" data-name="Capa 1" xmlns="http://www.w3.org/2000/svg" viewBox="0 0 40 40"><defs><style>.cls-1,.cls-2{fill:none;stroke-linecap:round;}.cls-1{stroke:#363636;stroke-linejoin:round;}.cls-2{stroke:#a72c2c;stroke-miterlimit:10;}</style></defs><title>13-moto-equipacion-carretera-electronica</title><path class="cls-1" d="M8.83,11.84V6a1.92,1.92,0,0,1,1.86-2H36.14A1.92,1.92,0,0,1,38,6V24.45a1.91,1.91,0,0,1-1.86,2H20.07"/><polyline class="cls-1" points="11.2 11.8 11.2 6.62 35.62 6.62 35.62 20.59 20.41 20.59"/><path class="cls-2" d="M13.47,22.89a3.32,3.32,0,0,1-3.22,3.41,3.42,3.42,0,0,1,0-6.83A3.32,3.32,0,0,1,13.47,22.89Z"/><path class="cls-2" d="M18.05,25.75a9.31,9.31,0,0,0,.45-2.86,8.51,8.51,0,0,0-8.25-8.76A8.51,8.51,0,0,0,2,22.89a9.67,9.67,0,0,0,1.71,5.32A47.17,47.17,0,0,0,10.27,36a41.52,41.52,0,0,0,6.78-8.15,10.68,10.68,0,0,0,1-2.1Z"/><ellipse class="cls-1" cx="34.13" cy="23.51" rx="1.15" ry="1.22"/><line class="cls-1" x1="17.26" y1="8.82" x2="15.49" y2="13.33"/><line class="cls-1" x1="33.43" y1="18.37" x2="29.61" y2="8.89"/><line class="cls-1" x1="23.35" y1="8.71" x2="23.35" y2="9.82"/><line class="cls-1" x1="23.35" y1="12.25" x2="23.35" y2="14.96"/><line class="cls-1" x1="23.35" y1="17.12" x2="23.35" y2="18.23"/><line class="cls-1" x1="20.5" y1="23.31" x2="26.52" y2="23.31"/></svg>