<svg id="Capa_1" data-name="Capa 1" xmlns="http://www.w3.org/2000/svg" viewBox="0 0 40 40"><defs><style>.cls-1,.cls-3,.cls-4{fill:none;stroke-linecap:round;}.cls-1,.cls-3{stroke:#393939;stroke-linejoin:round;}.cls-2{fill:#a72c2c;}.cls-3{stroke-width:0.94px;}.cls-4{stroke:#a72c2c;stroke-miterlimit:10;}</style></defs><title>131-moto-equipacion-offroad</title><path class="cls-1" d="M29,15.81s-.08-1.61,0-2.74.89-1.16,1.33-1.16c.79,0,1.35,1.41,2.21,3.56a15,15,0,0,1,1,4"/><path class="cls-1" d="M25.57,24.18a5.22,5.22,0,0,0,2.58,1.15"/><path class="cls-1" d="M24.76,27.22a5.07,5.07,0,0,0,2.29,1.62"/><path class="cls-1" d="M25,21a5.85,5.85,0,0,0,1.62.21,7,7,0,0,1,1.73.13"/><path class="cls-1" d="M36.38,19.67a13.58,13.58,0,0,0-2,.94c.55,1.43,1.4,2.74,2,3a1.92,1.92,0,0,0,.94.07"/><path class="cls-2" d="M22.05,13.7a.49.49,0,0,0-.2.48.57.57,0,0,0,.2.32.49.49,0,0,0,.37.09h0a.5.5,0,0,0,.2-.9.54.54,0,0,0-.37-.09A.55.55,0,0,0,22.05,13.7Z"/><path class="cls-1" d="M22.56,15.79a23,23,0,0,0,1.52,5.76A4.77,4.77,0,0,1,24.36,25a23.33,23.33,0,0,0-.85,4.41c0,1.21-.18,2.82-.2,3.32s0,1.59.67,1.83,1.51.26,1.73-.61,1.94-3.88,2.76-5.67a12.92,12.92,0,0,0,1.07-6.07c-.18-2-.58-6.41-.58-6.41s2.74,4,3.32,4.72a11.62,11.62,0,0,1,1.71,3c0,.32-.69,1.58-1,2.71a12.9,12.9,0,0,0-.09,3.28c-.05.58-.57,2.1-.58,2.36a1.32,1.32,0,0,0,.8,1.44c.87.38,1.19.35,1.34.2a8.27,8.27,0,0,0,1.38-2.26c.88-1.74,2.91-6.28,2.7-8.54s-2.74-6.39-4-9.18a39.08,39.08,0,0,1-1.9-5.34A.29.29,0,0,0,32.26,8c-3.68.74-8.43-.6-8.43-.6a.31.31,0,0,0-.4.21,20.1,20.1,0,0,0-1,4.76"/><path class="cls-3" d="M14.42,8.89a9.29,9.29,0,0,1,3.34,1.7c1.71,1.52,4.55,6.44,4.63,7.48a3.37,3.37,0,0,1-.94,2.2c-1,1.28-5.06,5.08-5.88,5.4S14.33,24.35,14.46,24s3.9-4.64,4-5S16.6,16.19,16,14.75"/><line class="cls-3" x1="16.24" y1="20.22" x2="16.22" y2="17.1"/><line class="cls-3" x1="5.45" y1="22.95" x2="5.89" y2="14.61"/><path class="cls-3" d="M13.15,9c-.05-.47-1.18-.74-2.53-.62S8.22,9,8.27,9.47a.53.53,0,0,0,.29.35,7.23,7.23,0,0,0,2,1.31,5.46,5.46,0,0,0,2.34-1.72A.45.45,0,0,0,13.15,9Z"/><path class="cls-2" d="M5.29,26.72a.48.48,0,0,0-.31.41.51.51,0,0,0,.11.37.48.48,0,0,0,.33.18h0A.48.48,0,0,0,6,27.24a.48.48,0,0,0-.43-.55A.52.52,0,0,0,5.29,26.72Z"/><line class="cls-4" x1="7.07" y1="27.37" x2="8.3" y2="27.5"/><line class="cls-4" x1="6.95" y1="28.52" x2="8.17" y2="28.64"/><path class="cls-3" d="M5.45,28.54v.08c0,.48.47,1.8,5.53,2s5.36-.84,5.41-1.12,0-3.12,0-3.12"/><path class="cls-3" d="M7.13,9.55a7,7,0,0,0-2.41,1.76C4.47,12,3.74,20.39,3,22a41.91,41.91,0,0,0-1.55,4.12c0,.2,1,.64,1.8.44A13.43,13.43,0,0,0,5.45,23c0,1.11-.06,2.1,0,2.94"/><path class="cls-4" d="M10.59,15.05v0L9.85,15s-.07,0-.07.06l0,.48c0,.07,0,.12-.1.11l-1.42-.11a.11.11,0,0,1-.11-.12l-.13-2.17c0-.06,0-.11.1-.1l4.2.31a.13.13,0,0,1,.11.13L12.55,15a.61.61,0,0,1,0,.15L11.12,21c0,.08-.06.11-.13.1L9.23,21c-.07,0-.11-.05-.09-.13Z"/></svg>