<?xml version="1.0" encoding="utf-8"?>
<!-- Generator: Adobe Illustrator 26.0.2, SVG Export Plug-In . SVG Version: 6.00 Build 0)  -->
<svg version="1.1" id="Capa_1" xmlns="http://www.w3.org/2000/svg" xmlns:xlink="http://www.w3.org/1999/xlink" x="0px" y="0px"
	 viewBox="0 0 40 40" style="enable-background:new 0 0 40 40;" xml:space="preserve">
<style type="text/css">
	.st0{fill:none;stroke:#363636;stroke-linecap:round;stroke-linejoin:round;}
	.st1{fill:#A72C2C;}
	.st2{fill:none;stroke:#A72C2C;stroke-linecap:round;stroke-miterlimit:10;}
</style>
<g>
	<path class="st0" d="M8.5,26.9c0.3,2.2,0.8,3.4,1.8,3.7c1.9,0.4,8.7,0.5,8.7,0c0.1-0.5,0.5-16.1,0.1-16.6c-0.5-0.5-5.6-1.1-6.7-8.4
		"/>
	<path class="st0" d="M27.6,5.6c-1.2,7.3-6.2,7.9-6.7,8.4c-0.5,0.5-0.4,16-0.3,16.6c0.1,0.5,7.2,0.4,9.1,0c1.9-0.4,2.3-7,2.4-10.2
		c0.1-3.3-0.1-4.8-1.2-7.2c-1-2.4-0.3-4.3,0.3-6.6c0.6-2.2,0-3.4,0-3.4c-2.4-0.9-3.4,0.2-5.2,2.2S20,7.3,20,7.3s-4.1,0.2-5.9-1.8
		s-2.8-3.2-5.2-2.2c0,0-0.6,1.2,0,3.4c0.6,2.2,1.3,4.2,0.3,6.6S7.9,17.1,8,20.4c0,1.1,0.1,2.6,0.2,4.1"/>
	<path class="st0" d="M14.7,30.9c0,0-0.4,4.9,0.2,5.2c0.6,0.3,2.3,0.8,5,0.8c2.1,0,4-0.3,4.9-0.6c0.3-0.1,0.5-0.4,0.5-0.7l0-4.7"/>
	<g>
		<path class="st1" d="M8.2,25.3C8,25.4,8,25.5,8,25.7c0,0.1,0,0.2,0.1,0.3c0.1,0.1,0.2,0.1,0.3,0.1l0,0c0.2,0,0.4-0.2,0.4-0.4
			c0-0.1,0-0.2-0.1-0.3c-0.1-0.1-0.2-0.1-0.3-0.1C8.3,25.3,8.2,25.3,8.2,25.3z"/>
		<line class="st2" x1="10.1" y1="25.7" x2="11.5" y2="25.7"/>
		<line class="st2" x1="10.1" y1="27.1" x2="11.5" y2="27.1"/>
	</g>
</g>
</svg>
