<?xml version="1.0" encoding="utf-8"?>
<!-- Generator: Adobe Illustrator 27.6.1, SVG Export Plug-In . SVG Version: 6.00 Build 0)  -->
<svg version="1.1" baseProfile="tiny" id="Layer_1" xmlns="http://www.w3.org/2000/svg" xmlns:xlink="http://www.w3.org/1999/xlink"
	 x="0px" y="0px" viewBox="0 0 40 40" overflow="visible" xml:space="preserve">
<g>
	<line fill="none" stroke="#893130" stroke-linecap="round" stroke-miterlimit="10" x1="7.7" y1="13" x2="5" y2="18.6"/>
	<path fill="none" stroke="#893130" stroke-linecap="round" stroke-miterlimit="10" d="M3.6,11.8c0,0,1,0.6,1.1,2.3
		c0.1,1.7-0.5,4.2-0.7,4.6"/>
	<path fill="none" stroke="#3C3C3C" stroke-linecap="round" stroke-linejoin="round" stroke-miterlimit="10" d="M7.7,12.7
		c-0.7-0.3-3.9-0.9-4.1-0.9c-0.2,0-0.8,1-0.8,1.8c0,0.8,0.9,4.8,1.2,5.1c0.3,0.4,14.3,6.8,14.7,6.8s1.3-0.3,1.4-0.5
		c0.1-0.3,1.9-3.2,2.1-3.8c0.1-0.6-0.3-1.8-0.7-1.9C21.1,19.1,7.7,12.7,7.7,12.7z"/>
	<path fill="none" stroke="#3C3C3C" stroke-linecap="round" stroke-linejoin="round" stroke-miterlimit="10" d="M23.2,20.4
		c0,0,2.1,1.5,2.8,2.7c0.8,1.3,0.8,1.2,1,1.6c0.1,0.4-0.1,1.5-1.2,1.8c-1.1,0.3-2.3-1.1-2.6-1.1c-0.3,0-0.7,0.3-1.4,0.1"/>
	<path fill="none" stroke="#3C3C3C" stroke-linecap="round" stroke-linejoin="round" stroke-miterlimit="10" d="M27.3,25.1
		c0,0,0.9,0.8,1.7,0.8c0.8,0,7.2-1,7.4-1c0.2,0,0.8,0.7,0.8,1.4c0,0.7-0.3,0.8-0.5,0.8c-0.1,0-7.6,1.1-8.6,1.1
		c-1.1,0-2.6-1.2-2.6-1.2"/>
</g>
</svg>
