<svg id="Capa_1" data-name="Capa 1" xmlns="http://www.w3.org/2000/svg" viewBox="0 0 40 40"><defs><style>.cls-1,.cls-3{fill:none;stroke-linecap:round;}.cls-1{stroke:#393939;stroke-linejoin:round;}.cls-2{fill:#a72c2c;}.cls-3{stroke:#a72c2c;stroke-miterlimit:10;}</style></defs><title>14-moto-equipacion-carretera-bolsas</title><path class="cls-1" d="M19.42,7.55h1.16A9.39,9.39,0,0,1,30,16.94V34.87A2.13,2.13,0,0,1,27.84,37H12.16A2.13,2.13,0,0,1,10,34.87V16.94A9.39,9.39,0,0,1,19.42,7.55Z"/><rect class="cls-1" x="12.42" y="22.36" width="14.77" height="12.46" rx="2.95"/><line class="cls-1" x1="27.16" y1="26.7" x2="12.55" y2="26.7"/><path class="cls-1" d="M8.26,27.09a5.75,5.75,0,0,0-.69,2.75v4.74A2.44,2.44,0,0,0,8.8,36.71"/><path class="cls-1" d="M31.25,36.68a2.42,2.42,0,0,0,1.18-2.1V29.84a5.91,5.91,0,0,0-.62-2.62"/><path class="cls-1" d="M14,9.15s-3-5.83-4.76-5.5S5.88,9.43,8.07,20.18"/><path class="cls-1" d="M9.19,3.65A29.32,29.32,0,0,1,12.73,3c1.18,0,3.63,4.82,3.63,4.82"/><path class="cls-1" d="M11,4.93S9.17,6.58,9.61,11.26"/><path class="cls-1" d="M26.09,9s3-5.71,4.73-5.38,3.3,5.78,1.11,16.53"/><path class="cls-1" d="M30.82,3.65A29.32,29.32,0,0,0,27.28,3c-1.18,0-3.64,4.93-3.64,4.93"/><path class="cls-1" d="M29.09,4.78s1.59,2.48,1.23,7.38"/><path class="cls-2" d="M14.22,29a.49.49,0,0,0-.27.44.53.53,0,0,0,.15.36.48.48,0,0,0,.34.14h0a.49.49,0,0,0,.48-.49.52.52,0,0,0-.14-.36.51.51,0,0,0-.35-.15A.48.48,0,0,0,14.22,29Z"/><line class="cls-3" x1="16.46" y1="29.45" x2="18.15" y2="29.46"/><line class="cls-3" x1="16.48" y1="31.43" x2="18.16" y2="31.43"/></svg>