<svg id="Capa_1" data-name="Capa 1" xmlns="http://www.w3.org/2000/svg" viewBox="0 0 40 40"><defs><style>.cls-1{fill:#a72c2c;}.cls-2,.cls-3{fill:none;stroke-linecap:round;}.cls-2{stroke:#a72c2c;stroke-miterlimit:10;}.cls-3{stroke:#363636;stroke-linejoin:round;}</style></defs><title>15-moto-equipacion-carretera-deslizaderas</title><path class="cls-1" d="M26.23,22.21a.49.49,0,0,0-.26.44.49.49,0,0,0,.15.35.49.49,0,0,0,.35.15h0a.49.49,0,0,0,.48-.51.49.49,0,0,0-.15-.35.5.5,0,0,0-.35-.14A.48.48,0,0,0,26.23,22.21Z"/><line class="cls-2" x1="28.34" y1="22.64" x2="30.05" y2="22.62"/><path class="cls-3" d="M29.65,28.38h0a5.93,5.93,0,0,1-5.82-6V19.45c0-3.33,2.61-7.83,5.82-7.83h0c3.22,0,5.82,4.5,5.82,7.83v2.89A5.93,5.93,0,0,1,29.65,28.38Z"/><path class="cls-3" d="M37.43,21.48c-.29-.13-1.6-.42-1.6-1.13s1.21-.88,1.73-1.25a.86.86,0,0,0,.39-.72.31.31,0,0,1,0-.1h0a11.43,11.43,0,0,0-3.28-6.91.86.86,0,0,0-.52-.09c-.29,0-1.43.76-1.83.47s-.37-1.36-.52-1.89a1,1,0,0,0-.52-.59A5.48,5.48,0,0,0,29.65,9a6.06,6.06,0,0,0-1.48.19,1.16,1.16,0,0,0-.65.66c-.15.53-.13,1.6-.52,1.89s-1.54-.45-1.83-.47a.76.76,0,0,0-.67.21,12.35,12.35,0,0,0-3.14,6.93.86.86,0,0,0,.39.69c.52.37,1.74.54,1.73,1.25s-1.31,1-1.6,1.13a.84.84,0,0,0-.58.72v.14a8.76,8.76,0,0,0,3.52,7.05.94.94,0,0,0,.68.07c.56-.12,1-.7,1.39-.73s.52.09.63.44.17.93.28,1.26a.94.94,0,0,0,.69.48,8.92,8.92,0,0,0,1.16.09,7.74,7.74,0,0,0,1.19-.1.94.94,0,0,0,.67-.47c.12-.33.18-.91.28-1.26s.26-.47.63-.44.83.61,1.39.73a1,1,0,0,0,.66-.06A8.74,8.74,0,0,0,38,22.34v-.18A.84.84,0,0,0,37.43,21.48Z"/><path class="cls-3" d="M10.35,28.38h0a5.93,5.93,0,0,1-5.82-6V19.45c0-3.33,2.6-7.83,5.82-7.83h0c3.21,0,5.82,4.5,5.82,7.83v2.89A5.93,5.93,0,0,1,10.35,28.38Z"/><path class="cls-3" d="M18.13,21.48c-.29-.13-1.6-.42-1.61-1.13s1.22-.88,1.73-1.25a.81.81,0,0,0,.39-.72v-.1h0a11.42,11.42,0,0,0-3.27-6.91.86.86,0,0,0-.52-.09c-.29,0-1.44.76-1.83.47s-.37-1.36-.53-1.89A1,1,0,0,0,12,9.26,5.36,5.36,0,0,0,10.35,9a6.06,6.06,0,0,0-1.48.19,1.16,1.16,0,0,0-.65.66c-.16.53-.13,1.6-.53,1.89s-1.54-.45-1.83-.47a.74.74,0,0,0-.66.21,12.28,12.28,0,0,0-3.14,6.93.83.83,0,0,0,.39.69c.52.37,1.74.54,1.73,1.25s-1.32,1-1.6,1.13A.84.84,0,0,0,2,22.2v.14a8.73,8.73,0,0,0,3.52,7.05.93.93,0,0,0,.68.07c.56-.12,1-.7,1.38-.73a.51.51,0,0,1,.63.44c.11.35.17.93.29,1.26a.94.94,0,0,0,.69.48,8.79,8.79,0,0,0,1.16.09,7.62,7.62,0,0,0,1.18-.1.94.94,0,0,0,.68-.47c.11-.33.17-.91.28-1.26s.25-.47.63-.44.83.61,1.39.73a1,1,0,0,0,.66-.06,8.74,8.74,0,0,0,3.53-7.06v-.18A.86.86,0,0,0,18.13,21.48Z"/></svg>