<svg id="Capa_1" data-name="Capa 1" xmlns="http://www.w3.org/2000/svg" viewBox="0 0 40 40"><defs><style>.cls-1{fill:none;stroke:#363636;stroke-linecap:round;stroke-linejoin:round;}.cls-2{fill:#a72c2c;}</style></defs><title>18-moto-equipacion-carretera-limpieza</title><path class="cls-1" d="M24.9,13.12a13,13,0,0,0-1.49.16,13.53,13.53,0,0,1-3.76,0,15.85,15.85,0,0,0-2-.19,2.11,2.11,0,0,0-2.14,2.1V34.92a2,2,0,0,0,.08.55,3.09,3.09,0,0,0,3.05,2.45h5a3.1,3.1,0,0,0,2.95-2.1,2.09,2.09,0,0,0,.21-.9V15.19A2.09,2.09,0,0,0,24.9,13.12Z"/><path class="cls-1" d="M24.9,16.67a13.32,13.32,0,0,0-1.49.17,14.34,14.34,0,0,1-3.76,0,13.86,13.86,0,0,0-2-.19"/><path class="cls-1" d="M24.9,11.16a13.32,13.32,0,0,0-1.49.17,13.92,13.92,0,0,1-3.76,0,13.86,13.86,0,0,0-2-.19"/><rect class="cls-1" x="19.4" y="5.32" width="4.06" height="4.33" rx="1.03"/><rect class="cls-1" x="29.57" y="7.16" width="4.06" height="4.33" rx="1.03"/><path class="cls-2" d="M21.26,6.94a.5.5,0,0,0-.11.8.46.46,0,0,0,.35.14h0a.48.48,0,0,0,.48-.5.51.51,0,0,0-.5-.5A.84.84,0,0,0,21.26,6.94Z"/><path class="cls-1" d="M12.39,1.92H8.26c-.73,0-1.09.85-1.09.85H5.5v1.3h.8a3.44,3.44,0,0,1-1,4L3.25,10s-.51.5-.07.64S6.88,9.39,8,5.27a1.3,1.3,0,0,1,1.44-1h.36V7.46a1,1,0,0,0,1,1h2a1,1,0,0,0,1.05-1V3.13A1.49,1.49,0,0,0,12.39,1.92Z"/><path class="cls-1" d="M15.45,11.4A3,3,0,0,0,13,10.18H11a2.93,2.93,0,0,0-3,2.9V30.15A1.84,1.84,0,0,0,9.94,32h3.41"/><path class="cls-1" d="M29.08,32h4.76a3.09,3.09,0,0,0,2.94-2.1A2,2,0,0,0,37,29V15.19a2.1,2.1,0,0,0-1.92-2.07,13,13,0,0,0-1.49.16,13.6,13.6,0,0,1-3.77,0,14.42,14.42,0,0,0-1.45-.16"/></svg>