<svg id="Capa_1" data-name="Capa 1" xmlns="http://www.w3.org/2000/svg" viewBox="0 0 40 40"><defs><style>.cls-1{fill:#a72c2c;}.cls-2,.cls-3{fill:none;stroke-linecap:round;}.cls-2{stroke:#a72c2c;stroke-miterlimit:10;}.cls-3{stroke:#363636;stroke-linejoin:round;}</style></defs><title>21-moto-equipacion-motocross-cascos</title><path class="cls-1" d="M25.61,31a.48.48,0,0,0-.49.62.44.44,0,0,0,.23.3h0a.49.49,0,0,0,.67-.19.53.53,0,0,0,0-.37.5.5,0,0,0-.23-.3A.44.44,0,0,0,25.61,31Z"/><line class="cls-2" x1="27.32" y1="32.41" x2="28.84" y2="33.26"/><path class="cls-1" d="M9,4.56a.47.47,0,0,0-.5.13A.5.5,0,0,0,8.35,5a.45.45,0,0,0,.15.34v0a.49.49,0,0,0,.7,0A.5.5,0,0,0,9.35,5a.49.49,0,0,0-.15-.35A.45.45,0,0,0,9,4.56Z"/><path class="cls-3" d="M27.94,12S19,13,17.82,13.3s-1.77-.15-3.42-1.6S11.62,9.25,12,9a12.58,12.58,0,0,1,5-1.13c1.75.11,3.79,1.86,8.19,2,1.92.06,3.65.05,5,0"/><path class="cls-3" d="M18.3,4.39s1.22,1.93,2,2.13,3.47.31,4.27.73a5.76,5.76,0,0,1,.89.62"/><path class="cls-3" d="M16,4.18a23.09,23.09,0,0,0-4.9.28"/><path class="cls-3" d="M27.94,12s9.43-1,9.92-1.33,1.47-1.42,1-1.59S35.34,9.18,32.1,8s-4-2.28-5.54-2.42A16.29,16.29,0,0,1,21,4.39c-2-.88-2.74,0-2.74,0"/><path class="cls-3" d="M28.76,23.72a15,15,0,0,1-1.73.91,6.3,6.3,0,0,1-2.5.49c-2.29-.06-6.43-1.59-7.36-3.93s-.4-4.5,1.29-5.08S28.48,15,28.77,15"/><path class="cls-3" d="M6.7,5.66l-.62.26c-1,.39-2.55,1-2.56,1.21a8.48,8.48,0,0,1-.36,4c-.74,1.75-1,2.83-1.22,3.36s-.81.92-.79,1.17S2.29,21,2,21.74s-.87,2.11-1,2.4a1.49,1.49,0,0,0,0,.81,39.57,39.57,0,0,1,8.25,2.26c4.07,1.66,7,3.2,10.61,4.19s8.2,4.09,8.81,4.51,1.66-.84,1.9-1.23a51.84,51.84,0,0,0,1.51-5.89A13.06,13.06,0,0,0,31,25.85l-.3-.46"/></svg>