<svg id="Capa_1" data-name="Capa 1" xmlns="http://www.w3.org/2000/svg" viewBox="0 0 40 40"><defs><style>.cls-1,.cls-3{fill:none;stroke-linecap:round;}.cls-1{stroke:#393939;stroke-linejoin:round;}.cls-2{fill:#a72c2c;}.cls-3{stroke:#a72c2c;stroke-miterlimit:10;}</style></defs><title>23-moto-equipacion-motocross-camisetas</title><path class="cls-1" d="M23.81,3.81A14,14,0,0,1,28.92,6.4c2.62,2.33,6.95,9.85,7.08,11.44a5.19,5.19,0,0,1-1.45,3.36c-1.57,2-7.73,7.76-9,8.25s-1.9-2-1.7-2.63,6-7.09,6.16-7.64S27.15,15,26.29,12.76"/><line class="cls-1" x1="26.6" y1="21.12" x2="26.57" y2="16.36"/><line class="cls-1" x1="10.1" y1="25.3" x2="10.78" y2="12.55"/><path class="cls-1" d="M21.87,4c-.08-.72-1.81-1.14-3.87-.94S14.33,4,14.41,4.69a.76.76,0,0,0,.44.53,10.77,10.77,0,0,0,3.11,2A8.34,8.34,0,0,0,21.54,4.6.73.73,0,0,0,21.87,4Z"/><path class="cls-2" d="M10,31.31a.49.49,0,0,0-.31.41.53.53,0,0,0,.11.37.48.48,0,0,0,.33.18h0a.5.5,0,0,0,.53-.45.52.52,0,0,0-.43-.55A.52.52,0,0,0,10,31.31Z"/><line class="cls-3" x1="12.57" y1="32.06" x2="14.45" y2="32.26"/><line class="cls-3" x1="12.38" y1="33.81" x2="14.26" y2="34.01"/><path class="cls-1" d="M10.1,33.85V34c0,.73.72,2.75,8.46,3s8.19-1.28,8.26-1.71,0-4.77,0-4.77"/><path class="cls-1" d="M12.66,4.81C10.79,5.82,9.21,7,9,7.5c-.39,1-1.5,13.88-2.62,16.33A62,62,0,0,0,4,30.13c-.06.3,1.58,1,2.76.67a20.47,20.47,0,0,0,3.34-5.5C10,27,10,28.52,10,29.79"/></svg>