<svg id="Capa_1" data-name="Capa 1" xmlns="http://www.w3.org/2000/svg" viewBox="0 0 40 40"><defs><style>.cls-1{fill:none;stroke:#393939;stroke-linecap:round;stroke-linejoin:round;}.cls-2{fill:#a72c2c;}</style></defs><title>24-moto-equipacion-motocross-pantalones</title><path class="cls-1" d="M18.28,13.09s-.1-2.13-.05-3.62S19.41,8,20,8c1.05,0,1.79,1.86,2.93,4.69a19.46,19.46,0,0,1,1.35,5.29"/><path class="cls-1" d="M13.79,24.11a6.78,6.78,0,0,0,3.42,1.53"/><path class="cls-1" d="M12.71,28.12a6.66,6.66,0,0,0,3,2.14"/><path class="cls-1" d="M13,19.91a8.16,8.16,0,0,0,2.14.27,8.62,8.62,0,0,1,2.31.18"/><path class="cls-1" d="M28.13,18.17a18.17,18.17,0,0,0-2.58,1.24c.73,1.89,1.85,3.62,2.68,3.95a2.39,2.39,0,0,0,1.26.09"/><path class="cls-1" d="M27.87,24.71a39.81,39.81,0,0,1-1.45,3.77,4.51,4.51,0,0,0,2.22-1"/><path class="cls-2" d="M9.21,10.43a.49.49,0,0,0-.2.48.5.5,0,0,0,.2.33.49.49,0,0,0,.37.09h0a.5.5,0,0,0,.4-.57.52.52,0,0,0-.2-.32.49.49,0,0,0-.37-.09A.54.54,0,0,0,9.21,10.43Z"/><path class="cls-1" d="M9.79,13.06a30.66,30.66,0,0,0,2,7.6,6.25,6.25,0,0,1,.38,4.56A30.43,30.43,0,0,0,11.05,31c-.06,1.6-.25,3.72-.27,4.38s-.06,2.1.9,2.41,2,.34,2.29-.81,2.58-5.11,3.66-7.47a16.75,16.75,0,0,0,1.42-8c-.23-2.59-.77-8.44-.77-8.44s3.64,5.31,4.41,6.22a15.27,15.27,0,0,1,2.27,4c0,.42-.92,2.08-1.35,3.57s-.07,3.54-.13,4.32-.75,2.77-.77,3.11a1.76,1.76,0,0,0,1.06,1.9c1.17.49,1.59.45,1.79.26a11,11,0,0,0,1.84-3c1.16-2.3,3.85-8.29,3.58-11.26s-3.65-8.42-5.29-12.1a50,50,0,0,1-2.52-7,.38.38,0,0,0-.5-.32c-4.89,1-11.2-.79-11.2-.79A.4.4,0,0,0,11,2.3,25.13,25.13,0,0,0,9.57,8.57"/></svg>