<svg id="Capa_1" data-name="Capa 1" xmlns="http://www.w3.org/2000/svg" viewBox="0 0 40 40"><defs><style>.cls-1,.cls-2{fill:none;stroke-linecap:round;}.cls-1{stroke:#363636;stroke-linejoin:round;}.cls-2{stroke:#a72c2c;stroke-miterlimit:10;}.cls-3{fill:#a72c2c;}</style></defs><title>25-moto-equipacion-motocross-guantes</title><line class="cls-1" x1="19.22" y1="36.27" x2="19.38" y2="25.11"/><path class="cls-1" d="M14.59,33.75a119.36,119.36,0,0,1,.77-12.09"/><path class="cls-1" d="M11.19,30.14s0-6.75,1.08-10.52"/><path class="cls-2" d="M25.88,18.29a25.77,25.77,0,0,0-2.25-9.87,22.56,22.56,0,0,1-6.66-1"/><path class="cls-1" d="M14.18,8.92C12.91,12.2,9.29,21.2,9,24.33a7.36,7.36,0,0,0,2.16,5.81,3.71,3.71,0,0,0,3.4,3.61s.61,3.93,2.62,4.09a1.64,1.64,0,0,0,2-1.57c.16,1.88,1.7,2.2,3.09,1.1s1.54-6,1.7-9.9,1.54-6.75,2-6.91,1.7,1.26,1.7,2.67-.78,6.28.3,6.6,1.86-1.1,2.63-3.62.15-8.48-.77-10.83-2.63-8.8-2.63-10.22.16-1.72-1.08-1.88S18.77,2.41,16.75,2c-1.59-.3-1.55,2.52-1.55,2.52"/><path class="cls-3" d="M15.3,6.65a.49.49,0,0,0-.45-.26.51.51,0,0,0-.35.15.5.5,0,0,0-.14.35v0a.5.5,0,0,0,.5.48.49.49,0,0,0,.35-.15.49.49,0,0,0,.15-.35A.48.48,0,0,0,15.3,6.65Z"/></svg>