<svg id="Capa_1" data-name="Capa 1" xmlns="http://www.w3.org/2000/svg" viewBox="0 0 40 40"><defs><style>.cls-1,.cls-2{fill:none;stroke-linecap:round;}.cls-1{stroke:#393939;stroke-linejoin:round;}.cls-2{stroke:#a72c2c;stroke-miterlimit:10;}.cls-3{fill:#a72c2c;}</style></defs><title>26-moto-equipacion-motocross-botas</title><path class="cls-1" d="M19.92,26.07c0-.81.12-1.82.13-1.93s.4-.22.4-.22l.08-.65a.86.86,0,0,1-.31-.71c0-.49.06-1.72.12-2.2a.84.84,0,0,1,.53-.63s0-.79.1-2.8.36-4.53.36-4.53a2.52,2.52,0,0,1-.65-1.3,26,26,0,0,1,0-2.89c0-.48.82-.17.82-.17s-.05-2.84,1.72-3.76a8.27,8.27,0,0,1,3.76-.67,2.28,2.28,0,0,1,1.19-.19c1.24.05,3.49.41,3.76.75s-.44,4.43-.67,5.23l-2.58,8.93s.29,0,.19,1.12-.7,3.05-.36,3.52,1.16,2.29,2.84,3,2.5.39,2.66,1.94a2.51,2.51,0,0,1-1.66,3,9.24,9.24,0,0,1-4,.43l-1.17-.22"/><path class="cls-1" d="M30.72,30c-2.25-.22-4.9-.73-4.9-.73a48.59,48.59,0,0,0-1.7-5c-.31-.35-2-.38-2-.38"/><path class="cls-1" d="M24.57,23s1.8-.93,1.25-2.12a6.46,6.46,0,0,0-1.55-2s1.26-2.2,2.16-1.88.76.33.76.33"/><path class="cls-1" d="M24.37,15.81s-.69-3.74-.88-5.81,2.07-4.63,2.07-4.63"/><path class="cls-1" d="M8.94,24v.78c0,.54-1,.91-1,1.62v2.68c0,1.2,5.89,5.91,6.78,6.42s6.49.34,7.88.06,1.61-1.94,1.61-1.94"/><path class="cls-1" d="M8,8.27S8.64,14,9.55,18.77"/><path class="cls-1" d="M7.11,20H10a1,1,0,0,1,.94-.63h4.47a1,1,0,0,1,.41.09,17.45,17.45,0,0,1,.43-2.15,46.75,46.75,0,0,0,2.55-8.44c.72-4.2,1.14-6.54-.53-6.71a36.59,36.59,0,0,0-6.19,0,3.5,3.5,0,0,0-2,1.31S8,2,7.77,3.86c-.17,1.51-.21,2.51-.21,2.51S6.2,6.41,6.25,9.1c.06,3,.86,5.6.86,7.34Z"/><path class="cls-1" d="M15.38,19.35H10.91A1,1,0,0,0,10,20H6.72a.73.73,0,0,0-.72.74v.71a.73.73,0,0,0,.72.74H10a1,1,0,0,0,.94.63h4.47a1,1,0,0,0,1-1.06V20.41A1,1,0,0,0,15.38,19.35Z"/><path class="cls-1" d="M16.44,25a3,3,0,0,1-1-1.95v-.26H10.91a1,1,0,0,1-.94-.63H7.11v2.22c0,.46-.75.8-.75,1.23V32c0,.6,0,3,1.81,3h2.75a26.83,26.83,0,0,0,3.55,2.56s.3.43,3.23.43,6.26,0,7.54-1.16c1-.88,1.72-3.25.44-4.68s-5.52-3.24-7.49-5.26"/><line class="cls-2" x1="12.6" y1="8.97" x2="14.32" y2="8.98"/><line class="cls-2" x1="12.61" y1="10.74" x2="14.33" y2="10.75"/><path class="cls-3" d="M11.16,8.65a.47.47,0,0,0-.45-.26.49.49,0,0,0-.35.15.5.5,0,0,0-.14.35v0a.49.49,0,0,0,.51.47.48.48,0,0,0,.49-.49A.48.48,0,0,0,11.16,8.65Z"/></svg>