<svg id="Capa_1" data-name="Capa 1" xmlns="http://www.w3.org/2000/svg" viewBox="0 0 40 40"><defs><style>.cls-1,.cls-3{fill:none;stroke-linecap:round;}.cls-1{stroke:#363636;stroke-linejoin:round;}.cls-2{fill:#a72c2c;}.cls-3{stroke:#a72c2c;stroke-miterlimit:10;}</style></defs><title>27-moto-equipacion-motocross-protecciones</title><line class="cls-1" x1="20.88" y1="33.47" x2="20.88" y2="14.7"/><path class="cls-1" d="M17.45,3.53s.63,2.91,3.16,3,3.56-2.76,3.56-2.76l.91,1.15a4.75,4.75,0,0,1-4.2,3,4.37,4.37,0,0,1-4.34-3.12Z"/><path class="cls-1" d="M24.18,3.69c-.12-.21-.19-.36-.19-.36s-.09-.25-.49-.21a17.5,17.5,0,0,1-2.73.31,17.49,17.49,0,0,1-2.72-.31c-.4,0-.49.21-.49.21a2.63,2.63,0,0,1-.18.33"/><path class="cls-1" d="M31.3,22.05c.51,1.61.61,3.06.11,6.24a24,24,0,0,1-2.17,6.55c1.65,2.77,4,2.24,4,2.24s1.31-3.76,2.12-5.87a29.78,29.78,0,0,0,1.41-8.79A61.24,61.24,0,0,0,34,12.77"/><path class="cls-1" d="M12.38,25.34c.08,1.05.11,1.34.12,1.92.06,2.22.12,4.95.12,4.95s2.77,1.26,8.23,1.26,8.08-1.26,8.08-1.26.06-2.73.12-4.95c0-.47,0-1,.09-1.81"/><path class="cls-1" d="M7.51,12.9A58.21,58.21,0,0,0,4.8,22.42a29.78,29.78,0,0,0,1.41,8.79c.81,2.11,2.12,5.87,2.12,5.87s2.33.53,4-2.24a24,24,0,0,1-2.17-6.55c-.55-3.46-.52-4.71.07-6.47"/><path class="cls-2" d="M23.87,31.29a.5.5,0,0,0-.19.49.48.48,0,0,0,.2.32.46.46,0,0,0,.36.09h0a.49.49,0,0,0,.4-.57.53.53,0,0,0-.19-.33.49.49,0,0,0-.37-.09A.79.79,0,0,0,23.87,31.29Z"/><line class="cls-3" x1="25.56" y1="31.5" x2="27.07" y2="31.26"/><line class="cls-1" x1="20.88" y1="11.08" x2="20.88" y2="7.9"/><path class="cls-3" d="M15.25,5.2s-1.44-1.42-4-.17A7.91,7.91,0,0,0,7.35,9.76c-.26.87.6,1.68,1.56,1.74S9.6,10.66,11.45,9,14.27,7.75,15.25,5.2Z"/><path class="cls-3" d="M19.44,12.93a3.76,3.76,0,0,1-3-1.82c-.78-1.7-1-2.48-1.91-2.48a7.45,7.45,0,0,0-3,2.35c-.44.92.35,6.45.26,9A4.81,4.81,0,0,0,15,25c1.83.44,4.43-3.92,4.43-3.92Z"/><path class="cls-3" d="M26.61,5.2S28,3.78,30.64,5A7.91,7.91,0,0,1,34.5,9.76c.27.87-.6,1.68-1.55,1.74S32.26,10.66,30.4,9,27.59,7.75,26.61,5.2Z"/><path class="cls-3" d="M22.45,12.93a3.74,3.74,0,0,0,3-1.82c.79-1.7,1.05-2.48,1.92-2.48A7.52,7.52,0,0,1,30.43,11c.44.92-.35,6.45-.26,9a4.83,4.83,0,0,1-3.31,5c-1.83.44-4.43-3.92-4.43-3.92Z"/></svg>