<svg id="Capa_1" data-name="Capa 1" xmlns="http://www.w3.org/2000/svg" viewBox="0 0 40 40"><defs><style>.cls-1,.cls-3{fill:none;stroke-linecap:round;}.cls-1{stroke:#393939;stroke-linejoin:round;}.cls-2{fill:#a72c2c;}.cls-3{stroke:#a72c2c;stroke-miterlimit:10;}</style></defs><title>28-moto-equipacion-motocross-gafas</title><path class="cls-1" d="M14.1,28a14.57,14.57,0,0,1-2.2-.22l-.15,0c-1.46-.23-5.72-3.22-6.09-4.5-.3-1,.31-5.81.78-6.89.33-.75,1.13-1.6,6.78-2.87l.08,0a2.54,2.54,0,0,0,1-.56,5.28,5.28,0,0,1,.74-.49c.21-.12.86-.46,5-.43s4.76.31,5,.43a5.93,5.93,0,0,1,.74.49,2.58,2.58,0,0,0,1,.56l.09,0c5.65,1.27,6.44,2.12,6.77,2.87l.06.13,1.07,5.69s.13.19-.34,1.07c-.62,1.17-4.63,4.27-6.09,4.5l-.15,0c-1.5.24-4.27.68-5.36-1.2a17,17,0,0,0-2-2.71c-.17,0-1.38,0-1.55,0a17.59,17.59,0,0,0-2,2.71A3.37,3.37,0,0,1,14.1,28Z"/><path class="cls-1" d="M21.85,21.61c.92.43,2.66,3.05,3,3.72.07.13.5.38,2.88,0l.16,0a15.11,15.11,0,0,0,4.17-2.9.41.41,0,0,0,.12-.38l-.85-4.56a20,20,0,0,0-5.07-1.56l-.08,0a4.77,4.77,0,0,1-1.92-1l-.38-.27A29.5,29.5,0,0,0,20,14.47a29.65,29.65,0,0,0-3.91.17l-.38.27a4.84,4.84,0,0,1-1.92,1l-.09,0c-3.79.86-4.86,1.42-5.12,1.6a27.13,27.13,0,0,0-.62,5,15.44,15.44,0,0,0,4.12,2.83l.16,0c2.37.37,2.8.12,2.88,0,.38-.67,2.13-3.29,3-3.72A10.4,10.4,0,0,1,21.85,21.61Z"/><path class="cls-1" d="M35.3,16.78h2.54A1.17,1.17,0,0,1,39,18v3.46a1.16,1.16,0,0,1-1.16,1.17H36.33"/><path class="cls-1" d="M3.81,22.59H2.16A1.16,1.16,0,0,1,1,21.42V18a1.17,1.17,0,0,1,1.16-1.18H4.53"/><path class="cls-2" d="M10,19.28a.5.5,0,0,0-.27.45.53.53,0,0,0,.15.35.49.49,0,0,0,.35.15h0a.49.49,0,0,0,.48-.5.5.5,0,0,0-.14-.35.47.47,0,0,0-.35-.15A.6.6,0,0,0,10,19.28Z"/><line class="cls-3" x1="12.37" y1="19.77" x2="14" y2="19.77"/><line class="cls-3" x1="12.38" y1="21.42" x2="14.01" y2="21.42"/></svg>