<svg id="Capa_1" data-name="Capa 1" xmlns="http://www.w3.org/2000/svg" viewBox="0 0 40 40"><defs><style>.cls-1{fill:#a72c2c;}.cls-2{fill:none;stroke:#393939;stroke-linecap:round;stroke-linejoin:round;}</style></defs><title>29-moto-equipacion-motocross-calcetines</title><path class="cls-1" d="M12.2,15.23a.51.51,0,0,0,0,.81.56.56,0,0,0,.37.11h0a.5.5,0,0,0,.24-.89.52.52,0,0,0-.36-.11A.63.63,0,0,0,12.2,15.23Z"/><path class="cls-2" d="M11.63,17.1a25.85,25.85,0,0,1-2.84,4.22C6.52,23.65,6.52,26,8.16,27.16s6.3,4,8.32,6.76,4.42,4.41,7.82,4,4.92-.9,6.3-1a3,3,0,0,0,2.4-2.6c0-.91-.5-.78-2.27-.78s-5.3-1.3-6.56-2.86-2.64-6.11-2.9-9.61,5.35-14.22,5.61-14.7c.35-.64.59-1.52-.25-1.95-1.16-.59-5.57-2.09-6.43-2.34S19,2.49,19,2.49s-4.11,8.74-5.66,11.63M9.87,22.5s1.66.9.76,4.35m13.06,9a3.17,3.17,0,0,1,2.71-1.93"/></svg>