<svg id="Capa_1" data-name="Capa 1" xmlns="http://www.w3.org/2000/svg" xmlns:xlink="http://www.w3.org/1999/xlink" viewBox="0 0 40 40"><defs><style>.cls-1,.cls-2,.cls-3{fill:none;}.cls-1{clip-rule:evenodd;}.cls-2{stroke:#a72c2c;stroke-miterlimit:10;}.cls-2,.cls-3{stroke-linecap:round;}.cls-3{stroke:#363636;stroke-linejoin:round;}.cls-4{clip-path:url(#clip-path);}.cls-5{fill:#393939;}.cls-6{clip-path:url(#clip-path-2);}.cls-7{clip-path:url(#clip-path-3);}.cls-8{clip-path:url(#clip-path-4);}.cls-9{clip-path:url(#clip-path-5);}</style><clipPath id="clip-path"><path id="SVGID" class="cls-1" d="M18.17,19.54h0a3.23,3.23,0,0,1-.79-1.63,3.13,3.13,0,0,1-.79,1.63h0a1.3,1.3,0,0,0-.33.87,1.12,1.12,0,1,0,2.24,0,1.3,1.3,0,0,0-.33-.87"/></clipPath><clipPath id="clip-path-2"><path id="SVGID-2" data-name="SVGID" class="cls-1" d="M14.82,15.81h0A3.13,3.13,0,0,1,14,14.18a3.3,3.3,0,0,1-.79,1.63h0a1.27,1.27,0,0,0-.34.88,1.13,1.13,0,1,0,2.25,0,1.27,1.27,0,0,0-.34-.88"/></clipPath><clipPath id="clip-path-3"><path id="SVGID-3" data-name="SVGID" class="cls-1" d="M21.11,15.26h0a3.31,3.31,0,0,1-.79-1.64,3.14,3.14,0,0,1-.78,1.64h0a1.26,1.26,0,0,0-.34.87,1.12,1.12,0,1,0,2.24,0,1.25,1.25,0,0,0-.33-.87"/></clipPath><clipPath id="clip-path-4"><path id="SVGID-4" data-name="SVGID" class="cls-1" d="M24.55,19.54h0a3.34,3.34,0,0,1-.79-1.63A3.16,3.16,0,0,1,23,19.54h0a1.26,1.26,0,0,0-.34.87,1.13,1.13,0,1,0,2.25,0,1.26,1.26,0,0,0-.34-.87"/></clipPath><clipPath id="clip-path-5"><path id="SVGID-5" data-name="SVGID" class="cls-1" d="M27.4,15.26h0a3.11,3.11,0,0,1-.79-1.64,3.21,3.21,0,0,1-.79,1.64h0a1.3,1.3,0,0,0-.33.87,1.12,1.12,0,1,0,2.24,0,1.3,1.3,0,0,0-.33-.87"/></clipPath></defs><title>31-moto-equipacion-motocross-impermeables</title><path class="cls-2" d="M2.77,18.33,15.05,29.78a12.29,12.29,0,0,1,8.87-4.13c5.5,0,9.08.81,14-3.27"/><path class="cls-3" d="M2.77,20.55,15.05,32s3.6-4.91,9.1-4.91,8.76,1.25,13.71-2.83"/><path class="cls-3" d="M38,20.54a15.77,15.77,0,0,1-10.72,3.62c-6.86-.12-9.93,1.35-12.18,3.51L2,15.12s2.79-3.58,10-3.32S21.58,10.25,24.9,8Z"/><g class="cls-4"><rect class="cls-5" x="14.81" y="16.33" width="5.13" height="6.89"/></g><g class="cls-6"><rect class="cls-5" x="11.47" y="12.6" width="5.13" height="6.89"/></g><g class="cls-7"><rect class="cls-5" x="17.76" y="12.05" width="5.13" height="6.89"/></g><g class="cls-8"><rect class="cls-5" x="21.2" y="16.33" width="5.13" height="6.89"/></g><g class="cls-9"><rect class="cls-5" x="24.04" y="12.05" width="5.13" height="6.89"/></g></svg>