<svg id="Capa_1" data-name="Capa 1" xmlns="http://www.w3.org/2000/svg" viewBox="0 0 40 40"><defs><style>.cls-1,.cls-2{fill:none;stroke-linecap:round;}.cls-1{stroke:#363636;stroke-linejoin:round;}.cls-2{stroke:#a72c2c;stroke-miterlimit:10;}</style></defs><title>32-moto-equipacion-motocross-bolsas</title><path class="cls-1" d="M1,24v3.13A4.92,4.92,0,0,0,5.92,32H34.08A4.92,4.92,0,0,0,39,27.08V24a8.69,8.69,0,0,0-8.68-8.69"/><line class="cls-2" x1="36.54" y1="20.34" x2="27.55" y2="27.76"/><line class="cls-2" x1="33.5" y1="20.34" x2="24.51" y2="27.76"/><line class="cls-2" x1="30.47" y1="20.34" x2="21.48" y2="27.76"/><line class="cls-1" x1="32.7" y1="17.39" x2="17.19" y2="17.39"/><path class="cls-1" d="M8.32,15.37A8.68,8.68,0,0,0,1,24v3.13A4.92,4.92,0,0,0,5.92,32H34.08A4.92,4.92,0,0,0,39,27.08V24a8.69,8.69,0,0,0-8.68-8.69H11"/><path class="cls-1" d="M14.16,30.17a3.93,3.93,0,0,0,4-3.87V23.91a6.88,6.88,0,0,0-5.61-6.68"/><path class="cls-1" d="M9.15,27.79V21.23A11.47,11.47,0,0,1,20.78,9.94h2.45c3.27,0,8.72,2.4,9.46,5.49"/><path class="cls-1" d="M7.15,27.79V21.23A13.44,13.44,0,0,1,20.78,8h2.45c4,0,11.54,3.07,11.54,8.12"/></svg>