<svg id="Capa_1" data-name="Capa 1" xmlns="http://www.w3.org/2000/svg" viewBox="0 0 40 40"><defs><style>.cls-1{fill:none;stroke:#393939;stroke-linecap:round;stroke-linejoin:round;}.cls-2{fill:#a72c2c;}</style></defs><title>34-moto-equipacion-motocross-recambios</title><path class="cls-1" d="M31.65,23.6h5.22a2.12,2.12,0,1,1,0,4.23l-5.82,0s-.21.63-.28.87c-.19.65-4.31,3.7-5.7,3.91s-4,.67-4.77-.63a15.4,15.4,0,0,0-2.8-3.47A4.39,4.39,0,0,0,16,28.37a4.39,4.39,0,0,0-1.47.11A15.4,15.4,0,0,0,11.76,32c-.77,1.3-3.37.84-4.77.63s-5.51-3.26-5.7-3.91a24,24,0,0,1,.81-6.51c.47-1,5.67-2.14,6.71-2.37a7.77,7.77,0,0,0,2.29-1.26c.66-.34,4.93-.3,4.93-.3s4.27,0,4.93.3a7.84,7.84,0,0,0,2.28,1.26c1.05.23,6.25,1.34,6.72,2.37"/><path class="cls-1" d="M1,20.14a24,24,0,0,1,1.89-6.3c.63-.94,5.94-1.2,7-1.26a7.9,7.9,0,0,0,2.47-.87c.71-.23,4.91.49,4.91.49s4.21.65,4.81,1.09a7.55,7.55,0,0,0,2.05,1.61c1,.39,5.94,2.32,6.22,3.41"/><line class="cls-1" x1="31.82" y1="20.01" x2="36.96" y2="20.85"/><path class="cls-1" d="M2.73,11.43A23.94,23.94,0,0,1,5.59,5.49c.77-.83,6.06-.27,7.12-.16a8.28,8.28,0,0,0,2.58-.49c.73-.12,4.77,1.23,4.77,1.23s4.06,1.29,4.58,1.82.85,1.36,1.77,1.9S31.91,13,32,14.11"/><line class="cls-1" x1="33.17" y1="16.01" x2="38.12" y2="17.62"/><path class="cls-2" d="M3.9,24.94a.49.49,0,0,0-.27.45.5.5,0,0,0,.14.35.53.53,0,0,0,.35.15h0a.5.5,0,0,0,.49-.5A.47.47,0,0,0,4.48,25a.45.45,0,0,0-.34-.15A.6.6,0,0,0,3.9,24.94Z"/><path class="cls-2" d="M28.09,24.94a.49.49,0,0,0-.27.45.5.5,0,0,0,.14.35.53.53,0,0,0,.35.15h0a.5.5,0,0,0,.49-.5.47.47,0,0,0-.15-.35.45.45,0,0,0-.34-.15A.6.6,0,0,0,28.09,24.94Z"/><path class="cls-2" d="M3.7,16.89a.5.5,0,0,0-.27.45.53.53,0,0,0,.15.35.49.49,0,0,0,.34.15H4a.49.49,0,0,0,.48-.5A.52.52,0,0,0,4.29,17a.5.5,0,0,0-.35-.14A.6.6,0,0,0,3.7,16.89Z"/><path class="cls-2" d="M6.11,8.33a.48.48,0,0,0-.27.44A.52.52,0,0,0,6,9.13a.52.52,0,0,0,.35.14h0a.5.5,0,0,0,.49-.5.51.51,0,0,0-.49-.5A.48.48,0,0,0,6.11,8.33Z"/></svg>