<svg id="Capa_1" data-name="Capa 1" xmlns="http://www.w3.org/2000/svg" viewBox="0 0 40 40"><defs><style>.cls-1{fill:none;stroke:#393939;stroke-linecap:round;stroke-linejoin:round;}.cls-2{fill:#a72c2c;}</style></defs><title>62-moto-accesorios-antirrobos</title><path class="cls-1" d="M14.75,30V10.18a5.34,5.34,0,0,1,10.68,0V30H27V10.18A6.82,6.82,0,0,0,20.09,3.5a6.82,6.82,0,0,0-6.95,6.68V30Z"/><path class="cls-1" d="M27.9,35.5H12.28a2.14,2.14,0,0,1-2.19-2.09V33.2A3.29,3.29,0,0,1,13.46,30H26.72a3.29,3.29,0,0,1,3.37,3.2v.21A2.14,2.14,0,0,1,27.9,35.5Z"/><path class="cls-2" d="M12.1,32.48A.5.5,0,0,0,12,33a.53.53,0,0,0,.23.3.45.45,0,0,0,.37,0h0a.49.49,0,0,0,.34-.61.46.46,0,0,0-.23-.3.44.44,0,0,0-.37-.05A.51.51,0,0,0,12.1,32.48Z"/></svg>