<svg id="Capa_1" data-name="Capa 1" xmlns="http://www.w3.org/2000/svg" viewBox="0 0 40 40"><defs><style>.cls-1,.cls-3{fill:none;stroke-linecap:round;}.cls-1{stroke:#393939;stroke-linejoin:round;}.cls-2{fill:#a72c2c;}.cls-3{stroke:#a72c2c;stroke-miterlimit:10;}</style></defs><title>63-moto-accesorios-bolsas-motos</title><path class="cls-1" d="M4.38,22.24v1A5.41,5.41,0,0,0,6,26.71c1.58,1.63,12.33,5.72,18.18,6.86s11.15-1.06,11.78-2.69a12,12,0,0,0,.33-4.43"/><path class="cls-1" d="M35.1,19.38c-1.07-3.32-2.92-6.66-6-8.54A18.63,18.63,0,0,0,19.56,7.9C17,8,9.2,9.94,9.2,9.94s-4.82.9-4.82,5.23v2.7"/><path class="cls-1" d="M8.7,12.33s3.46,1.05,9.9,5.31,13.65.17,13.65.17"/><path class="cls-1" d="M6.74,15.58S18.15,20.09,20.55,30"/><path class="cls-1" d="M26,27.34S27.44,26,31.1,25.57c3.35-.43,6.4-1.31,6.73-2.15s-.45-2.36-1.23-2.36a78.37,78.37,0,0,0-8.43,2.44c-1.91.68-3,.89-3.42,1.56a1.69,1.69,0,0,0-.08,1.77A.83.83,0,0,0,26,27.34Z"/><path class="cls-2" d="M4.35,19.5a.5.5,0,0,0-.43.3.55.55,0,0,0,0,.38.51.51,0,0,0,.26.28h0a.51.51,0,0,0,.65-.26.5.5,0,0,0,0-.38.48.48,0,0,0-.26-.28A.52.52,0,0,0,4.35,19.5Z"/><line class="cls-3" x1="6.21" y1="20.89" x2="7.89" y2="21.59"/><line class="cls-3" x1="6.11" y1="22.83" x2="7.79" y2="23.53"/></svg>