<?xml version="1.0" encoding="UTF-8"?>
<svg width="40px" height="40px" viewBox="0 0 40 40" version="1.1" xmlns="http://www.w3.org/2000/svg" xmlns:xlink="http://www.w3.org/1999/xlink">
    <title>Chaqueta - Pantalón</title>
    <g id="Chaqueta---Pantalón" stroke="none" stroke-width="1" fill="none" fill-rule="evenodd">
        <g id="Group-39" transform="translate(3, 4)">
            <line x1="10.6477" y1="19.7218735" x2="10.6477" y2="8.62187347" id="Stroke-1" stroke="#393939" stroke-width="0.94" stroke-linecap="round" stroke-linejoin="round"></line>
            <g id="Group-38">
                <path d="M8.3777,0.581873469 C8.3777,0.581873469 8.9077,2.01187347 10.5877,2.05187347 C12.2677,2.09187347 12.8277,0.711873469 12.8277,0.711873469 L13.4277,1.45187347 C13.4277,1.45187347 12.6777,3.34187347 10.6577,3.34187347 C8.3077,3.34187347 7.7877,1.34187347 7.7877,1.34187347 L8.3877,0.571873469 L8.3777,0.581873469 Z" id="Stroke-2" stroke="#393939" stroke-width="0.94" stroke-linecap="round" stroke-linejoin="round"></path>
                <path d="M12.8277,0.681873469 C12.7477,0.541873469 12.6977,0.451873469 12.6977,0.451873469 C12.6977,0.451873469 12.6377,0.291873469 12.3777,0.321873469 C12.1177,0.351873469 11.3477,0.521873469 10.5777,0.521873469 C9.8077,0.521873469 9.0377,0.351873469 8.7777,0.321873469 C8.5177,0.291873469 8.4577,0.451873469 8.4577,0.451873469 C8.4577,0.451873469 8.4177,0.541873469 8.3377,0.661873469" id="Stroke-4" stroke="#393939" stroke-width="0.94" stroke-linecap="round" stroke-linejoin="round"></path>
                <path d="M6.6277,1.73187347 C5.5077,1.89187347 3.5177,2.31187347 2.4777,4.85187347 C1.1777,8.03187347 0.1377,11.6618735 0.0177,12.6518735 C-0.1023,13.6418735 0.4077,16.9218735 0.9477,18.2718735 C1.4877,19.6218735 2.3477,22.0218735 2.3477,22.0218735 C2.3477,22.0218735 3.8877,22.3618735 4.9777,20.5918735 C4.9777,20.5918735 3.8977,18.6018735 3.5377,16.4018735 C3.1777,14.1918735 3.4077,13.1918735 3.8077,12.0618735 C4.2077,10.9318735 4.5577,9.70187347 4.5577,9.70187347 C4.5577,9.70187347 5.0577,14.3318735 5.0977,15.7518735 C5.1377,17.1718735 5.1777,18.9118735 5.1777,18.9118735 C5.1777,18.9118735 7.0077,19.7218735 10.6177,19.7218735 C14.2277,19.7218735 15.9577,18.9118735 15.9577,18.9118735 C15.9577,18.9118735 15.9977,17.1718735 16.0377,15.7518735 C16.0777,14.3318735 16.5777,9.70187347 16.5777,9.70187347 C16.5777,9.70187347 16.9377,10.9318735 17.3277,12.0618735 C17.7177,13.1918735 17.9577,14.2018735 17.5977,16.4018735 C17.2377,18.6118735 16.1577,20.5918735 16.1577,20.5918735 C17.2477,22.3618735 18.7877,22.0218735 18.7877,22.0218735 C18.7877,22.0218735 19.6577,19.6218735 20.1877,18.2718735 C20.7277,16.9218735 21.2377,13.6418735 21.1177,12.6518735 C20.9977,11.6618735 19.9577,8.03187347 18.6577,4.85187347 C17.6277,2.33187347 15.6777,1.89187347 14.5477,1.73187347" id="Stroke-6" stroke="#393939" stroke-width="0.94" stroke-linecap="round" stroke-linejoin="round"></path>
                <line x1="10.6477" y1="5.41187347" x2="10.6477" y2="3.38187347" id="Stroke-8" stroke="#393939" stroke-width="0.94" stroke-linecap="round" stroke-linejoin="round"></line>
                <path d="M10.6377,6.43187347 C10.4377,6.43187347 10.2477,6.54187347 10.1577,6.72187347 C10.0977,6.85187347 10.0877,6.99187347 10.1277,7.12187347 C10.1777,7.25187347 10.2677,7.36187347 10.3977,7.43187347 L10.4177,7.43187347 C10.6777,7.57187347 11.0077,7.46187347 11.1377,7.20187347 C11.1977,7.07187347 11.2077,6.93187347 11.1677,6.80187347 C11.1177,6.67187347 11.0277,6.56187347 10.8977,6.49187347 C10.8077,6.45187347 10.7277,6.43187347 10.6377,6.43187347" id="Fill-10" fill="#A62C2C"></path>
                <path d="M16.5877,9.70187347 C16.5877,9.70187347 16.5277,6.62187347 17.3977,7.90187347 C18.2677,9.18187347 19.9977,13.0018735 19.4977,14.3218735 C18.9977,15.6418735 16.1777,20.6018735 16.1777,20.6018735" id="Stroke-12" stroke="#393939" stroke-width="0.94" stroke-linecap="round" stroke-linejoin="round"></path>
                <path d="M4.5077,9.86187347 C4.5077,9.86187347 4.5677,6.78187347 3.6977,8.06187347 C2.8277,9.34187347 1.0977,13.1618735 1.5977,14.4818735 C2.0977,15.8018735 4.9177,20.7618735 4.9177,20.7618735" id="Stroke-14" stroke="#393939" stroke-width="0.94" stroke-linecap="round" stroke-linejoin="round"></path>
                <path d="M4.9277,2.37187347 C4.9277,2.37187347 7.5977,13.7618735 7.9877,14.2618735 C8.3777,14.7618735 9.1577,15.4318735 9.1577,15.4318735" id="Stroke-16" stroke="#393939" stroke-width="0.94" stroke-linecap="round" stroke-linejoin="round"></path>
                <path d="M16.3677,2.37187347 C16.3677,2.37187347 13.6977,13.7618735 13.3077,14.2618735 C12.9177,14.7618735 12.1377,15.4318735 12.1377,15.4318735" id="Stroke-18" stroke="#393939" stroke-width="0.94" stroke-linecap="round" stroke-linejoin="round"></path>
                <path d="M33.0577,9.77187347 C33.0177,10.4518735 32.9177,11.1218735 32.7477,11.7518735 C31.7477,15.4018735 31.9477,19.8118735 32.4277,22.5318735 C32.9077,25.2518735 33.5077,30.2718735 33.5077,30.6718735 C33.5077,31.0718735 32.8377,31.4318735 32.0277,31.4718735 C31.2177,31.5118735 30.1377,31.4318735 30.0977,31.2318735 C30.0577,31.0318735 27.5277,20.4918735 27.5277,18.8918735 C27.5277,17.2918735 26.7277,11.3618735 26.6077,10.5518735 C26.4877,9.74187347 26.3677,9.39187347 26.3677,9.39187347" id="Stroke-20" stroke="#393939" stroke-width="0.94" stroke-linecap="round" stroke-linejoin="round"></path>
                <path d="M27.0877,14.1718735 C27.0877,14.1718735 24.8477,19.5418735 24.8477,20.2918735 C24.8477,21.0418735 25.8877,29.6218735 25.9677,30.0218735 C26.0477,30.4218735 24.6077,31.1818735 23.8477,31.1818735 C23.0877,31.1818735 22.6477,30.0618735 22.6477,29.9018735 C22.6477,29.7418735 20.6077,19.5218735 20.6077,18.6418735 C20.6077,17.7618735 23.1377,3.09187347 23.3377,2.89187347 C23.5377,2.69187347 25.8177,2.25187347 27.8677,2.21187347 C29.9177,2.17187347 32.1977,2.89187347 32.1977,2.89187347 C32.1977,2.89187347 32.7377,4.68187347 32.9777,6.90187347" id="Stroke-22" stroke="#393939" stroke-width="0.94" stroke-linecap="round" stroke-linejoin="round"></path>
                <path d="M32.1777,2.88187347 C32.0577,3.07187347 27.2777,4.67187347 23.3177,2.88187347" id="Stroke-24" stroke="#393939" stroke-width="0.94" stroke-linecap="round" stroke-linejoin="round"></path>
                <line x1="27.0477" y1="3.73187347" x2="26.7677" y2="7.38187347" id="Stroke-26" stroke="#393939" stroke-width="0.94" stroke-linecap="round" stroke-linejoin="round"></line>
                <line x1="23.1177" y1="4.75187347" x2="25.5277" y2="5.37187347" id="Stroke-28" stroke="#393939" stroke-width="0.94" stroke-linecap="round" stroke-linejoin="round"></line>
                <line x1="29.8577" y1="5.17187347" x2="32.1777" y2="4.65187347" id="Stroke-30" stroke="#393939" stroke-width="0.94" stroke-linecap="round" stroke-linejoin="round"></line>
                <path d="M20.8377,17.9518735 C20.8377,17.9518735 22.2777,17.8518735 22.4477,19.4418735 C22.6177,21.0318735 21.1577,22.0618735 21.1577,22.0618735" id="Stroke-32" stroke="#393939" stroke-width="0.94" stroke-linecap="round" stroke-linejoin="round"></path>
                <path d="M27.6577,17.9518735 C27.6577,17.9518735 29.1777,17.6918735 29.4177,19.4818735 C29.6577,21.2718735 27.9777,21.7118735 27.9777,21.7118735" id="Stroke-34" stroke="#393939" stroke-width="0.94" stroke-linecap="round" stroke-linejoin="round"></path>
                <path d="M32.8977,8.10187347 C32.7877,8.18187347 32.7277,8.32187347 32.7477,8.46187347 C32.7677,8.56187347 32.8177,8.65187347 32.8977,8.71187347 C32.9777,8.77187347 33.0777,8.79187347 33.1777,8.78187347 L33.1977,8.78187347 C33.3977,8.75187347 33.5377,8.55187347 33.4977,8.35187347 C33.4777,8.25187347 33.4277,8.16187347 33.3477,8.10187347 C33.2677,8.04187347 33.1677,8.02187347 33.0677,8.03187347 C32.9977,8.04187347 32.9477,8.06187347 32.8977,8.10187347" id="Fill-36" fill="#A62C2C"></path>
            </g>
        </g>
    </g>
</svg>