<svg height="40" width="60" xmlns="http://www.w3.org/2000/svg"><g fill="none" fill-rule="evenodd" transform="translate(7 6)"><g stroke="#363636" stroke-linecap="round" stroke-linejoin="round"><path d="m15.408 16.834s2.045 4.91 2.78 5.256c.734.345 7.948-1.584 7.948-1.584 1.512-.476 2.189-2.88 2.189-2.88l9.59-5.415c.749-.417.59-1.584 1.627-1.958l3.428-1.239c.432-.158.85-1.54.85-1.54l-10.557 2.361c-.504.13-1.21 1.44-1.872 1.728l-5.472 1.714s-4.003-5.53-6.307-5.53c-1.368 0-5.4.375-5.4.375s-2.693 5.89-2.693 7.099c0 1.21 3.643 10.08 5.112 10.08s12.082-2.261 12.082-2.261l10.368-5.616s.878-.418.878-1.022v-1.743c0-.965-.878-.417-.878-.417l-7.95 4.478m9.621-8.957 3.47 2.808m-15.897 5.011-1.167-2.001m-16.401 4.464a6.22 6.22 0 0 1 .662 2.779 5.86 5.86 0 0 1 -5.659 5.976 6.005 6.005 0 0 1 -1.166-11.822"/><path d="m8.338 21.182c.288.51.442 1.085.446 1.67a3.154 3.154 0 0 1 -3.024 3.226 3.24 3.24 0 0 1 -.62-6.364m36.231-1.21a6.077 6.077 0 0 1 1.771 4.32 5.76 5.76 0 0 1 -11.39.62"/><path d="m38.362 19.8a3.197 3.197 0 0 1 2.145 3.067 3.082 3.082 0 1 1 -6.149 0m9.116-15.35 2.606-.663-.634-3.21c-.259-1.44-1.195-1.21-1.195-1.21l-4.795.993s-.965 0-.691 1.599l.59 3.312m-29.275-2.261 3.37 1.973c.252.097.526.122.792.072"/><path d="m5.645 22.867 4.91-10.08s.274-.374-.187-.36c-.46.015-5.17.706-5.371.663-.202-.044 1.713-6.826 6.926-13.09"/></g><path d="m15.97 10.224a.72.72 0 0 0 -.173 1.152c.124.14.303.218.49.216a.706.706 0 0 0 .705-.72.72.72 0 0 0 -.202-.504.677.677 0 0 0 -.504-.216.864.864 0 0 0 -.316.072z" fill="#a72c2c" fill-rule="nonzero"/></g></svg>