<svg height="40" width="60" xmlns="http://www.w3.org/2000/svg"><g fill="none" fill-rule="evenodd" transform="translate(5 6)"><g stroke="#363636" stroke-linecap="round" stroke-linejoin="round"><path d="m7.9 11.602v-.317h-.404v.302a7.834 7.834 0 0 0 -1.166.159l-.13-.274-.346.1v.303a5.458 5.458 0 0 0 -1.05.403l-.044-.273-.331.173.115.288a7.315 7.315 0 0 0 -.98.662l-.244-.216a2.246 2.246 0 0 0 -.288.23l.173.26c-.28.252-.541.526-.778.82l-.259-.172-.288.302.23.202a7.33 7.33 0 0 0 -.604 1.022l-.288-.1-.159.345.274.144a7.2 7.2 0 0 0 -.346 1.08h-.302c-.007.12-.007.24 0 .36l.288.086a6.48 6.48 0 0 0 -.101 1.195h-.302v.375h.302c.025.377.073.752.144 1.123l-.288.1c0 .13 0 .246.1.36h.303c.107.38.241.75.403 1.11l-.244.086c.044.114.097.225.158.331l.288-.115c.18.334.386.652.62.95l-.217.274.23.288.245-.173c.27.292.56.566.864.821l-.158.245.288.259.202-.23a7.2 7.2 0 0 0 .964.59l-.1.288.33.144.145-.26c.364.15.74.271 1.123.36v.303l.36.087.072-.303c.372.055.747.089 1.123.101v.302h.375v-.302a6.149 6.149 0 0 0 1.166-.158l.1.288.36-.101v-.303a6.689 6.689 0 0 0 1.066-.388l.144.259.332-.173-.116-.288c.35-.185.678-.408.98-.662l.216.23.288-.245-.173-.245a6.94 6.94 0 0 0 .763-.835l.26.173.23-.302-.23-.202a6.58 6.58 0 0 0 .604-1.022l.288.1.144-.345-.26-.144c.141-.35.252-.712.332-1.08h.302a3.4 3.4 0 0 0 .087-.375l-.288-.086c.058-.39.087-.786.086-1.18h.303v-.188a.95.95 0 0 1 0-.202h-.346a7.2 7.2 0 0 0 -.158-1.137l.288-.101-.13-.403h-.302a7.488 7.488 0 0 0 -.418-1.123l.26-.159-.174-.331-.273.115a6.811 6.811 0 0 0 -.634-.95l.23-.202-.129-.245-.245.188m25.992 1.684a4.32 4.32 0 1 1 -1.166 3.816m-26.698-12.484a10.714 10.714 0 0 0 -3.643-.576 7.2 7.2 0 0 0 -4.896 1.857m10.411-.23s2.808 4.565 3.269 5.155c.648.835 2.578.62 3.398-.432l2.247-2.88"/><path d="m10.966 15.82a4.32 4.32 0 0 1 1.124 2.88 4.22 4.22 0 1 1 -4.205-4.32m7.07-10.31s4.925.404 6.336 1.584a9.1 9.1 0 0 1 1.829 2.621s.302.677.893.562c2.102-.375 9.921-1.843 11.52-2.16 2.217-.432 2.65-1.944 3.816-2.52 2.65-.567 5.327-1 8.02-1.296"/><path d="m20.73.14h-3.01a1.843 1.843 0 0 0 -1.771.906l-8.395 18.087m23.04-2.304s-3.226 2.736-4.738 2.736h-4.694c-1.08 0-1.584-1.21-1.584-1.21l-1.296-2.98m23.918 3.397-8.496-3.183c-1.238-.46.202-1.281.202-1.281l10.627-6.61s1.022-.605.633-1.166l-.792-1.123c-.288-.36-1.022 0-1.022 0l-2.232 1.34m3.802 5.4.374.173m.965.576.331.259m.85.821.273.316m.619.951.188.374m.417 1.123.101.404m.158 1.137.015.418m-.101 1.181-.086.417m-.346 1.08-.173.389m-.605 1.022-.244.332m-.778.835-.317.259m-.979.662-.374.202m-1.052.389-.403.115m-1.166.158-.418.015m-1.123-.101-.403-.086m-1.123-.36-.389-.173m-.965-.591-.331-.244m-.85-.821-.259-.331m-.634-.951-.187-.374m-.417-1.109-.101-.418"/><path d="m35.23 19.075v-.417h-.302v.374h.302c.023.378.076.754.159 1.123l-.288.101.086.36h.303c.111.38.25.75.417 1.109l-.259.158.173.331.273-.115c.185.334.397.652.634.95l-.288.231c.086.1.158.202.245.288l.245-.173c.265.292.549.566.85.821l-.16.26.289.215.201-.23c.31.215.632.412.965.59l-.1.288.345.144.144-.259c.364.15.74.27 1.123.36v.302l.36.087.087-.303c.372.057.747.09 1.123.101v.303h.374v-.303a7.834 7.834 0 0 0 1.167-.158l.1.288.346-.101v-.302a7.1 7.1 0 0 0 1.051-.39l.159.26.33-.173-.114-.288c.346-.189.674-.41.979-.662l.201.23.288-.245-.172-.244a8.64 8.64 0 0 0 .777-.836l.317.13.23-.302-.23-.188a6.58 6.58 0 0 0 .605-1.022l.288.1c.054-.112.102-.227.144-.345l-.26-.144c.146-.35.261-.71.346-1.08l.317.101c.007-.125.007-.25 0-.374l-.288-.087c.07-.39.104-.785.1-1.18h.303v-.389h-.302a9.576 9.576 0 0 0 -.144-1.124l.288-.1-.101-.36h-.302a6.192 6.192 0 0 0 -.418-1.124l.26-.158a3.456 3.456 0 0 0 -.16-.331l-.287.115a6.71 6.71 0 0 0 -.62-.95l.217-.202-.23-.302-.26.187a6.523 6.523 0 0 0 -.85-.821l.173-.26-.259-.273-.202.23a6.566 6.566 0 0 0 -.964-.575l.1-.288-.374-.159-.144.274a7.344 7.344 0 0 0 -1.123-.375v-.302l-.36-.072-.087.288.418.086m-30.701 2.204.259.316m.634.951.187.374m.418 1.123.101.404m.144 1.137.014.418m-.086 1.181-.101.417m-.331 1.08-.173.389m-.605 1.022-.259.332m-.763.835-.332.259m-.979.662-.36.202m-1.065.389-.404.115m-1.166.158-.418.015m-1.123-.101-.403-.086m-1.123-.36-.375-.173m-.964-.591-.332-.244m-.864-.821-.259-.331m-.619-.951-.202-.374m-.403-1.109-.115-.418m-.144-1.123-.014-.417m.1-1.196.087-.417m.345-1.08.173-.389m.605-1.022.245-.332m.777-.82.317-.274m.979-.662.375-.188m1.051-.403.403-.115m1.167-.158h.417m.001 0v-.317h-.404v.302a7.834 7.834 0 0 0 -1.166.159l-.13-.274-.346.1v.303a5.458 5.458 0 0 0 -1.05.403l-.044-.273-.331.173.115.288a7.315 7.315 0 0 0 -.98.662l-.244-.216a2.246 2.246 0 0 0 -.288.23l.173.26c-.28.252-.541.526-.778.82l-.259-.172-.288.302.23.202a7.33 7.33 0 0 0 -.604 1.022l-.288-.1-.159.345.274.144a7.2 7.2 0 0 0 -.346 1.08h-.302c-.007.12-.007.24 0 .36l.288.086a6.48 6.48 0 0 0 -.101 1.195h-.302v.375h.302c.025.377.073.752.144 1.123l-.288.1c0 .13 0 .246.1.36h.303c.107.38.241.75.403 1.11l-.244.086c.044.114.097.225.158.331l.288-.115c.18.334.386.652.62.95l-.217.274.23.288.245-.173c.27.292.56.566.864.821l-.158.245.288.259.202-.23a7.2 7.2 0 0 0 .964.59l-.1.288.33.144.145-.26c.364.15.74.271 1.123.36v.303l.36.087.072-.303c.372.055.747.089 1.123.101v.302h.375v-.302a7.589 7.589 0 0 0 1.166-.158l.1.288.36-.101v-.303a6.689 6.689 0 0 0 1.066-.388l.144.259.332-.173-.116-.288c.346-.19.674-.412.98-.662l.216.23.288-.245-.173-.245a6.94 6.94 0 0 0 .763-.835l.26.173.23-.302-.23-.202a6.58 6.58 0 0 0 .604-1.022l.288.1.144-.345-.26-.144c.141-.35.252-.712.332-1.08h.302a3.4 3.4 0 0 0 .087-.375l-.288-.086c.058-.39.087-.786.086-1.18h.303v-.39h-.346a7.272 7.272 0 0 0 -.158-1.123l.288-.1-.13-.418h-.302a7.488 7.488 0 0 0 -.418-1.123l.26-.159-.174-.331-.273.115a6.811 6.811 0 0 0 -.634-.95l.23-.202-.129-.245-.245.188"/></g><path d="m17.014 7.166a.749.749 0 0 0 -.388.648.73.73 0 0 0 .216.504c.124.14.303.218.49.216a.72.72 0 0 0 .503-1.224.677.677 0 0 0 -.504-.216.864.864 0 0 0 -.317.072z" fill="#a72c2c" fill-rule="nonzero"/></g></svg>