<?xml version="1.0" encoding="UTF-8"?>
<svg width="291px" height="137px" viewBox="0 0 291 137" version="1.1" xmlns="http://www.w3.org/2000/svg" xmlns:xlink="http://www.w3.org/1999/xlink">
    <title>ROAD - Alpinestars Copy</title>
    <g id="Page-1" stroke="none" stroke-width="1" fill="none" fill-rule="evenodd">
        <g id="ROAD---HJC" transform="translate(-12.000000, -121.000000)" fill="#FFFFFF">
            <g id="Shoei/B" transform="translate(20.499922, 146.796365)">
                <g id="HJC" transform="translate(0.000000, 0.000000)">
                    <path d="M135.932831,78.2507007 C98.3153535,78.2507007 65.0998195,72.4560818 45.1263855,63.5787556 L39.7106154,63.5787556 C37.2673135,63.5787556 34.8234235,62.0504484 36.0452705,58.9936379 L36.1099703,58.7831278 C29.2151223,54.3155269 25.3539133,49.3089966 25.3539133,44.0160314 C25.3539133,35.6923487 34.6006991,28.111435 50.0327913,22.1857623 C52.3927676,19.2119395 55.7959801,18.034417 59.8716789,18.034417 L62.8357166,18.034417 C82.3201765,12.6927971 107.90446,9.47570067 135.932831,9.47570067 C164.10158,9.47570067 189.761739,12.6927971 209.287175,18.034417 L226.351468,18.034417 C231.84978,18.034417 232.460703,22.3134809 231.84978,24.1476457 L231.105339,26.183296 C241.08539,31.3705157 246.817406,37.4629484 246.817406,44.0160314 C246.817406,62.9674327 197.331818,78.2507007 135.932831,78.2507007 M136.849412,0 C61.093722,0 0,19.5627242 0,43.71037 C0,67.5521581 61.093722,87.1150785 136.849412,87.1150785 C212.299836,87.1150785 273.698824,67.5521581 273.698824,43.71037 C273.698824,19.5627242 212.299836,0 136.849412,0" id="Fill-1"></path>
                    <polygon id="Fill-4" points="90.7237272 69.0806222 87.363844 69.0806222 88.2802293 67.2464574 86.4472627 67.2464574 84.6144922 71.8317713 86.4472627 71.8317713 87.0583823 69.9978027 90.4182655 69.9978027 89.5022723 71.8317713 91.3346507 71.8317713 93.1676172 67.2464574 91.3346507 67.2464574"></polygon>
                    <polygon id="Fill-6" points="101.415222 71.8318498 106.303002 71.8318498 106.913925 70.9146693 103.248188 70.9146693 103.553454 69.997685 106.913925 69.997685 107.218995 69.0807007 103.858916 69.0807007 104.164377 68.1637164 107.524457 68.1637164 108.135184 67.2465359 102.94253 67.2465359"></polygon>
                    <polygon id="Fill-8" points="119.437739 67.2465359 117.604773 67.2465359 115.772002 71.8318498 120.965244 71.8318498 121.270706 70.9146693 117.910234 70.9146693"></polygon>
                    <path d="M134.710984,70.3034445 C134.710984,69.386264 134.405522,68.1636183 134.405522,67.2464378 L131.656562,67.2464378 L130.129057,71.8319479 L131.656562,71.8319479 L132.572947,69.0806026 C132.572947,68.7749411 132.572947,68.4692797 132.878213,68.1636183 C132.878213,69.386264 133.183675,70.6091059 133.183675,71.8319479 L135.016445,71.8319479 C135.933027,70.6091059 136.849412,69.386264 137.765993,68.4692797 C137.765993,68.7749411 137.460335,69.0806026 137.460335,69.6921216 L136.54395,71.8319479 L138.376917,71.8319479 L139.904225,67.2464378 L137.154678,67.2464378 C136.849412,67.5522954 136.54395,68.1636183 135.933027,68.7749411 C135.627369,69.386264 135.016445,69.9977831 134.710984,70.3034445 Z" id="Fill-10"></path>
                    <polygon id="Fill-12" points="148.151751 71.8318498 153.344601 71.8318498 153.650063 70.9146693 150.289788 70.9146693 150.595249 69.997685 153.650063 69.997685 153.955721 69.0807007 150.900711 69.0807007 151.206173 68.1637164 154.566644 68.1637164 154.87191 67.2465359 149.984326 67.2465359"></polygon>
                    <polygon id="Fill-14" points="163.425094 68.1636771 165.563326 68.1636771 164.341675 71.8318105 166.174249 71.8318105 167.3959 68.1636771 169.83979 68.1636771 170.145252 67.2464966 163.730555 67.2464966"></polygon>
                    <path d="M178.698397,68.4693386 C178.087277,70.3033072 182.36433,69.6919843 182.058672,70.6091648 C182.058672,70.91463 181.142287,71.2204877 180.531167,71.2204877 C179.920244,71.2204877 179.30932,70.91463 179.614782,70.3033072 L177.782011,70.3033072 C177.170892,71.8318105 178.698397,71.8318105 180.225705,71.8318105 C181.447748,71.8318105 183.280519,71.5261491 183.891639,70.3033072 C184.50217,68.4693386 180.225705,69.3863229 180.531167,68.4693386 C180.531167,67.8578195 181.447748,67.8578195 181.753014,67.8578195 C182.36433,67.8578195 182.975057,67.8578195 182.669595,68.4693386 L184.50217,68.4693386 C184.807632,67.2464966 183.280519,66.9408352 182.058672,66.9408352 C180.836825,66.9408352 179.003858,67.2464966 178.698397,68.4693386 Z" id="Fill-16"></path>
                    <path d="M106.393503,21.7025308 L88.371064,21.7025308 C86.2324396,21.7025308 85.6217122,22.9247842 85.0107887,24.1476261 L81.9557791,32.7061463 C81.3448556,34.8459725 80.7343242,36.0688145 78.5958959,36.0688145 L74.6246971,36.0688145 C72.1811992,36.0688145 72.1811992,34.5403111 72.7917306,32.4004849 L75.5410824,24.758949 C76.4576637,22.6193189 75.8465441,21.7025308 72.7917306,21.7025308 L59.6568754,21.7025308 C55.380607,21.7025308 52.6312552,22.9247842 51.1037504,27.2044367 L44.0781302,46.7671609 L41.0233167,55.0202158 L40.1069314,57.7707763 C39.4960079,58.9936183 40.1069314,59.9106026 41.6342402,59.9106026 L59.9623372,59.9106026 C62.4062272,59.9106026 63.3226124,58.9936183 63.6280742,58.0764378 L64.5440673,55.0202158 L66.3770339,50.1292405 C67.2934191,47.9894142 69.4318474,47.9894142 70.6536944,47.9894142 L73.4026541,47.9894142 C76.1520059,47.9894142 76.1520059,49.823579 75.2356206,51.3520824 L74.0137736,55.0202158 L73.4026541,56.8539882 C72.4866609,58.6879568 73.4026541,59.9106026 75.2356206,59.9106026 L91.4252893,59.9106026 C93.8693754,59.9106026 96.3130694,58.9936183 98.4509095,55.0202158 C98.7563713,54.4088929 99.061833,53.7973739 99.061833,53.186051 C99.061833,53.186051 100.283876,50.4349019 101.505919,46.7671609 C104.560733,38.5143021 109.142463,25.3702719 109.142463,25.3702719 C110.058848,23.2304456 109.753386,21.7025308 106.393503,21.7025308 Z" id="Fill-18"></path>
                    <path d="M151.907813,21.702472 C146.71516,21.702472 146.10404,23.230583 144.882193,26.2873935 L137.551111,46.7672982 L137.245453,47.0727635 C136.63453,49.2121973 135.107221,50.7407007 133.274255,50.7407007 L130.830953,50.7407007 C127.776139,50.7407007 127.16502,49.2121973 127.776139,47.3786211 L128.081601,46.7672982 L128.692328,44.9331334 C128.997986,44.0159529 128.997986,43.7102915 126.859754,43.7102915 L111.280813,43.4048262 C109.142384,43.7102915 107.004152,43.7102915 106.088159,46.7672982 L103.033345,55.020157 L102.422226,56.2429989 C101.811302,58.3822365 102.422226,59.9105437 106.393621,59.9105437 L152.213275,59.9105437 C154.962823,59.9105437 157.101251,58.3822365 158.32251,55.020157 C158.32251,55.020157 158.627972,55.020157 158.627972,54.7144955 L161.377324,46.7672982 L169.319525,25.0645516 C169.930449,23.230583 169.624987,21.702472 166.265104,21.702472 L151.907813,21.702472 Z" id="Fill-20"></path>
                    <path d="M181.232867,21.702472 C177.261668,21.702472 174.81817,22.6192601 172.985399,27.8158969 L165.959779,46.7672982 L162.904966,55.020157 L162.904966,55.3258184 C161.682923,58.9937556 162.904966,59.9105437 165.34866,59.9105437 L199.255502,59.9105437 L211.473972,59.9105437 C214.528785,59.9105437 215.44517,58.0765751 216.056094,57.1595908 L216.667017,55.020157 L218.805054,49.2121973 C219.416173,47.6842825 218.805054,46.7672982 216.972675,46.7672982 L199.866425,46.7672982 C198.33892,46.7672982 198.033459,47.0727635 197.728193,47.9893554 L196.811612,50.4350392 C196.50615,51.3520235 195.895226,52.2690078 193.45114,52.2690078 L189.48053,52.2690078 C187.647563,52.2690078 187.03664,50.7407007 187.647563,49.2121973 L188.564145,46.7672982 L193.45114,33.9289294 C194.367722,31.7892993 194.67338,29.6498655 198.033459,29.6498655 L201.393342,29.6498655 C202.615385,29.6498655 203.837428,30.5664574 203.226308,32.7060874 L202.615385,34.2345908 C202.309923,35.4574327 202.309923,36.374417 204.14289,36.374417 L220.943482,36.374417 C222.470987,36.374417 223.998295,36.0687556 224.303953,34.2345908 L227.66364,24.4532287 C228.27476,22.9247253 227.66364,21.702472 225.5258,21.702472 L181.232867,21.702472 Z" id="Fill-22"></path>
                </g>
            </g>
        </g>
    </g>
</svg>