<svg height="137" viewBox="0 0 291 137" width="291" xmlns="http://www.w3.org/2000/svg"><g fill="#fff" fill-rule="evenodd"><path d="m210.194058 35.5 5.345748 8.8552556-25.439921 47.0051504h21.200115l22.674524-41.8233348h10.508076l-4.240348 9.252854-15.323037 10.7579705 7.395854 21.8125103h20.462639l-6.636195-19.246045 11.613477-7.5875033 11.24501-20.3568221-6.083224-8.6700356z"/><path d="m155.408032 35.5-26.013453 47.5803645 6.041021 8.4196355h46.980367l25.729392-47.37722-5.970141-8.62278zm11.087559 17.651306-3.127371-4.7798717h21.536117l-16.418699 29.6813742h-15.636315z"/><path d="m126.338412 35.5-11.940823 21.9325503h-15.6363151l12.1529211-21.9325503h-82.0204515l-6.8937435 12.7280381h23.7388041l-23.0998032 42.8819678h20.540553l21.1102972-38.3150176-3.4114319-4.7809581h22.6014798l-23.170683 43.0959757h20.8246135l15.8505781-29.8959253 8.8129104 11.987158-9.0271732 17.9087673h20.8251542l29.852328-55.6100059z"/></g></svg>