<?xml version="1.0" encoding="UTF-8"?>
<svg width="291px" height="137px" viewBox="0 0 291 137" version="1.1" xmlns="http://www.w3.org/2000/svg" xmlns:xlink="http://www.w3.org/1999/xlink">
    <title>ROAD - Alpinestars Copy</title>
    <defs>
        <polygon id="path-1" points="0 0 54.899307 0 54.899307 67 0 67"></polygon>
        <polygon id="path-3" points="0 0 38.3054567 0 38.3054567 50.4984411 0 50.4984411"></polygon>
    </defs>
    <g id="Page-1" stroke="none" stroke-width="1" fill="none" fill-rule="evenodd">
        <g id="OFFROAD---FOX" transform="translate(-12.000000, -121.000000)">
            <g id="Group-11" transform="translate(42.000000, 156.000000)">
                <g id="Group-3">
                    <mask id="mask-2" fill="white">
                        <use xlink:href="#path-1"></use>
                    </mask>
                    <g id="Clip-2"></g>
                    <path d="M47.4520998,24.8694649 C47.3326911,26.6354191 45.2505402,27.9823742 43.3178001,28.4617478 C41.38506,28.9399139 40.2899806,29.0510029 38.9362825,29.957828 C37.6389884,30.8284283 37.3995711,30.6014202 36.4088992,29.6046371 C35.9300645,29.1228486 35.0804029,28.7298106 34.3675513,29.8980572 C33.6528995,31.0632851 33.1626639,32.7404888 32.8074382,35.4017968 C32.4498123,38.0661236 32.4444119,41.0287004 32.4444119,41.3571377 C32.4444119,41.6837638 31.9445756,41.6873862 31.9445756,41.3589489 C31.9445756,40.9393462 31.8689702,30.2258907 31.8689702,28.6114766 C31.8689702,26.5889307 32.1449902,25.6138825 34.4041539,24.9413106 C36.5823118,24.2922847 38.0674195,24.6907564 41.9779029,24.4402022 C45.0171232,24.2476075 46.1368044,22.1532161 46.1368044,22.1532161 C46.1368044,22.1532161 47.5715084,23.105322 47.4520998,24.8694649 M22.955324,41.3589489 C22.955324,41.6873862 22.4554878,41.6837638 22.4554878,41.3571377 C22.4554878,41.0287004 22.4494873,38.0661236 22.0942616,35.4017968 C21.7366357,32.7404888 21.2464001,31.0632851 20.5317483,29.8980572 C19.8194967,28.7298106 18.9698351,29.1228486 18.4910004,29.6046371 C17.5003286,30.6014202 17.2609112,30.8284283 15.9630171,29.957828 C14.609319,29.0510029 13.5148397,28.9399139 11.5814995,28.4617478 C9.64875943,27.9823742 7.56720854,26.6354191 7.44719984,24.8694649 C7.32959132,23.105322 8.76249519,22.1532161 8.76249519,22.1532161 C8.76249519,22.1532161 9.88457652,24.2476075 12.9219967,24.4402022 C16.8318801,24.6907564 18.3187879,24.2922847 20.4951457,24.9413106 C22.7543094,25.6138825 23.0309295,26.5889307 23.0309295,28.6114766 C23.0309295,30.2258907 22.955324,40.9393462 22.955324,41.3589489 M48.0797453,19.7847243 C48.0797453,19.7847243 50.1960987,15.4830411 50.1960987,9.31820066 C50.1960987,3.92856885 48.2861602,0 48.2861602,0 C48.2861602,0 40.1393697,0.918899923 32.8230393,9.29706958 L22.0768603,9.29706958 C14.7599299,0.918899923 6.61313938,0 6.61313938,0 C6.61313938,0 4.70380097,3.92856885 4.70380097,9.31820066 C4.70380097,15.4830411 6.81955434,19.7847243 6.81955434,19.7847243 C4.5123871,21.8422874 -0.0875463462,26.2200425 0.00126009134,33.412457 C0.0786657024,39.6805378 2.40743451,42.3575432 2.40743451,42.3575432 C4.21896583,39.4082488 5.5552627,39.2687837 5.5552627,39.2687837 C5.68427205,44.8232379 8.92090667,47.8932813 8.92090667,47.8932813 C9.46754629,43.1738065 11.9277246,42.6726981 11.9277246,42.6726981 C12.3117525,47.7453638 15.8994125,51.5888046 15.8994125,51.5888046 C15.518985,46.719601 18.1585763,44.9457981 18.1585763,44.9457981 L25.4851074,67 L29.4147923,67 L36.7407233,44.9457981 C36.7407233,44.9457981 39.3803146,46.719601 38.9998871,51.5888046 C38.9998871,51.5888046 42.5881472,47.7453638 42.972175,42.6726981 C42.972175,42.6726981 45.4323533,43.1738065 45.978993,47.8932813 C45.978993,47.8932813 49.2150276,44.8232379 49.3446369,39.2687837 C49.3446369,39.2687837 50.6827339,39.4082488 52.4918651,42.3575432 C52.4918651,42.3575432 54.8212339,39.6805378 54.8980395,33.412457 C54.9868459,26.2200425 50.3869125,21.8422874 48.0797453,19.7847243" id="Fill-1" fill="#FEFEFE" mask="url(#mask-2)"></path>
                </g>
                <polygon id="Fill-4" fill="#FEFEFE" points="97.4326628 37.7207211 97.4326628 58.7545939 87.6189514 58.7545939 87.6189514 8.24528538 118.827214 8.24528538 118.827214 17.2598023 97.4326628 17.2598023 97.4326628 28.7062042 116.690459 28.7062042 116.690459 37.7207211"></polygon>
                <g id="Group-8" transform="translate(190.694543, 8.250840)">
                    <mask id="mask-4" fill="white">
                        <use xlink:href="#path-3"></use>
                    </mask>
                    <g id="Clip-7"></g>
                    <polygon id="Fill-6" fill="#FEFEFE" mask="url(#mask-4)" points="17.2356494 29.4754357 10.2799452 50.4984411 0 50.4984411 8.54401935 26.0346928 8.54401935 24.4637483 0 0 10.5241629 0 17.3244558 20.4609188 20.9811209 20.4609188 27.7814138 0 38.3055767 0 29.7621574 24.4637483 29.7621574 26.0346928 38.3055767 50.4984411 28.0262316 50.4984411 21.0699273 29.4754357"></polygon>
                </g>
                <path d="M169.196905,12.8240876 C165.913467,9.24689837 161.371138,7.45860562 155.572317,7.45860562 C149.771697,7.45860562 145.229368,9.24689837 141.94773,12.8240876 C138.663692,16.4012769 137.022573,21.4340954 137.022573,27.9195244 L137.022573,39.0803549 C137.022573,45.7583785 138.663692,50.8382891 141.94773,54.3188792 C145.229368,57.8012805 149.771697,59.5412736 155.572317,59.5412736 C161.371138,59.5412736 165.913467,57.8012805 169.196905,54.3188792 C172.479743,50.8382891 174.122062,45.7583785 174.122062,39.0803549 L174.122062,27.9195244 C174.122062,21.4340954 172.479743,16.4012769 169.196905,12.8240876 L169.196905,12.8240876 Z M164.794986,40.0403094 C164.794986,44.2309036 163.736509,50.8358742 155.572317,50.8364779 C147.407525,50.8358742 146.349649,44.2309036 146.349649,40.0403094 L146.349649,26.9595698 C146.349649,22.7689756 147.407525,16.1640051 155.572317,16.1634013 C163.736509,16.1640051 164.794986,22.7689756 164.794986,26.9595698 L164.794986,40.0403094 Z" id="Fill-9" fill="#FEFEFE"></path>
            </g>
        </g>
    </g>
</svg>