<?xml version="1.0" encoding="UTF-8"?>
<svg width="291px" height="137px" viewBox="0 0 291 137" version="1.1" xmlns="http://www.w3.org/2000/svg" xmlns:xlink="http://www.w3.org/1999/xlink">
    <title>ROAD - Alpinestars Copy</title>
    <defs>
        <polygon id="path-1" points="0 0 99.2015894 0 99.2015894 61.3427432 0 61.3427432"></polygon>
        <polygon id="path-3" points="0 0 85.4580768 0 85.4580768 72.9155251 0 72.9155251"></polygon>
        <polygon id="path-5" points="0 0 44.8085595 0 44.8085595 32.7930096 0 32.7930096"></polygon>
    </defs>
    <g id="Page-1" stroke="none" stroke-width="1" fill="none" fill-rule="evenodd">
        <g id="OFFROAD---Leatt" transform="translate(-12.000000, -121.000000)">
            <g id="Shoei/B" transform="translate(56.200000, 145.347611)">
                <g id="Leatt-logo" transform="translate(-0.000000, 0.000000)">
                    <g id="Group-3" transform="translate(0.000000, 27.964249)">
                        <mask id="mask-2" fill="white">
                            <use xlink:href="#path-1"></use>
                        </mask>
                        <g id="Clip-2"></g>
                        <path d="M77.2061245,18.8323848 L79.3458437,11.7426188 L80.6437086,11.2628824 L81.0077457,17.8892969 L77.2061245,18.8323848 Z M99.2015894,13.4239104 L91.7819974,15.2647697 L91.848604,0 L70.7808848,5.22676507 L65.7674384,21.7189219 L41.4018755,27.7638959 L42.9280424,22.2058913 L62.9428132,17.4337687 L66.6588397,6.24941549 L34.9652132,14.1125166 L30.1349722,30.5590616 L22.8069086,32.3771888 L19.7431523,43.448029 L26.8653139,41.5845852 L25.4879364,46.9601423 C25.4879364,46.9601423 19.4424583,48.4600198 15.8698808,49.3462774 C12.2976,50.2326827 11.5204238,48.2958761 12.1857483,46.2911684 C12.8509245,44.2864606 20.858702,17.6122306 20.858702,17.6122306 L9.77500397,20.3620797 C9.77500397,20.3620797 2.8,43.0044573 0.436577483,51.0455776 C-1.92669669,59.0871407 5.76421722,62.5999921 12.4509881,60.9409898 C19.1377589,59.2819875 26.0077351,57.5775209 26.0077351,57.5775209 L28.2790358,50.3337964 L33.0610649,55.8277377 L53.2130543,50.8279987 L57.1588662,39.0058175 L36.480106,44.2330254 L37.9715603,38.925517 L62.4517934,32.9491822 L57.8847152,49.6689555 L68.7852079,46.9647183 L73.7645351,30.3360211 L80.7488848,28.7001937 L80.3269934,44.1013562 L91.5022199,41.3286273 L91.992943,25.8135091 L96.092143,24.7002254 L99.2015894,13.4239104 Z" id="Fill-1" fill="#FFFFFF" mask="url(#mask-2)"></path>
                    </g>
                    <g id="Group-6" transform="translate(94.635757, 0.000000)">
                        <mask id="mask-4" fill="white">
                            <use xlink:href="#path-3"></use>
                        </mask>
                        <g id="Clip-5"></g>
                        <path d="M44.6350411,58.8939767 C45.1650755,56.8179727 56.2518887,18.7626238 57.2840689,15.8926192 C58.316249,13.0226146 59.758898,12.6646574 61.5781934,14.3917085 C62.697155,15.4540663 73.588747,26.8673645 82.1341245,35.9210976 L85.4580768,25.2402462 C85.4580768,25.2402462 68.1827815,6.77497041 63.5148291,2.12418425 C58.8468768,-2.52660191 51.9295788,1.31940797 50.1414358,5.44218886 C48.352996,9.56482214 46.4028609,15.7605071 46.4028609,15.7605071 L3.07592053,26.5095549 L0,38.3095945 L9.96176954,35.7413071 L0.805213245,68.3157045 L11.6141775,65.6340518 L21.6179285,32.946289 L27.5490331,31.3780676 L17.9346861,64.065978 L28.9265589,61.338861 L39.0673801,28.8108136 L49.9677245,26.1065763 L52.7552636,29.1906172 L42.2026384,31.6149836 C42.2026384,31.6149836 33.9876238,59.7929289 33.0227921,64.4859319 C32.0579603,69.1787872 36.1074649,74.4668109 44.0768212,72.4895589 C52.0460291,70.512602 58.9160053,68.8081355 58.9160053,68.8081355 L61.8398728,57.8204004 C55.1275868,59.48575 49.6249007,60.8508584 48.6176424,61.1007642 C45.8697113,61.7824327 44.105155,60.969833 44.6350411,58.8939767" id="Fill-4" fill="#FFFFFF" mask="url(#mask-4)"></path>
                    </g>
                    <g id="Group-9" transform="translate(156.770524, 33.356264)">
                        <mask id="mask-6" fill="white">
                            <use xlink:href="#path-5"></use>
                        </mask>
                        <g id="Clip-8"></g>
                        <path d="M42.8178225,12.219403 C39.5689325,8.57237298 31.1944477,0 31.1944477,0 L20.1617801,2.73715453 C25.4354225,8.32541944 29.7795391,12.9779769 30.315804,13.6748494 C31.7225536,15.5040474 31.3441272,16.6145265 28.3899974,17.3474161 C26.534506,17.8078155 11.5616636,21.522599 0,24.3909799 L7.49836291,32.7930096 C7.49836291,32.7930096 28.4749987,27.588829 37.268853,25.4071354 C46.0624106,23.2254418 46.0667126,15.8664329 42.8178225,12.219403" id="Fill-7" fill="#FFFFFF" mask="url(#mask-6)"></path>
                    </g>
                </g>
            </g>
        </g>
    </g>
</svg>