<?xml version="1.0" encoding="UTF-8"?>
<svg version="1.1" xmlns="http://www.w3.org/2000/svg" width="1202" height="359">
<path d="M0 0 C1.23060328 0.00129972 1.23060328 0.00129972 2.48606724 0.0026257 C3.35107379 -0.00034542 4.21608034 -0.00331654 5.10729921 -0.0063777 C8.02909194 -0.0151047 10.95084389 -0.01657633 13.87264866 -0.01806521 C15.9583124 -0.02269072 18.04397529 -0.02771501 20.12963718 -0.03311038 C25.81381781 -0.04626584 31.49798662 -0.05268593 37.18218011 -0.05712104 C40.73194788 -0.06004788 44.2817124 -0.06415203 47.83147854 -0.06862521 C58.93308828 -0.08231101 70.0346906 -0.09197126 81.13630819 -0.0958271 C93.95924965 -0.10030484 106.78208435 -0.11783505 119.60499334 -0.1468277 C129.50909277 -0.16844441 139.41316217 -0.17853145 149.31728494 -0.17986822 C155.23534338 -0.18091664 161.15330162 -0.18683185 167.07133526 -0.20468783 C172.64203227 -0.2211673 178.21255378 -0.22332452 183.78326648 -0.21454883 C185.82624701 -0.21377828 187.86923695 -0.2181235 189.91219372 -0.22800708 C192.70558142 -0.24072643 195.4983476 -0.23484961 198.2917313 -0.22442508 C199.09651843 -0.23248148 199.90130557 -0.24053789 200.73048019 -0.24883842 C206.82341416 -0.19581741 212.49028427 0.82690859 217.35677952 4.7915051 C217.80279514 5.36127072 218.24881077 5.93103635 218.70834202 6.5180676 C219.40056858 7.36498166 219.40056858 7.36498166 220.10677952 8.2290051 C224.76869659 15.50397124 224.34516752 24.13241078 222.68099827 32.37353635 C220.27313996 40.3618388 216.10131798 46.86244184 210.61068577 53.10009885 C208.94932074 55.75726676 209.18742674 57.23252035 209.45834202 60.3305676 C209.78362117 77.28574375 200.63410913 95.77565816 194.33334202 111.1430676 C193.33334202 112.1430676 193.33334202 112.1430676 190.64950413 112.25659299 C189.48169407 112.25135617 188.31388401 112.24611936 187.11068577 112.24072385 C185.85062717 112.23750119 184.59056858 112.23427854 183.29232639 112.23095822 C181.95183093 112.22260163 180.61133614 112.21413667 179.27084202 112.2055676 C177.9264426 112.2005542 176.58204142 112.19599102 175.23763889 112.19189572 C171.93616261 112.18006248 168.63477398 112.16357731 165.33334202 112.1430676 C165.7764227 103.24737069 169.48878108 95.24907823 172.68856663 87.04907346 C173.45626325 85.0722965 174.20972349 83.09050389 174.96224827 81.10791135 C175.41672336 79.93865109 175.87119846 78.76939084 176.33944553 77.56469846 C177.65877754 73.61655238 177.65877754 73.61655238 177.33334202 67.1430676 C118.92334202 67.1430676 60.51334202 67.1430676 0.33334202 67.1430676 C-7.09165798 88.9230676 -7.09165798 88.9230676 -14.66665798 111.1430676 C-15.66665798 112.1430676 -15.66665798 112.1430676 -18.35049587 112.25659299 C-19.51830593 112.25135617 -20.68611599 112.24611936 -21.88931423 112.24072385 C-23.77940212 112.23588986 -23.77940212 112.23588986 -25.70767361 112.23095822 C-27.04816907 112.22260163 -28.38866386 112.21413667 -29.72915798 112.2055676 C-31.0735574 112.2005542 -32.41795858 112.19599102 -33.76236111 112.19189572 C-37.06383739 112.18006248 -40.36522602 112.16357731 -43.66665798 112.1430676 C-43.12923889 106.6451789 -42.08374538 101.76807897 -40.18228298 96.56884885 C-39.93055828 95.85971845 -39.67883358 95.15058805 -39.41948086 94.41996884 C-38.59263001 92.09577657 -37.7545901 89.77578511 -36.91665798 87.4555676 C-36.33009412 85.8119978 -35.74441651 84.16811147 -35.15957791 82.52392697 C-33.94259418 79.10486783 -32.72180805 75.68720317 -31.49820095 72.270509 C-28.9009885 65.01022497 -26.34571431 57.73525377 -23.79239041 50.45944333 C-22.98270008 48.15315674 -22.1715013 45.84740528 -21.36001736 43.54174924 C-18.76845843 36.17281459 -16.19576321 28.79797446 -13.66275173 21.4086926 C-13.42724102 20.72222653 -13.19173031 20.03576047 -12.94908291 19.3284924 C-11.84440826 16.10670033 -10.74365674 12.88368798 -9.64834744 9.6586926 C-9.26767117 8.5449426 -8.8869949 7.4311926 -8.49478298 6.2836926 C-8.16381619 5.30948361 -7.83284939 4.33527463 -7.4918533 3.33154416 C-5.95699855 -0.73899961 -4.10324434 0.02132708 0 0 Z M15.33334202 25.1430676 C14.67588098 26.49162721 14.03302227 27.84730791 13.39584202 29.2055676 C12.85636936 30.33671994 12.85636936 30.33671994 12.30599827 31.49072385 C11.13495596 34.68404805 10.72517855 37.77327344 10.33334202 41.1430676 C32.93374835 41.21312236 55.53413681 41.26603846 78.13462967 41.29850411 C88.62823149 41.31397858 99.12176589 41.33507919 109.61532444 41.36938596 C118.76060519 41.39927054 127.90583712 41.41863839 137.05116534 41.42533308 C141.89437209 41.42924693 146.73743914 41.43845709 151.58060116 41.46025777 C156.138437 41.48060803 160.69607548 41.48690435 165.25395244 41.48239064 C166.92731019 41.4832165 168.60067448 41.48919086 170.27399296 41.50068402 C172.55835696 41.51560554 174.84197536 41.51202283 177.12635654 41.50383115 C178.40488341 41.50659653 179.68341028 41.50936191 181.00068039 41.51221108 C186.04650292 40.9533087 188.46394838 39.20043824 191.64584202 35.3305676 C193.4615971 31.900808 193.69669647 29.95828938 193.33334202 26.1430676 C189.81112404 24.96899494 187.04785997 25.02015098 183.32890171 25.02281308 C182.61171677 25.02195866 181.89453183 25.02110423 181.15561402 25.02022392 C178.74648837 25.01857354 176.33743198 25.02408327 173.92831272 25.02954221 C172.20375422 25.0298242 170.47919561 25.02966611 168.75463718 25.0290997 C164.06693733 25.0288122 159.37926295 25.03470133 154.69156903 25.04167366 C149.79483284 25.04791503 144.8980961 25.04851162 140.00135654 25.04969907 C130.72600897 25.05281007 121.45067315 25.06102035 112.17533076 25.07104856 C101.61681796 25.08221686 91.05830462 25.08772196 80.49978739 25.09274399 C58.77763237 25.10320314 37.05548793 25.12079813 15.33334202 25.1430676 Z " fill="#fff" transform="translate(521.6666579842567,120.8569324016571)"/>
<path d="M0 0 C1.17272284 -0.00445668 1.17272284 -0.00445668 2.36913705 -0.0090034 C4.99140248 -0.01768162 7.61362222 -0.01919791 10.23590088 -0.02069092 C12.1151133 -0.02531972 13.99432477 -0.03034447 15.87353516 -0.03573608 C20.98111021 -0.04885634 26.08867213 -0.05530435 31.19626141 -0.05974674 C34.38774225 -0.06267816 37.57921951 -0.06678311 40.77069855 -0.07125092 C50.75743968 -0.08492506 60.74417261 -0.09459204 70.73092246 -0.09845281 C82.25659735 -0.10293305 93.78215361 -0.12047978 105.30779243 -0.1494534 C114.21833023 -0.171075 123.12883467 -0.18115735 132.03939843 -0.18249393 C137.36049729 -0.18354164 142.68148462 -0.18944228 148.00255585 -0.20731354 C153.00942561 -0.22380235 158.01610011 -0.22594574 163.02298737 -0.21717453 C164.85795108 -0.21640458 166.69292533 -0.22074126 168.52786255 -0.23063278 C171.03866307 -0.243371 173.54877398 -0.23746552 176.05957031 -0.22705078 C176.78060117 -0.23510719 177.50163204 -0.24316359 178.24451232 -0.25146413 C184.2802868 -0.19316667 189.77620706 1.09159384 194.52593994 4.97247314 C199.71142407 11.26204361 201.93369223 16.42148432 201.70758057 24.66876221 C201.2103691 28.74154273 200.03727399 32.40389669 198.68609619 36.25372314 C198.28589516 37.42186302 198.28589516 37.42186302 197.87760925 38.61360168 C197.30850299 40.27418132 196.73659716 41.93380375 196.16210938 43.5925293 C195.29230922 46.11562063 194.43887788 48.64363803 193.59088135 51.1741333 C192.15712085 55.45051651 190.70134446 59.71891304 189.23419189 63.98394775 C188.63857711 65.72395521 188.04846865 67.46585656 187.46368408 69.20953369 C181.82353093 86.00809457 175.68144231 99.86862958 159.28375244 108.51544189 C150.36005795 112.9525011 141.65754011 113.43203184 131.83404541 113.38336182 C130.00412552 113.38620934 130.00412552 113.38620934 128.13723755 113.38911438 C124.79938011 113.39217591 121.46177256 113.38631444 118.12394476 113.37616134 C114.56492152 113.36725414 111.00590102 113.3691413 107.4468689 113.36952209 C101.42291081 113.36858522 95.39900298 113.35993063 89.37506104 113.34625244 C83.3132019 113.332532 77.25138905 113.32522861 71.18951416 113.32574463 C50.88717308 113.32711838 30.5856524 113.28016229 10.28375244 113.14044189 C9.59359858 113.13573411 8.90344471 113.13102633 8.19237709 113.12617588 C-0.38199568 113.0664075 -8.95564982 112.98314862 -17.52944565 112.86416054 C-19.91424697 112.83254945 -22.29911524 112.80559698 -24.68402481 112.78362083 C-27.9423892 112.75189343 -31.19991963 112.70147425 -34.45794678 112.64556885 C-35.87524645 112.63686862 -35.87524645 112.63686862 -37.32117844 112.62799263 C-44.22502642 112.4770839 -49.09690877 111.40259812 -54.46624756 106.76544189 C-59.88708134 100.44113582 -61.05616725 95.31629815 -60.96853638 87.15310669 C-60.54275943 82.06876241 -58.91119305 77.53852017 -57.17327881 72.76934814 C-56.80780441 71.72576645 -56.44233002 70.68218475 -56.06578064 69.60697937 C-54.90269639 66.2997488 -53.71581131 63.00163035 -52.52874756 59.70294189 C-51.75055985 57.49448374 -50.97385433 55.28550272 -50.19866943 53.07598877 C-36.23552943 13.53293931 -36.23552943 13.53293931 -19.83734131 4.56622314 C-12.96037896 1.37040442 -7.58820486 -0.00900748 0 0 Z M-11.71624756 30.14044189 C-12.96396495 32.58811716 -13.9286837 34.82261895 -14.84124756 37.39044189 C-15.11912109 38.13970947 -15.39699463 38.88897705 -15.68328857 39.66094971 C-16.71591502 42.48004458 -17.71619299 45.30962482 -18.71624756 48.14044189 C-19.17886535 49.43356656 -19.64194669 50.72652545 -20.10540771 52.01934814 C-21.38081588 55.58310855 -22.64189822 59.15168943 -23.89367676 62.72381592 C-24.39829169 64.16225011 -24.9053123 65.59984275 -25.41479492 67.03656006 C-26.13827175 69.08357704 -26.84881665 71.13465378 -27.55609131 73.18731689 C-27.97237793 74.38195557 -28.38866455 75.57659424 -28.81756592 76.80743408 C-29.70171279 80.08653572 -29.89393165 82.76412292 -29.71624756 86.14044189 C-26.78610112 87.60551511 -24.19029753 87.28339288 -20.91712952 87.30107117 C-19.85616752 87.3087029 -19.85616752 87.3087029 -18.77377194 87.3164888 C-16.3917248 87.33224796 -14.00970807 87.34074748 -11.62762451 87.34918213 C-9.92442124 87.35871787 -8.22121993 87.36860891 -6.51802063 87.37882996 C-0.91354684 87.41024985 4.69094195 87.43048683 10.29547119 87.44903564 C11.72515051 87.45398163 11.72515051 87.45398163 13.18371224 87.45902753 C22.17102073 87.48981179 31.15833252 87.51652278 40.14567852 87.53344631 C51.64560667 87.55535386 63.14506795 87.59732119 74.64480942 87.66688389 C82.72811685 87.71412128 90.81129832 87.7383796 98.89473945 87.7456432 C103.7236123 87.75060026 108.55195928 87.76568584 113.38068199 87.8053875 C117.92560087 87.84226226 122.46969377 87.85066095 127.01473427 87.83738136 C128.68082611 87.8374353 130.34695461 87.84772714 132.01290894 87.869133 C141.9904842 88.32351873 141.9904842 88.32351873 150.73536682 84.26304626 C153.10994172 81.69806863 154.58012932 79.12273029 155.69000244 75.78887939 C156.2119519 74.27825928 156.2119519 74.27825928 156.7444458 72.73712158 C157.08741699 71.67396729 157.43038818 70.61081299 157.78375244 69.51544189 C158.15830566 68.41619385 158.53285889 67.3169458 158.91876221 66.18438721 C159.6847427 63.93343541 160.44201473 61.67950115 161.19049072 59.42266846 C162.52078128 55.42882605 163.90893329 51.45708779 165.30718994 47.4866333 C166.41836623 44.33058398 167.51384109 41.16918955 168.60357666 38.00567627 C169.17338686 36.44309554 169.8443676 34.91791664 170.53765869 33.40606689 C171.45546182 30.61902075 170.93660608 28.95713065 170.28375244 26.14044189 C147.29221177 26.04703774 124.30070235 25.97648188 101.30901051 25.93319321 C90.63377862 25.91256009 79.95866456 25.8844251 69.2835083 25.83868408 C59.98001407 25.79883935 50.67660516 25.77301454 41.37302798 25.76408792 C36.44593825 25.75886917 31.51909263 25.74658759 26.59208107 25.71752167 C21.95541181 25.69038995 17.31908744 25.68199237 12.68234634 25.68801117 C10.97995442 25.68690993 9.27755106 25.67894262 7.57522774 25.66362 C5.25127058 25.64372653 2.92861663 25.64849945 0.60462952 25.65942383 C-0.69602038 25.65573666 -1.99667028 25.65204948 -3.33673382 25.64825058 C-7.30950609 26.22684388 -8.91950761 27.31026917 -11.71624756 30.14044189 Z "
      fill="#FFF" transform="translate(298.71624755859375,119.85955810546875)"/>
<path d="M0 0 C0.89771567 -0.00085442 1.79543133 -0.00170885 2.7203505 -0.00258917 C5.73442458 -0.0042389 8.74844324 0.00126916 11.76251221 0.00672913 C13.92071023 0.00701113 16.07890835 0.006853 18.23710632 0.00628662 C24.10239325 0.00599917 29.96765982 0.01188744 35.83294201 0.01886058 C41.96020086 0.02510284 48.08746014 0.02569861 54.21472168 0.02688599 C65.82040547 0.02999672 77.42607986 0.03820665 89.0317595 0.04823548 C102.24320787 0.0594046 115.45465669 0.06490908 128.66610861 0.06993091 C155.84570929 0.08038946 183.02530163 0.09798394 210.20489502 0.12025452 C209.52548268 5.88090563 207.59606307 11.07140777 205.64239502 16.49525452 C205.14836182 17.88550842 205.14836182 17.88550842 204.64434814 19.30384827 C203.83563872 21.57761099 203.02238144 23.84963581 202.20489502 26.12025452 C201.1272202 26.12172108 200.04954538 26.12318764 198.93921375 26.12469864 C172.73344973 26.16127154 146.52781373 26.22069209 120.32215595 26.30415726 C107.64935909 26.34398962 94.97662471 26.3763608 82.30377197 26.39125061 C71.25986251 26.40424535 60.21609027 26.4311543 49.17225808 26.47486758 C43.32302784 26.49753133 37.47396715 26.51316225 31.6246891 26.51213837 C26.12121404 26.51139466 20.6181145 26.52922893 15.11473656 26.56142235 C13.09309475 26.56995366 11.07141098 26.57164948 9.04975891 26.56605721 C6.29225729 26.55944442 3.53596002 26.57727239 0.77857971 26.60127258 C-0.02395522 26.59351217 -0.82649016 26.58575175 -1.65334433 26.57775617 C-5.33338872 26.63457267 -7.56727395 26.97957758 -10.72585773 28.92988205 C-13.53598411 31.90450166 -14.68755777 35.161612 -15.95135498 38.97181702 C-16.3557782 40.13117264 -16.3557782 40.13117264 -16.76837158 41.31394958 C-17.33705548 42.95382499 -17.8980515 44.596384 -18.45184326 46.24134827 C-19.27781709 48.6939214 -20.12576985 51.13788034 -20.97869873 53.58119202 C-21.5334282 55.19010424 -22.08685018 56.79946795 -22.63885498 58.40931702 C-23.00315613 59.46513474 -23.00315613 59.46513474 -23.37481689 60.5422821 C-26.20832617 68.98743686 -28.40064033 77.50018179 -30.79510498 86.12025452 C38.50489502 86.12025452 107.80489502 86.12025452 179.20489502 86.12025452 C178.07954794 93.99768411 178.07954794 93.99768411 176.82989502 97.45228577 C176.56692627 98.18769592 176.30395752 98.92310608 176.03302002 99.68080139 C175.62309814 100.79551819 175.62309814 100.79551819 175.20489502 101.93275452 C174.93161377 102.69523499 174.65833252 103.45771545 174.37677002 104.24330139 C172.39090692 109.74823071 172.39090692 109.74823071 171.20489502 112.12025452 C143.45821547 112.19035309 115.71154921 112.24324691 87.96479893 112.27569103 C75.08134055 112.29115618 62.19793721 112.31223906 49.31451416 112.34657288 C38.08459036 112.3764859 26.85470642 112.39583208 15.62474388 112.40252 C9.67924339 112.406429 3.73385694 112.41560858 -2.21160698 112.43744469 C-7.81018936 112.45783977 -13.40861094 112.46408214 -19.00722694 112.45957756 C-21.05946604 112.4604014 -23.11171063 112.46634893 -25.16391754 112.47787094 C-27.97232302 112.49286227 -30.78012648 112.4891839 -33.58854675 112.48101807 C-34.39499412 112.48975659 -35.20144148 112.49849512 -36.03232664 112.50749844 C-42.86434052 112.45403967 -49.13838098 111.1865954 -54.60760498 106.93275452 C-60.61068345 99.21451077 -61.81793635 92.92442164 -60.79510498 83.12025452 C-59.48147277 77.13692661 -57.34304996 71.38265537 -55.29510498 65.62025452 C-54.7409682 64.01928331 -54.18808044 62.41787927 -53.63641357 60.8160553 C-52.29170023 56.93236442 -50.92114401 53.05855742 -49.53570557 49.18922424 C-48.86600955 47.31833618 -48.20181233 45.44548202 -47.53826904 43.57240295 C-40.87356038 24.86784241 -34.29253166 11.15861019 -15.45916748 2.21400452 C-10.27594714 0.08599616 -5.56065981 -0.01927183 0 0 Z "
      fill="#fff" transform="translate(792.7951049804688,120.87974548339844)"/>
<path d="M0 0 C21.12 0 42.24 0 64 0 C62.87505873 6.7496476 62.87505873 6.7496476 61.31347656 10.25439453 C60.96931702 11.03605988 60.62515747 11.81772522 60.27056885 12.62307739 C59.71124664 13.86539627 59.71124664 13.86539627 59.140625 15.1328125 C58.75436951 16.00590057 58.36811401 16.87898865 57.97015381 17.77853394 C56.73655905 20.56360871 55.49364726 23.34440154 54.25 26.125 C52.6279262 29.77242562 51.00938546 33.42141546 49.390625 37.0703125 C49.0035437 37.94085266 48.6164624 38.81139282 48.21765137 39.70831299 C45.3808727 46.10015234 42.63304464 52.52110426 40 59 C42.93511087 59.97837029 44.78145826 60.11617643 47.83520508 60.09765625 C48.81664993 60.09435303 49.79809479 60.0910498 50.8092804 60.08764648 C51.86866318 60.07934814 52.92804596 60.0710498 54.01953125 60.0625 C55.11085861 60.05871338 56.20218597 60.05492676 57.32658386 60.05102539 C62.00105335 60.03466278 66.67543591 60.00659213 71.34985352 59.97949219 C74.76057531 59.96138933 78.17128277 59.94930336 81.58203125 59.9375 C82.63534134 59.92920166 83.68865143 59.92090332 84.77388 59.91235352 C89.63345208 59.89615387 94.22389972 59.96369079 99 61 C97.6800567 64.63789251 96.07570775 67.55422612 93.8125 70.6875 C92.87664062 71.99654297 92.87664062 71.99654297 91.921875 73.33203125 C90.97054688 74.65267578 90.97054688 74.65267578 90 76 C86.36095625 81.13891989 82.78232323 86.30758176 79.3125 91.5625 C75.46859984 97.36193772 71.46061823 103.03567326 67.43188477 108.70776367 C63.80638243 113.82412679 60.31138355 119.00711668 56.859375 124.2421875 C54.96919395 127.04569133 53.00244438 129.77574427 51 132.5 C48.36231528 136.08989908 45.82671705 139.71819308 43.375 143.4375 C38.06455748 151.47548498 32.48976476 159.32739164 26.95458984 167.21142578 C16.77480628 181.73471929 6.68098791 196.31776785 -3.33691406 210.953125 C-9.06532701 219.32130265 -14.85391465 227.64104481 -20.72143555 235.91235352 C-23.63119689 240.02559634 -26.47402988 244.17030162 -29.25 248.375 C-39.30496063 263.59388613 -39.30496063 263.59388613 -44 268 C-45 266 -45 266 -44.46533203 263.88842773 C-44.14935059 262.99583252 -43.83336914 262.1032373 -43.5078125 261.18359375 C-43.14115479 260.13453857 -42.77449707 259.0854834 -42.39672852 258.00463867 C-41.97705811 256.82748291 -41.5573877 255.65032715 -41.125 254.4375 C-40.68139537 253.17517215 -40.23863506 251.91254733 -39.79663086 250.6496582 C-38.78568312 247.76337463 -37.77094008 244.87845716 -36.75439453 241.99414062 C-33.69550857 233.3014546 -30.6880938 224.59076039 -27.67053223 215.88366699 C-26.55954558 212.67897785 -25.44742559 209.47468416 -24.33496094 206.27050781 C-19.93501023 193.59589776 -15.55479355 180.91475679 -11.20147705 168.22406006 C-8.37409247 159.98246803 -5.52499661 151.74929465 -2.63476562 143.52954102 C0.40464086 134.87466784 3.38330932 126.19877017 6.36157227 117.52270508 C9.18075794 109.32480239 12.08377995 101.16541613 15 93 C-0.18 93 -15.36 93 -31 93 C-29.87715134 84.01721068 -29.87715134 84.01721068 -28.35546875 80.234375 C-28.01435059 79.36256592 -27.67323242 78.49075684 -27.32177734 77.5925293 C-26.94746582 76.65449463 -26.5731543 75.71645996 -26.1875 74.75 C-22.08349214 64.16300807 -18.42310674 53.47063678 -14.875 42.6875 C-11.203204 31.54340094 -7.46808269 20.44921088 -3.3046875 9.4765625 C-2.12926267 6.34444244 -1.05791302 3.17373906 0 0 Z " fill="#fff" transform="translate(1052,54)"/>
<path d="M0 0 C76.89 0 153.78 0 233 0 C231.87406297 7.88155922 231.87406297 7.88155922 230.625 11.5859375 C230.23054688 12.76349609 230.23054688 12.76349609 229.828125 13.96484375 C229.55484375 14.76019531 229.2815625 15.55554688 229 16.375 C228.72671875 17.19355469 228.4534375 18.01210937 228.171875 18.85546875 C226.14074248 24.85925752 226.14074248 24.85925752 225 26 C223.20291113 26.10274618 221.40158509 26.13085016 219.6015625 26.1328125 C218.36833252 26.13474609 217.13510254 26.13667969 215.86450195 26.13867188 C214.4513334 26.13451617 213.03816602 26.12994246 211.625 26.125 C210.9067807 26.12411377 210.1885614 26.12322754 209.44857788 26.12231445 C180.6318933 26.08199133 151.81219576 25.47391425 123 25 C122.80478256 25.73202133 122.60956512 26.46404266 122.40843201 27.21824646 C122.14659622 28.19092972 121.88476044 29.16361298 121.61499023 30.16577148 C121.3578978 31.12466782 121.10080536 32.08356415 120.83592224 33.07151794 C119.48007291 37.82145789 117.77290608 42.430873 116.0625 47.0625 C115.26446476 49.24957699 114.46766028 51.43710334 113.671875 53.625 C113.24455078 54.79933594 112.81722656 55.97367188 112.37695312 57.18359375 C110.87849495 61.32234712 109.41366306 65.47273807 107.953125 69.625 C107.69289047 70.36471542 107.43265594 71.10443085 107.16453552 71.86656189 C106.13088637 74.80670749 105.09806663 77.74713873 104.06790161 80.68850708 C101.34165304 88.47096459 98.57388418 96.23579303 95.69921875 103.96484375 C95.4438887 104.65614883 95.18855865 105.34745392 94.92549133 106.05970764 C93.11867171 110.88132829 93.11867171 110.88132829 92 112 C89.92737924 112.08767112 87.85179706 112.10695873 85.77734375 112.09765625 C83.88725586 112.09282227 83.88725586 112.09282227 81.95898438 112.08789062 C80.61848891 112.07953403 79.27799412 112.07106907 77.9375 112.0625 C76.59310058 112.0574866 75.2486994 112.05292342 73.90429688 112.04882812 C70.60282059 112.03699488 67.30143197 112.02050971 64 112 C64.61227077 105.87938549 66.38262574 100.47053481 68.4296875 94.6875 C68.77951691 93.68332031 69.12934631 92.67914063 69.48977661 91.64453125 C70.61220954 88.42756246 71.74351216 85.21379358 72.875 82 C73.59692393 79.93379274 74.31828241 77.86738781 75.0390625 75.80078125 C80.967363 58.84626226 86.9935944 41.92714306 93 25 C59.67 25 26.34 25 -8 25 C-6 16 -6 16 0 0 Z " fill="#fff" transform="translate(28,120)"/>
<path d="M0 0 C1.15507777 3.93421227 0.83585767 6.97268577 0 11 C-0.99 11.495 -0.99 11.495 -2 12 C-2.66 13.98 -3.32 15.96 -4 18 C11.18 18 26.36 18 42 18 C40.87991718 26.96066253 40.87991718 26.96066253 39.0625 31.5625 C37.91153815 34.56572661 36.87048465 37.46139845 36 40.5625 C35.20443143 43.29726696 34.30834902 45.75357975 33.21875 48.37109375 C30.68271237 54.6511057 28.59791904 61.06304022 26.5 67.5 C23.91029303 75.44589271 21.22732117 83.2878456 18 91 C16.87001693 87.6100508 17.09444017 87.02433139 18.265625 83.80078125 C18.57330811 82.93702881 18.88099121 82.07327637 19.19799805 81.18334961 C19.54515869 80.23596924 19.89231934 79.28858887 20.25 78.3125 C20.9919289 76.23735195 21.73274997 74.16180759 22.47265625 72.0859375 C22.87758301 70.95639648 23.28250977 69.82685547 23.69970703 68.66308594 C26.08588843 61.94091814 28.38007741 55.18701796 30.6875 48.4375 C31.585904 45.81073821 32.485853 43.18451217 33.38671875 40.55859375 C33.77045654 39.43767334 34.15419434 38.31675293 34.54956055 37.16186523 C36.66380843 31.09527988 38.8392251 25.05016973 41 19 C25.82 19 10.64 19 -5 19 C-4.305008 13.44006403 -3.85192329 9.94044719 -1.9375 5 C-1.57527344 4.05125 -1.21304687 3.1025 -0.83984375 2.125 C-0.56269531 1.42375 -0.28554687 0.7225 0 0 Z " fill="#fff" transform="translate(1026,128)"/>
<path d="M0 0 C1.01969121 3.57152168 0.82666675 5.64636179 -0.1875 9.25 C-0.42855469 10.14203125 -0.66960937 11.0340625 -0.91796875 11.953125 C-2 15 -2 15 -3.7578125 18.3046875 C-7.26093982 25.11861357 -9.32756137 32.6062335 -11.6875 39.875 C-12.43333886 42.15508783 -13.18090633 44.43459555 -13.92988586 46.71365356 C-14.39283335 48.12413281 -14.85367852 49.53530421 -15.31217957 50.94723511 C-16.89040788 55.78081575 -16.89040788 55.78081575 -18 58 C-17.01 58.33 -16.02 58.66 -15 59 C-17.97 63.455 -17.97 63.455 -21 68 C-21.66 67.34 -22.32 66.68 -23 66 C-15.44130349 43.96179704 -7.74306766 21.97401481 0 0 Z " fill="#fff" transform="translate(1030,254)"/>
<path d="M0 0 C0.33 1.32 0.66 2.64 1 4 C15.85 4 30.7 4 46 4 C46.495 6.97 46.495 6.97 47 10 C46.34 10.33 45.68 10.66 45 11 C45 9.35 45 7.7 45 6 C29.82 6 14.64 6 -1 6 C-0.67 4.02 -0.34 2.04 0 0 Z " fill="#fff" transform="translate(1023,140)"/>
<path d="M0 0 C0.68247803 -0.00451172 1.36495605 -0.00902344 2.06811523 -0.01367188 C5.64877644 -0.0028337 8.95503213 0.28279088 12.4375 1.125 C10.75660452 7.27461761 8.84189414 11.4825305 4.4375 16.125 C4.4375 13.17225901 4.87641831 11.63441597 5.9375 8.9375 C6.2159375 8.22207031 6.494375 7.50664063 6.78125 6.76953125 C6.9978125 6.22683594 7.214375 5.68414062 7.4375 5.125 C8.0975 5.125 8.7575 5.125 9.4375 5.125 C9.4375 4.465 9.4375 3.805 9.4375 3.125 C-10.8575 2.63 -10.8575 2.63 -31.5625 2.125 C-31.5625 1.795 -31.5625 1.465 -31.5625 1.125 C-21.04670496 0.57331325 -10.53240223 0.02831608 0 0 Z " fill="#fff" transform="translate(1136.5625,114.875)"/>
<path d="M0 0 C0 4.01147876 -1.55660911 5.64918337 -3.8125 8.9375 C-4.87404297 10.49791016 -4.87404297 10.49791016 -5.95703125 12.08984375 C-6.63121094 13.05019531 -7.30539062 14.01054687 -8 15 C-8.74830078 16.17755859 -8.74830078 16.17755859 -9.51171875 17.37890625 C-10.24841797 18.18134766 -10.24841797 18.18134766 -11 19 C-12.32 19 -13.64 19 -15 19 C-14.54857225 17.22739369 -14.08859477 15.4569632 -13.625 13.6875 C-13.36976563 12.70136719 -13.11453125 11.71523438 -12.8515625 10.69921875 C-12 8 -12 8 -10 5 C-9.67 5.99 -9.34 6.98 -9 8 C-6.46089803 7.61479436 -5.27248877 7.29902057 -3.515625 5.37109375 C-3.09796875 4.73300781 -2.6803125 4.09492188 -2.25 3.4375 C-1.82203125 2.79683594 -1.3940625 2.15617187 -0.953125 1.49609375 C-0.63859375 1.00238281 -0.3240625 0.50867188 0 0 Z " fill="#fff" transform="translate(1027,293)"/>
<path d="M0 0 C1.15507777 3.93421227 0.83585767 6.97268577 0 11 C-0.99 11.495 -0.99 11.495 -2 12 C-2.66 13.98 -3.32 15.96 -4 18 C11.18 18 26.36 18 42 18 C41.505 19.485 41.505 19.485 41 21 C41 20.34 41 19.68 41 19 C25.82 19 10.64 19 -5 19 C-4.305008 13.44006403 -3.85192329 9.94044719 -1.9375 5 C-1.57527344 4.05125 -1.21304687 3.1025 -0.83984375 2.125 C-0.56269531 1.42375 -0.28554687 0.7225 0 0 Z " fill="#fff" transform="translate(1026,128)"/>
<path d="M0 0 C2.03945127 7.14328456 -1.47135456 14.34023509 -4.890625 20.61328125 C-6.7400239 24.59209368 -7.97104161 28.79308913 -9.24951172 32.98535156 C-9.77999731 34.67447275 -10.38454678 36.339951 -11 38 C-11.99 38.495 -11.99 38.495 -13 39 C-10.80308143 30.23835822 -7.8960957 21.79594071 -4.8125 13.3125 C-4.34401174 12.01381225 -3.8759104 10.71498485 -3.40820312 9.41601562 C-2.27591396 6.27595598 -1.13977817 3.13734732 0 0 Z " fill="#fff" transform="translate(1030,254)"/>
<path d="M0 0 C0 4.27278292 -2.34353554 6.85208272 -4.6875 10.25 C-5.12255859 10.89324219 -5.55761719 11.53648437 -6.00585938 12.19921875 C-7.32490957 14.1416423 -8.65935516 16.07242795 -10 18 C-10.46615723 18.67482422 -10.93231445 19.34964844 -11.41259766 20.04492188 C-12.58156345 21.71571429 -13.78742536 23.3605821 -15 25 C-15.33 25 -15.66 25 -16 25 C-16.3125 22.75 -16.3125 22.75 -16 20 C-15.27683594 19.44183594 -14.55367187 18.88367188 -13.80859375 18.30859375 C-10.27698242 15.40569765 -8.18353621 12.14131222 -5.75 8.3125 C-1.0464191 1.0464191 -1.0464191 1.0464191 0 0 Z " fill="#fff" transform="translate(1065,238)"/>
<path d="M0 0 C0 3.38757856 -0.51313038 4.10387838 -2.40625 6.79296875 C-2.90253906 7.50517578 -3.39882812 8.21738281 -3.91015625 8.95117188 C-4.43480469 9.68916016 -4.95945312 10.42714844 -5.5 11.1875 C-6.02464844 11.93708984 -6.54929687 12.68667969 -7.08984375 13.45898438 C-8.38705764 15.31046238 -9.69058934 17.15713746 -11 19 C-11.33 18.34 -11.66 17.68 -12 17 C-11.01453001 15.32470102 -10.01059521 13.66026356 -9 12 C-7.90779652 9.36010011 -6.95855423 6.69308093 -6 4 C-4.68 4 -3.36 4 -2 4 C-1.34 2.68 -0.68 1.36 0 0 Z " fill="#fff" transform="translate(1086,208)"/>
<path d="M0 0 C1.15507777 3.93421227 0.83585767 6.97268577 0 11 C-0.99 11.495 -0.99 11.495 -2 12 C-2.72693904 13.97888961 -3.39816251 15.97954558 -4 18 C-5.72251754 13.9154674 -4.07280563 10.63026304 -2.5625 6.75 C-2.31951172 6.1003125 -2.07652344 5.450625 -1.82617188 4.78125 C-1.22714006 3.18383183 -0.61485679 1.59139406 0 0 Z " fill="#fff" transform="translate(1026,128)"/>
<path d="M0 0 C1.18771723 3.42943519 0.80226223 5.37784675 -0.4375 8.75 C-0.86869141 9.94882813 -0.86869141 9.94882813 -1.30859375 11.171875 C-1.53675781 11.77515625 -1.76492188 12.3784375 -2 13 C-2.66 13 -3.32 13 -4 13 C-3.27991594 8.39146203 -1.68704061 4.32762591 0 0 Z " fill="#fff" transform="translate(1031,115)"/>
<path d="M0 0 C0.66 0.66 1.32 1.32 2 2 C2.66 1.67 3.32 1.34 4 1 C2.70700306 3.88437779 1.34058637 5.87219421 -1 8 C-2 6 -2 6 -1.0625 2.875 C-0.5365625 1.451875 -0.5365625 1.451875 0 0 Z " fill="#fff" transform="translate(1009,314)"/>
<path d="M0 0 C1.32 0.66 2.64 1.32 4 2 C2.68799596 3.35432675 1.35368596 4.68733482 0 6 C-0.33 6 -0.66 6 -1 6 C-1.042721 4.33388095 -1.04063832 2.66617115 -1 1 C-0.67 0.67 -0.34 0.34 0 0 Z " fill="#fff" transform="translate(1011,311)"/>
<path d="M0 0 C0.66 0 1.32 0 2 0 C1.43628586 3.26954202 0.50037734 4.82575883 -2 7 C-2.125 4.625 -2.125 4.625 -2 2 C-1.34 1.34 -0.68 0.68 0 0 Z " fill="#fff" transform="translate(1051,256)"/>
</svg>
