<svg height="137" viewBox="0 0 291 137" width="291" xmlns="http://www.w3.org/2000/svg"><g fill="#fff" transform="translate(51 26)"><path d="m155.365704 25.7104775c3.188142 0 5.762022-2.6057438 5.762022-5.8204386-.007081-3.2146948-2.584502-5.8204386-5.770873-5.8204386-3.186372 0-5.772643 2.6145949-5.772643 5.8292897.00531 3.2040735 2.593352 5.8098173 5.781494 5.8098173m-30.111211 6.1762501c-2.127788-.8249162-4.529958 2.0127247-4.529958 2.0127247-2.492451 2.4729783-3.763459 6.3497303-3.763459 6.3497303-2.350834 5.9514338 1.957849 7.4561093 1.957849 7.4561093 4.298061.9559114 5.105275-2.5632589 5.105275-2.5632589 1.575483-3.2040735 2.91553-9.7874711 2.91553-9.7874711.26376-2.9597851-1.683467-3.4696045-1.683467-3.4696045zm-75.7064163 10.1007976 9.3342983-.0053106 3.7121228-14.8945165zm-28.2436429 7.2950206s6.4488619 4.0697044 12.9579108-.0743487c0 0 11.9365016-8.9926484 32.2779432-39.0454422l13.0570423-.0442552-8.6775517 35.6785097s-2.5225441 7.4985942 3.5404128 3.1846013c0 0 3.9865048-2.8394111 4.2484953-3.2961243l4.5423496-17.5498261 13.6624529-.0070808-.5664661 2.779224 5.0663311-3.3987963s1.625049 3.6926505 5.620405 3.9475603c0 0 2.945623.283233 4.772476-1.2922507 0 0 2.726118-2.5030718 4.761855-3.113793 0 0 7.326885-2.8075474 12.099361 3.5209405l.637274-2.5331654 12.267531.051336-4.740613 18.4030656s-1.685237 8.3836974 6.850699-.874482l4.259116-17.4276818 12.52067-.0442552-4.237874 17.0824916s-1.109919 4.699898 3.926318 1.6569132c0 0 5.3177-5.0450882 5.40798-5.4115209 0 0-5.478789 13.4181644-13.370369 16.8470542 0 0-10.38226 3.6430847-10.444217-5.5442864 0 0-5.448696 6.3692025-12.885333 6.6542058 0 0-5.266364.6408147-6.60818-4.579524 0 0-5.055709 7.0613533-12.844618 4.97428 0 0-13.4624191-4.6166983-3.542183-20.3255097 0 0-7.6685336 1.2710082-11.0390066-2.0959244l-5.7938855 21.9240061-13.6323593-.0230127 1.7967594-7.222442s-8.4155611 8.3429827-16.5691317 7.8243122c0 0-7.1746465.0283233-4.5618219-8.3128892l1.6055772-5.5761501-13.0570423.0460254s-9.3449195 9.9804236-16.751463 13.9173626c0 0-7.325114 3.9263177-14.590041-.3469605zm39.4933045 14.3351313h2.5420164l-.0088511 2.8889768h3.6519358v-2.8889768h2.6145948v8.0261157h-2.6145948v-3.285503h-3.6519358l.0088511 3.285503h-2.5420164zm21.9877335 0h2.5420164v6.0009996h5.8027365v2.0251161h-8.3359019zm10.7663952 0v8.0261157h2.6022034v-4.322844l2.4021701 4.322844h1.8162315l2.018036-4.3334652v4.3334652h2.603973v-8.0261157h-3.149197l-2.3809276 4.434367-2.5119229-4.434367zm24.589937 0h9.061686l.005311 1.7294916h-3.067768v6.2966241h-2.602203v-6.2860029h-3.400566zm-10.706208 0h8.314659v1.8516358h-5.781494v1.3011017h3.621842v1.7507342l-3.643084.0053106v1.2320636l5.731928-.0070808v1.8923506h-8.243851zm-35.4271407 0h8.3146594v1.7896786h-5.7832642v1.3028719l3.6342337-.0070808v1.7595851h-3.653706v1.2320637h5.7319283v1.9525376h-8.2438512z"/><path d="m161.278193 23.2056355c.563895-1.0140408.859419-2.1553143.85855-3.3155966-.007081-3.7652289-3.048295-6.836537-6.77989-6.827686-2.257428-.0003461-4.364685 1.1310582-5.611554 3.0128913-14.23777-6.91796657-34.005665-11.20186602-55.8606332-11.20186602-43.3594352 0-78.4944915 16.84705412-78.4944915 37.63281752 0 3.2748818.8780224 6.4594831 2.5225441 9.4918467l-5.438074 7.0100172-.7080826.9240478.9913156.5894787c2.3915148 1.4040135 5.1166398 2.1389474 7.8898099 2.1277881 2.3313618 0 4.3281546-.4991982 5.7106858-.9559115 13.6730741 11.0372368 38.7976133 18.4331591 67.5262927 18.4331591 43.3381932 0 78.4838702-16.8470541 78.4838702-37.6221963 0-7.059583-4.057313-13.6518316-11.090343-19.29879m26.468126 19.29879c0 23.4711665-42.02647 42.4955745-93.8616532 42.4955745-51.8564258 0-93.8846658-19.024408-93.8846658-42.4955745 0-23.4800175 42.02824-42.5044255 93.8846658-42.5044255 51.8351832 0 93.8616532 19.024408 93.8616532 42.5044255"/></g></svg>