<svg height="25" viewBox="0 0 52 25" width="52" xmlns="http://www.w3.org/2000/svg"><g fill="none" fill-rule="evenodd"><rect fill="#00457c" height="25" rx="4" width="52"/><path d="m44.0476139 8.21672522-1.2764421 8.02208208c-.0119833.0741535.0094345.149791.0585813.2068814.0491467.0570904.1210645.0898743.1967071.0896704h1.2841008c.2118894 0 .3931441-.1520783.4263316-.3611847l1.2598483-7.87760856c.0120209-.07437317-.009559-.15022802-.0589935-.20736705-.0494346-.05713903-.1217062-.08976247-.1975713-.08919142h-1.4372738c-.1276442 0-.2361418.09252131-.2552884.21671785m-16.0129658 2.62585988h-1.4972665c-.1430908-.0001826-.2769682.070075-.3574038.1875717l-2.0665597 3.0035284-.8743628-2.8869357c-.055683-.1810575-.2241705-.304589-.4148437-.3041644h-1.4717377c-.08354-.0007074-.1622522.0388059-.2111936.1060281-.0488786.0672223-.0620455.1538209-.0351598.2323537l1.6491632 4.7802992-1.5508771 2.1607661c-.0560559.0783246-.0632165.1812186-.0185429.2664532s.1336577.1384551.2304323.1378249h1.4959901c.1413686-.0002217.2737719-.0687869.3548509-.1837659l4.9806769-7.0969446c.0554558-.0784869.0620919-.1811599.0171951-.2660405s-.1337999-.1377393-.2303609-.1369742m12.1798103 2.8641337c-.1233956.8220563-.844192 1.424129-1.6810742 1.4041812-.4327139 0-.7786297-.1368696-1.0007306-.3966685-.2208245-.2572642-.3037932-.6247846-.2335889-1.0328589.1191734-.8215554.8336478-1.427877 1.6695862-1.4168543.4225023 0 .7658652.1394043.9930719.4017377.2284832.2636008.3191105.6336558.2527356 1.0391955m2.0767712-2.8641241h-1.4896079c-.1276442 0-.2374182.0925138-.2565648.2179776l-.066375.4106089-.1033918-.1482754c-.3229399-.4625687-1.0415768-.6171807-1.7602137-.6171807-1.6466102 0-3.0506965 1.2318268-3.3251316 2.9591724-.1429615.8617719.0599928 1.6855244.5539759 2.2596165.4544134.5284689 1.1041224.7477138 1.8763699.7477138 1.3274997 0 2.0627303-.8402275 2.0627303-.8402275l-.0663749.4080743c-.0119834.0741535.0094344.149791.0585812.2068814s.1210645.0898743.1967072.0896695h1.342817c.2131659 0 .3931442-.1520774.4263317-.3599165l.8067114-5.0375634c.0111514-.0740955-.0107828-.1493365-.0600717-.2060636-.0492888-.0567272-.1210353-.0893045-.1964932-.08922m-24.2677167 2.8641241c-.1234531.8225465-.8449874 1.4247782-1.6823506 1.4041812-.4314374 0-.7786297-.1368696-.9994541-.3966685-.2208245-.2572642-.3037933-.6247846-.2335889-1.0328589.1191734-.8215554.8336478-1.427877 1.6695862-1.4168543.4225023 0 .7658652.1394043.9930719.4017377.2284831.2636008.3178341.6336558.2527355 1.0391955m2.0754949-2.8641241h-1.4896079c-.1276443 0-.2361418.0925138-.2552885.2179776l-.0663749.4106089-.1033919-.1482754c-.3229398-.4625687-1.0428531-.6171807-1.76149-.6171807-1.6453338 0-3.0506966 1.2318268-3.3238552 2.9591724-.1429615.8617719.0587164 1.6855244.5539759 2.2596165.4544134.5284689 1.1028459.7477138 1.8763698.7477138.7737663.0085927 1.5179995-.2945615 2.0627304-.8402275l-.066375.4080743c-.0119833.0741535.0094345.149791.0585813.2068814.0491467.0570904.1210645.0898743.1967072.0896695h1.342817c.2118894 0 .3931442-.1520774.4263317-.3599165l.8054349-5.0375634c.0111191-.0738769-.0106517-.1489045-.0596546-.2055845s-.120399-.0894154-.1956338-.0896991m-8.9414767.0354848c-.1697668 1.102561-1.0224301 1.102561-1.84828813 1.102561h-.4671778l.32932205-2.05938126c.01914663-.12419653.12764421-.21544296.25528842-.21544296h.21571871c.56163455 0 1.09135795 0 1.36579305.31556062.1633845.1900967.2131658.4689052.1506201.8567026m-.3599566-2.87679725h-3.11068936c-.21231797-.00083638-.39368888.15182298-.4276081.35991648l-1.25857188 7.87760857c-.01198332.0741535.00943445.149791.05858123.2068814s.12106452.0898743.19670718.0896704h1.48705502c.21188938 0 .39314415-.1520783.42633165-.3599174l.33953359-2.1265488c.03391922-.2080935.21529012-.3607528.42760809-.3599164h.98413684c2.04996594 0 3.23195134-.9796319 3.54085034-2.9211531.1404086-.84909878.0063822-1.51570465-.3956971-1.9820753-.4429254-.51326118-1.2266608-.78573316-2.2682375-.78573316m22.550902 2.87806456c-.1710432 1.102561-1.0237065 1.102561-1.8482881 1.102561h-.4697307l.3293221-2.05938126c.0191466-.12419653.1276442-.21544296.2552884-.21544296h.2169952c.5616345 0 1.0913579 0 1.3645165.31556062.1633846.1900967.2131659.4689052.1506202.8567026m-.3561273-2.87679725h-3.1145187c-.212318-.00083638-.3936889.15182298-.4276081.35991648l-1.2572954 7.87760857c-.0119834.0741535.0094344.149791.0585812.2068814s.1210645.0898743.1967072.0896717h1.5955526c.1492802.0005642.2766594-.1070682.2999639-.2534645l.3574037-2.233003c.0338434-.2076185.2144965-.3601289.4263317-.3599164h.9841368c2.049966 0 3.2332278-.9796319 3.5421268-2.9211531.1391322-.84909878.0051057-1.51570465-.3969735-1.9820753-.4429254-.51326118-1.2266608-.78573316-2.2682376-.78573316" fill="#fff"/></g></svg>