<svg id="Capa_1" data-name="Capa 1" xmlns="http://www.w3.org/2000/svg" viewBox="0 0 40 40"><defs><style>.cls-1{fill:none;stroke:#393939;stroke-linecap:round;stroke-linejoin:round;}.cls-2{fill:#a72c2c;}</style></defs><title>06-moto-equipacion-carretera-pantalones</title><path class="cls-1" d="M12.19,23.9a4.09,4.09,0,0,1,4.86,0"/><path class="cls-1" d="M14.49,28.78h0a.82.82,0,0,1-.77-.85l0-1.72a.82.82,0,0,1,.8-.83h.05a.82.82,0,0,1,.77.86l0,1.72A.81.81,0,0,1,14.49,28.78Z"/><path class="cls-1" d="M25.65,28.78h0A.8.8,0,0,1,24.8,28l-.05-1.72a.82.82,0,0,1,.76-.87h0a.82.82,0,0,1,.81.82l.05,1.72A.81.81,0,0,1,25.65,28.78Z"/><path class="cls-1" d="M27.81,23.9a4.09,4.09,0,0,0-4.86,0"/><path class="cls-1" d="M22.87,22.77S25.14,6.86,20,6.78H20c-5.1.08-2.83,16-2.83,16"/><path class="cls-1" d="M15,6.07a5.48,5.48,0,0,0,1.84-3.15"/><path class="cls-1" d="M23.2,2.94a5.5,5.5,0,0,0,1.85,3.12"/><path class="cls-1" d="M12.67,14.69c-.5,8-1,18.94-.4,23.76,0,0-.14.46,1.44.54a5.66,5.66,0,0,0,2.3-.23A10.05,10.05,0,0,0,16.23,37c0-.77,1.43-22.34,1.43-22.34S18,12.13,20,12.1s2.34,2.54,2.34,2.54S23.77,36.21,23.77,37A10.05,10.05,0,0,0,24,38.76a5.66,5.66,0,0,0,2.3.23c1.58-.08,1.44-.54,1.44-.54,1-8.09-1.08-33.37-1.08-33.37V1.82A.79.79,0,0,0,25.89,1H14.12a.79.79,0,0,0-.77.82V5.08s-.18,2.2-.41,5.5"/><path class="cls-2" d="M12.51,12.24a.49.49,0,0,0-.19.48.46.46,0,0,0,.2.32.42.42,0,0,0,.36.09h0a.48.48,0,0,0,.4-.57.51.51,0,0,0-.19-.32.49.49,0,0,0-.37-.09A.46.46,0,0,0,12.51,12.24Z"/><line class="cls-1" x1="20.04" y1="1" x2="20.04" y2="4.74"/></svg>