<svg id="Capa_1" data-name="Capa 1" xmlns="http://www.w3.org/2000/svg" viewBox="0 0 40 40"><defs><style>.cls-1{fill:#a72c2c;}.cls-2,.cls-3{fill:none;stroke-linecap:round;}.cls-2{stroke:#363636;stroke-linejoin:round;}.cls-3{stroke:#a72c2c;stroke-miterlimit:10;}</style></defs><title>01-moto-equipacion-carretera-cascos-racing</title><path class="cls-1" d="M29.62,32a.47.47,0,0,0-.43.27.5.5,0,0,0,0,.38.48.48,0,0,0,.25.29h0a.5.5,0,0,0,.66-.23.49.49,0,0,0-.22-.66A.53.53,0,0,0,29.62,32Z"/><path class="cls-2" d="M36.29,28.4c-9-2.24-11.66-3.9-14.74-5.6s-4.66-4.25-3.81-7.31,3.79-2.9,5.68-2.3a82.26,82.26,0,0,0,8.64,1.94,27.75,27.75,0,0,0,3.67.35h.78A34.89,34.89,0,0,1,36.29,28.4Z"/><path class="cls-2" d="M21.72,15.19a1.41,1.41,0,1,0,1.45,1.41A1.43,1.43,0,0,0,21.72,15.19Z"/><line class="cls-3" x1="31.38" y1="33.35" x2="32.98" y2="34.13"/><path class="cls-1" d="M8.36,5.2a.48.48,0,0,0-.5.13.5.5,0,0,0-.14.35A.51.51,0,0,0,7.87,6h0a.49.49,0,0,0,.69,0,.52.52,0,0,0,.14-.35.45.45,0,0,0-.15-.35A.46.46,0,0,0,8.36,5.2Z"/><line class="cls-3" x1="9.86" y1="7.28" x2="11.14" y2="8.49"/><line class="cls-3" x1="8.49" y1="8.69" x2="9.77" y2="9.9"/><path class="cls-2" d="M35.61,13C34,9.38,29.78,3,20.42,3a28.24,28.24,0,0,0-10,1.52"/><path class="cls-2" d="M6.41,6.93A4.88,4.88,0,0,0,5.33,8.4V10S2.84,14.76,3,18.31c1.16,1.45,1.33,7.33,1.33,7.33A148.1,148.1,0,0,1,33.71,37a16.22,16.22,0,0,0,2.58-3.46,8.49,8.49,0,0,0,.2-2.73"/></svg>