<svg xmlns="http://www.w3.org/2000/svg" width="152" height="149"><g fill="none" fill-rule="evenodd" stroke-width="2.25"><path stroke="#ffffff" d="M74.208 90.731c-9.931 0-17.982-8.052-17.982-17.983 0-9.93 8.051-17.98 17.982-17.98 9.932 0 17.982 8.05 17.982 17.98 0 9.931-8.05 17.983-17.982 17.983zm0-42.072c-13.305 0-24.09 10.785-24.09 24.09s10.785 24.09 24.09 24.09c13.304 0 24.091-10.785 24.091-24.09s-10.787-24.09-24.091-24.09z" transform="translate(2 2)"/><path stroke="#ffffff" d="M62.903 72.75c0-6.245 5.06-11.306 11.305-11.306 6.244 0 11.306 5.06 11.306 11.305 0 6.244-5.062 11.306-11.306 11.306-6.244 0-11.305-5.062-11.305-11.306zm13.382-24.345L88.22 24.107m-4.749 26.339l.763-27.519m3.019 29.456l18.737-19.194m-16.087 21.21l10.774-25.092M93.88 59.352l22.735-14.281M95.022 60.952l25.705-7.884m-22.62 16.338l25.478-7.197m-25.478 9.139l26.277-3.542m-26.505 9.026l24.334 11.197m-24.792-9.597l26.049 4.685m-25.648-4.096l21.856 15.975m-25.114-9.251l26.97 5.529m-29.535-2.142l15.648 21.786M89.554 91.393l22.839 14.967M83.986 94.448l10.116 24.87M82.211 95.296l3.3 26.684M73.35 96.865l2.664 26.341m-4.577-26.678l-1.075 26.493m-4.286-27.67l-15.252 22.021m13.757-22.749l-9.136 24.84m8.486-24.548l-19.526 18.75m13.47-23.126l-10.128 25.6m7.237-28.714L30.812 99.054m22.371-14.43l-18.705 19.894M51.141 78.61l-26.249 5.643m25.722-7.537l-26.852-1.384m26.845-7.616l-26.403-1.949m27.067.125l-25.903-5.659m27.994.583L34.324 41.972m20.014 17.497l-22.875-13.31M66.5 49.565l1.366-27.037m6.042 26.073l-10.17-25.584m-6.044 31.725L47.889 29.51m16.172 21.324L44.319 31.643" transform="translate(2 2)"/><path stroke="#ffffff" d="M82.137 122.789C54.5 127.166 28.547 108.31 24.17 80.674 19.793 53.038 38.65 27.086 66.286 22.71c27.637-4.378 53.588 14.478 57.965 42.115 4.379 27.636-14.478 53.588-42.114 57.965zm66.23-50.113c0-.621.064-1.23.047-1.855-.017-.626-.113-1.23-.147-1.852l-3.094-.142c-.216-3.798-.702-7.52-1.512-11.126l2.948-.96c-.278-1.213-.646-2.39-.985-3.578l-3.042.524c-1.103-3.803-2.49-7.48-4.2-10.983l2.632-1.577a71.749 71.749 0 0 0-1.732-3.295l-2.837 1.183c-1.86-3.292-4.001-6.394-6.359-9.33l2.219-2.107c-.786-.968-1.542-1.957-2.375-2.883l-2.522 1.774a71.051 71.051 0 0 0-8.68-8.086l1.526-2.749a73 73 0 0 0-2.993-2.21l-2.04 2.302c-3.107-2.153-6.388-4.01-9.79-5.624l1.08-2.865c-1.129-.528-2.242-1.088-3.395-1.56l-1.497 2.698a70.92 70.92 0 0 0-11.334-3.494l.4-3.035-.43 3.017.384-3.006c-1.228-.274-2.442-.588-3.69-.8l-.833 2.935c-3.715-.614-7.534-.892-11.413-.917l-.297-3.02c-.726-.002-1.435-.07-2.164-.052-.548.014-1.075.096-1.62.122l-.155 3.034c-4.054.209-8.026.706-11.865 1.547L57.61 1.82c-1.237.277-2.43.654-3.641.99l.546 2.982C50.81 6.837 47.218 8.128 43.79 9.72l-1.597-2.583a74.237 74.237 0 0 0-3.361 1.694l1.197 2.788a71.02 71.02 0 0 0-9.951 6.51l-2.159-2.17c-.986.773-1.985 1.53-2.926 2.349l1.818 2.466a70.52 70.52 0 0 0-7.888 8.137l-2.6-1.66c-.79.966-1.52 1.972-2.258 2.975l2.317 2.007c-2.319 3.176-4.392 6.525-6.148 10.062l-2.898-1.032a71.864 71.864 0 0 0-1.55 3.38L8.5 46.078c-1.452 3.435-2.6 7.011-3.482 10.691l-3.063-.387c-.283 1.205-.621 2.388-.842 3.612l2.991.827c-.67 3.802-.961 7.719-.974 11.697l-3.081.303c0 .621-.062 1.23-.045 1.857.017.624.111 1.229.145 1.85l3.094.142c.217 3.8.704 7.52 1.512 11.126l-2.947.96c.277 1.213.645 2.39.984 3.578l3.044-.524c1.1 3.803 2.488 7.48 4.198 10.983l-2.63 1.577a72.427 72.427 0 0 0 1.728 3.295l2.839-1.183c1.86 3.292 4.003 6.394 6.36 9.33l-2.22 2.109c.786.967 1.543 1.955 2.377 2.883l2.521-1.776a70.917 70.917 0 0 0 8.679 8.086l-1.684 2.555c.986.77 2.024 1.472 3.049 2.193l2.038-2.278c3.109 2.165 6.37 4.118 9.816 5.777l-1.064 2.834a74.593 74.593 0 0 0 3.446 1.52l1.478-2.655c3.655 1.503 7.465 2.684 11.395 3.574l-.383 3.006c1.227.274 2.44.588 3.689.8l.833-2.935c3.712.615 7.533.892 11.412.917l.298 3.02c.724.002 1.435.07 2.166.052.546-.014 1.072-.096 1.616-.122l.158-3.034c4.054-.209 8.024-.706 11.865-1.547l.99 2.886c1.236-.277 2.43-.654 3.642-.99l-.546-2.982c3.708-1.045 7.3-2.336 10.725-3.928l1.599 2.583a75 75 0 0 0 3.36-1.694l-1.195-2.788a71.34 71.34 0 0 0 9.95-6.51l2.159 2.168c.983-.773 1.982-1.527 2.925-2.347l-1.82-2.464a70.671 70.671 0 0 0 7.89-8.139l2.6 1.66c.789-.966 1.517-1.972 2.258-2.974l-2.318-2.008c2.32-3.176 4.393-6.525 6.149-10.062l2.897 1.032a71 71 0 0 0 1.548-3.38l-2.71-1.437c1.452-3.434 2.597-7.01 3.482-10.69l3.062.387c.283-1.203.622-2.386.843-3.612l-2.993-.827c.67-3.802.961-7.719.974-11.697l3.081-.303z" transform="translate(2 2)"/></g></svg>