<svg height="163" width="188" xmlns="http://www.w3.org/2000/svg">
    <g fill="none" fill-rule="evenodd" stroke="#fff" stroke-linecap="round" stroke-width="2.835"
       transform="translate(2.234 2.024)">
        <path d="m159.31 157.468s4.328 2.355 9.273 1.054c4.947-1.302 6.8-5.877 5.811-10.328-.988-4.45-5.687-20.154-5.935-26.71-.246-6.552-4.45-25.594-8.16-32.767"/>
        <path d="m174.54 151.907s3.687 1.728 3.317-6.309c-.372-8.037 1.977-30.295 1.113-36.973-.867-6.676-5.811-22.752-5.811-22.752"/>
        <path d="m178.383 130.26s5.779-6.796 5.16-18.171c-.616-11.377.264-19.539-4.38-30.668-4.645-11.128-6.252-15.209-16.515-26.46-10.262-11.253-25.1-36.973-30.044-45.01-4.947-8.04-3.71-9.274-10.758-9.894-7.048-.617-27.325 3.712-37.71 17.312 0 0 .988 6.678 3.585 11.376 0 0 5.193 10.634 5.069 11.625-.122.988-6.676 27.699-7.912 44.638-1.237 16.94 1.236 44.886 8.53 45.008 7.296.126 7.79-8.531 9.521-17.805s2.968-19.29 5.193-20.403 11.375 7.05 16.94 15.704c5.563 8.655 15.702 34.005 19.658 40.683 3.956 6.677 9.15 12.86 14.59 9.274s3.216-13.973 1.855-17.435c-1.36-3.462-17.31-49.215-17.31-49.215m-64.046-66.895-1.731.122c-1.73.126-17.928 19.538-20.277 21.641-2.35 2.102-13.107 8.284-19.907 10.51s-20.525 11.252-29.304 23.742c-8.779 12.488-9.398 13.6-8.037 19.783 1.36 6.183 9.767 1.36 12.117-.495 2.349-1.855 19.412-12.982 20.154-13.354.74-.37-19.66 38.458-22.75 47.36-3.092 8.903-5.935 15.333-1.609 21.887 4.329 6.552 11.128 3.105 14.714-4.013m63.43-16.335s-4.205 11.939-7.913 15.401c-3.71 3.462-13.354.742-14.344-3.958-.989-4.697 10.386-24.606 10.386-24.606m-10.386 24.606s-1.483 8.286-9.397 8.286c0 0-12.735.74-10.633-9.522 2.103-10.263 10.51-25.348 10.51-25.348"/>
        <path d="m44.088 148.317s-.384 6.237-5.453 7.324c-5.07 1.085-16.692 1.828-15.208-7.324 1.483-9.15 16.94-35.858 16.94-35.858m112.232-56.221s-23.72 6.404-27.635 11.03c-3.914 4.626-.236 16.251 6.168 17.794 6.405 1.54 9.014-.95 12.098-3.085 3.083-2.134 5.099 1.187 9.37.593 4.27-.593 3.696-4.507 6.71-4.983 3.014-.474 7.278 1.264 10.25.12m-89.535-30.327s-11.059-4.634-17.656-6.683m-8.149 44.843s15.144-7.643 14.9-19.473c-.243-11.83-3.902-16.708-3.902-16.708m70.243-34.683s-12.703 2.25-20.83 5.963"/>
    </g>
</svg>