<?xml version="1.0" encoding="utf-8"?>
<!-- Generator: Adobe Illustrator 19.2.0, SVG Export Plug-In . SVG Version: 6.00 Build 0)  -->
<svg version="1.1" id="Capa_1" xmlns="http://www.w3.org/2000/svg" xmlns:xlink="http://www.w3.org/1999/xlink" x="0px" y="0px"
	 width="24px" height="24px" viewBox="0 0 24 24" style="enable-background:new 0 0 24 24;" xml:space="preserve">
<style type="text/css">
	.st0{fill:#FFFFFF;}
</style>
<path class="st0" d="M19.8,7.9c-0.8,3.2-3.5,5.6-6.8,6V19h2c0.6,0,1,0.4,1,1s-0.4,1-1,1H9c-0.6,0-1-0.4-1-1s0.4-1,1-1h2v-5.1
	c-3.3-0.4-6-2.8-6.8-6C1.8,7.4,0,4.6,0,2c0-0.6,0.4-1,1-1h3c0-0.6,0.4-1,1-1h14c0.6,0,1,0.4,1,1h3c0.6,0,1,0.4,1,1
	C24,4.6,22.2,7.4,19.8,7.9z M4,3H2.1c0.3,1.1,1,2.2,1.9,2.7V3z M18,2H6v4c0,3.3,2.7,6,6,6s6-2.7,6-6V2z M20,3v2.7
	c0.9-0.5,1.6-1.6,1.9-2.7C21.9,3,20,3,20,3z M7,22h10c0.6,0,1,0.4,1,1s-0.4,1-1,1H7c-0.6,0-1-0.4-1-1S6.4,22,7,22z"/>
</svg>
