<svg xmlns="http://www.w3.org/2000/svg" width="29" height="29" viewBox="0 0 29 29">
    <g fill="none" fill-rule="evenodd" transform="translate(.161)">
        <ellipse cx="14.419" cy="14.5" fill="#E3E3E3" rx="14.419" ry="14.5"/>
        <path fill="#6E6E6E" fill-rule="nonzero" d="M15 8c-1.901 0-2.14.008-2.886.042-.745.034-1.254.152-1.7.326-.46.178-.85.418-1.24.807-.388.389-.628.78-.806 1.24-.174.445-.292.954-.326 1.699C8.008 12.86 8 13.099 8 15c0 1.901.008 2.14.042 2.886.034.745.152 1.254.326 1.7.178.46.418.85.807 1.24.389.388.78.628 1.24.807.445.173.954.29 1.699.325.747.034.985.042 2.886.042 1.901 0 2.14-.008 2.886-.042.745-.034 1.254-.152 1.7-.325.46-.18.85-.419 1.24-.808.388-.389.628-.78.807-1.24.173-.445.29-.954.325-1.699.034-.747.042-.985.042-2.886 0-1.901-.008-2.14-.042-2.886-.034-.745-.152-1.254-.325-1.7a3.432 3.432 0 0 0-.808-1.24c-.389-.388-.78-.628-1.24-.806-.445-.174-.954-.292-1.699-.326C17.14 8.008 16.901 8 15 8zm0 1.261c1.87 0 2.09.007 2.829.041.682.031 1.053.145 1.3.241.326.127.56.279.804.524.245.245.397.478.524.805.096.246.21.617.24 1.3.035.738.042.959.042 2.828 0 1.87-.007 2.09-.041 2.829-.031.682-.145 1.053-.241 1.3-.127.326-.279.56-.524.804a2.169 2.169 0 0 1-.805.524c-.246.096-.617.21-1.3.24-.737.035-.959.042-2.828.042-1.87 0-2.09-.007-2.829-.041-.682-.031-1.053-.145-1.3-.241a2.169 2.169 0 0 1-.804-.524 2.169 2.169 0 0 1-.524-.805c-.096-.246-.21-.617-.24-1.3-.035-.738-.042-.959-.042-2.828 0-1.87.007-2.09.041-2.829.031-.682.145-1.053.241-1.3.127-.326.279-.56.524-.804.245-.245.478-.397.805-.524.246-.096.617-.21 1.3-.24.738-.035.959-.042 2.828-.042zm0 2.144a3.595 3.595 0 1 0 0 7.19 3.595 3.595 0 0 0 0-7.19zm0 5.928a2.333 2.333 0 1 1 0-4.666 2.333 2.333 0 0 1 0 4.666zm4.577-6.07a.84.84 0 1 1-1.68 0 .84.84 0 0 1 1.68 0z"/>
    </g>
</svg>
