<svg xmlns="http://www.w3.org/2000/svg" width="24" height="24" viewBox="0 0 24 24">
    <path fill="#C74044" fill-rule="evenodd" d="M23.641 6.269l-3 2.5c-.049.039-.105.059-.157.089-.041.023-.077.052-.121.069a.995.995 0 0 1-.362.073H13v1h5.99c.553 0 1.01.457 1.01 1.01v4.98c0 .553-.457 1.01-1.01 1.01H13v6a1 1 0 1 1-2 0v-6H4h-.001a.995.995 0 0 1-.362-.073c-.044-.017-.08-.046-.121-.069-.052-.03-.108-.05-.157-.089l-3-2.5a1.005 1.005 0 0 1 0-1.538l3-2.5c.037-.03.082-.041.122-.065.059-.037.115-.074.182-.098.067-.024.134-.032.203-.041.046-.006.087-.027.134-.027h7V9H5.01C4.457 9 4 8.543 4 7.99V3.01C4 2.457 4.457 2 5.01 2H11V1a1 1 0 1 1 2 0v1h7c.047 0 .086.02.131.026.071.01.139.018.207.042.066.024.122.061.181.098.04.024.085.035.122.065l3 2.5a1.005 1.005 0 0 1 0 1.538zM4.363 12l-1.801 1.5L4.363 15H18v-3H4.363zm15.274-8H6v3h13.637l1.801-1.5L19.637 4z"/>
</svg>
