<?xml version="1.0" encoding="utf-8"?>
<!-- Generator: Adobe Illustrator 19.2.0, SVG Export Plug-In . SVG Version: 6.00 Build 0)  -->
<svg version="1.1" id="Capa_1" xmlns="http://www.w3.org/2000/svg" xmlns:xlink="http://www.w3.org/1999/xlink" x="0px" y="0px"
	 width="24px" height="24px" viewBox="0 0 24 24" style="enable-background:new 0 0 24 24;" xml:space="preserve">
<style type="text/css">
	.st0{fill:#6E6E6E;}
</style>
<path class="st0" d="M23.6,6.3l-3,2.5c0,0-0.1,0.1-0.2,0.1c0,0-0.1,0.1-0.1,0.1C20.2,9,20.1,9,20,9h-7v1h6c0.6,0,1,0.5,1,1v5
	c0,0.6-0.5,1-1,1h-6v6c0,0.6-0.4,1-1,1s-1-0.4-1-1v-6H4h0c-0.1,0-0.2,0-0.4-0.1c0,0-0.1,0-0.1-0.1c-0.1,0-0.1,0-0.2-0.1l-3-2.5
	c-0.4-0.4-0.5-1-0.1-1.4c0,0,0.1-0.1,0.1-0.1l3-2.5c0,0,0.1,0,0.1-0.1c0.1,0,0.1-0.1,0.2-0.1c0.1,0,0.1,0,0.2,0c0,0,0.1,0,0.1,0h7V9
	H5C4.5,9,4,8.5,4,8V3c0-0.6,0.5-1,1-1h6V1c0-0.6,0.4-1,1-1s1,0.4,1,1v1h7c0,0,0.1,0,0.1,0c0.1,0,0.1,0,0.2,0c0.1,0,0.1,0.1,0.2,0.1
	c0,0,0.1,0,0.1,0.1l3,2.5c0.4,0.4,0.5,1,0.1,1.4C23.7,6.2,23.7,6.2,23.6,6.3z M4.4,12l-1.8,1.5L4.4,15H18v-3H4.4z M19.6,4H6v3h13.6
	l1.8-1.5C21.4,5.5,19.6,4,19.6,4z"/>
</svg>
