<svg xmlns="http://www.w3.org/2000/svg" width="24" height="23" viewBox="0 0 24 23">
    <path fill="#C74044" fill-rule="evenodd" d="M24 12.177c0 1.799-.423 3.576-1.15 5.204-.018.061-.022.123-.053.181-.013.026-.042.036-.057.061-.977 2.075-2.466 3.885-4.339 5.097a1.005 1.005 0 0 1-1.384-.29.991.991 0 0 1 .293-1.376c1.341-.868 2.45-2.102 3.253-3.532l-1.054-.548a.993.993 0 0 1-.423-1.342 1.003 1.003 0 0 1 1.35-.42l.932.485c.306-.89.514-1.816.583-2.761H21c-.552 0-1-.444-1-.994s.448-.995 1-.995h.919a10.225 10.225 0 0 0-.886-3.074l-.752.432a1.001 1.001 0 0 1-1.366-.364.992.992 0 0 1 .366-1.359l.758-.435c-.7-.967-1.57-1.793-2.555-2.457l-.43.793a1.002 1.002 0 0 1-1.355.403.992.992 0 0 1-.405-1.347l.431-.793a9.707 9.707 0 0 0-2.727-.698v.943c0 .55-.448.995-1 .995s-1-.445-1-.995v-.943a9.752 9.752 0 0 0-3.119.87l.461.783a.992.992 0 0 1-.359 1.361 1 1 0 0 1-1.368-.357l-.452-.769a10.198 10.198 0 0 0-2.184 2.196l.783.45a.991.991 0 0 1 .365 1.359.998.998 0 0 1-1.365.364l-.795-.457c-.448.96-.753 2.002-.884 3.099H3c.552 0 1 .445 1 .995s-.448.994-1 .994h-.952c.08 1.099.343 2.173.737 3.186l.929-.54a1.004 1.004 0 0 1 1.368.356.993.993 0 0 1-.358 1.361l-1.051.611c.784 1.267 1.807 2.361 3.033 3.139.465.295.602.91.305 1.373a1.002 1.002 0 0 1-1.381.303c-1.791-1.136-3.223-2.766-4.198-4.663v-.001h-.001A12.893 12.893 0 0 1 0 12.177c0-.064.008-.125.009-.189 0-.016-.009-.03-.009-.046 0-.027.013-.05.016-.077a12.198 12.198 0 0 1 5.88-10.144c.029-.021.048-.052.08-.07.026-.016.056-.016.083-.029A11.765 11.765 0 0 1 11.997.008H12c1.955 0 3.787.498 5.416 1.345.057.018.117.022.172.052.042.023.068.06.106.088a12.158 12.158 0 0 1 4.551 4.393c.026.034.062.057.084.095.017.028.017.06.03.089a12.222 12.222 0 0 1 1.625 5.795c.003.027.016.05.016.077 0 .016-.009.03-.009.046.001.064.009.125.009.189zM12 9.953c.35 0 .675.098.961.256l3.524-2.103a1.003 1.003 0 0 1 1.372.341.99.99 0 0 1-.342 1.364l-3.518 2.099c0 .011.003.021.003.032a1.997 1.997 0 0 1-2 1.989c-1.103 0-2-.893-2-1.989 0-1.097.897-1.989 2-1.989z"/>
</svg>
