<svg xmlns="http://www.w3.org/2000/svg" width="30" height="30"><g fill="none" fill-rule="evenodd"><rect width="30" height="30" fill="#0CB318" rx="11"/><path fill="#FFF" fill-rule="nonzero" d="M19.725 18.376c-.2.544-.961.992-1.578 1.128-.424.088-.969.152-2.81-.608-2.075-.856-4.942-3.904-4.942-5.936 0-1.04.593-2.24 1.634-2.24.497 0 .609.008.777.4.192.464.656 1.608.713 1.728.224.48-.24.76-.577 1.184-.112.12-.232.256-.096.496.136.224.6.992 1.297 1.608.889.792 1.618 1.048 1.874 1.152.192.08.416.056.56-.096.177-.2.401-.52.625-.832.152-.232.36-.256.569-.176.136.048 1.962.888 2.042 1.024.056.096.056.56-.136 1.104M15.016 7.008h-.008c-4.42 0-8.008 3.584-8.008 8 0 1.744.56 3.368 1.522 4.688L7.52 22.664l3.075-.984A7.973 7.973 0 0 0 15 23c4.412 0 8-3.592 8-8 0-4.416-3.596-8-8.008-8"/></g></svg>