<svg xmlns="http://www.w3.org/2000/svg" width="30" height="30"><path fill="#0AA7E7" d="M11.02 23c7.155 0 11.065-6.146 11.065-11.473 0-.18 0-.35-.02-.53A8.115 8.115 0 0 0 24 8.904c-.711.319-1.47.538-2.238.628a4.075 4.075 0 0 0 1.707-2.235 7.735 7.735 0 0 1-2.475.978c-1.479-1.626-3.944-1.706-5.509-.18-1.014.978-1.441 2.445-1.128 3.852-3.13-.17-6.05-1.697-8.02-4.22-1.033 1.835-.511 4.19 1.205 5.377a3.817 3.817 0 0 1-1.773-.509v.05c0 1.916 1.307 3.562 3.121 3.94-.578.16-1.173.18-1.763.06.502 1.637 1.963 2.764 3.634 2.794a7.686 7.686 0 0 1-4.832 1.726c-.313-.01-.626-.02-.929-.06a10.807 10.807 0 0 0 5.964 1.806"/></svg>