<svg xmlns="http://www.w3.org/2000/svg" width="16" height="24" viewBox="0 0 16 24">
    <path fill="#C74044" fill-rule="evenodd" d="M12.288 14.742c-.155.147-.289.768-.29 1.179v4.961a.947.947 0 0 1-.013.159C11.82 22.064 10.774 24 7.999 24c-2.774 0-3.821-1.935-3.986-2.958a.95.95 0 0 1-.013-.16V15.92c0-.01.005-.017.005-.027 0-.009-.005-.017-.005-.026-.004-.4-.13-.959-.305-1.137C1.281 12.953 0 10.631 0 8.002 0 3.59 3.588 0 7.999 0 12.411 0 16 3.59 16 8.002c0 2.634-1.287 4.961-3.712 6.74zM8 22c1.585 0 1.936-.88 2-1.11v-1.863a7.704 7.704 0 0 1-1.879.24A8.764 8.764 0 0 1 6 19v1.886c.077.266.445 1.114 2 1.114zM7.999 2C4.691 2 2 4.694 2 8.007c0 2.526 1.613 4.217 2.967 5.191.02.015.03.037.049.053.019.016.042.021.06.038.88.847.924 2.304.924 2.587 0 .01-.005.018-.006.028.001.01.006.018.006.028v.696c.788.294 2.361.666 3.998-.003v-.693c0-.302.048-1.842.944-2.66.015-.014.034-.018.05-.03.016-.013.023-.032.04-.044C12.386 12.224 14 10.533 14 8.008 14 4.693 11.308 2 7.999 2z"/>
</svg>
