<svg xmlns="http://www.w3.org/2000/svg" width="29" height="29" viewBox="0 0 29 29">
    <g fill="none" fill-rule="evenodd">
        <ellipse cx="14.419" cy="14.5" fill="#E3E3E3" rx="14.419" ry="14.5"/>
        <path fill="#6E6E6E" fill-rule="nonzero" d="M20.828 10.906c-.442.21-.917.353-1.416.416.51-.326.9-.844 1.084-1.462a4.732 4.732 0 0 1-1.566.641 2.385 2.385 0 0 0-1.8-.834c-1.36 0-2.464 1.183-2.464 2.643 0 .208.022.409.064.602-2.049-.11-3.865-1.161-5.082-2.763a2.788 2.788 0 0 0-.333 1.33c0 .917.435 1.727 1.096 2.201a2.341 2.341 0 0 1-1.117-.33v.033c0 1.281.85 2.35 1.979 2.592a2.293 2.293 0 0 1-1.114.046c.314 1.05 1.224 1.815 2.303 1.835a4.738 4.738 0 0 1-3.65 1.096 6.651 6.651 0 0 0 3.779 1.187c4.535 0 7.014-4.028 7.014-7.522 0-.115-.002-.23-.006-.342.481-.373.9-.838 1.229-1.369"/>
    </g>
</svg>
