<svg xmlns="http://www.w3.org/2000/svg" width="24" height="17" viewBox="0 0 24 17">
    <path fill="#C74044" fill-rule="evenodd" d="M23.472 16.882a.998.998 0 0 1-1.027-.05L18 13.87V15c0 1.103-.898 2-2 2H2c-1.103 0-2-.897-2-2V2C0 .898.897 0 2 0h14c1.102 0 2 .898 2 2v1.132L22.445.168A1.002 1.002 0 0 1 24 1v15a1 1 0 0 1-.528.882zM22 2.869l-4.445 2.963c-.026.017-.056.02-.083.034a.932.932 0 0 1-.19.077.974.974 0 0 1-.192.04c-.031.002-.058.017-.09.017-.034 0-.062-.016-.095-.019a1.03 1.03 0 0 1-.37-.11.961.961 0 0 1-.299-.249c-.021-.025-.05-.039-.068-.067-.017-.026-.02-.056-.034-.083a.965.965 0 0 1-.076-.186.976.976 0 0 1-.04-.197C16.015 5.058 16 5.032 16 5V1.956H2V15h14v-3c0-.032.015-.058.018-.088a.962.962 0 0 1 .04-.197.915.915 0 0 1 .076-.186c.014-.027.017-.058.034-.084.018-.027.047-.042.068-.067a.941.941 0 0 1 .141-.142.955.955 0 0 1 .532-.217c.031-.003.059-.02.091-.02.031 0 .057.016.087.019.068.006.131.02.198.04.066.02.127.043.186.076.027.015.058.017.084.034L22 14.132V2.869z"/>
</svg>
