<svg xmlns="http://www.w3.org/2000/svg" width="29" height="29" viewBox="0 0 29 29">
    <g fill="none" fill-rule="evenodd" transform="translate(.108)">
        <ellipse cx="14.419" cy="14.5" fill="#E3E3E3" rx="14.419" ry="14.5"/>
        <path fill="#6E6E6E" fill-rule="nonzero" d="M13.414 16.834v-4.183l3.679 2.098-3.68 2.085zm8.079-4.908s-.133-1.026-.541-1.478c-.518-.593-1.099-.596-1.365-.63-1.906-.151-4.764-.151-4.764-.151h-.006s-2.859 0-4.764.15c-.267.035-.847.038-1.365.63-.408.453-.541 1.479-.541 1.479s-.136 1.205-.136 2.41v1.13c0 1.204.136 2.409.136 2.409s.133 1.026.54 1.478c.52.593 1.2.574 1.503.636 1.09.115 4.63.15 4.63.15s2.861-.005 4.767-.156c.266-.034.847-.037 1.365-.63.408-.452.54-1.478.54-1.478s.137-1.205.137-2.41v-1.13c0-1.204-.136-2.41-.136-2.41z"/>
    </g>
</svg>
