<svg id="Capa_1" data-name="Capa 1" xmlns="http://www.w3.org/2000/svg" viewBox="0 0 40 40"><defs><style>.cls-1,.cls-3{fill:none;stroke-linecap:round;}.cls-1{stroke:#393939;stroke-linejoin:round;}.cls-2{fill:#a72c2c;}.cls-3{stroke:#a72c2c;stroke-miterlimit:10;}</style></defs><title>130-moto-equipacion-carretera</title><path class="cls-1" d="M21.59,30.21a1.2,1.2,0,0,1,1.14-.68A2.46,2.46,0,0,1,25,31.4"/><path class="cls-1" d="M28.73,31.36s.64-2.68,3.33-1.17"/><path class="cls-1" d="M21.73,23.44c-.09,1.08-.15,1.93-.18,2.21a39,39,0,0,0-.1,4.1,43,43,0,0,0,.67,5.62A13.39,13.39,0,0,0,23.61,39c.18.22,1.11-.08,1.33-.21a7.82,7.82,0,0,0,.35-2.55c0-.66-.12-1.35-.07-2.16a7.37,7.37,0,0,0-.14-2.19,8,8,0,0,1-.33-2.79c.12-1,.53-2.44.81-3.64s1.24-3.91,1.29-4c0,.13,1,2.87,1.29,4s.68,2.65.81,3.64a8,8,0,0,1-.33,2.79,6.76,6.76,0,0,0-.14,2.19c.05.81-.08,1.5-.08,2.16a7.51,7.51,0,0,0,.36,2.55c.22.13,1.15.43,1.32.21a13.39,13.39,0,0,0,1.49-3.63,39.82,39.82,0,0,0,.67-5.62,39.07,39.07,0,0,0-.09-4.1c-.09-.89-.58-7.68-.9-9.2a8.18,8.18,0,0,1-.06-3.64c.21-1.23.74-3.65.74-3.65s1.79,2.35,1.88,2.63a6.08,6.08,0,0,1-.06,2,18.32,18.32,0,0,0,0,2.45c0,.62-.38,1.9-.41,2.18a.93.93,0,0,0,.62,1c.55.14,1.14,0,1.18-.21s1.51-4.84,1.47-6.61-2.63-7.71-3.69-8.68A4,4,0,0,0,31,3"/><line class="cls-1" x1="26.85" y1="5.74" x2="26.83" y2="19.01"/><path class="cls-1" d="M26.85,5.64c.12-1,1.18-1,1.66-1.71A2.38,2.38,0,0,0,29,2.57a2.69,2.69,0,0,0-2.11-1,2.62,2.62,0,0,0-2,1h0A2.42,2.42,0,0,0,25.3,4c.48.67,1.43.65,1.55,1.69"/><path class="cls-2" d="M28.79,6.49a.5.5,0,0,0-.21.47.52.52,0,0,0,.18.33.49.49,0,0,0,.35.11h0a.48.48,0,0,0,.42-.54.54.54,0,0,0-.18-.33A.51.51,0,0,0,29,6.41.57.57,0,0,0,28.79,6.49Z"/><line class="cls-3" x1="30.87" y1="6.75" x2="32.34" y2="6.5"/><line class="cls-1" x1="16.01" y1="19.15" x2="16.01" y2="8.81"/><path class="cls-1" d="M14,1.32a2.16,2.16,0,0,0,2,1.37,2.08,2.08,0,0,0,2-1.24l.53.68A2.8,2.8,0,0,1,16,3.9,2.58,2.58,0,0,1,13.46,2Z"/><path class="cls-1" d="M17.94,1.42l-.11-.22s0-.15-.29-.12A10.17,10.17,0,0,1,16,1.26a10.18,10.18,0,0,1-1.6-.18c-.24,0-.29.12-.29.12l-.1.2"/><path class="cls-1" d="M12.44,2.39A4.29,4.29,0,0,0,8.76,5.3a44.87,44.87,0,0,0-2.18,7.27,18.09,18.09,0,0,0,.83,5.24c.48,1.26,1.24,3.49,1.24,3.49A2.24,2.24,0,0,0,11,20a14.67,14.67,0,0,1-1.27-3.9A7.43,7.43,0,0,1,10,12c.35-1,.67-2.2.67-2.2s.44,4.31.48,5.64.07,2.94.07,2.94a12.32,12.32,0,0,0,4.82.76,11.54,11.54,0,0,0,4.73-.76s0-1.62.07-2.94.48-5.64.48-5.64.32,1.15.67,2.2a7.43,7.43,0,0,1,.24,4.05A14.67,14.67,0,0,1,20.91,20a2.24,2.24,0,0,0,2.33,1.33s.77-2.23,1.24-3.49a18.09,18.09,0,0,0,.83-5.24A43.83,43.83,0,0,0,23.13,5.3a4.27,4.27,0,0,0-3.64-2.9"/><line class="cls-1" x1="16.01" y1="5.82" x2="16.01" y2="3.93"/><path class="cls-2" d="M16,6.77a.48.48,0,0,0-.43.27.53.53,0,0,0,0,.37.46.46,0,0,0,.24.29h0a.48.48,0,0,0,.64-.23.52.52,0,0,0,0-.37.45.45,0,0,0-.24-.28A.46.46,0,0,0,16,6.77Z"/><path class="cls-1" d="M21.27,9.82S21.22,7,22,8.14s2.3,4.75,1.86,6S20.91,20,20.91,20"/><path class="cls-1" d="M10.57,10s0-2.87-.71-1.68S7.55,13,8,14.27s2.95,5.85,2.95,5.85"/><path class="cls-1" d="M10.94,3S13.3,13.6,13.65,14.06a9.75,9.75,0,0,0,1,1.09"/><path class="cls-1" d="M21.08,3S18.72,13.6,18.37,14.06a9.75,9.75,0,0,1-1,1.09"/></svg>