<?xml version="1.0" encoding="utf-8"?>
<svg version="1.1" id="Capa_1" xmlns="http://www.w3.org/2000/svg" xmlns:xlink="http://www.w3.org/1999/xlink" x="0px" y="0px"
	 viewBox="0 0 40 40" style="enable-background:new 0 0 40 40;" xml:space="preserve">
<style type="text/css">
	.st0{fill:#8C3030;}
	.st1{fill:#FFFFFF;}
	.st2{fill:none;stroke:#393939;stroke-width:0.8894;stroke-linecap:round;stroke-linejoin:round;stroke-miterlimit:10;}
	.st3{fill:none;stroke:#8C3030;stroke-width:1.092;stroke-linecap:round;stroke-linejoin:round;stroke-miterlimit:10;}
</style>
<g>
	<g>
		<path class="st0" d="M25.8,25.7L25.2,25c-0.2-0.2-0.3-0.5-0.3-0.8l0.1-1c0.1-0.6-0.4-1.2-1-1.4l-1-0.2c-0.3-0.1-0.5-0.2-0.7-0.5
			l-0.5-0.8c-0.3-0.6-1-0.8-1.6-0.5l-0.9,0.4c-0.3,0.1-0.6,0.1-0.8,0l-0.9-0.4c-0.6-0.3-1.3,0-1.6,0.5l-0.5,0.8
			c-0.1,0.3-0.4,0.4-0.7,0.5l-1,0.2c-0.6,0.1-1.1,0.7-1,1.4l0.1,1c0,0.3-0.1,0.6-0.3,0.8l-0.7,0.7c-0.4,0.5-0.4,1.2,0,1.7l0.7,0.7
			c0.2,0.2,0.3,0.5,0.3,0.8l-0.1,1c-0.1,0.6,0.4,1.2,1,1.4l1,0.2c0.3,0.1,0.5,0.2,0.7,0.5l0.5,0.8c0.2,0.4,0.6,0.6,1.1,0.6
			c0.2,0,0.4,0,0.5-0.1l0.9-0.4c0.3-0.1,0.6-0.1,0.8,0l0.9,0.4c0.6,0.3,1.3,0,1.6-0.5l0.5-0.8c0.1-0.3,0.4-0.4,0.7-0.5l1-0.2
			c0.6-0.1,1.1-0.7,1-1.4l-0.1-1c0-0.3,0.1-0.6,0.3-0.8l0.7-0.7C26.3,27,26.3,26.2,25.8,25.7z"/>
		<g>
			<g>
				<path class="st1" d="M14,25.1h0.5l2,2.8L16,27.5h0.3v-2.4h0.6v3.4h-0.5l-2-2.9l0.6,0.5h-0.3v2.4H14V25.1z"/>
				<path class="st1" d="M17.4,25.1h2.2v0.5H18v0.9h1.5V27H18v1h1.6v0.5h-2.2V25.1z"/>
				<path class="st1" d="M19.9,25.1h0.6l0.6,2.6h0l0.7-2.6h0.5l0.7,2.6h0l0.6-2.6h0.6l-0.9,3.4h-0.6L22.1,26h0l-0.7,2.4h-0.6
					L19.9,25.1z"/>
			</g>
		</g>
	</g>
	<g>
		<path class="st2" d="M24.8,26"/>
		<path class="st2" d="M34.4,13.8c1.2-0.1,2-0.1,2.1-0.1c0.4,0,0.6,0.4,1.4,0.4c0.8,0,1.4-0.3,1.4-0.5c0-0.3,0.5-0.7-0.6-1.1
			c-0.9-0.3-6.5-3-8.5-4c-1.4-0.8-3.1-1.2-4.8-1.2c-2.2,0-3.6,0.1-5,1"/>
		<path class="st2" d="M33.2,21c0,0-1.6-2.2-1.5-3.6c0.1-1.4,2.6-3.6,2.6-3.6"/>
		<path class="st2" d="M32.4,24.4c0,0-2.6,0.9-2.7,1.3c-0.1,0.4-0.3,1.9-0.3,2.2c0.1,0.3,0.6,0.5,0.6,0.5"/>
		<line class="st3" x1="23" y1="22.4" x2="24" y2="23.2"/>
		<path class="st2" d="M22.5,13.3c0.6,0,4.7-0.2,5.5-0.2c0.8,0,1.6,1.1,1.6,1.1L32,14c0,0,0-0.9,0.4-1.1c0.4-0.2,3.7-0.4,3.7-0.4"/>
		<path class="st2" d="M28.6,8.9c0,0,2.9,1.4,2.8,1.4s-9.3,1-9.3,1"/>
		<path class="st2" d="M26.7,27.5c0.8,0.7,2.1,1.7,3.3,1.9c1.2,0.3,1-0.5,1.5-1.5c0.5-0.9,2.2-3.1,2.3-4.3c0.1-1.2-0.2-2.5-0.5-2.7
			c-0.3-0.2-1.4,0-1.9,0.8c-0.5,0.8-2.8,0.8-3.5,0.6c-0.8-0.2-0.4-0.7-1.1-1c-0.6-0.3-4-2.6-4.2-3.4c-0.2-0.8,0.5-3,1.2-3.2
			c0.7-0.2,12.3-1.1,12.7-1c0.4,0,0.6,0.4,1.4,0.4c0.8,0,1.3-0.3,1.4-0.5c0,0,0.5-0.7-0.6-1.1c-1.1-0.4-9.2-4.4-9.2-4.4"/>
	</g>
	<g>
		<path class="st2" d="M11.1,27.4c0,0-5.4,2.8-6.3,2.9c-0.9,0.1-1.3-0.6-1.4-0.8C3.3,29.2,3.2,29,3.2,29S2,27.8,1.8,27.2
			s-0.5-1.2-0.6-1.5c-0.1-0.3-0.3-1.1-0.3-1.1"/>
		<path class="st2" d="M1.2,14.8c0,0,0.1-1.2,0.4-2C1.9,12,4.3,7.6,9.4,7.1s9.3,1.7,10.1,2.1c0.7,0.4,0.4,1.7,0.4,1.7
			s0.8,2.1,0.8,3.8c0,0.9-0.2,2.2-0.4,3.3L20,19.3"/>
		<path class="st2" d="M0.7,15.6c0,0,0.1-0.2,0.3-0.2s5.9,0.3,8.2,0.1s5.6-1.1,6.5-1.1s1.8,0.4,1.8,1.2c0,0.8-0.9,3.3-3.1,4.7
			c-2.1,1.4-6.1,2.8-7.6,3.4c-1.6,0.6-3.6,1-4.5,1c-0.9,0-1.4-0.2-1.4-0.2S0.3,18.6,0.7,15.6z"/>
		<path class="st2" d="M4.5,12.9c0,0,1.4-1.5,2.7-2.1C8.5,10.1,9,10,9.1,10.1c0.1,0.1-1,1.7-1.7,2.1c-0.7,0.3-1.9,0.5-2.3,0.7
			C4.7,13.1,4.5,12.9,4.5,12.9z"/>
		<path class="st2" d="M17.2,8.2c0,0,1.3,0.9,1.2,2s-0.6,1.8-0.2,1.9c0.4,0.2,1-0.1,1.3-0.3c0.3-0.2,0.4-1,0.4-1"/>
		<path class="st0" d="M15.5,15.5c-0.3,0-0.5,0.3-0.5,0.6c0,0.4,0.2,0.6,0.5,0.6s0.5-0.3,0.5-0.6C16,15.8,15.8,15.5,15.5,15.5z"/>
	</g>
</g>
</svg>
