<svg id="Capa_1" data-name="Capa 1" xmlns="http://www.w3.org/2000/svg" viewBox="0 0 40 40"><defs><style>.cls-1,.cls-2,.cls-3{fill:none;stroke-linecap:round;}.cls-1,.cls-3{stroke:#363636;}.cls-1,.cls-2{stroke-miterlimit:10;}.cls-2{stroke:#a72c2c;}.cls-3{stroke-linejoin:round;}</style></defs><title>72-bici-bicicletas-MTB</title><polyline class="cls-1" points="8.64 23.69 13.95 9.79 11.76 9"/><line class="cls-1" x1="20.94" y1="24.69" x2="26.48" y2="10.37"/><line class="cls-2" x1="28.82" y1="10.37" x2="23.88" y2="10.37"/><ellipse class="cls-1" cx="20.97" cy="24.67" rx="1.77" ry="1.79"/><polyline class="cls-3" points="18.89 21.49 13.01 12.41 13.53 11.32 24.35 16.27 31.98 23.7 25.03 24.28"/><path class="cls-1" d="M10.05,15.75l-.38-.07L9.59,16a7.52,7.52,0,0,0-1.17-.06l0-.32H8V16a7,7,0,0,0-1.21.2l-.11-.3L6.29,16l.07.32a6.94,6.94,0,0,0-1.09.45l-.17-.27-.34.19.13.29a7,7,0,0,0-1,.72l-.23-.22-.29.26.19.25a8.28,8.28,0,0,0-.78.89l-.27-.17L2.3,19l.24.21a7.09,7.09,0,0,0-.6,1.08l-.3-.1c0,.12-.1.24-.14.37l.28.14a6.43,6.43,0,0,0-.32,1.14l-.32,0c0,.13,0,.26-.07.39l.31.07a7.31,7.31,0,0,0-.07,1.24l-.31,0v.19A1.36,1.36,0,0,1,1,24h.32a7.45,7.45,0,0,0,.19,1.18l-.3.11.12.37.31-.06a6.73,6.73,0,0,0,.46,1.15l-.26.17a3.72,3.72,0,0,0,.19.34l.28-.13a8.05,8.05,0,0,0,.68,1l-.22.23c.09.1.17.2.26.29l.25-.19a7.26,7.26,0,0,0,.92.83l-.17.27a3.62,3.62,0,0,0,.32.22l.2-.24a7.94,7.94,0,0,0,1,.57l-.1.31.36.15L6,30.2a6.67,6.67,0,0,0,1.18.34l0,.32a2.32,2.32,0,0,0,.38.07l.07-.31a7.71,7.71,0,0,0,1.18.06l0,.32H9l.16,0v-.32a8,8,0,0,0,1.21-.2l.11.3.37-.12-.07-.31a8,8,0,0,0,1.09-.45l.17.27.34-.2-.13-.29a7,7,0,0,0,1-.72l.23.22.29-.25-.2-.26a6,6,0,0,0,.78-.89l.28.17.22-.32-.25-.2a7.71,7.71,0,0,0,.6-1.09l.3.1.15-.36-.28-.15a8.32,8.32,0,0,0,.32-1.14l.31,0c0-.13.06-.25.08-.38l-.31-.08a8.45,8.45,0,0,0,.06-1.24l.31,0a1.34,1.34,0,0,0,0-.2,1.36,1.36,0,0,0,0-.2h-.32a6.49,6.49,0,0,0-.19-1.17l.3-.11c0-.13-.07-.25-.11-.38l-.31.07a7.29,7.29,0,0,0-.47-1.15l.27-.18-.19-.34-.29.13a7.23,7.23,0,0,0-.68-1l.22-.23-.25-.3-.26.2a6.5,6.5,0,0,0-.91-.83l.16-.28a3.62,3.62,0,0,0-.32-.22l-.11.31.27.19"/><line class="cls-1" x1="13.89" y1="18.24" x2="14.18" y2="18.57"/><line class="cls-1" x1="14.86" y1="19.53" x2="15.07" y2="19.92"/><line class="cls-1" x1="15.54" y1="21.07" x2="15.66" y2="21.49"/><line class="cls-1" x1="15.85" y1="22.66" x2="15.88" y2="23.1"/><line class="cls-1" x1="15.82" y1="24.34" x2="15.74" y2="24.77"/><line class="cls-1" x1="15.42" y1="25.91" x2="15.25" y2="26.32"/><line class="cls-1" x1="14.65" y1="27.4" x2="14.4" y2="27.76"/><line class="cls-1" x1="13.62" y1="28.65" x2="13.3" y2="28.94"/><line class="cls-1" x1="12.3" y1="29.66" x2="11.92" y2="29.88"/><line class="cls-1" x1="4.57" y1="29.46" x2="4.22" y2="29.21"/><line class="cls-1" x1="3.3" y1="28.38" x2="3.01" y2="28.05"/><line class="cls-1" x1="2.33" y1="27.08" x2="2.12" y2="26.7"/><line class="cls-1" x1="1.66" y1="25.55" x2="1.53" y2="25.13"/><line class="cls-1" x1="1.34" y1="23.95" x2="1.31" y2="23.52"/><line class="cls-1" x1="1.38" y1="22.27" x2="1.46" y2="21.84"/><line class="cls-1" x1="1.78" y1="20.7" x2="1.94" y2="20.29"/><line class="cls-1" x1="2.54" y1="19.21" x2="2.79" y2="18.85"/><line class="cls-1" x1="3.57" y1="17.96" x2="3.9" y2="17.67"/><line class="cls-1" x1="4.89" y1="16.95" x2="5.27" y2="16.74"/><line class="cls-1" x1="6.36" y1="16.29" x2="6.77" y2="16.16"/><line class="cls-1" x1="7.98" y1="15.96" x2="8.42" y2="15.93"/><path class="cls-1" d="M9.59,16l.35.07.11-.31-.38-.07L9.59,16a7.52,7.52,0,0,0-1.17-.06l0-.32H8V16a7,7,0,0,0-1.21.2l-.11-.3L6.29,16l.07.32a6.94,6.94,0,0,0-1.09.45l-.17-.27-.34.19.13.29a7,7,0,0,0-1,.72l-.23-.22-.29.26.19.25a8.28,8.28,0,0,0-.78.89l-.27-.17L2.3,19l.24.21a7.09,7.09,0,0,0-.6,1.08l-.3-.1c0,.12-.1.24-.14.37l.28.14a6.43,6.43,0,0,0-.32,1.14l-.32,0c0,.13,0,.26-.07.39l.31.07a7.31,7.31,0,0,0-.07,1.24l-.31,0v.19A1.36,1.36,0,0,1,1,24h.32a7.45,7.45,0,0,0,.19,1.18l-.3.11.12.37.31-.06a6.73,6.73,0,0,0,.46,1.15l-.26.17a3.72,3.72,0,0,0,.19.34l.28-.13a8.05,8.05,0,0,0,.68,1l-.22.23c.09.1.17.2.26.29l.25-.19a7.26,7.26,0,0,0,.92.83l-.17.27a3.62,3.62,0,0,0,.32.22l.2-.24a7.94,7.94,0,0,0,1,.57l-.1.31.35.15L6,30.2a6.67,6.67,0,0,0,1.18.34l0,.32a2.32,2.32,0,0,0,.38.07l.07-.31a7.71,7.71,0,0,0,1.18.06l0,.32H9l.16,0v-.32a8,8,0,0,0,1.21-.2l.11.3.37-.12-.07-.31a8,8,0,0,0,1.09-.45l.17.27.34-.2-.13-.29a7,7,0,0,0,1-.72l.23.22.29-.25-.2-.26a6,6,0,0,0,.78-.89l.28.17.22-.32-.25-.2a7.71,7.71,0,0,0,.6-1.09l.3.1.15-.36-.28-.15a8.32,8.32,0,0,0,.32-1.14l.31,0c0-.13.06-.25.08-.38l-.31-.08a8.45,8.45,0,0,0,.06-1.24l.31,0a1.34,1.34,0,0,0,0-.2,1.36,1.36,0,0,0,0-.2h-.32a6.49,6.49,0,0,0-.19-1.17l.3-.11c0-.13-.07-.25-.11-.38l-.31.07a7.29,7.29,0,0,0-.47-1.15l.27-.18-.19-.34-.29.13a7.23,7.23,0,0,0-.68-1l.22-.23-.25-.3-.26.2a6.5,6.5,0,0,0-.91-.83l.16-.28"/><path class="cls-1" d="M27.55,17.05a7.53,7.53,0,0,1,1.09-.57l-.09-.31.36-.13.14.29a7.54,7.54,0,0,1,1.13-.3l0-.32.39-.05.06.31a7.22,7.22,0,0,1,1.23,0l.05-.32.39,0V16a6.69,6.69,0,0,1,1.15.23l.12-.29.19.05.18.07-.08.31a7.18,7.18,0,0,1,1.13.5l.18-.26.33.2-.15.29a6.68,6.68,0,0,1,.94.72l.24-.22.28.27-.2.25a6.46,6.46,0,0,1,.78.95l.28-.16.22.33-.25.2a7.94,7.94,0,0,1,.53,1l.31-.09c0,.12.09.24.13.37l-.29.13a7.16,7.16,0,0,1,.31,1.21l.32,0c0,.13,0,.25,0,.39l-.31.06a7.85,7.85,0,0,1,0,1.19l.31.05c0,.13,0,.26,0,.39h-.31a9.12,9.12,0,0,1-.25,1.22l.29.12a1.24,1.24,0,0,1,0,.16,1.8,1.8,0,0,1-.08.21l-.31-.08a7.62,7.62,0,0,1-.47,1.09l.26.18a3.79,3.79,0,0,1-.2.34l-.29-.14a7.89,7.89,0,0,1-.73,1l.21.24-.27.28-.24-.2a7.24,7.24,0,0,1-.9.76l.15.28-.32.22-.19-.25a6.6,6.6,0,0,1-1.09.56l.09.31-.37.14-.13-.3a6.38,6.38,0,0,1-1.14.3l0,.32-.38.06-.07-.32a6.2,6.2,0,0,1-1.22,0l0,.32c-.13,0-.26,0-.39,0v-.32a7.58,7.58,0,0,1-1.15-.24l-.12.3-.19-.05-.18-.07.07-.31a7.11,7.11,0,0,1-1.12-.51l-.18.27-.33-.21.14-.29a7.24,7.24,0,0,1-.94-.71l-.23.21a3.5,3.5,0,0,1-.28-.27l.2-.24a8.06,8.06,0,0,1-.79-1l-.27.16L25,27.4l.25-.2a9.59,9.59,0,0,1-.54-1.06l-.3.09c-.05-.12-.09-.24-.13-.36l.33-.05s.05.17.1.31"/><path class="cls-1" d="M25.06,19.69l.14-.25L25,19.23c-.07.11-.14.22-.2.33l.26.18a8.18,8.18,0,0,0-.48,1.09l-.31-.08c0,.08,0,.14-.07.21l-.05.17.3.12a7.34,7.34,0,0,0-.25,1.22h-.32c0,.13,0,.26,0,.39l.31,0s0-.13,0-.43"/><line class="cls-1" x1="28.64" y1="16.48" x2="29.05" y2="16.33"/><line class="cls-1" x1="30.18" y1="16.03" x2="30.61" y2="15.97"/><line class="cls-1" x1="31.84" y1="15.94" x2="32.27" y2="15.97"/><line class="cls-1" x1="33.42" y1="16.21" x2="33.83" y2="16.35"/><line class="cls-1" x1="34.96" y1="16.85" x2="35.33" y2="17.08"/><line class="cls-1" x1="36.26" y1="17.8" x2="36.58" y2="18.1"/><line class="cls-1" x1="36.84" y1="28.24" x2="36.54" y2="28.56"/><line class="cls-1" x1="35.64" y1="29.32" x2="35.28" y2="29.56"/><line class="cls-1" x1="27.87" y1="29.76" x2="27.5" y2="29.53"/><line class="cls-1" x1="26.56" y1="28.82" x2="26.25" y2="28.52"/><line class="cls-1" x1="25.46" y1="27.56" x2="25.22" y2="27.2"/><line class="cls-1" x1="24.42" y1="21.25" x2="24.55" y2="20.83"/><path class="cls-1" d="M24.38,26.23l.3-.09a9.59,9.59,0,0,0,.54,1.06l-.25.2.22.32.27-.16a8.06,8.06,0,0,0,.79,1l-.2.24a3.5,3.5,0,0,0,.28.27l.23-.21a7.24,7.24,0,0,0,.94.71l-.14.29.33.21.18-.27a7.11,7.11,0,0,0,1.12.51l-.07.31.18.07.19.05.12-.3a7.58,7.58,0,0,0,1.15.24V31c.13,0,.26,0,.39,0l0-.32a6.2,6.2,0,0,0,1.22,0l.07.32.39-.06,0-.32a6.38,6.38,0,0,0,1.14-.3l.13.3.37-.14-.09-.31a6.6,6.6,0,0,0,1.09-.56l.19.25.32-.22-.15-.28a7.24,7.24,0,0,0,.9-.76l.24.2.27-.29-.21-.23a7.89,7.89,0,0,0,.73-1l.29.14a3.79,3.79,0,0,0,.2-.34l-.26-.18a7.62,7.62,0,0,0,.47-1.09l.31.08a1.8,1.8,0,0,0,.08-.21,1.24,1.24,0,0,0,0-.16l-.29-.12a7.78,7.78,0,0,0,.25-1.22H39c0-.13,0-.26,0-.39l-.31-.05a7.85,7.85,0,0,0,0-1.19l.31-.06c0-.14,0-.26,0-.39l-.32,0a7.16,7.16,0,0,0-.31-1.21l.29-.13c0-.12-.08-.25-.13-.37l-.31.09a7.94,7.94,0,0,0-.53-1l.25-.2-.22-.33-.28.16a6.46,6.46,0,0,0-.78-.95l.2-.25-.28-.27-.24.22a6.68,6.68,0,0,0-.94-.72l.15-.29-.33-.2-.18.26a7.18,7.18,0,0,0-1.13-.5l.08-.31L33.73,16l-.19-.05-.12.29A6.69,6.69,0,0,0,32.27,16v-.33l-.39,0-.05.32a7.22,7.22,0,0,0-1.23,0l-.06-.31-.39.05,0,.32a7.54,7.54,0,0,0-1.13.3L28.91,16l-.36.13.09.31a7.53,7.53,0,0,0-1.09.57l-.2-.26-.1.09.21.24.06-.05"/><path class="cls-1" d="M25,19.74a8.18,8.18,0,0,0-.48,1.09l-.3-.08a2,2,0,0,0-.08.22c0,.05,0,.1-.05.16l.3.12a7.34,7.34,0,0,0-.25,1.22h-.32"/></svg>