<svg height="40" width="60" xmlns="http://www.w3.org/2000/svg"><g fill="none" fill-rule="evenodd" transform="translate(4 6)"><g stroke="#363636" stroke-linecap="round" stroke-linejoin="round"><path d="m18.82 14.27s-4.953-8.352-5.673-8.87c-.979-.691-4.637 0-4.637 0"/><path d="m13.392 0a33.321 33.321 0 0 0 -3.96 3.989c-1.714 2.117-5.112 7.128-4.133 7.877.98.748 5.199 1.44 7.416 3.556a10.08 10.08 0 0 1 2.722 6.005c0 1.599-1.944 3.47-.936 3.485l13.694.158c4.752 0 18.504-3.01 21.24-3.6a.95.95 0 0 0 .62-.432l1.44-3.21s.273-.433-.332-.26c-3.197.893-18.72 5.17-22.435 5.126a22.867 22.867 0 0 1 -3.485-.158c-1.973-.403-4.795-5.256-4.795-5.256"/><path d="m51.38 15.322c-.476.49-10.225 2.39-10.988 2.376-.763-.015-4.09-3.701-4.09-5.184 0-1.484 3.125-3.903 4.32-3.888 1.196.014 7.33 1.224 7.95 1.9.618.677 3.268 4.292 2.807 4.796zm-15.927-4.133s-3.975 1.051-5.76 1.44c-2.103.46-2.88-6.826-6.941-6.869a32.818 32.818 0 0 0 -7.992 1.67m11.16 6.264c-2.491-2.462-5.53-1.828-8.251-1.281"/><path d="m48.96 10.685a12.01 12.01 0 0 0 2.88-.605 31.349 31.349 0 0 0 -.994-7.344c-.36-.475-5.572 0-5.572 0a2.966 2.966 0 0 0 -2.52 2.088 22.075 22.075 0 0 0 -.836 3.816m-30.628 13.334a4.968 4.968 0 0 0 -4.767-5.083 4.838 4.838 0 0 0 -4.78 4.983 4.982 4.982 0 0 0 4.78 5.083 4.838 4.838 0 0 0 4.767-4.983z"/><path d="m7.07 15.077h-.547a6.624 6.624 0 0 0 -6.523 6.768 6.811 6.811 0 0 0 6.523 6.955 6.336 6.336 0 0 0 5.501-3.154m26.064.605a6.365 6.365 0 0 0 11.275-2.304"/><path d="m39.974 25.171a4.32 4.32 0 0 0 7.2-1.44"/></g><path d="m8.712 7.978a.691.691 0 0 0 -.389.648.749.749 0 0 0 .202.504.734.734 0 0 0 .504.216.72.72 0 0 0 .705-.72.677.677 0 0 0 -.216-.504.648.648 0 0 0 -.49-.216.864.864 0 0 0 -.316.072z" fill="#a72c2c" fill-rule="nonzero"/></g></svg>