<?xml version="1.0" encoding="utf-8"?>
<!-- Generator: Adobe Illustrator 19.2.0, SVG Export Plug-In . SVG Version: 6.00 Build 0)  -->
<svg version="1.1" id="Capa_1" xmlns="http://www.w3.org/2000/svg" xmlns:xlink="http://www.w3.org/1999/xlink" x="0px" y="0px"
	 width="6px" height="10px" viewBox="0 0 6 10" style="enable-background:new 0 0 6 10;" xml:space="preserve">
<style type="text/css">
	.st0{fill:#FFFFFF;}
</style>
<path class="st0" d="M5.6,4.8c0,0.1,0,0.1-0.1,0.2L1,9.5C1,9.6,0.9,9.6,0.8,9.6c-0.1,0-0.2,0-0.2-0.1L0.1,9C0,9,0,8.9,0,8.8
	c0-0.1,0-0.2,0.1-0.2l3.8-3.8L0.1,1C0,1,0,0.9,0,0.8c0-0.1,0-0.2,0.1-0.2l0.5-0.5C0.6,0,0.7,0,0.8,0C0.9,0,1,0,1,0.1l4.5,4.5
	C5.6,4.6,5.6,4.7,5.6,4.8z"/>
</svg>
