<svg height="25" viewBox="0 0 52 25" width="52" xmlns="http://www.w3.org/2000/svg"><g fill="none"><rect fill="#ffb3c7" height="25" rx="4.167" width="52"/><g fill="#000" transform="translate(6.303 7.712)"><path d="m35.337536 3.0826065c-1.3418608-.90563346-3.1545085-.6803199-4.2288231.52564609-1.0743146 1.205966-1.0743146 3.01543025 0 4.22139625 1.0743146 1.20596599 2.8869623 1.43127955 4.2288231.52564609v.38628509h1.82754v-6.04567065h-1.82754zm-1.662128 4.19186275c-.8564785-.04511216-1.5185125-.76163665-1.4881375-1.61062256.0303751-.84898591.7419558-1.51729697 1.5995098-1.50224715.8575541.01504982 1.5447757.70790961 1.5447757 1.55742843-.0243462.88220476-.7654232 1.57821846-1.656148 1.55544128z"/><path d="m8.363.002h1.913v8.74h-1.913z"/><path d="m27.057576 2.5332576c-.7294287-.04269985-1.4333639.27284485-1.8824.84380114v-.68084034h-1.82v6.04546462h1.841892v-3.17711758c-.0286354-.36929902.1062868-.73267781.3696681-.99560699.2633814-.26292918.6291839-.39941569 1.0022479-.37395391.803244 0 1.2649.47528517 1.2649 1.35704526v3.18963322h1.825564v-3.84461821c0-1.4070048-1.129492-2.36380721-2.601872-2.36380721zm-11.000184.5493489c-1.3418608-.90563346-3.1545085-.6803199-4.2288231.52564609-1.0743146 1.205966-1.0743146 3.01543025 0 4.22139625 1.0743146 1.20596599 2.8869623 1.43127955 4.2288231.52564609v.38628509h1.82754v-6.04567065h-1.82754zm-1.66218 4.19186275c-.8565129-.04500129-1.5186526-.76148304-1.4883503-1.61049969.0303024-.84901665.7418695-1.51739884 1.5994526-1.50238205.8575831.0150168 1.5448377.70789347 1.5448377 1.55744046-.0243184.88215538-.7653163 1.57816035-1.655992 1.55544128zm6.316856-3.79105334v-.78745503h-1.871116v6.04577365h1.87512v-2.82245637c0-.95237301 1.042184-1.464278 1.765348-1.464278.00728 0 .014352.00072106.021684.00077257v-1.75945132c-.6862343-.01824431-1.3442031.27090878-1.791036.7870945zm18.393284 3.11392133c-.6335014.00002845-1.147016.50870901-1.147016 1.13617604s.5135839 1.13610736 1.1470853 1.13610736 1.1470507-.50867466 1.1470507-1.13614169c.0000276-.30134082-.1208221-.59034659-.3359564-.80342189-.2151342-.2130753-.5069248-.3327608-.8111636-.33271982zm-32.06086-6.59733724h-1.982084c.00622071 1.59668035-.75463652 3.10110812-2.049424 4.05228508l-.7852.58251791 3.042676 4.10966129h2.501512l-2.799524-3.78147348c1.33364322-1.31286311 2.08002962-3.100619 2.072044-4.9629908z"/><path d="m0 0h1.986v8.744h-1.986z"/></g></g></svg>