<?xml version="1.0" encoding="UTF-8"?>
<svg version="1.1" xmlns="http://www.w3.org/2000/svg" xmlns:xlink="http://www.w3.org/1999/xlink">
<defs>

</defs>
<symbol xmlns="http://www.w3.org/2000/svg" id="i-icon-motocoin" height="20" width="20"><g fill="none" fill-rule="evenodd"><circle cx="10" cy="10" fill="#ffc73c" r="9.4" stroke="#ce9300" stroke-width="1.2"/><path d="M15.298 5.745l-2.976 8.045-2.854.069.913-3.067-.977.45-.434-.452-1.155 2.968-3.174.105 2.256-6.317-1.973-1.772 5.654-.025-.483 1.975 1.683-1.922z" fill="#fff" stroke="#000" stroke-width=".5"/></g></symbol>
<symbol id="i-2h-close" width="16" height="17" xmlns="http://www.w3.org/2000/svg"><path d="M8 1.5a7 7 0 100 14 7 7 0 000-14zm2.1 4.9l-4.2 4.2m0-4.2l4.2 4.2"/></symbol>
<symbol id="i-2h-package" xmlns="http://www.w3.org/2000/svg" width="34" height="24"><g fill="none" fill-rule="evenodd" stroke-linecap="round"><path d="M27.93 9.228l-9.139-5.432m-8.144 5.525H1.508m9.139 3.14H3.539m7.108 3.14H6.585m25.915.535V7.763l-.01-.01c-.01-.754-.396-1.445-1.026-1.811l-7.108-4.187a1.99 1.99 0 00-2.031-.01L15.217 5.93v-.01A2.083 2.083 0 0014.2 7.73v8.374a2.08 2.08 0 001.016 1.8l7.108 4.186-.01-.01c.62.366 1.401.366 2.03 0l7.11-4.187v-.01a2.127 2.127 0 001.004-1.821l.041.073z"/><path d="M14.496 6.674l8.865 5.286 8.865-5.286M23.361 22.5V11.949"/></g></symbol>
<symbol id="i-account-address" height="19" width="19" xmlns="http://www.w3.org/2000/svg"><path d="M15.34 8.67c0 4.41-5.67 8.19-5.67 8.19S4 13.08 4 8.67a5.67 5.67 0 0111.34 0z"/><path d="M11.006 7.334a1.89 1.89 0 11-2.672 2.672 1.89 1.89 0 012.672-2.672"/></symbol>
<symbol id="i-account-club-my-motocard" height="11" width="19" xmlns="http://www.w3.org/2000/svg"><mask id="a" fill="#fff"><path d="M0 0h15.323v11H0z" fill-rule="evenodd"/></mask><path d="M15.258 4.374l-.063.469c-.03.216-.12.366-.271.45.096.045.148.132.158.26a.731.731 0 01-.006.158l-.063.47c-.063.457-.315.703-.758.737l-.704.053.432-3.182.73-.056c.346-.025.53.112.554.41.005.07.002.146-.01.23zm-2.796 2.73c-.375.028-.575-.112-.599-.418a1.046 1.046 0 01.009-.22l.345-2.545.529-.04-.346 2.546a.288.288 0 00-.003.063c.006.076.05.11.134.105.105-.008.165-.072.181-.192l.346-2.545.528-.04-.346 2.545c-.062.458-.321.705-.778.74zm-.93.019l-1.243.094.431-3.183.529-.04-.363 2.676.715-.054zm-1.263-2.424l-.06.451-.529.04.061-.451a.284.284 0 00.003-.064c-.005-.075-.05-.11-.134-.104h-.003c-.102.008-.162.071-.178.191l-.26 1.908a.282.282 0 00-.003.063c.006.076.051.111.135.105.104-.008.165-.072.181-.192l.06-.451.529-.04-.06.451c-.063.458-.323.705-.78.74-.375.029-.574-.11-.598-.417a1.045 1.045 0 01.008-.22l.26-1.907c.062-.458.321-.704.777-.738.376-.029.576.11.6.417a1.06 1.06 0 01-.009.218zm8.342-1.642L5.722 4.087a.358.358 0 00-.326.3l-.489 3.149a.357.357 0 00.385.407l12.89-1.03a.358.358 0 00.326-.3l.488-3.149a.357.357 0 00-.385-.407z"/><path d="M14.866 4.278l-.268.01-.19.698.173-.007c.098-.003.161-.008.191-.015.12-.026.19-.076.211-.149l.107-.394a.12.12 0 00.006-.053c-.01-.065-.087-.095-.23-.09M14.65 5.41a1.12 1.12 0 00-.186-.002l-.173.006-.193.698.268-.01c.177-.006.28-.06.307-.16l.107-.396a.115.115 0 00.004-.048c-.008-.045-.052-.075-.134-.088"/><path d="M10.64 7.92l-1.25 2.234a.088.088 0 01-.077.045H6.106a.088.088 0 01-.077-.046.095.095 0 010-.092l1.023-1.839-1.727.146-.999 1.786a.088.088 0 01-.077.045H.856a.088.088 0 01-.077-.046.096.096 0 010-.092L4.564 3.3 1.01 1.454c-.022-.011-.038-.032-.045-.057s-.004-.05.009-.073l.274-.477A.09.09 0 011.324.8H9.36c.032 0 .061.017.077.046a.095.095 0 010 .092L8.147 3.11l.311-.026L10.592.828a.088.088 0 01.063-.027h3.811a.09.09 0 01.078.046.097.097 0 01-.001.094l-.957 1.71.933-.079.68-1.215a.93.93 0 00.014-.901L15.21.448A.853.853 0 0014.466 0h-3.81a.834.834 0 00-.61.266l-.04.042A.843.843 0 009.36 0H1.324a.856.856 0 00-.73.427L.314.91a.928.928 0 00-.09.707c.066.24.226.44.442.553l2.821 1.467L.116 9.659a.927.927 0 00-.001.895.852.852 0 00.74.446H4.25c.303 0 .587-.17.74-.443l.26-.465c-.003.16.036.32.114.46a.852.852 0 00.743.448h3.207a.855.855 0 00.74-.443l.521-.932.998-1.785z" mask="url(#a)"/></symbol>
<symbol id="i-account-data" xmlns="http://www.w3.org/2000/svg" width="19" height="19"><path d="M3.364 15A1.37 1.37 0 012 13.625v-8.25C2 4.615 2.61 4 3.364 4h12.272A1.37 1.37 0 0117 5.375v8.25c0 .76-.61 1.375-1.364 1.375H3.364zM5 8.2h8.5M5 11.3h4"/></symbol>
<symbol id="i-account-equipment" height="17" width="17" xmlns="http://www.w3.org/2000/svg"><g fill="none" fill-rule="evenodd"><path d="M12.26 13.713a.047.047 0 00-.044.027.05.05 0 000 .038.048.048 0 00.025.03.05.05 0 00.069-.061.049.049 0 00-.05-.034z" fill="#a72c2c" fill-rule="nonzero"/><path d="M15.696 12.25c-3.808-.972-4.934-1.692-6.237-2.43-1.304-.737-1.972-1.843-1.612-3.17s1.603-1.258 2.403-.998a34.08 34.08 0 003.656.842c.514.085 1.033.136 1.553.151h.33c.31 1.858.278 3.759-.093 5.605z" stroke="#000" stroke-linecap="round" stroke-linejoin="round"/><path d="M9.979 6.25a.75.75 0 10.771.75.76.76 0 00-.771-.75z" stroke="#000" stroke-linecap="round" stroke-linejoin="round"/><path d="M13.75 14.473l1.5.078" stroke="#000" stroke-linecap="round"/><path d="M3.277 2.467a.048.048 0 00-.05.013.05.05 0 00-.014.035.051.051 0 00.015.032.05.05 0 00.07 0 .052.052 0 00.013-.035.045.045 0 00-.034-.045z" fill="#000" fill-rule="nonzero"/><g stroke="#000" stroke-linecap="round"><path d="M4.713 3.212l.1.1m-1.601-.1l.1.1"/><path d="M16 5.5c-.719-1.627-2.604-4.495-6.784-4.495a12.539 12.539 0 00-4.466.684M2.529 3.25a2.08 2.08 0 00-.483.623v.679S.932 6.57 1.003 8.075c.52.615.595 3.108.595 3.108A68.503 68.503 0 0114.741 16c.452-.438.84-.932 1.155-1.467.095-.379.125-.77.089-1.158" stroke-linejoin="round"/></g></g></symbol>
<symbol id="i-account-favorites" height="19" width="19" xmlns="http://www.w3.org/2000/svg"><path d="M3 8.354c0 .807.134 2.05 1.34 3.168 1.072.994 4.624 3.23 4.758 3.354.134.062.268.124.402.124s.268-.062.402-.124c.134-.124 3.686-2.298 4.758-3.354C15.866 10.404 16 9.162 16 8.354 16 6.491 14.392 5 12.381 5c-1.072 0-2.144.559-2.814 1.429A3.71 3.71 0 006.619 5C4.675 5 3 6.49 3 8.354z"/></symbol>
<symbol id="i-account-friend" width="18" height="14" xmlns="http://www.w3.org/2000/svg"><g stroke="#000" stroke-width="1.152" fill="none" fill-rule="evenodd" stroke-linecap="round" stroke-linejoin="round"><g transform="translate(1 2.143)"><ellipse cx="5.037" cy="2.857" rx="2.963" ry="2.857"/><path d="M10.066 10.857c.002-.051.008-.102.008-.154h0c0-2.755-2.255-4.989-5.037-4.989S0 7.948 0 10.704h0c0 .051.007.102.008.153"/></g><g transform="translate(9.889 1)"><ellipse cx="3.556" cy="2" rx="2.074" ry="2"/><path d="M7.106 7.714c0-.037.005-.073.005-.11h0C7.111 5.613 5.52 4 3.556 4 1.592 4 0 5.613 0 7.603h0c0 .038.005.074.005.111"/></g></g></symbol>
<symbol id="i-account-garage" height="19" width="19" xmlns="http://www.w3.org/2000/svg"><path d="M2 14.954h15m-.708-.035V6.81M2.814 14.919V6.81M2 7.071L9.5 4 17 7.071M5.083 14.919v-6.33c0-.227.194-.41.433-.41h8.022c.24 0 .434.183.434.41v6.33m-8.758-4.404h8.572m-8.572 2.057h8.572" fill="none"/></symbol>
<symbol id="i-account-invite" height="19" width="19" xmlns="http://www.w3.org/2000/svg"><clipPath id="a"><path d="M1673 0v1630H0V0z"/></clipPath><g clip-path="url(#a)" fill="none" stroke="#000" stroke-linecap="round" stroke-linejoin="round" transform="translate(-225 -365)"><path d="M237.455 380v-1.223c0-1.35-1.064-2.444-2.364-2.444h-4.727c-1.306 0-2.364 1.094-2.364 2.444V380m4.728-11c-1.306 0-2.364 1.094-2.364 2.444 0 1.35 1.058 2.445 2.364 2.445 1.305 0 2.363-1.095 2.363-2.445 0-1.35-1.058-2.444-2.363-2.444zM241 380v-1.222c-.006-1.118-.733-2.09-1.773-2.365m-2.363-7.333v-.001c1.264.33 2.027 1.662 1.702 2.97-.219.862-.869 1.54-1.708 1.76"/></g></symbol>
<symbol id="i-account-logout" xmlns="http://www.w3.org/2000/svg" width="19" height="19"><path d="M7.6 14.8H5.2A1.2 1.2 0 014 13.6V5.2A1.2 1.2 0 015.2 4h2.4m4.2 8.4l3-3-3-3m3 3H7.6"/></symbol>
<symbol id="i-account-orders" height="19" width="19" xmlns="http://www.w3.org/2000/svg"><path d="M10.35 2.307l5.4 2.727c.46.23.75.703.75 1.22v6.498c0 .518-.29.99-.75 1.22l-5.4 2.728c-.38.192-.827.192-1.207 0l-5.4-2.727A1.365 1.365 0 013 12.745v-6.49c0-.518.29-.99.75-1.22l5.4-2.728c.378-.19.822-.19 1.2 0z"/><path d="M3.216 5.518l6.534 3.3 6.534-3.3M9.75 16.836V8.818M6.375 3.705l6.75 3.409"/></symbol>
<symbol id="i-account-privacy" height="19" width="19" xmlns="http://www.w3.org/2000/svg"><path d="M15.3 3l-1.4 1.4M8.573 9.727a3.85 3.85 0 11-5.445 5.445 3.85 3.85 0 015.444-5.444zm0 0L11.45 6.85m0 0l2.1 2.1L16 6.5l-2.1-2.1m-2.45 2.45L13.9 4.4"/></symbol>
<symbol id="i-account-profile" xmlns="http://www.w3.org/2000/svg" width="19" height="19"><g fill="none" fill-rule="evenodd" stroke="#000" stroke-linecap="round" stroke-linejoin="round"><rect width="14" height="11" x="2" y="4" rx="1.273"/><path d="M4.545 7.438h8.273m-8.273 2.75H9"/></g></symbol>
<symbol id="i-account-returns" height="19" width="19" xmlns="http://www.w3.org/2000/svg"><clipPath id="a"><path d="M1673 0v1630H0V0z"/></clipPath><g clip-path="url(#a)" transform="translate(-224 -406)"><g fill="none" stroke="#000" stroke-linecap="round" stroke-linejoin="round"><path d="M227.02 410.669v3.999h3.898"/><path d="M228.65 418h0c1.071 3.118 4.41 4.758 7.45 3.658 3.04-1.106 4.638-4.532 3.567-7.65-1.079-3.126-4.418-4.766-7.458-3.666a5.82 5.82 0 00-2.189 1.406l-3.02 2.906"/></g></g></symbol>
<symbol id="i-account-settings" height="19" width="19" xmlns="http://www.w3.org/2000/svg"><clipPath id="a"><path d="M1673 0v1630H0V0z"/></clipPath><g clip-path="url(#a)" transform="translate(-224 -447)"><g fill="none" stroke="#000" stroke-linecap="round" stroke-linejoin="round"><path d="M233.541 454.486a2.045 2.045 0 00-2.049 2.042c0 1.127.917 2.041 2.05 2.041a2.046 2.046 0 002.049-2.041 2.045 2.045 0 00-2.05-2.042z"/><path d="M238.596 458.57c-.191.414-.102.904.226 1.238l.04.04a1.353 1.353 0 010 1.92h-.006c-.54.53-1.4.53-1.933 0l-.007-.007-.041-.04a1.114 1.114 0 00-1.243-.225c-.417.17-.684.578-.684 1.027v.116c0 .749-.614 1.361-1.366 1.361a1.363 1.363 0 01-1.366-1.361v-.061a1.129 1.129 0 00-.738-1.028 1.11 1.11 0 00-1.243.225l-.04.04a1.373 1.373 0 01-1.934 0l-.007-.006a1.354 1.354 0 01-.007-1.926v-.007l.041-.041a1.13 1.13 0 00.226-1.239 1.125 1.125 0 00-1.032-.68h-.116a1.363 1.363 0 01-1.366-1.361c0-.756.608-1.361 1.366-1.361h.062a1.147 1.147 0 001.031-.735v-.001a1.124 1.124 0 00-.225-1.239l-.041-.04a1.354 1.354 0 01-.007-1.926v-.007a1.358 1.358 0 011.926-.007l.041.04c.328.32.82.41 1.243.225h.055a1.14 1.14 0 00.682-1.027v-.116A1.36 1.36 0 01233.5 449c.751 0 1.366.606 1.366 1.361v.061a1.138 1.138 0 001.926.803l.041-.04a1.358 1.358 0 111.926 1.912h-.006l-.041.04a1.1 1.1 0 00-.226 1.24v.054h0c.171.407.58.673 1.032.68h.116c.751 0 1.366.605 1.366 1.36 0 .75-.615 1.362-1.366 1.362h-.062c-.45 0-.86.265-1.031.68z"/></g></g></symbol>
<symbol id="i-account-subscriptions" height="19" width="19" xmlns="http://www.w3.org/2000/svg"><path d="M4.26 5h10.08c.693 0 1.26.567 1.26 1.26v7.56c0 .693-.567 1.26-1.26 1.26H4.26c-.693 0-1.26-.567-1.26-1.26V6.26C3 5.567 3.567 5 4.26 5z"/><path d="M15.6 6.26l-6.3 4.41L3 6.26"/></symbol>
<symbol id="i-account-user" xmlns="http://www.w3.org/2000/svg" width="19" height="19"><g transform="translate(3 3)"><path d="M6.435 8.19c1.939 0 3.51 1.44 3.51 3.218 0 .15-.011.298-.033.443a6.404 6.404 0 01-3.477 1.019 6.405 6.405 0 01-3.477-1.02 3.02 3.02 0 01-.033-.442c0-1.777 1.571-3.218 3.51-3.218z"/><circle cx="6.435" cy="6.435" r="6.435"/><circle cx="6.435" cy="5.85" r="2.34"/></g></symbol>
<symbol id="i-av-change-warranty" height="15" width="13" xmlns="http://www.w3.org/2000/svg"><path d="M9.556 1L12 3.364 9.556 5.727"/><path d="M1 6.91V5.726c0-1.305 1.094-2.363 2.444-2.363H12M3.444 14L1 11.636l2.444-2.363"/><path d="M12 8.09v1.183c0 1.305-1.094 2.363-2.444 2.363H1"/></symbol>
<symbol id="i-av-climate-neutral-shipping" height="15" width="16" xmlns="http://www.w3.org/2000/svg"><path d="M14.502 1.833c-.006-.1-.146-.142-.217-.062-.503.564-1.954 1.985-4.225 2.476-2.313.502-5.646 1.383-5.846 4.449-.13 1.994 1.26 3.822 3.42 4.079 1.369.163 3.119-.273 5.049-2.297 0 0 2.186-2.527 1.819-8.645z"/><path d="M12.887 5.838S6.24 11.135 1.128 12.454M6.98 9.971l.198-2.498m.15 2.424l2.993.25"/><path d="M9.498 6.275L9.4 8.645l2.623-.134"/></symbol>
<symbol id="i-av-experience" height="15" width="16" xmlns="http://www.w3.org/2000/svg"><path d="M8 1l2.163 4.279 4.837.69-3.5 3.329.826 4.702L8 11.779 3.674 14 4.5 9.298 1 5.969l4.837-.69z" fill="none"/></symbol>
<symbol id="i-av-free-shipping" height="15" width="14" xmlns="http://www.w3.org/2000/svg"><path d="M7.534 1.266l4.8 2.364c.408.2.666.609.666 1.057v5.632c0 .448-.258.858-.666 1.057l-4.8 2.364a1.217 1.217 0 01-1.074 0l-4.8-2.364A1.18 1.18 0 011 10.313V4.687c0-.448.258-.858.666-1.057l4.8-2.364a1.217 1.217 0 011.068 0z"/><path d="M1.192 4.049L7 6.909l5.808-2.86M7 13.858V6.909M4 2.477l6 2.955"/></symbol>
<symbol id="i-av-free-size-change" height="14" width="14" xmlns="http://www.w3.org/2000/svg"><path d="M12.154 7.846l-4.302 4.302a1.2 1.2 0 01-1.698 0L1 7V1h6l5.154 5.154a1.2 1.2 0 010 1.692z"/></symbol>
<symbol id="i-av-minimum-price" height="12" width="15" xmlns="http://www.w3.org/2000/svg"><path d="M2.182 11C1.529 11 1 10.44 1 9.75v-7.5C1 1.56 1.53 1 2.182 1h10.636C13.471 1 14 1.56 14 2.25v7.5c0 .69-.53 1.25-1.182 1.25zM1 4.75h13"/></symbol>
<symbol id="i-av-products" height="15" width="15" xmlns="http://www.w3.org/2000/svg"><path d="M7.5 1L1 4.25 7.5 7.5 14 4.25zM1 10.75L7.5 14l6.5-3.25M1 7.5l6.5 3.25L14 7.5" fill="none"/></symbol>
<symbol id="i-av-secure" height="15" width="12" xmlns="http://www.w3.org/2000/svg"><path d="M6 14s5-2.6 5-6.5V2.95L6 1 1 2.95V7.5C1 11.4 6 14 6 14z" fill="none"/></symbol>
<symbol id="i-av-shop-return" xmlns="http://www.w3.org/2000/svg" width="14" height="15"><path d="M3 1L1 3.6v9.1c0 .715.593 1.3 1.333 1.3h9.334C12.4 14 13 13.415 13 12.7V3.6L11 1H3zM1 3.6h12"/><path d="M9.667 6.2c0 1.43-1.2 2.6-2.667 2.6-1.473 0-2.667-1.17-2.667-2.6"/></symbol>
<symbol id="i-bike-delete" width="16" height="18" xmlns="http://www.w3.org/2000/svg"><path d="M1 4.2h14m-1.556 0v11.2h0c0 .88-.7 1.6-1.555 1.6H4.11h0c-.863 0-1.555-.72-1.555-1.6V4.2m2.333 0V2.6h0c0-.888.692-1.6 1.555-1.6h3.112c.855 0 1.555.712 1.555 1.6v1.6m-4.666 4V13m3.112-4.8V13" stroke="#000" stroke-width=".96" fill="none" stroke-linecap="round" stroke-linejoin="round"/></symbol>
<symbol id="i-cc-cod" height="13" width="15" xmlns="http://www.w3.org/2000/svg"><path d="M1 1.6v3.6h3.6m9.6 6V7.6h-3.6"/><path d="M12.694 4.6a5.4 5.4 0 00-8.91-2.016L1 5.2m13.2 2.4l-2.784 2.616A5.4 5.4 0 012.506 8.2"/></symbol>
<symbol id="i-cc-transfer" xmlns="http://www.w3.org/2000/svg" width="14" height="13"><path d="M2.5 5.5v5M.5 4L7 1l6.5 3m-8 1.5v5m3-5v5m3-5v5m-11 2h13"/></symbol>
<symbol id="i-chevron-left" height="28" width="16" xmlns="http://www.w3.org/2000/svg"><path d="M14.928 26.728L2.2 14 14.928 1.272" fill="none" stroke="#d4d4d4" stroke-width="3"/></symbol>
<symbol id="i-chevron-right" height="28" width="16" xmlns="http://www.w3.org/2000/svg"><path d="M1.128 26.728L13.856 14 1.128 1.272" fill="none" stroke="#d4d4d4" stroke-width="3"/></symbol>
<symbol id="i-download" xmlns="http://www.w3.org/2000/svg" width="16" height="16" viewBox="0 0 24 24" fill="none" stroke="currentColor" stroke-width="1.5" stroke-linecap="round" stroke-linejoin="round" class="feather feather-download"><path d="M21 15v4a2 2 0 01-2 2H5a2 2 0 01-2-2v-4m4-5l5 5 5-5m-5 5V3"/></symbol>
<symbol id="i-icon-alert" xmlns="http://www.w3.org/2000/svg" width="15" height="12"><path d="M6.574 1.116L1.492 9.6a1.2 1.2 0 001.026 1.8h10.164a1.2 1.2 0 001.026-1.8L8.626 1.116a1.2 1.2 0 00-2.052 0zM7.6 4.2v2.4m0 2.4h.006"/></symbol>
<symbol id="i-icon-angle-down" height="14" width="14" xmlns="http://www.w3.org/2000/svg"><path d="M3 5l4 4 4-4"/></symbol>
<symbol id="i-icon-angle-left" height="14" width="14" xmlns="http://www.w3.org/2000/svg"><path d="M9 3L5 7l4 4"/></symbol>
<symbol id="i-icon-angle-right" height="14" width="14" xmlns="http://www.w3.org/2000/svg"><path d="M5 11l4-4-4-4"/></symbol>
<symbol id="i-icon-angle-up" height="14" width="14" xmlns="http://www.w3.org/2000/svg"><path d="M11 9L7 5 3 9"/></symbol>
<symbol id="i-icon-answer" height="10" width="10" xmlns="http://www.w3.org/2000/svg"><path d="M3.5 6L1 3.5 3.5 1"/><path d="M9 9V5.5a2 2 0 00-2-2H1"/></symbol>
<symbol id="i-icon-arrow-left-tail" height="10" width="10" xmlns="http://www.w3.org/2000/svg"><path d="M10 5H0m5-5L0 5l5 5"/></symbol>
<symbol id="i-icon-arrow-right-tail" height="12" width="12" xmlns="http://www.w3.org/2000/svg"><path d="M1 6h10M6 1l5 5-5 5"/></symbol>
<symbol id="i-icon-arrow-right" xmlns="http://www.w3.org/2000/svg" width="16" height="16" viewBox="0 0 24 24" fill="none" stroke="currentColor" stroke-width="2" stroke-linecap="round" stroke-linejoin="round" class="feather feather-arrow-right"><path d="M5 12h14m-7-7l7 7-7 7"/></symbol>
<symbol id="i-icon-arrow-up" height="16" width="16" xmlns="http://www.w3.org/2000/svg"><path d="M8 15V1M1 8l7-7 7 7"/></symbol>
<symbol id="i-icon-bicycle" height="22" width="34" xmlns="http://www.w3.org/2000/svg"><path d="M22.8 1.72h-3.088M8.68 2.808h2.4s.376 0 .288.296S8.968 12.144 7.92 14"/><path d="M10.768 5.176h10.136l5.6 8.584-4.808.968"/><path d="M18.84 12.136l3.008-10.168M20 14.944a1.96 1.96 0 11-2.072-1.896A2 2 0 0120 14.944zM8.672 7.992a6.104 6.104 0 00-.8-.056 6.064 6.064 0 000 12.12A5.976 5.976 0 0013.776 14a6.088 6.088 0 00-2.904-5.216m10.048 7.16A5.88 5.88 0 0032.4 14a5.984 5.984 0 00-5.896-6.064 5.74 5.74 0 00-2.104.4M22.488 9.56a6.12 6.12 0 00-1.872 4m-4.856-.928l-5.208-6.144"/></symbol>
<symbol id="i-icon-calendar" width="20" height="22" xmlns="http://www.w3.org/2000/svg"><g transform="translate(1 1)" fill-rule="evenodd" stroke-linecap="round" stroke-linejoin="round"><rect y="2" width="18" height="18" rx="2"/><path d="M13 0v4M5 0v4M0 8h18"/></g></symbol>
<symbol id="i-icon-cc" height="16" width="16" xmlns="http://www.w3.org/2000/svg"><rect height="10" rx=".718" width="14" x="1" y="3"/><path d="M1 7h14"/></symbol>
<symbol id="i-icon-change" xmlns="http://www.w3.org/2000/svg" width="20" height="24"><path d="M5 23l-4-4 4-4m14 4H1M15 1l4 4-4 4M1 5h18"/></symbol>
<symbol id="i-icon-check-circle" width="42" height="42" xmlns="http://www.w3.org/2000/svg"><g stroke="#FFF" stroke-width="2.5" fill="none" fill-rule="evenodd" stroke-linecap="round" stroke-linejoin="round"><path d="M40 19.3v1.747-.019C39.981 31.511 31.473 40 20.99 40 10.49 39.981 2 31.473 2 20.99 2 10.49 10.508 2 20.99 2c2.66 0 5.28.55 7.71 1.633"/><path d="M40 5.855l-18.99 19.01-5.698-5.698"/></g></symbol>
<symbol id="i-icon-check" height="8" width="10" xmlns="http://www.w3.org/2000/svg"><path d="M9 1L3.5 6.5 1 4"/></symbol>
<symbol id="i-icon-checkout-click-and-collect" height="23" width="22" xmlns="http://www.w3.org/2000/svg"><g fill="none" fill-rule="evenodd" stroke="#000" stroke-linecap="round"><path d="M4 18.25V6.28h15v11.97"/><path d="M7.49 9.625V4.951C7.452 2.317 8.8 1 11.53 1s4.095 1.317 4.095 3.951v4.674M6.25 16.522h2.588m.857-2.449l-1.723-1.749m4.134 1.049V10.75"/><path d="M17.5 16.84l-6.391-1.33L12.42 22l1.695-2.33 1.89 2.33 1.424-1.475-1.982-1.963z" stroke-linejoin="round"/></g></symbol>
<symbol id="i-icon-checkout-express-shipping" height="23" width="22" xmlns="http://www.w3.org/2000/svg"><g fill="none" fill-rule="evenodd" stroke="#000" stroke-linecap="round"><path d="M5 4h10.752l-1.66 11.227H2.5m16.069-6.909l2.207 2.591-.638 4.318h-6.045l1.021-6.909zM6.386 19.545c1.193 0 2.302-.966 2.479-2.159.176-1.192-.648-2.159-1.84-2.159s-2.302.967-2.479 2.16c-.176 1.192.648 2.158 1.84 2.158zm9.228 0c1.192 0 2.302-.966 2.478-2.159.176-1.192-.648-2.159-1.84-2.159s-2.302.967-2.478 2.16c-.177 1.192.647 2.158 1.84 2.158z" stroke-linejoin="round"/><path d="M1.5 7h4.47M2.333 9.5H7M1 12h4.667"/></g></symbol>
<symbol id="i-icon-checkout-gift" height="23" width="22" xmlns="http://www.w3.org/2000/svg"><g fill="none" fill-rule="evenodd" stroke="#000" stroke-linecap="round" stroke-linejoin="round"><path d="M18.464 11.5V21H3.536v-9.5"/><path d="M1.5 6.758h19v4.747h-19zM11 21V6.758m0 0H6.725l-.01-.001A2.377 2.377 0 014.34 4.374 2.363 2.363 0 016.715 2c3.325 0 4.275 4.748 4.275 4.748zm.01-.008h4.362-.01c1.338 0 2.423-1.062 2.424-2.37 0-1.319-1.086-2.37-2.424-2.38C11.97 2 11 6.74 11 6.74z"/></g></symbol>
<symbol id="i-icon-checkout-pickup" height="23" width="22" xmlns="http://www.w3.org/2000/svg"><g fill="none" fill-rule="evenodd" stroke="#000" stroke-linecap="round" stroke-linejoin="round"><path d="M19 9.5c0 5.833-7.5 10.833-7.5 10.833S4 15.333 4 9.5a7.5 7.5 0 0115 0z"/><path d="M13.267 7.733a2.5 2.5 0 11-3.409 3.658 2.5 2.5 0 013.409-3.658"/></g></symbol>
<symbol id="i-icon-checkout-shipping" height="23" width="22" xmlns="http://www.w3.org/2000/svg"><g fill="none" fill-rule="evenodd" stroke="#000" stroke-linecap="round" stroke-linejoin="round" transform="translate(2 4)"><path d="M0 0h12.955v11.227H0zm12.955 4.318h3.454L19 6.91v4.318h-6.045z"/><circle cx="3.886" cy="13.386" r="2.159"/><circle cx="15.114" cy="13.386" r="2.159"/></g></symbol>
<symbol id="i-icon-click-and-collect" height="30" width="22" xmlns="http://www.w3.org/2000/svg"><g fill="none" fill-rule="evenodd" stroke="#000" stroke-linecap="round"><path d="M1 24V8.04h20V24"/><path d="M5.652 12.5V6.269C5.604 2.756 7.4 1 11.04 1s5.46 1.756 5.46 5.269V12.5M4 21.696h3.45m1.143-3.266L6.296 16.1m5.511 1.398V14"/><path d="M19 22.12l-8.522-1.774L12.228 29l2.26-3.107L17.007 29l1.898-1.967-2.642-2.617z" stroke-linejoin="round"/></g></symbol>
<symbol id="i-icon-clock" xmlns="http://www.w3.org/2000/svg" width="16" height="16" viewBox="0 0 24 24"><circle cx="12" cy="12" r="10"/><path d="M12 6v6l4 2"/></symbol>
<symbol id="i-icon-cookies" xmlns="http://www.w3.org/2000/svg" width="24" height="24"><g transform="translate(1 1)"><path d="M12.113.056a9.35 9.35 0 009.832 9.832c.036.365.055.736.055 1.112 0 6.075-4.925 11-11 11S0 17.075 0 11 4.925 0 11 0c.376 0 .747.019 1.113.056z"/><circle cx="6.6" cy="7.7" r="1.1"/><circle cx="11" cy="11" r="1.1"/><circle cx="7.7" cy="15.4" r="1.1"/><circle cx="14.3" cy="15.4" r="1.1"/></g></symbol>
<symbol id="i-icon-copy" height="14" width="14" xmlns="http://www.w3.org/2000/svg"><g transform="translate(1 1)"><rect height="8" rx="1.6" width="8" x="4" y="4"/><path d="M1.846 8h-.615A1.23 1.23 0 010 6.77V1.23C0 .552.551 0 1.23 0h5.54C7.448 0 8 .551 8 1.23v.616"/></g></symbol>
<symbol id="i-icon-country" height="11" width="11" xmlns="http://www.w3.org/2000/svg"><path d="M8.682 2.318a4.5 4.5 0 11-6.364 6.364 4.5 4.5 0 016.364-6.364M1 5.5h9"/><path d="M5.5 1a6.885 6.885 0 011.8 4.5A6.885 6.885 0 015.5 10a6.885 6.885 0 01-1.8-4.5A6.885 6.885 0 015.5 1z"/></symbol>
<symbol id="i-icon-cross-selling-bag" height="18" width="18" xmlns="http://www.w3.org/2000/svg"><path d="M2.1 6.3h14v10.5h-14z"/><path d="M12.6 9.1V4.9a3.5 3.5 0 10-7 0v4.2"/></symbol>
<symbol id="i-icon-cross" xmlns="http://www.w3.org/2000/svg" width="9" height="9"><path d="M1.4 1L8 7.6M8 1L1.4 7.6"/></symbol>
<symbol id="i-icon-currency-eur" height="11" width="11" xmlns="http://www.w3.org/2000/svg"><path d="M10.032 8.682a4.5 4.5 0 110-6.364M1 4.6h7.65M1 6.4h7.65"/></symbol>
<symbol id="i-icon-currency-gbp" height="11" width="10" xmlns="http://www.w3.org/2000/svg"><path d="M8.435 1.676A3.548 3.548 0 006.346 1C4.378 1 3.227 2.596 3.227 4.564c0 4.158-1.336 5.346-1.336 5.346h7.128M1 5.455h5.346"/></symbol>
<symbol id="i-icon-currency-usd" height="12" width="7" xmlns="http://www.w3.org/2000/svg"><path d="M3.673 1v9.801M5.9 2.782H2.56a1.56 1.56 0 100 3.118h2.227a1.56 1.56 0 110 3.119H1"/></symbol>
<symbol id="i-icon-customize" height="22" width="23" xmlns="http://www.w3.org/2000/svg"><path d="M1 21h20.8M9.442 3.07l7.184 7.184-6.732 6.732L2.71 9.802zm.998.97L7.4 1M4.28 11.4H15.4m4.8 4c0 .88-.72 1.6-1.6 1.6s-1.6-.72-1.6-1.6 1.6-2.4 1.6-2.4 1.6 1.52 1.6 2.4z"/></symbol>
<symbol id="i-icon-delete" height="18" width="16" xmlns="http://www.w3.org/2000/svg"><path d="M1 4.2h14m-1.556 0v11.2c0 .88-.7 1.6-1.555 1.6H4.11c-.863 0-1.555-.72-1.555-1.6V4.2m2.333 0V2.6c0-.888.692-1.6 1.555-1.6h3.112c.855 0 1.555.712 1.555 1.6v1.6m-4.666 4V13m3.112-4.8V13" fill="none"/></symbol>
<symbol id="i-icon-edit" height="17" width="17" xmlns="http://www.w3.org/2000/svg"><path d="M3 11.5l-1 4 4-1L15.5 5c-.3-1.5-1.5-2.7-3-3zM13.5 7c-.3-1.5-1.5-2.7-3-3"/></symbol>
<symbol id="i-icon-euro" xmlns="http://www.w3.org/2000/svg" width="16" height="16"><circle cx="8" cy="8" r="7"/><path d="M3 7h3M3 9h3m4.838-3.856A4.02 4.02 0 008.022 4C5.801 4 4 5.79 4 8s1.8 4 4.022 4c1.18 0 2.242-.506 2.978-1.31"/></symbol>
<symbol id="i-icon-external-link" xmlns="http://www.w3.org/2000/svg" width="16" height="16" viewBox="0 0 24 24" fill="none" stroke="currentColor" stroke-linecap="round" stroke-linejoin="round" class="feather feather-external-link"><path d="M18 13v6a2 2 0 01-2 2H5a2 2 0 01-2-2V8a2 2 0 012-2h6m4-3h6v6m-11 5L21 3"/></symbol>
<symbol id="i-icon-favorite-remove" height="24" width="29" xmlns="http://www.w3.org/2000/svg"><path d="M4.733 6.06a5.68 5.68 0 00-.847 2.977c0 1.454.237 3.69 2.371 5.702 1.897 1.789 8.18 5.814 8.418 6.037.237.112.474.224.711.224s.474-.112.711-.224c.137-.129 2.288-1.486 4.447-2.977m2.275-1.636c.696-.529 1.294-1.022 1.696-1.424 2.134-2.012 2.371-4.248 2.371-5.702C26.886 5.683 24.041 3 20.484 3c-1.897 0-3.794 1.006-4.98 2.571A6.523 6.523 0 0010.289 3a6.618 6.618 0 00-3.81 1.209m17.293 15.696L2 4.095"/></symbol>
<symbol id="i-icon-favorite" xmlns="http://www.w3.org/2000/svg" width="29" height="24"><path d="M4 9.037c0 1.454.237 3.69 2.371 5.702 1.897 1.789 8.18 5.814 8.418 6.037.237.112.474.224.711.224s.474-.112.711-.224c.237-.223 6.521-4.136 8.418-6.037C26.763 12.727 27 10.491 27 9.037 27 5.683 24.155 3 20.598 3c-1.897 0-3.794 1.006-4.98 2.571A6.523 6.523 0 0010.403 3C6.964 3 4 5.683 4 9.037z"/></symbol>
<symbol id="i-icon-filters" xmlns="http://www.w3.org/2000/svg" width="20" height="16"><path d="M0 1.442h10m2.49 0h6.894M10 .058v2.768M0 7.75h5.536m3.013 0h10.835M5.536 6.367v2.767M11 12.676v2.767M0 14.06h10.88m8.814 0H13.6"/></symbol>
<symbol id="i-icon-garage" height="18" width="23" xmlns="http://www.w3.org/2000/svg"><path d="M1 16.95h21m-1.01-.028V5.098M2.12 16.922V5.098M1 5.478L11.5 1 22 5.478M5.316 16.922V7.69c0-.33.271-.597.607-.597h11.23c.336 0 .608.268.608.597v9.232M5.5 10.5h12m-12 3h12" fill="none"/></symbol>
<symbol id="i-icon-globe" height="17" width="17" xmlns="http://www.w3.org/2000/svg"><g fill="none" fill-rule="evenodd" stroke-linecap="round" stroke-linejoin="round" transform="translate(1 1)"><circle cx="7.5" cy="7.5" r="7.5"/><path d="M0 7.5h15M7.5 0a11.475 11.475 0 013 7.5 11.475 11.475 0 01-3 7.5 11.475 11.475 0 01-3-7.5 11.475 11.475 0 013-7.5z"/></g></symbol>
<symbol id="i-icon-info-small" xmlns="http://www.w3.org/2000/svg" width="14" height="14"><path d="M7 1a6 6 0 100 12A6 6 0 007 1zm0 8.4V7m0-2.4h.006" fill="none" stroke="#000" stroke-linecap="round" stroke-linejoin="round" stroke-width="1.2"/></symbol>
<symbol id="i-icon-info" xmlns="http://www.w3.org/2000/svg" viewBox="0 0 19 19"><path fill="none" stroke="#EB0012" stroke-linecap="round" stroke-linejoin="round" stroke-width="1.44" d="M15.34 3.46A8.4 8.4 0 113.46 15.34 8.4 8.4 0 0115.34 3.46m-5.94 9.3V9.4m0-3.36h.008"/></symbol>
<symbol id="i-icon-insurance" xmlns="http://www.w3.org/2000/svg" width="13" height="16"><path d="M6.6 15s5.6-2.8 5.6-7V3.1L6.6 1 1 3.1V8c0 4.2 5.6 7 5.6 7z"/></symbol>
<symbol id="i-icon-lang" height="11" width="9" xmlns="http://www.w3.org/2000/svg"><path d="M.45 6.85s.45-.45 1.8-.45 2.25.9 3.6.9 1.8-.45 1.8-.45v-5.4s-.45.45-1.8.45S3.6 1 2.25 1s-1.8.45-1.8.45zm0 3.15V6.85" fill="none" stroke="#fff" stroke-linecap="round" stroke-linejoin="round" stroke-width=".8"/></symbol>
<symbol id="i-icon-language" height="11" width="9" xmlns="http://www.w3.org/2000/svg"><path d="M.45 6.85s.45-.45 1.8-.45 2.25.9 3.6.9 1.8-.45 1.8-.45v-5.4s-.45.45-1.8.45S3.6 1 2.25 1s-1.8.45-1.8.45zm0 3.15V6.85"/></symbol>
<symbol id="i-icon-lock" height="22" width="20" xmlns="http://www.w3.org/2000/svg"><g transform="translate(1 1)" fill="none" fill-rule="evenodd" stroke-linecap="round" stroke-linejoin="round"><rect height="11" rx="2" width="18" y="9"/><path d="M4 9V5c0-2.77 2.23-5 5-5 2.76 0 5 2.23 5 5v4"/></g></symbol>
<symbol id="i-icon-mail" height="25" width="25" xmlns="http://www.w3.org/2000/svg"><path d="M4.9 5h15.2c1.045 0 1.9.855 1.9 1.9v11.4c0 1.045-.855 1.9-1.9 1.9H4.9c-1.045 0-1.9-.855-1.9-1.9V6.9C3 5.855 3.855 5 4.9 5z"/><path d="M22 6.9l-9.5 6.65L3 6.9"/></symbol>
<symbol id="i-icon-map-pin" height="13" width="11" viewBox="-1 -1 11 13" xmlns="http://www.w3.org/2000/svg"><path d="M9 4.5C9 8 4.5 11 4.5 11S0 8 0 4.5a4.5 4.5 0 019 0z"/><path d="M5.56 3.44a1.5 1.5 0 11-2.12 2.12 1.5 1.5 0 012.12-2.12"/></symbol>
<symbol id="i-icon-menu-ham" xmlns="http://www.w3.org/2000/svg" width="26" height="26"><path d="M2 13h22M2 7h22M2 19h22" fill="none"/></symbol>
<symbol id="i-icon-minus" height="10" width="10" xmlns="http://www.w3.org/2000/svg"><path d="M1 5h8"/></symbol>
<symbol id="i-icon-more" xmlns="http://www.w3.org/2000/svg" width="21" height="21"><g fill="none" fill-rule="evenodd" stroke="#000"><circle cx="10.5" cy="10.5" r="8.885" stroke-linecap="square" stroke-width=".808"/><path stroke-linecap="round" d="M10.5 6.5v8.376m4.188-4.188H6.312"/></g></symbol>
<symbol id="i-icon-out-of-stock" height="36" width="31" xmlns="http://www.w3.org/2000/svg"><g fill="none" fill-rule="evenodd" stroke="#000" stroke-width="2"><path d="M27.496 22.549a6.692 6.692 0 00-10.858 5.766H3.731A2.732 2.732 0 011 25.585V6.464L5.097 1H23.4l4.097 5.463V22.55a6.692 6.692 0 11-10.858 5.766" stroke-linecap="round" stroke-linejoin="round"/><path d="M25.538 25.538L21.077 30m0-4.462L25.538 30"/><path d="M1 6.463h26.496m-6.829 5.463c0 3.017-3.402 5.38-6.419 5.38s-6.42-2.363-6.42-5.38" stroke-linecap="round" stroke-linejoin="round"/></g></symbol>
<symbol id="i-icon-phone-outgoing" height="25" width="25" xmlns="http://www.w3.org/2000/svg"><path d="M23 8V2h-6m-1 7l7-7m-1 15.92v3a2 2 0 01-2.18 2 19.79 19.79 0 01-8.63-3.07 19.5 19.5 0 01-6-6 19.79 19.79 0 01-3.07-8.67A2 2 0 014.11 3h3a2 2 0 012 1.72c.127.96.361 1.903.7 2.81a2 2 0 01-.45 2.11l-1.27 1.27a16 16 0 006 6l1.27-1.27a2 2 0 012.11-.45c.907.339 1.85.573 2.81.7A2 2 0 0122 17.92z"/></symbol>
<symbol id="i-icon-phone" height="17" width="17" xmlns="http://www.w3.org/2000/svg"><path d="M10.212 3.824A3.53 3.53 0 0113 6.612M10.212 1a6.353 6.353 0 015.612 5.605m-.706 5.633v2.117a1.412 1.412 0 01-1.54 1.412 13.97 13.97 0 01-6.09-2.167 13.765 13.765 0 01-4.236-4.235 13.97 13.97 0 01-2.167-6.12 1.412 1.412 0 011.404-1.54h2.118A1.412 1.412 0 016.02 2.92c.09.678.255 1.343.494 1.984a1.41 1.41 0 01-.318 1.489l-.896.896a11.294 11.294 0 004.235 4.236l.897-.897a1.412 1.412 0 011.489-.317 9.09 9.09 0 001.984.494c.71.1 1.231.716 1.214 1.433z"/></symbol>
<symbol id="i-icon-pin" height="18" width="15" xmlns="http://www.w3.org/2000/svg"><g transform="translate(1 1)"><path d="M12.96 6.48c0 5.04-6.48 9.36-6.48 9.36S0 11.52 0 6.48a6.48 6.48 0 0112.96 0z"/><circle cx="6.48" cy="6.48" r="2.16"/></g></symbol>
<symbol id="i-icon-plus" xmlns="http://www.w3.org/2000/svg" width="10" height="10"><path d="M9.243 5H.757M5 .757v8.485"/></symbol>
<symbol id="i-icon-question-mark" xmlns="http://www.w3.org/2000/svg" viewBox="-1 -1 20 20"><path d="M6.381 6.3a2.7 2.7 0 015.247.9c0 1.8-2.7 2.7-2.7 2.7"/><path d="M15.364 2.636A9 9 0 112.636 15.364 9 9 0 0115.364 2.636M9 13v1"/></symbol>
<symbol id="i-icon-reset" height="15" width="16" xmlns="http://www.w3.org/2000/svg"><g stroke="#000" stroke-width="1.5" fill="none" fill-rule="evenodd" stroke-linecap="round" stroke-linejoin="round"><path d="M1 1.694v4.2h4.2"/><path d="M2.757 9.393a6.3 6.3 0 101.49-6.551L1 5.894"/></g></symbol>
<symbol id="i-icon-rule" xmlns="http://www.w3.org/2000/svg" width="18" height="7"><path d="M1 .5h16v6H1zm12 0V3M5 .5V3m4-2v3"/></symbol>
<symbol id="i-icon-search" height="20" width="20" xmlns="http://www.w3.org/2000/svg"><path d="M14.657 3.343A8 8 0 113.343 14.657 8 8 0 0114.657 3.343M19 19l-4.35-4.35"/></symbol>
<symbol id="i-icon-send" height="27" width="27" xmlns="http://www.w3.org/2000/svg"><path d="M26 1L12.25 14.75M26 1l-8.75 25-5-11.25L1 9.75z"/></symbol>
<symbol id="i-icon-share" height="18" width="15" xmlns="http://www.w3.org/2000/svg"><path d="M1 9v6.4A1.6 1.6 0 002.6 17h9.6a1.6 1.6 0 001.6-1.6V9m-3.2-4.8L7.4 1 4.2 4.2M7.4 1v10.4"/></symbol>
<symbol id="i-icon-shopping-bag-2" height="48" width="44" xmlns="http://www.w3.org/2000/svg"><path d="M7.912 1L1 10.216v32.256a4.608 4.608 0 004.608 4.608h32.256a4.608 4.608 0 004.608-4.608V10.216L35.56 1zM1 10.216h41.472m-11.52 9.216a9.216 9.216 0 11-18.432 0" fill="none" stroke="#000" stroke-linecap="round" stroke-linejoin="round" stroke-width="1.62"/></symbol>
<symbol id="i-icon-shopping-bag" height="24" width="22" viewBox="-1 -1 22 24" xmlns="http://www.w3.org/2000/svg"><path d="M0 7h20v15H0z"/><path d="M15 11V5A5 5 0 005 5v6"/></symbol>
<symbol id="i-icon-shops" xmlns="http://www.w3.org/2000/svg" width="11" height="13"><g transform="translate(1 1)"><path d="M9 4.5C9 8 4.5 11 4.5 11S0 8 0 4.5a4.5 4.5 0 019 0z"/><circle cx="4.5" cy="4.5" r="1.5"/></g></symbol>
<symbol id="i-icon-star" xmlns="http://www.w3.org/2000/svg" width="14" height="14"><path d="M7 0l2.163 4.382L14 5.089l-3.5 3.409.826 4.816L7 11.039l-4.326 2.275.826-4.816L0 5.089l4.837-.707z"/></symbol>
<symbol id="i-icon-stock-online" height="14" width="16" xmlns="http://www.w3.org/2000/svg"><g stroke="#000" stroke-width=".8" fill="none" fill-rule="evenodd" stroke-linecap="round" stroke-linejoin="round"><path d="M3.837 1L2 3.449v8.571c0 .677.548 1.225 1.224 1.225h9.43c.675 0 1.224-.548 1.224-1.225V3.45L12.04 1zM2 3.449h11.878"/><path d="M10.816 5.898c0 1.352-1.525 2.411-2.877 2.411-1.353 0-2.878-1.059-2.878-2.411"/></g></symbol>
<symbol id="i-icon-stock-store" height="14" width="16" xmlns="http://www.w3.org/2000/svg"><path d="M1 1h10v9H1zm12.88 4.65l.596.652A2 2 0 0115 7.652V10h-4V5h1.404a2 2 0 011.476.65z"/><circle cx="3.5" cy="11.5" r="1.5"/><circle cx="13.5" cy="11.5" r="1.5"/></symbol>
<symbol id="i-icon-thumbs-up" viewBox="0 0 16 18" xmlns="http://www.w3.org/2000/svg"><path d="M9.304 5.148v-2.37C9.304 1.796 8.487 1 7.478 1L5.043 6.333v6.519h6.867a1.208 1.208 0 001.217-1.008l.84-5.333c.1-.647-.356-1.251-1.021-1.35a1.25 1.25 0 00-.196-.013zm-4.26 7.704H3.216c-.672 0-1.217-.53-1.217-1.185V7.519c0-.655.545-1.186 1.217-1.186h1.826z"/></symbol>
<symbol id="i-icon-unlock" height="23" width="20" xmlns="http://www.w3.org/2000/svg"><g transform="translate(1 1)" fill="none" fill-rule="evenodd" stroke-linecap="round" stroke-linejoin="round"><rect height="11" rx="2" width="18" y="9.01"/><path d="M4 9.01v-4A4.99 4.99 0 018.99 0a4.99 4.99 0 014.9 4"/></g></symbol>
<symbol id="i-icon-upload" xmlns="http://www.w3.org/2000/svg" width="11" height="11"><path d="M10 7v2a1 1 0 01-1 1H2a1 1 0 01-1-1V7m7-3.5L5.5 1 3 3.5M5.5 1v6"/></symbol>
<symbol id="i-icon-user-account" xmlns="http://www.w3.org/2000/svg" viewBox="-1 -1 24 24"><path d="M11 14c3.314 0 6 2.462 6 5.5 0 .257-.02.51-.056.758A10.95 10.95 0 0111 22c-2.19 0-4.23-.64-5.943-1.742A5.082 5.082 0 015 19.5c0-3.038 2.686-5.5 6-5.5z"/><circle cx="11" cy="11" r="11"/><circle cx="11" cy="10" r="4"/></symbol>
<symbol id="i-icon-x-circle" height="15" width="15" xmlns="http://www.w3.org/2000/svg"><circle cx="7.5" cy="7.5" r="6.5"/><path d="M9.45 5.55l-3.9 3.9m0-3.9l3.9 3.9"/></symbol>
<symbol id="i-list-grid" xmlns="http://www.w3.org/2000/svg" width="14" height="14"><path d="M1 1h5v5H1zm7 0h5v5H8zm0 7h5v5H8zM1 8h5v5H1z"/></symbol>
<symbol id="i-list-rows" xmlns="http://www.w3.org/2000/svg" width="14" height="14"><path d="M1 1h12v5H1zm0 7h12v5H1z"/></symbol>
<symbol id="i-menu-account" xmlns="http://www.w3.org/2000/svg" width="26" height="26"><path d="M13 16c3.314 0 6 2.462 6 5.5 0 .257-.02.51-.056.758A10.95 10.95 0 0113 24c-2.19 0-4.23-.64-5.943-1.742A5.082 5.082 0 017 21.5c0-3.038 2.686-5.5 6-5.5z"/><circle cx="13" cy="13" r="11"/><circle cx="13" cy="12" r="4"/></symbol>
<symbol id="i-menu-blog" xmlns="http://www.w3.org/2000/svg" width="26" height="26"><path d="M4 12.19c5.816 0 10.53 4.714 10.53 10.53M4 4c10.339 0 18.72 8.381 18.72 18.72M5.997 20.723a1.17 1.17 0 11-1.654 1.654 1.17 1.17 0 011.654-1.654"/></symbol>
<symbol id="i-menu-cart" xmlns="http://www.w3.org/2000/svg" width="26" height="26"><path d="M3 9h20v15H3z"/><path d="M18 13V7A5 5 0 008 7v6"/></symbol>
<symbol id="i-menu-club" height="26" width="33" xmlns="http://www.w3.org/2000/svg"><g fill="none" fill-rule="evenodd" stroke-linecap="round" stroke-linejoin="round"><path d="M27.056 7.947l1.792-3.4h-8.714l-3.587 3.977 1.667-3.977H2.864L1.649 6.454l6.425 3.499L.692 22.209H9.01l2.632-3.407-.486 3.407h7.312l2.49-4.212"/><path d="M16.06 12v-.25c0-.968-.797-1.75-1.776-1.75h-.254c-1.122 0-2.03.895-2.03 2v2c0 1.103.908 2 2.03 2h.254c.979 0 1.776-.785 1.776-1.75V14m2.522-4v5.75c0 .138.112.25.254.25h2.79m1.508-6v4.5c0 .828.68 1.5 1.522 1.5.84 0 1.523-.672 1.523-1.5V10m2.522.25c0-.14.112-.25.254-.25h1.015c.7 0 1.268.557 1.268 1.25 0 .69-.568 1.25-1.268 1.25h.253c.98 0 1.777.782 1.777 1.75 0 .965-.797 1.75-1.777 1.75h-1.268a.251.251 0 01-.254-.25zm1.324 2.25l-1.321-.002"/></g></symbol>
<symbol id="i-menu-contact" xmlns="http://www.w3.org/2000/svg" width="26" height="26"><rect width="22" height="18" x="2" y="4" rx="2"/><path d="M24 6.25l-11 7.875L2 6.25"/></symbol>
<symbol id="i-menu-favorites" height="26" width="26" xmlns="http://www.w3.org/2000/svg"><path d="M2 10.037c0 1.454.227 3.69 2.268 5.702 1.814 1.789 7.825 5.814 8.052 6.037.226.112.453.224.68.224s.454-.112.68-.224c.227-.223 6.238-4.136 8.052-6.037C23.773 13.727 24 11.491 24 10.037 24 6.683 21.278 4 17.876 4c-1.814 0-3.629 1.006-4.763 2.571C11.98 5.006 10.165 4 8.123 4 4.836 4 2 6.683 2 10.037z"/></symbol>
<symbol id="i-menu-orders" height="26" width="26" xmlns="http://www.w3.org/2000/svg"><g fill="none" fill-rule="evenodd"><path d="M17.85 10.14l-9.9-5.709M22.8 17.4V8.6a2.2 2.2 0 00-1.1-1.903l-7.7-4.4a2.2 2.2 0 00-2.2 0l-7.7 4.4A2.2 2.2 0 003 8.6v8.8a2.2 2.2 0 001.1 1.903l7.7 4.4a2.2 2.2 0 002.2 0l7.7-4.4a2.2 2.2 0 001.1-1.903z"/><path d="M3.297 7.456l9.603 5.555 9.603-5.555M12.9 24.088V13"/></g></symbol>
<symbol id="i-menu-search" xmlns="http://www.w3.org/2000/svg" width="26" height="26"><path d="M17.657 6.343A8 8 0 116.343 17.657 8 8 0 0117.657 6.343M22 22l-4.35-4.35"/></symbol>
<symbol id="i-menu-shops" xmlns="http://www.w3.org/2000/svg" width="26" height="26"><g fill-rule="evenodd" stroke-linecap="round" stroke-linejoin="round"><path d="M21 11.182C21 17.545 13 23 13 23s-8-5.455-8-11.818C5 6.655 8.573 3 13 3c4.418 0 8 3.655 8 8.182z"/><path d="M13 8.455c-1.473 0-2.667 1.22-2.667 2.727 0 1.506 1.194 2.727 2.667 2.727 1.473 0 2.667-1.221 2.667-2.727 0-1.506-1.194-2.727-2.667-2.727z"/></g></symbol>
<symbol id="i-mobile-buy-cheaper" height="18" width="18" xmlns="http://www.w3.org/2000/svg"><path d="M15.279 10.15l-5.122 5.121a1.429 1.429 0 01-2.021 0L2 9.143V2h7.143l6.136 6.136a1.429 1.429 0 010 2.014zM5.571 5.571h.008"/></symbol>
<symbol id="i-mobile-buy-finance" height="18" width="18" xmlns="http://www.w3.org/2000/svg"><g transform="rotate(90 7 9)"><path d="M3.175 2.381V.791c0-.437.357-.791.799-.791h9.513c.44 0 .799.353.799.788v11.123a2.379 2.379 0 01-2.38 2.375H2.013"/><path d="M0 3.18c0-.441.355-.799.8-.799H4v9.926a1.985 1.985 0 01-2 1.979c-1.105 0-2-.895-2-1.98V3.182z"/><circle cx="9.127" cy="2.778" r="1.19"/></g></symbol>
<symbol id="i-mobile-buy-shop" height="18" width="18" xmlns="http://www.w3.org/2000/svg"><path d="M4.143 2L2 4.857v10c0 .79.64 1.429 1.429 1.429h11c.789 0 1.428-.64 1.428-1.429v-10L13.714 2zM2 4.857h13.857"/><path d="M12.286 7.714c0 1.578-1.78 2.814-3.357 2.814-1.578 0-3.358-1.236-3.358-2.814"/></symbol>
<symbol id="i-order-change" height="14" width="12" xmlns="http://www.w3.org/2000/svg"><g fill="none" fill-rule="evenodd" stroke="#000" stroke-linecap="round" stroke-linejoin="round" stroke-width="1.2"><path d="M8.778 1L11 3.182 8.778 5.364"/><path d="M1 6.455V5.364c-.006-1.206.994-2.188 2.217-2.188h7.777M3.222 13L1 10.818l2.222-2.182"/><path d="M11 7.545v1.091c0 1.2-1 2.182-2.222 2.182H1"/></g></symbol>
<symbol id="i-order-check" height="14" width="14" xmlns="http://www.w3.org/2000/svg"><g fill="none" fill-rule="evenodd" stroke="#000" stroke-linecap="round" stroke-linejoin="round"><path d="M13 6.463v.552-.006A6.003 6.003 0 016.997 13 6.004 6.004 0 011 6.997a5.995 5.995 0 018.432-5.481"/><path d="M13 2.217L7.003 8.22 5.204 6.421"/></g></symbol>
<symbol id="i-order-invoice" height="14" width="12" xmlns="http://www.w3.org/2000/svg"><g fill="none" fill-rule="evenodd" stroke="#000" stroke-linecap="round" stroke-linejoin="round" stroke-width="1.201"><path d="M7.252 1H2.25C1.556 1 1 1.534 1 2.2v9.605C1 12.465 1.556 13 2.25 13h7.495-.007c.687 0 1.25-.54 1.25-1.201V4.595z"/><path d="M7.252 1v3.602H11"/></g></symbol>
<symbol id="i-order-tracking" xmlns="http://www.w3.org/2000/svg" width="14" height="14"><path fill="none" stroke="#000" stroke-linecap="round" stroke-linejoin="round" stroke-width="1.2" d="M6.333 1a5.333 5.333 0 100 10.667A5.333 5.333 0 006.333 1zM13 13l-2.9-2.9"/></symbol>
<symbol id="i-profile-birthday" xmlns="http://www.w3.org/2000/svg" width="24" height="25"><g fill="none" fill-rule="evenodd"><rect width="18" height="14" x="3" y="8" rx="2"/><path d="M12 5c0-1.66-1.35-3-3-3-1.66 0-3 1.34-3 3 0 1.65 1.34 3 3 3m6 0c1.65 0 3-1.35 3-3 0-1.66-1.35-3-3-3-1.66 0-3 1.34-3 3m0 0v17m9-7H3"/></g></symbol>
<symbol id="i-profile-gender" xmlns="http://www.w3.org/2000/svg" width="24" height="25"><path d="M17.36 2v1.224h1.4L16.028 5.78a5.345 5.345 0 00-3.807-1.584A5.34 5.34 0 007.56 6.913a5.437 5.437 0 00-.234-.006C4.389 6.907 2 9.263 2 12.157c0 2.689 2.06 4.911 4.704 5.216V19h-1.86v1.224h1.86V22h1.242v-1.776h1.94V19h-1.94v-1.627a5.337 5.337 0 004.04-2.68c.078.003.157.005.235.005 2.936 0 5.325-2.356 5.325-5.251 0-.984-.276-1.905-.756-2.693l2.968-2.775v1.52H21V2h-3.64zM7.325 16.184c-2.252 0-4.083-1.806-4.083-4.026 0-2.134 1.692-3.885 3.822-4.018a5.174 5.174 0 00-.167 1.307c0 2.362 1.59 4.364 3.77 5.022a4.098 4.098 0 01-3.342 1.715zm3.9-2.832c-1.772-.44-3.087-2.024-3.087-3.905 0-.415.065-.816.184-1.194 1.77.44 3.086 2.024 3.086 3.905 0 .415-.065.816-.184 1.194zm1.257.113c.11-.418.167-.856.167-1.307 0-2.362-1.59-4.365-3.769-5.022a4.098 4.098 0 013.341-1.715c2.252 0 4.083 1.806 4.083 4.026 0 2.134-1.691 3.884-3.822 4.018z"/></symbol>
<symbol id="i-profile-phone" xmlns="http://www.w3.org/2000/svg" width="24" height="25"><g fill="none" fill-rule="evenodd"><rect width="12" height="20" x="6" y="2" rx="2"/><path d="M11 5h2m-1.05 14h.1"/></g></symbol>
<symbol id="i-profile-rs-empty" xmlns="http://www.w3.org/2000/svg" width="27" height="27"><g fill="none" fill-rule="evenodd"><path d="M13.5 1C6.596 1 1 6.596 1 13.5S6.596 26 13.5 26 26 20.404 26 13.5 20.404 1 13.5 1z"/><path d="M9.863 9.75v-.012a3.735 3.735 0 014.774-2.3c1.5.525 2.5 1.937 2.5 3.537 0 2.5-3.75 3.75-3.75 3.75m.113 5.025h.012"/></g></symbol>
<symbol id="i-rs-motocross" height="61" width="95" xmlns="http://www.w3.org/2000/svg"><path d="M23.183 28.099c-.188-.043-.374-.093-.565-.127l-.128.465a10.98 10.98 0 00-1.75-.145l-.046-.479c-.11 0-.22-.01-.332-.008-.083.003-.164.016-.248.02l-.024.48c-.621.033-1.23.112-1.82.245l-.15-.457c-.19.044-.373.104-.56.157l.085.472c-.57.165-1.12.37-1.645.622l-.245-.41a11.47 11.47 0 00-.515.27l.183.44c-.54.3-1.047.647-1.526 1.031l-.33-.343c-.152.122-.305.242-.45.372l.28.39c-.437.396-.841.827-1.21 1.288l-.399-.262c-.12.153-.233.312-.346.47l.355.318a11.086 11.086 0 00-.943 1.594l-.444-.164a11.77 11.77 0 00-.237.535l.415.228a10.99 10.99 0 00-.533 1.693l-.47-.062c-.044.19-.096.378-.13.572l.46.131a11.206 11.206 0 00-.15 1.852l-.472.048c0 .099-.01.195-.007.294.002.1.017.195.022.293l.475.023c.033.602.107 1.19.231 1.761l-.452.152c.043.192.1.378.151.567l.467-.083c.169.602.382 1.184.643 1.74l-.403.248c.085.177.173.351.265.522l.436-.188c.285.522.613 1.013.975 1.478l-.34.334c.12.153.236.31.364.456l.387-.28c.407.464.852.891 1.33 1.28l-.258.405c.151.121.31.232.468.346l.312-.36c.476.342.977.651 1.505.914l-.163.449c.174.086.35.164.529.24l.226-.42c.56.238 1.145.425 1.747.566l-.058.476c.188.044.373.093.566.127l.127-.465c.57.097 1.155.141 1.75.145l.045.478c.112.001.221.012.333.01.084-.003.164-.016.247-.02l.024-.48a10.88 10.88 0 001.82-.246l.151.458c.19-.044.374-.104.559-.158l-.083-.471a10.788 10.788 0 001.644-.623l.245.41c.175-.085.346-.176.515-.269l-.183-.442c.54-.3 1.047-.646 1.526-1.03l.33.343c.152-.122.305-.241.45-.372l-.28-.39c.438-.396.84-.827 1.21-1.288l.4.262c.12-.153.232-.312.345-.47l-.355-.319a11.02 11.02 0 00.942-1.593l.445.164a11.5 11.5 0 00.237-.535l-.415-.228c.222-.544.398-1.11.534-1.693l.469.062c.043-.19.095-.378.13-.572l-.46-.13a11.22 11.22 0 00.15-1.853l.473-.048c0-.098.009-.195.006-.294-.002-.099-.017-.195-.022-.293l-.474-.022a11.143 11.143 0 00-.233-1.762l.453-.152c-.043-.192-.1-.378-.151-.567l-.467.084a11.027 11.027 0 00-.644-1.74l.403-.25a10.62 10.62 0 00-.265-.521l-.435.187a11.047 11.047 0 00-.975-1.477l.34-.333c-.12-.154-.236-.31-.364-.457l-.386.281a10.995 10.995 0 00-1.331-1.28l.258-.405c-.152-.122-.31-.233-.467-.347l-.314.361.523.39m41.963 3.906a6.56 6.56 0 013.468-1.859c3.59-.684 7.05 1.707 7.726 5.343.676 3.635-1.687 7.137-5.277 7.822-3.591.685-7.05-1.707-7.726-5.343M26.014 21.119s-2.214-.908-5.744-.908c-4.821 0-7.65 2.909-7.65 2.909m17.33 1.247s3.35 5.5 4.076 6.422c1.02 1.297 4.01.969 5.304-.674a780.495 780.495 0 003.507-4.527"/><path d="M25.028 34.388a6.66 6.66 0 012.235 4.994c0 3.668-2.936 6.64-6.559 6.64s-6.559-2.972-6.559-6.64c0-3.668 2.936-6.641 6.56-6.641.172 0 .343.007.513.02m12.148-16.063s6.038.496 8.249 2.322c1.548 1.28 2.846 4.1 2.846 4.1s.48 1.042 1.393.878c3.291-.594 15.466-2.888 17.972-3.383 3.447-.68 4.118-3.038 5.932-3.914 1.37-.663 12.524-2.026 12.524-2.026"/><path d="M40.735 10.433h-4.72c-2.135 0-2.743 1.4-2.743 1.4L20.2 40.042m35.919-3.6s-5.025 4.27-7.378 4.27h-7.326c-1.687 0-2.465-1.876-2.465-1.876l-2.02-4.654m37.275 5.286s-11.229-4.194-13.237-4.947c-1.934-.724.322-2.014.322-2.014l16.565-10.283s1.6-.953.977-1.834l-1.237-1.742c-.442-.556-1.593.092-1.593.092l-3.466 2.075m5.911 8.327l.592.27m1.505.914l.522.391m1.33 1.28l.411.51m.976 1.476l.297.585m.643 1.739l.166.635m.232 1.762l.017.658m-.15 1.851l-.14.641m-.533 1.693l-.266.6m-.943 1.592l-.39.526m-1.209 1.29l-.5.418m-1.526 1.03l-.578.301m-1.644.623l-.627.171m-1.819.245l-.65.013m-1.75-.145l-.634-.138m-1.747-.565l-.592-.27m-1.505-.914l-.522-.392m-1.331-1.28l-.41-.509m-.976-1.477l-.297-.584m-.643-1.74l-.166-.635"/><path d="M63.357 39.945l-.017-.658-.473.048c0 .099-.01.195-.007.294.003.1.017.195.022.293l.475.023c.033.601.108 1.19.231 1.761l-.451.152c.042.192.099.379.15.567l.467-.083c.17.602.382 1.184.644 1.739l-.403.25c.084.176.172.35.265.52l.435-.186c.285.521.614 1.013.975 1.477l-.34.334c.12.153.237.31.364.457l.387-.282c.407.465.853.892 1.33 1.28l-.257.405c.15.122.31.234.467.347l.313-.36c.476.342.976.651 1.505.914l-.163.449c.173.086.35.164.528.24l.227-.42c.56.238 1.145.425 1.747.566l-.059.476c.188.043.374.093.566.127l.128-.465c.569.097 1.155.141 1.75.145l.045.478c.111 0 .22.012.332.009.084-.002.165-.015.248-.02l.024-.48c.621-.033 1.23-.112 1.82-.245l.151.457c.19-.044.373-.104.559-.156l-.084-.472c.569-.166 1.12-.37 1.644-.623l.246.41c.174-.085.346-.176.515-.27l-.183-.44a10.9 10.9 0 001.525-1.031l.331.343c.151-.122.305-.241.449-.371l-.279-.39c.437-.397.84-.828 1.21-1.29l.399.263c.12-.152.232-.312.346-.47l-.356-.319a11.02 11.02 0 00.943-1.593l.444.164a11.8 11.8 0 00.238-.535l-.416-.228c.222-.544.398-1.11.534-1.692l.47.06c.043-.19.095-.377.129-.57l-.46-.132c.103-.602.148-1.222.15-1.852l.473-.048c0-.098.01-.195.007-.294-.003-.098-.017-.194-.022-.292l-.475-.023a11.217 11.217 0 00-.232-1.762l.452-.152c-.043-.192-.099-.378-.151-.566l-.467.082a11.054 11.054 0 00-.643-1.738l.403-.25a11.44 11.44 0 00-.265-.522l-.435.187a11.071 11.071 0 00-.975-1.477l.34-.334c-.12-.153-.237-.31-.364-.456l-.387.28a10.99 10.99 0 00-1.33-1.279l.258-.405c-.152-.122-.31-.233-.468-.347l-.313.36a10.815 10.815 0 00-1.505-.914l.163-.45c-.173-.084-.35-.163-.528-.24l-.226.42a10.758 10.758 0 00-1.748-.565l.059-.477c-.188-.042-.374-.092-.566-.125l-.128.464.635.138m-47.878 3.421l.411.51m.975 1.476l.297.585m.644 1.739l.166.635m.231 1.762l.018.658m-.15 1.851l-.14.641m-.534 1.693l-.265.6m-.943 1.592l-.39.526m-1.21 1.29l-.5.418m-1.526 1.03l-.577.301m-1.644.623l-.627.171m-1.82.245l-.65.013m-1.749-.145l-.635-.138m-1.747-.565l-.592-.27m-1.505-.914l-.522-.392m-1.33-1.28l-.411-.509m-.975-1.477l-.297-.584m-.644-1.74l-.166-.635m-.232-1.761l-.017-.658m.15-1.852l.14-.64m.533-1.694l.266-.6m.943-1.593l.39-.526m1.21-1.288l.5-.419m1.526-1.03l.577-.301m1.644-.622l.627-.172m1.82-.245l.649-.013m1.75.145l.634.137.06-.475c-.189-.043-.375-.093-.567-.127l-.127.465a10.98 10.98 0 00-1.75-.145l-.045-.479c-.112 0-.22-.01-.332-.008-.085.003-.166.016-.249.02l-.024.48c-.622.033-1.23.112-1.819.245l-.152-.457c-.19.044-.373.104-.558.157l.083.472a10.68 10.68 0 00-1.644.622l-.245-.41a11.42 11.42 0 00-.515.27l.183.44c-.54.3-1.047.647-1.526 1.031l-.33-.343c-.152.122-.305.242-.45.372l.28.39a11 11 0 00-1.21 1.288l-.4-.262c-.12.153-.232.312-.345.47l.355.318a11.082 11.082 0 00-.942 1.594l-.445-.164c-.083.176-.162.355-.237.535l.415.228c-.222.543-.398 1.11-.534 1.693l-.469-.062c-.044.19-.095.379-.13.572l.46.131a11.144 11.144 0 00-.15 1.852l-.473.048c0 .099-.009.195-.006.294.002.1.017.195.022.293l.474.023c.033.601.108 1.19.232 1.762l-.452.15c.043.193.1.38.151.568l.467-.083c.169.602.382 1.184.643 1.74l-.403.248c.084.177.173.351.265.522l.435-.187c.286.521.615 1.012.976 1.477l-.34.334c.12.153.236.31.364.456l.386-.28c.408.464.854.891 1.331 1.28l-.258.404c.151.122.31.233.467.347l.313-.36c.477.342.977.651 1.505.914l-.163.449c.174.085.35.164.529.24l.226-.42c.56.238 1.145.425 1.747.566l-.058.476c.188.043.374.093.565.127l.128-.465c.57.097 1.155.141 1.75.145l.046.478c.11.001.22.012.332.01.083-.003.164-.017.248-.02l.024-.48a10.89 10.89 0 001.82-.246l.15.457c.19-.043.373-.103.56-.157l-.085-.471a10.72 10.72 0 001.645-.623l.245.41c.175-.085.346-.176.516-.269l-.184-.442c.54-.3 1.047-.646 1.526-1.03l.33.343c.152-.122.305-.241.45-.372l-.28-.39c.437-.396.841-.827 1.21-1.289l.399.263c.12-.153.233-.312.346-.47l-.355-.319c.355-.502.673-1.032.943-1.593l.443.164c.084-.176.164-.354.238-.535l-.416-.228c.223-.544.4-1.11.534-1.693l.47.062c.043-.19.096-.378.13-.572l-.46-.13a11.22 11.22 0 00.15-1.853l.472-.048c0-.098.01-.195.007-.294-.002-.099-.017-.195-.022-.293l-.475-.022a11.21 11.21 0 00-.231-1.762l.452-.152c-.043-.192-.1-.378-.151-.567l-.467.084a11.027 11.027 0 00-.644-1.74l.404-.25a11.77 11.77 0 00-.266-.521l-.435.187a11.016 11.016 0 00-.975-1.477l.34-.334c-.12-.153-.236-.309-.364-.456l-.387.28a10.995 10.995 0 00-1.33-1.28l.258-.404c-.151-.122-.31-.233-.468-.347"/></symbol>
<symbol id="i-rs-newsletter-motocross" height="18" width="32" xmlns="http://www.w3.org/2000/svg"><path d="M7.872 8.25c-.064-.015-.128-.032-.194-.044l-.044.161a3.712 3.712 0 00-.601-.05l-.016-.165c-.038 0-.075-.004-.114-.003-.029 0-.056.005-.085.006l-.008.166a3.72 3.72 0 00-.625.085l-.052-.158c-.065.015-.128.036-.192.054l.029.163a3.688 3.688 0 00-.565.215l-.085-.14c-.06.03-.118.06-.176.093l.062.152a3.66 3.66 0 00-.524.356L4.57 9.02c-.052.043-.105.084-.155.129l.096.135a3.71 3.71 0 00-.415.444l-.137-.09c-.042.053-.08.108-.12.162l.123.11a3.833 3.833 0 00-.324.55l-.153-.056a4.48 4.48 0 00-.081.185l.143.078a3.81 3.81 0 00-.184.585l-.161-.021c-.015.065-.033.13-.044.197l.157.045a3.89 3.89 0 00-.051.64l-.164.017c0 .035-.004.068-.003.102 0 .034.006.067.008.101l.163.008c.011.208.037.411.08.608l-.156.053c.015.066.034.13.052.196l.16-.03c.058.209.131.41.221.601l-.138.086c.029.061.06.122.091.18l.15-.064c.097.18.21.35.335.51l-.117.115c.04.053.08.107.125.158l.133-.097c.14.16.293.308.457.442l-.089.14c.052.042.107.08.16.12l.108-.125c.164.118.335.225.517.316l-.056.155c.06.03.12.057.182.083l.077-.145c.193.082.393.147.6.195l-.02.165c.065.015.129.032.195.044l.044-.16c.195.033.396.048.6.05l.016.164c.039 0 .076.004.115.003.028 0 .056-.005.085-.007l.008-.165a3.72 3.72 0 00.625-.085l.052.158c.065-.015.128-.036.192-.054l-.029-.163c.195-.057.385-.128.565-.215l.084.141c.06-.03.119-.06.177-.093l-.063-.152c.185-.104.36-.223.524-.356l.114.119c.052-.043.104-.084.154-.129l-.096-.135a3.8 3.8 0 00.416-.445l.137.091c.042-.053.08-.107.119-.162l-.122-.11a3.81 3.81 0 00.324-.55l.152.056c.029-.06.056-.122.082-.185l-.143-.078a3.86 3.86 0 00.184-.585l.162.021c.015-.065.032-.13.044-.197l-.158-.045a3.89 3.89 0 00.052-.64l.162-.016.003-.102c-.001-.034-.007-.067-.008-.101l-.163-.008a3.867 3.867 0 00-.08-.608l.156-.053c-.015-.066-.035-.13-.052-.195l-.16.028a3.821 3.821 0 00-.222-.6l.139-.087a3.867 3.867 0 00-.091-.18l-.15.065c-.098-.18-.21-.35-.335-.51l.117-.115c-.041-.053-.081-.107-.125-.158l-.133.097a3.786 3.786 0 00-.457-.442l.089-.14c-.052-.042-.107-.08-.16-.12l-.109.125.18.135m14.415 1.349a2.25 2.25 0 011.191-.642c1.234-.237 2.422.59 2.655 1.845.232 1.255-.58 2.464-1.813 2.7-1.234.238-2.422-.589-2.654-1.844M8.845 5.84s-.76-.314-1.973-.314c-1.657 0-2.628 1.005-2.628 1.005m5.953.43s1.15 1.9 1.4 2.218c.35.448 1.377.335 1.822-.233.332-.423 1.205-1.563 1.205-1.563"/><path d="M8.506 10.422c.47.42.768 1.037.768 1.725 0 1.266-1.009 2.293-2.253 2.293-1.245 0-2.254-1.027-2.254-2.293 0-1.267 1.01-2.294 2.254-2.294.059 0 .118.003.176.007m4.173-5.547s2.074.171 2.834.802c.532.442.978 1.416.978 1.416s.165.36.478.303a800.55 800.55 0 006.174-1.168c1.184-.235 1.415-1.05 2.038-1.352.47-.229 4.302-.7 4.302-.7"/><path d="M13.902 2.15H12.28c-.733 0-.942.483-.942.483l-4.49 9.741m12.338-1.243s-1.726 1.475-2.535 1.475h-2.516c-.58 0-.847-.648-.847-.648l-.694-1.608M25.4 12.176l-4.547-1.708c-.665-.25.11-.696.11-.696l5.69-3.55s.55-.33.336-.634l-.425-.602c-.151-.192-.547.032-.547.032l-1.19.716m2.029 2.876l.203.093m.518.316l.179.135m.457.442l.141.176m.335.51l.102.202m.221.6l.057.22m.08.608l.006.227m-.052.64l-.048.221m-.183.585l-.091.207m-.324.55l-.134.181m-.416.445l-.172.145m-.524.356l-.198.104m-.565.215l-.215.059m-.625.085l-.223.004m-.601-.05l-.218-.048m-.601-.195l-.203-.093m-.517-.316l-.179-.135m-.457-.442l-.142-.176m-.335-.51l-.102-.202m-.221-.6l-.057-.22"/><path d="M21.673 12.341l-.006-.227-.163.016c0 .034-.003.068-.002.102s.006.067.008.101l.163.008c.011.208.037.411.08.608l-.156.053c.015.066.034.13.052.195l.16-.028c.058.208.131.409.221.6l-.138.087.09.18.15-.065c.098.18.211.35.335.51l-.117.116c.042.052.082.106.126.157l.133-.097c.14.16.292.308.457.442l-.089.14c.052.042.107.08.16.12l.108-.125c.164.119.335.225.517.316l-.056.155c.06.03.12.057.182.083l.077-.145c.193.082.394.147.6.195l-.02.165c.065.015.129.032.195.044l.044-.16c.195.033.396.048.6.05l.016.164c.039 0 .076.004.114.003.03 0 .057-.005.086-.007l.008-.165a3.72 3.72 0 00.625-.085l.052.158c.065-.015.128-.036.192-.054l-.029-.163c.195-.057.384-.128.565-.215l.084.141a2.7 2.7 0 00.177-.093l-.063-.152c.186-.104.36-.223.524-.356l.114.119c.052-.043.105-.084.154-.129l-.096-.134a3.8 3.8 0 00.416-.446l.137.091c.041-.052.08-.108.119-.162l-.122-.11a3.81 3.81 0 00.323-.55l.153.056c.029-.06.056-.122.082-.185l-.143-.078c.076-.188.137-.384.183-.585l.162.021c.015-.065.032-.13.044-.197l-.158-.045c.036-.208.051-.422.052-.64l.162-.016c0-.034.003-.068.002-.102 0-.034-.005-.067-.007-.101l-.163-.008a3.893 3.893 0 00-.08-.608l.155-.053c-.014-.066-.033-.13-.051-.195l-.16.028a3.83 3.83 0 00-.222-.6l.139-.087a3.959 3.959 0 00-.092-.18l-.149.065a3.825 3.825 0 00-.335-.51l.117-.115c-.041-.053-.081-.107-.125-.158l-.133.097a3.784 3.784 0 00-.457-.442l.089-.14c-.052-.042-.107-.08-.161-.12l-.107.125a3.711 3.711 0 00-.517-.316l.056-.155c-.06-.03-.12-.057-.182-.083l-.078.145a3.682 3.682 0 00-.6-.195l.02-.165c-.064-.015-.128-.032-.194-.043l-.044.16.218.048M9.809 9.596l.141.176m.335.51l.102.202m.221.6l.057.22m.08.608l.006.227m-.052.64l-.048.221m-.183.585l-.091.207m-.324.55l-.134.181m-.416.445l-.172.145m-.524.356l-.198.104m-.565.215l-.215.059m-.625.085l-.223.004m-.601-.05l-.218-.048m-.601-.195l-.203-.093m-.517-.316l-.179-.135m-.457-.442l-.142-.176m-.334-.51l-.103-.202m-.221-.6l-.057-.22m-.079-.608l-.006-.227m.051-.64l.048-.221m.184-.585l.091-.207m.324-.55l.134-.182m.415-.444l.172-.145m.524-.356l.199-.104m.565-.215l.215-.059m.625-.085l.223-.004m.601.05l.218.047.02-.164c-.064-.015-.128-.032-.194-.044l-.044.161a3.712 3.712 0 00-.601-.05l-.016-.165c-.038 0-.075-.004-.114-.003-.029 0-.056.005-.085.006l-.008.166a3.717 3.717 0 00-.625.085l-.052-.158c-.066.015-.128.036-.192.054l.029.163a3.696 3.696 0 00-.565.215l-.085-.14c-.06.03-.118.06-.177.093l.063.152a3.75 3.75 0 00-.524.356L4.57 9.02c-.052.043-.105.084-.155.129l.096.135a3.78 3.78 0 00-.415.444l-.137-.09c-.042.053-.08.108-.12.162l.123.11a3.832 3.832 0 00-.324.55l-.153-.056a3.99 3.99 0 00-.081.185l.143.078a3.831 3.831 0 00-.184.585l-.161-.021c-.015.065-.033.13-.045.197l.158.045c-.035.208-.05.422-.051.64l-.164.017c0 .035-.003.068-.002.102 0 .034.006.067.008.101l.163.008c.011.208.037.411.08.608l-.156.053c.015.066.034.13.052.196l.16-.03c.058.209.131.41.221.601l-.138.086c.029.061.06.122.09.18l.15-.064c.098.18.211.35.335.51l-.116.115c.041.053.08.107.125.158l.133-.097c.14.16.293.308.457.442l-.09.14c.053.042.107.08.162.12l.107-.125c.164.118.336.225.517.316l-.056.155c.06.03.12.057.182.083l.077-.145c.193.082.394.147.6.195l-.02.165c.065.015.129.032.195.044l.044-.16c.195.033.396.048.6.05l.016.164c.039 0 .076.004.114.003.03 0 .057-.005.086-.007l.008-.165c.213-.012.423-.039.625-.085l.052.158c.065-.015.128-.036.192-.054l-.029-.163c.195-.057.384-.128.565-.215l.084.141c.06-.03.119-.06.177-.093l-.063-.152c.186-.104.36-.223.524-.356l.114.119c.052-.043.104-.084.154-.129l-.096-.134c.15-.137.29-.286.416-.446l.137.091c.041-.053.08-.107.119-.162l-.122-.11a3.83 3.83 0 00.324-.55l.152.056c.029-.06.056-.122.082-.185l-.143-.078c.076-.188.137-.383.183-.585l.162.021c.015-.065.033-.13.044-.197l-.157-.045c.035-.208.05-.422.05-.64l.163-.016c0-.034.003-.068.002-.102 0-.034-.005-.067-.007-.101l-.163-.008a3.89 3.89 0 00-.08-.608l.155-.053c-.014-.066-.034-.13-.051-.195l-.16.028a3.821 3.821 0 00-.222-.6l.139-.087a4.073 4.073 0 00-.092-.18l-.149.065c-.098-.18-.21-.35-.335-.51l.117-.115c-.041-.053-.081-.107-.125-.158l-.133.097a3.786 3.786 0 00-.457-.442l.089-.14c-.052-.042-.107-.08-.161-.12"/></symbol>
<symbol id="i-rs-newsletter-scooter" height="18" width="32" xmlns="http://www.w3.org/2000/svg"><path d="M9.31 13.27c0 .842-.687 1.524-1.533 1.524a1.528 1.528 0 01-1.533-1.523c0-.841.686-1.523 1.533-1.523.846 0 1.533.682 1.533 1.523zm18.016-2.494l.608 1.403m-5.32 2.849a2.616 2.616 0 001.927.844 2.61 2.61 0 002.619-2.601 2.6 2.6 0 00-.16-.89"/><path d="M23.571 14.45c.264.215.602.344.97.344a1.528 1.528 0 001.5-1.835m-1.484-3.478a3.827 3.827 0 00-3.754 3.044m-5.755-9.378h-1.43c-.566 0-.71.467-.71.467l-.29.679"/><path d="M10.78 5.159L9.198 8.3s-1.847.007-3.224 1.235c0 0-1.036.996.2.446l.006-.003a3.678 3.678 0 011.598-.367 3.668 3.668 0 013.65 3.227v-.001s.082 1.711 1.278 1.711h8.37l6.25-3.772s-.384-1.166-1.774-2.012l.343-.753s.339-1.024-1.385-1.152-3.036-.128-5.559 1.165h-1.973s-1.123-.26-1.63 1.329c-.508 1.588.364 2.432 1.237 2.702 0 0 .027.47-.08.9a.868.868 0 01-.174.25c-.253.186-.675.19-.675.19h-2.255c-.427 0-.514-.588-.514-.588h-.001a5.084 5.084 0 00-2.105-3.67c-.193-.134-.048-.432-.048-.432l1.885-4.412"/><path d="M7.996 10.67a2.62 2.62 0 00-2.848 2.6 2.62 2.62 0 002.629 2.613 2.62 2.62 0 002.629-2.612c0-.712-.288-1.357-.753-1.829"/></symbol>
<symbol id="i-rs-newsletter-sport" height="18" width="32" xmlns="http://www.w3.org/2000/svg"><path d="M23.21 11.99a2.598 2.598 0 012.6-2.614c1.435.007 2.599 1.189 2.599 2.639s-1.164 2.62-2.6 2.613-2.6-1.188-2.6-2.639zm-1.18-1.685s-1.019-.63-1.234-1.054a5.986 5.986 0 01-.364-.993s-.031-.19.12-.328c.205-.185 5.029-2.511 5.983-3.025.953-.515 1.534-1.359 1.548-1.486s-1.842-.337-3.698.035c-.388.178-.556 1.005-.796 1.245-.217.217-2.517.962-4.55.783-.638-1.02-1.793-2.339-2.663-2.364-.87-.026-4.596.528-5.088.822-.493.294-1.314 1.241-1.314 1.241"/><path d="M6.909 4.017s6.723 2.456 7.75 3.215c0 0 1.206.842 1.914 2.673.707 1.832.724 2.696 1.283 2.699.56.003 2.382-.386 2.382-.386"/><path d="M20.646 14.01s-8.549.18-9.311.173c0 0-.4-.006-.382-.426s.221-1.716-.038-2.295c-.26-.579-3.434-3.848-4.105-4.008-.503-.12-.989-.135-.989-.135-.652-.008-.31-.636-.31-.636 1.029-3.42 4.502-5.533 4.502-5.533"/><path d="M4.352 12.364c0-1.502 1.205-2.713 2.692-2.706 1.486.007 2.692 1.23 2.692 2.732s-1.206 2.713-2.692 2.706c-1.487-.007-2.692-1.23-2.692-2.732z"/><path d="M5.44 8.786a3.911 3.911 0 00-2.292 3.572c0 2.173 1.744 3.943 3.896 3.954a3.844 3.844 0 002.885-1.284m11.764-3.28c-.005.078-.012.155-.012.234 0 2.303 1.848 4.178 4.128 4.19 2.28.01 4.128-1.847 4.128-4.15 0-2.302-1.848-4.178-4.128-4.19a4.101 4.101 0 00-3.778 2.474"/></symbol>
<symbol id="i-rs-newsletter-touring" height="18" width="32" xmlns="http://www.w3.org/2000/svg"><path d="M12.086 9.11s-2.882-4.656-3.3-4.944c-.566-.39-2.697.003-2.697.003"/><path d="M8.927 1.15s-1.3 1.041-2.295 2.222c-.996 1.18-2.94 3.978-2.408 4.398.455.36 3.027.807 4.316 1.988.913.835 1.582 2.458 1.582 3.35 0 .89-1.131 1.932-.55 1.939l7.96.087c2.764.03 10.753-1.672 12.344-2.004.255-.053.36-.24.36-.24l.8-1.792s.163-.243-.195-.147c-1.85.498-10.835 2.882-13.032 2.858 0 0-1.426.038-2.023-.082-1.117-.226-2.754-2.967-2.754-2.967"/><path d="M31.003 9.697c-.277.278-5.938 1.336-6.381 1.33-.444-.004-2.377-2.069-2.377-2.894s1.81-2.18 2.535-2.172c.724.008 4.254.688 4.616 1.059.363.37 1.884 2.4 1.607 2.677zm-9.25-2.305s-2.31.59-3.352.81C17.183 8.46 16.73 4.4 14.37 4.373c-1.72-.018-4.645.928-4.645.928m6.493 3.489c-1.45-1.374-3.212-1.023-4.791-.718"/><path d="M29.566 7.113s1.512-.173 1.677-.338c.164-.164-.402-3.885-.578-4.103-.21-.259-3.239-.014-3.239-.014s-1.097.068-1.466 1.168c-.324.967-.456 2.155-.456 2.155M7.711 13.412c0-1.552-1.242-2.824-2.775-2.84-1.533-.018-2.776 1.227-2.776 2.78 0 1.552 1.243 2.825 2.776 2.841 1.533.017 2.775-1.228 2.775-2.78z"/><path d="M5.256 9.565a3.799 3.799 0 00-.32-.02c-2.093-.021-3.789 1.678-3.789 3.797s1.696 3.855 3.789 3.878a3.724 3.724 0 003.201-1.757l-.007.001m15.154.33a3.807 3.807 0 002.92 1.426 3.743 3.743 0 003.632-2.71"/><path d="M24.38 15.193c.466.481 1.11.785 1.825.793a2.537 2.537 0 002.39-1.62"/></symbol>
<symbol id="i-rs-newsletter-trail" height="18" width="32" xmlns="http://www.w3.org/2000/svg"><path d="M12.023 10.528s1.177 2.732 1.604 2.924c.427.193 4.579-.886 4.579-.886.87-.264 1.256-1.622 1.256-1.622l5.53-3.018c.43-.23.34-.884.938-1.093l1.968-.691c.254-.085.494-.854.494-.854l-6.084 1.337c-.29.071-.696.835-1.08.96l-3.125.961S15.8 5.468 14.469 5.468c-.783 0-3.11.2-3.11.2s-1.564 3.287-1.564 3.96c0 .672 2.098 5.617 2.941 5.617s6.95-1.277 6.95-1.277l5.98-3.132s.504-.231.504-.569v-.953c0-.533-.505-.229-.505-.229l-4.583 2.473m5.543-4.969l2.001 1.563m-9.164 2.792l-.666-1.119m-9.448 2.49c.24.462.377.989.377 1.548 0 1.837-1.472 3.325-3.289 3.325-1.816 0-3.288-1.488-3.288-3.325a3.318 3.318 0 012.616-3.256"/><path d="M7.948 12.946c.164.272.26.591.26.933a1.78 1.78 0 01-1.772 1.79 1.78 1.78 0 01-1.77-1.79c0-.865.606-1.587 1.413-1.754m20.902-.667A3.333 3.333 0 0128 13.863c0 1.836-1.473 3.325-3.29 3.325-1.702 0-3.103-1.308-3.271-2.985"/><path d="M25.245 12.174a1.79 1.79 0 011.235 1.708 1.78 1.78 0 01-1.77 1.79 1.78 1.78 0 01-1.771-1.79m5.252-8.544l1.502-.373-.362-1.79c-.149-.812-.694-.67-.694-.67l-2.76.556s-.555.034-.4.886l.345 1.846M8.962 4.535l1.942 1.1s.108.063.456.034"/><path d="M6.436 13.898l2.792-5.646s.162-.204-.11-.199c-.273.006-2.973.39-3.093.368s.986-3.787 3.993-7.272"/></symbol>
<symbol id="i-rs-newsletter-vintage" height="18" width="32" xmlns="http://www.w3.org/2000/svg"><path d="M22.687 10.534a3.736 3.736 0 013.168-1.738c2.058 0 3.725 1.641 3.725 3.665 0 2.025-1.667 3.666-3.725 3.666a3.74 3.74 0 01-2.98-1.466M7.313 8.04a5.109 5.109 0 00-1.209-.145 5.042 5.042 0 00-3.265 1.19"/><path d="M5.551 12.51l4.826-7.155h-1.12V2.59h.983c.894 0 .851 1.072.851 1.072l-.005.612 1.109-1.624s.261-.504 1.274-.504m13.216 3.38l-3.165.841c-1.187.379-4.46.659-4.46.659l-.43-.586c-.74-.99-4.967-1.51-5.658-1.633-1.145-.203-1.564.47-1.564 1.14s.1 1.579.802 2.073c.25.176 1.224.302 2.497.39 0 0 .047.774.222 1.338.346 1.11 1.004.95 1.004.95l2.04-.273s.418-.038.347-.638l-.125-1.068s3.932-.077 5.65-.56c0 0 3.467-1.037 3.793-1.13.325-.092.132-.373.132-.373l-.694-1.026s-.128-.175-.391-.105zm-10.666 7.027l2.419-.319m-2.561-.576l2.42-.319"/><path d="M19.75 11.996l7.616-1.113c.825-.13.877.272.877.272l.148.855s.11.5-.7.566l-11.937 1.413c-1.932.226-2.608-1.235-2.608-1.235l-2.042-3.709m13.279 4.834a2.07 2.07 0 001.472.612 2.07 2.07 0 001.783-1.007m-21.785-3.19c-1.217 0-2.203.97-2.203 2.168 0 1.197.986 2.167 2.203 2.167 1.216 0 2.202-.97 2.202-2.167 0-.501-.172-.962-.462-1.329M29.915 8.52a5.032 5.032 0 00-1.551-.894"/><path d="M3.446 9.682a3.627 3.627 0 00-1.298 2.776c0 2.021 1.666 3.66 3.72 3.66 2.055 0 3.72-1.639 3.72-3.66a3.61 3.61 0 00-.821-2.294"/></symbol>
<symbol id="i-rs-scooter" height="61" width="95" xmlns="http://www.w3.org/2000/svg"><path d="M25.704 41.19c0 2.473-2.023 4.476-4.518 4.476-2.496 0-4.52-2.003-4.52-4.475 0-2.472 2.024-4.476 4.52-4.476 2.495 0 4.518 2.004 4.518 4.476zm53.11-7.333l1.79 4.124m-15.682 8.374a7.721 7.721 0 005.681 2.483c4.263 0 7.72-3.424 7.72-7.648 0-.92-.173-1.798-.474-2.615"/><path d="M67.745 44.656a4.522 4.522 0 002.858 1.01c2.496 0 4.519-2.003 4.519-4.476 0-.313-.034-.62-.096-.916M70.65 30.05c-5.463 0-10.02 3.844-11.068 8.95M42.621 11.431h-4.219c-1.666 0-2.091 1.372-2.091 1.372l-.855 1.996"/><path d="M30.041 17.345l-4.668 9.236s-5.443.02-9.502 3.628c0 0-3.053 2.927.59 1.311l.016-.009a10.868 10.868 0 014.711-1.078c5.558 0 10.132 4.146 10.76 9.485v-.004s.243 5.032 3.767 5.032h24.672l18.426-11.089s-1.132-3.428-5.228-5.913l1.011-2.215s.998-3.009-4.085-3.385c-5.082-.377-8.948-.376-16.385 3.425h-5.818s-3.309-.765-4.806 3.904c-1.497 4.67 1.075 7.149 3.648 7.943 0 0 .08 1.384-.233 2.645a2.55 2.55 0 01-.515.736c-.746.547-1.989.556-1.989.556h-6.65c-1.256 0-1.514-1.726-1.514-1.726l-.003-.001c-.405-4.436-2.754-8.315-6.205-10.786l.002-.003c-.571-.39-.143-1.267-.143-1.267l5.556-12.97"/><path d="M21.831 33.546a7.986 7.986 0 00-.645-.032c-4.28 0-7.75 3.437-7.75 7.676 0 4.24 3.47 7.678 7.75 7.678 4.28 0 7.75-3.437 7.75-7.678a7.615 7.615 0 00-2.22-5.374"/></symbol>
<symbol id="i-rs-sport" height="61" width="95" xmlns="http://www.w3.org/2000/svg"><path d="M66.986 40.132c0-4.24 3.398-7.66 7.588-7.64 4.19.02 7.588 3.475 7.588 7.715s-3.397 7.661-7.588 7.64c-4.19-.02-7.588-3.474-7.588-7.715zm-3.438-4.922s-2.974-1.84-3.601-3.08c-.628-1.242-1.064-2.904-1.064-2.904s-.092-.554.352-.959c.595-.542 14.675-7.344 17.46-8.847 2.784-1.503 4.478-3.972 4.518-4.343.041-.372-5.375-.987-10.792.102-1.132.52-1.625 2.938-2.325 3.641-.631.634-7.344 2.813-13.28 2.288-1.861-2.98-5.232-6.838-7.772-6.912-2.54-.075-13.413 1.544-14.851 2.404-1.439.86-3.834 3.63-3.834 3.63"/><path d="M19.408 16.821s19.624 7.183 22.62 9.4c0 0 3.523 2.463 5.588 7.818 2.064 5.355 2.112 7.882 3.745 7.89 1.632.009 6.952-1.127 6.952-1.127"/><path d="M59.505 46.042s-24.952.527-27.178.503c0 0-1.164-.015-1.114-1.243.051-1.228.646-5.019-.112-6.711-.757-1.693-10.022-11.253-11.98-11.72-1.467-.348-2.887-.394-2.887-.394-1.904-.024-.904-1.859-.904-1.859 2.999-10.001 13.14-16.18 13.14-16.18"/><path d="M11.945 41.227c0-4.391 3.518-7.933 7.857-7.912 4.34.022 7.858 3.598 7.858 7.99 0 4.39-3.518 7.933-7.858 7.912-4.339-.022-7.857-3.599-7.857-7.99z"/><path d="M15.122 30.766a11.437 11.437 0 00-6.69 10.444c0 6.354 5.09 11.53 11.37 11.56 3.345.018 6.342-1.438 8.423-3.753m34.334-9.588c-.012.227-.034.45-.034.681 0 6.734 5.395 12.219 12.05 12.252 6.654.033 12.048-5.399 12.048-12.133 0-6.733-5.394-12.219-12.049-12.251-4.928-.025-9.16 2.952-11.026 7.232"/></symbol>
<symbol id="i-rs-touring" height="61" width="95" xmlns="http://www.w3.org/2000/svg"><path d="M35.402 29.863s-8.422-13.7-9.643-14.547c-1.657-1.149-7.886.01-7.886.01"/><path d="M26.17 6.439s-3.8 3.066-6.71 6.54c-2.91 3.475-8.59 11.705-7.037 12.942 1.33 1.06 8.846 2.374 12.615 5.847 2.668 2.46 4.624 7.234 4.624 9.856s-3.306 5.688-1.607 5.706c1.699.02 23.264.257 23.264.257 8.08.089 31.432-4.92 36.081-5.896.746-.157 1.05-.704 1.05-.704l2.343-5.276s.475-.713-.57-.43c-5.408 1.463-31.67 8.477-38.092 8.407 0 0-4.17.114-5.915-.241-3.263-.663-8.047-8.728-8.047-8.728"/><path d="M90.695 31.59c-.81.817-17.355 3.93-18.652 3.915-1.298-.014-6.946-6.09-6.946-8.517s5.292-6.415 7.408-6.392c2.117.023 12.436 2.025 13.494 3.116 1.059 1.09 5.507 7.061 4.696 7.878zm-27.038-6.783s-6.749 1.738-9.795 2.385c-3.561.757-4.886-11.19-11.784-11.266-5.027-.056-13.575 2.728-13.575 2.728M47.48 28.92c-4.237-4.042-9.388-3.01-14.004-2.112"/><path d="M86.494 23.987s4.42-.51 4.9-.994c.48-.484-1.172-11.431-1.687-12.073-.612-.762-9.466-.043-9.466-.043s-3.208.202-4.286 3.438c-.949 2.846-1.333 6.34-1.333 6.34M22.617 42.523c0-4.568-3.633-8.311-8.114-8.36-4.48-.05-8.113 3.613-8.113 8.181s3.632 8.312 8.113 8.361c4.481.05 8.114-3.614 8.114-8.182z"/><path d="M15.441 31.203a11.03 11.03 0 00-.938-.059c-6.115-.067-11.072 4.933-11.072 11.167s4.957 11.343 11.072 11.41c3.944.044 7.397-2.026 9.359-5.169l-.023.003m44.293.971c2.031 2.527 5.101 4.158 8.538 4.195 5.023.056 9.26-3.311 10.614-7.97"/><path d="M71.335 47.76c1.362 1.418 3.246 2.312 5.335 2.335 3.174.035 5.885-1.944 6.986-4.768"/></symbol>
<symbol id="i-rs-trail" height="61" width="95" xmlns="http://www.w3.org/2000/svg"><path d="M34.3 34.034s3.432 8.039 4.677 8.606c1.244.566 13.346-2.61 13.346-2.61 2.536-.776 3.662-4.772 3.662-4.772l16.118-8.88c1.254-.675.992-2.6 2.735-3.215l5.739-2.033c.74-.25 1.439-2.513 1.439-2.513L64.28 22.552c-.846.209-2.027 2.455-3.146 2.824l-9.11 2.828s-6.71-9.059-10.592-9.059c-2.282 0-9.064.592-9.064.592s-4.564 9.668-4.564 11.645c0 1.978 6.115 16.53 8.573 16.53s20.259-3.759 20.259-3.759l17.433-9.216s1.466-.68 1.466-1.672v-2.806c0-1.568-1.47-.672-1.47-.672l-13.36 7.276m16.162-14.617l5.831 4.599m-26.713 8.213l-1.94-3.29m-27.542 7.324a9.904 9.904 0 011.1 4.556c0 5.404-4.291 9.784-9.586 9.784s-9.587-4.38-9.587-9.784c0-4.719 3.273-8.657 7.628-9.58"/><path d="M22.423 41.15c.479.8.755 1.74.755 2.745 0 2.91-2.31 5.268-5.161 5.268-2.85 0-5.162-2.359-5.162-5.268 0-2.546 1.77-4.67 4.121-5.161m60.928-1.962a9.853 9.853 0 012.965 7.076c0 5.403-4.292 9.784-9.586 9.784-4.964 0-9.047-3.85-9.538-8.784"/><path d="M72.842 38.88c2.089.674 3.602 2.669 3.602 5.023 0 2.91-2.31 5.268-5.162 5.268-2.85 0-5.161-2.358-5.161-5.268m15.31-25.14l4.378-1.096-1.055-5.267c-.434-2.39-2.023-1.974-2.023-1.974l-8.045 1.637s-1.617.1-1.17 2.608l1.01 5.43M25.38 16.402l5.658 3.234s.317.187 1.33.101"/><path d="M18.017 43.95l8.137-16.613s.472-.6-.323-.584c-.794.016-8.663 1.147-9.013 1.082-.35-.065 2.875-11.141 11.638-21.396"/></symbol>
<symbol id="i-rs-vintage" height="61" width="95" xmlns="http://www.w3.org/2000/svg"><path d="M66.607 34.711c1.924-3.02 5.362-5.031 9.283-5.031 6.027 0 10.912 4.752 10.912 10.613 0 5.862-4.885 10.614-10.912 10.614-3.57 0-6.74-1.667-8.73-4.245M21.563 27.49a15.134 15.134 0 00-3.542-.418c-3.654 0-6.994 1.3-9.565 3.447"/><path d="M16.405 40.437l14.138-20.723h-3.281V11.71h2.88c2.618 0 2.493 3.106 2.493 3.106l-.015 1.772 3.249-4.706s.764-1.46 3.73-1.46m38.72 9.786l-9.272 2.438c-3.477 1.097-13.066 1.907-13.066 1.907l-1.26-1.695c-2.165-2.87-14.553-4.374-16.577-4.73-3.352-.588-4.582 1.363-4.582 3.3 0 1.939.294 4.574 2.35 6.003.736.511 3.588.875 7.317 1.133 0 0 .136 2.238.65 3.872 1.014 3.215 2.94 2.754 2.94 2.754l5.976-.795s1.226-.109 1.019-1.846l-.369-3.092s11.52-.224 16.553-1.623c0 0 10.16-3.001 11.114-3.27.954-.27.388-1.082.388-1.082l-2.035-2.97s-.374-.506-1.146-.304zM47.071 40.56l7.088-.925m-7.502-1.666l7.087-.926"/><path d="M58.003 38.944l22.313-3.222c2.415-.377 2.568.79 2.568.79l.436 2.474s.323 1.45-2.054 1.639l-34.972 4.09c-5.658.655-7.64-3.575-7.64-3.575L32.671 30.4m38.906 13.998a6.102 6.102 0 004.313 1.773c2.227 0 4.173-1.173 5.222-2.918m-63.825-9.236c-3.564 0-6.454 2.81-6.454 6.277s2.89 6.277 6.454 6.277c3.564 0 6.454-2.81 6.454-6.277 0-1.45-.507-2.784-1.355-3.847m65.397-7.57a14.786 14.786 0 00-4.545-2.587"/><path d="M10.236 32.246c-2.325 1.945-3.803 4.82-3.803 8.036 0 5.855 4.88 10.602 10.9 10.602 6.02 0 10.9-4.747 10.9-10.602a10.37 10.37 0 00-2.409-6.64"/></symbol>
<symbol id="i-share-on" xmlns="http://www.w3.org/2000/svg" width="20" height="22"><path fill="none" d="M16 1a3 3 0 100 6 3 3 0 000-6zM4 8a3 3 0 100 6 3 3 0 000-6zm12 7a3 3 0 100 6 3 3 0 000-6zm-9.41-2.49l6.83 3.98m-.01-10.98L6.59 9.49"/></symbol>
<symbol id="i-sm-newsletter" height="13" width="16" xmlns="http://www.w3.org/2000/svg"><path d="M2.4 1h11.2c.77 0 1.4.63 1.4 1.4v8.4c0 .77-.63 1.4-1.4 1.4H2.4c-.77 0-1.4-.63-1.4-1.4V2.4C1 1.63 1.63 1 2.4 1z"/><path d="M15 2.4L8 7.3 1 2.4"/></symbol>
</svg>