<svg height="32" viewBox="0 0 32 32" width="32" xmlns="http://www.w3.org/2000/svg"><g style="stroke:#000;stroke-width:1.4;fill:none;fill-rule:evenodd;stroke-linecap:round;stroke-linejoin:round"><circle cx="13" cy="13" r="2"/><path d="m9 16h13" transform="matrix(.70710678 -.70710678 .70710678 .70710678 -6.773864 15.646447)"/><circle cx="18" cy="19" r="2"/><path d="m26.0909091 20.0909091c-.3713815.8414864-.1931808 1.8242908.45 2.4818182l.0818182.0818182c.5121192.5115497.7998727 1.205702.7998727 1.9295454s-.2877535 1.4179957-.7998727 1.9295455c-.5115498.5121192-1.2057021.7998727-1.9295455.7998727s-1.4179956-.2877535-1.9295454-.7998727l-.0818182-.0818182c-.6575274-.6431808-1.6403317-.8213816-2.4818182-.45-.8242781.3532749-1.3600597 1.1623051-1.3636364 2.0590909v.2318182c0 1.5062311-1.2210416 2.7272727-2.7272727 2.7272727s-2.7272727-1.2210416-2.7272727-2.7272727v-.1227273c-.0216046-.9236307-.6056294-1.7401839-1.4727273-2.0590909-.8414864-.3713815-1.8242908-.1931808-2.48181817.45l-.08181818.0818182c-.5115498.5121192-1.20570206.7998727-1.92954546.7998727s-1.41799566-.2877535-1.92954545-.7998727c-.51211921-.5115498-.7998727-1.2057021-.7998727-1.9295455s.28775349-1.4179956.7998727-1.9295454l.08181818-.0818182c.64318074-.6575274.82138153-1.6403317.45-2.4818182-.35327493-.8242781-1.16230511-1.3600597-2.05909091-1.3636364h-.23181818c-1.50623114 0-2.72727273-1.2210416-2.72727273-2.7272727s1.22104159-2.7272727 2.72727273-2.7272727h.12272727c.9236307-.0216046 1.74018385-.6056294 2.05909091-1.4727273.37138153-.8414864.19318074-1.8242908-.45-2.48181817l-.08181818-.08181818c-.51211921-.5115498-.7998727-1.20570206-.7998727-1.92954546s.28775349-1.41799566.7998727-1.92954545c.51154979-.51211921 1.20570205-.7998727 1.92954545-.7998727.72384341 0 1.41799566.28775349 1.92954546.7998727l.08181818.08181818c.65752736.64318074 1.64033168.82138153 2.48181818.45h.1090909c.8242781-.35327493 1.3600597-1.16230511 1.3636364-2.05909091v-.23181818c0-1.50623114 1.2210416-2.72727273 2.7272727-2.72727273s2.7272727 1.22104159 2.7272727 2.72727273v.12272727c.0035767.8967858.5393583 1.70581598 1.3636364 2.05909091.8414864.37138153 1.8242908.19318074 2.4818182-.45l.0818182-.08181818c.5115497-.51211921 1.205702-.7998727 1.9295454-.7998727s1.4179957.28775349 1.9295455.7998727c.5121192.51154979.7998727 1.20570205.7998727 1.92954545 0 .72384341-.2877535 1.41799566-.7998727 1.92954546l-.0818182.08181818c-.6431808.65752736-.8213816 1.64033168-.45 2.48181818v.1090909c.3532749.8242781 1.1623051 1.3600597 2.0590909 1.3636364h.2318182c1.5062311 0 2.7272727 1.2210416 2.7272727 2.7272727s-1.2210416 2.7272727-2.7272727 2.7272727h-.1227273c-.8967858.0035767-1.705816.5393583-2.0590909 1.3636364z"/></g></svg>