<?xml version="1.0" encoding="utf-8"?>
<!-- Generator: Adobe Illustrator 19.2.0, SVG Export Plug-In . SVG Version: 6.00 Build 0)  -->
<svg version="1.1" id="Capa_1" xmlns="http://www.w3.org/2000/svg" xmlns:xlink="http://www.w3.org/1999/xlink" x="0px" y="0px"
	 width="6px" height="10px" viewBox="0 0 6 10" style="enable-background:new 0 0 6 10;" xml:space="preserve">
<style type="text/css">
	.st0{fill:#FFFFFF;}
</style>
<path class="st0" d="M0,4.8C0,4.9,0,5,0.1,5l4.5,4.5c0.1,0.1,0.1,0.1,0.2,0.1c0.1,0,0.2,0,0.2-0.1L5.5,9C5.6,9,5.6,8.9,5.6,8.8
	c0-0.1,0-0.2-0.1-0.2L1.7,4.8L5.5,1c0.1,0,0.1-0.1,0.1-0.2c0-0.1,0-0.2-0.1-0.2L5,0.1C5,0,4.9,0,4.8,0C4.7,0,4.6,0,4.6,0.1L0.1,4.6
	C0,4.6,0,4.7,0,4.8z"/>
</svg>
