<svg id="Capa_1" data-name="Capa 1" xmlns="http://www.w3.org/2000/svg" viewBox="0 0 40 40"><defs><style>.cls-1{fill:#a72c2c;}.cls-2,.cls-3{fill:none;stroke-linecap:round;}.cls-2{stroke:#a72c2c;stroke-miterlimit:10;}.cls-3{stroke:#363636;stroke-linejoin:round;}</style></defs><title>36-moto-equipacion-trial-cascos</title><path class="cls-1" d="M17.33,31.1a.48.48,0,0,0-.45.25.5.5,0,0,0-.05.38.49.49,0,0,0,.24.29h0a.49.49,0,1,0,.48-.86A.39.39,0,0,0,17.33,31.1Z"/><line class="cls-2" x1="19.12" y1="32.57" x2="20.75" y2="33.49"/><path class="cls-3" d="M19.9,5.64A20.78,20.78,0,0,0,7.19,8.56"/><path class="cls-3" d="M3.24,11.5A9.38,9.38,0,0,0,1.8,13.06a2,2,0,0,0,0,1.23c.09.13-2.6,5.72,1.41,13.57.39.3,5.46.59,8.24,2.59s7.54,5.15,9,5.47,2.77-.17,3-1.27c0,0,1.63-6.67,0-9.66s-1.09-4.89.37-5.68a45.82,45.82,0,0,1,7.39-2.54"/><path class="cls-1" d="M5.28,9.46a.49.49,0,0,0-.5.13.44.44,0,0,0-.14.35.5.5,0,0,0,.14.35h0a.5.5,0,0,0,.7,0,.52.52,0,0,0,.14-.35.56.56,0,0,0-.15-.35A.67.67,0,0,0,5.28,9.46Z"/><path class="cls-3" d="M25.47,4,39,9.74l0,1-1.09,1.12L34.37,13s-7,1-8.39,1.72a39.62,39.62,0,0,0-3.52,1.9c-.81.59-2.22,3.16-3,3.42a16.49,16.49,0,0,1-4.54.39A6.79,6.79,0,0,1,13,17.3a4.87,4.87,0,0,1,1.9-3.06,25.41,25.41,0,0,1,3.61-2.16A7.34,7.34,0,0,0,21,9.39c.52-1.4,1.05-2.92,2.08-3.55s1.48-.58,1.68-1A6.09,6.09,0,0,1,25.47,4Z"/><path class="cls-3" d="M25.79,6.7s6.64,2.52,6.7,2.71,0,1.07-.37,1.21-3.93-.24-4.68-.27l-2.16-.13"/></svg>