<svg id="Capa_1" data-name="Capa 1" xmlns="http://www.w3.org/2000/svg" viewBox="0 0 40 40"><defs><style>.cls-1{fill:#a72c2c;}.cls-2,.cls-3{fill:none;stroke-linecap:round;}.cls-2{stroke:#a72c2c;stroke-miterlimit:10;}.cls-3{stroke:#393939;stroke-linejoin:round;}</style></defs><title>46-moto-casual-camisetas</title><path class="cls-1" d="M10.93,32.49a.51.51,0,0,0-.27.45.47.47,0,0,0,.15.35.45.45,0,0,0,.34.15h0a.5.5,0,0,0,.35-.85.47.47,0,0,0-.35-.15A.6.6,0,0,0,10.93,32.49Z"/><line class="cls-2" x1="13.55" y1="32.99" x2="15.39" y2="33"/><line class="cls-2" x1="13.56" y1="34.85" x2="15.4" y2="34.86"/><path class="cls-3" d="M11.09,35.09,11,37.41S16.4,38,20,38s9-.59,9-.59l-.49-21.48s.88,2.66,1.76,4.83A15,15,0,0,0,35,19.58s-1.85-9.07-2.14-10.25a10.31,10.31,0,0,0-5-6A12.54,12.54,0,0,0,24.53,2c-.31,1.69-2.3,3-4.72,3S15.46,3.74,15.1,2.1a11.85,11.85,0,0,0-3,1.22,10.31,10.31,0,0,0-5,6C6.85,10.51,5,19.58,5,19.58a15,15,0,0,0,4.77,1.18c.88-2.17,1.76-4.83,1.76-4.83L11.19,30.8h0"/></svg>