<svg id="Capa_1" data-name="Capa 1" xmlns="http://www.w3.org/2000/svg" viewBox="0 0 40 40"><defs><style>.cls-1,.cls-3{fill:none;stroke-linecap:round;}.cls-1{stroke:#393939;stroke-linejoin:round;}.cls-2{fill:#a72c2c;}.cls-3{stroke:#a72c2c;stroke-miterlimit:10;}</style></defs><title>47-moto-casual-chalecos</title><path class="cls-1" d="M25.31,5.68a7.53,7.53,0,0,1-2.77,3.41,5.56,5.56,0,0,0-2.44,3"/><path class="cls-1" d="M14.73,5.68A7.53,7.53,0,0,0,17.5,9.09a5.56,5.56,0,0,1,2.44,3"/><line class="cls-1" x1="20.02" y1="14.58" x2="20.02" y2="35.54"/><path class="cls-2" d="M11.58,31.66a.47.47,0,0,0-.27.45.52.52,0,0,0,.14.35.51.51,0,0,0,.35.15h0a.5.5,0,0,0,.34-.85.45.45,0,0,0-.35-.15A.59.59,0,0,0,11.58,31.66Z"/><line class="cls-3" x1="14.02" y1="32.15" x2="15.73" y2="32.16"/><line class="cls-3" x1="14.03" y1="33.94" x2="15.74" y2="33.95"/><path class="cls-1" d="M11.78,34.24v.67C13.9,38,19.82,38,20,38s6.1,0,8.22-3.09c0-4.14,0-17.58,0-17.58s2-7.46,1.76-9.16-4.62-2.49-4.62-2.49,0-2.29-.83-2.76A10.56,10.56,0,0,0,20,2h0s-3.35,0-4.52.92c-.76.63-.83,2.76-.83,2.76s-4.4.79-4.62,2.49,1.76,9.16,1.76,9.16,0,7.29,0,12.79"/></svg>