<svg id="Capa_1" data-name="Capa 1" xmlns="http://www.w3.org/2000/svg" viewBox="0 0 40 40"><defs><style>.cls-1,.cls-2{fill:none;stroke-linecap:round;stroke-linejoin:round;}.cls-1{stroke:#393939;}.cls-2{stroke:#a51620;}</style></defs><title>49-moto-casual-complementos</title><path class="cls-1" d="M28.66,14.42C30,3.64,20.06,4,20,4s-10-.36-8.66,10.42c-1.14-.44-1.5.69-1.28,2.35S11,21,11.51,20.91a.91.91,0,0,0,.69-.66s2.61,8.49,7.8,8.5h0c5.19,0,7.8-8.5,7.8-8.5a.91.91,0,0,0,.69.66c.55.09,1.22-2.49,1.45-4.14S29.8,14,28.66,14.42Z"/><path class="cls-2" d="M13.52,26.75a7.08,7.08,0,0,0,6.3,3.59,8.38,8.38,0,0,0,6.81-3.81,1.74,1.74,0,0,1,.51,1.91c-.45,1.08-.77,1.77-.45,2.12a.91.91,0,0,1,.23,1,1.24,1.24,0,0,0-.12.93s.57.25.57,1.36c0,.22-2.33,2.12-7.6,2.12s-6.7-1.9-6.7-1.9A3.49,3.49,0,0,1,13.18,33a2.68,2.68,0,0,0,.11-1.47,6.81,6.81,0,0,0-.28-1,8.86,8.86,0,0,1,.17-1.74C13.35,28.11,13.52,26.75,13.52,26.75Z"/><line class="cls-1" x1="13.27" y1="9.75" x2="18.15" y2="6.97"/><line class="cls-1" x1="13.27" y1="11.63" x2="16.5" y2="9.8"/><line class="cls-1" x1="13.27" y1="13.39" x2="15.83" y2="11.97"/><line class="cls-1" x1="13.27" y1="15.27" x2="15.21" y2="14.16"/><path class="cls-2" d="M25,31.21a6.64,6.64,0,0,1-2.6.91"/><path class="cls-2" d="M14.87,32.72a6.48,6.48,0,0,0,2.36.84"/></svg>