<svg id="Capa_1" data-name="Capa 1" xmlns="http://www.w3.org/2000/svg" viewBox="0 0 40 40"><defs><style>.cls-1{fill:none;stroke:#393939;stroke-linecap:round;stroke-linejoin:round;}.cls-2{fill:#a72c2c;}</style></defs><title>50-moto-casual-gafas-sol</title><path class="cls-1" d="M11.5,15.68c-1.78-.06-3,.26-3.65,1a1.94,1.94,0,0,0-.49,1.26c-.07.4-.57,3.49,1.1,5.26a5.12,5.12,0,0,0,7-.33h0a5.22,5.22,0,0,0,1.12-2,4.44,4.44,0,0,0,.08-3.23A2.55,2.55,0,0,0,15,16.24,14.62,14.62,0,0,0,11.5,15.68Z"/><path class="cls-1" d="M24.91,16.24a2.91,2.91,0,0,0-1.28.77c-.73.81-.83,2.06-.29,3.8a4.77,4.77,0,0,0,3.38,3.38,5.07,5.07,0,0,0,4.69-1l0-.05h0c1.62-1.78,1.13-4.82,1.06-5.21a1.94,1.94,0,0,0-.72-1.48C30.17,15.12,26.18,15.83,24.91,16.24Z"/><path class="cls-1" d="M35.71,14.73a25.24,25.24,0,0,0-13.62.44l-.06,0a7.5,7.5,0,0,1-4.06,0l-.06,0a25.24,25.24,0,0,0-13.62-.44.4.4,0,0,0-.29.4v2a.46.46,0,0,0,.17.35l.84.59c0,.92.3,4.32,2.35,6.36A5.59,5.59,0,0,0,12.17,26a7.83,7.83,0,0,0,5.06-2.49,8.75,8.75,0,0,0,.7-.89,8.06,8.06,0,0,0,1.22-2.89v0s.16-1.33.84-1.33.84,1.32.84,1.33v0a8.06,8.06,0,0,0,1.22,2.89A7.77,7.77,0,0,0,27.83,26a5.59,5.59,0,0,0,4.81-1.5c.07-.06.13-.13.2-.2C34.71,22.19,35,19,35,18.09l.84-.59a.46.46,0,0,0,.17-.35v-2A.4.4,0,0,0,35.71,14.73Z"/><path class="cls-2" d="M6.2,15.89a.49.49,0,0,0-.45-.26.53.53,0,0,0-.35.15.52.52,0,0,0-.14.35v0a.49.49,0,0,0,.51.48.53.53,0,0,0,.35-.15.5.5,0,0,0,.14-.35A.48.48,0,0,0,6.2,15.89Z"/><path class="cls-2" d="M34.53,15.89a.49.49,0,0,0-.45-.26.53.53,0,0,0-.35.15.52.52,0,0,0-.14.35v0a.5.5,0,0,0,.51.48.51.51,0,0,0,.35-.15.5.5,0,0,0,.14-.35A.48.48,0,0,0,34.53,15.89Z"/></svg>