<svg id="Capa_1" data-name="Capa 1" xmlns="http://www.w3.org/2000/svg" viewBox="0 0 40 40"><defs><style>.cls-1,.cls-2{fill:none;stroke-linecap:round;stroke-miterlimit:10;stroke-width:0.98px;}.cls-1{stroke:#363636;}.cls-2{stroke:#c42828;}</style></defs><title>51-moto-casual-gorras</title><path class="cls-1" d="M20.67,24.78a53.59,53.59,0,0,0,16,4.44,1.2,1.2,0,0,0,1-.41h0a13,13,0,0,0,1.15-5.35c0-7.55-6.5-13.67-14.51-13.67-7.38,0-13.47,5.2-14.38,11.93C10.34,21.66,13,21.43,20.67,24.78Z"/><path class="cls-1" d="M27.47,28.37s-7.25,2.88-11.59,2.73-7-3-9.17-4.13S1.43,26,1.11,26c0,0-.92-.35.57-.82s7.08-2.53,7.08-2.53"/><path class="cls-1" d="M29.28,11.66s3.58,4.71-1,13.28"/><path class="cls-2" d="M27.18,9.76s-.88-.09-.83-.47.44-.19,1-.1.94.2.89.46S27.18,9.76,27.18,9.76Z"/></svg>