<svg id="Capa_1" data-name="Capa 1" xmlns="http://www.w3.org/2000/svg" viewBox="0 0 40 40"><defs><style>.cls-1{fill:#fff;}.cls-1,.cls-3{stroke:#393939;stroke-linejoin:round;}.cls-1,.cls-2,.cls-3{stroke-linecap:round;}.cls-2,.cls-3{fill:none;}.cls-2{stroke:#a72c2c;stroke-miterlimit:10;}</style></defs><title>52-moto-casual-gorros</title><line class="cls-1" x1="9.73" y1="25.88" x2="21.08" y2="25.88"/><line class="cls-2" x1="23.57" y1="25.88" x2="25.51" y2="25.88"/><path class="cls-3" d="M20,8.21A11.42,11.42,0,0,0,9.73,19.73v6.15H9.61a.76.76,0,0,0-.74.76v3.73a.75.75,0,0,0,.74.76H32.14a.74.74,0,0,0,.73-.76V26.64a.75.75,0,0,0-.73-.76H32V19.73A11.45,11.45,0,0,0,22,8.23"/><ellipse class="cls-3" cx="21.04" cy="8.17" rx="1" ry="1.04"/></svg>