<svg id="Capa_1" data-name="Capa 1" xmlns="http://www.w3.org/2000/svg" viewBox="0 0 40 40"><defs><style>.cls-1{fill:none;stroke:#393939;stroke-linecap:round;stroke-linejoin:round;}.cls-2{fill:#a72c2c;}</style></defs><title>53-moto-casual-llaveros</title><path class="cls-1" d="M5.36,23.94l-.42.35A2.65,2.65,0,0,0,4.61,28l4.14,5a2.61,2.61,0,0,0,3.69.34L27.14,21a4.23,4.23,0,0,0,.94-1.59c.08-.2.16-.41.24-.65l.5-2.18a25.59,25.59,0,0,0,.26-3.13v-.26a1.79,1.79,0,0,0-1.53-1.79h0s-.95-.17-2.11-.31"/><path class="cls-1" d="M22.51,10.89A7.34,7.34,0,0,0,19,12.47L7.64,22"/><ellipse class="cls-1" cx="24.42" cy="15.59" rx="2.23" ry="2.25"/><path class="cls-1" d="M25.1,15.78A6,6,0,1,1,30,18.22"/><path class="cls-2" d="M6.34,22.62a.48.48,0,0,0-.27.44.5.5,0,0,0,.14.35.49.49,0,0,0,.35.15h0a.5.5,0,0,0,.49-.49.49.49,0,0,0-.15-.36.49.49,0,0,0-.34-.15A.48.48,0,0,0,6.34,22.62Z"/></svg>