<svg id="Capa_1" data-name="Capa 1" xmlns="http://www.w3.org/2000/svg" viewBox="0 0 40 40"><defs><style>.cls-1,.cls-3{fill:none;stroke-linecap:round;}.cls-1{stroke:#393939;stroke-linejoin:round;}.cls-2{fill:#a72c2c;}.cls-3{stroke:#a72c2c;stroke-miterlimit:10;}</style></defs><title>55-moto-casual-bermudas</title><path class="cls-1" d="M12,5.63a38.4,38.4,0,0,0,16.09,0"/><path class="cls-1" d="M12,7.87a38.4,38.4,0,0,0,16.09,0"/><line class="cls-1" x1="20" y1="17.97" x2="20" y2="6.55"/><path class="cls-2" d="M4.82,29.36a.47.47,0,0,0-.38.35.51.51,0,0,0,0,.38.48.48,0,0,0,.29.23h0A.5.5,0,0,0,5.41,30a.56.56,0,0,0,0-.38.47.47,0,0,0-.3-.23A.39.39,0,0,0,4.82,29.36Z"/><line class="cls-3" x1="7.26" y1="30.55" x2="9.06" y2="31.07"/><line class="cls-3" x1="6.77" y1="32.4" x2="8.57" y2="32.91"/><path class="cls-1" d="M5.37,27.7C7.16,19.12,10.53,4,10.53,4A45.46,45.46,0,0,1,29.6,4S36,34.06,36,34.21s-2.69,1.62-6.58,2.23a46.12,46.12,0,0,1-7.07.56S20.49,23.76,20,20.08C19.51,23.76,17.65,37,17.65,37a46.12,46.12,0,0,1-7.07-.56C6.69,35.83,4,34.36,4,34.21s.18-.85.47-2.2"/></svg>