<svg id="Capa_1" data-name="Capa 1" xmlns="http://www.w3.org/2000/svg" viewBox="0 0 40 40"><defs><style>.cls-1,.cls-3{fill:none;stroke-linecap:round;}.cls-1{stroke:#363636;stroke-linejoin:round;}.cls-2{fill:#a72c2c;}.cls-3{stroke:#a72c2c;stroke-miterlimit:10;}</style></defs><title>57-moto-casual-sudaderas</title><path class="cls-1" d="M16.44,5.45s2.74,3.66,5.15,3.66c0,0,1.72-.19,4.52-3.54,0,0-.13-2-.45-2a51.16,51.16,0,0,0-8.39,0A6.18,6.18,0,0,0,16.44,5.45Z"/><path class="cls-1" d="M24.6,3.5a26.51,26.51,0,0,1-3.17,5,32.94,32.94,0,0,0-4.16-5"/><line class="cls-1" x1="19.51" y1="8.39" x2="19.43" y2="13.97"/><line class="cls-1" x1="23.38" y1="8.22" x2="23.38" y2="12.84"/><polyline class="cls-1" points="15.97 29.2 18.36 25.04 23.87 25.04 26.26 29.2"/><path class="cls-1" d="M14.83,5.8A7.5,7.5,0,0,0,9,10.64,72.46,72.46,0,0,0,5.24,22.76,29.8,29.8,0,0,0,6.65,31.5c.82,2.09,2.13,5.83,2.13,5.83s2.32.53,4-2.22a23.86,23.86,0,0,1-2.17-6.52A12.12,12.12,0,0,1,11,21.85c.6-1.76,1.14-3.67,1.14-3.67s.76,7.19.82,9.39.12,4.92.12,4.92,2.76,1.26,8.22,1.26,8.08-1.26,8.08-1.26.06-2.71.12-4.92.82-9.39.82-9.39.54,1.91,1.14,3.67a12.12,12.12,0,0,1,.41,6.74,24.08,24.08,0,0,1-2.18,6.52c1.65,2.75,4,2.22,4,2.22S35,33.59,35.79,31.5a29.44,29.44,0,0,0,1.4-8.74,70.54,70.54,0,0,0-3.72-12.12A7.13,7.13,0,0,0,27.85,5.9"/><path class="cls-2" d="M23.52,31.05a.5.5,0,0,0,0,.8.44.44,0,0,0,.36.11h0a.5.5,0,0,0,.43-.55.52.52,0,0,0-.18-.33.45.45,0,0,0-.36-.11A.62.62,0,0,0,23.52,31.05Z"/><line class="cls-3" x1="25.72" y1="31.3" x2="27.29" y2="31.04"/></svg>