<svg id="Capa_1" data-name="Capa 1" xmlns="http://www.w3.org/2000/svg" viewBox="0 0 40 40"><defs><style>.cls-1{fill:none;stroke:#393939;stroke-linecap:round;stroke-linejoin:round;}.cls-2{fill:#a72c2c;}</style></defs><title>60-moto-casual-zapatillas</title><path class="cls-1" d="M13.73,11.58a1.91,1.91,0,0,0-.3-.55S12.52,9.4,8.88,9.94a7.83,7.83,0,0,0-6.4,6.26,9.06,9.06,0,0,0-.07,4.21S.53,24,1,26s1.66,2.39,3.64,2.83,4.74.25,6,1S15.92,32.17,21.94,32s8.13-2.3,8.39-3.1-1.41-2.23-4.55-3.59-8.07-4.64-9.86-6.63l-1.79-2a19.64,19.64,0,0,0,.07-2.34"/><path class="cls-1" d="M13.73,11.58h0"/><path class="cls-1" d="M5,19.51a1.1,1.1,0,0,1-1.52-1c-.17-1.48.75-4,1.42-4.49s1.19-.13,1.29.17,1.32,3.14,1,3.86S5,19.51,5,19.51Z"/><path class="cls-1" d="M2.41,20.41s.57.9,2.67.93,5.59-3.27,6.06-3.33S19.73,23.86,19.8,24"/><path class="cls-1" d="M26.3,29.31S25.86,27.8,23.18,27c-3.18-.93-7.43-1.88-8.87-1.21s-.16,3.5-.16,3.5"/><line class="cls-1" x1="2.69" y1="26.11" x2="8.72" y2="27.77"/><path class="cls-1" d="M27.68,21.39a15.1,15.1,0,0,1-7-5.37,4.24,4.24,0,0,1-3.07,2.28"/><path class="cls-1" d="M15,11.36a.75.75,0,0,1,1,.74v1a1.17,1.17,0,0,1-1,1.09L9.28,15.28a1,1,0,0,1-1.16-.71l-.3-1a.8.8,0,0,1,.63-1l6.5-1.2"/><path class="cls-1" d="M20.75,9.8C20.36,8.86,20,8.17,19.56,8c-1-.3-5.13,1.09-5.13,1.09"/><path class="cls-1" d="M31.18,27.08s7.81-.48,7.75-2.3-1.87-2.54-7.75-4.11S24,17,22.68,14.45c-.35-.69-.67-1.45-1-2.21"/><path class="cls-1" d="M18.17,10.51a1.08,1.08,0,0,0-.78,1.14l.14.95a.78.78,0,0,0,1.06.57l2.76-.75a1.71,1.71,0,0,0,1.11-1.23l.2-1c.09-.52-.3-.83-.83-.67Z"/><path class="cls-2" d="M5.78,16.71a.5.5,0,0,0-.45-.27.56.56,0,0,0-.35.15.52.52,0,0,0-.14.35v0a.49.49,0,0,0,.5.48.45.45,0,0,0,.35-.15A.45.45,0,0,0,5.84,17,.61.61,0,0,0,5.78,16.71Z"/></svg>