<?xml version="1.0" encoding="UTF-8"?>
<svg width="291px" height="137px" viewBox="0 0 291 137" version="1.1" xmlns="http://www.w3.org/2000/svg" xmlns:xlink="http://www.w3.org/1999/xlink">
    <title>ROAD - Alpinestars Copy</title>
    <g id="Page-1" stroke="none" stroke-width="1" fill="none" fill-rule="evenodd">
        <g id="ROAD---AGV" transform="translate(-12.000000, -121.000000)" fill="#FFFFFF">
            <g id="Shoei/B" transform="translate(103.464387, 136.995710)">
                <g id="Page-1" transform="translate(-0.000000, 0.000000)">
                    <path d="M69.8793578,108.512435 L69.8793578,103.106637 L71.0358961,103.106637 C77.646559,103.106637 84.2568247,103.107035 90.8674877,103.106239 C93.3573624,103.105841 94.5321764,102.125428 95.0168816,99.6911083 C97.2262629,88.5870599 99.4316713,77.4826136 101.660123,66.3825441 C103.69946,56.2270767 103.46267,46.2351441 99.6009208,36.4926915 C97.2314278,30.5159146 93.8539865,25.1853188 89.3899316,20.5518346 C82.238147,13.1271188 73.6302605,8.27598619 63.5074717,6.41503251 C48.5078341,3.65801988 34.9448307,7.08349566 23.1339173,16.7809862 C14.254278,24.0712136 8.7330097,33.5041041 6.42867378,44.7708915 C5.25942195,50.4886388 5.07825347,56.2748241 6.1374534,62.0248009 C7.8263727,71.1958767 9.64997647,80.3418851 11.4298773,89.4962493 C12.1199862,93.0454704 12.8283708,96.5907125 13.5617853,100.13118 C13.9793469,102.145721 15.2375938,103.104249 17.3734748,103.105045 C25.5729376,103.108626 33.7727978,103.106637 41.9722607,103.106637 L43.1872019,103.106637 L43.1872019,108.512435 L42.1045613,108.512435 C33.7143948,108.512435 25.323831,108.514071 16.9336645,108.512037 C12.5983345,108.511639 9.09614125,105.705287 8.23678288,101.448609 C5.88834674,89.8181462 3.53395111,78.1884788 1.26259104,66.5424978 C0.119958263,60.6842936 -0.350046804,54.7596409 0.28483747,48.7959946 C1.30788316,39.1844493 4.53673453,30.3830178 10.2459254,22.572742 C18.6480109,11.0779609 29.8204644,3.68149566 43.8061942,1.06215461 C61.0235565,-2.16238434 76.5063101,1.95463251 89.8345095,13.4179799 C99.4177659,21.6603693 105.251709,32.1731462 107.565183,44.6017862 C108.721323,50.8101378 108.835348,57.076582 107.666097,63.2912999 C105.46625,74.9842325 103.134103,86.6528936 100.855195,98.3307062 C100.642242,99.4217336 100.421741,100.511567 100.193691,101.599411 C99.3561845,105.595866 95.8071099,108.506466 91.7471084,108.510445 C84.786822,108.517209 77.8269329,108.512435 70.8666466,108.512435 L69.8793578,108.512435 Z" id="Fill-4"></path>
                    <path d="M69.9716902,12.8506218 C86.8060559,18.9161291 102.731798,38.3747733 97.4218931,64.5021333 L69.9716902,64.5021333 L69.9716902,12.8506218 Z" id="Fill-6"></path>
                    <path d="M38.1457321,12.9496976 L38.1457321,14.0769333 C38.1457321,30.4590555 38.1460301,46.8415755 38.1452355,63.2236976 C38.1452355,64.4667207 38.1408652,64.4687102 36.8667263,64.4687102 C28.5766792,64.469506 20.2866321,64.4547839 11.9969823,64.4890484 C11.0331342,64.4929818 10.6680162,64.2379312 10.5897482,63.2328491 C10.3521632,60.2000955 9.73992503,57.1752997 9.7508998,54.1493102 C9.77290087,48.1968049 10.8861335,42.4034576 13.2965483,36.9164891 C18.1463808,25.8745123 26.1181912,17.9890344 37.2060199,13.2696049 C37.4590996,13.1617755 37.7280712,13.0905523 38.1457321,12.9496976" id="Fill-8"></path>
                    <path d="M51.2315194,93.188991 L56.8525099,93.188991 L56.8525099,75.1062668 L51.2315194,75.1062668 L51.2315194,93.188991 Z M48.0749765,108.462578 L48.0749765,103.11169 L56.7182227,103.11169 L56.7182227,98.9628416 L53.6379613,98.9628416 C51.4774477,98.9628416 49.3173314,98.9727889 47.1568178,98.9600563 C44.9518067,98.9473237 43.2028952,97.2709931 43.1949493,95.0543216 C43.1683302,87.7680731 43.166741,80.4814268 43.1957439,73.1955763 C43.2044844,70.98169 44.96015,69.3097363 47.1711206,69.3045637 C51.746022,69.2942184 56.3209234,69.2942184 60.8958248,69.3045637 C63.2224095,69.3101342 64.8974233,70.9995952 64.8990125,73.3539384 C64.9069585,83.7262584 64.9073558,94.0989763 64.8990125,104.471694 C64.897026,106.819671 63.21645,108.503562 60.8850977,108.509132 C56.88191,108.519875 52.8787223,108.513111 48.8759319,108.510326 C48.6268252,108.509928 48.3777186,108.481677 48.0749765,108.462578 L48.0749765,108.462578 Z" id="Fill-10"></path>
                    <path d="M24.7622484,93.1607405 L30.4019119,93.1607405 L30.4019119,85.2179658 L24.7622484,85.2179658 L24.7622484,93.1607405 Z M30.4277364,79.4540626 L30.4277364,75.0688647 L20.7324417,75.0688647 L20.7324417,69.3491279 C21.0451162,69.3328142 21.3518313,69.3037679 21.6589436,69.30337 C25.8512458,69.3002138 30.0439453,69.2985952 34.2362474,69.3025742 C36.7734007,69.3049616 38.3939846,70.9295658 38.3943819,73.4633595 C38.39543,80.5570268 38.3959711,87.6502963 38.3943819,94.7435658 C38.3939846,97.195791 36.9950938,98.76469 34.5719653,98.9624437 C33.7237313,99.0316773 32.8639757,98.9636373 32.0093849,98.9632395 C28.2616606,98.9620458 24.5135391,98.9715952 20.7658148,98.9596584 C18.514717,98.9524963 16.7963976,97.36609 16.7614352,95.1104247 C16.7010457,91.1987216 16.6990592,87.284631 16.7630244,83.3733258 C16.8015624,81.0257468 18.5453091,79.4568479 20.9108291,79.4548584 C24.0498908,79.4520731 27.1893498,79.4540626 30.4277364,79.4540626 L30.4277364,79.4540626 Z" id="Fill-12"></path>
                    <path d="M94.8063924,69.3034893 C94.079732,72.816502 93.3765122,76.2272557 92.6685249,79.6376115 C91.6105169,84.7330515 90.5807171,89.8348578 89.4627169,94.9171672 C89.250559,95.8816641 88.7789648,96.827062 88.2541324,97.6733841 C87.6903647,98.5813799 86.7253247,99.0222472 85.6498355,99.0254304 C80.5016312,99.0401525 75.3530297,99.0282157 70.2048254,99.0214515 C70.1154331,99.0214515 70.0256434,98.9713167 69.8857941,98.9295378 L69.8857941,69.3810788 L77.7435795,69.3810788 L77.7435795,93.1568809 L82.0439471,93.1568809 C82.3494703,91.7411715 82.6792287,90.2693588 82.9843545,88.7927715 C84.2755773,82.5470178 85.5532918,76.2984788 86.8659687,70.0574999 C86.9255636,69.7749946 87.2712139,69.3408915 87.4917151,69.3361167 C89.9005407,69.2839925 92.3109555,69.3034893 94.8063924,69.3034893" id="Fill-13"></path>
                </g>
            </g>
        </g>
    </g>
</svg>