<?xml version="1.0" encoding="UTF-8"?>
<svg width="291px" height="137px" viewBox="0 0 291 137" version="1.1" xmlns="http://www.w3.org/2000/svg" xmlns:xlink="http://www.w3.org/1999/xlink">
    <title>ROAD - Alpinestars Copy</title>
    <defs>
        <path d="M147.483773,18.988389 L168.7,18.988389 L168.7,0.018309345 L147.483773,0.018309345 L147.483773,18.988389 Z M147.483773,54.0699138 L168.7,54.0699138 L168.7,21.8470236 L147.483773,21.8470236 L147.483773,54.0699138 Z M64.944631,18.988389 L86.1619037,18.988389 L86.1619037,0.018309345 L64.944631,0.018309345 L64.944631,18.988389 Z M64.944631,54.068864 L86.1619037,54.068864 L86.1619037,21.8470236 L64.944631,21.8470236 L64.944631,54.068864 Z M122.903806,18.988389 L144.120033,18.988389 L144.120033,0.018309345 L122.903806,0.018309345 L122.903806,18.988389 Z M90.0420158,18.988389 L111.260334,18.988389 L111.260334,0.018309345 L90.0420158,0.018309345 L90.0420158,18.988389 Z M90.0421203,21.8471286 L111.260438,21.8471286 L111.260438,26.7843884 C111.001207,28.8640634 115.398737,34.5802828 116.952036,34.5802828 C118.763521,34.5802828 122.902865,28.6037104 122.643634,26.2657819 L122.643634,21.8471286 L143.861951,21.8471286 L143.861951,27.563348 C143.60272,30.6823356 140.237935,40.2965022 130.405948,51.4717372 C122.384402,60.5672973 110.482743,60.0486908 103.238892,51.4717372 C94.441741,41.5961678 90.0421203,31.4612951 90.0421203,28.8640634 L90.0421203,21.8471286 Z M35.7070663,21.8471286 C35.7070663,21.8471286 27.9447515,29.3826699 26.9088703,31.2030417 C25.8740343,33.0223637 27.9447515,33.2827167 27.9447515,33.2827167 L40.363828,33.2827167 L40.363828,25.2264693 L61.0636827,25.2264693 L61.0636827,54.068969 L17.5943015,54.068969 C5.69264295,54.068969 2.84217094e-14,43.6758429 2.84217094e-14,37.4389174 C2.84217094e-14,31.2030417 4.65780701,27.0447415 4.65780701,27.0447415 C4.65780701,27.0447415 14.4897937,15.8705562 22.2521085,7.55500547 C30.2726097,-0.760545227 39.8464101,0.0194641367 39.8464101,0.0194641367 L61.0636827,0.0194641367 L61.0636827,18.988494 L39.8464101,18.988494 C37.2593202,18.988494 35.7070663,21.8471286 35.7070663,21.8471286" id="path-1"></path>
    </defs>
    <g id="Page-1" stroke="none" stroke-width="1" fill="none" fill-rule="evenodd">
        <g id="ROAD---Givi" transform="translate(-12.000000, -121.000000)">
            <g id="Shoei/B" transform="translate(72.300000, 161.299644)">
                <mask id="mask-2" fill="white">
                    <use xlink:href="#path-1"></use>
                </mask>
                <use id="Mask" fill="#FFFFFF" xlink:href="#path-1"></use>
            </g>
        </g>
    </g>
</svg>