<?xml version="1.0" encoding="UTF-8"?>
<svg width="291px" height="137px" viewBox="0 0 291 137" version="1.1" xmlns="http://www.w3.org/2000/svg" xmlns:xlink="http://www.w3.org/1999/xlink">
    <title>ROAD - Alpinestars Copy</title>
    <defs>
        <polygon id="path-1" points="0 0 34.8053356 0 34.8053356 18.8142487 0 18.8142487"></polygon>
        <polygon id="path-3" points="0 0 33.2985647 0 33.2985647 18.8196472 0 18.8196472"></polygon>
        <polygon id="path-5" points="0 0 19.2051389 0 19.2051389 18.8199417 0 18.8199417"></polygon>
        <polygon id="path-7" points="0 0 33.2991212 0 33.2991212 18.8196472 0 18.8196472"></polygon>
    </defs>
    <g id="Page-1" stroke="none" stroke-width="1" fill="none" fill-rule="evenodd">
        <g id="ROAD---Dainese" transform="translate(-12.000000, -121.000000)">
            <g id="Shoei/B" transform="translate(64.600049, 124.200294)">
                <g id="Page-1" transform="translate(-0.000000, 0.000000)">
                    <path d="M62.2856981,113.712939 L42.314513,113.712939 L42.2541519,113.712939 L41.0474204,113.712939 C40.1665407,113.712939 39.0363648,114.419655 38.5426796,115.306485 L28.6370778,132.528267 L31.9608648,132.528267 L35.3577722,126.580075 L49.2614389,126.580075 L45.8861241,132.528267 L54.3327537,132.528267 L63.4988093,116.569739 C64.4081519,114.981592 63.8707907,113.712939 62.2856981,113.712939 M54.845087,116.671821 L54.6797074,116.97561 L54.6483,117.043828 L50.688513,124.047186 L36.8216519,124.047186 L40.8359111,117.043828 C41.1038556,116.58888 41.6755685,116.212946 42.125087,116.212946 L54.6208185,116.212946 C54.7837444,116.212946 54.9015222,116.366559 54.9015222,116.505939 C54.9015222,116.569739 54.8833648,116.603112 54.845087,116.671821" id="Fill-1" fill="#FFFFFF"></path>
                    <g id="Group-5" transform="translate(69.012723, 113.714313)">
                        <mask id="mask-2" fill="white">
                            <use xlink:href="#path-1"></use>
                        </mask>
                        <g id="Clip-4"></g>
                        <path d="M21.707426,18.814347 L30.4651853,3.325 L30.662463,2.945631 C30.7031945,2.87348708 30.7247871,2.83864207 30.7247871,2.78809225 C30.7247871,2.62809963 30.5888519,2.49117343 30.4362315,2.49117343 L30.0259723,2.49117343 L18.4302593,2.49117343 C17.9797593,2.49117343 17.414426,2.87348708 17.149426,3.325 L8.39755562,18.814347 L0,18.814347 C0,18.814347 -0.00981474686,18.8310332 7.43079636,5.8657417 L9.89676859,1.59550923 C10.4007593,0.703280443 11.5230834,0 12.4024908,0 L13.6278704,0 L33.153463,0 C34.7243241,0 35.2719908,1.26718081 34.3719723,2.85876384 L25.1799075,18.814347 L21.707426,18.814347 Z" id="Fill-3" fill="#FFFFFF" mask="url(#mask-2)"></path>
                    </g>
                    <path d="M33.6334074,113.696645 L10.810037,113.696645 L0,132.511973 L24.0781944,132.528169 C24.9693796,132.528169 26.0858148,131.801822 26.594713,130.93266 L29.0567593,126.646723 L34.8592778,116.553446 C35.759787,114.965298 35.2170278,113.696645 33.6334074,113.696645 M31.4211481,116.655527 L31.2361389,116.965697 L31.2003148,117.027044 L28.7574074,121.381689 L24.2916667,129.139368 C24.0404074,129.595298 23.4578981,129.953564 23.0083796,129.953564 L21.7839815,129.972704 L10.2829815,129.972704 L17.6161204,116.990726 L18.071037,116.196652 L31.1816667,116.196652 C31.3323241,116.196652 31.4648241,116.349774 31.4648241,116.490136 C31.4648241,116.553446 31.4451944,116.586328 31.4211481,116.655527" id="Fill-6" fill="#FFFFFF"></path>
                    <g id="Group-10" transform="translate(98.880442, 113.708914)">
                        <mask id="mask-4" fill="white">
                            <use xlink:href="#path-3"></use>
                        </mask>
                        <g id="Clip-9"></g>
                        <path d="M22.3947962,18.8197454 L1.85582398,18.8197454 C0.551435094,18.8197454 -0.535064906,17.2782214 0.28349065,15.8255277 C1.08585176,14.3728339 7.9076388,2.6658893 8.4773888,1.64704059 C9.04615732,0.623284133 10.1414906,0 11.2024721,0 L33.2985647,0 L31.8636388,2.45927306 L17.5384258,2.45927306 C16.4764629,2.45927306 15.7766666,2.82686347 15.2343981,3.78878229 L12.9946573,7.57658303 L27.998074,7.56676753 L26.5081851,10.1114354 L11.6073332,10.0854244 C11.6073332,10.0854244 9.37200917,13.8585018 8.8616388,14.7065609 C8.34537954,15.550203 8.90874991,16.2740959 9.80091658,16.2740959 L23.8483703,16.2740959 L22.3947962,18.8197454 Z" id="Fill-8" fill="#FFFFFF" mask="url(#mask-4)"></path>
                    </g>
                    <g id="Group-13" transform="translate(57.440664, 113.708620)">
                        <mask id="mask-6" fill="white">
                            <use xlink:href="#path-5"></use>
                        </mask>
                        <g id="Clip-12"></g>
                        <polygon id="Fill-11" fill="#FFFFFF" mask="url(#mask-6)" points="11.0799444 0 0 18.8202362 8.23364815 18.8202362 19.2051389 0"></polygon>
                    </g>
                    <path d="M143.46781,130.010101 L134.303718,121.922621 C133.462588,121.148179 133.174523,119.918297 133.174523,118.707064 C133.174523,116.051481 135.151227,113.96078 137.744792,113.723736 C137.881708,113.712939 138.020588,113.70754 138.160449,113.70754 L158.458958,113.70754 L157.007347,116.157489 L139.566421,116.137858 L149.088264,124.899171 C149.598144,125.48761 150.019199,126.471614 150.019199,127.365806 C150.019199,130.223588 147.718116,132.528267 144.867894,132.528267 L123.555023,132.528267 L124.998782,130.010101 L143.46781,130.010101 Z" id="Fill-14" fill="#FFFFFF"></path>
                    <g id="Group-18" transform="translate(152.177765, 113.708914)">
                        <mask id="mask-8" fill="white">
                            <use xlink:href="#path-7"></use>
                        </mask>
                        <g id="Clip-17"></g>
                        <path d="M22.3950583,18.8197454 L1.8565768,18.8197454 C0.551206425,18.8197454 -0.535293575,17.2782214 0.283752722,15.8255277 C1.08611383,14.3728339 7.90790087,2.6658893 8.47765087,1.64704059 C9.04592865,0.623284133 10.1417527,0 11.2027342,0 L33.2993175,0 L31.8639009,2.45927306 L17.5391786,2.45927306 C16.4767249,2.45927306 15.7769286,2.82686347 15.2346601,3.78878229 L12.9954101,7.57658303 L27.9983361,7.56676753 L26.5084472,10.1114354 L11.6075953,10.0854244 C11.6075953,10.0854244 9.37276198,13.8585018 8.86190087,14.7065609 C8.34564161,15.550203 8.90901198,16.2740959 9.80166939,16.2740959 L23.8491231,16.2740959 L22.3950583,18.8197454 Z" id="Fill-16" fill="#FFFFFF" mask="url(#mask-8)"></path>
                    </g>
                    <path d="M116.850425,8.88695203 L139.085397,0 L92.7393509,80.2755609 L46.3829991,0 L68.6690083,8.9031476 C69.324638,9.17650923 70.0367028,9.32864945 70.7944065,9.32864945 C71.7866843,9.32864945 72.7190917,9.06264945 73.5170361,8.59297786 C79.3161194,5.23656827 86.0353417,3.43198893 92.7393509,3.43198893 C99.4845824,3.43198893 106.274471,5.25914391 112.114286,8.68131734 C112.885731,9.08473432 113.758758,9.32864945 114.688221,9.32864945 C115.446906,9.32864945 116.168786,9.17650923 116.82736,8.9031476 L116.850425,8.88695203 Z M89.5058602,46.2246162 L89.5058602,27.6733247 L75.5845269,22.1074465 L89.5058602,46.2246162 Z M95.9630269,46.2246162 L109.889268,22.1074465 L95.9630269,27.6733247 L95.9630269,46.2246162 Z" id="Fill-19" fill="#FFFFFF"></path>
                </g>
            </g>
        </g>
    </g>
</svg>