<svg height="137" viewBox="0 0 291 137" width="291" xmlns="http://www.w3.org/2000/svg"><g fill="none" fill-rule="evenodd" transform="translate(30 19)"><path d="m109.867468 9.26725457s-25.0080649 21.29882243-28.6583384 24.40923833c-4.8181088.0946374-11.0993884 1.285266-14.1031654 1.9215898-26.2380286 5.5700869-38.8077911 15.058162-45.9615707 22.6219434-2.1618911 2.2875212-4.2499484 4.5398912-8.1883539 10.5299879-3.53592103 2.605683-8.30090549 8.0595011-9.2166253 9.3105174-2.75436271 3.7611606-3.7394143 6.899517-3.7394143 9.470049 0 2.3055473.71942982 4.1000526 1.40014188 5.284372 2.06734776 3.6295696 7.16188331 7.5971296 19.59928512 5.6899609 11.2605623-2.0144246 19.7640607-5.9928005 38.3954021-14.7102569l3.071308-1.4357845s-.1143525.0513746-.2242028.0955387c.4069866-.1820643 2.2888493-1.0572349 12.5391485-5.8323677 4.794698 1.3997322 50.5617792 14.7409014 50.5617792 14.7409014l-.002701-10.0847414s.009905-18.4470822.015307-25.1870676c7.368978-3.5313269 105.644532-50.57512694 105.644532-50.57512694s-95.503183 17.72964064-107.489478 19.95316884c-.594272-5.48266-2.762466-25.4691772-2.762466-25.4691772z" fill="#040513"/><path d="m84.0021201 41.2311711-.1863855.1613342-.2413106-.0540785c-1.6783694-.388464-7.3374638.0576837-14.89823 1.6638156-24.1067515 5.1140247-34.8252653 12.9130476-42.6993751 20.6273476 2.8948271-.5984689 24.0410214-4.7616131 24.0410214-4.7616131 2.5166537-2.8841874 5.4258874-4.9337631 10.9949405-6.2370552 2.4878405-.5795414 5.5888622-1.0563337 6.2317569-.0252367.268323.4317268.0864396 1.0563336-.5438493 1.8503865-2.4986455 3.1879283-9.7586738 4.7706262-18.4404539 7.3276385-14.0626469 4.1532299-29.377768 8.9797372-38.52956356 20.8905297-2.5706785 3.3411509-2.38879512 5.3069048-1.77921566 6.3650411 1.26688079 2.2271334 5.60597002 2.9490816 11.90345702 1.9846814 10.6428792-1.9026624 18.6583538-5.821552 39.4137689-15.5223359.0144066-.0018027 14.8991304-6.9355694 14.8991304-6.9355694s42.3896334 12.3542364 43.6114934 12.7129572c0-1.2771542.018008-29.9576938.018008-29.9576938s52.213137-24.9959901 58.326039-27.9234403c-6.589221 1.2212731-59.248062 10.9995696-59.248062 10.9995696s-1.917879-17.6773647-2.101563-19.3745287c-.411489.3524116-30.7716069 26.2082502-30.7716069 26.2082502" fill="#fefefe"/><path d="m29.4823059 77.5686873c-.3763725.4533582-.5708617.8445261-.5618576 1.139254-.0234107.1045518.0063029.2208206.0531244.2694913.2845304.5173511 1.8206346.7922502 5.1683694.0955387 7.3284597-1.5619677 12.3572651-6.2758115 18.1451185-11.7215178 0 0 .4511068-.4254176.8869066-.8048685-2.7948813 1.1230304-5.5582482 2.0892332-8.2207688 2.9986535-6.7035732 2.2920277-12.466215 4.2280385-15.4708925 8.0234488" fill="#040513"/></g></svg>