<?xml version="1.0" encoding="UTF-8"?>
<svg width="291px" height="137px" viewBox="0 0 291 137" version="1.1" xmlns="http://www.w3.org/2000/svg" xmlns:xlink="http://www.w3.org/1999/xlink">
    <title>ROAD - Alpinestars Copy</title>
    <defs>
        <polygon id="path-1" points="0 0 67.2797438 0 67.2797438 63.5057406 0 63.5057406"></polygon>
    </defs>
    <g id="Page-1" stroke="none" stroke-width="1" fill="none" fill-rule="evenodd">
        <g id="ROAD---Shark" transform="translate(-12.000000, -121.000000)">
            <g id="Shoei/B" transform="translate(19.800000, 159.060404)">
                <g id="Page-1" transform="translate(0.000000, 0.000000)">
                    <g id="Group-3">
                        <mask id="mask-2" fill="white">
                            <use xlink:href="#path-1"></use>
                        </mask>
                        <g id="Clip-2"></g>
                        <path d="M45.312736,40.2288756 C40.094656,42.0281556 36.167376,44.0447156 35.820176,43.5765556 L31.145856,37.5235156 L33.165776,29.0753556 L40.962096,20.6355956 C34.016976,25.7640756 27.395536,33.3296756 21.185696,43.9724756 C20.232016,44.9110356 16.870336,46.3563956 13.858656,47.9036756 C10.528336,49.6144756 7.594496,51.3275156 8.132656,49.9051156 C16.760576,29.2679956 31.543456,15.2982356 52.828496,8.37327555 C48.018656,15.8235156 43.962576,23.5251956 41.358016,31.7107156 L43.473696,35.9594356 L61.926256,35.2706356 C57.496656,36.6790356 50.721216,38.3635156 45.312736,40.2288756 M67.170096,3.62671555 C64.519056,2.12143555 58.845136,1.13135555 51.865856,0.571915551 C34.224176,7.67831555 17.794896,17.5807956 6.652016,35.6659956 C13.053936,20.1047156 26.537056,8.99039555 45.284736,0.182155551 C27.382096,-0.545844449 5.086816,0.970075551 0.718816,3.62671555 C-1.798944,13.3387956 2.709616,44.1488756 7.839216,62.1674356 C8.106336,62.4877556 10.144736,62.7593556 13.268416,62.9727156 C27.407856,50.9091956 41.537216,43.5048756 56.456736,42.3966356 C40.964896,46.0254356 28.229376,53.6677556 17.027136,63.1793556 C30.669296,63.7863956 55.042736,63.5999156 58.863616,62.1674356 C64.401456,46.2135956 67.960816,10.4827956 67.170096,3.62671555" id="Fill-1" fill="#FFFFFF" mask="url(#mask-2)"></path>
                    </g>
                    <path d="M232.205064,43.3640916 L232.205064,34.5284116 C240.831304,27.6835316 249.245864,20.9148116 257.766824,14.0128116 L272.885144,14.0128116 L256.488344,27.0602516 L274.076824,43.3640916 L258.911464,43.3640916 L248.371704,33.1440916 C246.931384,31.7782516 243.506424,33.4599316 243.556264,36.5970516 L243.556264,43.3640916 L232.205064,43.3640916 Z M232.205064,33.0063316 L232.205064,14.0128116 L243.556264,14.0128116 L243.556264,20.8868116 C243.480664,22.9498516 242.927384,24.4495316 241.646104,25.5152116 L232.205064,33.0063316 Z M203.558264,20.1632916 L203.558264,26.5764116 L215.769064,26.5764116 C218.598744,26.5764116 220.013304,25.4939316 220.013304,23.3289716 C220.013304,21.2188916 218.597624,20.1632916 215.769064,20.1632916 L203.558264,20.1632916 Z M177.029384,31.5520116 L173.123944,22.3719316 L173.044984,22.3719316 L169.140664,31.5520116 L177.029384,31.5520116 Z M192.208184,43.3640916 L192.208184,14.0128116 L219.486344,14.0128116 C227.084984,14.0128116 229.218584,16.9052116 229.732664,22.3355316 C230.113464,26.3557716 226.911944,32.1282516 221.519704,32.2704916 L221.519704,32.3528116 L231.696024,43.3640916 L220.256344,43.3640916 C217.407064,40.1015316 213.549224,33.5730516 210.699944,33.5758516 L203.491064,33.5797716 L203.558264,43.3640916 L192.208184,43.3640916 Z M151.433464,43.3640916 L166.216904,14.0128116 L180.094264,14.0128116 L194.736024,43.3640916 L182.574504,43.3640916 L180.806024,39.2508916 C180.680024,38.9400916 180.503064,38.5833716 179.661944,38.5956916 L166.525464,38.5956916 C165.700024,38.5576116 165.436824,38.9826516 165.275544,39.4530516 L163.593864,43.3640916 L151.433464,43.3640916 Z M142.148104,43.3640916 L142.148104,31.0726516 L126.573384,31.0726516 C125.537384,31.1101716 124.948264,31.5111316 124.932024,32.3785716 L124.932024,43.3640916 L113.581384,43.3640916 L113.581384,14.0128116 L124.932024,14.0128116 L124.932024,24.4954516 L139.840344,24.4954516 C141.352904,24.3985716 142.109464,23.7467316 142.148104,22.5662516 L142.148104,14.0128116 L153.498184,14.0128116 L153.498184,43.3640916 L142.148104,43.3640916 Z M110.627384,22.6048916 L97.750184,22.6048916 C97.369384,20.3296116 94.905384,19.1928116 90.358744,19.1928116 C86.416904,19.1928116 84.445704,20.1515316 84.445704,22.0700916 C84.445704,23.0288116 85.287944,23.6319316 86.972984,23.8788916 C90.851544,24.3722516 95.827144,25.0436916 101.900344,25.8926516 C105.237944,26.3865716 107.718184,27.2500916 109.339944,28.4832116 C111.152104,29.8535316 112.058184,31.7715316 112.058184,34.2383316 C112.058184,40.9252916 105.508424,44.2679316 92.409464,44.2679316 C85.986824,44.2679316 81.202744,43.6379316 78.054424,42.3773716 C74.239144,40.8155316 72.173304,38.1297716 71.855224,34.3206516 L85.303624,34.3206516 C85.462664,35.5263316 86.034424,36.4032916 87.020584,36.9515316 C88.197144,37.6095316 90.168344,37.9382516 92.934184,37.9382516 C96.908504,37.9382516 98.895384,36.9100916 98.895384,34.8548916 C98.895384,34.0876916 98.505624,33.5260116 97.727224,33.1692916 C96.948264,32.8125716 95.541544,32.4978516 93.506504,32.2234516 L82.155864,30.7433716 C75.669944,29.8944116 72.427544,27.1263316 72.427544,22.4402516 C72.427544,19.9185716 73.508344,17.8773716 75.669944,16.3149716 C78.626744,14.1768916 83.443864,13.1084116 90.120184,13.1084116 C96.542824,13.1084116 101.422664,13.8212916 104.760824,15.2459316 C108.321864,16.7808916 110.277384,19.2336916 110.627384,22.6048916 L110.627384,22.6048916 Z" id="Fill-4" fill="#FFFFFF"></path>
                    <path d="M274.375192,46.5912036 L269.831352,46.5912036 C269.089912,46.5912036 268.627912,46.7278436 268.442552,47.0016836 C268.336152,47.1657636 268.284632,47.5454436 268.284632,48.1323236 C268.284632,48.4392036 268.421272,48.6822436 268.700712,48.8524836 C268.931432,48.9891236 269.308312,49.0591236 269.831352,49.0591236 L271.712952,49.0591236 C272.512072,49.0591236 273.153272,49.2170436 273.633752,49.5396036 C274.117032,49.8588036 274.357272,50.3118436 274.357272,50.8920036 L274.357272,52.2987236 C274.357272,52.9096836 274.110872,53.3778436 273.615272,53.7060036 C273.123032,54.0313636 272.451032,54.1954436 271.594232,54.1954436 L266.527352,54.1954436 L266.527352,52.8945636 L271.071752,52.8945636 C271.824952,52.8945636 272.293112,52.7456036 272.475672,52.4510436 C272.560792,52.2964836 272.603352,51.8949636 272.603352,51.2476036 C272.603352,50.6422436 272.107752,50.3387236 271.122712,50.3387236 L269.245032,50.3387236 C268.466632,50.3387236 267.828792,50.1931236 267.330392,49.8946436 C266.782712,49.5698436 266.512792,49.1229636 266.512792,48.5579236 L266.512792,47.1691236 C266.512792,46.5458436 266.807352,46.0502436 267.403192,45.6823236 C267.816472,45.4213636 268.421272,45.2908836 269.208072,45.2908836 L274.375192,45.2908836 L274.375192,46.5912036 Z M265.719272,46.5637636 L262.689112,46.5637636 L262.689112,54.1954436 L260.917272,54.1954436 L260.917272,46.5637636 L257.908952,46.5637636 L257.908952,45.2662436 L265.719272,45.2662436 L265.719272,46.5637636 Z M256.093992,50.3936036 L250.313112,50.3936036 L250.313112,51.8983236 C250.313112,52.5636036 250.829992,52.8945636 251.863752,52.8945636 L256.440632,52.8945636 L256.440632,54.1954436 L251.382712,54.1954436 C250.511352,54.1954436 249.830392,54.0436836 249.344312,53.7429636 C248.808952,53.4024836 248.541272,52.9253636 248.541272,52.3082436 L248.541272,47.2934436 C248.541272,46.6763236 248.781512,46.1930436 249.255832,45.8374436 C249.729592,45.4852036 250.386472,45.3088036 251.221992,45.3088036 L256.440632,45.3088036 L256.440632,46.6096836 L251.845272,46.6096836 C250.823832,46.6096836 250.313112,46.9344836 250.313112,47.5880036 L250.313112,49.1106436 L256.093992,49.1106436 L256.093992,50.3936036 Z M246.608712,54.2413636 L244.918632,54.2413636 L244.918632,47.2329636 L241.791032,53.4752836 C241.490312,54.0862436 241.065272,54.3903236 240.518152,54.3903236 C240.192792,54.3903236 239.925112,54.3024036 239.718472,54.1260036 C239.594152,54.0039236 239.460312,53.8068036 239.317512,53.5268036 L236.119912,47.2329636 L236.119912,54.2413636 L234.427592,54.2413636 L234.427592,46.4853636 C234.427592,46.1476836 234.560872,45.8648836 234.828552,45.6431236 C235.095672,45.4213636 235.466952,45.3088036 235.940712,45.3088036 C236.661432,45.3088036 237.153112,45.5854436 237.420792,46.1381636 L240.499672,52.4510436 L243.636232,46.1297636 C243.915672,45.5703236 244.402312,45.2908836 245.095032,45.2908836 C245.581672,45.2908836 245.955192,45.4062436 246.216712,45.6341636 C246.478232,45.8620836 246.608712,46.1538436 246.608712,46.5122436 L246.608712,54.2413636 Z M233.360792,54.1954436 L228.650072,54.1954436 C227.616312,54.1954436 226.826152,54.0375236 226.273432,53.7188836 C225.719592,53.4024836 225.443512,52.8492036 225.443512,52.0590436 L225.443512,45.2813636 L227.215352,45.2813636 L227.215352,51.7460036 C227.215352,52.2046436 227.361512,52.5210436 227.652712,52.7002436 C227.871672,52.8368836 228.343192,52.9035236 229.059992,52.9035236 L233.360792,52.9035236 L233.360792,54.1954436 Z M222.775112,50.3936036 L216.994232,50.3936036 L216.994232,51.8983236 C216.994232,52.5636036 217.511112,52.8945636 218.544312,52.8945636 L223.121752,52.8945636 L223.121752,54.1954436 L218.063832,54.1954436 C217.191912,54.1954436 216.510952,54.0436836 216.024872,53.7429636 C215.490072,53.4024836 215.222392,52.9253636 215.222392,52.3082436 L215.222392,47.2934436 C215.222392,46.6763236 215.462632,46.1930436 215.936952,45.8374436 C216.410712,45.4852036 217.067032,45.3088036 217.903112,45.3088036 L223.121752,45.3088036 L223.121752,46.6096836 L218.526392,46.6096836 C217.504952,46.6096836 216.994232,46.9344836 216.994232,47.5880036 L216.994232,49.1106436 L222.775112,49.1106436 L222.775112,50.3936036 Z M213.289832,54.1954436 L211.526952,54.1954436 L211.526952,50.3936036 L206.201912,50.3936036 L206.201912,54.1954436 L204.430632,54.1954436 L204.430632,45.2908836 L206.201912,45.2908836 L206.201912,49.1106436 L211.526952,49.1106436 L211.526952,45.2908836 L213.289832,45.2908836 L213.289832,54.1954436 Z" id="Fill-6" fill="#FFFFFF"></path>
                </g>
            </g>
        </g>
    </g>
</svg>