<?xml version="1.0" encoding="UTF-8"?>
<svg width="291px" height="137px" viewBox="0 0 291 137" version="1.1" xmlns="http://www.w3.org/2000/svg" xmlns:xlink="http://www.w3.org/1999/xlink">
    <title>ROAD - Alpinestars Copy</title>
    <defs>
        <polygon id="path-1" points="0 0 209.676424 0 209.676424 75.1464203 0 75.1464203"></polygon>
    </defs>
    <g id="Page-1" stroke="none" stroke-width="1" fill="none" fill-rule="evenodd">
        <g id="ROAD---Shoei" transform="translate(-12.000000, -121.000000)">
            <g id="Shoei/B" transform="translate(52.000336, 152.615719)">
                <g id="Shoei" transform="translate(-0.000000, 0.000000)">
                    <g id="Group-3">
                        <mask id="mask-2" fill="white">
                            <use xlink:href="#path-1"></use>
                        </mask>
                        <g id="Clip-2"></g>
                        <path d="M8.7866383,38.1050681 C8.7866383,41.8445899 11.2668463,42.9739232 13.2505644,45.1600536 C15.1636755,47.3484159 30.9661755,62.3065029 34.7923979,65.6219667 C38.9021686,69.1505754 40.674066,67.810329 47.9017484,68.0915464 C50.8784463,68.1629667 162.695143,67.810329 165.884782,67.810329 C169.143908,67.810329 172.687703,68.3749957 176.796353,65.0573 C180.340147,62.2350826 193.733046,48.3349087 196.212134,46.1487783 C198.692341,43.9615319 201.739646,41.4216478 201.739646,38.1050681 C201.739646,35.3531551 197.98291,32.390329 196.496803,30.696329 C194.866119,28.8617203 178.215215,12.2810536 176.017435,10.5881696 C173.821896,8.82386522 169.922826,7.48361884 164.041157,7.48361884 C143.208755,7.48361884 105.936149,7.27158986 46.2015787,7.27158986 C43.7919777,7.27158986 37.8397027,7.83625652 35.5713154,10.0235029 C33.3746559,12.2107493 17.9274319,26.5338652 14.1718165,30.4139957 C14.1718165,30.4139957 8.7866383,35.0005174 8.7866383,38.1050681 M4.10977074,29.6384159 C8.64542447,24.3466188 17.5732766,15.738242 30.9661755,3.24973478 C33.5169904,0.85045942 36.9890574,-0.0668449275 39.6822069,0.00345942029 C42.4459633,0.0748797101 147.532588,0.00345942029 171.341688,0.00345942029 C177.930546,0.00345942029 178.497643,2.12040145 180.907244,4.02531449 C183.387452,5.93022754 204.998772,27.7335029 206.629455,29.9207493 C208.330746,32.1068797 209.67676,35.6354884 209.67676,38.1050681 C209.67676,40.5043435 208.542566,44.8788362 206.417635,47.0649667 C203.795092,49.676271 186.434757,66.6809957 182.820355,70.2799087 C179.276561,73.8062855 176.302104,75.1465319 172.687703,75.1465319 L40.8152798,75.1465319 C37.4855473,75.1465319 34.7923979,75.1465319 31.2486032,72.4660391 C26.7857979,69.0088507 5.24396436,48.4766333 3.04618404,46.0081696 C0.850645213,43.5385899 0,40.5043435 0,38.1050681 C0,34.0129087 1.13307287,33.1659087 4.10977074,29.6384159" id="Fill-1" fill="#FFFFFF" mask="url(#mask-2)"></path>
                    </g>
                    <path d="M109.125004,17.0084072 L125.423994,17.0084072 C127.831354,16.8677986 130.099741,19.1956536 131.0916,21.5235087 C132.864618,25.3344507 133.076439,31.4721319 133.147046,37.8932623 C133.147046,44.7373348 132.437614,52.7096246 131.0916,55.2517406 C129.957406,57.5784797 128.471299,59.6251174 125.918243,59.6251174 L108.557907,59.6251174 C106.007093,59.6251174 104.37753,57.6487841 103.101002,55.4626536 C101.68438,52.9216536 100.905463,44.8087551 101.046677,37.8932623 C101.189011,31.4018275 101.046677,25.6870884 103.456278,21.3829 C104.731685,19.1253493 106.503582,17.0084072 109.125004,17.0084072 M117.062118,25.4750594 C114.722003,25.4750594 112.808892,27.5920014 112.808892,30.1318855 L112.808892,46.5005232 C112.808892,49.0415232 114.722003,51.1584652 117.062118,51.1584652 C119.399992,51.1584652 121.243617,49.0415232 121.243617,46.5005232 L121.243617,30.1318855 C121.243617,27.5920014 119.399992,25.4750594 117.062118,25.4750594" id="Fill-4" fill="#FFFFFF"></path>
                    <path d="M181.969038,36.9057652 C181.969038,35.0711565 183.457387,33.5188812 185.370498,33.5188812 C187.283609,33.5188812 188.842565,35.0711565 188.842565,36.9057652 C188.842565,38.8106783 187.283609,40.3629536 185.370498,40.3629536 C183.457387,40.3629536 181.969038,38.8106783 181.969038,36.9057652 Z" id="Stroke-6" stroke="#FFFFFF" stroke-width="0.69664"></path>
                    <path d="M184.733691,36.7645986 L184.733691,35.7055696 L185.72555,35.7055696 C186.22204,35.7055696 186.292646,35.9879029 186.292646,36.1999319 C186.292646,36.6239899 186.079705,36.7645986 185.654943,36.7645986 L184.733691,36.7645986 Z M183.881925,39.0221493 L184.733691,39.0221493 L184.733691,37.4698739 L185.583215,37.4698739 C186.150312,37.4698739 186.22204,37.6819029 186.22204,38.2465696 C186.22204,38.6695116 186.22204,38.8804246 186.292646,39.0221493 L187.213899,39.0221493 L187.213899,38.9518449 C187.000957,38.8804246 187.000957,38.7409319 187.000957,38.1048449 C187.000957,37.3995696 186.858623,37.2578449 186.504467,37.1172362 C186.929229,36.9755116 187.14105,36.6239899 187.14105,36.1296275 C187.14105,35.7769899 186.929229,35.0002942 185.867884,35.0002942 L183.881925,35.0002942 L183.881925,39.0221493 Z" id="Fill-8" fill="#FFFFFF"></path>
                    <path d="M50.027689,17.290629 L43.9342002,17.290629 C43.9342002,17.290629 38.3349597,17.290629 35.5723241,20.3951797 C33.0921161,23.2173971 31.7461018,27.3809768 34.225189,31.1908029 C36.6347901,35.000629 44.2166278,43.6078899 44.2166278,43.6078899 L49.1770438,49.1831362 C49.1770438,49.1831362 49.8147475,50.1707449 49.5311991,50.8749043 C49.1770438,51.863629 43.0118273,51.5109913 43.0118273,51.5109913 L37.1312799,51.5812957 C37.1312799,51.5812957 35.5723241,51.4418029 34.7216789,51.9339333 C33.2333299,52.8512377 33.588606,56.0963971 33.588606,56.0963971 C33.588606,56.0963971 33.6592129,59.0614551 34.5804651,59.4843971 C35.5017172,59.8370348 37.3431007,59.9062232 40.8868954,59.8370348 C45.7049768,59.7656145 53.8539113,59.6953101 53.8539113,59.6953101 C53.8539113,59.6953101 59.026148,58.8494261 60.9403799,55.462542 C62.2863943,52.921542 63.8453502,48.5470493 60.1603416,44.1022522 C56.5470608,39.6563391 46.2014666,28.0862522 46.2014666,28.0862522 C46.2014666,28.0862522 45.493156,27.2392522 45.7755837,26.5339768 C45.9885252,25.8978899 46.0591321,25.4046435 46.9097773,25.4046435 C47.7604225,25.4046435 56.4047262,25.5452522 56.4047262,25.5452522 C56.4047262,25.5452522 57.8224682,25.5452522 58.6013858,24.6993681 C59.3814241,23.8523681 59.3814241,23.1470928 59.3814241,21.6651217 C59.3814241,20.1831507 59.6649725,18.348542 58.5307789,17.6432667 C57.3259784,16.9379913 50.027689,17.290629 50.027689,17.290629" id="Fill-10" fill="#FFFFFF"></path>
                    <path d="M167.867828,17.0084072 L174.88369,17.0084072 C176.159097,17.0084072 177.221563,18.0674362 177.221563,19.3362623 L177.221563,57.014929 C177.221563,58.2826391 176.159097,59.2724797 174.88369,59.2724797 L167.867828,59.2724797 C166.593541,59.2724797 165.600562,58.2826391 165.600562,57.014929 L165.600562,19.3362623 C165.600562,18.0674362 166.593541,17.0084072 167.867828,17.0084072" id="Fill-12" fill="#FFFFFF"></path>
                    <path d="M65.7585734,36.6937362 L65.6879665,35.8467362 C65.6879665,36.4114029 65.5456319,24.7687797 65.6173596,19.8307362 C65.6173596,18.9837362 65.7585734,17.9961275 66.3962771,17.6434899 C67.6716846,16.8667942 70.9308101,17.1491275 70.9308101,17.1491275 C70.9308101,17.1491275 75.4664638,16.8667942 76.387716,17.7852145 C77.3089681,18.7717072 77.3089681,20.3250986 77.3089681,23.0055913 C77.3089681,26.1804464 77.379575,28.1567797 77.379575,31.1899101 C77.379575,31.3316348 77.6631234,31.7545768 77.805458,31.8963014 C77.9466718,32.0369101 78.3008271,32.1072145 78.5843755,32.1072145 C79.3632931,32.1786348 81.4893457,32.1786348 81.4893457,32.1786348 L84.4660436,32.1786348 C84.6072574,32.1786348 85.0331404,32.0369101 85.1037473,31.9666058 C85.2449612,31.8963014 85.6697234,31.5436638 85.7414511,31.1196058 L85.7414511,24.628171 C85.7414511,24.628171 85.4579027,19.1957652 86.1662133,18.1378522 C86.3791548,17.7852145 86.5909755,17.5731855 87.0874654,17.2908522 C87.9381106,16.8667942 91.5513915,17.0085188 91.5513915,17.0085188 C91.5513915,17.0085188 96.1576521,16.7964899 96.5824144,17.7852145 C96.7247489,17.9961275 97.3624527,18.6310986 97.290725,19.7604319 C97.290725,20.1130696 97.4330596,37.4693159 97.4330596,37.4693159 C97.4330596,38.0350986 97.4330596,38.7403739 97.3624527,39.2336203 C97.4330596,48.4769681 97.8589426,57.5785913 96.8659628,58.7079246 C95.8741037,59.837258 91.9066676,59.4835043 91.9066676,59.4835043 C91.9066676,59.4835043 87.3004069,59.7647217 86.3791548,58.778229 C85.4579027,57.8598087 85.6697234,53.908258 85.6697234,51.1574609 L85.6697234,42.973142 C85.6697234,42.8314174 85.3872957,42.4095913 85.2449612,42.2678667 C85.1037473,42.1975623 84.749592,42.0558377 84.394316,42.0558377 C83.6860053,41.9866493 81.5610734,42.0558377 81.5610734,42.0558377 L78.5843755,42.0558377 C78.442041,42.0558377 77.805458,41.9866493 77.6631234,42.126142 C77.5925165,42.1975623 77.0254197,42.5513159 77.0254197,42.973142 C77.0254197,44.0310551 76.9548128,49.4645768 76.9548128,49.4645768 C76.9548128,49.4645768 76.9548128,54.967287 76.8830851,56.0274319 C76.8830851,56.4503739 77.1666335,58.2135623 76.2453814,58.989142 C75.3958569,59.7647217 71.4990277,59.625229 71.4990277,59.625229 C71.4990277,59.625229 67.0339809,59.9789826 66.0421218,58.6365043 C65.6879665,58.0718377 65.6173596,55.602258 65.6173596,54.4751565 C65.6879665,54.0499826 65.6173596,36.6937362 65.6173596,36.6937362 L65.7585734,36.6937362 Z" id="Fill-14" fill="#FFFFFF"></path>
                    <path d="M150.294888,25.3344507 C149.870125,25.3344507 149.373636,25.4047551 149.233542,25.6167841 C149.01836,25.9694217 148.878266,26.2517551 148.878266,26.5340884 L148.878266,31.1909145 C148.948873,31.1909145 148.948873,32.3191319 149.233542,32.5311609 C149.445363,32.7431899 149.727791,32.8837986 149.940732,32.8837986 L150.579557,32.9541029 L156.458983,32.9541029 C157.735512,32.9541029 158.799098,34.0131319 158.799098,35.2830739 L158.799098,39.4455377 C158.799098,40.7154797 157.735512,41.7745087 156.458983,41.7745087 L151.004319,41.7745087 C150.366615,41.844813 149.585456,41.9140014 149.373636,42.1260304 C149.091208,42.4094797 148.948873,42.7621174 148.878266,43.115871 L148.878266,49.3227406 C148.878266,49.6061899 148.948873,50.1708565 149.160694,50.3125812 C149.373636,50.5234942 149.658305,50.7355232 149.870125,50.7355232 L150.506708,50.7355232 L161.066365,50.7355232 C162.340652,50.7355232 163.404238,51.7923203 163.404238,53.0633783 L163.404238,57.1566536 C163.404238,58.4243638 162.340652,59.4845087 161.066365,59.4845087 L146.822821,59.4845087 L146.538152,59.4845087 L139.098648,59.4845087 C137.824362,59.4845087 136.760775,58.4969 136.760775,57.225842 L136.760775,19.1253493 C136.760775,17.8554072 137.824362,16.7974942 139.098648,16.7974942 L146.538152,16.7974942 C146.751093,16.7974942 146.893428,16.8677986 147.105248,16.8677986 L160.499268,16.8677986 C161.773555,16.8677986 162.837141,17.9257116 162.837141,19.1956536 L162.837141,23.0054797 C162.837141,24.2754217 161.773555,25.3344507 160.499268,25.3344507 L150.294888,25.3344507 Z" id="Fill-16" fill="#FFFFFF"></path>
                </g>
            </g>
        </g>
    </g>
</svg>