<svg id="Capa_1" data-name="Capa 1" xmlns="http://www.w3.org/2000/svg" viewBox="0 0 40 40"><defs><style>.cls-1{fill:#a72c2c;}.cls-2,.cls-3{fill:none;stroke-linecap:round;}.cls-2{stroke:#363636;stroke-linejoin:round;}.cls-3{stroke:#a72c2c;stroke-miterlimit:10;}</style></defs><title>02-moto-equipacion-carretera-cascos-modulares</title><path class="cls-1" d="M6.25,8.17a.49.49,0,0,0-.51.13.5.5,0,0,0-.14.35A.58.58,0,0,0,5.75,9h0a.49.49,0,0,0,.69,0,.45.45,0,0,0,.14-.36.48.48,0,0,0-.14-.34A.48.48,0,0,0,6.25,8.17Z"/><path class="cls-1" d="M33.23,13.2a.5.5,0,0,0,.19.48.49.49,0,0,0,.37.09.43.43,0,0,0,.32-.19h0a.5.5,0,0,0-.1-.69.55.55,0,0,0-.37-.1.53.53,0,0,0-.33.19A.52.52,0,0,0,33.23,13.2Z"/><path class="cls-2" d="M31.32,6.5c-3.65,8-5.66,10.17-7.79,12.73s-4.81,3.6-7.55,2.26-2.09-4-1.21-5.7a77.87,77.87,0,0,0,3.3-7.71,26.35,26.35,0,0,0,1-3.36c.09-.45.14-.72.14-.72A33.89,33.89,0,0,1,31.32,6.5Z"/><path class="cls-2" d="M16.36,17.8a1.36,1.36,0,1,0,1.58-1.1A1.37,1.37,0,0,0,16.36,17.8Z"/><line class="cls-3" x1="35.03" y1="11.77" x2="36.04" y2="10.41"/><path class="cls-2" d="M16.41,6.4A24.07,24.07,0,0,0,8.17,7.86"/><path class="cls-2" d="M4.18,10.15a5,5,0,0,0-1,1.43v1.57S.85,17.79,1,21.25c1.08,1.41,1.24,7.16,1.24,7.16A131.38,131.38,0,0,1,22.88,36s1.2-2.26,1-3.08c0,0-2-6.07-2.94-8.93"/><path class="cls-2" d="M27.32,18.19l5.69.48c1.8-2.71,3.8-5.51,6-8.24a15.43,15.43,0,0,0-2.83-3,8,8,0,0,0-2.54-.68"/></svg>