<svg id="Capa_1" data-name="Capa 1" xmlns="http://www.w3.org/2000/svg" viewBox="0 0 40 40"><defs><style>.cls-1{fill:none;stroke:#363636;stroke-linecap:round;stroke-linejoin:round;}.cls-2{fill:#a72c2c;}</style></defs><title>03-moto-equipacion-carretera-cascos-jet</title><ellipse class="cls-1" cx="17.6" cy="23.11" rx="4.16" ry="4.01"/><path class="cls-1" d="M32.63,9A17.78,17.78,0,0,0,21.51,4.1,23.15,23.15,0,0,0,7.72,7.18"/><path class="cls-1" d="M3.43,10.27a10,10,0,0,0-1.56,1.65,2,2,0,0,0,0,1.29c.1.14-2.82,6,1.53,14.29.42.32,5.93.63,8.94,2.73S20.5,35.85,22.12,36a4,4,0,0,0,3.28-1.33"/><path class="cls-2" d="M5.63,8.15a.5.5,0,0,0-.5.13A.52.52,0,0,0,5,8.63.49.49,0,0,0,5.14,9h0a.49.49,0,0,0,.69,0A.52.52,0,0,0,6,8.63a.47.47,0,0,0-.15-.35A.57.57,0,0,0,5.63,8.15Z"/><path class="cls-2" d="M38.28,24.18a.51.51,0,0,0-.15.8.54.54,0,0,0,.34.16h0a.51.51,0,0,0,.51-.48.52.52,0,0,0-.14-.36.46.46,0,0,0-.34-.16A.47.47,0,0,0,38.28,24.18Z"/><path class="cls-1" d="M38.53,22.05a26.42,26.42,0,0,0-2.31-10.88L25.33,12.7l-3.86,4.78"/><line class="cls-1" x1="36.23" y1="24.45" x2="24.27" y2="23.52"/></svg>