<svg id="Capa_1" data-name="Capa 1" xmlns="http://www.w3.org/2000/svg" viewBox="0 0 40 40"><defs><style>.cls-1,.cls-2{fill:none;stroke-linecap:round;stroke-linejoin:round;}.cls-1{stroke:#363636;stroke-width:0.81px;}.cls-2{stroke:#a72c2c;}.cls-3{fill:#a72c2c;}</style></defs><title>128-motos-cascos</title><path class="cls-1" d="M26.07,27.94c.73.65,3.67,2.9,4.74,3.15s.9-.51,1.34-1.37,2-2.81,2.12-3.9a3.59,3.59,0,0,0-.5-2.47,1.53,1.53,0,0,0-1.7.71c-.24.43-1,.61-1.81.64"/><path class="cls-1" d="M34.82,16.78c1.09-.08,1.85-.12,2-.11.37,0,.52.38,1.26.34s1.27-.23,1.3-.5.5-.61-.55-1c-.85-.29-5.92-2.77-7.78-3.67a9.11,9.11,0,0,0-4.42-1.11c-2.76,0-4.85.66-6.28,2.34"/><path class="cls-1" d="M21,24.33c1.79,1.32,4.59,3.16,5.1,3.61.73.65,3.67,2.9,4.74,3.15s.9-.51,1.34-1.37,2-2.81,2.12-3.9a3.59,3.59,0,0,0-.5-2.47,1.53,1.53,0,0,0-1.7.71c-.42.75-2.55.73-3.25.52s-.4-.63-1-.9-3.69-2.41-3.88-3.1.5-2.75,1.13-3,11.29-1,11.67-.95.52.38,1.26.34,1.27-.23,1.3-.5.5-.61-.55-1-8.46-4-8.46-4"/><path class="cls-1" d="M34.05,17.73s-1.56,1-1.64,2.33,1.36,3.29,1.36,3.29"/><path class="cls-1" d="M33,26.41s-2.34.85-2.44,1.18a8.9,8.9,0,0,0-.24,2c.06.26.52.44.52.44"/><line class="cls-2" x1="21.82" y1="20.95" x2="23.93" y2="24.51"/><path class="cls-1" d="M29.56,12.28s2.65,1.23,2.55,1.28-8.54.9-8.54.9-.66.09-.69.62a1.32,1.32,0,0,0,1.05,1.24c.51,0,4.33-.2,5.08-.22s1.43,1,1.43,1l2.23-.17s0-.86.38-1,3.36-.35,3.36-.35"/><path class="cls-1" d="M8.72,29.38a20.18,20.18,0,0,1-3.84,1.79,1.18,1.18,0,0,1-1.26-.78c-.07-.23-.15-.42-.15-.42a7,7,0,0,1-1.28-1.66A11.62,11.62,0,0,0,1.62,27a7,7,0,0,1-.25-1.05"/><path class="cls-1" d="M1.62,17A7.44,7.44,0,0,1,2,15.15,9,9,0,0,1,9.14,10a17.75,17.75,0,0,1,9.23,1.91c.67.36.36,1.55.36,1.55s1.72,2,1.72,3.45-.71,4.31-.38,4.79,1.06,1.5.13,2.06"/><path class="cls-1" d="M1.16,17.75a.34.34,0,0,1,.31-.19c.23,0,5.38.3,7.55.1s5.08-1,6-1,1.64.38,1.64,1.13A6.34,6.34,0,0,1,13.83,22a40.31,40.31,0,0,1-7,3.11,17.35,17.35,0,0,1-4.16.93,4,4,0,0,1-1.3-.15A53.7,53.7,0,0,1,1.16,17.75Z"/><path class="cls-1" d="M4.65,15.23a10,10,0,0,1,2.48-2c1.19-.57,1.64-.7,1.71-.61a4.43,4.43,0,0,1-1.55,1.89c-.67.29-1.72.44-2.1.67S4.65,15.23,4.65,15.23Z"/><path class="cls-1" d="M16.24,11s1.23.83,1.14,1.84-.56,1.62-.21,1.77a1.69,1.69,0,0,0,1.2-.25c.25-.15.36-.89.36-.89"/><path class="cls-1" d="M8.72,29.38s6-3.93,7.15-4.42,2.88-.69,4.33-1.24"/><path class="cls-3" d="M14.73,17.64c-.23,0-.42.27-.42.59s.19.6.42.6.42-.27.42-.6S15,17.64,14.73,17.64Z"/></svg>