<svg id="Capa_1" data-name="Capa 1" xmlns="http://www.w3.org/2000/svg" viewBox="0 0 40 40"><defs><style>.cls-1,.cls-2{fill:none;stroke-linecap:round;stroke-width:0.91px;}.cls-1{stroke:#393939;stroke-linejoin:round;}.cls-2{stroke:#a72c2c;stroke-miterlimit:10;}.cls-3{fill:#393939;}.cls-4{fill:#a72c2c;}</style></defs><title>132-moto-accesorios</title><path class="cls-1" d="M25.66,12.24a10,10,0,0,0-6.35-2.42H10a10.66,10.66,0,0,0-6.35,2.42"/><path class="cls-1" d="M1.1,16.56s0,.24,0,.26a8.24,8.24,0,0,0-.13,1.42h0s-.42,3.48,7.59,3.48H20.78c8,0,7.59-3.42,7.58-3.48h0a13.28,13.28,0,0,0-.19-1.68"/><path class="cls-1" d="M1,17.39c.16.92,1.2,3.08,7.56,3.08H20.81c8,0,7.47-3.42,7.46-3.49"/><polyline class="cls-1" points="12.31 19.15 9.72 19.15 19.58 19.15"/><path class="cls-2" d="M14.67,16c1.1,0,4.47-.23,4.47-.23l.44-1.31H9.72l.44,1.31S13.58,16,14.67,16Z"/><path class="cls-2" d="M3.64,12.24A8.67,8.67,0,0,0,1.1,16.56c.44,1,2,2.59,7.42,2.59h1.2S9.56,17,9.19,16.89a19.85,19.85,0,0,1-2.53-.5C6.31,16.13,5.91,12.82,3.64,12.24Z"/><path class="cls-1" d="M28.32,18.74s-1.17,4.09-1.52,5-1.44,1.74-3.65,2.16a54.65,54.65,0,0,1-8.52.66,54.65,54.65,0,0,1-8.52-.66c-2.21-.42-3.3-1.21-3.65-2.16S1,18.83,1,18.83"/><line class="cls-1" x1="11.42" y1="21.72" x2="12.23" y2="26.53"/><line class="cls-1" x1="17.71" y1="21.72" x2="16.88" y2="26.54"/><line class="cls-1" x1="11.82" y1="24.13" x2="17.3" y2="24.13"/><circle class="cls-3" cx="14.65" cy="25.37" r="0.38"/><path class="cls-2" d="M19.66,19.15h1.13c5.45,0,7-1.58,7.39-2.62a6.77,6.77,0,0,0-2.52-4.29c-2.27.58-2.66,3.89-3,4.15a20,20,0,0,1-2.54.5c-.37.14-.53,2.26-.53,2.26"/><path class="cls-1" d="M31.4,22.87V13.41a2.55,2.55,0,0,1,5.09,0v9.46"/><path class="cls-1" d="M37.67,25.5H30.22a1,1,0,0,1-1-1v-.1a1.57,1.57,0,0,1,1.61-1.53h6.33a1.57,1.57,0,0,1,1.61,1.53v.1A1,1,0,0,1,37.67,25.5Z"/><path class="cls-4" d="M30.26,23.86a.5.5,0,0,0-.15.5.53.53,0,0,0,.61.36h0a.5.5,0,0,0,.34-.61.57.57,0,0,0-.23-.3.46.46,0,0,0-.38-.05A.53.53,0,0,0,30.26,23.86Z"/></svg>