<svg id="Capa_1" data-name="Capa 1" xmlns="http://www.w3.org/2000/svg" viewBox="0 0 40 40"><defs><style>.cls-1,.cls-2{fill:none;stroke-linecap:round;}.cls-1{stroke:#393939;stroke-linejoin:round;}.cls-2{stroke:#a72c2c;stroke-miterlimit:10;}</style></defs><title>133-moto-ropa-casual</title><path class="cls-1" d="M15.9,28.93A35.71,35.71,0,0,0,27,32.22a.8.8,0,0,0,.71-.31h0a10.12,10.12,0,0,0-9.32-14.06,10.1,10.1,0,0,0-10,8.82C8.69,26.62,10.55,26.46,15.9,28.93Z"/><path class="cls-1" d="M19.9,32.22a25.27,25.27,0,0,1-7.35,1.38c-3-.11-4.88-2.24-6.4-3.05a10,10,0,0,0-3.9-.75s-.64-.26.39-.61,5.77-2.52,5.77-2.52"/><path class="cls-1" d="M22.36,18.63A17.8,17.8,0,0,1,21,30.9"/><path class="cls-2" d="M14.14,23.75a1.11,1.11,0,0,0-.62,1,1.16,1.16,0,0,0,.33.81,1.08,1.08,0,0,0,.79.34h0a1.14,1.14,0,0,0,1.12-1.14,1.22,1.22,0,0,0-.33-.81,1.12,1.12,0,0,0-.8-.34A1.08,1.08,0,0,0,14.14,23.75Z"/><path class="cls-1" d="M30.05,27.88a9,9,0,0,0,2.83-.66L32.6,13.39s.56,1.71,1.12,3.11a9.81,9.81,0,0,0,3.08-.75S35.62,9.9,35.44,9.14a6.67,6.67,0,0,0-3.19-3.88,8.32,8.32,0,0,0-2.16-.86C29.89,5.49,28.6,6.33,27,6.33a3,3,0,0,1-3-1.88,7.83,7.83,0,0,0-1.92.78A6.61,6.61,0,0,0,18.87,9.1c-.19.76-1.39,6.59-1.39,6.59a9.51,9.51,0,0,0,3.07.77c.57-1.39,1.14-3.1,1.14-3.1v3.15"/></svg>