<svg id="Capa_1" data-name="Capa 1" xmlns="http://www.w3.org/2000/svg" viewBox="0 0 40 40"><defs><style>.cls-1,.cls-3{fill:none;stroke-linecap:round;}.cls-1{stroke:#393939;stroke-linejoin:round;}.cls-2{fill:#a72c2c;}.cls-3{stroke:#a72c2c;stroke-miterlimit:10;}</style></defs><title>134-marcas</title><path class="cls-1" d="M30,20.32,16.14,33.83a5.13,5.13,0,0,1-7.13,0L5,29.87a4.81,4.81,0,0,1,0-6.94L18.82,9.41A5.11,5.11,0,0,1,22.56,8l3.93.13a5,5,0,0,1,4.85,4.73l.14,3.83A4.86,4.86,0,0,1,30,20.32Z"/><ellipse class="cls-1" cx="25.87" cy="13.56" rx="1.69" ry="1.65"/><path class="cls-1" d="M30.21,9.91A6.69,6.69,0,0,1,36.6,5.73"/><path class="cls-2" d="M6.75,25.91a.69.69,0,0,0,.15.72.71.71,0,0,0,.48.23.69.69,0,0,0,.5-.18l0,0a.7.7,0,0,0,0-1,.69.69,0,0,0-1-.05A.76.76,0,0,0,6.75,25.91Z"/><line class="cls-3" x1="9.38" y1="24.4" x2="10.88" y2="23.03"/><line class="cls-3" x1="10.83" y1="25.95" x2="12.33" y2="24.58"/><path class="cls-2" d="M6.75,25.91a.69.69,0,0,0,.15.72.71.71,0,0,0,.48.23.69.69,0,0,0,.5-.18l0,0a.7.7,0,0,0,0-1,.69.69,0,0,0-1-.05A.76.76,0,0,0,6.75,25.91Z"/><line class="cls-3" x1="9.38" y1="24.4" x2="10.88" y2="23.03"/><line class="cls-3" x1="10.83" y1="25.95" x2="12.33" y2="24.58"/></svg>