<svg id="Capa_1" data-name="Capa 1" xmlns="http://www.w3.org/2000/svg" viewBox="0 0 40 40"><defs><style>.cls-1,.cls-2{fill:none;stroke-linecap:round;}.cls-1{stroke:#393939;stroke-linejoin:round;}.cls-2{stroke:#a72c2c;stroke-miterlimit:10;}</style></defs><title>137 - Outlet</title><path class="cls-1" d="M3,16.48h8.21"/><path class="cls-1" d="M3,23.52h8.21"/><path class="cls-1" d="M3,16.48,5.93,20"/><path class="cls-1" d="M3,23.52,5.93,20"/><path class="cls-1" d="M37,16.48H28.79"/><path class="cls-1" d="M37,23.52H28.79"/><path class="cls-1" d="M37,16.48,34.07,20"/><path class="cls-1" d="M37,23.52,34.07,20"/><path class="cls-1" d="M28.79,16.48,31.72,20"/><path class="cls-1" d="M28.79,23.52,31.72,20"/><path class="cls-1" d="M11.21,16.48,8.28,20"/><path class="cls-1" d="M11.21,23.52,8.28,20"/><path class="cls-1" d="M16.48,12.38,20,9.45"/><path class="cls-1" d="M23.52,12.38,20,9.45"/><path class="cls-1" d="M16.48,27.62,20,30.55"/><path class="cls-1" d="M23.52,27.62,20,30.55"/><path class="cls-1" d="M11.21,16.48l.58-4.1"/><path class="cls-1" d="M16.48,12.38H11.79"/><path class="cls-1" d="M11.21,23.52l.58,4.1"/><path class="cls-1" d="M16.48,27.62H11.79"/><path class="cls-1" d="M28.79,16.48l-.58-4.1"/><path class="cls-1" d="M23.52,12.38h4.69"/><path class="cls-1" d="M28.79,23.52l-.58,4.1"/><path class="cls-1" d="M23.52,27.62h4.69"/><path class="cls-2" d="M24.1,22.34a1.17,1.17,0,1,1-1.17-1.17,1.17,1.17,0,0,1,1.17,1.17Z"/><path class="cls-2" d="M18.83,17.07a1.18,1.18,0,1,1-1.17-1.17,1.17,1.17,0,0,1,1.17,1.17Z"/><path class="cls-2" d="M16.48,23.52,24.1,15.9"/></svg>