<?xml version="1.0" encoding="UTF-8"?>
<svg id="Layer_1" data-name="Layer 1" xmlns="http://www.w3.org/2000/svg" version="1.1" viewBox="0 0 40 40">
  <defs>
    <style>
      .cls-1 {
        fill: none;
        stroke: #3c3c3c;
        stroke-linecap: round;
        stroke-linejoin: round;
        stroke-width: .9px;
      }
    </style>
  </defs>
  <path class="cls-1" d="M23.3,14.3c-.5-2.8-1-4.3-1.5-5s-3.5-1.9-3.8-2.1-.6-1.5-.9-1.8-2-.2-2-.2c0,0-1.9,0-2.2.2s-.6,1.6-.9,1.8-3.1,1.1-3.8,2.1-2.4,8.5-2.4,10.1,1.5,9.7,1.6,10,.6.6,1.4.5.9-.6.8-.8-.8-8.4-.9-9.3,1.2-5.8,1.3-5.8-.1,1.9.5,4.2-.5,4.8-.9,5.7"/>
  <path class="cls-1" d="M20.4,23.9c-.4-.9-1.6-3.5-.9-5.7s.4-4.2.5-4.2,1.3,4.9,1.3,5.8-.8,9.2-.9,9.3,0,.7.8.8,1.3-.2,1.4-.5,1.5-7.7,1.4-9.3"/>
  <path class="cls-1" d="M20.5,27.7s-1.8.7-5.5.7h-.1c-3.7,0-5.5-.7-5.5-.7"/>
  <path class="cls-1" d="M15,28.4"/>
  <line class="cls-1" x1="15" y1="28.4" x2="15" y2="12.8"/>
  <path class="cls-1" d="M13.6,7.5"/>
  <path class="cls-1" d="M17.1,5.4"/>
  <path class="cls-1" d="M17.1,5.4"/>
  <path class="cls-1" d="M11.7,7.6s.9,2.3,1.5,2.9.7,1.1.7,1.1"/>
  <path class="cls-1" d="M16,11.6s.5-1.4,1.1-2.3.8-2,.8-2"/>
  <path class="cls-1" d="M12.1,19.9s1.6.8,5.9,0"/>
  <line class="cls-1" x1="15" y1="8.9" x2="15" y2="11.1"/>
  <g>
    <path class="cls-1" d="M30.8,9s-.3-.5-1.3-.5-5,.3-5.3.5-1.5,4-.7,8.1,1.1,8.2,1.4,10.7.4,7.2.5,7.3,1.8.4,1.9,0-.2-2.5,0-4.3.1-2.7,0-5.1,0-6.9,0-7.2.1-1,.1-1c0,0,.6,3.7,1.1,5.8s1,6.1,1,7.2.2,4.6.2,4.8.3.4.9.4.9,0,.9-.4-.1-2.7.3-4.6,0-4.5-.4-6.3-.2-4.9,0-6.3.3-4.3,0-5.6-.8-3.4-.8-3.4Z"/>
    <path class="cls-1" d="M30.8,9s-1.4.9-2.7,1-2.4,0-3-.2-.9-.8-.9-.8"/>
    <path class="cls-1" d="M26.9,13.1c0-.5,0-.8,0-.8l.2-2.3"/>
    <path class="cls-1" d="M27.6,17.5s-.2-1.2-.5-2.2-.1-.6-.2-1"/>
    <path class="cls-1" d="M24.3,10.6s2.5,1.3,6,0"/>
  </g>
  <path class="cls-1" d="M12.9,5.4s-.3,1.8.7,2,1.5.6,1.5,1.5"/>
  <path class="cls-1" d="M17.2,5.6s0,1.6-.9,1.7-1.3.7-1.3,1.5"/>
</svg>