<svg height="40" width="60" xmlns="http://www.w3.org/2000/svg"><g fill="none" fill-rule="evenodd" transform="translate(7 7)"><g stroke="#363636" stroke-linecap="round" stroke-linejoin="round"><circle cx="23.083" cy="15.034" r="2.174"/><path d="m34.56 18.533a4.478 4.478 0 1 1 4.42 4.507 4.507 4.507 0 0 1 -4.42-4.507zm-2.074-2.88a8.136 8.136 0 0 1 -2.13-1.8 11.146 11.146 0 0 1 -.62-1.7.648.648 0 0 1 .202-.561c.345-.317 8.64-4.32 10.296-5.17a6.494 6.494 0 0 0 2.664-2.534 13.824 13.824 0 0 0 -6.365 0c-.663.302-.965 1.714-1.368 2.131a16.574 16.574 0 0 1 -7.834 1.325c-1.094-1.742-3.081-3.989-4.579-4.032a40.81 40.81 0 0 0 -8.755 1.44 14.501 14.501 0 0 0 -2.247 2.131m-5.284-1.987 13.334 5.501"/><path d="m30.096 21.989s-14.702.302-16.013.288a.648.648 0 0 1 -.662-.72c.236-1.3.236-2.632 0-3.931-.447-.98-5.904-6.581-7.07-6.855a9.98 9.98 0 0 0 -1.7-.23c-1.123 0-.533-1.08-.533-1.08 1.714-5.847 7.69-9.461 7.69-9.461"/><path d="m2.074 19.166a4.608 4.608 0 0 1 4.593-4.622h.029a4.666 4.666 0 0 1 4.637 4.666 4.622 4.622 0 0 1 -4.608 4.636h-.029a4.666 4.666 0 0 1 -4.622-4.68z"/><path d="m3.946 13.06a6.653 6.653 0 0 0 -3.946 6.107 6.74 6.74 0 0 0 6.696 6.754 6.61 6.61 0 0 0 4.968-2.189m20.232-5.616v.404a7.2 7.2 0 0 0 7.1 7.2 7.07 7.07 0 0 0 7.084-7.057v-.072a7.2 7.2 0 0 0 -7.1-7.2 7.042 7.042 0 0 0 -6.494 4.234"/></g><path d="m6.984 7.675a.706.706 0 0 0 -.389.648.72.72 0 0 0 .202.504c.13.14.313.219.504.216a.72.72 0 0 0 .49-1.224.648.648 0 0 0 -.505-.216.85.85 0 0 0 -.302.072z" fill="#a72c2c" fill-rule="nonzero"/></g></svg>