<svg height="40" width="60" xmlns="http://www.w3.org/2000/svg"><g fill="none" fill-rule="evenodd" transform="translate(5 6)"><g stroke="#363636" stroke-linecap="round" stroke-linejoin="round"><path d="m16.422 4.258s1.632-1.326 2.84-1.088c1.206.24 8.038 2.653 8.675 3.98.636 1.327 1.711 4.324 1.711 4.324s-11.514-2.308-12.562-3.394c-1.048-1.088-.664-3.82-.664-3.82z"/><path d="m7.044 19.898 9.034-19.434h4.298"/><path d="m14.87 7.322 5.837 15.587h11.223l2.984-2.626h6.845m-12.814-10.705 6.5 1.406s1.393-3.98 2.971-4.378a3.78 3.78 0 0 1 2.813.517v4.391c0 1.579-3.33 1.751-3.33 1.751l-8.251-1.75zm-6.208 5.796h3.581m-3.581 1.579h3.581"/><path d="m26.663 18.532h-5.611l.876 2.799h8.954l1.578-2.096 3.781-6.248-13.73-3.091v3.9h4.152zm8.41 4.298a7.243 7.243 0 1 0 7.655-9.803m-34.769.238a6.752 6.752 0 0 0 -.743 0 6.288 6.288 0 1 0 6.288 6.288 6.235 6.235 0 0 0 -1.976-4.696"/><path d="m6.978 15.467a3.98 3.98 0 1 0 3.395 1.46m27.433 5.266a4.404 4.404 0 1 0 0-3.807"/></g><path d="m19.407 5.306a.637.637 0 0 0 -.358.584.69.69 0 0 0 .186.477.66.66 0 0 0 .464.186.637.637 0 0 0 .65-.65.65.65 0 0 0 -.199-.477.703.703 0 0 0 -.451-.2.637.637 0 0 0 -.292.08z" fill="#a72c2c" fill-rule="nonzero"/></g></svg>