<svg height="40" width="60" xmlns="http://www.w3.org/2000/svg"><g fill="none" fill-rule="evenodd" transform="translate(10 8)"><g stroke="#363636" stroke-linecap="round" stroke-linejoin="round"><ellipse cx="4.891" cy="18.317" rx="2.707" ry="2.75"/><path d="m39.48 13.795 1.08 2.549m-9.418 5.156a4.594 4.594 0 0 0 3.413 1.54 4.709 4.709 0 0 0 4.32-6.322"/><path d="m32.842 20.448c.48.401 1.087.62 1.713.62a2.722 2.722 0 0 0 2.707-2.751 2.318 2.318 0 0 0 0-.562m-2.678-6.235a6.797 6.797 0 0 0 -6.638 5.5m-10.181-17.02h-2.535a1.267 1.267 0 0 0 -1.252.85l-.519 1.224"/><path d="m10.205 3.643-2.765 5.674a9.418 9.418 0 0 0 -5.76 2.203s-1.829 1.8.36.806a6.408 6.408 0 0 1 2.88-.662 6.538 6.538 0 0 1 6.466 5.832s.144 3.096 2.26 3.096h14.775l11.059-6.826a7.46 7.46 0 0 0 -3.14-3.628l.62-1.368s.59-1.858-2.462-2.088a15.293 15.293 0 0 0 -9.778 2.145h-3.542s-1.988-.475-2.88 2.405a3.528 3.528 0 0 0 2.188 4.882 6.206 6.206 0 0 1 -.086 1.627 1.555 1.555 0 0 1 -.317.46c-.362.216-.774.33-1.195.332h-4.046c-.75 0-.908-1.051-.908-1.051a9.216 9.216 0 0 0 -3.73-6.639c-.345-.23-.086-.777-.086-.777l3.341-7.978"/><path d="m5.28 13.608h-.389a4.723 4.723 0 1 0 4.651 4.723 4.738 4.738 0 0 0 -1.324-3.312"/></g><path d="m32.078 13.882a.734.734 0 0 0 -.388.648.72.72 0 0 0 .201.504.706.706 0 0 0 .504.216.72.72 0 0 0 .504-1.224.706.706 0 0 0 -.504-.216.864.864 0 0 0 -.317.072z" fill="#a72c2c" fill-rule="nonzero"/></g></svg>