<?xml version="1.0" encoding="UTF-8"?>
<svg width="40px" height="40px" viewBox="0 0 40 40" version="1.1" xmlns="http://www.w3.org/2000/svg" xmlns:xlink="http://www.w3.org/1999/xlink">
    <title>Casco - intercomunicador</title>
    <g id="Casco---intercomunicador" stroke="none" stroke-width="1" fill="none" fill-rule="evenodd">
        <g id="Group-29" transform="translate(2, 2)">
            <path d="M28.7105867,31.2 C28.5105867,31.2 28.3105867,31.3 28.2105867,31.5 C28.1105867,31.6 28.1105867,31.8 28.2105867,31.9 C28.2105867,32 28.3105867,32.1 28.5105867,32.2 C28.8105867,32.3 29.1105867,32.2 29.2105867,32 C29.3105867,31.9 29.3105867,31.7 29.2105867,31.6 C29.2105867,31.5 29.1105867,31.4 28.9105867,31.3 C28.8105867,31.2 28.7105867,31.2 28.7105867,31.2" id="Fill-1" fill="#A72C2C"></path>
            <path d="M35.8105867,27.3 C26.1105867,24.9 23.3105867,23.1 20.0105867,21.3 C16.7105867,19.5 15.0105867,16.7 15.9105867,13.4 C16.8105867,10.1 20.0105867,10.3 22.0105867,10.9 C24.0105867,11.5 28.5105867,12.5 31.3105867,13 C32.9105867,13.3 34.4105867,13.4 35.2105867,13.4 L36.0105867,13.4 C36.0105867,13.4 37.4105867,19.8 35.8105867,27.3 Z" id="Stroke-3" stroke="#363636" stroke-linecap="round" stroke-linejoin="round"></path>
            <path d="M20.2105867,13.1 C19.3105867,13.1 18.6105867,13.8 18.6105867,14.6 C18.6105867,15.4 19.3105867,16.1 20.2105867,16.1 C21.1105867,16.1 21.8105867,15.4 21.8105867,14.6 C21.7105867,13.8 21.0105867,13.1 20.2105867,13.1 Z" id="Stroke-5" stroke="#363636" stroke-linecap="round" stroke-linejoin="round"></path>
            <line x1="30.5105867" y1="32.7" x2="32.3105867" y2="33.5" id="Stroke-7" stroke="#A72C2C" stroke-linecap="round"></line>
            <path d="M5.81058673,2.4 C5.61058673,2.3 5.41058673,2.4 5.21058673,2.5 C5.11058673,2.6 5.11058673,2.8 5.11058673,2.9 C5.11058673,3 5.21058673,3.2 5.31058673,3.3 C5.51058673,3.5 5.91058673,3.5 6.01058673,3.3 C6.11058673,3.2 6.21058673,3.1 6.21058673,2.9 C6.21058673,2.8 6.11058673,2.6 6.01058673,2.5 C5.91058673,2.5 5.91058673,2.4 5.81058673,2.4" id="Fill-9" fill="#A72C2C"></path>
            <line x1="7.41058673" y1="4.6" x2="8.81058673" y2="5.9" id="Stroke-11" stroke="#A72C2C" stroke-linecap="round"></line>
            <line x1="5.91058673" y1="6.1" x2="7.31058673" y2="7.4" id="Stroke-13" stroke="#A72C2C" stroke-linecap="round"></line>
            <path d="M35.1105867,10.8 C33.3105867,6.9 28.8105867,0 18.8105867,0 C13.9105867,0 10.4105867,0.7 8.01058673,1.6" id="Stroke-15" stroke="#363636" stroke-linecap="round" stroke-linejoin="round"></path>
            <path d="M15.6196867,28.9667 C20.9806867,30.9267 26.7896867,33.2277 33.0106867,36.4997 C33.0106867,36.4997 35.2106867,34.1997 35.8106867,32.7997 C36.0106867,32.1997 36.1106867,30.9997 36.0106867,29.8997" id="Stroke-17" stroke="#363636" stroke-linecap="round" stroke-linejoin="round"></path>
            <path d="M3.71058673,4.2 C2.81058673,5.1 2.51058673,5.8 2.51058673,5.8 L2.51058673,7.5 C2.51058673,7.5 -0.189413265,12.6 0.0105867347,16.4 C1.21058673,18 1.41058673,24.3 1.41058673,24.3 C1.41058673,24.3 1.73058673,24.381 2.32258673,24.542" id="Stroke-19" stroke="#363636" stroke-linecap="round" stroke-linejoin="round"></path>
            <path d="M16.9701867,28.3528 C16.9701867,28.3528 18.4431867,26.6338 19.3031867,25.0378 C19.3031867,25.0378 19.5481867,24.0558 18.8121867,23.6878 L18.0751867,23.3188 C18.0751867,23.3188 18.1981867,22.8278 18.0751867,22.7048 C17.9521867,22.5828 17.0931867,22.0908 16.9701867,22.0908 C16.8471867,22.0908 16.4791867,22.2138 16.3561867,22.2138 C16.2331867,22.2138 10.0951867,19.2678 9.84918673,19.2678 C9.72618673,19.2678 9.11218673,19.1448 8.99018673,19.2678 C8.99018673,19.2678 7.63918673,18.6538 7.14818673,18.6538 C6.65718673,18.6538 5.30618673,18.7758 4.81518673,19.8808 C4.32418673,20.8638 2.97318673,23.9328 2.97318673,23.9328 C2.97318673,23.9328 2.48218673,25.1608 2.97318673,25.8968 C3.46518673,26.6338 4.07818673,27.0018 4.32418673,27.1248 C5.30618673,27.3708 12.1821867,28.7208 15.6191867,28.9668 C15.6191867,28.7208 16.4791867,28.7208 16.9701867,28.3528 Z" id="Stroke-21" stroke="#363636" stroke-linecap="round"></path>
            <path d="M6.53418673,24.6695 L9.60318673,26.0205 C9.84918673,26.1425 14.8831867,26.8795 15.2511867,26.7565 C15.4971867,26.6335 16.1111867,25.6515 16.4791867,25.0375 C16.7241867,24.6695 16.4791867,24.3015 16.2331867,24.1785 L10.9541867,21.8455 C10.8311867,21.8455 10.7081867,21.7225 10.5861867,21.8455 L9.11218673,22.2135" id="Stroke-23" stroke="#363636" stroke-linecap="round"></path>
            <path d="M8.74418673,19.0218 C8.74418673,19.0218 8.37618673,16.3208 8.25318673,15.8298 C8.25318673,15.8298 8.25318673,15.7068 8.13018673,15.7068 L7.51618673,15.3388 C7.39318673,15.3388 7.27118673,15.3388 7.27118673,15.4608 L6.65718673,18.4078" id="Stroke-25" stroke="#363636" stroke-linecap="round"></path>
            <path d="M7.02528673,20.8768 C8.03528673,20.8768 8.85328673,21.6958 8.85328673,22.7048 C8.85328673,23.7148 8.03528673,24.5338 7.02528673,24.5338 C6.01528673,24.5338 5.19728673,23.7148 5.19728673,22.7048 C5.19728673,21.6958 6.01528673,20.8768 7.02528673,20.8768 Z" id="Stroke-27" stroke="#A72C2C" stroke-linecap="round" stroke-linejoin="round"></path>
        </g>
    </g>
</svg>