<svg height="23" width="34" xmlns="http://www.w3.org/2000/svg"><g fill="none"><path d="m31.167 0h-28.334a2.833 2.833 0 0 0 -2.833 2.833v17a2.833 2.833 0 0 0 2.833 2.834h28.334a2.833 2.833 0 0 0 2.833-2.834v-17a2.833 2.833 0 0 0 -2.833-2.833z" fill="#f2f0ec"/><g transform="translate(10.917 3.833)"><path d="m3.49 14.102.242-1.559h-3.16l1.828-11.517a.127.127 0 0 1 0-.1h4.505a3.868 3.868 0 0 1 3.032.907c.238.25.404.557.481.893a3.06 3.06 0 0 1 0 1.247v.354l.255.141c.499.25.835.735.893 1.29.082.435.082.882 0 1.317a4.59 4.59 0 0 1 -.539 1.502 3.173 3.173 0 0 1 -.85.935 3.64 3.64 0 0 1 -1.161.524 6.36 6.36 0 0 1 -1.417.156h-.34a1.062 1.062 0 0 0 -1.02.878v.142l-.425 2.748v.1h-2.323v.042z" fill="#253d80"/><path d="m10.9 4.015v.255a4.618 4.618 0 0 1 -5.114 4.01h-1.29a.61.61 0 0 0 -.609.538l-.665 4.25-.184 1.19a.326.326 0 0 0 .325.382h2.281a.553.553 0 0 0 .553-.468v-.113l.439-2.734v-.156a.552.552 0 0 1 .538-.467h.326a4.038 4.038 0 0 0 4.477-3.5 2.99 2.99 0 0 0 -.468-2.649 2.366 2.366 0 0 0 -.609-.538z" fill="#189bd7"/><path d="m10.333 3.774h-.566a6.97 6.97 0 0 0 -1.134-.085h-3.499a.75.75 0 0 0 -.24 0 .538.538 0 0 0 -.298.411l-.737 4.647v.141a.61.61 0 0 1 .61-.538h1.288a4.618 4.618 0 0 0 5.115-4.01v-.254l-.482-.199z" fill="#242e65"/><path d="m4.667 4.03a.538.538 0 0 1 .297-.412.75.75 0 0 1 .241 0h3.457a6.97 6.97 0 0 1 1.133.085h.694l.482.199a2.833 2.833 0 0 0 -.638-2.423 4.406 4.406 0 0 0 -3.386-1.062h-4.405a.623.623 0 0 0 -.624.538l-1.827 11.617a.383.383 0 0 0 .368.439h2.791l.68-4.335.737-4.647z" fill="#253d80"/></g></g></svg>