<svg id="Capa_1" data-name="Capa 1" xmlns="http://www.w3.org/2000/svg" viewBox="0 0 40 40"><defs><style>.cls-1,.cls-2{fill:none;stroke-linecap:round;stroke-linejoin:round;}.cls-1{stroke:#393939;}.cls-2{stroke:#a51620;}</style></defs><title>61-moto-accesorios-aceites</title><path class="cls-1" d="M25.3,11.91a2.79,2.79,0,0,1,2-.8h4.37L37,16.3V26.49a2.79,2.79,0,0,1-2.8,2.79H27.26"/><polyline class="cls-1" points="34.1 16.51 27.26 16.51 27.26 26.84 34.1 26.84"/><polyline class="cls-1" points="11.4 16.51 5.12 16.51 5.12 26.84 11.4 26.84"/><rect class="cls-2" x="26.28" y="8.07" width="3.44" height="1.64"/><rect class="cls-2" x="6.42" y="7.14" width="5.1" height="1.94"/><line class="cls-2" x1="19.05" y1="3.05" x2="17.65" y2="3.05"/><path class="cls-2" d="M20.07,8.19H16.63V6a1.47,1.47,0,0,1,1.48-1.47h.48A1.47,1.47,0,0,1,20.07,6Z"/><path class="cls-1" d="M18.2,9.43h.17a6.32,6.32,0,0,1,6.32,6.32v17.7a1.6,1.6,0,0,1-1.6,1.6H15.44a1.6,1.6,0,0,1-1.6-1.6V13.78A4.36,4.36,0,0,1,18.2,9.43Z"/><polyline class="cls-1" points="22.28 32.76 15.86 32.76 15.86 16.71 22.28 16.71"/><path class="cls-1" d="M12.53,14.43a7.64,7.64,0,0,1-.92-4.06H6.27L3.73,14.22A4.37,4.37,0,0,0,3,16.64V27.49A1.47,1.47,0,0,0,4.48,29h8"/></svg>