<svg id="Capa_1" data-name="Capa 1" xmlns="http://www.w3.org/2000/svg" viewBox="0 0 40 40"><defs><style>.cls-1,.cls-3{fill:none;stroke-linecap:round;}.cls-1{stroke:#393939;stroke-linejoin:round;}.cls-2{fill:#a72c2c;}.cls-3{stroke:#a72c2c;stroke-miterlimit:10;}</style></defs><title>64-moto-accesorios-maletas</title><path class="cls-1" d="M21.71,23.25a7.22,7.22,0,0,0-.89-3.57c-1.12-1.57-12.35-9-12.35-9"/><path class="cls-1" d="M5.17,11.56s10.75,7.08,12.16,8.67a6.35,6.35,0,0,1,1.15,3.58"/><path class="cls-1" d="M32.89,20.42a12.85,12.85,0,0,0-1-4.62c-1.53-2.73-9.3-8.15-9.3-8.15"/><path class="cls-1" d="M25.32,7.15s7.64,5,8.86,7.81A13.73,13.73,0,0,1,35,19.78"/><path class="cls-2" d="M24.92,24.8a.51.51,0,0,0-.16.5.5.5,0,0,0,.22.31.49.49,0,0,0,.37.06h0a.5.5,0,0,0,.37-.6.62.62,0,0,0-.22-.31.51.51,0,0,0-.38-.06A.55.55,0,0,0,24.92,24.8Z"/><line class="cls-3" x1="27.25" y1="24.75" x2="29.03" y2="24.26"/><line class="cls-3" x1="27.27" y1="26.66" x2="29.05" y2="26.17"/><path class="cls-1" d="M24.67,7.14,5.75,11.27a5.16,5.16,0,0,0-3.86,5.19v7.07c0,2.67,1.61,4.75,3.91,6.74a28.15,28.15,0,0,0,5.31,4C15.94,37,31.92,30.76,34.72,29c3.23-2,3.13-7.66,3.17-11.3,0-3.9-2.61-6.47-5.37-8.61A9.12,9.12,0,0,0,24.67,7.14Z"/><path class="cls-1" d="M1.9,18.1a32.33,32.33,0,0,0,9.23,7c2.41,1.17,7.28.58,12.31-.6"/><path class="cls-1" d="M2,22.07a36.81,36.81,0,0,0,8.22,5.85c2.46,1.32,7.85.59,13.33-.74"/><path class="cls-1" d="M30.21,31a6.08,6.08,0,0,0,1.11-3.28,77.45,77.45,0,0,0-.23-7.85.68.68,0,0,0-.85-.61L24,20.92a.73.73,0,0,0-.54.78,70.92,70.92,0,0,1,.24,7.74,6.67,6.67,0,0,1-1.91,4.32"/><path class="cls-1" d="M31.59,22.27c2.62-.84,4.78-1.63,6.21-2.19"/><path class="cls-1" d="M31.34,25c2.57-.83,4.78-1.63,6.24-2.2"/></svg>