<?xml version="1.0" encoding="UTF-8"?>
<svg width="40px" height="40px" viewBox="0 0 40 40" version="1.1" xmlns="http://www.w3.org/2000/svg" xmlns:xlink="http://www.w3.org/1999/xlink">
    <title>Maletas - anclajes</title>
    <g id="Maletas---anclajes" stroke="none" stroke-width="1" fill="none" fill-rule="evenodd">
        <g id="Group-31" transform="translate(3, 5)">
            <path d="M17.7874097,14.1463513 C17.7494097,13.1833513 17.5854097,11.8503513 17.0144097,11.0463513 C16.0434097,9.67935133 6.2884097,3.24435133 6.2884097,3.24435133" id="Stroke-1" stroke="#393939" stroke-linecap="round" stroke-linejoin="round"></path>
            <path d="M3.4224097,3.99245133 C3.4224097,3.99245133 12.7644097,10.1454513 13.9844097,11.5224513 C14.6814097,12.3084513 14.9134097,13.6374513 14.9844097,14.6324513" id="Stroke-3" stroke="#393939" stroke-linecap="round" stroke-linejoin="round"></path>
            <path d="M27.4963097,11.6889513 C27.4163097,10.4439513 27.2073097,8.65195133 26.6613097,7.67495133 C25.3383097,5.30295133 18.5883097,0.600951335 18.5883097,0.600951335" id="Stroke-5" stroke="#393939" stroke-linecap="round" stroke-linejoin="round"></path>
            <path d="M20.9253097,0.166151335 C20.9253097,0.166151335 27.5563097,4.51215133 28.6153097,6.94615133 C29.2073097,8.30615133 29.2713097,10.0351513 29.3083097,11.1331513" id="Stroke-7" stroke="#393939" stroke-linecap="round" stroke-linejoin="round"></path>
            <path d="M20.5807097,15.4956513 C20.4587097,15.5976513 20.4007097,15.7606513 20.4397097,15.9236513 C20.4667097,16.0356513 20.5347097,16.1316513 20.6307097,16.1926513 C20.7277097,16.2546513 20.8427097,16.2756513 20.9527097,16.2506513 L20.9697097,16.2466513 C21.1947097,16.1956513 21.3387097,15.9576513 21.2847097,15.7306513 C21.2587097,15.6186513 21.1907097,15.5226513 21.0937097,15.4606513 C20.9967097,15.3986513 20.8817097,15.3776513 20.7717097,15.4026513 C20.6977097,15.4196513 20.6327097,15.4516513 20.5807097,15.4956513" id="Fill-9" fill="#A72C2C"></path>
            <line x1="22.6036097" y1="15.4479513" x2="24.1436097" y2="15.0239513" id="Stroke-11" stroke="#A72C2C" stroke-linecap="round"></line>
            <line x1="22.6196097" y1="17.1079513" x2="24.1596097" y2="16.6839513" id="Stroke-13" stroke="#A72C2C" stroke-linecap="round"></line>
            <path d="M0.584109698,9.67395133 C1.2541097,10.4169513 4.3111097,13.6469513 8.6021097,15.7359513 C10.6921097,16.7539513 14.9201097,16.2349513 19.2891097,15.2139513" id="Stroke-15" stroke="#393939" stroke-linecap="round" stroke-linejoin="round"></path>
            <path d="M0.668409698,13.1208513 C2.1174097,14.5098513 4.3674097,16.3508513 7.8094097,18.1978513 C9.9514097,19.3478513 14.6264097,18.7148513 19.3864097,17.5548513" id="Stroke-17" stroke="#393939" stroke-linecap="round" stroke-linejoin="round"></path>
            <path d="M25.1750097,20.8903513 C25.7320097,20.0583513 26.1120097,19.1053513 26.1350097,18.0413513 C26.2010097,14.9663513 26.0330097,12.4073513 25.9350097,11.2243513 C25.9040097,10.8523513 25.5540097,10.6033513 25.1980097,10.6973513 L19.8050097,12.1253513 C19.5050097,12.2043513 19.3040097,12.4903513 19.3330097,12.8033513 C19.4300097,13.8493513 19.6160097,16.3363513 19.5480097,19.5253513 C19.5160097,20.9933513 18.8040097,22.2513513 17.8850097,23.2703513" id="Stroke-19" stroke="#393939" stroke-linecap="round" stroke-linejoin="round"></path>
            <path d="M26.3726097,13.2906513 C28.6486097,12.5666513 30.5166097,11.8826513 31.7616097,11.3916513" id="Stroke-21" stroke="#393939" stroke-linecap="round" stroke-linejoin="round"></path>
            <path d="M26.1559097,15.6194513 C28.3829097,14.9004513 30.3049097,14.2054513 31.5709097,13.7144513" id="Stroke-23" stroke="#393939" stroke-linecap="round" stroke-linejoin="round"></path>
            <path d="M20.3613097,0.159051335 L3.9263097,3.73905133 C3.9263097,3.73905133 0.575309698,4.48205133 0.575309698,8.24805133 L0.575309698,14.3850513 C0.575309698,16.7090513 1.9753097,18.5100513 3.9723097,20.2420513 C6.0023097,22.0030513 6.7103097,22.6370513 8.5863097,23.7120513 C12.7793097,26.1150513 26.6573097,20.6710513 29.0843097,19.1730513 C31.8953097,17.4370513 31.8083097,12.5250513 31.8383097,9.36405133 C31.8703097,5.97205133 29.5743097,3.74105133 27.1793097,1.88105133 C24.8743097,0.0910513346 22.8863097,-0.258948665 20.3613097,0.159051335 Z" id="Stroke-25" stroke="#393939" stroke-linecap="round" stroke-linejoin="round"></path>
            <path d="M0.00080969754,17.9441513 C-0.0211903025,19.8581513 0.392809698,22.8701513 2.7588097,25.3311513 C6.5438097,29.2681513 14.8388097,29.8731513 16.8238097,29.1161513 C18.8088097,28.3591513 20.4478097,25.0281513 24.7768097,25.0281513 C29.1048097,25.0281513 29.7898097,25.1961513 31.5708097,23.8651513 C32.6698097,23.0441513 33.4698097,22.0251513 33.3168097,20.2521513 C33.2048097,18.9631513 31.7618097,17.9441513 31.7618097,17.9441513" id="Stroke-27" stroke="#A72C2C" stroke-linecap="round"></path>
            <path d="M1.5630097,19.5188513 C1.5630097,19.5188513 4.9610097,25.8148513 10.9220097,25.6968513 C16.8830097,25.5778513 20.0470097,24.0508513 23.5140097,23.2698513 C26.9810097,22.4888513 31.4820097,20.7368513 31.0960097,18.9868513" id="Stroke-29" stroke="#A72C2C" stroke-linecap="round"></path>
        </g>
    </g>
</svg>