<svg xmlns="http://www.w3.org/2000/svg" width="35" height="60"><g fill="none" fill-rule="evenodd"><path stroke="#795533" stroke-width="1.5" d="M20.233 18.83s.146-3.427.068-5.826"/><path fill="#795533" d="M33.846 14.58c.222.164.34.444.29.734a.771.771 0 0 1-.298.494.714.714 0 0 1-.549.138l-.03-.005c-.393-.064-.67-.466-.602-.87.033-.2.14-.376.299-.495.16-.12.357-.17.55-.137a.77.77 0 0 1 .34.14"/><path stroke="#795533" stroke-width="1.5" d="M32.974 18.776c-1.163 7.178-1.79 8.83-3.025 12.246-1.28 3.543-1.093 5.553-.563 7.341.531 1.786 1.594 6.765 1.688 9.35.093 2.586.375 6 .405 7.054.032 1.053.095 3.383-1.343 3.892-1.437.512-2.998.544-3.436-1.308-.437-1.85-3.875-8.234-5.498-12.032-1.625-3.798-2.469-8.711-2.125-12.893.344-4.18 1.155-13.596 1.155-13.596s-5.466 8.553-6.622 10.021c-1.157 1.469-3.467 5.809-3.406 6.479.063.67 1.376 3.352 2.032 5.746.656 2.393.093 5.712.187 6.956.094 1.246 1.124 4.468 1.156 5.011.031.542.156 2.266-1.594 3.064-1.75.797-2.374.734-2.686.415-.312-.319-1-1.085-2.749-4.787C4.8 48.032.77 38.394 1.177 33.606c.405-4.787 5.466-13.563 7.935-19.5 2.468-5.936 3.78-11.329 3.78-11.329s.102-.71.75-.51C20.982 3.83 30.448.99 30.448.99s.611-.202.782.447c.056.212 1.669 4.672 2.076 10.111"/><path stroke="#795533" stroke-width="1.5" d="M15.38 4.971s3.832 1.026 13.038-.86"/></g></svg>