<svg xmlns="http://www.w3.org/2000/svg" width="56" height="60"><g fill="none" fill-rule="evenodd"><path stroke="#795533" stroke-width="1.8" d="M28.085 52.772V20.955"/><path stroke="#795533" stroke-width="1.5" d="M22.3 2.025s1.053 4.928 5.324 5.03c4.271.101 6.014-4.678 6.014-4.678l1.52 1.951s-1.918 5.018-7.073 5.02c-5.987.002-7.327-5.29-7.327-5.29L22.3 2.024Z"/><path stroke="#795533" stroke-width="1.5" d="M33.656 2.294c-.213-.363-.328-.616-.328-.616s-.152-.425-.827-.347c-.673.078-2.624.517-4.598.519-1.976-.002-3.927-.441-4.6-.52-.675-.077-.827.348-.827.348s-.106.233-.3.568m23.485 31.17c.862 2.73 1.036 5.182.193 10.569-.917 5.85-3.666 11.117-3.666 11.117C44.97 59.8 48.9 58.888 48.9 58.888s2.21-6.37 3.585-9.946c1.375-3.579 2.67-12.28 2.376-14.908-.248-2.217-2.06-9.086-4.651-16.352m-36.474 21.31c.143 1.786.18 2.266.207 3.254.1 3.77.206 8.388.206 8.388s4.666 2.146 13.873 2.146c9.207 0 13.635-2.146 13.635-2.146s.106-4.618.206-8.388c.022-.792.05-1.716.153-3.065M5.51 17.903C2.898 25.208 1.195 31.806.944 34.035.65 36.661 1.946 45.365 3.32 48.941c1.375 3.577 3.586 9.948 3.586 9.948s3.928.91 6.71-3.787c0 0-2.748-5.266-3.664-11.116-.917-5.85-.88-7.97.128-10.965"/><path fill="#795533" d="M33.13 49.085a.83.83 0 0 0-.328.816.855.855 0 0 0 .336.549c.18.134.4.188.618.152l.033-.005c.443-.07.753-.517.677-.966a.855.855 0 0 0-.336-.55.814.814 0 0 0-.619-.152.871.871 0 0 0-.381.156"/><path stroke="#795533" stroke-width="1.5" d="m35.985 49.439 2.533-.405M28.085 14.819V9.433M18.576 4.845S16.15 2.44 11.762 4.57C7.375 6.7 5.71 11.111 5.255 12.581c-.453 1.471 1.01 2.84 2.623 2.941 1.615.102 1.16-1.419 4.288-4.21 3.127-2.788 4.752-2.133 6.41-6.467ZM25.65 17.95s-3.766-.196-5.09-3.077c-1.32-2.881-1.763-4.21-3.23-4.21-.853.016-4.525 2.707-5.144 3.988-.75 1.55.587 10.931.44 15.29-.146 4.358 2.498 7.755 5.584 8.494 3.087.74 7.469-6.648 7.469-6.648l-.029-13.837ZM37.741 4.845s2.427-2.405 6.815-.276c4.387 2.131 6.053 6.542 6.506 8.012.454 1.471-1.009 2.84-2.622 2.941-1.615.102-1.16-1.419-4.288-4.21-3.127-2.788-4.752-2.133-6.41-6.467ZM30.726 17.95s3.766-.196 5.09-3.077c1.32-2.881 1.763-4.21 3.23-4.21.853.016 4.525 2.707 5.144 3.988.75 1.55-.587 10.931-.44 15.29.147 4.358-2.498 7.755-5.584 8.494-3.086.74-7.469-6.648-7.469-6.648l.029-13.837Z"/></g></svg>