<svg xmlns="http://www.w3.org/2000/svg" width="37" height="60"><g fill="none" fill-rule="evenodd"><path stroke="#795533" stroke-width="1.5" d="m17.158 56.169.245-17.968M9.786 52.12s.245-13.667 1.228-19.488M4.38 46.3s0-10.883 1.72-16.957m21.658-2.138c-.6-8.655-1.659-10.812-3.589-15.905-1.266 0-3.496-.16-3.496-.16s-2.326 3.13-2.979 2.99c-.863-.184-1.175-3.639-1.175-3.639s-2.154-.538-2.947-.766"/><path stroke="#795533" stroke-width="1.5" d="M9.14 12.103C7.114 17.397 1.366 31.9.94 36.935.45 42.755 4.38 46.3 4.38 46.3c.492 5.566 5.406 5.82 5.406 5.82s.983 6.328 4.176 6.58c3.195.253 3.195-2.53 3.195-2.53.246 3.036 2.703 3.542 4.914 1.772 2.213-1.773 2.458-9.619 2.703-15.945.247-6.327 2.458-10.883 3.195-11.136.738-.253 2.703 2.025 2.703 4.303s-1.229 10.122.491 10.628c1.72.508 2.95-1.77 4.178-5.82 1.228-4.05.245-13.666-1.228-17.462-1.475-3.797-4.178-14.172-4.178-16.45 0-2.279.245-2.785-1.72-3.037-.78-.1-2.795-.342-5.143-.635-.851-.105-3.244 5.29-4.14 5.175-1.139-.147-.78-5.808-1.832-5.955-1.591-.224-2.983-.437-3.874-.61-2.525-.494-2.457 4.05-2.457 4.05"/><path fill="#795533" d="M10.919 8.455a.779.779 0 0 0-.715-.424.801.801 0 0 0-.784.804l.002.034a.797.797 0 0 0 .805.773.798.798 0 0 0 .784-.804.841.841 0 0 0-.092-.383"/></g></svg>