<svg xmlns="http://www.w3.org/2000/svg" width="48" height="60"><g fill="none" fill-rule="evenodd"><path stroke="#795533" stroke-width="1.5" d="M24.024 39.732c.082-1.3.184-2.922.204-3.106.034-.312.641-.348.641-.348l.135-1.042s-.506-.348-.506-1.149c0-.8.101-2.78.202-3.546.102-.765.844-1.009.844-1.009s.068-1.287.169-4.52c.101-3.236.574-7.304.574-7.304s-.945-.973-1.047-2.086c-.101-1.113-.135-3.894-.067-4.66.067-.765 1.316-.278 1.316-.278s-.076-4.57 2.767-6.052C31.802 3.306 35.3 3.555 35.3 3.555s.624-.366 1.924-.313c1.991.08 5.604.66 6.043 1.216.438.558-.709 7.13-1.08 8.417l-4.153 14.397s.472.034.304 1.808c-.17 1.773-1.114 4.904-.574 5.668.54.765 1.856 3.686 4.558 4.8 2.7 1.112 4.016.626 4.286 3.13.27 2.503-.743 4.206-2.666 4.797-1.924.592-4.423 1.044-6.448.696l-1.884-.354"/><path stroke="#795533" stroke-width="1.5" d="M41.375 46.12c-3.611-.349-7.865-1.183-7.865-1.183s-2.228-7.476-2.734-8.033c-.506-.556-3.148-.61-3.148-.61m3.862-1.435s2.898-1.503 2.02-3.415c-.877-1.913-2.497-3.27-2.497-3.27s2.025-3.545 3.476-3.023c1.451.52 1.223.523 1.223.523m-4.546-2.463s-1.1-6.024-1.403-9.362c-.304-3.338 3.325-7.455 3.325-7.455M6.383 36.396v1.243c0 .873-1.562 1.47-1.562 2.62v4.319c0 1.931 9.458 9.515 10.887 10.341 1.427.829 10.438.551 12.669.092 2.23-.459 2.587-3.125 2.587-3.125M4.874 11.059s1.022 9.2 2.478 16.923"/><path stroke="#795533" stroke-width="1.5" d="M3.439 29.926h4.59a1.65 1.65 0 0 1 1.51-1.013h7.186c.232 0 .452.05.651.138.22-1.41.47-2.705.696-3.454.58-1.93 2.944-6.85 4.104-13.605 1.16-6.757 1.83-10.525-.848-10.8-2.676-.276-8.074-.323-9.948-.047-1.874.275-3.213 2.114-3.213 2.114s-3.355-2.237-3.679.69a66.967 66.967 0 0 0-.335 4.045s-2.18.077-2.098 4.41c.092 4.781 1.384 9.01 1.384 11.814v5.708Z"/><path stroke="#795533" stroke-width="1.5" d="M16.725 28.913H9.538c-.674 0-1.252.417-1.51 1.014H2.813c-.641 0-1.162.534-1.162 1.195v1.136c0 .66.52 1.195 1.162 1.195h5.217a1.651 1.651 0 0 0 1.509 1.014h7.187c.913 0 1.652-.762 1.652-1.703v-2.148c0-.94-.74-1.703-1.652-1.703Z"/><path stroke="#795533" stroke-width="1.5" d="M18.428 38.02c-1.104-1.256-1.548-1.993-1.606-3.14-.005-.122-.006-.267-.005-.424-.032.002-.06.01-.093.01H9.537a1.65 1.65 0 0 1-1.507-1.013H3.44v3.588c0 .734-1.206 1.287-1.206 1.976v10.34c0 .966 0 4.78 2.9 4.78h4.43s3.279 2.81 5.698 4.129c0 0 .48.694 5.199.694 4.718 0 10.052-.034 12.103-1.87 1.581-1.417 2.766-5.235.713-7.533-1.996-2.234-8.868-5.224-12.035-8.472"/><path fill="#A72C2C" d="M8.318 12.118h-.42 1.553-.764z"/><path stroke="#795533" stroke-width="1.5" d="m12.264 12.189 2.765.014M12.28 15.036l2.765.014"/><path fill="#795533" d="M9.947 11.674a.79.79 0 0 0-.722-.422.819.819 0 0 0-.562.24.787.787 0 0 0-.23.56l.001.035a.8.8 0 0 0 .814.771.816.816 0 0 0 .562-.24.777.777 0 0 0 .23-.562.833.833 0 0 0-.093-.382"/></g></svg>