<svg xmlns="http://www.w3.org/2000/svg" width="71" height="60"><g fill="none" fill-rule="evenodd"><path fill="#795533" d="M45.69 49.965a.884.884 0 0 0-.82.454.905.905 0 0 0-.08.68c.066.23.214.42.421.538l.033.018a.903.903 0 0 0 1.215-.346.893.893 0 0 0-.341-1.218.97.97 0 0 0-.427-.126"/><path stroke="#795533" stroke-width="1.5" d="m48.797 52.532 2.752 1.522"/><path fill="#795533" d="M15.511 2.341a.894.894 0 0 0-.912.23.894.894 0 0 0 .015 1.262l.025.025a.912.912 0 0 0 1.268-.027.898.898 0 0 0 .254-.632.88.88 0 0 0-.269-.63.976.976 0 0 0-.381-.228"/><path stroke="#795533" stroke-width="1.5" d="M49.923 15.678s-16.215 1.909-18.374 2.426c-2.161.515-3.229-.27-6.218-2.887-2.989-2.615-5.048-4.418-4.338-4.876.708-.46 5.85-2.238 9.012-2.038 3.163.2 6.873 3.355 14.86 3.606 3.496.11 6.627.102 9.044.059m-21.5-9.923s2.216 3.476 3.694 3.83c1.478.356 6.303.56 7.748 1.325.509.269 1.084.681 1.615 1.103m-17.231-6.65c-2.386-.06-6.782-.028-8.892.518"/><path stroke="#795533" stroke-width="1.5" d="M49.923 15.678s17.114-1.843 18.011-2.395c.895-.553 2.658-2.557 1.867-2.861-.79-.305-6.448.247-12.32-1.963C51.607 6.25 50.29 4.351 47.416 4.1 44.544 3.849 41 3.636 37.38 2.044c-3.619-1.59-4.97 0-4.97 0m19.005 34.822c-.078-.022-1.31.906-3.158 1.645-1.273.51-2.836.93-4.53.886-4.155-.108-11.68-2.865-13.372-7.085-1.694-4.22-.721-8.109 2.344-9.161 3.063-1.052 18.193-1.995 18.732-2.038"/><path stroke="#795533" stroke-width="1.5" d="M11.354 4.334c-.427.178-.82.344-1.128.465-1.774.704-4.637 1.758-4.655 2.187-.019.427.695 4.06-.65 7.213-1.344 3.156-1.765 5.104-2.21 6.068-.443.964-1.478 1.641-1.433 2.1.047.462 2.066 9.52 1.603 10.942-.464 1.422-1.574 3.8-1.797 4.314-.224.515.07 1.458.07 1.458s7.598 1.088 14.977 4.081c7.382 2.993 12.693 5.768 19.255 7.549 6.561 1.78 14.903 7.366 16.009 8.134 1.107.766 3.018-1.514 3.45-2.215.432-.703 2.703-9.747 2.744-10.613.036-.867-1.81-4.66-2.185-5.307a18.373 18.373 0 0 0-.545-.836"/></g></svg>