<svg xmlns="http://www.w3.org/2000/svg" width="58" height="60"><g fill="none" fill-rule="evenodd"><path stroke="#795533" stroke-width="1.5" d="M35.454 2.34c2.59.765 6.183 2.146 8.77 4.422 4.51 3.965 11.946 16.795 12.171 19.505 0 0 .226 2.4-2.478 5.737-2.705 3.339-13.298 13.248-15.44 14.083-2.14.834-3.267-3.443-2.928-4.487.337-1.042 10.254-12.098 10.592-13.038.337-.938-4.958-7.196-6.424-10.952 0 0-1.351-5.41-2.991-8.76-1.243-2.543-2.912-3.06-2.912-3.06M40.238 31.879l-.052-8.13M11.883 38.993l1.164-21.745M32.117 2.646c-.133-1.218-3.111-1.937-6.652-1.605-3.54.331-6.303 1.587-6.17 2.806.037.343 3.172 6.578 6.122 7.943 3.683-1.653 6.74-8.789 6.7-9.144Z"/><path fill="#795533" d="M11.634 49.255a.834.834 0 0 0-.538.704.862.862 0 0 0 .182.623c.141.18.342.29.564.316l.035.003a.85.85 0 0 0 .737-1.38.841.841 0 0 0-.564-.316.907.907 0 0 0-.416.05"/><path stroke="#795533" stroke-width="1.5" d="m16.13 50.535 3.227.331M15.809 53.524l3.226.331M11.88 53.584c.002.08.004.16.004.22 0 1.252 1.24 4.695 14.537 5.11 13.296.419 14.085-2.19 14.199-2.92.111-.73-.02-8.14-.02-8.14M16.282 4.047c-3.221 1.718-5.93 3.642-6.315 4.593-.677 1.67-2.592 23.678-4.508 27.85-1.915 4.173-3.943 10.222-4.057 10.744-.113.52 2.706 1.668 4.734 1.146 1.914-1.668 5.07-7.51 5.747-9.387a167.934 167.934 0 0 0-.15 7.666m21.944-32.704s2.668 9.833-4.953 13.994c-7.621 4.159-11.432 15.126-11.432 15.126"/></g></svg>