<svg height="23" width="34" xmlns="http://www.w3.org/2000/svg"><g fill="none"><rect fill="#f2f0ec" height="22.076" rx="2.759" width="33.114"/><g transform="translate(2.76 1.38)"><path d="m.442.828h26.698v17.661h-26.698z" fill="#fff" opacity="0"/><path d="m10.279 3.905h7.051v11.507h-7.051z" fill="#7272b5"/><path d="m11.038 9.658a7.326 7.326 0 0 1 2.76-5.753 7.313 7.313 0 1 0 0 11.507 7.299 7.299 0 0 1 -2.76-5.754z" fill="#ed1c24"/><path d="m24.932 14.198v-.235h.11-.207v.235zm.47 0v-.29h-.07l-.083.207-.082-.207h-.083v.29-.221l.083.18.082-.18v.22h.152zm.234-4.54a7.326 7.326 0 0 1 -11.839 5.754 7.326 7.326 0 0 0 0-11.507 7.313 7.313 0 0 1 11.839 5.753z" fill="#00a1de"/></g></g></svg>