<svg height="23" width="34" xmlns="http://www.w3.org/2000/svg"><g fill="none"><rect fill="#2a2a6c" height="22.076" rx="2.759" width="33.114"/><path d="m16.46 7.85-1.38 6.389h-1.64l1.38-6.388h1.641zm6.9 4.14.868-2.4.607 2.386-1.476.014zm1.848 2.263h1.518l-1.38-6.388h-1.38a.759.759 0 0 0 -.703.469l-2.484 5.919h1.738l.345-.952h2.111zm-4.277-2.097c0-1.684-2.318-1.78-2.304-2.525 0-.235.22-.483.69-.538a3.187 3.187 0 0 1 1.628.275l.29-1.38a4.47 4.47 0 0 0 -1.532-.275c-1.642 0-2.76.869-2.76 2.11 0 .911.828 1.38 1.449 1.74.62.358.855.51.855.786s-.51.62-.98.62a3.422 3.422 0 0 1 -1.71-.372l-.304 1.38a5.519 5.519 0 0 0 1.835.331c1.739 0 2.87-.855 2.87-2.18m-6.857-4.277-2.677 6.388h-1.766l-1.38-5.091a.731.731 0 0 0 -.386-.566 7.257 7.257 0 0 0 -1.545-.538v-.194h2.76a.773.773 0 0 1 .758.662l.704 3.684 1.849-4.346h1.682z" fill="#fff"/></g></svg>