<svg xmlns="http://www.w3.org/2000/svg" width="24" height="24" viewBox="0 0 24 24">
    <path fill="#C74044" fill-rule="evenodd" d="M19.764 7.896A8.003 8.003 0 0 1 13 13.914V19h2a1 1 0 1 1 0 2H9a1 1 0 1 1 0-2h2v-5.086a8.003 8.003 0 0 1-6.764-6.018C1.77 7.393 0 4.571 0 2a1 1 0 0 1 1-1h3a1 1 0 0 1 1-1h14a1 1 0 0 1 1 1h3a1 1 0 0 1 1 1c0 2.571-1.77 5.393-4.236 5.896zM4 3H2.129C2.408 4.122 3.118 5.214 4 5.714V3zm14-1H6v4c0 3.309 2.691 6 6 6s6-2.691 6-6V2zm2 1v2.714c.882-.5 1.592-1.592 1.871-2.714H20zM7 22h10a1 1 0 1 1 0 2H7a1 1 0 1 1 0-2z"/>
</svg>
