<?xml version="1.0" standalone="no"?>
<!DOCTYPE svg PUBLIC "-//W3C//DTD SVG 1.1//EN" "http://www.w3.org/Graphics/SVG/1.1/DTD/svg11.dtd" >
<svg xmlns="http://www.w3.org/2000/svg" xmlns:xlink="http://www.w3.org/1999/xlink" version="1.1">
<metadata>
Created by FontForge 20150715 at Wed Oct 14 21:01:23 2015
 By Jimmy Wärting
Copyright (c) 2013 by Yellow Design Studio. All rights reserved.
</metadata>
<defs>
<font id="VerbRegular" horiz-adv-x="606" >
  <font-face 
    font-family="VerbRegular"
    font-weight="400"
    font-stretch="normal"
    units-per-em="1000"
    panose-1="2 0 5 0 3 0 0 2 0 4"
    ascent="773"
    descent="-227"
    x-height="525"
    cap-height="700"
    bbox="-110 -280 1371 948"
    underline-thickness="50"
    underline-position="-100"
    unicode-range="U+0020-FB06"
  />
<missing-glyph horiz-adv-x="267" 
 />
    <glyph glyph-name=".notdef" horiz-adv-x="267" 
 />
    <glyph glyph-name=".null" horiz-adv-x="0" 
 />
    <glyph glyph-name="nonmarkingreturn" horiz-adv-x="333" 
 />
    <glyph glyph-name="space" unicode=" " horiz-adv-x="277" 
 />
    <glyph glyph-name="exclam" unicode="!" horiz-adv-x="265" 
d="M85 0v115h96v-115h-96zM183 700l-25 -491h-51l-24 491h100z" />
    <glyph glyph-name="quotedbl" unicode="&#x22;" horiz-adv-x="456" 
d="M154 700l-15 -259h-57l-16 259h88zM343 700l-15 -259h-57l-16 259h88z" />
    <glyph glyph-name="numbersign" unicode="#" horiz-adv-x="745" 
d="M414 0l28 179h-193l-28 -179h-69l28 179h-134v66h144l33 209h-135v66h146l28 180h68l-28 -180h193l28 180h68l-28 -180h135v-66h-145l-33 -209h136v-66h-146l-28 -179h-68zM292 454l-33 -209h193l33 209h-193z" />
    <glyph glyph-name="dollar" unicode="$" 
d="M339 -100h-64v93q-121 15 -229 81l40 64q93 -53 189 -70v258l-12 4q-44 14 -73 27t-62 35.5t-50 56t-17 76.5q0 83 60 133t154 53v90h64v-94q106 -13 198 -62l-40 -64q-75 39 -158 51v-237q37 -12 63 -22t59.5 -28.5t54 -40t35 -53.5t14.5 -70q0 -89 -65 -139t-161 -53
v-89zM476 175q0 46 -34.5 75t-102.5 54v-241q58 2 97.5 31t39.5 81zM151 530q0 -44 30.5 -68t93.5 -46v220q-54 -3 -89 -29.5t-35 -76.5z" />
    <glyph glyph-name="percent" unicode="%" horiz-adv-x="988" 
d="M946 176q0 -90 -49 -138.5t-133 -48.5q-83 0 -131.5 48.5t-48.5 138.5t48.5 139t131.5 49q84 0 133 -49t49 -139zM876 176q0 63 -29.5 97t-82.5 34q-52 0 -81.5 -34t-29.5 -97q0 -62 29.5 -95.5t81.5 -33.5q54 0 83 33t29 96zM404 523q0 -90 -49.5 -138.5t-132.5 -48.5
q-82 0 -131 48.5t-49 138.5t49 139t131 49q83 0 132.5 -49t49.5 -139zM334 523q0 63 -29.5 97t-82.5 34t-82 -34t-29 -97t29 -96t82 -33q54 0 83 33t29 96zM713 700l-368 -700h-71l368 700h71z" />
    <glyph glyph-name="ampersand" unicode="&#x26;" horiz-adv-x="693" 
d="M691 0h-103l-80 81q-90 -92 -219 -92q-95 0 -157.5 50t-62.5 133q0 66 39 112t109 93q-30 31 -48 53.5t-33.5 57.5t-15.5 70q0 74 53.5 113.5t123.5 39.5q71 0 118.5 -40t47.5 -108q0 -58 -35.5 -102.5t-100.5 -91.5l172 -175q46 81 58 175h85q-16 -126 -88 -231zM291 56
q94 0 165 78l-189 193q-56 -40 -85.5 -73.5t-29.5 -75.5q0 -45 34.5 -83.5t104.5 -38.5zM199 556q0 -26 13.5 -53.5t28 -44t38.5 -40.5q51 34 78.5 66.5t27.5 74.5q0 37 -22.5 62t-66.5 25q-46 0 -71.5 -26t-25.5 -64z" />
    <glyph glyph-name="quotesingle" unicode="'" horiz-adv-x="236" 
d="M154 700l-15 -259h-57l-16 259h88z" />
    <glyph glyph-name="parenleft" unicode="(" horiz-adv-x="316" 
d="M73 43v610q0 37 2 55.5t10.5 41t27 35.5t51 27t83.5 27l24 -55q-57 -19 -79.5 -33.5t-27.5 -31t-5 -58.5v-626q0 -42 5 -58.5t27.5 -31t79.5 -33.5l-24 -55q-51 13 -83.5 27t-51 27t-27 35.5t-10.5 41t-2 55.5z" />
    <glyph glyph-name="parenright" unicode=")" horiz-adv-x="316" 
d="M243 653v-610q0 -37 -2 -55.5t-10.5 -41t-27 -35.5t-51 -27t-83.5 -27l-24 55q57 19 79.5 33.5t27.5 31t5 58.5v626q0 42 -5 58.5t-27.5 31t-79.5 33.5l24 55q51 -13 83.5 -27t51 -27t27 -35.5t10.5 -41t2 -55.5z" />
    <glyph glyph-name="asterisk" unicode="*" horiz-adv-x="477" 
d="M201 326l21 155l-127 -97l-38 65l148 60l-148 61l38 65l127 -99l-21 156h75l-21 -155l126 97l38 -65l-147 -60l147 -61l-38 -64l-125 95l20 -153h-75z" />
    <glyph glyph-name="plus" unicode="+" horiz-adv-x="639" 
d="M285 560h67v-194h218v-66h-218v-193h-67v193h-217v66h217v194z" />
    <glyph glyph-name="comma" unicode="," horiz-adv-x="250" 
d="M80 0v120h94l11 -127l-83 -128l-28 32l50 103h-44z" />
    <glyph glyph-name="hyphen" unicode="-" horiz-adv-x="434" 
d="M359 249h-284v72h284v-72z" />
    <glyph glyph-name="period" unicode="." horiz-adv-x="244" 
d="M74 0v120h96v-120h-96z" />
    <glyph glyph-name="slash" unicode="/" horiz-adv-x="450" 
d="M426 790l-333 -880h-68l333 880h68z" />
    <glyph glyph-name="zero" unicode="0" horiz-adv-x="655" 
d="M328 711q129 0 196 -93.5t67 -267.5q0 -175 -67 -268t-196 -93q-130 0 -197 93t-67 268q0 174 67.5 267.5t196.5 93.5zM328 59q175 0 175 291t-175 291q-177 0 -177 -291t177 -291z" />
    <glyph glyph-name="one" unicode="1" horiz-adv-x="364" 
d="M269 0h-86v613l-125 -65l-37 59l169 93h79v-700z" />
    <glyph glyph-name="two" unicode="2" horiz-adv-x="579" 
d="M520 74v-74h-471v55q0 114 98 200q32 28 124 90q43 29 63.5 44t47.5 40t38.5 49t11.5 51q0 48 -36.5 78t-99.5 30q-97 0 -186 -63l-42 59q113 78 234 78q99 0 158 -49.5t59 -130.5q0 -24 -6.5 -47.5t-13.5 -40.5t-26.5 -38.5t-29.5 -32.5t-38.5 -32.5t-38 -28
t-44.5 -29.5t-42 -28q-71 -47 -102.5 -84t-31.5 -96h374z" />
    <glyph glyph-name="three" unicode="3" horiz-adv-x="586" 
d="M35 61l40 63q101 -61 200 -61q72 0 119 36.5t47 97.5q0 39 -21 69t-55.5 46t-71 24t-74.5 8h-31v75h36q75 0 130.5 31.5t55.5 89.5q0 45 -35 71t-94 26q-89 0 -176 -58l-38 57q103 75 225 75q97 0 150.5 -47.5t53.5 -116.5q0 -51 -33 -94.5t-101 -66.5q73 -18 119.5 -69
t46.5 -120q0 -86 -62.5 -147t-180.5 -61q-75 0 -142 23t-108 49z" />
    <glyph glyph-name="four" unicode="4" horiz-adv-x="625" 
d="M32 155v64l337 481h112v-472h107v-73h-107v-155h-87v155h-362zM123 228h271v393z" />
    <glyph glyph-name="five" unicode="5" horiz-adv-x="576" 
d="M76 355l38 345h381v-74h-312l-18 -208q56 27 123 27q107 0 171 -65t64 -160t-65.5 -163t-183.5 -68q-111 0 -228 71l40 65q91 -61 178 -61q71 0 121 43.5t50 112.5q0 64 -44 108t-120 44q-71 0 -149 -44z" />
    <glyph glyph-name="six" unicode="6" horiz-adv-x="612" 
d="M428 638q-96 0 -173.5 -67t-99.5 -201q72 77 186 77q104 0 164 -63.5t60 -157.5q0 -99 -67 -168t-177 -69q-85 0 -146 44t-87.5 108t-27.5 140q0 102 30 185.5t81.5 136t117 80.5t137.5 28q24 0 47 -2.5t35 -5.5l11 -3l-20 -70q-32 8 -71 8zM325 379q-63 0 -110.5 -30.5
t-66.5 -67.5v-7q0 -90 45 -151t127 -61q75 0 117 48.5t42 113.5q0 63 -39.5 109t-114.5 46z" />
    <glyph glyph-name="seven" unicode="7" horiz-adv-x="502" 
d="M482 635q-10 -13 -27.5 -36.5t-62 -95.5t-78.5 -143.5t-62 -171t-28 -188.5h-91q0 80 25 172.5t55 160t73.5 142t61 100t36.5 51.5h-355v74h453v-65z" />
    <glyph glyph-name="eight" unicode="8" horiz-adv-x="624" 
d="M53 181q0 126 169 197q-128 58 -128 164q0 77 60.5 123t157.5 46t157.5 -46t60.5 -123q0 -106 -128 -164q170 -71 170 -197q0 -89 -73 -140.5t-187 -51.5t-186.5 51.5t-72.5 140.5zM483 184q0 57 -46.5 94t-124.5 66q-36 -13 -63 -26.5t-53.5 -32.5t-40.5 -45t-14 -56
q0 -57 49 -91.5t122 -34.5t122 34.5t49 91.5zM179 535q0 -79 133 -125q133 47 133 125q0 45 -37.5 76.5t-95.5 31.5q-57 0 -95 -32t-38 -76z" />
    <glyph glyph-name="nine" unicode="9" horiz-adv-x="613" 
d="M184 62q96 0 174 67t100 202q-71 -79 -187 -79q-104 0 -164 63.5t-60 158.5q0 99 67 168t178 69q65 0 116 -25t81.5 -67t46.5 -93t16 -107q1 -201 -106.5 -315.5t-259.5 -114.5q-24 0 -47 2.5t-35 5.5l-11 3l21 70q31 -8 70 -8zM288 321q63 0 111 31.5t66 68.5v4
q0 91 -45 152t-127 61q-75 0 -117 -48.5t-42 -114.5q0 -62 39 -108t115 -46z" />
    <glyph glyph-name="colon" unicode=":" horiz-adv-x="249" 
d="M76 341v120h96v-120h-96zM76 0v120h96v-120h-96z" />
    <glyph glyph-name="semicolon" unicode=";" horiz-adv-x="265" 
d="M87 341v120h96v-120h-96zM87 0v120h94l11 -127l-83 -128l-28 32l50 103h-44z" />
    <glyph glyph-name="less" unicode="&#x3c;" horiz-adv-x="639" 
d="M54 365l501 210v-78l-410 -164l410 -163v-77l-501 210v62z" />
    <glyph glyph-name="equal" unicode="=" horiz-adv-x="639" 
d="M68 391v66h502v-66h-502zM68 211v66h502v-66h-502z" />
    <glyph glyph-name="greater" unicode="&#x3e;" horiz-adv-x="639" 
d="M584 303l-501 -210v78l410 164l-410 163v77l501 -210v-62z" />
    <glyph glyph-name="question" unicode="?" horiz-adv-x="507" 
d="M162 0v115h96v-115h-96zM464 541q0 -147 -218 -204l-6 -128h-60l-7 176q103 22 154.5 54.5t51.5 91.5q0 49 -37 77.5t-94 28.5q-76 0 -173 -58l-41 58q109 74 224 74q86 0 146 -44.5t60 -125.5z" />
    <glyph glyph-name="at" unicode="@" horiz-adv-x="966" 
d="M473 -136q54 0 102 11t69 23l21 11l27 -35q-8 -6 -24.5 -15t-73.5 -23.5t-121 -14.5q-186 0 -301.5 123t-115.5 309q0 188 120.5 310.5t321.5 122.5q200 0 309 -119t110 -313q0 -121 -49.5 -198.5t-140.5 -77.5q-64 0 -92.5 35t-33.5 82q-79 -72 -168 -72
q-61 0 -104.5 36t-43.5 111q0 74 44.5 112.5t109.5 38.5q18 0 42.5 -3t42.5 -6.5t43.5 -9t32.5 -6.5v55q0 52 -20.5 75t-74.5 23q-67 0 -162 -41l-28 52q113 45 199 45q153 0 153 -150v-204q0 -29 1.5 -45.5t7.5 -37.5t21 -31t40 -10q49 0 92 55.5t43 172.5
q0 172 -95.5 279.5t-279.5 107.5q-124 0 -215 -54t-135 -141t-44 -194q0 -167 102 -278t268 -111zM448 79q78 0 152 72v103q-8 1 -37 7t-54.5 9.5t-46.5 3.5q-56 0 -82 -28.5t-26 -72.5q0 -48 26 -71t68 -23z" />
    <glyph glyph-name="A" unicode="A" horiz-adv-x="682" 
d="M565 0l-62 171h-324l-62 -171h-94l271 700h94l271 -700h-94zM341 620l-137 -378h273z" />
    <glyph glyph-name="B" unicode="B" horiz-adv-x="668" 
d="M618 187q0 -89 -59 -138t-173 -49h-292v700h244q116 0 179 -44.5t63 -126.5q0 -68 -39 -109.5t-82 -48.5q25 -3 49.5 -14t50.5 -31t42.5 -56t16.5 -83zM495 517q0 52 -39 82.5t-118 30.5h-157v-229h152q73 0 117.5 29t44.5 87zM533 200q0 134 -193 134h-159v-264h196
q77 0 116.5 35.5t39.5 94.5z" />
    <glyph glyph-name="C" unicode="C" horiz-adv-x="642" 
d="M605 608l-45 -62q-40 26 -66 40.5t-70 30.5t-81 16q-86 0 -139.5 -75.5t-53.5 -207.5t53.5 -207.5t139.5 -75.5q37 0 81 16t70 30.5t66 40.5l45 -62q-152 -103 -269 -103q-119 0 -197 90.5t-78 270.5q0 179 78 270t197 91q117 0 269 -103z" />
    <glyph glyph-name="D" unicode="D" horiz-adv-x="702" 
d="M641 350q0 -350 -330 -350h-217v700h217q330 0 330 -350zM552 350q0 143 -60 209t-187 66h-124v-550h124q128 0 187.5 65.5t59.5 209.5z" />
    <glyph glyph-name="E" unicode="E" horiz-adv-x="595" 
d="M544 0h-450v700h444v-75h-357v-238h295v-74h-295v-238h363v-75z" />
    <glyph glyph-name="F" unicode="F" horiz-adv-x="568" 
d="M538 625h-357v-238h285v-74h-285v-313h-87v700h444v-75z" />
    <glyph glyph-name="G" unicode="G" horiz-adv-x="700" 
d="M547 0v83q-107 -94 -216 -94q-116 0 -193 91t-77 270t78.5 270t198.5 91q126 0 280 -109l-46 -63q-98 63 -150 80q-42 14 -78 14q-87 0 -140.5 -75.5t-53.5 -207.5t53 -209t141 -77q87 0 203 101v145h-193v72h276v-382h-83z" />
    <glyph glyph-name="H" unicode="H" horiz-adv-x="711" 
d="M530 0v330h-349v-330h-87v700h87v-296h349v296h86v-700h-86z" />
    <glyph glyph-name="I" unicode="I" horiz-adv-x="275" 
d="M181 0h-87v700h87v-700z" />
    <glyph glyph-name="J" unicode="J" horiz-adv-x="278" 
d="M183 700v-655q0 -26 -0.5 -38t-2.5 -31.5t-6 -28.5t-12.5 -22.5t-21 -21t-31 -17.5t-43 -17.5t-57.5 -16.5l-30 67q47 15 69 24t34 24.5t13.5 28.5t1.5 46v658h86z" />
    <glyph glyph-name="K" unicode="K" horiz-adv-x="654" 
d="M94 0v700h87v-393l327 393h104l-286 -335l316 -365h-105l-262 305l-94 -110v-195h-87z" />
    <glyph glyph-name="L" unicode="L" horiz-adv-x="550" 
d="M527 0h-433v700h87v-625h346v-75z" />
    <glyph glyph-name="M" unicode="M" horiz-adv-x="841" 
d="M660 0v558l-212 -441h-55l-212 438v-555h-87v700h90l236 -489l235 489h91v-700h-86z" />
    <glyph glyph-name="N" unicode="N" horiz-adv-x="727" 
d="M543 0l-362 572v-572h-87v700h89l363 -573v573h86v-700h-89z" />
    <glyph glyph-name="O" unicode="O" horiz-adv-x="738" 
d="M368 711q108 0 179 -50t100 -128.5t29 -182.5q0 -77 -17 -140.5t-52.5 -114t-96.5 -78.5t-142 -28t-141.5 28t-96 78.5t-52.5 114t-17 140.5t17 140.5t52.5 114t96 78.5t141.5 28zM368 64q116 0 167.5 77.5t51.5 208.5t-51.5 208.5t-167.5 77.5q-115 0 -166.5 -78
t-51.5 -208t51.5 -208t166.5 -78z" />
    <glyph glyph-name="P" unicode="P" horiz-adv-x="642" 
d="M606 486q0 -214 -261 -214h-164v-272h-87v700h251q261 0 261 -214zM517 486q0 140 -171 140h-165v-281h165q171 0 171 141z" />
    <glyph glyph-name="Q" unicode="Q" horiz-adv-x="738" 
d="M368 -11q-81 0 -141.5 28t-96 78.5t-52.5 114t-17 140.5t17 140.5t52.5 114t96 78.5t141.5 28q108 0 179 -50t100 -128.5t29 -182.5q0 -134 -52 -227.5t-161 -122.5l118 -94l-59 -60zM368 64q116 0 167.5 77.5t51.5 208.5t-51.5 208.5t-167.5 77.5q-115 0 -166.5 -78
t-51.5 -208t51.5 -208t166.5 -78z" />
    <glyph glyph-name="R" unicode="R" horiz-adv-x="683" 
d="M533 0l-181 297h-171v-297h-87v700h272q262 0 262 -202q0 -172 -190 -197l191 -301h-96zM540 498q0 131 -172 131h-187v-261h182q177 0 177 130z" />
    <glyph glyph-name="S" unicode="S" horiz-adv-x="604" 
d="M343 394q47 -16 77.5 -29.5t68 -38.5t56.5 -61.5t19 -83.5q0 -91 -68.5 -141.5t-168.5 -50.5q-73 0 -149 25.5t-133 59.5l40 64q133 -75 242 -75q62 0 105 29t43 83q0 64 -81 105q-33 16 -132 50q-44 14 -73 27t-62 35.5t-50 56t-17 76.5q0 86 63.5 136t161.5 50
q61 0 130 -19t121 -47l-40 -64q-46 24 -105 40t-103 16q-59 0 -98.5 -27t-39.5 -80q0 -15 4.5 -28.5t10 -23t19.5 -19t22.5 -15t29.5 -14t31.5 -12t37.5 -12t38 -12.5z" />
    <glyph glyph-name="T" unicode="T" horiz-adv-x="570" 
d="M548 625h-220v-625h-86v625h-220v75h526v-75z" />
    <glyph glyph-name="U" unicode="U" horiz-adv-x="700" 
d="M612 700v-444q0 -267 -262 -267q-263 0 -263 267v444h87v-447q0 -43 7.5 -74.5t26 -59t54 -41.5t88.5 -14q100 0 138 50t38 139v447h86z" />
    <glyph glyph-name="V" unicode="V" horiz-adv-x="680" 
d="M120 700l219 -610l221 610h97l-270 -700h-94l-271 700h98z" />
    <glyph glyph-name="W" unicode="W" horiz-adv-x="945" 
d="M624 0l-152 578l-152 -578h-92l-194 700h97l147 -597l154 597h80l154 -596l148 596h96l-194 -700h-92z" />
    <glyph glyph-name="X" unicode="X" horiz-adv-x="621" 
d="M32 700h100l178 -297l179 297h99l-230 -352l242 -348h-103l-187 289l-187 -289h-103l241 348z" />
    <glyph glyph-name="Y" unicode="Y" horiz-adv-x="633" 
d="M273 0v278l-256 422h98l202 -355l201 355h98l-257 -423v-277h-86z" />
    <glyph glyph-name="Z" unicode="Z" horiz-adv-x="613" 
d="M38 69l417 556h-394v75h502v-68l-417 -557h422v-75h-530v69z" />
    <glyph glyph-name="bracketleft" unicode="[" horiz-adv-x="339" 
d="M306 -144h-220v983h220v-58h-133v-867h133v-58z" />
    <glyph glyph-name="backslash" unicode="\" horiz-adv-x="450" 
d="M357 -90l-333 880h68l333 -880h-68z" />
    <glyph glyph-name="bracketright" unicode="]" horiz-adv-x="339" 
d="M33 839h220v-983h-220v58h133v867h-133v58z" />
    <glyph glyph-name="asciicircum" unicode="^" horiz-adv-x="636" 
d="M458 347l-140 281l-142 -281h-91l191 353h84l191 -353h-93z" />
    <glyph glyph-name="underscore" unicode="_" horiz-adv-x="705" 
d="M631 -146h-556v63h556v-63z" />
    <glyph glyph-name="grave" unicode="`" horiz-adv-x="214" 
d="M225 599h-70l-166 130h112z" />
    <glyph glyph-name="a" unicode="a" horiz-adv-x="577" 
d="M418 0v70q-88 -81 -195 -81q-72 0 -124 42t-52 126t52 127.5t130 43.5q27 0 62 -5t78.5 -13.5t48.5 -9.5v59q0 58 -24 84t-86 26q-61 0 -195 -44l-30 61q139 50 236 50q90 0 136 -41t46 -133v-362h-83zM243 58q91 0 175 77v115q-118 23 -158 23q-67 0 -97.5 -31
t-30.5 -81q0 -103 111 -103z" />
    <glyph glyph-name="b" unicode="b" horiz-adv-x="604" 
d="M81 0v729h83v-272q88 79 185 79q89 0 144.5 -68t55.5 -206t-55.5 -205.5t-144.5 -67.5q-100 0 -185 79v-68h-83zM333 467q-95 0 -169 -85v-240q75 -84 169 -84q64 0 98 53.5t34 150.5t-34 151t-98 54z" />
    <glyph glyph-name="c" unicode="c" horiz-adv-x="520" 
d="M484 467l-38 -62q-1 1 -16 9.5t-23.5 13t-25.5 12.5t-30.5 12.5t-30.5 8t-32 3.5q-65 0 -107 -55t-42 -146t42 -146.5t107 -55.5q18 0 37.5 4.5t38.5 12.5t32 14t30 16t20 11l38 -61q-120 -69 -203 -69q-95 0 -161.5 72t-66.5 202t66.5 201.5t161.5 71.5q83 0 203 -69z
" />
    <glyph glyph-name="d" unicode="d" horiz-adv-x="604" 
d="M523 0h-83v68q-85 -79 -185 -79q-89 0 -144.5 67.5t-55.5 205.5t55.5 206t144.5 68q97 0 185 -79v272h83v-729zM271 58q92 0 169 84v240q-76 85 -169 85q-64 0 -98 -54t-34 -151t34 -150.5t98 -53.5z" />
    <glyph glyph-name="e" unicode="e" horiz-adv-x="575" 
d="M513 241h-375q5 -86 46 -136t105 -50q76 0 196 71l38 -55q-40 -24 -63 -36t-76 -29t-100 -17q-100 0 -165.5 71t-65.5 202q0 130 67.5 202t176.5 72q107 0 165 -62.5t58 -164.5q0 -17 -2 -34t-4 -25zM296 472q-68 0 -109 -47t-48 -130h298q4 177 -141 177z" />
    <glyph glyph-name="f" unicode="f" horiz-adv-x="355" 
d="M32 461v64h74v72q0 72 30.5 102t86.5 30q66 0 155 -35l-30 -61q-72 24 -111 24q-50 0 -50 -56v-76h142v-64h-142v-461h-81v461h-74z" />
    <glyph glyph-name="g" unicode="g" horiz-adv-x="604" 
d="M440 525h83v-555q0 -184 -200 -184q-110 0 -245 38l18 69q133 -39 216 -39q65 0 96.5 26.5t31.5 86.5v101q-85 -79 -185 -79q-89 0 -144.5 67.5t-55.5 205.5t55.5 206t144.5 68q97 0 185 -79v68zM271 58q92 0 169 84v240q-76 85 -169 85q-64 0 -98 -54t-34 -151
t34 -150.5t98 -53.5z" />
    <glyph glyph-name="h" unicode="h" 
d="M164 729v-278q41 31 99 58t117 27q150 0 150 -162v-374h-83v359q0 109 -91 109q-49 0 -103.5 -28t-88.5 -58v-382h-83v729h83z" />
    <glyph glyph-name="i" unicode="i" horiz-adv-x="245" 
d="M163 0h-83v525h83v-525zM77 629v97h92v-97h-92z" />
    <glyph glyph-name="j" unicode="j" horiz-adv-x="247" 
d="M79 629v97h92v-97h-92zM167 525v-545q0 -30 -0.5 -43.5t-3.5 -34.5t-9.5 -30.5t-18.5 -23.5t-31 -22.5t-46 -18.5t-64 -20l-28 63q31 10 49.5 16.5t33 16t21 15t10 20t4 24.5t0.5 34v549h83z" />
    <glyph glyph-name="k" unicode="k" horiz-adv-x="528" 
d="M479 525l-177 -212l210 -313h-90l-170 254l-88 -106v-148h-83v729h83v-481l220 277h95z" />
    <glyph glyph-name="l" unicode="l" horiz-adv-x="254" 
d="M168 0h-82v729h82v-729z" />
    <glyph glyph-name="m" unicode="m" horiz-adv-x="919" 
d="M164 525v-77q98 88 193 88q110 0 138 -98q36 36 90.5 67t112.5 31q145 0 145 -162v-374h-83v359q0 109 -86 109q-45 0 -92 -28.5t-80 -64.5v-375h-82v359q0 109 -87 109q-80 0 -169 -89v-379h-83v525h83z" />
    <glyph glyph-name="n" unicode="n" 
d="M164 525v-74q41 31 99 58t117 27q150 0 150 -162v-374h-83v359q0 109 -91 109q-49 0 -103.5 -28t-88.5 -58v-382h-83v525h83z" />
    <glyph glyph-name="o" unicode="o" horiz-adv-x="603" 
d="M549 262q0 -129 -64 -201t-183 -72q-120 0 -184 72t-64 201t64.5 201.5t183.5 72.5t183 -72.5t64 -201.5zM464 262q0 98 -39.5 152.5t-122.5 54.5t-123 -54.5t-40 -152.5q0 -206 163 -206q162 0 162 206z" />
    <glyph glyph-name="p" unicode="p" horiz-adv-x="604" 
d="M164 525v-68q88 79 185 79q89 0 144.5 -68t55.5 -206t-55.5 -205.5t-144.5 -67.5q-100 0 -185 79v-272h-83v729h83zM333 467q-95 0 -169 -85v-240q75 -84 169 -84q64 0 98 53.5t34 150.5t-34 151t-98 54z" />
    <glyph glyph-name="q" unicode="q" horiz-adv-x="604" 
d="M440 -204v272q-85 -79 -185 -79q-89 0 -144.5 67.5t-55.5 205.5t55.5 206t144.5 68q97 0 185 -79v68h83v-729h-83zM271 58q92 0 169 84v240q-76 85 -169 85q-64 0 -98 -54t-34 -151t34 -150.5t98 -53.5z" />
    <glyph glyph-name="r" unicode="r" horiz-adv-x="387" 
d="M164 525v-112q5 12 15.5 28t33.5 40.5t62.5 38.5t87.5 11v-79q-50 0 -89 -17t-59 -41t-32.5 -48.5t-15.5 -41.5l-3 -17v-287h-83v525h83z" />
    <glyph glyph-name="s" unicode="s" horiz-adv-x="512" 
d="M280 301q93 -25 141.5 -63t48.5 -103q0 -71 -54.5 -108.5t-136.5 -37.5q-119 0 -234 64l37 61q110 -58 193 -58q46 0 79 20t33 56q0 54 -91 84q-18 6 -53 16l-12 3q-37 10 -62.5 20t-54 28t-43.5 45.5t-15 63.5q0 67 50.5 105.5t133.5 38.5q99 0 207 -53l-36 -58
q-94 44 -169 44q-46 0 -75 -19.5t-29 -53.5q0 -21 11.5 -37t34.5 -27t39.5 -16t44.5 -12z" />
    <glyph glyph-name="t" unicode="t" horiz-adv-x="383" 
d="M33 461v64h74v132l81 20v-152h145v-64h-145v-344q0 -55 50 -55q39 0 100 27l31 -63q-81 -37 -145 -37q-117 0 -117 132v340h-74z" />
    <glyph glyph-name="u" unicode="u" 
d="M442 0v73q-113 -84 -217 -84q-149 0 -149 161v375h83v-359q0 -109 91 -109q48 0 103 27.5t89 58.5v382h83v-525h-83z" />
    <glyph glyph-name="v" unicode="v" horiz-adv-x="558" 
d="M319 0h-80l-212 525h91l161 -440l161 440h91z" />
    <glyph glyph-name="w" unicode="w" horiz-adv-x="818" 
d="M537 0l-128 425l-129 -425h-82l-164 525h88l121 -439l128 439h76l128 -439l121 439h88l-166 -525h-81z" />
    <glyph glyph-name="x" unicode="x" horiz-adv-x="579" 
d="M456 0l-167 217l-166 -217h-102l219 264l-208 261h98l160 -214l158 214h99l-209 -261l220 -264h-102z" />
    <glyph glyph-name="y" unicode="y" horiz-adv-x="559" 
d="M28 525h90l161 -427l161 427h91l-294 -729h-91l92 207z" />
    <glyph glyph-name="z" unicode="z" horiz-adv-x="513" 
d="M43 0v64l320 391h-310v70h413v-64l-318 -391h318v-70h-423z" />
    <glyph glyph-name="braceleft" unicode="{" horiz-adv-x="393" 
d="M26 312v71q114 0 97 123l-12 93q-16 115 42.5 177.5t188.5 62.5h18v-57h-18q-165 0 -144 -170l12 -91q19 -145 -106 -174q125 -27 106 -172l-12 -91q-21 -170 144 -170h18v-57h-18q-131 0 -189 62t-42 178l13 93q9 66 -17 94t-81 28z" />
    <glyph glyph-name="bar" unicode="|" horiz-adv-x="240" 
d="M153 -123h-66v941h66v-941z" />
    <glyph glyph-name="braceright" unicode="}" horiz-adv-x="393" 
d="M367 384v-71q-114 0 -97 -123l12 -93q16 -115 -42.5 -177.5t-188.5 -62.5h-18v57h18q165 0 144 170l-12 91q-19 145 106 174q-125 27 -106 172l12 91q21 170 -144 170h-18v57h18q131 0 189 -62t42 -178l-13 -93q-9 -66 17 -94t81 -28z" />
    <glyph glyph-name="asciitilde" unicode="~" horiz-adv-x="640" 
d="M103 206l-56 23q54 117 154 117q51 0 127.5 -37t116.5 -37q56 0 94 67l56 -22q-55 -118 -155 -118q-50 0 -126.5 37t-116.5 37q-27 0 -49 -13.5t-45 -53.5z" />
    <glyph glyph-name="uni00A0" unicode="&#xa0;" horiz-adv-x="277" 
 />
    <glyph glyph-name="exclamdown" unicode="&#xa1;" horiz-adv-x="265" 
d="M180 700v-115h-96v115h96zM82 0l25 491h51l24 -491h-100z" />
    <glyph glyph-name="cent" unicode="&#xa2;" horiz-adv-x="554" 
d="M338 0h-65v77q-90 6 -151.5 77.5t-61.5 196.5t61.5 195.5t151.5 76.5v77h65v-81q62 -13 164 -71l-39 -61q-4 2 -22 12.5t-31 17.5t-33.5 15.5t-38.5 13.5v-392q41 11 125 60l39 -61q-105 -60 -164 -71v-82zM146 351q0 -83 35 -137t92 -63v399q-57 -9 -92 -62.5
t-35 -136.5z" />
    <glyph glyph-name="sterling" unicode="&#xa3;" horiz-adv-x="552" 
d="M70 259v58h103q-8 30 -32 67.5t-41.5 75.5t-17.5 81q0 77 53 123.5t143 46.5q93 0 223 -70l-41 -60q-107 56 -172 56q-57 0 -89 -31t-32 -76q0 -42 41 -108t50 -105h164v-58h-160q-5 -58 -35.5 -108.5t-58.5 -76.5h321v-74h-430v61q5 3 12.5 9.5t27.5 27t36 42t29.5 54.5
t15.5 65h-110z" />
    <glyph glyph-name="yen" unicode="&#xa5;" horiz-adv-x="663" 
d="M94 299v57h147l-209 344h98l202 -355l201 355h98l-209 -344h146v-57h-181l-13 -22v-52h194v-57h-194v-168h-86v168h-194v57h194v53l-13 21h-181z" />
    <glyph glyph-name="brokenbar" unicode="&#xa6;" horiz-adv-x="242" 
d="M154 405h-66v413h66v-413zM154 -123h-66v413h66v-413z" />
    <glyph glyph-name="section" unicode="&#xa7;" horiz-adv-x="523" 
d="M250 163q-92 25 -141 62.5t-49 100.5q0 89 97 120q-77 42 -77 121q0 67 51 105.5t134 38.5q97 0 207 -53l-37 -58q-92 44 -168 44q-46 0 -76 -19.5t-30 -53.5q0 -21 11.5 -37t35.5 -27t40 -16t46 -12l12 -3q189 -48 189 -163q0 -91 -98 -121q77 -42 77 -120
q0 -67 -51 -105.5t-134 -38.5q-101 0 -207 53l37 58q96 -45 169 -45q46 0 75 19.5t29 53.5q0 11 -3 20t-9 16.5t-12 13.5t-17 11.5t-18.5 9.5t-21.5 8t-20.5 6t-21 6t-19.5 5zM256 410l-14 3q-46 -5 -74 -25.5t-28 -53.5q0 -22 12.5 -39t38.5 -29.5t44 -18.5t52 -15
q7 -2 11 -3l14 -4q46 5 74.5 25.5t28.5 53.5q0 22 -12.5 39.5t-39 30t-44.5 18.5t-52 15q-7 2 -11 3z" />
    <glyph glyph-name="dieresis" unicode="&#xa8;" horiz-adv-x="231" 
d="M-10 609v93h83v-93h-83zM159 609v93h82v-93h-82z" />
    <glyph glyph-name="copyright" unicode="&#xa9;" horiz-adv-x="830" 
d="M576 505l-27 -32q-73 55 -138 55q-58 0 -94 -49t-36 -130q0 -80 36 -128.5t94 -48.5q61 0 138 52l27 -30q-88 -62 -167 -62q-74 0 -124 57t-50 160q0 104 50 161t124 57q79 0 167 -62zM59 350q0 157 95 259t262 102t261.5 -102t94.5 -259t-94.5 -259t-261.5 -102
t-262 102t-95 259zM97 350q0 -142 84.5 -233.5t233.5 -91.5t234 91.5t85 233.5t-85 233t-234 91t-233.5 -91t-84.5 -233z" />
    <glyph glyph-name="ordfeminine" unicode="&#xaa;" horiz-adv-x="374" 
d="M264 385v41q-52 -48 -122 -48q-46 0 -78.5 26.5t-32.5 75.5q0 50 33 76.5t84 26.5q28 0 116 -17v31q0 32 -15 46.5t-51 14.5t-123 -26l-21 45q92 30 153 30q120 0 120 -109v-213h-63zM160 429q56 0 104 42v60q-72 13 -93 13q-75 0 -75 -60q0 -55 64 -55z" />
    <glyph glyph-name="guillemotleft" unicode="&#xab;" horiz-adv-x="683" 
d="M37 306l305 222v-83l-231 -166l231 -165v-83l-305 221v54zM317 306l305 222v-83l-231 -166l231 -165v-83l-305 221v54z" />
    <glyph glyph-name="logicalnot" unicode="&#xac;" horiz-adv-x="639" 
d="M605 90h-74v210h-503v66h577v-276z" />
    <glyph glyph-name="registered" unicode="&#xae;" horiz-adv-x="507" 
d="M56 520q0 87 53 143.5t145 56.5t144.5 -56.5t52.5 -143.5t-52.5 -143.5t-144.5 -56.5t-145 56.5t-53 143.5zM92 520q0 -74 41.5 -120.5t120.5 -46.5t120 46.5t41 120.5t-41 120.5t-120 46.5t-120.5 -46.5t-41.5 -120.5zM341 565q0 -20 -14 -35.5t-36 -20.5l47 -87h-37
l-44 85h-44v-85h-33v201h93q31 0 49.5 -16t18.5 -42zM307 565q0 28 -33 28h-61v-55h59q35 0 35 27z" />
    <glyph glyph-name="macron" unicode="&#xaf;" horiz-adv-x="292" 
d="M0 624v55h292v-55h-292z" />
    <glyph glyph-name="degree" unicode="&#xb0;" horiz-adv-x="515" 
d="M49 534q0 68 49 117t118 49q68 0 117 -49t49 -117q0 -69 -49 -118t-117 -49q-69 0 -118 49t-49 118zM104 534q0 -46 33 -79t79 -33t79 33t33 79t-33 79t-79 33t-79 -33t-33 -79z" />
    <glyph glyph-name="plusminus" unicode="&#xb1;" horiz-adv-x="639" 
d="M283 530h68v-162h219v-66h-219v-162h-68v162h-215v66h215v162zM68 0v60h502v-60h-502z" />
    <glyph glyph-name="twosuperior" unicode="&#xb2;" horiz-adv-x="377" 
d="M339 440v-55h-307v36q0 31 10.5 56.5t34.5 48t41.5 35t52.5 34.5t52 34t32.5 31t15.5 39q0 26 -21 42t-59 16q-59 0 -116 -39l-31 43q77 51 154 51q65 0 102.5 -30.5t37.5 -80.5q0 -27 -10 -49.5t-34.5 -44t-39 -31t-51.5 -31.5q-9 -5 -13 -8q-43 -26 -62.5 -46.5
t-19.5 -50.5h231z" />
    <glyph glyph-name="threesuperior" unicode="&#xb3;" horiz-adv-x="381" 
d="M23 425l31 45q65 -37 127 -37q42 0 69 19.5t27 52.5q0 41 -41 60t-93 19h-21v56h24q45 0 78.5 16t33.5 49q0 24 -20 38t-54 14q-53 0 -113 -35l-27 41q62 49 149 49q63 0 97 -29t34 -71q0 -30 -20.5 -55.5t-60.5 -39.5q45 -12 73 -42t28 -70q0 -52 -39.5 -89.5
t-115.5 -37.5q-82 0 -166 47z" />
    <glyph glyph-name="acute" unicode="&#xb4;" horiz-adv-x="214" 
d="M58 599h-69l122 130h114z" />
    <glyph glyph-name="mu" unicode="&#xb5;" horiz-adv-x="604" 
d="M451 0v73q-113 -84 -217 -84q-37 0 -65 11v-204h-83l-1 729h83v-359q0 -109 91 -109q48 0 103 27.5t89 58.5v382h83v-525h-83z" />
    <glyph glyph-name="paragraph" unicode="&#xb6;" horiz-adv-x="638" 
d="M285 700h73v-885h-75v454q-114 0 -181 55.5t-67 159.5q0 107 64 161.5t186 54.5zM468 -186v886h75v-886h-75z" />
    <glyph glyph-name="periodcentered" unicode="&#xb7;" horiz-adv-x="246" 
d="M75 224v120h96v-120h-96z" />
    <glyph glyph-name="cedilla" unicode="&#xb8;" horiz-adv-x="173" 
d="M-4 -153l21 50q29 -14 51 -14q56 0 56 46q0 16 -8 34.5t-16 28.5l-7 10h43q40 -42 40 -91q0 -39 -28 -61t-73 -22q-41 0 -79 19z" />
    <glyph glyph-name="onesuperior" unicode="&#xb9;" horiz-adv-x="245" 
d="M186 385h-66v357l-78 -39l-28 44l111 58h61v-420z" />
    <glyph glyph-name="ordmasculine" unicode="&#xba;" horiz-adv-x="390" 
d="M355 542q0 -77 -41.5 -120.5t-118.5 -43.5t-118.5 43.5t-41.5 120.5q0 78 41.5 121.5t118.5 43.5t118.5 -43.5t41.5 -121.5zM291 542q0 115 -96 115t-96 -115q0 -114 96 -114t96 114z" />
    <glyph glyph-name="guillemotright" unicode="&#xbb;" horiz-adv-x="683" 
d="M365 253l-305 -222v83l231 166l-231 165v83l305 -221v-54zM646 253l-305 -222v83l231 166l-231 165v83l305 -221v-54z" />
    <glyph glyph-name="onequarter" unicode="&#xbc;" horiz-adv-x="811" 
d="M200 280h-66v357l-78 -39l-28 44l111 58h61v-420zM562 700l-334 -700h-70l334 700h70zM408 89v47l208 284h87v-277h68v-54h-68v-89h-66v89h-229zM477 143h160v222z" />
    <glyph glyph-name="onehalf" unicode="&#xbd;" horiz-adv-x="835" 
d="M200 280h-66v357l-78 -39l-28 44l111 58h61v-420zM562 700l-334 -700h-70l334 700h70zM780 55v-55h-307v36q0 31 10.5 56.5t34.5 48t41.5 35t52.5 34.5t52 34t32.5 31t15.5 39q0 26 -21 42t-59 16q-59 0 -116 -39l-31 43q77 51 154 51q65 0 102.5 -30.5t37.5 -80.5
q0 -27 -10 -49.5t-34.5 -44t-39 -31t-51.5 -31.5q-4 -3 -7 -4.5t-6 -3.5q-43 -26 -62.5 -46.5t-19.5 -50.5h231z" />
    <glyph glyph-name="threequarters" unicode="&#xbe;" horiz-adv-x="922" 
d="M41 320l31 45q65 -37 127 -37q42 0 69 19.5t27 52.5q0 41 -41 60t-93 19h-21v56h24q45 0 78.5 16t33.5 49q0 24 -20 38t-54 14q-53 0 -113 -35l-27 41q62 49 149 49q63 0 97 -29t34 -71q0 -30 -20.5 -55.5t-60.5 -39.5q45 -12 73 -42t28 -70q0 -52 -39.5 -89.5
t-115.5 -37.5q-82 0 -166 47zM675 700l-334 -700h-70l334 700h70zM520 89v47l208 284h87v-277h68v-54h-68v-89h-66v89h-229zM589 143h160v222z" />
    <glyph glyph-name="questiondown" unicode="&#xbf;" horiz-adv-x="504" 
d="M346 700v-115h-96v115h96zM44 159q0 147 218 204l6 128h60l7 -176q-103 -22 -154.5 -54.5t-51.5 -91.5q0 -49 37 -77.5t94 -28.5q76 0 173 58l41 -58q-109 -74 -224 -74q-86 0 -146 44.5t-60 125.5z" />
    <glyph glyph-name="Agrave" unicode="&#xc0;" horiz-adv-x="682" 
d="M565 0l-62 171h-324l-62 -171h-94l271 700h94l271 -700h-94zM341 620l-137 -378h273zM420 750h-70l-166 130h112z" />
    <glyph glyph-name="Aacute" unicode="&#xc1;" horiz-adv-x="682" 
d="M565 0l-62 171h-324l-62 -171h-94l271 700h94l271 -700h-94zM341 620l-137 -378h273zM332 750h-69l122 130h114z" />
    <glyph glyph-name="Acircumflex" unicode="&#xc2;" horiz-adv-x="682" 
d="M565 0l-62 171h-324l-62 -171h-94l271 700h94l271 -700h-94zM341 620l-137 -378h273zM388 880l100 -130h-62l-85 85l-85 -85h-62l99 130h95z" />
    <glyph glyph-name="Atilde" unicode="&#xc3;" horiz-adv-x="682" 
d="M565 0l-62 171h-324l-62 -171h-94l271 700h94l271 -700h-94zM341 620l-137 -378h273zM229 760l-45 20q22 42 42 63t51 21q27 0 69.5 -24.5t56.5 -24.5q25 0 50 46l45 -19q-20 -42 -40.5 -63.5t-52.5 -21.5q-27 0 -69.5 24.5t-56.5 24.5q-25 0 -50 -46z" />
    <glyph glyph-name="Adieresis" unicode="&#xc4;" horiz-adv-x="682" 
d="M565 0l-62 171h-324l-62 -171h-94l271 700h94l271 -700h-94zM341 620l-137 -378h273zM216 761v93h83v-93h-83zM385 761v93h82v-93h-82z" />
    <glyph glyph-name="Aring" unicode="&#xc5;" horiz-adv-x="682" 
d="M565 0l-62 171h-324l-62 -171h-94l271 700h94l271 -700h-94zM341 620l-137 -378h273zM239 843q0 44 30 74.5t73 30.5q44 0 74.5 -31t30.5 -74t-30.5 -73t-74.5 -30q-43 0 -73 30t-30 73zM286 843q0 -23 16.5 -39.5t39.5 -16.5q24 0 40.5 16.5t16.5 39.5q0 24 -16.5 40.5
t-40.5 16.5q-23 0 -39.5 -16.5t-16.5 -40.5z" />
    <glyph glyph-name="AE" unicode="&#xc6;" horiz-adv-x="1012" 
d="M960 0h-450v171h-293l-114 -171h-102l481 700h472v-75h-357v-238h295v-74h-295v-238h363v-75zM266 244h244v365z" />
    <glyph glyph-name="Ccedilla" unicode="&#xc7;" horiz-adv-x="642" 
d="M217 -153l21 50q29 -14 51 -14q56 0 56 46q0 28 -22 60q-114 5 -188 95.5t-74 265.5q0 179 78 270t197 91q117 0 269 -103l-45 -62q-40 26 -66 40.5t-70 30.5t-81 16q-86 0 -139.5 -75.5t-53.5 -207.5t53.5 -207.5t139.5 -75.5q37 0 81 16t70 30.5t66 40.5l45 -62
q-135 -91 -239 -101q31 -41 31 -80t-28 -61t-73 -22q-41 0 -79 19z" />
    <glyph glyph-name="Egrave" unicode="&#xc8;" horiz-adv-x="595" 
d="M544 0h-450v700h444v-75h-357v-238h295v-74h-295v-238h363v-75zM398 750h-70l-166 130h112z" />
    <glyph glyph-name="Eacute" unicode="&#xc9;" horiz-adv-x="595" 
d="M544 0h-450v700h444v-75h-357v-238h295v-74h-295v-238h363v-75zM310 750h-69l122 130h114z" />
    <glyph glyph-name="Ecircumflex" unicode="&#xca;" horiz-adv-x="595" 
d="M544 0h-450v700h444v-75h-357v-238h295v-74h-295v-238h363v-75zM366 880l100 -130h-62l-85 85l-85 -85h-62l99 130h95z" />
    <glyph glyph-name="Edieresis" unicode="&#xcb;" horiz-adv-x="595" 
d="M544 0h-450v700h444v-75h-357v-238h295v-74h-295v-238h363v-75zM193 760v93h83v-93h-83zM362 760v93h82v-93h-82z" />
    <glyph glyph-name="Igrave" unicode="&#xcc;" horiz-adv-x="277" 
d="M183 0h-87v700h87v-700zM218 750h-70l-166 130h112z" />
    <glyph glyph-name="Iacute" unicode="&#xcd;" horiz-adv-x="277" 
d="M181 0h-87v700h87v-700zM129 750h-69l122 130h114z" />
    <glyph glyph-name="Icircumflex" unicode="&#xce;" horiz-adv-x="278" 
d="M182 0h-87v700h87v-700zM186 880l100 -130h-62l-85 85l-85 -85h-62l99 130h95z" />
    <glyph glyph-name="Idieresis" unicode="&#xcf;" horiz-adv-x="278" 
d="M182 0h-87v700h87v-700zM13 759v93h83v-93h-83zM182 759v93h82v-93h-82z" />
    <glyph glyph-name="Eth" unicode="&#xd0;" horiz-adv-x="708" 
d="M647 350q0 -350 -330 -350h-217v314h-74v72h74v314h217q330 0 330 -350zM558 350q0 143 -60 209t-187 66h-124v-239h168v-72h-168v-239h124q128 0 187.5 65.5t59.5 209.5z" />
    <glyph glyph-name="Ntilde" unicode="&#xd1;" horiz-adv-x="727" 
d="M543 0l-362 572v-572h-87v700h89l363 -573v573h86v-700h-89zM257 762l-45 20q22 42 42 63t51 21q27 0 69.5 -24.5t56.5 -24.5q25 0 50 46l45 -19q-20 -42 -40.5 -63.5t-52.5 -21.5q-27 0 -69.5 24.5t-56.5 24.5q-25 0 -50 -46z" />
    <glyph glyph-name="Ograve" unicode="&#xd2;" horiz-adv-x="738" 
d="M368 711q108 0 179 -50t100 -128.5t29 -182.5q0 -77 -17 -140.5t-52.5 -114t-96.5 -78.5t-142 -28t-141.5 28t-96 78.5t-52.5 114t-17 140.5t17 140.5t52.5 114t96 78.5t141.5 28zM368 64q116 0 167.5 77.5t51.5 208.5t-51.5 208.5t-167.5 77.5q-115 0 -166.5 -78
t-51.5 -208t51.5 -208t166.5 -78zM447 750h-70l-166 130h112z" />
    <glyph glyph-name="Oacute" unicode="&#xd3;" horiz-adv-x="738" 
d="M368 711q108 0 179 -50t100 -128.5t29 -182.5q0 -77 -17 -140.5t-52.5 -114t-96.5 -78.5t-142 -28t-141.5 28t-96 78.5t-52.5 114t-17 140.5t17 140.5t52.5 114t96 78.5t141.5 28zM368 64q116 0 167.5 77.5t51.5 208.5t-51.5 208.5t-167.5 77.5q-115 0 -166.5 -78
t-51.5 -208t51.5 -208t166.5 -78zM359 750h-69l122 130h114z" />
    <glyph glyph-name="Ocircumflex" unicode="&#xd4;" horiz-adv-x="738" 
d="M368 711q108 0 179 -50t100 -128.5t29 -182.5q0 -77 -17 -140.5t-52.5 -114t-96.5 -78.5t-142 -28t-141.5 28t-96 78.5t-52.5 114t-17 140.5t17 140.5t52.5 114t96 78.5t141.5 28zM368 64q116 0 167.5 77.5t51.5 208.5t-51.5 208.5t-167.5 77.5q-115 0 -166.5 -78
t-51.5 -208t51.5 -208t166.5 -78zM416 880l100 -130h-62l-85 85l-85 -85h-62l99 130h95z" />
    <glyph glyph-name="Otilde" unicode="&#xd5;" horiz-adv-x="738" 
d="M368 711q108 0 179 -50t100 -128.5t29 -182.5q0 -77 -17 -140.5t-52.5 -114t-96.5 -78.5t-142 -28t-141.5 28t-96 78.5t-52.5 114t-17 140.5t17 140.5t52.5 114t96 78.5t141.5 28zM368 64q116 0 167.5 77.5t51.5 208.5t-51.5 208.5t-167.5 77.5q-115 0 -166.5 -78
t-51.5 -208t51.5 -208t166.5 -78zM256 760l-45 20q22 42 42 63t51 21q27 0 69.5 -24.5t56.5 -24.5q25 0 50 46l45 -19q-20 -42 -40.5 -63.5t-52.5 -21.5q-27 0 -69.5 24.5t-56.5 24.5q-25 0 -50 -46z" />
    <glyph glyph-name="Odieresis" unicode="&#xd6;" horiz-adv-x="738" 
d="M368 711q108 0 179 -50t100 -128.5t29 -182.5q0 -77 -17 -140.5t-52.5 -114t-96.5 -78.5t-142 -28t-141.5 28t-96 78.5t-52.5 114t-17 140.5t17 140.5t52.5 114t96 78.5t141.5 28zM368 64q116 0 167.5 77.5t51.5 208.5t-51.5 208.5t-167.5 77.5q-115 0 -166.5 -78
t-51.5 -208t51.5 -208t166.5 -78zM243 760v93h83v-93h-83zM412 760v93h82v-93h-82z" />
    <glyph glyph-name="multiply" unicode="&#xd7;" horiz-adv-x="638" 
d="M519 470l-150 -136l151 -136l-48 -47l-154 138l-151 -137l-49 48l149 135l-151 137l48 48l154 -140l152 138z" />
    <glyph glyph-name="Oslash" unicode="&#xd8;" horiz-adv-x="734" 
d="M366 711q116 0 191 -59l36 48h71l-66 -88q76 -95 76 -262q0 -77 -17 -140.5t-52.5 -114t-96.5 -78.5t-142 -28q-116 0 -190 58l-35 -47h-70l64 86q-76 95 -76 264q0 77 17 140.5t52.5 114t96 78.5t141.5 28zM148 350q0 -120 41 -192l319 429q-52 49 -142 49
q-115 0 -166.5 -78t-51.5 -208zM366 64q116 0 167.5 77.5t51.5 208.5q0 119 -41 190l-319 -427q52 -49 141 -49z" />
    <glyph glyph-name="Ugrave" unicode="&#xd9;" horiz-adv-x="700" 
d="M612 700v-444q0 -267 -262 -267q-263 0 -263 267v444h87v-447q0 -43 7.5 -74.5t26 -59t54 -41.5t88.5 -14q100 0 138 50t38 139v447h86zM429 750h-70l-166 130h112z" />
    <glyph glyph-name="Uacute" unicode="&#xda;" horiz-adv-x="700" 
d="M612 700v-444q0 -267 -262 -267q-263 0 -263 267v444h87v-447q0 -43 7.5 -74.5t26 -59t54 -41.5t88.5 -14q100 0 138 50t38 139v447h86zM341 750h-69l122 130h114z" />
    <glyph glyph-name="Ucircumflex" unicode="&#xdb;" horiz-adv-x="700" 
d="M612 700v-444q0 -267 -262 -267q-263 0 -263 267v444h87v-447q0 -43 7.5 -74.5t26 -59t54 -41.5t88.5 -14q100 0 138 50t38 139v447h86zM398 880l100 -130h-62l-85 85l-85 -85h-62l99 130h95z" />
    <glyph glyph-name="Udieresis" unicode="&#xdc;" horiz-adv-x="700" 
d="M612 700v-444q0 -267 -262 -267q-263 0 -263 267v444h87v-447q0 -43 7.5 -74.5t26 -59t54 -41.5t88.5 -14q100 0 138 50t38 139v447h86zM224 760v93h83v-93h-83zM393 760v93h82v-93h-82z" />
    <glyph glyph-name="Yacute" unicode="&#xdd;" horiz-adv-x="633" 
d="M273 0v278l-256 422h98l202 -355l201 355h98l-257 -423v-277h-86zM308 750h-69l122 130h114z" />
    <glyph glyph-name="Thorn" unicode="&#xde;" horiz-adv-x="653" 
d="M606 362q0 -215 -261 -215h-164v-147h-87v700h87v-125h164q261 0 261 -213zM517 362q0 139 -178 139h-158v-281h158q178 0 178 142z" />
    <glyph glyph-name="germandbls" unicode="&#xdf;" horiz-adv-x="641" 
d="M310 731q102 0 163 -46.5t61 -122.5q0 -26 -7.5 -47.5t-14.5 -30.5l-8 -9q-104 -31 -104 -91q0 -7 2 -14t4.5 -12.5t9.5 -12.5l11.5 -11.5t15 -12t17 -11.5t21 -14t22.5 -15q50 -33 76.5 -67t26.5 -83q0 -66 -46.5 -104t-117.5 -38q-92 0 -200 56l37 61q94 -48 160 -48
q36 0 60.5 19.5t24.5 53.5q0 29 -19 49t-65 49q-2 1 -20.5 12t-24.5 15t-21.5 15.5t-22 20.5t-16 23t-13 29.5t-3.5 33.5q0 96 128 143q7 19 7 38q0 48 -38 76.5t-102 28.5q-150 0 -150 -180v-484h-83v486q0 127 61 186t168 59z" />
    <glyph glyph-name="agrave" unicode="&#xe0;" horiz-adv-x="577" 
d="M418 0v70q-88 -81 -195 -81q-72 0 -124 42t-52 126t52 127.5t130 43.5q27 0 62 -5t78.5 -13.5t48.5 -9.5v59q0 58 -24 84t-86 26q-61 0 -195 -44l-30 61q139 50 236 50q90 0 136 -41t46 -133v-362h-83zM243 58q91 0 175 77v115q-118 23 -158 23q-67 0 -97.5 -31
t-30.5 -81q0 -103 111 -103zM372 599h-70l-166 130h112z" />
    <glyph glyph-name="aacute" unicode="&#xe1;" horiz-adv-x="577" 
d="M418 0v70q-88 -81 -195 -81q-72 0 -124 42t-52 126t52 127.5t130 43.5q27 0 62 -5t78.5 -13.5t48.5 -9.5v59q0 58 -24 84t-86 26q-61 0 -195 -44l-30 61q139 50 236 50q90 0 136 -41t46 -133v-362h-83zM243 58q91 0 175 77v115q-118 23 -158 23q-67 0 -97.5 -31
t-30.5 -81q0 -103 111 -103zM283 599h-69l122 130h114z" />
    <glyph glyph-name="acircumflex" unicode="&#xe2;" horiz-adv-x="577" 
d="M418 0v70q-88 -81 -195 -81q-72 0 -124 42t-52 126t52 127.5t130 43.5q27 0 62 -5t78.5 -13.5t48.5 -9.5v59q0 58 -24 84t-86 26q-61 0 -195 -44l-30 61q139 50 236 50q90 0 136 -41t46 -133v-362h-83zM243 58q91 0 175 77v115q-118 23 -158 23q-67 0 -97.5 -31
t-30.5 -81q0 -103 111 -103zM339 729l100 -130h-62l-85 85l-85 -85h-62l99 130h95z" />
    <glyph glyph-name="atilde" unicode="&#xe3;" horiz-adv-x="577" 
d="M418 0v70q-88 -81 -195 -81q-72 0 -124 42t-52 126t52 127.5t130 43.5q27 0 62 -5t78.5 -13.5t48.5 -9.5v59q0 58 -24 84t-86 26q-61 0 -195 -44l-30 61q139 50 236 50q90 0 136 -41t46 -133v-362h-83zM243 58q91 0 175 77v115q-118 23 -158 23q-67 0 -97.5 -31
t-30.5 -81q0 -103 111 -103zM180 609l-45 20q22 42 42 63t51 21q27 0 69.5 -24.5t56.5 -24.5q25 0 50 46l45 -19q-20 -42 -40.5 -63.5t-52.5 -21.5q-27 0 -69.5 24.5t-56.5 24.5q-25 0 -50 -46z" />
    <glyph glyph-name="adieresis" unicode="&#xe4;" horiz-adv-x="577" 
d="M418 0v70q-88 -81 -195 -81q-72 0 -124 42t-52 126t52 127.5t130 43.5q27 0 62 -5t78.5 -13.5t48.5 -9.5v59q0 58 -24 84t-86 26q-61 0 -195 -44l-30 61q139 50 236 50q90 0 136 -41t46 -133v-362h-83zM243 58q91 0 175 77v115q-118 23 -158 23q-67 0 -97.5 -31
t-30.5 -81q0 -103 111 -103zM166 609v93h83v-93h-83zM335 609v93h82v-93h-82z" />
    <glyph glyph-name="aring" unicode="&#xe5;" horiz-adv-x="577" 
d="M418 0v70q-88 -81 -195 -81q-72 0 -124 42t-52 126t52 127.5t130 43.5q27 0 62 -5t78.5 -13.5t48.5 -9.5v59q0 58 -24 84t-86 26q-61 0 -195 -44l-30 61q139 50 236 50q90 0 136 -41t46 -133v-362h-83zM243 58q91 0 175 77v115q-118 23 -158 23q-67 0 -97.5 -31
t-30.5 -81q0 -103 111 -103zM189 692q0 44 30 74.5t73 30.5q44 0 74.5 -30.5t30.5 -74.5q0 -43 -30.5 -73t-74.5 -30q-43 0 -73 30t-30 73zM236 692q0 -23 16.5 -39.5t39.5 -16.5q24 0 40.5 16.5t16.5 39.5q0 24 -16.5 40.5t-40.5 16.5q-23 0 -39.5 -16.5t-16.5 -40.5z" />
    <glyph glyph-name="ae" unicode="&#xe6;" horiz-adv-x="922" 
d="M861 241h-375q5 -86 46 -136t105 -50q76 0 196 71l38 -55q-40 -24 -63 -36t-76 -29t-100 -17q-128 0 -190 104q-99 -104 -219 -104q-72 0 -124 42t-52 126t52 127.5t130 43.5q49 0 173 -31q4 42 15 78q-2 49 -26.5 71.5t-82.5 22.5q-61 0 -195 -44l-30 61q139 50 236 50
q114 0 156 -66q66 66 170 66q107 0 165 -62.5t58 -164.5q0 -17 -2 -34t-4 -25zM243 58q90 0 177 82q-18 53 -19 104q-5 1 -30.5 8t-38.5 10.5t-34.5 7t-37.5 3.5q-67 0 -97.5 -31t-30.5 -81q0 -103 111 -103zM644 472q-68 0 -109 -47t-48 -130h298q4 177 -141 177z" />
    <glyph glyph-name="ccedilla" unicode="&#xe7;" horiz-adv-x="520" 
d="M151 -153l21 50q29 -14 51 -14q56 0 56 46q0 29 -22 61q-87 9 -145.5 80t-58.5 193q0 130 66.5 201.5t161.5 71.5q83 0 203 -69l-38 -62q-1 1 -16 9.5t-23.5 13t-25.5 12.5t-30.5 12.5t-30.5 8t-32 3.5q-65 0 -107 -55t-42 -146t42 -146.5t107 -55.5q18 0 37.5 4.5
t38.5 12.5t32 14t30 16t20 11l38 -61q-110 -62 -183 -68q30 -40 30 -79t-28 -61t-73 -22q-41 0 -79 19z" />
    <glyph glyph-name="egrave" unicode="&#xe8;" horiz-adv-x="575" 
d="M513 241h-375q5 -86 46 -136t105 -50q76 0 196 71l38 -55q-40 -24 -63 -36t-76 -29t-100 -17q-100 0 -165.5 71t-65.5 202q0 130 67.5 202t176.5 72q107 0 165 -62.5t58 -164.5q0 -17 -2 -34t-4 -25zM296 472q-68 0 -109 -47t-48 -130h298q4 177 -141 177zM376 599h-70
l-166 130h112z" />
    <glyph glyph-name="eacute" unicode="&#xe9;" horiz-adv-x="575" 
d="M513 241h-375q5 -86 46 -136t105 -50q76 0 196 71l38 -55q-40 -24 -63 -36t-76 -29t-100 -17q-100 0 -165.5 71t-65.5 202q0 130 67.5 202t176.5 72q107 0 165 -62.5t58 -164.5q0 -17 -2 -34t-4 -25zM296 472q-68 0 -109 -47t-48 -130h298q4 177 -141 177zM288 599h-69
l122 130h114z" />
    <glyph glyph-name="ecircumflex" unicode="&#xea;" horiz-adv-x="575" 
d="M513 241h-375q5 -86 46 -136t105 -50q76 0 196 71l38 -55q-40 -24 -63 -36t-76 -29t-100 -17q-100 0 -165.5 71t-65.5 202q0 130 67.5 202t176.5 72q107 0 165 -62.5t58 -164.5q0 -17 -2 -34t-4 -25zM296 472q-68 0 -109 -47t-48 -130h298q4 177 -141 177zM344 729
l100 -130h-62l-85 85l-85 -85h-62l99 130h95z" />
    <glyph glyph-name="edieresis" unicode="&#xeb;" horiz-adv-x="575" 
d="M513 241h-375q5 -86 46 -136t105 -50q76 0 196 71l38 -55q-40 -24 -63 -36t-76 -29t-100 -17q-100 0 -165.5 71t-65.5 202q0 130 67.5 202t176.5 72q107 0 165 -62.5t58 -164.5q0 -17 -2 -34t-4 -25zM296 472q-68 0 -109 -47t-48 -130h298q4 177 -141 177zM171 609v93h83
v-93h-83zM340 609v93h82v-93h-82z" />
    <glyph glyph-name="igrave" unicode="&#xec;" horiz-adv-x="247" 
d="M167 0h-83v525h83v-525zM204 599h-70l-166 130h112z" />
    <glyph glyph-name="iacute" unicode="&#xed;" horiz-adv-x="248" 
d="M164 0h-83v525h83v-525zM114 599h-69l122 130h114z" />
    <glyph glyph-name="icircumflex" unicode="&#xee;" horiz-adv-x="249" 
d="M166 0h-83v525h83v-525zM172 729l100 -130h-62l-85 85l-85 -85h-62l99 130h95z" />
    <glyph glyph-name="idieresis" unicode="&#xef;" horiz-adv-x="248" 
d="M165 0h-83v525h83v-525zM-2 609v93h83v-93h-83zM167 609v93h82v-93h-82z" />
    <glyph glyph-name="eth" unicode="&#xf0;" horiz-adv-x="611" 
d="M237 557h-84l87 72q-20 3 -42 3q-19 0 -38 -2t-28 -4l-10 -3l-14 65q37 12 92 12q54 0 107 -16l56 45h86l-86 -70q90 -49 141 -148.5t51 -228.5q0 -154 -69 -223.5t-181 -69.5q-116 0 -183 66t-67 177q0 110 63.5 177t166.5 67q36 0 68 -8t51.5 -20t33.5 -23.5t20 -19.5
l6 -8q-17 67 -58 125.5t-104 87.5zM471 233q0 83 -42.5 129.5t-122.5 46.5t-122.5 -48.5t-42.5 -128.5t42.5 -128t122.5 -48q78 0 121.5 47t43.5 130z" />
    <glyph glyph-name="ntilde" unicode="&#xf1;" 
d="M164 525v-74q41 31 99 58t117 27q150 0 150 -162v-374h-83v359q0 109 -91 109q-49 0 -103.5 -28t-88.5 -58v-382h-83v525h83zM192 609l-45 20q22 42 42 63t51 21q27 0 69.5 -24.5t56.5 -24.5q25 0 50 46l45 -19q-20 -42 -40.5 -63.5t-52.5 -21.5q-27 0 -69.5 24.5
t-56.5 24.5q-25 0 -50 -46z" />
    <glyph glyph-name="ograve" unicode="&#xf2;" horiz-adv-x="603" 
d="M549 262q0 -129 -64 -201t-183 -72q-120 0 -184 72t-64 201t64.5 201.5t183.5 72.5t183 -72.5t64 -201.5zM464 262q0 98 -39.5 152.5t-122.5 54.5t-123 -54.5t-40 -152.5q0 -206 163 -206q162 0 162 206zM380 599h-70l-166 130h112z" />
    <glyph glyph-name="oacute" unicode="&#xf3;" horiz-adv-x="603" 
d="M549 262q0 -129 -64 -201t-183 -72q-120 0 -184 72t-64 201t64.5 201.5t183.5 72.5t183 -72.5t64 -201.5zM464 262q0 98 -39.5 152.5t-122.5 54.5t-123 -54.5t-40 -152.5q0 -206 163 -206q162 0 162 206zM292 599h-69l122 130h114z" />
    <glyph glyph-name="ocircumflex" unicode="&#xf4;" horiz-adv-x="603" 
d="M549 262q0 -129 -64 -201t-183 -72q-120 0 -184 72t-64 201t64.5 201.5t183.5 72.5t183 -72.5t64 -201.5zM464 262q0 98 -39.5 152.5t-122.5 54.5t-123 -54.5t-40 -152.5q0 -206 163 -206q162 0 162 206zM349 729l100 -130h-62l-85 85l-85 -85h-62l99 130h95z" />
    <glyph glyph-name="otilde" unicode="&#xf5;" horiz-adv-x="603" 
d="M549 262q0 -129 -64 -201t-183 -72q-120 0 -184 72t-64 201t64.5 201.5t183.5 72.5t183 -72.5t64 -201.5zM464 262q0 98 -39.5 152.5t-122.5 54.5t-123 -54.5t-40 -152.5q0 -206 163 -206q162 0 162 206zM190 609l-45 20q22 42 42 63t51 21q27 0 69.5 -24.5t56.5 -24.5
q25 0 50 46l45 -19q-20 -42 -40.5 -63.5t-52.5 -21.5q-27 0 -69.5 24.5t-56.5 24.5q-25 0 -50 -46z" />
    <glyph glyph-name="odieresis" unicode="&#xf6;" horiz-adv-x="603" 
d="M549 262q0 -129 -64 -201t-183 -72q-120 0 -184 72t-64 201t64.5 201.5t183.5 72.5t183 -72.5t64 -201.5zM464 262q0 98 -39.5 152.5t-122.5 54.5t-123 -54.5t-40 -152.5q0 -206 163 -206q162 0 162 206zM176 609v93h83v-93h-83zM345 609v93h82v-93h-82z" />
    <glyph glyph-name="divide" unicode="&#xf7;" horiz-adv-x="639" 
d="M261 507q0 25 16.5 42t41.5 17t42 -17t17 -42t-17 -41.5t-42 -16.5t-41.5 16.5t-16.5 41.5zM261 159q0 25 16.5 42t41.5 17t42 -17t17 -42t-17 -41.5t-42 -16.5t-41.5 16.5t-16.5 41.5zM68 300v66h502v-66h-502z" />
    <glyph glyph-name="oslash" unicode="&#xf8;" horiz-adv-x="600" 
d="M547 262q0 -129 -64 -201t-183 -72q-90 0 -149 41l-24 -30h-63l50 64q-62 71 -62 198q0 129 64.5 201.5t183.5 72.5q89 0 148 -42l25 31h62l-50 -64q62 -73 62 -199zM137 262q0 -85 27 -133l239 306q-40 34 -103 34q-83 0 -123 -54.5t-40 -152.5zM462 262q0 83 -28 133
l-238 -306q39 -33 104 -33q162 0 162 206z" />
    <glyph glyph-name="ugrave" unicode="&#xf9;" 
d="M442 0v73q-113 -84 -217 -84q-149 0 -149 161v375h83v-359q0 -109 91 -109q48 0 103 27.5t89 58.5v382h83v-525h-83zM379 599h-70l-166 130h112z" />
    <glyph glyph-name="uacute" unicode="&#xfa;" 
d="M442 0v73q-113 -84 -217 -84q-149 0 -149 161v375h83v-359q0 -109 91 -109q48 0 103 27.5t89 58.5v382h83v-525h-83zM291 599h-69l122 130h114z" />
    <glyph glyph-name="ucircumflex" unicode="&#xfb;" 
d="M442 0v73q-113 -84 -217 -84q-149 0 -149 161v375h83v-359q0 -109 91 -109q48 0 103 27.5t89 58.5v382h83v-525h-83zM347 729l100 -130h-62l-85 85l-85 -85h-62l99 130h95z" />
    <glyph glyph-name="udieresis" unicode="&#xfc;" 
d="M442 0v73q-113 -84 -217 -84q-149 0 -149 161v375h83v-359q0 -109 91 -109q48 0 103 27.5t89 58.5v382h83v-525h-83zM175 609v93h83v-93h-83zM344 609v93h82v-93h-82z" />
    <glyph glyph-name="yacute" unicode="&#xfd;" horiz-adv-x="559" 
d="M28 525h90l161 -427l161 427h91l-294 -729h-91l92 207zM270 599h-69l122 130h114z" />
    <glyph glyph-name="thorn" unicode="&#xfe;" horiz-adv-x="604" 
d="M349 -11q-100 0 -185 79v-272h-83v933h83v-272q88 79 185 79q89 0 144.5 -68t55.5 -206t-55.5 -205.5t-144.5 -67.5zM333 467q-95 0 -169 -85v-240q75 -84 169 -84q64 0 98 53.5t34 150.5t-34 151t-98 54z" />
    <glyph glyph-name="ydieresis" unicode="&#xff;" horiz-adv-x="559" 
d="M28 525h90l161 -427l161 427h91l-294 -729h-91l92 207zM154 609v93h83v-93h-83zM323 609v93h82v-93h-82z" />
    <glyph glyph-name="Amacron" unicode="&#x100;" horiz-adv-x="682" 
d="M565 0l-62 171h-324l-62 -171h-94l271 700h94l271 -700h-94zM341 620l-137 -378h273zM195 775v55h292v-55h-292z" />
    <glyph glyph-name="amacron" unicode="&#x101;" horiz-adv-x="577" 
d="M418 0v70q-88 -81 -195 -81q-72 0 -124 42t-52 126t52 127.5t130 43.5q27 0 62 -5t78.5 -13.5t48.5 -9.5v59q0 58 -24 84t-86 26q-61 0 -195 -44l-30 61q139 50 236 50q90 0 136 -41t46 -133v-362h-83zM243 58q91 0 175 77v115q-118 23 -158 23q-67 0 -97.5 -31
t-30.5 -81q0 -103 111 -103zM146 624v55h292v-55h-292z" />
    <glyph glyph-name="Abreve" unicode="&#x102;" horiz-adv-x="682" 
d="M565 0l-62 171h-324l-62 -171h-94l271 700h94l271 -700h-94zM341 620l-137 -378h273zM340 750q-67 0 -104.5 28.5t-37.5 78.5h59q0 -53 83 -53q84 0 84 53h60q0 -50 -38 -78.5t-106 -28.5z" />
    <glyph glyph-name="abreve" unicode="&#x103;" horiz-adv-x="577" 
d="M418 0v70q-88 -81 -195 -81q-72 0 -124 42t-52 126t52 127.5t130 43.5q27 0 62 -5t78.5 -13.5t48.5 -9.5v59q0 58 -24 84t-86 26q-61 0 -195 -44l-30 61q139 50 236 50q90 0 136 -41t46 -133v-362h-83zM243 58q91 0 175 77v115q-118 23 -158 23q-67 0 -97.5 -31
t-30.5 -81q0 -103 111 -103zM292 599q-67 0 -104.5 28.5t-37.5 78.5h59q0 -53 83 -53q84 0 84 53h60q0 -50 -38 -78.5t-106 -28.5z" />
    <glyph glyph-name="Aogonek" unicode="&#x104;" horiz-adv-x="682" 
d="M565 0l-62 171h-324l-62 -171h-94l271 700h94l271 -700h-4q-64 -37 -82 -58q-16 -19 -16 -38q0 -7 1.5 -12.5t5.5 -9t7.5 -6.5t9.5 -4.5t10.5 -2.5t12 -1.5t11 -0.5h11.5h10l-10 -50q-134 0 -134 78q0 57 99 105h-26zM341 620l-137 -378h273z" />
    <glyph glyph-name="aogonek" unicode="&#x105;" horiz-adv-x="577" 
d="M418 0v70q-88 -81 -195 -81q-72 0 -124 42t-52 126t52 127.5t130 43.5q27 0 62 -5t78.5 -13.5t48.5 -9.5v59q0 58 -24 84t-86 26q-61 0 -195 -44l-30 61q139 50 236 50q90 0 136 -41t46 -133v-362h-3q-64 -37 -82 -58q-16 -19 -16 -38q0 -7 1.5 -12.5t5.5 -9t7.5 -6.5
t9.5 -4.5t10.5 -2.5t12 -1.5t11 -0.5h11.5h10l-10 -50q-134 0 -134 78q0 57 99 105h-16zM243 58q91 0 175 77v115q-118 23 -158 23q-67 0 -97.5 -31t-30.5 -81q0 -103 111 -103z" />
    <glyph glyph-name="Cacute" unicode="&#x106;" horiz-adv-x="642" 
d="M605 608l-45 -62q-40 26 -66 40.5t-70 30.5t-81 16q-86 0 -139.5 -75.5t-53.5 -207.5t53.5 -207.5t139.5 -75.5q37 0 81 16t70 30.5t66 40.5l45 -62q-152 -103 -269 -103q-119 0 -197 90.5t-78 270.5q0 179 78 270t197 91q117 0 269 -103zM368 750h-69l122 130h114z" />
    <glyph glyph-name="cacute" unicode="&#x107;" horiz-adv-x="520" 
d="M484 467l-38 -62q-1 1 -16 9.5t-23.5 13t-25.5 12.5t-30.5 12.5t-30.5 8t-32 3.5q-65 0 -107 -55t-42 -146t42 -146.5t107 -55.5q18 0 37.5 4.5t38.5 12.5t32 14t30 16t20 11l38 -61q-120 -69 -203 -69q-95 0 -161.5 72t-66.5 202t66.5 201.5t161.5 71.5q83 0 203 -69z
M275 599h-69l122 130h114z" />
    <glyph glyph-name="Cdotaccent" unicode="&#x10a;" horiz-adv-x="642" 
d="M605 608l-45 -62q-40 26 -66 40.5t-70 30.5t-81 16q-86 0 -139.5 -75.5t-53.5 -207.5t53.5 -207.5t139.5 -75.5q37 0 81 16t70 30.5t66 40.5l45 -62q-152 -103 -269 -103q-119 0 -197 90.5t-78 270.5q0 179 78 270t197 91q117 0 269 -103zM302 760v93h83v-93h-83z" />
    <glyph glyph-name="cdotaccent" unicode="&#x10b;" horiz-adv-x="520" 
d="M484 467l-38 -62q-1 1 -16 9.5t-23.5 13t-25.5 12.5t-30.5 12.5t-30.5 8t-32 3.5q-65 0 -107 -55t-42 -146t42 -146.5t107 -55.5q18 0 37.5 4.5t38.5 12.5t32 14t30 16t20 11l38 -61q-120 -69 -203 -69q-95 0 -161.5 72t-66.5 202t66.5 201.5t161.5 71.5q83 0 203 -69z
M242 609v93h83v-93h-83z" />
    <glyph glyph-name="Ccaron" unicode="&#x10c;" horiz-adv-x="642" 
d="M605 608l-45 -62q-40 26 -66 40.5t-70 30.5t-81 16q-86 0 -139.5 -75.5t-53.5 -207.5t53.5 -207.5t139.5 -75.5q37 0 81 16t70 30.5t66 40.5l45 -62q-152 -103 -269 -103q-119 0 -197 90.5t-78 270.5q0 179 78 270t197 91q117 0 269 -103zM500 880l-100 -130h-95l-99 130
h62l85 -86l85 86h62z" />
    <glyph glyph-name="ccaron" unicode="&#x10d;" horiz-adv-x="520" 
d="M484 467l-38 -62q-1 1 -16 9.5t-23.5 13t-25.5 12.5t-30.5 12.5t-30.5 8t-32 3.5q-65 0 -107 -55t-42 -146t42 -146.5t107 -55.5q18 0 37.5 4.5t38.5 12.5t32 14t30 16t20 11l38 -61q-120 -69 -203 -69q-95 0 -161.5 72t-66.5 202t66.5 201.5t161.5 71.5q83 0 203 -69z
M431 729l-100 -130h-95l-99 130h62l85 -86l85 86h62z" />
    <glyph glyph-name="Dcaron" unicode="&#x10e;" horiz-adv-x="702" 
d="M641 350q0 -350 -330 -350h-217v700h217q330 0 330 -350zM552 350q0 143 -60 209t-187 66h-124v-550h124q128 0 187.5 65.5t59.5 209.5zM514 880l-100 -130h-95l-99 130h62l85 -86l85 86h62z" />
    <glyph glyph-name="dcaron" unicode="&#x10f;" horiz-adv-x="636" 
d="M523 0h-83v68q-85 -79 -185 -79q-89 0 -144.5 67.5t-55.5 205.5t55.5 206t144.5 68q97 0 185 -79v272h83v-729zM271 58q92 0 169 84v240q-76 85 -169 85q-64 0 -98 -54t-34 -151t34 -150.5t98 -53.5zM583 632v97h80l9 -101l-71 -108l-24 26l43 86h-37z" />
    <glyph glyph-name="Dcroat" unicode="&#x110;" horiz-adv-x="708" 
d="M647 350q0 -350 -330 -350h-217v314h-74v72h74v314h217q330 0 330 -350zM558 350q0 143 -60 209t-187 66h-124v-239h168v-72h-168v-239h124q128 0 187.5 65.5t59.5 209.5z" />
    <glyph glyph-name="dcroat" unicode="&#x111;" horiz-adv-x="605" 
d="M271 594v56h169v79h83v-79h65v-56h-65v-594h-83v68q-85 -79 -185 -79q-89 0 -144.5 67.5t-55.5 205.5t55.5 206t144.5 68q97 0 185 -79v137h-169zM271 58q92 0 169 84v240q-76 85 -169 85q-64 0 -98 -54t-34 -151t34 -150.5t98 -53.5z" />
    <glyph glyph-name="Emacron" unicode="&#x112;" horiz-adv-x="595" 
d="M544 0h-450v700h444v-75h-357v-238h295v-74h-295v-238h363v-75zM173 775v55h292v-55h-292z" />
    <glyph glyph-name="emacron" unicode="&#x113;" horiz-adv-x="575" 
d="M513 241h-375q5 -86 46 -136t105 -50q76 0 196 71l38 -55q-40 -24 -63 -36t-76 -29t-100 -17q-100 0 -165.5 71t-65.5 202q0 130 67.5 202t176.5 72q107 0 165 -62.5t58 -164.5q0 -17 -2 -34t-4 -25zM296 472q-68 0 -109 -47t-48 -130h298q4 177 -141 177zM152 624v55
h292v-55h-292z" />
    <glyph glyph-name="Edotaccent" unicode="&#x116;" horiz-adv-x="595" 
d="M544 0h-450v700h444v-75h-357v-238h295v-74h-295v-238h363v-75zM278 760v93h83v-93h-83z" />
    <glyph glyph-name="edotaccent" unicode="&#x117;" horiz-adv-x="575" 
d="M513 241h-375q5 -86 46 -136t105 -50q76 0 196 71l38 -55q-40 -24 -63 -36t-76 -29t-100 -17q-100 0 -165.5 71t-65.5 202q0 130 67.5 202t176.5 72q107 0 165 -62.5t58 -164.5q0 -17 -2 -34t-4 -25zM296 472q-68 0 -109 -47t-48 -130h298q4 177 -141 177zM256 609v93h83
v-93h-83z" />
    <glyph glyph-name="Eogonek" unicode="&#x118;" horiz-adv-x="595" 
d="M442 -96q0 -7 1.5 -12.5t5.5 -9t7.5 -6.5t9.5 -4.5t10.5 -2.5t12 -1.5t11 -0.5h11.5h10l-10 -50q-134 0 -134 78q0 57 99 105h-382v700h444v-75h-357v-238h295v-74h-295v-238h363v-75h-4q-64 -37 -82 -58q-16 -19 -16 -38z" />
    <glyph glyph-name="eogonek" unicode="&#x119;" horiz-adv-x="576" 
d="M265 -96q0 -7 1.5 -12.5t5.5 -9t7.5 -6.5t9.5 -4.5t10.5 -2.5t12 -1.5t11 -0.5h11.5h10l-10 -50q-134 0 -134 78q0 50 78 94q-98 2 -161.5 73t-63.5 200q0 130 67.5 202t176.5 72q107 0 165 -62.5t58 -164.5q0 -17 -2 -34t-4 -25l-1 -9h-375q5 -86 46 -136t105 -50
q76 0 196 71l38 -55q-98 -57 -162 -72q-24 -14 -32.5 -19.5t-28 -19.5t-27.5 -27.5t-8 -28.5zM296 472q-68 0 -109 -47t-48 -130h298q4 177 -141 177z" />
    <glyph glyph-name="Ecaron" unicode="&#x11a;" horiz-adv-x="595" 
d="M544 0h-450v700h444v-75h-357v-238h295v-74h-295v-238h363v-75zM466 872l-100 -130h-95l-99 130h62l85 -86l85 86h62z" />
    <glyph glyph-name="ecaron" unicode="&#x11b;" horiz-adv-x="575" 
d="M513 241h-375q5 -86 46 -136t105 -50q76 0 196 71l38 -55q-40 -24 -63 -36t-76 -29t-100 -17q-100 0 -165.5 71t-65.5 202q0 130 67.5 202t176.5 72q107 0 165 -62.5t58 -164.5q0 -17 -2 -34t-4 -25zM296 472q-68 0 -109 -47t-48 -130h298q4 177 -141 177zM444 729
l-100 -130h-95l-99 130h62l85 -86l85 86h62z" />
    <glyph glyph-name="Gbreve" unicode="&#x11e;" horiz-adv-x="700" 
d="M547 0v83q-107 -94 -216 -94q-116 0 -193 91t-77 270t78.5 270t198.5 91q126 0 280 -109l-46 -63q-98 63 -150 80q-42 14 -78 14q-87 0 -140.5 -75.5t-53.5 -207.5t53 -209t141 -77q87 0 203 101v145h-193v72h276v-382h-83zM345 750q-67 0 -104.5 28.5t-37.5 78.5h59
q0 -53 83 -53q84 0 84 53h60q0 -50 -38 -78.5t-106 -28.5z" />
    <glyph glyph-name="gbreve" unicode="&#x11f;" horiz-adv-x="604" 
d="M440 525h83v-555q0 -184 -200 -184q-110 0 -245 38l18 69q133 -39 216 -39q65 0 96.5 26.5t31.5 86.5v101q-85 -79 -185 -79q-89 0 -144.5 67.5t-55.5 205.5t55.5 206t144.5 68q97 0 185 -79v68zM271 58q92 0 169 84v240q-76 85 -169 85q-64 0 -98 -54t-34 -151
t34 -150.5t98 -53.5zM301 599q-67 0 -104.5 28.5t-37.5 78.5h59q0 -53 83 -53q84 0 84 53h60q0 -50 -38 -78.5t-106 -28.5z" />
    <glyph glyph-name="Gdotaccent" unicode="&#x120;" horiz-adv-x="700" 
d="M547 0v83q-107 -94 -216 -94q-116 0 -193 91t-77 270t78.5 270t198.5 91q126 0 280 -109l-46 -63q-98 63 -150 80q-42 14 -78 14q-87 0 -140.5 -75.5t-53.5 -207.5t53 -209t141 -77q87 0 203 101v145h-193v72h276v-382h-83zM304 760v93h83v-93h-83z" />
    <glyph glyph-name="gdotaccent" unicode="&#x121;" horiz-adv-x="604" 
d="M440 525h83v-555q0 -184 -200 -184q-110 0 -245 38l18 69q133 -39 216 -39q65 0 96.5 26.5t31.5 86.5v101q-85 -79 -185 -79q-89 0 -144.5 67.5t-55.5 205.5t55.5 206t144.5 68q97 0 185 -79v68zM271 58q92 0 169 84v240q-76 85 -169 85q-64 0 -98 -54t-34 -151
t34 -150.5t98 -53.5zM259 609v93h83v-93h-83z" />
    <glyph glyph-name="Gcommaaccent" unicode="&#x122;" horiz-adv-x="700" 
d="M547 0v83q-107 -94 -216 -94q-116 0 -193 91t-77 270t78.5 270t198.5 91q126 0 280 -109l-46 -63q-98 63 -150 80q-42 14 -78 14q-87 0 -140.5 -75.5t-53.5 -207.5t53 -209t141 -77q87 0 203 101v145h-193v72h276v-382h-83zM325 -160v97h80l9 -101l-71 -108l-24 26l43 86
h-37z" />
    <glyph glyph-name="gcommaaccent" unicode="&#x123;" horiz-adv-x="604" 
d="M440 525h83v-555q0 -184 -200 -184q-110 0 -245 38l18 69q133 -39 216 -39q65 0 96.5 26.5t31.5 86.5v101q-85 -79 -185 -79q-89 0 -144.5 67.5t-55.5 205.5t55.5 206t144.5 68q97 0 185 -79v68zM271 58q92 0 169 84v240q-76 85 -169 85q-64 0 -98 -54t-34 -151
t34 -150.5t98 -53.5zM342 706v-97h-80l-9 101l71 108l24 -26l-43 -86h37z" />
    <glyph glyph-name="Hbar" unicode="&#x126;" horiz-adv-x="723" 
d="M25 520v55h76v125h87v-125h349v125h86v-125h75v-55h-75v-520h-86v330h-349v-330h-87v520h-76zM188 404h349v116h-349v-116z" />
    <glyph glyph-name="hbar" unicode="&#x127;" horiz-adv-x="607" 
d="M164 729v-79h170v-56h-170v-143q41 31 99 58t117 27q150 0 150 -162v-374h-83v359q0 109 -91 109q-49 0 -103.5 -28t-88.5 -58v-382h-83v594h-65v56h65v79h83z" />
    <glyph glyph-name="Itilde" unicode="&#x128;" horiz-adv-x="280" 
d="M183 0h-87v700h87v-700zM27 760l-45 20q22 42 42 63t51 21q27 0 69.5 -24.5t56.5 -24.5q25 0 50 46l45 -19q-20 -42 -40.5 -63.5t-52.5 -21.5q-27 0 -69.5 24.5t-56.5 24.5q-25 0 -50 -46z" />
    <glyph glyph-name="itilde" unicode="&#x129;" horiz-adv-x="251" 
d="M167 0h-83v525h83v-525zM13 609l-45 20q22 42 42 63t51 21q27 0 69.5 -24.5t56.5 -24.5q25 0 50 46l45 -19q-20 -42 -40.5 -63.5t-52.5 -21.5q-27 0 -69.5 24.5t-56.5 24.5q-25 0 -50 -46z" />
    <glyph glyph-name="Imacron" unicode="&#x12a;" horiz-adv-x="280" 
d="M183 0h-87v700h87v-700zM-6 775v55h292v-55h-292z" />
    <glyph glyph-name="imacron" unicode="&#x12b;" horiz-adv-x="252" 
d="M167 0h-83v525h83v-525zM-20 624v55h292v-55h-292z" />
    <glyph glyph-name="Ibreve" unicode="&#x12c;" horiz-adv-x="279" 
d="M182 0h-87v700h87v-700zM138 750q-67 0 -104.5 28.5t-37.5 78.5h59q0 -53 83 -53q84 0 84 53h60q0 -50 -38 -78.5t-106 -28.5z" />
    <glyph glyph-name="ibreve" unicode="&#x12d;" horiz-adv-x="248" 
d="M165 0h-83v525h83v-525zM123 599q-67 0 -104.5 28.5t-37.5 78.5h59q0 -53 83 -53q84 0 84 53h60q0 -50 -38 -78.5t-106 -28.5z" />
    <glyph glyph-name="Iogonek" unicode="&#x12e;" horiz-adv-x="277" 
d="M81 -96q0 -7 1.5 -12.5t5.5 -9t7.5 -6.5t9.5 -4.5t10.5 -2.5t12 -1.5t11 -0.5h11.5h10l-10 -50q-134 0 -134 78q0 57 99 105h-19v700h87v-700h-4q-64 -37 -82 -58q-16 -19 -16 -38z" />
    <glyph glyph-name="iogonek" unicode="&#x12f;" horiz-adv-x="247" 
d="M65 -96q0 -7 1.5 -12.5t5.5 -9t7.5 -6.5t9.5 -4.5t10.5 -2.5t12 -1.5t11 -0.5h11.5h10l-10 -50q-134 0 -134 78q0 57 99 105h-16v525h83v-525h-3q-64 -37 -82 -58q-16 -19 -16 -38zM79 629v97h92v-97h-92z" />
    <glyph glyph-name="Idotaccent" unicode="&#x130;" horiz-adv-x="276" 
d="M181 0h-87v700h87v-700zM96 760v93h83v-93h-83z" />
    <glyph glyph-name="dotlessi" unicode="&#x131;" horiz-adv-x="245" 
d="M164 0h-83v525h83v-525z" />
    <glyph glyph-name="IJ" unicode="&#x132;" horiz-adv-x="555" 
d="M181 0h-87v700h87v-700zM460 700v-655q0 -26 -0.5 -38t-2.5 -31.5t-6 -28.5t-12.5 -22.5t-21 -21t-31 -17.5t-43 -17.5t-57.5 -16.5l-30 67q47 15 69 24t34 24.5t13.5 28.5t1.5 46v658h86z" />
    <glyph glyph-name="ij" unicode="&#x133;" horiz-adv-x="493" 
d="M163 0h-83v525h83v-525zM77 629v97h92v-97h-92zM325 629v97h92v-97h-92zM413 525v-545q0 -30 -0.5 -43.5t-3.5 -34.5t-9.5 -30.5t-18.5 -23.5t-31 -22.5t-46 -18.5t-64 -20l-28 63q31 10 49.5 16.5t33 16t21 15t10 20t4 24.5t0.5 34v549h83z" />
    <glyph glyph-name="Jcircumflex" unicode="&#x134;" horiz-adv-x="279" 
d="M183 700v-655q0 -26 -0.5 -38t-2.5 -31.5t-6 -28.5t-12.5 -22.5t-21 -21t-31 -17.5t-43 -17.5t-57.5 -16.5l-30 67q47 15 69 24t34 24.5t13.5 28.5t1.5 46v658h86zM187 880l100 -130h-62l-85 85l-85 -85h-62l99 130h95z" />
    <glyph glyph-name="jcircumflex" unicode="&#x135;" horiz-adv-x="250" 
d="M167 525v-545q0 -30 -0.5 -43.5t-3.5 -34.5t-9.5 -30.5t-18.5 -23.5t-31 -22.5t-46 -18.5t-64 -20l-28 63q31 10 49.5 16.5t33 16t21 15t10 20t4 24.5t0.5 34v549h83zM172 729l100 -130h-62l-85 85l-85 -85h-62l99 130h95z" />
    <glyph glyph-name="Kcommaaccent" unicode="&#x136;" horiz-adv-x="654" 
d="M94 0v700h87v-393l327 393h104l-286 -335l316 -365h-105l-262 305l-94 -110v-195h-87zM285 -160v97h80l9 -101l-71 -108l-24 26l43 86h-37z" />
    <glyph glyph-name="kcommaaccent" unicode="&#x137;" horiz-adv-x="528" 
d="M479 525l-177 -212l210 -313h-90l-170 254l-88 -106v-148h-83v729h83v-481l220 277h95zM233 -160v97h80l9 -101l-71 -108l-24 26l43 86h-37z" />
    <glyph glyph-name="kgreenlandic" unicode="&#x138;" horiz-adv-x="528" 
d="M479 525l-177 -212l210 -313h-90l-170 254l-88 -106v-148h-83v525h83v-277l220 277h95z" />
    <glyph glyph-name="Lacute" unicode="&#x139;" horiz-adv-x="551" 
d="M527 0h-433v700h87v-625h346v-75zM129 750h-69l122 130h114z" />
    <glyph glyph-name="lacute" unicode="&#x13a;" horiz-adv-x="258" 
d="M169 0h-82v729h82v-729zM119 780h-69l122 130h114z" />
    <glyph glyph-name="Lcommaaccent" unicode="&#x13b;" horiz-adv-x="550" 
d="M527 0h-433v700h87v-625h346v-75zM268 -160v97h80l9 -101l-71 -108l-24 26l43 86h-37z" />
    <glyph glyph-name="lcommaaccent" unicode="&#x13c;" horiz-adv-x="256" 
d="M170 0h-82v729h82v-729zM90 -160v97h80l9 -101l-71 -108l-24 26l43 86h-37z" />
    <glyph glyph-name="Lcaron" unicode="&#x13d;" horiz-adv-x="550" 
d="M527 0h-433v700h87v-625h346v-75zM241 603v97h80l9 -101l-71 -108l-24 26l43 86h-37z" />
    <glyph glyph-name="lcaron" unicode="&#x13e;" horiz-adv-x="282" 
d="M168 0h-82v729h82v-729zM228 632v97h80l9 -101l-71 -108l-24 26l43 86h-37z" />
    <glyph glyph-name="Ldot" unicode="&#x13f;" horiz-adv-x="552" 
d="M527 0h-433v700h87v-625h346v-75zM383 317v93h83v-93h-83z" />
    <glyph glyph-name="ldot" unicode="&#x140;" horiz-adv-x="293" 
d="M168 0h-82v729h82v-729zM228 317v93h83v-93h-83z" />
    <glyph glyph-name="Lslash" unicode="&#x141;" horiz-adv-x="556" 
d="M534 0h-433v269l-73 -40v83l73 40v348h87v-300l136 75v-82l-136 -76v-242h346v-75z" />
    <glyph glyph-name="lslash" unicode="&#x142;" horiz-adv-x="275" 
d="M179 0h-82v300l-69 -38v83l69 38v346h82v-301l68 38v-82l-68 -38v-346z" />
    <glyph glyph-name="Nacute" unicode="&#x143;" horiz-adv-x="727" 
d="M543 0l-362 572v-572h-87v700h89l363 -573v573h86v-700h-89zM360 750h-69l122 130h114z" />
    <glyph glyph-name="nacute" unicode="&#x144;" 
d="M164 525v-74q41 31 99 58t117 27q150 0 150 -162v-374h-83v359q0 109 -91 109q-49 0 -103.5 -28t-88.5 -58v-382h-83v525h83zM295 599h-69l122 130h114z" />
    <glyph glyph-name="Ncommaaccent" unicode="&#x145;" horiz-adv-x="727" 
d="M543 0l-362 572v-572h-87v700h89l363 -573v573h86v-700h-89zM329 -160v97h80l9 -101l-71 -108l-24 26l43 86h-37z" />
    <glyph glyph-name="ncommaaccent" unicode="&#x146;" 
d="M164 525v-74q41 31 99 58t117 27q150 0 150 -162v-374h-83v359q0 109 -91 109q-49 0 -103.5 -28t-88.5 -58v-382h-83v525h83zM265 -160v97h80l9 -101l-71 -108l-24 26l43 86h-37z" />
    <glyph glyph-name="Ncaron" unicode="&#x147;" horiz-adv-x="727" 
d="M543 0l-362 572v-572h-87v700h89l363 -573v573h86v-700h-89zM516 880l-100 -130h-95l-99 130h62l85 -86l85 86h62z" />
    <glyph glyph-name="ncaron" unicode="&#x148;" 
d="M164 525v-74q41 31 99 58t117 27q150 0 150 -162v-374h-83v359q0 109 -91 109q-49 0 -103.5 -28t-88.5 -58v-382h-83v525h83zM450 729l-100 -130h-95l-99 130h62l85 -86l85 86h62z" />
    <glyph glyph-name="napostrophe" unicode="&#x149;" 
d="M164 525v-74q41 31 99 58t117 27q150 0 150 -162v-374h-83v359q0 109 -91 109q-49 0 -103.5 -28t-88.5 -58v-382h-83v525h83zM81 687v97h80l9 -101l-71 -108l-24 26l43 86h-37z" />
    <glyph glyph-name="Eng" unicode="&#x14a;" horiz-adv-x="728" 
d="M632 700v-664q0 -31 -1 -47t-6.5 -36.5t-16 -31.5t-30 -24.5t-48 -23.5t-71.5 -21l-30 67q69 21 90 35.5t25 43.5l-363 574v-572h-87v700h89l363 -573v573h86z" />
    <glyph glyph-name="eng" unicode="&#x14b;" 
d="M530 374v-395q0 -26 -0.5 -38t-2.5 -31.5t-6 -28t-12.5 -22.5t-21 -21t-30.5 -17t-42.5 -17.5t-57.5 -16.5l-28 63q32 11 50 17t33 15.5t20.5 15t9.5 19.5t4.5 24.5t0.5 34.5v383q0 109 -91 109q-49 0 -103.5 -28t-88.5 -58v-382h-83v525h83v-74q41 31 99 58t117 27
q150 0 150 -162z" />
    <glyph glyph-name="Omacron" unicode="&#x14c;" horiz-adv-x="738" 
d="M368 711q108 0 179 -50t100 -128.5t29 -182.5q0 -77 -17 -140.5t-52.5 -114t-96.5 -78.5t-142 -28t-141.5 28t-96 78.5t-52.5 114t-17 140.5t17 140.5t52.5 114t96 78.5t141.5 28zM368 64q116 0 167.5 77.5t51.5 208.5t-51.5 208.5t-167.5 77.5q-115 0 -166.5 -78
t-51.5 -208t51.5 -208t166.5 -78zM222 775v55h292v-55h-292z" />
    <glyph glyph-name="omacron" unicode="&#x14d;" horiz-adv-x="603" 
d="M549 262q0 -129 -64 -201t-183 -72q-120 0 -184 72t-64 201t64.5 201.5t183.5 72.5t183 -72.5t64 -201.5zM464 262q0 98 -39.5 152.5t-122.5 54.5t-123 -54.5t-40 -152.5q0 -206 163 -206q162 0 162 206zM156 624v55h292v-55h-292z" />
    <glyph glyph-name="Obreve" unicode="&#x14e;" horiz-adv-x="738" 
d="M368 711q108 0 179 -50t100 -128.5t29 -182.5q0 -77 -17 -140.5t-52.5 -114t-96.5 -78.5t-142 -28t-141.5 28t-96 78.5t-52.5 114t-17 140.5t17 140.5t52.5 114t96 78.5t141.5 28zM368 64q116 0 167.5 77.5t51.5 208.5t-51.5 208.5t-167.5 77.5q-115 0 -166.5 -78
t-51.5 -208t51.5 -208t166.5 -78zM367 750q-67 0 -104.5 28.5t-37.5 78.5h59q0 -53 83 -53q84 0 84 53h60q0 -50 -38 -78.5t-106 -28.5z" />
    <glyph glyph-name="obreve" unicode="&#x14f;" horiz-adv-x="603" 
d="M549 262q0 -129 -64 -201t-183 -72q-120 0 -184 72t-64 201t64.5 201.5t183.5 72.5t183 -72.5t64 -201.5zM464 262q0 98 -39.5 152.5t-122.5 54.5t-123 -54.5t-40 -152.5q0 -206 163 -206q162 0 162 206zM301 599q-67 0 -104.5 28.5t-37.5 78.5h59q0 -53 83 -53
q84 0 84 53h60q0 -50 -38 -78.5t-106 -28.5z" />
    <glyph glyph-name="Ohungarumlaut" unicode="&#x150;" horiz-adv-x="738" 
d="M368 711q108 0 179 -50t100 -128.5t29 -182.5q0 -77 -17 -140.5t-52.5 -114t-96.5 -78.5t-142 -28t-141.5 28t-96 78.5t-52.5 114t-17 140.5t17 140.5t52.5 114t96 78.5t141.5 28zM368 64q116 0 167.5 77.5t51.5 208.5t-51.5 208.5t-167.5 77.5q-115 0 -166.5 -78
t-51.5 -208t51.5 -208t166.5 -78zM453 750h-52l77 130h97zM302 750h-53l79 130h95z" />
    <glyph glyph-name="ohungarumlaut" unicode="&#x151;" horiz-adv-x="603" 
d="M549 262q0 -129 -64 -201t-183 -72q-120 0 -184 72t-64 201t64.5 201.5t183.5 72.5t183 -72.5t64 -201.5zM464 262q0 98 -39.5 152.5t-122.5 54.5t-123 -54.5t-40 -152.5q0 -206 163 -206q162 0 162 206zM384 599h-52l77 130h97zM233 599h-53l79 130h95z" />
    <glyph glyph-name="OE" unicode="&#x152;" horiz-adv-x="1089" 
d="M1039 0h-450v75q-78 -86 -221 -86q-81 0 -141.5 28t-96 78.5t-52.5 114t-17 140.5t17 140.5t52.5 114t96 78.5t141.5 28q143 0 221 -86v75h444v-75h-357v-238h295v-74h-295v-238h363v-75zM368 64q116 0 167.5 77.5t51.5 208.5t-51.5 208.5t-167.5 77.5q-115 0 -166.5 -78
t-51.5 -208t51.5 -208t166.5 -78z" />
    <glyph glyph-name="oe" unicode="&#x153;" horiz-adv-x="986" 
d="M925 241h-375q5 -86 46 -136t105 -50q76 0 196 71l38 -55q-40 -24 -63 -36t-76 -29t-100 -17q-126 0 -189 102q-62 -102 -205 -102q-120 0 -184 72t-64 201t64.5 201.5t183.5 72.5q141 0 206 -104q66 104 201 104q107 0 165 -62.5t58 -164.5q0 -17 -2 -34t-4 -25z
M464 262q0 98 -39.5 152.5t-122.5 54.5t-123 -54.5t-40 -152.5q0 -206 163 -206q162 0 162 206zM708 472q-68 0 -109 -47t-48 -130h298q4 177 -141 177z" />
    <glyph glyph-name="Racute" unicode="&#x154;" horiz-adv-x="683" 
d="M533 0l-181 297h-171v-297h-87v700h272q262 0 262 -202q0 -172 -190 -197l191 -301h-96zM540 498q0 131 -172 131h-187v-261h182q177 0 177 130zM353 750h-69l122 130h114z" />
    <glyph glyph-name="racute" unicode="&#x155;" horiz-adv-x="387" 
d="M164 525v-112q5 12 15.5 28t33.5 40.5t62.5 38.5t87.5 11v-79q-50 0 -89 -17t-59 -41t-32.5 -48.5t-15.5 -41.5l-3 -17v-287h-83v525h83zM213 599h-69l122 130h114z" />
    <glyph glyph-name="Rcommaaccent" unicode="&#x156;" horiz-adv-x="683" 
d="M533 0l-181 297h-171v-297h-87v700h272q262 0 262 -202q0 -172 -190 -197l191 -301h-96zM540 498q0 131 -172 131h-187v-261h182q177 0 177 130zM300 -160v97h80l9 -101l-71 -108l-24 26l43 86h-37z" />
    <glyph glyph-name="rcommaaccent" unicode="&#x157;" horiz-adv-x="388" 
d="M165 525v-112q5 12 15.5 28t33.5 40.5t62.5 38.5t87.5 11v-79q-50 0 -89 -17t-59 -41t-32.5 -48.5t-15.5 -41.5l-3 -17v-287h-83v525h83zM84 -160v97h80l9 -101l-71 -108l-24 26l43 86h-37z" />
    <glyph glyph-name="Rcaron" unicode="&#x158;" horiz-adv-x="683" 
d="M533 0l-181 297h-171v-297h-87v700h272q262 0 262 -202q0 -172 -190 -197l191 -301h-96zM540 498q0 131 -172 131h-187v-261h182q177 0 177 130zM509 880l-100 -130h-95l-99 130h62l85 -86l85 86h62z" />
    <glyph glyph-name="rcaron" unicode="&#x159;" horiz-adv-x="387" 
d="M164 525v-112q5 12 15.5 28t33.5 40.5t62.5 38.5t87.5 11v-79q-50 0 -89 -17t-59 -41t-32.5 -48.5t-15.5 -41.5l-3 -17v-287h-83v525h83zM369 729l-100 -130h-95l-99 130h62l85 -86l85 86h62z" />
    <glyph glyph-name="Sacute" unicode="&#x15a;" horiz-adv-x="604" 
d="M343 394q47 -16 77.5 -29.5t68 -38.5t56.5 -61.5t19 -83.5q0 -91 -68.5 -141.5t-168.5 -50.5q-73 0 -149 25.5t-133 59.5l40 64q133 -75 242 -75q62 0 105 29t43 83q0 64 -81 105q-33 16 -132 50q-44 14 -73 27t-62 35.5t-50 56t-17 76.5q0 86 63.5 136t161.5 50
q61 0 130 -19t121 -47l-40 -64q-46 24 -105 40t-103 16q-59 0 -98.5 -27t-39.5 -80q0 -15 4.5 -28.5t10 -23t19.5 -19t22.5 -15t29.5 -14t31.5 -12t37.5 -12t38 -12.5zM294 750h-69l122 130h114z" />
    <glyph glyph-name="sacute" unicode="&#x15b;" horiz-adv-x="512" 
d="M280 301q93 -25 141.5 -63t48.5 -103q0 -71 -54.5 -108.5t-136.5 -37.5q-119 0 -234 64l37 61q110 -58 193 -58q46 0 79 20t33 56q0 54 -91 84q-18 6 -53 16l-12 3q-37 10 -62.5 20t-54 28t-43.5 45.5t-15 63.5q0 67 50.5 105.5t133.5 38.5q99 0 207 -53l-36 -58
q-94 44 -169 44q-46 0 -75 -19.5t-29 -53.5q0 -21 11.5 -37t34.5 -27t39.5 -16t44.5 -12zM248 599h-69l122 130h114z" />
    <glyph glyph-name="Scircumflex" unicode="&#x15c;" horiz-adv-x="604" 
d="M343 394q47 -16 77.5 -29.5t68 -38.5t56.5 -61.5t19 -83.5q0 -91 -68.5 -141.5t-168.5 -50.5q-73 0 -149 25.5t-133 59.5l40 64q133 -75 242 -75q62 0 105 29t43 83q0 64 -81 105q-33 16 -132 50q-44 14 -73 27t-62 35.5t-50 56t-17 76.5q0 86 63.5 136t161.5 50
q61 0 130 -19t121 -47l-40 -64q-46 24 -105 40t-103 16q-59 0 -98.5 -27t-39.5 -80q0 -15 4.5 -28.5t10 -23t19.5 -19t22.5 -15t29.5 -14t31.5 -12t37.5 -12t38 -12.5zM351 880l100 -130h-62l-85 85l-85 -85h-62l99 130h95z" />
    <glyph glyph-name="scircumflex" unicode="&#x15d;" horiz-adv-x="512" 
d="M280 301q93 -25 141.5 -63t48.5 -103q0 -71 -54.5 -108.5t-136.5 -37.5q-119 0 -234 64l37 61q110 -58 193 -58q46 0 79 20t33 56q0 54 -91 84q-18 6 -53 16l-12 3q-37 10 -62.5 20t-54 28t-43.5 45.5t-15 63.5q0 67 50.5 105.5t133.5 38.5q99 0 207 -53l-36 -58
q-94 44 -169 44q-46 0 -75 -19.5t-29 -53.5q0 -21 11.5 -37t34.5 -27t39.5 -16t44.5 -12zM305 729l100 -130h-62l-85 85l-85 -85h-62l99 130h95z" />
    <glyph glyph-name="Scedilla" unicode="&#x15e;" horiz-adv-x="604" 
d="M207 -153l21 50q29 -14 51 -14q56 0 56 46q0 27 -22 61q-70 2 -142.5 26.5t-125.5 57.5l40 64q133 -75 242 -75q62 0 105 29t43 83q0 64 -81 105q-33 16 -132 50q-44 14 -73 27t-62 35.5t-50 56t-17 76.5q0 86 63.5 136t161.5 50q61 0 130 -19t121 -47l-40 -64
q-46 24 -105 40t-103 16q-59 0 -98.5 -27t-39.5 -80q0 -15 4.5 -28.5t10 -23t19.5 -19t22.5 -15t29.5 -14t31.5 -12t37.5 -12t38 -12.5q47 -16 77.5 -29.5t68 -38.5t56.5 -61.5t19 -83.5q0 -84 -59 -133.5t-148 -57.5q30 -38 30 -79q0 -39 -28 -61t-73 -22q-41 0 -79 19z
" />
    <glyph glyph-name="scedilla" unicode="&#x15f;" horiz-adv-x="512" 
d="M155 -153l21 50q29 -14 51 -14q56 0 56 46q0 27 -22 61q-113 5 -216 63l37 61q110 -58 193 -58q46 0 79 20t33 56q0 54 -91 84q-18 6 -53 16l-12 3q-37 10 -62.5 20t-54 28t-43.5 45.5t-15 63.5q0 67 50.5 105.5t133.5 38.5q99 0 207 -53l-36 -58q-94 44 -169 44
q-46 0 -75 -19.5t-29 -53.5q0 -21 11.5 -37t34.5 -27t39.5 -16t44.5 -12l12 -3q93 -25 141.5 -63t48.5 -103t-46.5 -102t-118.5 -43q30 -38 30 -79q0 -39 -28 -61t-73 -22q-41 0 -79 19z" />
    <glyph glyph-name="Scaron" unicode="&#x160;" horiz-adv-x="604" 
d="M343 394q47 -16 77.5 -29.5t68 -38.5t56.5 -61.5t19 -83.5q0 -91 -68.5 -141.5t-168.5 -50.5q-73 0 -149 25.5t-133 59.5l40 64q133 -75 242 -75q62 0 105 29t43 83q0 64 -81 105q-33 16 -132 50q-44 14 -73 27t-62 35.5t-50 56t-17 76.5q0 86 63.5 136t161.5 50
q61 0 130 -19t121 -47l-40 -64q-46 24 -105 40t-103 16q-59 0 -98.5 -27t-39.5 -80q0 -15 4.5 -28.5t10 -23t19.5 -19t22.5 -15t29.5 -14t31.5 -12t37.5 -12t38 -12.5zM451 880l-100 -130h-95l-99 130h62l85 -86l85 86h62z" />
    <glyph glyph-name="scaron" unicode="&#x161;" horiz-adv-x="512" 
d="M405 729l-100 -130h-95l-99 130h62l85 -86l85 86h62zM280 301q93 -25 141.5 -63t48.5 -103q0 -71 -54.5 -108.5t-136.5 -37.5q-119 0 -234 64l37 61q110 -58 193 -58q46 0 79 20t33 56q0 54 -91 84q-18 6 -53 16l-12 3q-37 10 -62.5 20t-54 28t-43.5 45.5t-15 63.5
q0 67 50.5 105.5t133.5 38.5q99 0 207 -53l-36 -58q-94 44 -169 44q-46 0 -75 -19.5t-29 -53.5q0 -21 11.5 -37t34.5 -27t39.5 -16t44.5 -12z" />
    <glyph glyph-name="Tcedilla" unicode="&#x162;" horiz-adv-x="570" 
d="M165 -153l21 50q29 -14 51 -14q56 0 56 46q0 32 -29 71h-22v625h-220v75h526v-75h-220v-625h-21q38 -44 38 -89q0 -39 -28 -61t-73 -22q-41 0 -79 19z" />
    <glyph glyph-name="tcedilla" unicode="&#x163;" horiz-adv-x="382" 
d="M96 -153l21 50q29 -14 51 -14q56 0 56 46q0 28 -22 62q-95 10 -95 130v340h-74v64h74v132l81 20v-152h145v-64h-145v-344q0 -55 50 -55q39 0 100 27l31 -63q-63 -30 -123 -36q30 -38 30 -79q0 -39 -28 -61t-73 -22q-41 0 -79 19z" />
    <glyph glyph-name="Tcaron" unicode="&#x164;" horiz-adv-x="570" 
d="M548 625h-220v-625h-86v625h-220v75h526v-75zM432 880l-100 -130h-95l-99 130h62l85 -86l85 86h62z" />
    <glyph glyph-name="tcaron" unicode="&#x165;" horiz-adv-x="383" 
d="M33 461v64h74v132l81 20v-152h145v-64h-145v-344q0 -55 50 -55q39 0 100 27l31 -63q-81 -37 -145 -37q-117 0 -117 132v340h-74zM253 687v97h80l9 -101l-71 -108l-24 26l43 86h-37z" />
    <glyph glyph-name="Tbar" unicode="&#x166;" horiz-adv-x="580" 
d="M553 625h-220v-340h110v-56h-110v-229h-86v229h-110v56h110v340h-220v75h526v-75z" />
    <glyph glyph-name="tbar" unicode="&#x167;" horiz-adv-x="384" 
d="M34 461v64h74v132l81 20v-152h145v-64h-145v-127h114v-55h-114v-162q0 -55 50 -55q39 0 100 27l31 -63q-81 -37 -145 -37q-117 0 -117 132v158h-54v55h54v127h-74z" />
    <glyph glyph-name="Utilde" unicode="&#x168;" horiz-adv-x="700" 
d="M612 700v-444q0 -267 -262 -267q-263 0 -263 267v444h87v-447q0 -43 7.5 -74.5t26 -59t54 -41.5t88.5 -14q100 0 138 50t38 139v447h86zM238 760l-45 20q22 42 42 63t51 21q27 0 69.5 -24.5t56.5 -24.5q25 0 50 46l45 -19q-20 -42 -40.5 -63.5t-52.5 -21.5
q-27 0 -69.5 24.5t-56.5 24.5q-25 0 -50 -46z" />
    <glyph glyph-name="utilde" unicode="&#x169;" 
d="M442 0v73q-113 -84 -217 -84q-149 0 -149 161v375h83v-359q0 -109 91 -109q48 0 103 27.5t89 58.5v382h83v-525h-83zM199 609l-45 20q22 42 42 63t51 21q27 0 69.5 -24.5t56.5 -24.5q25 0 50 46l45 -19q-20 -42 -40.5 -63.5t-52.5 -21.5q-27 0 -69.5 24.5t-56.5 24.5
q-25 0 -50 -46z" />
    <glyph glyph-name="Umacron" unicode="&#x16a;" horiz-adv-x="700" 
d="M612 700v-444q0 -267 -262 -267q-263 0 -263 267v444h87v-447q0 -43 7.5 -74.5t26 -59t54 -41.5t88.5 -14q100 0 138 50t38 139v447h86zM204 775v55h292v-55h-292z" />
    <glyph glyph-name="umacron" unicode="&#x16b;" 
d="M442 0v73q-113 -84 -217 -84q-149 0 -149 161v375h83v-359q0 -109 91 -109q48 0 103 27.5t89 58.5v382h83v-525h-83zM154 624v55h292v-55h-292z" />
    <glyph glyph-name="Ubreve" unicode="&#x16c;" horiz-adv-x="700" 
d="M612 700v-444q0 -267 -262 -267q-263 0 -263 267v444h87v-447q0 -43 7.5 -74.5t26 -59t54 -41.5t88.5 -14q100 0 138 50t38 139v447h86zM349 750q-67 0 -104.5 28.5t-37.5 78.5h59q0 -53 83 -53q84 0 84 53h60q0 -50 -38 -78.5t-106 -28.5z" />
    <glyph glyph-name="ubreve" unicode="&#x16d;" 
d="M442 0v73q-113 -84 -217 -84q-149 0 -149 161v375h83v-359q0 -109 91 -109q48 0 103 27.5t89 58.5v382h83v-525h-83zM299 599q-67 0 -104.5 28.5t-37.5 78.5h59q0 -53 83 -53q84 0 84 53h60q0 -50 -38 -78.5t-106 -28.5z" />
    <glyph glyph-name="Uring" unicode="&#x16e;" horiz-adv-x="700" 
d="M612 700v-444q0 -267 -262 -267q-263 0 -263 267v444h87v-447q0 -43 7.5 -74.5t26 -59t54 -41.5t88.5 -14q100 0 138 50t38 139v447h86zM248 843q0 44 30 74.5t73 30.5t74 -31t31 -74t-30.5 -73t-74.5 -30q-43 0 -73 30t-30 73zM295 843q0 -23 16.5 -39.5t39.5 -16.5
q24 0 40.5 16.5t16.5 39.5q0 24 -16.5 40.5t-40.5 16.5q-23 0 -39.5 -16.5t-16.5 -40.5z" />
    <glyph glyph-name="uring" unicode="&#x16f;" 
d="M442 0v73q-113 -84 -217 -84q-149 0 -149 161v375h83v-359q0 -109 91 -109q48 0 103 27.5t89 58.5v382h83v-525h-83zM197 692q0 44 30 74.5t73 30.5q44 0 74.5 -30.5t30.5 -74.5q0 -43 -30.5 -73t-74.5 -30q-43 0 -73 30t-30 73zM244 692q0 -23 16.5 -39.5t39.5 -16.5
q24 0 40.5 16.5t16.5 39.5q0 24 -16.5 40.5t-40.5 16.5q-23 0 -39.5 -16.5t-16.5 -40.5z" />
    <glyph glyph-name="Uhungarumlaut" unicode="&#x170;" horiz-adv-x="700" 
d="M612 700v-444q0 -267 -262 -267q-263 0 -263 267v444h87v-447q0 -43 7.5 -74.5t26 -59t54 -41.5t88.5 -14q100 0 138 50t38 139v447h86zM433 750h-52l77 130h97zM282 750h-53l79 130h95z" />
    <glyph glyph-name="uhungarumlaut" unicode="&#x171;" 
d="M442 0v73q-113 -84 -217 -84q-149 0 -149 161v375h83v-359q0 -109 91 -109q48 0 103 27.5t89 58.5v382h83v-525h-83zM383 599h-52l77 130h97zM232 599h-53l79 130h95z" />
    <glyph glyph-name="Uogonek" unicode="&#x172;" horiz-adv-x="701" 
d="M348 -96q0 -7 1.5 -12.5t5.5 -9t7.5 -6.5t9.5 -4.5t10.5 -2.5t12 -1.5t11 -0.5h11.5h10l-10 -50q-134 0 -134 78q0 50 78 94h-11q-263 0 -263 267v444h87v-447q0 -43 7.5 -74.5t26 -59t54 -41.5t88.5 -14q100 0 138 50t38 139v447h86v-444q0 -212 -165 -256
q-30 -17 -45 -26t-34.5 -29.5t-19.5 -40.5z" />
    <glyph glyph-name="uogonek" unicode="&#x173;" 
d="M442 0v73q-113 -84 -217 -84q-149 0 -149 161v375h83v-359q0 -109 91 -109q48 0 103 27.5t89 58.5v382h83v-525h-3q-64 -37 -82 -58q-16 -19 -16 -38q0 -7 1.5 -12.5t5.5 -9t7.5 -6.5t9.5 -4.5t10.5 -2.5t12 -1.5t11 -0.5h11.5h10l-10 -50q-134 0 -134 78q0 57 99 105
h-16z" />
    <glyph glyph-name="Wcircumflex" unicode="&#x174;" horiz-adv-x="945" 
d="M624 0l-152 578l-152 -578h-92l-194 700h97l147 -597l154 597h80l154 -596l148 596h96l-194 -700h-92zM519 880l100 -130h-62l-85 85l-85 -85h-62l99 130h95z" />
    <glyph glyph-name="wcircumflex" unicode="&#x175;" horiz-adv-x="818" 
d="M537 0l-128 425l-129 -425h-82l-164 525h88l121 -439l128 439h76l128 -439l121 439h88l-166 -525h-81zM456 729l100 -130h-62l-85 85l-85 -85h-62l99 130h95z" />
    <glyph glyph-name="ycircumflex" unicode="&#x177;" horiz-adv-x="559" 
d="M28 525h90l161 -427l161 427h91l-294 -729h-91l92 207zM327 729l100 -130h-62l-85 85l-85 -85h-62l99 130h95z" />
    <glyph glyph-name="Ydieresis" unicode="&#x178;" horiz-adv-x="633" 
d="M273 0v278l-256 422h98l202 -355l201 355h98l-257 -423v-277h-86zM191 760v93h83v-93h-83zM360 760v93h82v-93h-82z" />
    <glyph glyph-name="Zacute" unicode="&#x179;" horiz-adv-x="613" 
d="M38 69l417 556h-394v75h502v-68l-417 -557h422v-75h-530v69zM303 750h-69l122 130h114z" />
    <glyph glyph-name="zacute" unicode="&#x17a;" horiz-adv-x="513" 
d="M43 0v64l320 391h-310v70h413v-64l-318 -391h318v-70h-423zM245 599h-69l122 130h114z" />
    <glyph glyph-name="Zdotaccent" unicode="&#x17b;" horiz-adv-x="613" 
d="M38 69l417 556h-394v75h502v-68l-417 -557h422v-75h-530v69zM271 759v93h83v-93h-83z" />
    <glyph glyph-name="zdotaccent" unicode="&#x17c;" horiz-adv-x="513" 
d="M43 0v64l320 391h-310v70h413v-64l-318 -391h318v-70h-423zM212 609v93h83v-93h-83z" />
    <glyph glyph-name="Zcaron" unicode="&#x17d;" horiz-adv-x="613" 
d="M38 69l417 556h-394v75h502v-68l-417 -557h422v-75h-530v69zM460 880l-100 -130h-95l-99 130h62l85 -86l85 86h62z" />
    <glyph glyph-name="zcaron" unicode="&#x17e;" horiz-adv-x="513" 
d="M43 0v64l320 391h-310v70h413v-64l-318 -391h318v-70h-423zM402 729l-100 -130h-95l-99 130h62l85 -86l85 86h62z" />
    <glyph glyph-name="longs" unicode="&#x17f;" horiz-adv-x="297" 
d="M32 461v64h74v72q0 132 117 132q66 0 155 -35l-30 -61q-72 24 -111 24q-50 0 -50 -56v-601h-81v461h-74z" />
    <glyph glyph-name="florin" unicode="&#x192;" horiz-adv-x="540" 
d="M122 461l15 64h73l18 74q18 73 49.5 101.5t91.5 28.5q54 0 157 -37l-43 -60q-79 25 -111 24q-48 -2 -61 -56l-18 -75h144l-14 -64h-146l-158 -665h-82l158 665h-73z" />
    <glyph glyph-name="AEacute" unicode="&#x1fc;" horiz-adv-x="1012" 
d="M960 0h-450v171h-293l-114 -171h-102l481 700h472v-75h-357v-238h295v-74h-295v-238h363v-75zM266 244h244v365zM547 750h-69l122 130h114z" />
    <glyph glyph-name="aeacute" unicode="&#x1fd;" horiz-adv-x="922" 
d="M861 241h-375q5 -86 46 -136t105 -50q76 0 196 71l38 -55q-40 -24 -63 -36t-76 -29t-100 -17q-128 0 -190 104q-99 -104 -219 -104q-72 0 -124 42t-52 126t52 127.5t130 43.5q49 0 173 -31q4 42 15 78q-2 49 -26.5 71.5t-82.5 22.5q-61 0 -195 -44l-30 61q139 50 236 50
q114 0 156 -66q66 66 170 66q107 0 165 -62.5t58 -164.5q0 -17 -2 -34t-4 -25zM243 58q90 0 177 82q-18 53 -19 104q-5 1 -30.5 8t-38.5 10.5t-34.5 7t-37.5 3.5q-67 0 -97.5 -31t-30.5 -81q0 -103 111 -103zM644 472q-68 0 -109 -47t-48 -130h298q4 177 -141 177zM449 599
h-69l122 130h114z" />
    <glyph glyph-name="Oslashacute" unicode="&#x1fe;" horiz-adv-x="734" 
d="M366 711q116 0 191 -59l36 48h71l-66 -88q76 -95 76 -262q0 -77 -17 -140.5t-52.5 -114t-96.5 -78.5t-142 -28q-116 0 -190 58l-35 -47h-70l64 86q-76 95 -76 264q0 77 17 140.5t52.5 114t96 78.5t141.5 28zM148 350q0 -120 41 -192l319 429q-52 49 -142 49
q-115 0 -166.5 -78t-51.5 -208zM366 64q116 0 167.5 77.5t51.5 208.5q0 119 -41 190l-319 -427q52 -49 141 -49zM357 750h-69l122 130h114z" />
    <glyph glyph-name="oslashacute" unicode="&#x1ff;" horiz-adv-x="600" 
d="M547 262q0 -129 -64 -201t-183 -72q-90 0 -149 41l-24 -30h-63l50 64q-62 71 -62 198q0 129 64.5 201.5t183.5 72.5q89 0 148 -42l25 31h62l-50 -64q62 -73 62 -199zM137 262q0 -85 27 -133l239 306q-40 34 -103 34q-83 0 -123 -54.5t-40 -152.5zM462 262q0 83 -28 133
l-238 -306q39 -33 104 -33q162 0 162 206zM289 599h-69l122 130h114z" />
    <glyph glyph-name="Scommaaccent" unicode="&#x218;" horiz-adv-x="604" 
d="M343 394q47 -16 77.5 -29.5t68 -38.5t56.5 -61.5t19 -83.5q0 -91 -68.5 -141.5t-168.5 -50.5q-73 0 -149 25.5t-133 59.5l40 64q133 -75 242 -75q62 0 105 29t43 83q0 64 -81 105q-33 16 -132 50q-44 14 -73 27t-62 35.5t-50 56t-17 76.5q0 86 63.5 136t161.5 50
q61 0 130 -19t121 -47l-40 -64q-46 24 -105 40t-103 16q-59 0 -98.5 -27t-39.5 -80q0 -15 4.5 -28.5t10 -23t19.5 -19t22.5 -15t29.5 -14t31.5 -12t37.5 -12t38 -12.5zM267 -160v97h80l9 -101l-71 -108l-24 26l43 86h-37z" />
    <glyph glyph-name="scommaaccent" unicode="&#x219;" horiz-adv-x="512" 
d="M280 301q93 -25 141.5 -63t48.5 -103q0 -71 -54.5 -108.5t-136.5 -37.5q-119 0 -234 64l37 61q110 -58 193 -58q46 0 79 20t33 56q0 54 -91 84q-18 6 -53 16l-12 3q-37 10 -62.5 20t-54 28t-43.5 45.5t-15 63.5q0 67 50.5 105.5t133.5 38.5q99 0 207 -53l-36 -58
q-94 44 -169 44q-46 0 -75 -19.5t-29 -53.5q0 -21 11.5 -37t34.5 -27t39.5 -16t44.5 -12zM216 -160v97h80l9 -101l-71 -108l-24 26l43 86h-37z" />
    <glyph glyph-name="uni021a" unicode="&#x21a;" horiz-adv-x="570" 
d="M548 625h-220v-625h-86v625h-220v75h526v-75zM245 -160v97h80l9 -101l-71 -108l-24 26l43 86h-37z" />
    <glyph glyph-name="uni021b" unicode="&#x21b;" horiz-adv-x="383" 
d="M33 461v64h74v132l81 20v-152h145v-64h-145v-344q0 -55 50 -55q39 0 100 27l31 -63q-81 -37 -145 -37q-117 0 -117 132v340h-74zM136 -160v97h80l9 -101l-71 -108l-24 26l43 86h-37z" />
    <glyph glyph-name="hsuperior" unicode="&#x2b0;" horiz-adv-x="393" 
d="M115 822v-165q68 50 135 50q94 0 94 -99v-223h-63v211q0 60 -53 60q-29 0 -61 -15t-52 -32v-224h-63v437h63z" />
    <glyph glyph-name="jsuperior" unicode="&#x2b2;" horiz-adv-x="168" 
d="M50 757v64h70v-64h-70zM117 700v-320q0 -27 -1 -38.5t-6.5 -27.5t-18 -24t-34.5 -17.5t-57 -17.5l-20 46q54 17 64 28t10 47v324h63z" />
    <glyph glyph-name="wsuperior" unicode="&#x2b7;" horiz-adv-x="527" 
d="M340 385l-76 242l-77 -242h-61l-104 315h68l69 -253l76 253h57l75 -253l70 253h68l-103 -315h-62z" />
    <glyph glyph-name="ysuperior" unicode="&#x2b8;" horiz-adv-x="364" 
d="M19 700h69l94 -240l95 240h69l-184 -437h-69l56 124z" />
    <glyph glyph-name="circumflex" unicode="&#x2c6;" horiz-adv-x="270" 
d="M182 729l100 -130h-62l-85 85l-85 -85h-62l99 130h95z" />
    <glyph glyph-name="caron" unicode="&#x2c7;" horiz-adv-x="270" 
d="M282 729l-100 -130h-95l-99 130h62l85 -86l85 86h62z" />
    <glyph glyph-name="breve" unicode="&#x2d8;" horiz-adv-x="266" 
d="M132 599q-67 0 -104.5 28.5t-37.5 78.5h59q0 -53 83 -53q84 0 84 53h60q0 -50 -38 -78.5t-106 -28.5z" />
    <glyph glyph-name="dotaccent" unicode="&#x2d9;" horiz-adv-x="73" 
d="M-5 609v93h83v-93h-83z" />
    <glyph glyph-name="ring" unicode="&#x2da;" horiz-adv-x="202" 
d="M-3 692q0 44 30 74.5t73 30.5q44 0 74.5 -30.5t30.5 -74.5q0 -43 -30.5 -73t-74.5 -30q-43 0 -73 30t-30 73zM44 692q0 -23 16.5 -39.5t39.5 -16.5q24 0 40.5 16.5t16.5 39.5q0 24 -16.5 40.5t-40.5 16.5q-23 0 -39.5 -16.5t-16.5 -40.5z" />
    <glyph glyph-name="ogonek" unicode="&#x2db;" horiz-adv-x="155" 
d="M55 -96q0 -7 1.5 -12.5t5.5 -9t7.5 -6.5t9.5 -4.5t10.5 -2.5t12 -1.5t11 -0.5h11.5h10l-10 -50q-134 0 -134 78q0 64 124 116l41 -10q-2 -1 -12 -7t-13.5 -8t-13 -7.5t-13.5 -8.5t-12 -9.5t-12 -10.5t-9.5 -10t-8 -11.5t-4.5 -12t-2 -12.5z" />
    <glyph glyph-name="tilde" unicode="&#x2dc;" horiz-adv-x="288" 
d="M32 609l-45 20q22 42 42 63t51 21q27 0 69.5 -24.5t56.5 -24.5q25 0 50 46l45 -19q-20 -42 -40.5 -63.5t-52.5 -21.5q-27 0 -69.5 24.5t-56.5 24.5q-25 0 -50 -46z" />
    <glyph glyph-name="hungarumlaut" unicode="&#x2dd;" horiz-adv-x="304" 
d="M193 599h-52l77 130h97zM42 599h-53l79 130h95z" />
    <glyph glyph-name="xsuperior" unicode="&#x2e3;" horiz-adv-x="378" 
d="M288 385l-99 126l-97 -126h-77l136 157l-130 158h75l94 -124l92 124h75l-129 -157l136 -158h-76z" />
    <glyph glyph-name="pi" unicode="&#x3c0;" horiz-adv-x="569" 
d="M535 525v-73h-88v-452h-76v452h-172v-452h-77v452h-88v73h501z" />
    <glyph glyph-name="Wgrave" unicode="&#x1e80;" horiz-adv-x="945" 
d="M624 0l-152 578l-152 -578h-92l-194 700h97l147 -597l154 597h80l154 -596l148 596h96l-194 -700h-92zM551 750h-70l-166 130h112z" />
    <glyph glyph-name="wgrave" unicode="&#x1e81;" horiz-adv-x="818" 
d="M537 0l-128 425l-129 -425h-82l-164 525h88l121 -439l128 439h76l128 -439l121 439h88l-166 -525h-81zM488 599h-70l-166 130h112z" />
    <glyph glyph-name="Wacute" unicode="&#x1e82;" horiz-adv-x="945" 
d="M624 0l-152 578l-152 -578h-92l-194 700h97l147 -597l154 597h80l154 -596l148 596h96l-194 -700h-92zM463 750h-69l122 130h114z" />
    <glyph glyph-name="wacute" unicode="&#x1e83;" horiz-adv-x="818" 
d="M537 0l-128 425l-129 -425h-82l-164 525h88l121 -439l128 439h76l128 -439l121 439h88l-166 -525h-81zM400 599h-69l122 130h114z" />
    <glyph glyph-name="Wdieresis" unicode="&#x1e84;" horiz-adv-x="945" 
d="M624 0l-152 578l-152 -578h-92l-194 700h97l147 -597l154 597h80l154 -596l148 596h96l-194 -700h-92zM347 760v93h83v-93h-83zM516 760v93h82v-93h-82z" />
    <glyph glyph-name="wdieresis" unicode="&#x1e85;" horiz-adv-x="818" 
d="M537 0l-128 425l-129 -425h-82l-164 525h88l121 -439l128 439h76l128 -439l121 439h88l-166 -525h-81zM283 609v93h83v-93h-83zM452 609v93h82v-93h-82z" />
    <glyph glyph-name="uni1E9E" unicode="&#x1e9e;" horiz-adv-x="793" 
d="M350 407l196 218h-216q-70 0 -109.5 -40t-39.5 -138v-447h-87v455q0 127 61.5 186t168.5 59h333v-60l-200 -221q152 -10 224 -74t72 -151q0 -83 -61.5 -144t-179.5 -61q-126 0 -245 69l41 65q99 -60 198 -60q76 0 117 39.5t41 92.5q0 26 -11 50t-37 49t-81 40t-132 15
h-53v58z" />
    <glyph glyph-name="Ygrave" unicode="&#x1ef2;" horiz-adv-x="633" 
d="M273 0v278l-256 422h98l202 -355l201 355h98l-257 -423v-277h-86zM396 750h-70l-166 130h112z" />
    <glyph glyph-name="ygrave" unicode="&#x1ef3;" horiz-adv-x="559" 
d="M28 525h90l161 -427l161 427h91l-294 -729h-91l92 207zM358 599h-70l-166 130h112z" />
    <glyph glyph-name="endash" unicode="&#x2013;" horiz-adv-x="563" 
d="M490 249h-415v71h415v-71z" />
    <glyph glyph-name="emdash" unicode="&#x2014;" horiz-adv-x="669" 
d="M594 249h-519v71h519v-71z" />
    <glyph glyph-name="quoteleft" unicode="&#x2018;" horiz-adv-x="237" 
d="M166 585v-120h-94l-11 127l83 128l28 -32l-50 -103h44z" />
    <glyph glyph-name="quoteright" unicode="&#x2019;" horiz-adv-x="231" 
d="M73 579v120h94l11 -127l-83 -128l-28 32l50 103h-44z" />
    <glyph glyph-name="quotesinglbase" unicode="&#x201a;" horiz-adv-x="250" 
d="M80 0v120h94l11 -127l-83 -128l-28 32l50 103h-44z" />
    <glyph glyph-name="quotedblleft" unicode="&#x201c;" horiz-adv-x="417" 
d="M166 585v-120h-94l-11 127l83 128l28 -32l-50 -103h44zM350 585v-120h-94l-11 127l83 128l28 -32l-50 -103h44z" />
    <glyph glyph-name="quotedblright" unicode="&#x201d;" horiz-adv-x="415" 
d="M73 579v120h94l11 -127l-83 -128l-28 32l50 103h-44zM257 579v120h94l11 -127l-83 -128l-28 32l50 103h-44z" />
    <glyph glyph-name="quotedblbase" unicode="&#x201e;" horiz-adv-x="434" 
d="M80 0v120h94l11 -127l-83 -128l-28 32l50 103h-44zM264 0v120h94l11 -127l-83 -128l-28 32l50 103h-44z" />
    <glyph glyph-name="dagger" unicode="&#x2020;" horiz-adv-x="575" 
d="M29 394v73l224 -10v243h68v-243l224 10v-73l-224 10v-608h-68v608z" />
    <glyph glyph-name="daggerdbl" unicode="&#x2021;" horiz-adv-x="620" 
d="M52 394v73l224 -10v243h67v-243l225 10v-73l-225 10v-209l225 10v-73l-225 10v-346h-67v346l-224 -10v73l224 -10v209z" />
    <glyph glyph-name="bullet" unicode="&#x2022;" horiz-adv-x="434" 
d="M88 284q0 54 37.5 92t91.5 38q53 0 91 -38t38 -92t-37.5 -91t-91.5 -37t-91.5 37t-37.5 91z" />
    <glyph glyph-name="ellipsis" unicode="&#x2026;" horiz-adv-x="653" 
d="M278 0v120h96v-120h-96zM74 0v120h96v-120h-96zM482 0v120h96v-120h-96z" />
    <glyph glyph-name="perthousand" unicode="&#x2030;" horiz-adv-x="1412" 
d="M404 523q0 -90 -49.5 -138.5t-132.5 -48.5q-82 0 -131 48.5t-49 138.5t49 139t131 49q83 0 132.5 -49t49.5 -139zM334 523q0 63 -29.5 97t-82.5 34t-82 -34t-29 -97t29 -96t82 -33q54 0 83 33t29 96zM946 176q0 -90 -49 -138.5t-133 -48.5q-83 0 -131.5 48.5t-48.5 138.5
t48.5 139t131.5 49q84 0 133 -49t49 -139zM876 176q0 63 -29.5 97t-82.5 34q-52 0 -81.5 -34t-29.5 -97q0 -62 29.5 -95.5t81.5 -33.5q54 0 83 33t29 96zM1371 176q0 -90 -49 -138.5t-132 -48.5t-132 48.5t-49 138.5t49 139t132 49t132 -49t49 -139zM1302 176q0 63 -29.5 97
t-82.5 34t-82 -34t-29 -97t29 -96t82 -33t82.5 33.5t29.5 95.5zM713 700l-367 -700h-71l367 700h71z" />
    <glyph glyph-name="guilsinglleft" unicode="&#x2039;" horiz-adv-x="402" 
d="M37 306l305 222v-83l-231 -166l231 -165v-83l-305 221v54z" />
    <glyph glyph-name="guilsinglright" unicode="&#x203a;" horiz-adv-x="402" 
d="M365 253l-305 -222v83l231 166l-231 165v83l305 -221v-54z" />
    <glyph glyph-name="fraction" unicode="&#x2044;" horiz-adv-x="182" 
d="M294 700l-334 -700h-70l334 700h70z" />
    <glyph glyph-name="zerosuperior" unicode="&#x2070;" horiz-adv-x="424" 
d="M213 812q84 0 127.5 -56t43.5 -161q0 -104 -44 -160.5t-128 -56.5t-127.5 56t-43.5 161q0 104 44 160.5t128 56.5zM212 430q106 0 106 165t-105 165t-105 -165t104 -165z" />
    <glyph glyph-name="foursuperior" unicode="&#x2074;" horiz-adv-x="410" 
d="M23 474v47l208 284h87v-277h68v-54h-68v-89h-66v89h-229zM92 528h160v222z" />
    <glyph glyph-name="fivesuperior" unicode="&#x2075;" horiz-adv-x="375" 
d="M48 596l24 209h251v-55h-197l-9 -110q35 14 73 14q70 0 111 -39t41 -96q0 -58 -42 -99.5t-119 -41.5q-73 0 -151 46l30 49q52 -38 113 -38q42 0 71 23t29 60q0 36 -25.5 59.5t-71.5 23.5q-44 0 -91 -25z" />
    <glyph glyph-name="sixsuperior" unicode="&#x2076;" horiz-adv-x="396" 
d="M277 758q-63 0 -109 -39t-59 -109q41 44 115 44q65 0 103.5 -38t38.5 -95q0 -59 -43.5 -101t-115.5 -42q-83 0 -126 53t-43 134q0 106 66.5 176.5t171.5 70.5q16 0 31 -2t23 -4l7 -1l-15 -52q-21 5 -45 5zM209 603q-37 0 -65 -16t-40 -36q1 -57 28.5 -88t73.5 -31
q45 0 69.5 26.5t24.5 61.5q0 34 -23.5 58.5t-67.5 24.5z" />
    <glyph glyph-name="sevensuperior" unicode="&#x2077;" horiz-adv-x="328" 
d="M313 755q-7 -8 -17.5 -21.5t-38.5 -56t-49 -84t-38.5 -99.5t-17.5 -109h-69q0 58 21.5 123t54 119.5t50 80t31.5 42.5h-219v55h292v-50z" />
    <glyph glyph-name="eightsuperior" unicode="&#x2078;" horiz-adv-x="405" 
d="M34 495q0 74 104 117q-77 37 -77 98q0 46 39.5 74t103.5 28t103 -28t39 -74q0 -61 -78 -98q104 -44 104 -117q0 -54 -47 -85.5t-121 -31.5q-76 0 -123 31.5t-47 85.5zM304 499q0 52 -101 88q-102 -36 -102 -88q0 -32 29.5 -51t73.5 -19q43 0 71.5 19t28.5 51zM125 704
q0 -26 21.5 -41.5t56.5 -27.5q78 28 78 69q0 24 -22 41t-55 17q-35 0 -57 -17t-22 -41z" />
    <glyph glyph-name="ninesuperior" unicode="&#x2079;" horiz-adv-x="397" 
d="M120 432q62 0 108 38.5t60 108.5q-46 -43 -115 -43q-65 0 -103 37.5t-38 94.5q0 60 43 102t115 42q82 0 125.5 -53t43.5 -134q0 -106 -66.5 -176.5t-171.5 -70.5q-16 0 -31 2t-22 4l-8 1l17 52q18 -5 43 -5zM188 586q37 0 65.5 17t39.5 37q-2 56 -29.5 87t-72.5 31
t-69.5 -26.5t-24.5 -61.5q0 -34 23.5 -59t67.5 -25z" />
    <glyph glyph-name="plussuperior" unicode="&#x207a;" horiz-adv-x="409" 
d="M179 723h51v-114h134v-48h-134v-114h-51v114h-134v48h134v114z" />
    <glyph glyph-name="parenleftsuperior" unicode="&#x207d;" horiz-adv-x="202" 
d="M47 421v345q0 31 2 45t13.5 30.5t35.5 26.5t67 20l18 -39q-50 -15 -60 -26.5t-10 -46.5v-365q0 -34 10 -45.5t60 -27.5l-18 -39q-43 10 -67 20t-35.5 26.5t-13.5 30.5t-2 45z" />
    <glyph glyph-name="parenrightsuperior" unicode="&#x207e;" horiz-adv-x="202" 
d="M156 766v-345q0 -31 -2 -45t-13.5 -30.5t-35.5 -26.5t-67 -20l-18 39q50 15 60 26.5t10 46.5v365q0 34 -10 45.5t-60 27.5l18 39q43 -10 67 -20t35.5 -26.5t13.5 -30.5t2 -45z" />
    <glyph glyph-name="nsuperior" unicode="&#x207f;" horiz-adv-x="393" 
d="M115 700v-43q68 50 135 50q94 0 94 -99v-223h-63v211q0 60 -53 60q-29 0 -61 -15t-52 -32v-224h-63v315h63z" />
    <glyph glyph-name="zeroinferior" unicode="&#x2080;" horiz-adv-x="424" 
d="M213 277q84 0 127.5 -56t43.5 -161q0 -104 -44 -160.5t-128 -56.5t-127.5 56t-43.5 161q0 104 44 160.5t128 56.5zM212 -105q106 0 106 165t-105 165t-105 -165t104 -165z" />
    <glyph glyph-name="oneinferior" unicode="&#x2081;" horiz-adv-x="245" 
d="M186 -150h-66v357l-78 -39l-28 44l111 58h61v-420z" />
    <glyph glyph-name="twoinferior" unicode="&#x2082;" horiz-adv-x="377" 
d="M339 -95v-55h-307v36q0 31 10.5 56.5t34.5 48t41.5 35t52.5 34.5t52 34t32.5 31t15.5 39q0 26 -21 42t-59 16q-59 0 -116 -39l-31 43q77 51 154 51q65 0 102.5 -30.5t37.5 -80.5q0 -27 -10 -49.5t-34.5 -44t-39 -31t-51.5 -31.5q-9 -5 -13 -8q-43 -26 -62.5 -46.5
t-19.5 -50.5h231z" />
    <glyph glyph-name="threeinferior" unicode="&#x2083;" horiz-adv-x="381" 
d="M23 -110l31 45q65 -37 127 -37q42 0 69 19.5t27 52.5q0 41 -41 60t-93 19h-21v56h24q45 0 78.5 16t33.5 49q0 24 -20 38t-54 14q-53 0 -113 -35l-27 41q62 49 149 49q63 0 97 -29t34 -71q0 -30 -20.5 -55.5t-60.5 -39.5q45 -12 73 -42t28 -70q0 -52 -39.5 -89.5
t-115.5 -37.5q-82 0 -166 47z" />
    <glyph glyph-name="fourinferior" unicode="&#x2084;" horiz-adv-x="410" 
d="M23 -61v47l208 284h87v-277h68v-54h-68v-89h-66v89h-229zM92 -7h160v222z" />
    <glyph glyph-name="fiveinferior" unicode="&#x2085;" horiz-adv-x="375" 
d="M48 61l24 209h251v-55h-197l-9 -110q35 14 73 14q70 0 111 -39t41 -96q0 -58 -42 -99.5t-119 -41.5q-73 0 -151 46l30 49q52 -38 113 -38q42 0 71 23t29 60q0 36 -25.5 59.5t-71.5 23.5q-44 0 -91 -25z" />
    <glyph glyph-name="sixinferior" unicode="&#x2086;" horiz-adv-x="396" 
d="M277 223q-63 0 -109 -39t-59 -109q41 44 115 44q65 0 103.5 -38t38.5 -95q0 -59 -43.5 -101t-115.5 -42q-83 0 -126 53t-43 134q0 106 66.5 176.5t171.5 70.5q16 0 31 -1.5t23 -3.5l7 -2l-15 -52q-21 5 -45 5zM209 68q-37 0 -65 -16t-40 -36q1 -57 28.5 -88t73.5 -31
q45 0 69.5 26.5t24.5 61.5q0 34 -23.5 58.5t-67.5 24.5z" />
    <glyph glyph-name="seveninferior" unicode="&#x2087;" horiz-adv-x="328" 
d="M313 220q-7 -8 -17.5 -21.5t-38.5 -56t-49 -84t-38.5 -99.5t-17.5 -109h-69q0 58 21.5 123t54 119.5t50 80t31.5 42.5h-219v55h292v-50z" />
    <glyph glyph-name="eightinferior" unicode="&#x2088;" horiz-adv-x="405" 
d="M34 -40q0 74 104 117q-77 37 -77 98q0 46 39.5 74t103.5 28t103 -28t39 -74q0 -61 -78 -98q104 -44 104 -117q0 -54 -47 -85.5t-121 -31.5q-76 0 -123 31.5t-47 85.5zM304 -36q0 52 -101 88q-102 -36 -102 -88q0 -32 29.5 -51t73.5 -19q43 0 71.5 19t28.5 51zM125 169
q0 -26 21.5 -41.5t56.5 -27.5q78 28 78 69q0 24 -22 41t-55 17q-35 0 -57 -17t-22 -41z" />
    <glyph glyph-name="nineinferior" unicode="&#x2089;" horiz-adv-x="397" 
d="M120 -103q62 0 108 38.5t60 108.5q-46 -43 -115 -43q-65 0 -103 37.5t-38 94.5q0 60 43 102t115 42q82 0 125.5 -53t43.5 -134q0 -106 -66.5 -176.5t-171.5 -70.5q-16 0 -31 1.5t-22 3.5l-8 2l17 52q18 -5 43 -5zM188 51q37 0 65.5 17t39.5 37q-2 56 -29.5 87t-72.5 31
t-69.5 -26.5t-24.5 -61.5q0 -34 23.5 -59t67.5 -25z" />
    <glyph glyph-name="parenleftinferior" unicode="&#x208d;" horiz-adv-x="202" 
d="M47 -114v345q0 31 2 45t13.5 30.5t35.5 26.5t67 20l18 -39q-50 -15 -60 -26.5t-10 -46.5v-365q0 -34 10 -45.5t60 -27.5l-18 -39q-43 10 -67 20t-35.5 26.5t-13.5 30.5t-2 45z" />
    <glyph glyph-name="parenrightinferior" unicode="&#x208e;" horiz-adv-x="202" 
d="M156 231v-345q0 -31 -2 -45t-13.5 -30.5t-35.5 -26.5t-67 -20l-18 39q50 15 60 26.5t10 46.5v365q0 34 -10 45.5t-60 27.5l18 39q43 -10 67 -20t35.5 -26.5t13.5 -30.5t2 -45z" />
    <glyph glyph-name="colonmonetary" unicode="&#x20a1;" horiz-adv-x="556" 
d="M209 0h-49l24 104q-120 69 -120 247q0 130 66 201.5t161 71.5q2 0 6 -0.5t7 -0.5l18 77h49l-20 -84q20 -5 36 -10l22 94h51l-27 -113q11 -5 72 -39l-39 -61q-3 2 -20 12t-29 16l-84 -362q45 10 133 61l39 -61q-111 -67 -189 -75l-18 -78h-51l18 78q-22 3 -36 8zM149 351
q0 -104 55 -161l83 361q-61 -5 -99.5 -59t-38.5 -141zM246 160q19 -9 35 -10l90 386q-20 8 -36 11z" />
    <glyph glyph-name="lira" unicode="&#x20a4;" horiz-adv-x="556" 
d="M74 327v54h74q-3 6 -14 23t-15 24.5t-12 23.5t-11.5 27.5t-6.5 28t-3 33.5q0 77 53 123.5t143 46.5q93 0 223 -70l-41 -60q-107 56 -172 56q-57 0 -88.5 -31t-31.5 -76q0 -26 8.5 -48t30.5 -57t27 -44h188v-54h-166q7 -28 7 -52q0 -10 -1 -15h160v-53h-170
q-24 -74 -83 -133h321v-74h-431v61q9 7 23 19t44 50t43 77h-99v53h110v9q0 28 -10 58h-100z" />
    <glyph glyph-name="peseta" unicode="&#x20a7;" horiz-adv-x="671" 
d="M68 462v46h31v192h251q246 0 260 -192h27v-46h-27q-15 -190 -260 -190h-164v-272h-87v462h-31zM186 626v-118h335q-13 118 -170 118h-165zM351 345q155 0 170 117h-335v-117h165z" />
    <glyph glyph-name="uni20A9" unicode="&#x20a9;" horiz-adv-x="1019" 
d="M661 0l-152 578l-152 -578h-92l-66 238h-140v57h124l-32 116h-92v57h76l-64 232h97l57 -232h184l60 232h80l60 -232h184l58 232h96l-64 -232h77v-57h-93l-32 -116h125v-57h-141l-66 -238h-92zM623 411l30 -116h97l29 116h-156zM239 411l28 -116h97l30 116h-155zM281 238
l34 -135l35 135h-69zM668 238l35 -134l33 134h-68z" />
    <glyph glyph-name="Euro" unicode="&#x20ac;" horiz-adv-x="708" 
d="M655 608l-45 -62q-40 26 -66 40.5t-70 30.5t-81 16q-67 0 -115.5 -46.5t-67.5 -131.5h284v-53h-292q-2 -34 -2 -52q0 -31 3 -58h291v-53h-282q19 -82 67 -127t114 -45q37 0 81 16t70 30.5t66 40.5l45 -62q-152 -103 -269 -103q-99 0 -171 62.5t-95 187.5h-69v53h62
q-2 36 -2 58q0 35 2 52h-62v53h68q22 127 95 191.5t172 64.5q117 0 269 -103z" />
    <glyph glyph-name="uni2116" unicode="&#x2116;" horiz-adv-x="1133" 
d="M1077 490q0 -98 -47.5 -149.5t-138.5 -51.5t-139 51.5t-48 149.5t48 149.5t139 51.5t138.5 -51.5t47.5 -149.5zM1001 490q0 140 -110 140q-111 0 -111 -140q0 -71 26.5 -106t84.5 -35q110 0 110 141zM738 179v54h305v-54h-305zM545 0l-362 572v-572h-87v700h89l363 -573
v573h86v-700h-89z" />
    <glyph glyph-name="uni2117" unicode="&#x2117;" horiz-adv-x="830" 
d="M592 432q0 -129 -146 -129h-94v-164h-46v421h140q146 0 146 -128zM545 432q0 89 -98 89h-95v-178h95q98 0 98 89zM59 350q0 157 95 259t262 102t261.5 -102t94.5 -259t-94.5 -259t-261.5 -102t-262 102t-95 259zM97 350q0 -142 84.5 -233.5t233.5 -91.5t234 91.5
t85 233.5t-85 233t-234 91t-233.5 -91t-84.5 -233z" />
    <glyph glyph-name="servicemark" unicode="&#x2120;" horiz-adv-x="652" 
d="M529 476v157l-68 -120h-31l-68 120v-157h-46v224h48l81 -140l81 140h49v-224h-46zM199 605q81 -21 81 -67q0 -29 -28 -47.5t-69 -18.5q-54 0 -119 30l22 32q52 -24 95 -24q21 0 36 6.5t15 18.5q0 6 -4 11t-14 9t-18.5 6.5t-25.5 6.5t-26 7q-73 20 -73 64q0 29 24.5 47
t65.5 18q52 0 106 -26l-21 -30q-48 18 -83 18q-45 0 -45 -24q0 -6 3.5 -10.5t12.5 -8t16.5 -5.5t23 -6t25.5 -7z" />
    <glyph glyph-name="trademark" unicode="&#x2122;" horiz-adv-x="653" 
d="M525 476v156l-68 -119h-29l-69 121v-158h-47v224h50l80 -142l81 142h49v-224h-47zM275 662h-82v-186h-46v186h-80v38h208v-38z" />
    <glyph glyph-name="Omega" unicode="&#x2126;" horiz-adv-x="743" 
d="M371 711q157 0 232 -96t75 -257q0 -113 -42.5 -185.5t-95.5 -98.5h117v-74h-233v73q75 27 120.5 97.5t45.5 180.5q0 285 -219 285t-219 -284q0 -111 45.5 -181t120.5 -98v-73h-232v74h114q-51 28 -93.5 99.5t-42.5 184.5q0 161 75 257t232 96z" />
    <glyph glyph-name="onethird" unicode="&#x2153;" horiz-adv-x="828" 
d="M200 280h-66v357l-78 -39l-28 44l111 58h61v-420zM562 700l-334 -700h-70l334 700h70zM458 40l31 45q65 -37 127 -37q42 0 69 19.5t27 52.5q0 41 -41 60t-93 19h-21v56h24q45 0 78.5 16t33.5 49q0 24 -20 38t-54 14q-53 0 -113 -35l-27 41q62 49 149 49q63 0 97 -29
t34 -71q0 -30 -20.5 -55.5t-60.5 -39.5q45 -12 73 -42t28 -70q0 -52 -39.5 -89.5t-115.5 -37.5q-82 0 -166 47z" />
    <glyph glyph-name="twothirds" unicode="&#x2154;" horiz-adv-x="962" 
d="M358 335v-55h-307v36q0 31 10.5 56.5t34.5 48t41.5 35t52.5 34.5t52 34t32.5 31t15.5 39q0 26 -21 42t-59 16q-59 0 -116 -39l-31 43q77 51 154 51q65 0 102.5 -30.5t37.5 -80.5q0 -27 -10 -49.5t-34.5 -44t-39 -31t-51.5 -31.5q-9 -5 -13 -8q-43 -26 -62.5 -46.5
t-19.5 -50.5h231zM698 700l-334 -700h-70l334 700h70zM596 40l31 45q65 -37 127 -37q42 0 69 19.5t27 52.5q0 41 -41 60t-93 19h-21v56h24q45 0 78.5 16t33.5 49q0 24 -20 38t-54 14q-53 0 -113 -35l-27 41q62 49 149 49q63 0 97 -29t34 -71q0 -30 -20.5 -55.5t-60.5 -39.5
q45 -12 73 -42t28 -70q0 -52 -39.5 -89.5t-115.5 -37.5q-82 0 -166 47z" />
    <glyph glyph-name="oneeighth" unicode="&#x215b;" horiz-adv-x="833" 
d="M200 280h-66v357l-78 -39l-28 44l111 58h61v-420zM562 700l-334 -700h-70l334 700h70zM451 110q0 74 104 117q-77 37 -77 98q0 46 39.5 74t103.5 28t103 -28t39 -74q0 -61 -78 -98q104 -44 104 -117q0 -54 -47 -85.5t-121 -31.5q-76 0 -123 31.5t-47 85.5zM721 114
q0 52 -101 88q-102 -36 -102 -88q0 -32 29.5 -51t73.5 -19q43 0 71.5 19t28.5 51zM542 319q0 -26 21.5 -41.5t56.5 -27.5q78 28 78 69q0 24 -22 41t-55 17q-35 0 -57 -17t-22 -41z" />
    <glyph glyph-name="threeeighths" unicode="&#x215c;" horiz-adv-x="948" 
d="M41 320l31 45q65 -37 127 -37q42 0 69 19.5t27 52.5q0 41 -41 60t-93 19h-21v56h24q45 0 78.5 16t33.5 49q0 24 -20 38t-54 14q-53 0 -113 -35l-27 41q62 49 149 49q63 0 97 -29t34 -71q0 -30 -20.5 -55.5t-60.5 -39.5q45 -12 73 -42t28 -70q0 -52 -39.5 -89.5
t-115.5 -37.5q-82 0 -166 47zM675 700l-334 -700h-70l334 700h70zM566 110q0 74 104 117q-77 37 -77 98q0 46 39.5 74t103.5 28t103 -28t39 -74q0 -61 -78 -98q104 -44 104 -117q0 -54 -47 -85.5t-121 -31.5q-76 0 -123 31.5t-47 85.5zM836 114q0 52 -101 88
q-102 -36 -102 -88q0 -32 29.5 -51t73.5 -19q43 0 71.5 19t28.5 51zM657 319q0 -26 21.5 -41.5t56.5 -27.5q78 28 78 69q0 24 -22 41t-55 17q-35 0 -57 -17t-22 -41z" />
    <glyph glyph-name="fiveeighths" unicode="&#x215d;" horiz-adv-x="928" 
d="M65 491l24 209h251v-55h-197l-9 -110q35 14 73 14q70 0 111 -39t41 -96q0 -58 -42 -99.5t-119 -41.5q-73 0 -151 46l30 49q52 -38 113 -38q42 0 71 23t29 60q0 36 -25.5 59.5t-71.5 23.5q-43 0 -91 -25zM658 700l-334 -700h-70l334 700h70zM547 110q0 74 104 117
q-77 37 -77 98q0 46 39.5 74t103.5 28t103 -28t39 -74q0 -61 -78 -98q104 -44 104 -117q0 -54 -47 -85.5t-121 -31.5q-76 0 -123 31.5t-47 85.5zM817 114q0 52 -101 88q-102 -36 -102 -88q0 -32 29.5 -51t73.5 -19q43 0 71.5 19t28.5 51zM638 319q0 -26 21.5 -41.5
t56.5 -27.5q78 28 78 69q0 24 -22 41t-55 17q-35 0 -57 -17t-22 -41z" />
    <glyph glyph-name="seveneighths" unicode="&#x215e;" horiz-adv-x="837" 
d="M326 650q-7 -8 -17.5 -21.5t-38.5 -56t-49 -84t-38.5 -99.5t-17.5 -109h-69q0 58 21.5 123t54 119.5t50 80t31.5 42.5h-219v55h292v-50zM568 700l-334 -700h-70l334 700h70zM456 110q0 74 104 117q-77 37 -77 98q0 46 39.5 74t103.5 28t103 -28t39 -74q0 -61 -78 -98
q104 -44 104 -117q0 -54 -47 -85.5t-121 -31.5q-76 0 -123 31.5t-47 85.5zM726 114q0 52 -101 88q-102 -36 -102 -88q0 -32 29.5 -51t73.5 -19q43 0 71.5 19t28.5 51zM547 319q0 -26 21.5 -41.5t56.5 -27.5q78 28 78 69q0 24 -22 41t-55 17q-35 0 -57 -17t-22 -41z" />
    <glyph glyph-name="partialdiff" unicode="&#x2202;" horiz-adv-x="614" 
d="M460 397q-10 43 -31 83t-53 75t-79 56t-103 21q-19 0 -38 -2t-28 -4l-10 -3l-14 65q37 12 92 12q159 0 257 -117.5t98 -300.5q0 -154 -69 -223.5t-181 -69.5q-116 0 -183 66t-67 177q0 110 63.5 177t166.5 67q36 0 68 -8t51.5 -20t33.5 -23.5t20 -19.5zM467 233
q0 83 -42.5 129.5t-122.5 46.5t-122.5 -48.5t-42.5 -128.5t42.5 -128t122.5 -48q78 0 121.5 47t43.5 130z" />
    <glyph glyph-name="Delta" unicode="&#x2206;" horiz-adv-x="688" 
d="M662 0h-637l271 700h95zM553 74l-209 531l-210 -531h419z" />
    <glyph glyph-name="product" unicode="&#x220f;" horiz-adv-x="693" 
d="M662 700v-74h-106v-626h-86v626h-247v-626h-86v626h-106v74h631z" />
    <glyph glyph-name="summation" unicode="&#x2211;" horiz-adv-x="555" 
d="M50 700h449v-74h-333l266 -276l-266 -276h333v-74h-449v59l276 291l-276 291v59z" />
    <glyph glyph-name="minus" unicode="&#x2212;" horiz-adv-x="639" 
d="M68 300v66h502v-66h-502z" />
    <glyph glyph-name="radical" unicode="&#x221a;" horiz-adv-x="579" 
d="M567 700l-298 -700h-67l-179 340h90l118 -230l246 590h90z" />
    <glyph glyph-name="infinity" unicode="&#x221e;" horiz-adv-x="921" 
d="M238 418q45 0 90 -21t67 -39.5t66 -58.5q35 32 49 44t46 34.5t62.5 31.5t65.5 9q78 0 127.5 -46t49.5 -114t-50 -114t-128 -46q-59 0 -105.5 27.5t-116.5 90.5q-63 -59 -112 -88.5t-111 -29.5q-78 0 -127.5 46t-49.5 114t49.5 114t127.5 46zM681 356q-43 0 -80 -22.5
t-95 -75.5q34 -32 54 -48.5t54 -33t67 -16.5q51 0 80 30t29 68t-29 68t-80 30zM241 160q33 0 67.5 17t52.5 32t55 49q-59 53 -95.5 75.5t-79.5 22.5q-51 0 -79.5 -30t-28.5 -68t28.5 -68t79.5 -30z" />
    <glyph glyph-name="integral" unicode="&#x222b;" horiz-adv-x="388" 
d="M151 86v548q0 115 44 160t162 45h15v-57h-23q-33 0 -55 -9.5t-33.5 -21.5t-17 -39.5t-6 -45t-0.5 -57.5v-547q0 -115 -44.5 -160t-162.5 -45h-14v57h23q33 0 55 9.5t33 21.5t16.5 39t6.5 45t1 57z" />
    <glyph glyph-name="approxequal" unicode="&#x2248;" horiz-adv-x="638" 
d="M121 367l-52 21q52 106 142 106q47 0 117.5 -34t107.5 -34q50 0 84 61l52 -20q-49 -106 -141 -106q-47 0 -117.5 34t-107.5 34q-25 0 -44.5 -12.5t-40.5 -49.5zM121 188l-52 20q51 106 142 106q47 0 117.5 -33.5t107.5 -33.5q51 0 84 61l52 -21q-50 -106 -141 -106
q-47 0 -117.5 34t-107.5 34q-50 0 -85 -61z" />
    <glyph glyph-name="notequal" unicode="&#x2260;" horiz-adv-x="639" 
d="M68 391v66h269l70 164l57 -22l-62 -142h168v-66h-196l-49 -114h245v-66h-274l-69 -162l-55 22l60 140h-164v66h192l48 114h-240z" />
    <glyph glyph-name="lessequal" unicode="&#x2264;" horiz-adv-x="639" 
d="M565 475l-402 -153l402 -154v-77l-501 202v58l501 202v-78zM63 0v60h502v-60h-502z" />
    <glyph glyph-name="greaterequal" unicode="&#x2265;" horiz-adv-x="638" 
d="M573 351v-58l-501 -202v77l402 154l-402 153v78zM574 60v-60h-502v60h502z" />
    <glyph glyph-name="uni2318" unicode="&#x2318;" horiz-adv-x="805" 
d="M597 40q-59 0 -99.5 38t-40.5 93v73h-110v-73q0 -55 -41 -93t-99 -38q-59 0 -100.5 38t-41.5 93q0 54 41.5 92.5t100.5 38.5h80v98h-80q-59 0 -100.5 38.5t-41.5 92.5q0 55 41.5 93t100.5 38q58 0 99 -38t41 -93v-73h110v73q0 55 40.5 93t99.5 38t100 -38t41 -93
q0 -54 -41 -92.5t-100 -38.5h-80v-98h80q59 0 100 -38.5t41 -92.5q0 -55 -41 -93t-100 -38zM597 244h-80v-73q0 -31 23.5 -52t56.5 -21t57 21t24 52q0 30 -24 51.5t-57 21.5zM287 244h-80q-34 0 -58 -21.5t-24 -51.5q0 -31 23.5 -52t58.5 -21q33 0 56.5 21t23.5 52v73z
M347 400v-98h110v98h-110zM517 531v-73h80q33 0 57 21.5t24 51.5q0 31 -24 52t-57 21t-56.5 -21t-23.5 -52zM207 458h80v73q0 31 -23.5 52t-56.5 21q-35 0 -58.5 -21t-23.5 -52q0 -30 24 -51.5t58 -21.5z" />
    <glyph glyph-name="lozenge" unicode="&#x25ca;" horiz-adv-x="549" 
d="M322 0h-96l-190 350l190 350h96l192 -350zM427 350l-153 280l-153 -280l153 -281z" />
    <glyph glyph-name="zero.tnum" unicode="&#xf639;" horiz-adv-x="620" 
d="M310 711q129 0 196 -93.5t67 -267.5q0 -175 -67 -268t-196 -93q-130 0 -197 93t-67 268q0 174 67.5 267.5t196.5 93.5zM310 59q175 0 175 291t-175 291q-177 0 -177 -291t177 -291z" />
    <glyph glyph-name="two.tnum" unicode="&#xf63a;" horiz-adv-x="620" 
d="M545 74v-74h-471v55q0 114 98 200q32 28 124 90q43 29 63.5 44t47.5 40t38.5 49t11.5 51q0 48 -36.5 78t-99.5 30q-97 0 -186 -63l-42 59q113 78 234 78q99 0 158 -49.5t59 -130.5q0 -24 -6.5 -47.5t-13.5 -40.5t-26.5 -38.5t-29.5 -32.5t-38.5 -32.5t-38 -28
t-44.5 -29.5t-42 -28q-71 -47 -102.5 -84t-31.5 -96h374z" />
    <glyph glyph-name="three.tnum" unicode="&#xf63b;" horiz-adv-x="620" 
d="M63 61l40 63q101 -61 200 -61q72 0 119 36.5t47 97.5q0 39 -21 69t-55.5 46t-71 24t-74.5 8h-31v75h36q75 0 130.5 31.5t55.5 89.5q0 45 -35 71t-94 26q-89 0 -176 -58l-38 57q103 75 225 75q97 0 150.5 -47.5t53.5 -116.5q0 -51 -33 -94.5t-101 -66.5q73 -18 119.5 -69
t46.5 -120q0 -86 -62.5 -147t-180.5 -61q-75 0 -142 23t-108 49z" />
    <glyph glyph-name="four.tnum" unicode="&#xf63c;" horiz-adv-x="620" 
d="M35 155v64l336 481h109v-472h105v-73h-105v-155h-85v155h-360zM123 228h272v395z" />
    <glyph glyph-name="five.tnum" unicode="&#xf63d;" horiz-adv-x="620" 
d="M101 355l38 345h381v-74h-312l-18 -208q56 27 123 27q107 0 171 -65t64 -160t-65.5 -163t-183.5 -68q-111 0 -228 71l40 65q91 -61 178 -61q71 0 121 43.5t50 112.5q0 64 -44 108t-120 44q-71 0 -149 -44z" />
    <glyph glyph-name="six.tnum" unicode="&#xf63e;" horiz-adv-x="620" 
d="M426 638q-96 0 -173.5 -67t-99.5 -201q72 77 186 77q104 0 164 -63.5t60 -157.5q0 -99 -67 -168t-177 -69q-85 0 -146 44t-87.5 108t-27.5 140q0 102 30 185.5t81.5 136t117 80.5t137.5 28q24 0 47 -2.5t35 -5.5l11 -3l-20 -70q-32 8 -71 8zM323 379q-63 0 -110.5 -30.5
t-66.5 -67.5v-7q0 -90 45 -151t127 -61q75 0 117 48.5t42 113.5q0 63 -39.5 109t-114.5 46z" />
    <glyph glyph-name="seven.tnum" unicode="&#xf63f;" horiz-adv-x="620" 
d="M536 635q-10 -13 -27.5 -36.5t-62 -95.5t-78.5 -143.5t-62 -171t-28 -188.5h-91q0 80 25 172.5t55 160t73.5 142t61 100t36.5 51.5h-355v74h453v-65z" />
    <glyph glyph-name="eight.tnum" unicode="&#xf640;" horiz-adv-x="620" 
d="M50 181q0 126 169 197q-128 58 -128 164q0 77 60.5 123t157.5 46t157.5 -46t60.5 -123q0 -106 -128 -164q170 -71 170 -197q0 -89 -73 -140.5t-187 -51.5t-186.5 51.5t-72.5 140.5zM480 184q0 57 -46.5 94t-124.5 66q-36 -13 -63 -26.5t-53.5 -32.5t-40.5 -45t-14 -56
q0 -57 49 -91.5t122 -34.5t122 34.5t49 91.5zM176 535q0 -79 133 -125q133 47 133 125q0 45 -37.5 76.5t-95.5 31.5q-57 0 -95 -32t-38 -76z" />
    <glyph glyph-name="nine.tnum" unicode="&#xf641;" horiz-adv-x="620" 
d="M194 62q96 0 174 67t100 202q-71 -79 -187 -79q-104 0 -164 63.5t-60 158.5q0 99 67 168t178 69q65 0 116 -25t81.5 -67t46.5 -93t16 -107q1 -201 -106.5 -315.5t-259.5 -114.5q-24 0 -47 2.5t-35 5.5l-11 3l21 70q31 -8 70 -8zM298 321q63 0 111 31.5t66 68.5v4
q0 91 -45 152t-127 61q-75 0 -117 -48.5t-42 -114.5q0 -62 39 -108t115 -46z" />
    <glyph glyph-name="commaaccent" unicode="&#xf6c3;" horiz-adv-x="86" 
d="M7 -160v97h80l9 -101l-71 -108l-24 26l43 86h-37z" />
    <glyph glyph-name="one.tnum" unicode="&#xf6dc;" horiz-adv-x="620" 
d="M61 0v74h205v539l-168 -88l-37 60l213 115h78v-626h205v-74h-496z" />
    <glyph glyph-name="centinferior" unicode="&#xf6df;" horiz-adv-x="359" 
d="M223 -150h-48v46q-58 4 -97 46.5t-39 117.5t39 117.5t97 45.5v47h48v-50q33 -7 101 -41l-28 -45q-57 27 -73 31v-211q27 7 73 32l28 -47q-64 -32 -101 -39v-50zM105 60q0 -44 19 -73t51 -36v217q-32 -6 -51 -35t-19 -73z" />
    <glyph glyph-name="centsuperior" unicode="&#xf6e0;" horiz-adv-x="359" 
d="M223 385h-48v46q-58 4 -97 46.5t-39 117.5t39 117.5t97 45.5v47h48v-50q33 -7 101 -41l-28 -45q-57 27 -73 31v-211q27 7 73 32l28 -47q-64 -32 -101 -39v-50zM105 595q0 -44 19 -73t51 -36v217q-32 -6 -51 -35t-19 -73z" />
    <glyph glyph-name="commainferior" unicode="&#xf6e1;" horiz-adv-x="168" 
d="M50 -150v81h69l8 -87l-59 -80l-21 23l35 63h-32z" />
    <glyph glyph-name="commasuperior" unicode="&#xf6e2;" horiz-adv-x="168" 
d="M50 385v81h69l8 -87l-59 -80l-21 23l35 63h-32z" />
    <glyph glyph-name="dollarinferior" unicode="&#xf6e3;" horiz-adv-x="395" 
d="M224 -210h-48v56q-73 10 -146 50l32 48q52 -30 114 -42v137l-12 4q-56 17 -90 43.5t-34 74.5q0 51 37.5 82t98.5 34v54h48v-57q68 -9 127 -38l-29 -48q-49 21 -98 30v-127l9 -3q28 -9 47 -17.5t41.5 -23t34.5 -36t12 -49.5q0 -53 -41 -85t-103 -34v-53zM300 -42
q0 23 -19.5 37.5t-56.5 27.5v-125q33 2 54.5 17.5t21.5 42.5zM108 165q0 -22 17 -35t51 -24v115q-29 -2 -48.5 -16.5t-19.5 -39.5z" />
    <glyph glyph-name="dollarsuperior" unicode="&#xf6e4;" horiz-adv-x="395" 
d="M224 325h-48v56q-78 11 -146 50l32 48q53 -30 114 -42v137l-12 4q-56 17 -90 43.5t-34 74.5q0 51 37.5 82t98.5 34v54h48v-57q68 -9 127 -38l-29 -48q-49 21 -98 30v-127l9 -3q28 -9 47 -17.5t41.5 -23t34.5 -36t12 -49.5q0 -54 -41 -85.5t-103 -33.5v-53zM300 493
q0 23 -19.5 37.5t-56.5 27.5v-125q33 2 54.5 17.5t21.5 42.5zM108 700q0 -22 17 -35t51 -24v115q-29 -2 -48.5 -16.5t-19.5 -39.5z" />
    <glyph glyph-name="periodinferior" unicode="&#xf6e7;" horiz-adv-x="164" 
d="M47 -150v81h70v-81h-70z" />
    <glyph glyph-name="periodsuperior" unicode="&#xf6e8;" horiz-adv-x="164" 
d="M47 385v81h70v-81h-70z" />
    <glyph glyph-name="asuperior" unicode="&#xf6e9;" horiz-adv-x="374" 
d="M264 385v41q-52 -48 -122 -48q-46 0 -78.5 26.5t-32.5 75.5q0 50 33 76.5t84 26.5q28 0 116 -17v31q0 32 -15 46.5t-51 14.5t-123 -26l-21 45q92 30 153 30q120 0 120 -109v-213h-63zM160 429q56 0 104 42v60q-72 13 -93 13q-75 0 -75 -60q0 -55 64 -55z" />
    <glyph glyph-name="bsuperior" unicode="&#xf6ea;" horiz-adv-x="391" 
d="M52 385v437h63v-162q55 47 115 47q57 0 92 -41.5t35 -123.5q0 -81 -35 -122.5t-92 -41.5q-61 0 -115 46v-39h-63zM216 655q-56 0 -101 -47v-131q46 -48 101 -48q77 0 77 113t-77 113z" />
    <glyph glyph-name="dsuperior" unicode="&#xf6eb;" horiz-adv-x="391" 
d="M340 385h-63v39q-52 -46 -115 -46q-57 0 -92 41.5t-35 122.5q0 82 35 123.5t92 41.5q62 0 115 -47v162h63v-437zM177 429q54 0 100 48v131q-45 47 -100 47q-77 0 -77 -113t77 -113z" />
    <glyph glyph-name="esuperior" unicode="&#xf6ec;" horiz-adv-x="370" 
d="M332 528h-233q4 -48 27.5 -75t61.5 -27q46 0 123 42l27 -40q-82 -50 -154 -50q-65 0 -107.5 42.5t-42.5 121.5q0 78 43 121.5t115 43.5q69 0 106.5 -38.5t37.5 -99.5zM191 660q-39 0 -62.5 -25t-28.5 -70h174q0 95 -83 95z" />
    <glyph glyph-name="isuperior" unicode="&#xf6ed;" horiz-adv-x="166" 
d="M115 385h-64v315h64v-315zM49 757v64h70v-64h-70z" />
    <glyph glyph-name="lsuperior" unicode="&#xf6ee;" horiz-adv-x="171" 
d="M117 385h-63v437h63v-437z" />
    <glyph glyph-name="msuperior" unicode="&#xf6ef;" horiz-adv-x="589" 
d="M115 700v-45q59 52 120 52q68 0 87 -58q61 58 127 58q92 0 92 -99v-223h-63v211q0 60 -51 60q-47 0 -99 -50v-221h-64v211q0 60 -50 60q-49 0 -99 -50v-221h-63v315h63z" />
    <glyph glyph-name="osuperior" unicode="&#xf6f0;" horiz-adv-x="390" 
d="M355 542q0 -77 -41.5 -120.5t-118.5 -43.5t-118.5 43.5t-41.5 120.5q0 78 41.5 121.5t118.5 43.5t118.5 -43.5t41.5 -121.5zM291 542q0 115 -96 115t-96 -115q0 -114 96 -114t96 114z" />
    <glyph glyph-name="rsuperior" unicode="&#xf6f1;" horiz-adv-x="257" 
d="M115 700v-67q5 12 15.5 26.5t40.5 31t69 13.5v-60q-50 0 -81 -25t-37 -49l-7 -25v-160h-63v315h63z" />
    <glyph glyph-name="ssuperior" unicode="&#xf6f2;" horiz-adv-x="334" 
d="M187 569q58 -14 88.5 -37t30.5 -64q0 -43 -34.5 -66.5t-89.5 -23.5q-77 0 -153 39l25 43q72 -35 123 -35q28 0 47 10.5t19 30.5q0 6 -1.5 10.5t-5.5 9t-8 7.5t-11 6.5t-12 5.5t-14 4.5t-14 4t-15 4l-14 3.5q-50 13 -81.5 34t-31.5 62t33 65.5t88 24.5q66 0 136 -33
l-26 -40q-62 27 -106 27q-28 0 -45.5 -11t-17.5 -30q0 -7 2.5 -13t9 -10.5t11.5 -8t16.5 -6.5t16.5 -4.5t18 -4.5t16 -4z" />
    <glyph glyph-name="tsuperior" unicode="&#xf6f3;" horiz-adv-x="255" 
d="M23 652v48h45v79l65 12v-91h90v-48h-90v-187q0 -32 29 -32q22 0 59 15l24 -47q-56 -23 -96 -23q-81 0 -81 89v185h-45z" />
    <glyph glyph-name="apple" unicode="&#xf8ff;" horiz-adv-x="857" 
d="M747 327q-9 -4 -10 -11t7 -12l28 -20q8 -5 7.5 -10.5t-10.5 -7.5l-34 -6q-10 -1 -12 -8t5 -14l24 -24q6 -7 4 -12t-12 -5l-35 2q-10 0 -13 -6t3 -14l18 -30q5 -8 2 -12.5t-13 -2.5l-34 9q-9 3 -13.5 -2.5t-1.5 -14.5l11 -33q4 -9 0 -12.5t-13 0.5l-31 15q-8 5 -14 0.5
t-5 -14.5l5 -33q1 -10 -3 -12.5t-12 3.5l-28 21q-8 6 -14 3t-7 -13l-2 -34q-1 -10 -6 -11.5t-11 5.5l-23 27q-16 16 -22 -5l-10 -33q-2 -10 -8 -10t-10 8l-17 30q-10 20 -23 0l-15 -30q-4 -8 -10 -8t-8 10l-10 33q-6 21 -22 5l-23 -27q-14 -15 -17 6l-2 34q-1 10 -7.5 13
t-14.5 -3l-26 -21q-8 -6 -13 -3.5t-3 12.5l5 33q1 10 -5 14.5t-15 -0.5l-30 -15q-9 -4 -13 -0.5t0 12.5l11 33q4 9 -1 14.5t-14 2.5l-34 -9q-10 -2 -13 2.5t2 12.5l19 30q5 8 2 14t-13 6l-35 -2q-10 0 -12 5t4 12l25 24q6 7 4 14t-12 8l-33 6q-7 1 -10 4t-1 7t7 7l28 20l6 6
q9 8 18 -6l16 -31q5 -9 10 -8t8 10l9 34q2 6 5.5 8.5t8 1.5t8.5 -6l23 -26q7 -7 11.5 -5.5t5.5 11.5l2 34q2 10 7.5 12.5t13.5 -3.5l28 -21q8 -6 12.5 -3.5t2.5 12.5l-4 34q-1 10 4.5 14t13.5 -1l31 -14q9 -4 13 -0.5t1 12.5l-11 33q-4 9 0.5 14t13.5 2l7 -1
q20 -38 34.5 -99t14.5 -106q-14 -18 -46 -18h-4q0 22 -16 35q9 -10 9 -27v-7q-16 1 -16 19q0 21 -13.5 35t-37.5 14q-20 0 -33.5 -15.5t-13.5 -38.5q0 -29 24.5 -47t67.5 -18q68 0 134.5 53t105 127t38.5 139q0 29 -18 48t-46 19q-23 0 -41.5 -16.5t-18.5 -41.5
q0 -52 58 -58q-15 -60 -29 -85q-13 102 -58 150q44 -58 52 -161l-14 -20q0 76 -25 140t-64 84q-6 11 12 15l34 6q9 2 10 7t-7 10l-29 19q-17 15 3 23l31 14q7 2 9.5 5.5t0 7t-9.5 5.5l-31 13q-11 5 -10 14q6 3 7 8l17 30q5 9 10.5 8.5t7.5 -9.5l10 -33q7 -23 22 -5l23 26
q6 8 11 6.5t6 -11.5l2 -35q1 -10 7.5 -12.5t13.5 3.5l28 21q7 6 11.5 3t3.5 -13l-5 -34q-1 -10 5 -14t14 1l31 16q9 4 13 0t0 -14l-11 -31q-3 -10 1.5 -15t13.5 -2l34 7q10 3 13 -1t-2 -13l-18 -29q-6 -8 -3 -14.5t13 -5.5l35 2q10 0 12 -5t-4 -12l-24 -26q-7 -7 -5 -13.5
t12 -7.5l34 -6q20 -5 3 -19l-28 -19q-8 -5 -7.5 -11.5t10.5 -10.5l31 -13q9 -4 9 -9t-9 -9zM366 124q69 0 135 52.5t104.5 127t38.5 139.5q0 31 -20 49q12 -18 12 -41q0 -103 -85 -210q-92 -113 -196 -113q-29 0 -49 9q20 -13 60 -13z" />
    <glyph glyph-name="f_f" unicode="&#xfb00;" horiz-adv-x="707" 
d="M384 461v64h74v72q0 72 30.5 102t86.5 30q66 0 155 -35l-30 -61q-72 24 -111 24q-50 0 -50 -56v-76h142v-64h-142v-461h-81v461h-74zM32 461v64h74v72q0 72 30.5 102t86.5 30q66 0 155 -35l-30 -61q-72 24 -111 24q-50 0 -50 -56v-76h137v-64h-137v-461h-81v461h-74z" />
    <glyph glyph-name="f_i" unicode="&#xfb01;" horiz-adv-x="599" 
d="M32 461v64h74v72q0 132 114 132q49 0 127 -27l-25 -62q-58 17 -85 17q-50 0 -50 -56v-76h142v-64h-142v-461h-81v461h-74zM518 0h-83v525h83v-525zM432 629v97h92v-97h-92z" />
    <glyph glyph-name="f_l" unicode="&#xfb02;" horiz-adv-x="609" 
d="M32 461v64h74v72q0 132 114 132q49 0 127 -27l-25 -62q-58 17 -85 17q-50 0 -50 -56v-76h142v-64h-142v-461h-81v461h-74zM523 0h-82v729h82v-729z" />
    <glyph glyph-name="f_f_i" unicode="&#xfb03;" horiz-adv-x="952" 
d="M32 461v64h74v72q0 72 30.5 102t86.5 30q66 0 155 -35l-30 -61q-72 24 -111 24q-50 0 -50 -56v-76h137v-64h-137v-461h-81v461h-74zM384 461v64h74v72q0 132 114 132q49 0 127 -27l-25 -62q-58 17 -85 17q-50 0 -50 -56v-76h142v-64h-142v-461h-81v461h-74zM870 0h-83
v525h83v-525zM784 629v97h92v-97h-92z" />
    <glyph glyph-name="f_f_l" unicode="&#xfb04;" horiz-adv-x="961" 
d="M32 461v64h74v72q0 72 30.5 102t86.5 30q66 0 155 -35l-30 -61q-72 24 -111 24q-50 0 -50 -56v-76h137v-64h-137v-461h-81v461h-74zM384 461v64h74v72q0 132 114 132q49 0 127 -27l-25 -62q-58 17 -85 17q-50 0 -50 -56v-76h142v-64h-142v-461h-81v461h-74zM875 0h-82
v729h82v-729z" />
    <glyph glyph-name="s_t" unicode="&#xfb06;" horiz-adv-x="894" 
d="M280 301q93 -25 141.5 -63t48.5 -103q0 -71 -54.5 -108.5t-136.5 -37.5q-119 0 -234 64l37 61q110 -58 193 -58q46 0 79 20t33 56q0 54 -91 84q-18 6 -53 16l-12 3q-37 10 -62.5 20t-54 28t-43.5 45.5t-15 63.5q0 67 50.5 105.5t133.5 38.5q49 0 106 -15q-9 23 -9 54
q0 71 47.5 112.5t127.5 41.5q92 0 140 -49t48 -134v-21h145v-64h-145v-344q0 -55 49 -55q43 0 100 27l31 -63q-81 -37 -144 -37q-118 0 -118 132v340h-73v64h73v31q0 128 -115 128q-55 0 -86 -31.5t-31 -84.5q0 -39 14 -65l47 -20l-36 -58q-94 44 -169 44q-46 0 -75 -19.5
t-29 -53.5q0 -21 11.5 -37t34.5 -27t39.5 -16t44.5 -12z" />
    <glyph glyph-name="nine.numr" horiz-adv-x="415" 
d="M128 327q62 0 108 38.5t60 108.5q-46 -43 -115 -43q-65 0 -103 37.5t-38 94.5q0 60 43 102t115 42q82 0 125.5 -53t43.5 -134q0 -106 -66.5 -176.5t-171.5 -70.5q-16 0 -31 1.5t-22 3.5l-8 2l17 52q18 -5 43 -5zM196 481q37 0 65.5 17t39.5 37q-2 56 -29.5 87t-72.5 31
t-69.5 -26.5t-24.5 -61.5q0 -34 23.5 -59t67.5 -25z" />
    <glyph glyph-name="percentsuperior" horiz-adv-x="633" 
d="M261 699q0 -54 -31.5 -83t-85.5 -29q-55 0 -85.5 29t-30.5 83t30.5 83.5t85.5 29.5q54 0 85.5 -29.5t31.5 -83.5zM210 699q0 34 -17 53t-49 19q-31 0 -47.5 -18.5t-16.5 -53.5q0 -72 64 -72q66 0 66 72zM459 805l-235 -427h-53l234 427h54zM604 491q0 -55 -31 -84
t-84 -29q-55 0 -86 29t-31 84q0 54 31 83t86 29q53 0 84 -29t31 -83zM554 491q0 34 -17 52.5t-48 18.5q-66 0 -66 -71q0 -72 66 -72q65 0 65 72z" />
    <glyph glyph-name="f_f_k" horiz-adv-x="1235" 
d="M1186 525l-177 -212l210 -313h-90l-170 254l-88 -106v-148h-83v729h83v-481l220 277h95zM32 461v64h74v72q0 72 30.5 102t86.5 30q66 0 155 -35l-30 -61q-72 24 -111 24q-50 0 -50 -56v-76h137v-64h-137v-461h-81v461h-74zM384 461v64h74v72q0 132 114 132q49 0 127 -27
l-25 -62q-58 17 -85 17q-50 0 -50 -56v-76h142v-64h-142v-461h-81v461h-74z" />
    <glyph glyph-name="f_f_k.ss01" horiz-adv-x="1169" 
d="M32 461v64h74v62q0 132 138 132q79 0 212 -34q33 44 113 44q74 0 188 -29v29h83v-481l220 277h95l-177 -212l210 -313h-90l-170 254l-88 -106v-148h-83v631q-147 26 -180 26q-64 0 -64 -56v-76h141v-64h-141v-461h-82v461h-244v-461h-81v461h-74zM431 597q0 17 1 25
q-139 25 -180 25q-65 0 -65 -56v-66h244v72z" />
    <glyph glyph-name="f_f_j" horiz-adv-x="954" 
d="M32 461v64h74v72q0 72 30.5 102t86.5 30q66 0 155 -35l-30 -61q-72 24 -111 24q-50 0 -50 -56v-76h137v-64h-137v-461h-81v461h-74zM384 461v64h74v72q0 132 114 132q49 0 127 -27l-25 -62q-58 17 -85 17q-50 0 -50 -56v-76h142v-64h-142v-461h-81v461h-74zM874 525v-545
q0 -30 -0.5 -43.5t-3.5 -34.5t-9.5 -30.5t-18.5 -23.5t-31 -22.5t-46 -18.5t-64 -20l-28 63q31 10 49.5 16.5t33 16t21 15t10 20t4 24.5t0.5 34v549h83zM786 629v97h92v-97h-92z" />
    <glyph glyph-name="f_f_l.ss01" horiz-adv-x="899" 
d="M32 461v64h74v62q0 132 138 132q79 0 212 -34q33 44 113 44q74 0 188 -29v29h82v-729h-82v631q-147 26 -180 26q-64 0 -64 -56v-76h141v-64h-141v-461h-82v461h-244v-461h-81v461h-74zM431 597q0 17 1 25q-139 25 -180 25q-65 0 -65 -56v-66h244v72z" />
    <glyph glyph-name="f_f_t" horiz-adv-x="1087" 
d="M384 461v64h74v72q0 72 30.5 102t86.5 30q66 0 155 -35l-30 -61q-72 24 -111 24q-50 0 -50 -56v-76h138v-64h-138v-461h-81v461h-74zM32 461v64h74v72q0 72 30.5 102t86.5 30q66 0 155 -35l-30 -61q-72 24 -111 24q-50 0 -50 -56v-76h137v-64h-137v-461h-81v461h-74z
M737 461v64h74v132l81 20v-152h145v-64h-145v-344q0 -55 50 -55q39 0 100 27l31 -63q-81 -37 -145 -37q-117 0 -117 132v340h-74z" />
    <glyph glyph-name="f_f_t.ss01" horiz-adv-x="1006" 
d="M32 461v64h74v62q0 132 138 132q83 0 207 -33q28 43 97 43q63 0 155 -35l-30 -61q-72 24 -111 24q-49 0 -49 -56v-76h229v132l81 20v-152h145v-64h-145v-344q0 -55 50 -55q39 0 100 27l31 -63q-81 -37 -145 -37q-117 0 -117 132v340h-229v-461h-83v461h-243v-461h-81v461
h-74zM430 597q0 17 1 25q-143 25 -179 25q-65 0 -65 -56v-66h243v72z" />
    <glyph glyph-name="f_h" horiz-adv-x="961" 
d="M32 461v64h74v72q0 132 114 132q49 0 127 -27l-25 -62q-58 17 -85 17q-50 0 -50 -56v-76h142v-64h-142v-461h-81v461h-74zM519 729v-278q41 31 99 58t117 27q150 0 150 -162v-374h-83v359q0 109 -91 109q-49 0 -103.5 -28t-88.5 -58v-382h-83v729h83z" />
    <glyph glyph-name="f_h.ss01" horiz-adv-x="943" 
d="M32 461v64h74v72q0 132 138 132q74 0 188 -29v29h82v-277q116 84 217 84q148 0 148 -162v-374h-83v359q0 109 -90 109q-48 0 -102.5 -27.5t-89.5 -57.5v-383h-82v631q-147 26 -180 26q-65 0 -65 -56v-76h142v-64h-142v-461h-81v461h-74z" />
    <glyph glyph-name="f_f_i.ss01" horiz-adv-x="879" 
d="M32 461v64h74v62q0 132 138 132q82 0 212 -34q34 44 115 44q90 0 208 -35l-32 -61q-128 24 -168 24q-28 0 -47 -13.5t-19 -42.5v-76h300v-525h-83v461h-217v-461h-82v461h-244v-461h-81v461h-74zM431 597q0 17 1 25q-139 25 -180 25q-65 0 -65 -56v-66h244v72z" />
    <glyph glyph-name="f_i.ss01" horiz-adv-x="567" 
d="M32 461v64h74v72q0 132 140 132q90 0 208 -35l-32 -61q-128 24 -168 24q-67 0 -67 -56v-76h301v-525h-83v461h-218v-461h-81v461h-74z" />
    <glyph glyph-name="f_j" horiz-adv-x="602" 
d="M32 461v64h74v72q0 132 114 132q49 0 127 -27l-25 -62q-58 17 -85 17q-50 0 -50 -56v-76h142v-64h-142v-461h-81v461h-74zM434 629v97h92v-97h-92zM522 525v-545q0 -30 -0.5 -43.5t-3.5 -34.5t-9.5 -30.5t-18.5 -23.5t-31 -22.5t-46 -18.5t-64 -20l-28 63
q31 10 49.5 16.5t33 16t21 15t10 20t4 24.5t0.5 34v549h83z" />
    <glyph glyph-name="f_j.ss01" horiz-adv-x="567" 
d="M32 461v64h74v72q0 132 140 132q90 0 208 -35l-32 -61q-128 24 -168 24q-67 0 -67 -56v-76h301v-545q0 -30 -0.5 -43.5t-3.5 -34.5t-9.5 -30.5t-18.5 -23.5t-31 -22.5t-45.5 -18.5t-63.5 -20l-29 63q31 10 49.5 16.5t33 16t21 15t10 20t4 24.5t0.5 34v485h-218v-461h-81
v461h-74z" />
    <glyph glyph-name="f_k" horiz-adv-x="882" 
d="M32 461v64h74v72q0 132 114 132q49 0 127 -27l-25 -62q-58 17 -85 17q-50 0 -50 -56v-76h142v-64h-142v-461h-81v461h-74zM834 525l-177 -212l210 -313h-90l-170 254l-88 -106v-148h-83v729h83v-481l220 277h95z" />
    <glyph glyph-name="f_k.ss01" horiz-adv-x="864" 
d="M32 461v64h74v72q0 132 138 132q74 0 188 -29v29h83v-481l220 277h95l-177 -212l210 -313h-90l-170 254l-88 -106v-148h-83v631q-147 26 -180 26q-65 0 -65 -56v-76h142v-64h-142v-461h-81v461h-74z" />
    <glyph glyph-name="f_f_h.ss01" horiz-adv-x="1256" 
d="M32 461v64h74v62q0 132 138 132q79 0 212 -34q33 44 113 44q74 0 188 -29v29h82v-277q116 84 217 84q148 0 148 -162v-374h-83v359q0 109 -90 109q-48 0 -102.5 -27.5t-89.5 -57.5v-383h-82v631q-147 26 -180 26q-64 0 -64 -56v-76h141v-64h-141v-461h-82v461h-244v-461
h-81v461h-74zM431 597q0 17 1 25q-139 25 -180 25q-65 0 -65 -56v-66h244v72z" />
    <glyph glyph-name="f_l.ss01" horiz-adv-x="587" 
d="M32 461v64h74v72q0 132 138 132q74 0 188 -29v29h82v-729h-82v631q-147 26 -180 26q-65 0 -65 -56v-76h142v-64h-142v-461h-81v461h-74z" />
    <glyph glyph-name="f_t" horiz-adv-x="735" 
d="M32 461v64h74v72q0 72 30.5 102t86.5 30q66 0 155 -35l-30 -61q-72 24 -111 24q-50 0 -50 -56v-76h137v-64h-137v-461h-81v461h-74zM385 461v64h74v132l81 20v-152h145v-64h-145v-344q0 -55 50 -55q39 0 100 27l31 -63q-81 -37 -145 -37q-117 0 -117 132v340h-74z" />
    <glyph glyph-name="f_t.ss01" horiz-adv-x="693" 
d="M32 461v64h74v72q0 72 30.5 102t86.5 30q66 0 155 -35l-30 -61q-72 24 -111 24q-50 0 -50 -56v-76h229v132l83 20v-152h145v-64h-145v-344q0 -55 49 -55q39 0 100 27l31 -63q-81 -37 -144 -37q-119 0 -119 132v340h-229v-461h-81v461h-74z" />
    <glyph glyph-name="finferior" horiz-adv-x="236" 
d="M23 117v48h45v34q0 88 81 88q50 0 102 -22l-23 -45q-56 14 -67 14q-29 0 -29 -33v-36h87v-48h-87v-267h-64v267h-45z" />
    <glyph glyph-name="Uacute.sc" horiz-adv-x="625" 
d="M544 574v-360q0 -223 -231 -223q-127 0 -179.5 59.5t-52.5 163.5v360h81v-364q0 -70 32.5 -109.5t118.5 -39.5q85 0 117.5 39.5t32.5 109.5v364h81zM303 624h-69l122 130h114z" />
    <glyph glyph-name="five.dnom" horiz-adv-x="394" 
d="M57 211l24 209h251v-55h-197l-9 -110q35 14 73 14q70 0 111 -39t41 -96q0 -58 -42 -99.5t-119 -41.5q-73 0 -151 46l30 49q52 -38 113 -38q42 0 71 23t29 60q0 36 -25.5 59.5t-71.5 23.5q-43 0 -91 -25z" />
    <glyph glyph-name="five.numr" horiz-adv-x="394" 
d="M57 491l24 209h251v-55h-197l-9 -110q35 14 73 14q70 0 111 -39t41 -96q0 -58 -42 -99.5t-119 -41.5q-73 0 -151 46l30 49q52 -38 113 -38q42 0 71 23t29 60q0 36 -25.5 59.5t-71.5 23.5q-43 0 -91 -25z" />
    <glyph glyph-name="five.onum" horiz-adv-x="569" 
d="M72 229l38 345h381v-74h-312l-18 -208q56 27 123 27q107 0 171 -65t64 -160t-65.5 -163t-183.5 -68q-111 0 -228 71l40 65q92 -61 178 -61q71 0 121 43.5t50 112.5q0 64 -44 108t-120 44q-71 0 -149 -44z" />
    <glyph glyph-name="f_f_h" horiz-adv-x="1313" 
d="M871 729v-278q41 31 99 58t117 27q150 0 150 -162v-374h-83v359q0 109 -91 109q-49 0 -103.5 -28t-88.5 -58v-382h-83v729h83zM32 461v64h74v72q0 72 30.5 102t86.5 30q66 0 155 -35l-30 -61q-72 24 -111 24q-50 0 -50 -56v-76h137v-64h-137v-461h-81v461h-74zM384 461
v64h74v72q0 132 114 132q49 0 127 -27l-25 -62q-58 17 -85 17q-50 0 -50 -56v-76h142v-64h-142v-461h-81v461h-74z" />
    <glyph glyph-name="f_f_b.ss01" horiz-adv-x="1254" 
d="M32 461v64h74v62q0 132 138 132q79 0 212 -34q33 44 113 44q74 0 188 -29v29h82v-272q90 79 185 79q89 0 145 -68t56 -206q0 -137 -56 -205t-145 -68q-99 0 -185 78v-67h-82v631q-147 26 -180 26q-64 0 -64 -56v-76h141v-64h-141v-461h-82v461h-244v-461h-81v461h-74z
M1009 467q-93 0 -170 -84v-242q76 -83 170 -83q64 0 97.5 53.5t33.5 150.5t-33.5 151t-97.5 54zM431 597q0 17 1 25q-139 25 -180 25q-65 0 -65 -56v-66h244v72z" />
    <glyph glyph-name="fiveeighths.onum" horiz-adv-x="822" 
d="M481 90q0 62 91 96q-67 32 -67 80q0 38 34 61t89 23t89 -23t34 -61q0 -50 -67 -80q91 -35 91 -96q0 -44 -40.5 -70t-106.5 -26q-65 0 -106 26t-41 70zM64 403l21 171h216v-46h-172l-8 -89q31 12 65 12q60 0 95.5 -32.5t35.5 -79.5q0 -48 -36.5 -81.5t-102.5 -33.5
q-60 0 -130 38l25 40q46 -32 99 -32q36 0 62 19t26 50q0 29 -22.5 48t-63.5 19q-36 0 -79 -20zM577 574l-291 -574h-58l290 574h59zM717 93q0 44 -90 73q-88 -30 -88 -73q0 -26 25.5 -41t63.5 -15t63.5 15t25.5 41zM559 260q0 -35 68 -56q69 21 69 56q0 20 -19 34.5
t-49 14.5t-49.5 -14.5t-19.5 -34.5z" />
    <glyph glyph-name="f_f_b" horiz-adv-x="1311" 
d="M788 0v729h83v-272q88 79 185 79q89 0 144.5 -68t55.5 -206t-55.5 -205.5t-144.5 -67.5q-100 0 -185 79v-68h-83zM1040 467q-95 0 -169 -85v-240q75 -84 169 -84q64 0 98 53.5t34 150.5t-34 151t-98 54zM32 461v64h74v72q0 72 30.5 102t86.5 30q66 0 155 -35l-30 -61
q-72 24 -111 24q-50 0 -50 -56v-76h137v-64h-137v-461h-81v461h-74zM384 461v64h74v72q0 132 114 132q49 0 127 -27l-25 -62q-58 17 -85 17q-50 0 -50 -56v-76h142v-64h-142v-461h-81v461h-74z" />
    <glyph glyph-name="fivesixths" horiz-adv-x="907" 
d="M65 491l24 209h251v-55h-197l-9 -110q35 14 73 14q70 0 111 -39t41 -96q0 -58 -42 -99.5t-119 -41.5q-73 0 -151 46l30 49q52 -38 113 -38q42 0 71 23t29 60q0 36 -25.5 59.5t-71.5 23.5q-43 0 -91 -25zM658 700l-334 -700h-70l334 700h70zM769 373q-63 0 -109 -39
t-59 -109q41 44 115 44q65 0 103.5 -38t38.5 -95q0 -59 -43.5 -101t-115.5 -42q-83 0 -126 53t-43 134q0 106 66.5 176.5t171.5 70.5q16 0 31 -1.5t23 -3.5l7 -2l-15 -52q-21 5 -45 5zM701 218q-37 0 -65 -16t-40 -36q1 -57 28.5 -88t73.5 -31q45 0 69.5 26.5t24.5 61.5
q0 34 -23.5 58.5t-67.5 24.5z" />
    <glyph glyph-name="fivesixths.onum" horiz-adv-x="800" 
d="M673 306q-56 0 -95.5 -32t-50.5 -89q38 35 100 35q56 0 89.5 -31t33.5 -77q0 -49 -37.5 -83.5t-99.5 -34.5q-71 0 -109 43.5t-38 109.5q0 87 58 145t148 58q14 0 27 -1.5t19 -2.5l7 -2l-12 -42q-19 4 -40 4zM64 403l21 171h216v-46h-172l-8 -89q31 12 65 12
q60 0 95.5 -32.5t35.5 -79.5q0 -48 -36.5 -81.5t-102.5 -33.5q-60 0 -130 38l25 40q46 -32 99 -32q36 0 62 19t26 50q0 29 -22.5 48t-63.5 19q-36 0 -79 -20zM577 574l-291 -574h-58l290 574h59zM614 179q-32 0 -56 -13.5t-35 -29.5q1 -46 25 -71.5t64 -25.5q39 0 61 21.5
t22 50.5q0 27 -21 47.5t-60 20.5z" />
    <glyph glyph-name="f_f.ss01" horiz-adv-x="668" 
d="M32 461v64h74v62q0 132 138 132q87 0 208 -33q28 43 96 43q66 0 155 -35l-30 -61q-72 24 -111 24q-49 0 -49 -56v-76h141v-64h-141v-461h-82v461h-244v-461h-81v461h-74zM187 591v-66h244v72q0 17 1 25q-139 25 -180 25q-65 0 -65 -56z" />
    <glyph glyph-name="U.sc" horiz-adv-x="625" 
d="M544 574v-360q0 -223 -231 -223q-127 0 -179.5 59.5t-52.5 163.5v360h81v-364q0 -70 32.5 -109.5t118.5 -39.5q85 0 117.5 39.5t32.5 109.5v364h81z" />
    <glyph glyph-name="Tsuperior" horiz-adv-x="370" 
d="M355 749h-137v-364h-66v364h-136v56h339v-56z" />
    <glyph glyph-name="four.dnom" horiz-adv-x="428" 
d="M31 89v47l208 284h87v-277h68v-54h-68v-89h-66v89h-229zM100 143h160v222z" />
    <glyph glyph-name="four.numr" horiz-adv-x="428" 
d="M31 369v47l208 284h87v-277h68v-54h-68v-89h-66v89h-229zM100 423h160v222z" />
    <glyph glyph-name="four.onum" horiz-adv-x="620" 
d="M30 29v64l337 481h112v-472h107v-73h-107v-155h-87v155h-362zM121 102h271v393z" />
    <glyph glyph-name="f_f.calt" horiz-adv-x="707" 
d="M32 461v64h74v72q0 72 30.5 102t86.5 30q66 0 155 -35l-30 -61q-72 24 -111 24q-50 0 -50 -56v-76h137v-64h-137v-461h-81v461h-74zM384 461v64h74v72q0 132 114 132q49 0 127 -27l-25 -62q-58 17 -85 17q-50 0 -50 -56v-76h142v-64h-142v-461h-81v461h-74z" />
    <glyph glyph-name="fourfifths" horiz-adv-x="976" 
d="M33 369v47l208 284h87v-277h68v-54h-68v-89h-66v89h-229zM102 423h160v222zM706 700l-334 -700h-70l334 700h70zM629 211l24 209h251v-55h-197l-9 -110q35 14 73 14q70 0 111 -39t41 -96q0 -58 -42 -99.5t-119 -41.5q-73 0 -151 46l30 49q52 -38 113 -38q42 0 71 23
t29 60q0 36 -25.5 59.5t-71.5 23.5q-43 0 -91 -25z" />
    <glyph glyph-name="fourfifths.onum" horiz-adv-x="861" 
d="M37 302v39l182 233h73v-227h58v-45h-58v-72h-55v72h-200zM554 173l20 171h217v-45h-172l-9 -90q31 12 65 12q61 0 96.5 -32t35.5 -79q0 -48 -36.5 -82t-102.5 -34q-60 0 -130 38l25 40q47 -31 98 -31q37 0 63 19t26 50q0 28 -23 47.5t-63 19.5t-80 -21zM619 574
l-290 -574h-59l289 574h60zM97 347h140v183z" />
    <glyph glyph-name="f_b.ss01" horiz-adv-x="941" 
d="M32 461v64h74v72q0 132 138 132q74 0 188 -29v29h82v-272q90 79 185 79q89 0 145 -68t56 -206q0 -137 -56 -205t-145 -68q-99 0 -185 78v-67h-82v631q-147 26 -180 26q-65 0 -65 -56v-76h142v-64h-142v-461h-81v461h-74zM684 467q-93 0 -170 -84v-242q76 -83 170 -83
q64 0 97.5 53.5t33.5 150.5t-33.5 151t-97.5 54z" />
    <glyph glyph-name="f_b" horiz-adv-x="959" 
d="M32 461v64h74v72q0 132 114 132q49 0 127 -27l-25 -62q-58 17 -85 17q-50 0 -50 -56v-76h142v-64h-142v-461h-81v461h-74zM436 0v729h83v-272q88 79 185 79q89 0 144.5 -68t55.5 -206t-55.5 -205.5t-144.5 -67.5q-100 0 -185 79v-68h-83zM688 467q-95 0 -169 -85v-240
q75 -84 169 -84q64 0 98 53.5t34 150.5t-34 151t-98 54z" />
    <glyph glyph-name="f.calt" horiz-adv-x="355" 
d="M32 461v64h74v72q0 132 114 132q49 0 127 -27l-25 -62q-58 17 -85 17q-50 0 -50 -56v-76h142v-64h-142v-461h-81v461h-74z" />
    <glyph glyph-name="frenchfranc" horiz-adv-x="593" 
d="M556 625h-357v-238h285v-74h-285v-127h179v-56h-179v-130h-87v130h-59v56h59v514h444v-75z" />
    <glyph glyph-name="frenchfranc.onum" horiz-adv-x="533" 
d="M494 505h-310v-184h247v-68h-247v-100h157v-50h-157v-103h-81v103h-52v50h52v421h391v-69z" />
    <glyph glyph-name="frenchfrancinferior" horiz-adv-x="387" 
d="M362 214h-222v-127h177v-54h-177v-71h113v-38h-113v-74h-66v74h-39v38h39v308h288v-56z" />
    <glyph glyph-name="frenchfrancsuperior" horiz-adv-x="387" 
d="M361 749h-222v-127h177v-54h-177v-71h114v-38h-114v-74h-66v74h-38v38h38v308h288v-56z" />
    <glyph glyph-name="fsuperior" horiz-adv-x="236" 
d="M23 652v48h45v34q0 88 81 88q50 0 102 -22l-23 -45q-56 14 -67 14q-29 0 -29 -33v-36h87v-48h-87v-267h-64v267h-45z" />
    <glyph glyph-name="Tinferior" horiz-adv-x="370" 
d="M355 214h-137v-364h-66v364h-136v56h339v-56z" />
    <glyph glyph-name="Thorn.sc" horiz-adv-x="585" 
d="M537 297q0 -178 -228 -178h-141v-119h-81v574h81v-101h141q228 0 228 -176zM454 297q0 108 -152 108h-134v-218h134q152 0 152 110z" />
    <glyph glyph-name="Tcedilla.sc" horiz-adv-x="511" 
d="M137 -153l21 50q29 -14 51 -14q56 0 56 46q0 32 -29 71h-21v504h-191v70h462v-70h-189v-504h-18q38 -44 38 -89q0 -39 -28 -61t-73 -22q-41 0 -79 19z" />
    <glyph glyph-name="Tcaron.sc" horiz-adv-x="511" 
d="M486 504h-189v-504h-82v504h-191v70h462v-70zM402 754l-100 -130h-95l-99 130h62l85 -86l85 86h62z" />
    <glyph glyph-name="Tbar.sc" horiz-adv-x="520" 
d="M490 504h-189v-268h93v-51h-93v-185h-82v185h-94v51h94v268h-191v70h462v-70z" />
    <glyph glyph-name="germandblsinferior" horiz-adv-x="418" 
d="M200 289q67 0 106.5 -30t39.5 -76q0 -16 -5 -29.5t-10 -19.5l-5 -5q-62 -19 -62 -49q0 -7 2.5 -13t9.5 -12t13 -10t19 -12.5t21 -13.5q31 -21 46.5 -40t15.5 -48q0 -40 -29.5 -64t-75.5 -24q-61 0 -127 35l23 42q58 -28 97 -28q21 0 34.5 10t13.5 29q0 26 -46 51
q-2 1 -9 5t-10 5.5t-10 6t-10.5 7t-9.5 7.5t-9.5 9.5t-7.5 10t-6 11.5t-3.5 13.5t-1.5 15.5q0 20 7.5 35.5t21.5 26t24 15.5t25 11q3 7 3 18q0 27 -21.5 43.5t-60.5 16.5q-88 0 -88 -104v-285h-63v288q0 151 148 151z" />
    <glyph glyph-name="germandblssuperior" horiz-adv-x="418" 
d="M200 824q67 0 106.5 -30t39.5 -76q0 -16 -5 -29.5t-10 -18.5l-5 -6q-62 -19 -62 -49q0 -7 2.5 -13t9.5 -12t13 -10t19 -12.5t21 -13.5q31 -21 46.5 -40t15.5 -48q0 -40 -29.5 -64t-75.5 -24q-61 0 -127 35l23 42q58 -28 97 -28q21 0 34.5 10t13.5 29q0 26 -46 51
q-2 1 -9 5t-10 5.5t-10 6t-10.5 7t-9.5 7.5t-9.5 9.5t-7.5 10t-6 11.5t-3.5 13.5t-1.5 15.5q0 20 7.5 35.5t21.5 26t24 15.5t25 11q3 8 3 18q0 27 -21.5 43.5t-60.5 16.5q-88 0 -88 -104v-285h-63v288q0 151 148 151z" />
    <glyph glyph-name="ginferior" horiz-adv-x="391" 
d="M277 165h63v-327q0 -116 -131 -116q-77 0 -159 23q10 38 14 50q90 -24 134 -24q41 0 60 15t19 49v54q-52 -46 -115 -46q-57 0 -92 41.5t-35 122.5q0 82 35 123.5t92 41.5q62 0 115 -47v40zM177 -106q54 0 100 48v131q-45 47 -100 47q-77 0 -77 -113t77 -113z" />
    <glyph glyph-name="T.sc" horiz-adv-x="511" 
d="M486 504h-189v-504h-82v504h-191v70h462v-70z" />
    <glyph glyph-name="Ssuperior" horiz-adv-x="393" 
d="M232 623q28 -9 47 -17.5t41.5 -23t34.5 -36t12 -49.5q0 -55 -43.5 -87t-108.5 -32q-91 0 -186 53l32 48q83 -46 152 -46q36 0 61 15.5t25 44.5q0 10 -3 18t-12 15.5t-15.5 12t-22.5 11t-24 9.5t-29.5 9.5t-29.5 9.5q-56 17 -90 43.5t-34 74.5q0 53 40.5 84.5t105.5 31.5
q85 0 165 -41l-29 -48q-76 34 -133 34q-34 0 -57.5 -14.5t-23.5 -42.5q0 -9 3 -17t10 -14t14 -10.5t20 -9.5t22.5 -8.5t27 -8.5t28.5 -9z" />
    <glyph glyph-name="Ubreve.sc" horiz-adv-x="625" 
d="M544 574v-360q0 -223 -231 -223q-127 0 -179.5 59.5t-52.5 163.5v360h81v-364q0 -70 32.5 -109.5t118.5 -39.5q85 0 117.5 39.5t32.5 109.5v364h81zM311 624q-67 0 -104.5 28.5t-37.5 78.5h59q0 -53 83 -53q84 0 84 53h60q0 -50 -38 -78.5t-106 -28.5z" />
    <glyph glyph-name="gsuperior" horiz-adv-x="391" 
d="M277 700h63v-327q0 -116 -131 -116q-77 0 -159 23q10 38 14 50q90 -24 134 -24q41 0 60 15t19 49v54q-52 -46 -115 -46q-57 0 -92 41.5t-35 122.5q0 82 35 123.5t92 41.5q62 0 115 -47v40zM177 429q54 0 100 48v131q-45 47 -100 47q-77 0 -77 -113t77 -113z" />
    <glyph glyph-name="Sinferior" horiz-adv-x="393" 
d="M232 88q28 -9 47 -17.5t41.5 -23t34.5 -36t12 -49.5q0 -55 -43.5 -87t-108.5 -32q-91 0 -186 53l32 48q83 -46 152 -46q36 0 61 15.5t25 44.5q0 10 -3 18t-12 15.5t-15.5 12t-22.5 11t-24 9.5t-29.5 9.5t-29.5 9.5q-56 17 -90 43.5t-34 74.5q0 53 40.5 84.5t105.5 31.5
q85 0 165 -41l-29 -48q-76 34 -133 34q-34 0 -57.5 -14.5t-23.5 -42.5q0 -9 3 -17t10 -14t14 -10.5t20 -9.5t22.5 -8.5t27 -8.5t28.5 -9z" />
    <glyph glyph-name="Scommaaccent.sc" horiz-adv-x="542" 
d="M312 325q40 -13 66.5 -24.5t58.5 -31.5t48.5 -50t16.5 -69q0 -74 -60 -116.5t-149 -42.5q-122 0 -248 71l38 60q45 -25 103.5 -44t107.5 -19q51 0 88 22.5t37 64.5q0 50 -76 83q-23 9 -111 38q-39 13 -63.5 23.5t-53 29t-42.5 45.5t-14 63q0 71 55.5 113t141.5 42
q110 0 224 -55l-39 -60q-98 46 -184 46q-48 0 -81 -20.5t-33 -61.5q0 -16 7 -29t16 -21t28.5 -17t32.5 -13.5t42 -13t43 -13.5zM239 -160v97h80l9 -101l-71 -108l-24 26l43 86h-37z" />
    <glyph glyph-name="exclamsuperior" horiz-adv-x="178" 
d="M55 385v76h70v-76h-70zM128 805l-19 -291h-39l-20 291h78z" />
    <glyph glyph-name="exclaminferior" horiz-adv-x="178" 
d="M55 -150v76h70v-76h-70zM128 270l-19 -291h-39l-20 291h78z" />
    <glyph glyph-name="Scircumflex.sc" horiz-adv-x="542" 
d="M312 325q40 -13 66.5 -24.5t58.5 -31.5t48.5 -50t16.5 -69q0 -74 -60 -116.5t-149 -42.5q-122 0 -248 71l38 60q45 -25 103.5 -44t107.5 -19q51 0 88 22.5t37 64.5q0 50 -76 83q-23 9 -111 38q-39 13 -63.5 23.5t-53 29t-42.5 45.5t-14 63q0 71 55.5 113t141.5 42
q110 0 224 -55l-39 -60q-98 46 -184 46q-48 0 -81 -20.5t-33 -61.5q0 -16 7 -29t16 -21t28.5 -17t32.5 -13.5t42 -13t43 -13.5zM321 754l100 -130h-62l-85 85l-85 -85h-62l99 130h95z" />
    <glyph glyph-name="Scedilla.sc" horiz-adv-x="542" 
d="M169 -153l21 50q29 -14 51 -14q56 0 56 46q0 27 -23 63q-115 5 -229 70l38 60q45 -25 103.5 -44t107.5 -19q51 0 88 22.5t37 64.5q0 50 -76 83q-23 9 -111 38q-39 13 -63.5 23.5t-53 29t-42.5 45.5t-14 63q0 71 55.5 113t141.5 42q110 0 224 -55l-39 -60q-98 46 -184 46
q-48 0 -81 -20.5t-33 -61.5q0 -16 7 -29t16 -21t28.5 -17t32.5 -13.5t42 -13t43 -13.5q40 -13 66.5 -24.5t58.5 -31.5t48.5 -50t16.5 -69q0 -69 -52 -110.5t-133 -47.5q32 -40 32 -81q0 -39 -28 -61t-73 -22q-41 0 -79 19z" />
    <glyph glyph-name="hinferior" horiz-adv-x="393" 
d="M115 287v-165q68 50 135 50q94 0 94 -99v-223h-63v211q0 60 -53 60q-29 0 -61 -15t-52 -32v-224h-63v437h63z" />
    <glyph glyph-name="Scaron.sc" horiz-adv-x="542" 
d="M312 325q40 -13 66.5 -24.5t58.5 -31.5t48.5 -50t16.5 -69q0 -74 -60 -116.5t-149 -42.5q-122 0 -248 71l38 60q45 -25 103.5 -44t107.5 -19q51 0 88 22.5t37 64.5q0 50 -76 83q-23 9 -111 38q-39 13 -63.5 23.5t-53 29t-42.5 45.5t-14 63q0 71 55.5 113t141.5 42
q110 0 224 -55l-39 -60q-98 46 -184 46q-48 0 -81 -20.5t-33 -61.5q0 -16 7 -29t16 -21t28.5 -17t32.5 -13.5t42 -13t43 -13.5zM420 754l-100 -130h-95l-99 130h62l85 -86l85 86h62z" />
    <glyph glyph-name="exclamdownsuperior" horiz-adv-x="178" 
d="M123 805v-76h-70v76h70zM50 385l19 291h39l20 -291h-78z" />
    <glyph glyph-name="Sacute.sc" horiz-adv-x="542" 
d="M312 325q40 -13 66.5 -24.5t58.5 -31.5t48.5 -50t16.5 -69q0 -74 -60 -116.5t-149 -42.5q-122 0 -248 71l38 60q45 -25 103.5 -44t107.5 -19q51 0 88 22.5t37 64.5q0 50 -76 83q-23 9 -111 38q-39 13 -63.5 23.5t-53 29t-42.5 45.5t-14 63q0 71 55.5 113t141.5 42
q110 0 224 -55l-39 -60q-98 46 -184 46q-48 0 -81 -20.5t-33 -61.5q0 -16 7 -29t16 -21t28.5 -17t32.5 -13.5t42 -13t43 -13.5zM265 624h-69l122 130h114z" />
    <glyph glyph-name="S.sc" horiz-adv-x="542" 
d="M312 325q40 -13 66.5 -24.5t58.5 -31.5t48.5 -50t16.5 -69q0 -74 -60 -116.5t-149 -42.5q-122 0 -248 71l38 60q45 -25 103.5 -44t107.5 -19q51 0 88 22.5t37 64.5q0 50 -76 83q-23 9 -111 38q-39 13 -63.5 23.5t-53 29t-42.5 45.5t-14 63q0 71 55.5 113t141.5 42
q110 0 224 -55l-39 -60q-98 46 -184 46q-48 0 -81 -20.5t-33 -61.5q0 -16 7 -29t16 -21t28.5 -17t32.5 -13.5t42 -13t43 -13.5z" />
    <glyph glyph-name="Rsuperior" horiz-adv-x="441" 
d="M335 385l-112 173h-98v-173h-65v420h178q168 0 168 -124q0 -102 -116 -120l117 -176h-72zM339 681q0 72 -102 72h-112v-143h110q104 0 104 71z" />
    <glyph glyph-name="Rinferior" horiz-adv-x="441" 
d="M335 -150l-112 173h-98v-173h-65v420h178q168 0 168 -124q0 -102 -116 -120l117 -176h-72zM339 146q0 72 -102 72h-112v-143h110q104 0 104 71z" />
    <glyph glyph-name="Rcommaaccent.sc" horiz-adv-x="611" 
d="M468 0l-156 240h-144v-240h-81v574h240q230 0 230 -168q0 -140 -163 -162l164 -244h-90zM473 406q0 102 -146 102h-159v-203h156q149 0 149 101zM261 -160v97h80l9 -101l-71 -108l-24 26l43 86h-37z" />
    <glyph glyph-name="Rcaron.sc" horiz-adv-x="611" 
d="M468 0l-156 240h-144v-240h-81v574h240q230 0 230 -168q0 -140 -163 -162l164 -244h-90zM473 406q0 102 -146 102h-159v-203h156q149 0 149 101zM469 754l-100 -130h-95l-99 130h62l85 -86l85 86h62z" />
    <glyph glyph-name="Racute.sc" horiz-adv-x="611" 
d="M468 0l-156 240h-144v-240h-81v574h240q230 0 230 -168q0 -140 -163 -162l164 -244h-90zM473 406q0 102 -146 102h-159v-203h156q149 0 149 101zM312 624h-69l122 130h114z" />
    <glyph glyph-name="iinferior" horiz-adv-x="166" 
d="M115 -150h-64v315h64v-315zM49 222v64h70v-64h-70z" />
    <glyph glyph-name="R.sc" horiz-adv-x="611" 
d="M468 0l-156 240h-144v-240h-81v574h240q230 0 230 -168q0 -140 -163 -162l164 -244h-90zM473 406q0 102 -146 102h-159v-203h156q149 0 149 101z" />
    <glyph glyph-name="Qsuperior" horiz-adv-x="477" 
d="M238 378q-102 0 -150 60t-48 157t48 157t150 60t150.5 -60t48.5 -157q0 -77 -31 -132t-95 -75l71 -54l-44 -45zM238 435q132 0 132 160t-132 160q-131 0 -131 -160t131 -160z" />
    <glyph glyph-name="exclamdowninferior" horiz-adv-x="178" 
d="M124 270v-76h-70v76h70zM51 -150l19 291h39l20 -291h-78z" />
    <glyph glyph-name="exclamdown.sc" horiz-adv-x="254" 
d="M172 574v-101h-89v101h89zM80 0l23 400h48l23 -400h-94z" />
    <glyph glyph-name="Qinferior" horiz-adv-x="477" 
d="M238 -157q-102 0 -150 60t-48 157t48 157t150 60t150.5 -60t48.5 -157q0 -77 -31 -132t-95 -75l71 -54l-44 -45zM238 -100q132 0 132 160t-132 160q-131 0 -131 -160t131 -160z" />
    <glyph glyph-name="Ucircumflex.sc" horiz-adv-x="625" 
d="M544 574v-360q0 -223 -231 -223q-127 0 -179.5 59.5t-52.5 163.5v360h81v-364q0 -70 32.5 -109.5t118.5 -39.5q85 0 117.5 39.5t32.5 109.5v364h81zM360 754l100 -130h-62l-85 85l-85 -85h-62l99 130h95z" />
    <glyph glyph-name="Q.sc" horiz-adv-x="656" 
d="M327 -9q-139 1 -204.5 82.5t-65.5 213.5q0 133 65.5 214.5t205.5 81.5q138 0 204 -81.5t66 -214.5q0 -107 -44 -183t-135 -102l100 -75l-56 -56zM328 61q186 0 186 226q0 225 -186 225q-187 0 -187 -225q0 -103 44 -164.5t143 -61.5z" />
    <glyph glyph-name="Psuperior" horiz-adv-x="416" 
d="M392 674q0 -131 -167 -131h-99v-158h-66v420h165q167 0 167 -131zM325 674q0 76 -102 76h-97v-153h97q102 0 102 77z" />
    <glyph glyph-name="Pinferior" horiz-adv-x="416" 
d="M392 139q0 -131 -167 -131h-99v-158h-66v420h165q167 0 167 -131zM325 139q0 76 -102 76h-97v-153h97q102 0 102 77z" />
    <glyph glyph-name="jinferior" horiz-adv-x="168" 
d="M50 222v64h70v-64h-70zM117 165v-320q0 -27 -1 -38.5t-6.5 -27.5t-18 -24t-34.5 -17.5t-57 -17.5l-20 46q54 17 64 28t10 47v324h63z" />
    <glyph glyph-name="exclam.sc" horiz-adv-x="254" 
d="M82 0v101h89v-101h-89zM174 574l-23 -400h-48l-23 400h94z" />
    <glyph glyph-name="P.sc" horiz-adv-x="574" 
d="M537 396q0 -177 -228 -177h-141v-219h-81v574h222q228 0 228 -178zM454 396q0 109 -145 109h-141v-218h141q145 0 145 109z" />
    <glyph glyph-name="Otilde.sc" horiz-adv-x="655" 
d="M328 583q138 0 204 -81.5t66 -214.5q0 -132 -66 -214t-204 -82q-139 0 -205 82t-66 214q0 133 65.5 214.5t205.5 81.5zM328 61q186 0 186 226q0 225 -186 225q-187 0 -187 -225q0 -103 44 -164.5t143 -61.5zM215 634l-45 20q22 42 42 63t51 21q27 0 69.5 -24.5
t56.5 -24.5q25 0 50 46l45 -19q-20 -42 -40.5 -63.5t-52.5 -21.5q-27 0 -69.5 24.5t-56.5 24.5q-25 0 -50 -46z" />
    <glyph glyph-name="Osuperior" horiz-adv-x="477" 
d="M238 812q102 0 150.5 -60t48.5 -157t-48.5 -157t-150.5 -60t-150 60t-48 157t48 157t150 60zM238 435q132 0 132 160t-132 160q-131 0 -131 -160t131 -160z" />
    <glyph glyph-name="kinferior" horiz-adv-x="348" 
d="M318 165l-112 -126l131 -189h-68l-102 146l-52 -59v-87h-63v437h63v-279l130 157h73z" />
    <glyph glyph-name="ksuperior" horiz-adv-x="348" 
d="M318 700l-112 -126l131 -189h-68l-102 145l-52 -58v-87h-63v437h63v-279l130 157h73z" />
    <glyph glyph-name="Oslashacute.sc" horiz-adv-x="653" 
d="M328 583q102 0 166 -47l30 38h63l-57 -71q68 -78 68 -216q0 -132 -66 -214t-204 -82q-103 0 -167 47l-30 -38h-64l57 72q-67 77 -67 215q0 133 65.5 214.5t205.5 81.5zM328 61q186 0 186 226q0 95 -35 151l-270 -340q43 -37 119 -37zM141 287q0 -94 34 -151l271 340
q-45 36 -118 36q-187 0 -187 -225zM318 624h-69l122 130h114z" />
    <glyph glyph-name="Udieresis.sc" horiz-adv-x="625" 
d="M544 574v-360q0 -223 -231 -223q-127 0 -179.5 59.5t-52.5 163.5v360h81v-364q0 -70 32.5 -109.5t118.5 -39.5q85 0 117.5 39.5t32.5 109.5v364h81zM187 634v93h83v-93h-83zM356 634v93h82v-93h-82z" />
    <glyph glyph-name="Omacron.sc" horiz-adv-x="655" 
d="M328 583q138 0 204 -81.5t66 -214.5q0 -132 -66 -214t-204 -82q-139 0 -205 82t-66 214q0 133 65.5 214.5t205.5 81.5zM328 61q186 0 186 226q0 225 -186 225q-187 0 -187 -225q0 -103 44 -164.5t143 -61.5zM181 649v55h292v-55h-292z" />
    <glyph glyph-name="Oinferior" horiz-adv-x="477" 
d="M238 277q102 0 150.5 -60t48.5 -157t-48.5 -157t-150.5 -60t-150 60t-48 157t48 157t150 60zM238 -100q132 0 132 160t-132 160q-131 0 -131 -160t131 -160z" />
    <glyph glyph-name="Ohungarumlaut.sc" horiz-adv-x="655" 
d="M328 583q138 0 204 -81.5t66 -214.5q0 -132 -66 -214t-204 -82q-139 0 -205 82t-66 214q0 133 65.5 214.5t205.5 81.5zM328 61q186 0 186 226q0 225 -186 225q-187 0 -187 -225q0 -103 44 -164.5t143 -61.5zM410 624h-52l77 130h97zM259 624h-53l79 130h95z" />
    <glyph glyph-name="Ograve.sc" horiz-adv-x="655" 
d="M328 583q138 0 204 -81.5t66 -214.5q0 -132 -66 -214t-204 -82q-139 0 -205 82t-66 214q0 133 65.5 214.5t205.5 81.5zM328 61q186 0 186 226q0 225 -186 225q-187 0 -187 -225q0 -103 44 -164.5t143 -61.5zM407 624h-70l-166 130h112z" />
    <glyph glyph-name="Ugrave.sc" horiz-adv-x="625" 
d="M544 574v-360q0 -223 -231 -223q-127 0 -179.5 59.5t-52.5 163.5v360h81v-364q0 -70 32.5 -109.5t118.5 -39.5q85 0 117.5 39.5t32.5 109.5v364h81zM391 624h-70l-166 130h112z" />
    <glyph glyph-name="linferior" horiz-adv-x="171" 
d="M117 -150h-63v437h63v-437z" />
    <glyph glyph-name="Uhungarumlaut.sc" horiz-adv-x="625" 
d="M544 574v-360q0 -223 -231 -223q-127 0 -179.5 59.5t-52.5 163.5v360h81v-364q0 -70 32.5 -109.5t118.5 -39.5q85 0 117.5 39.5t32.5 109.5v364h81zM395 624h-52l77 130h97zM244 624h-53l79 130h95z" />
    <glyph glyph-name="lira.onum" horiz-adv-x="501" 
d="M71 269v46h61q-1 2 -10 15.5t-11 17t-9 15.5t-9.5 18.5t-6 18t-5 22t-1.5 21.5q0 63 47 101.5t126 38.5q84 0 197 -60l-38 -55q-92 46 -149 46q-48 0 -75 -23.5t-27 -58.5q0 -15 6 -31.5t12.5 -27.5t19 -29.5t18.5 -28.5h165v-46h-144q6 -19 6 -43q0 -2 -0.5 -5t-0.5 -4
h139v-46h-148q-21 -57 -70 -103h276v-68h-379v57q8 5 20.5 14.5t38 39t37.5 60.5h-86v46h95v3q0 24 -10 49h-85z" />
    <glyph glyph-name="lirainferior" horiz-adv-x="362" 
d="M47 47v35h44q-1 2 -3 5q-32 51 -33 86q0 47 34.5 75.5t92.5 28.5q64 0 146 -46l-30 -43q-65 34 -107 34q-33 0 -51.5 -16.5t-18.5 -41.5q0 -14 5 -26t18 -31t16 -25h120v-35h-104q5 -17 5 -32v-5h99v-34h-106q-16 -46 -49 -71h196v-55h-280v45q6 3 15 10t28.5 28t27.5 43
h-65v34h71v1q0 17 -7 36h-64z" />
    <glyph glyph-name="lirasuperior" horiz-adv-x="362" 
d="M47 582v35h44q-31 47 -35 74q-1 8 -1 17q0 47 34.5 75.5t92.5 28.5q64 0 146 -46l-30 -43q-65 34 -107 34q-33 0 -51.5 -16.5t-18.5 -41.5q0 -14 5 -26t18 -31t16 -25h120v-35h-104q5 -17 5 -32v-5h99v-34h-106q-16 -46 -49 -71h196v-55h-280v45q6 3 15 10t28.5 28
t27.5 43h-65v34h71v1q0 17 -7 36h-64z" />
    <glyph glyph-name="Odieresis.sc" horiz-adv-x="655" 
d="M328 583q138 0 204 -81.5t66 -214.5q0 -132 -66 -214t-204 -82q-139 0 -205 82t-66 214q0 133 65.5 214.5t205.5 81.5zM328 61q186 0 186 226q0 225 -186 225q-187 0 -187 -225q0 -103 44 -164.5t143 -61.5zM201 634v93h83v-93h-83zM370 634v93h82v-93h-82z" />
    <glyph glyph-name="Ocircumflex.sc" horiz-adv-x="655" 
d="M328 583q138 0 204 -81.5t66 -214.5q0 -132 -66 -214t-204 -82q-139 0 -205 82t-66 214q0 133 65.5 214.5t205.5 81.5zM328 61q186 0 186 226q0 225 -186 225q-187 0 -187 -225q0 -103 44 -164.5t143 -61.5zM374 754l100 -130h-62l-85 85l-85 -85h-62l99 130h95z" />
    <glyph glyph-name="Uinferior" horiz-adv-x="452" 
d="M397 270v-261q0 -166 -170 -166q-94 0 -132.5 44.5t-38.5 121.5v261h66v-265q0 -50 22.5 -77.5t82.5 -27.5q59 0 81.5 27.5t22.5 77.5v265h66z" />
    <glyph glyph-name="Obreve.sc" horiz-adv-x="655" 
d="M328 583q138 0 204 -81.5t66 -214.5q0 -132 -66 -214t-204 -82q-139 0 -205 82t-66 214q0 133 65.5 214.5t205.5 81.5zM328 61q186 0 186 226q0 225 -186 225q-187 0 -187 -225q0 -103 44 -164.5t143 -61.5zM326 624q-67 0 -104.5 28.5t-37.5 78.5h59q0 -53 83 -53
q84 0 84 53h60q0 -50 -38 -78.5t-106 -28.5z" />
    <glyph glyph-name="Umacron.sc" horiz-adv-x="625" 
d="M544 574v-360q0 -223 -231 -223q-127 0 -179.5 59.5t-52.5 163.5v360h81v-364q0 -70 32.5 -109.5t118.5 -39.5q85 0 117.5 39.5t32.5 109.5v364h81zM167 649v55h292v-55h-292z" />
    <glyph glyph-name="Oacute.sc" horiz-adv-x="655" 
d="M328 583q138 0 204 -81.5t66 -214.5q0 -132 -66 -214t-204 -82q-139 0 -205 82t-66 214q0 133 65.5 214.5t205.5 81.5zM328 61q186 0 186 226q0 225 -186 225q-187 0 -187 -225q0 -103 44 -164.5t143 -61.5zM318 624h-69l122 130h114z" />
    <glyph glyph-name="OE.sc" horiz-adv-x="965" 
d="M912 0h-396v56q-68 -65 -188 -65q-139 0 -205 82t-66 214q0 133 65.5 214.5t205.5 81.5q118 0 188 -65v56h391v-69h-310v-184h256v-68h-256v-185h315v-68zM328 61q186 0 186 226q0 225 -186 225q-187 0 -187 -225q0 -103 44 -164.5t143 -61.5z" />
    <glyph glyph-name="minferior" horiz-adv-x="589" 
d="M115 165v-45q59 52 120 52q68 0 87 -58q61 58 127 58q92 0 92 -99v-223h-63v211q0 60 -51 60q-47 0 -99 -50v-221h-64v211q0 60 -50 60q-49 0 -99 -50v-221h-63v315h63z" />
    <glyph glyph-name="Uogonek.sc" horiz-adv-x="626" 
d="M298 -96q0 -7 1.5 -12.5t5.5 -9t7.5 -6.5t9.5 -4.5t10.5 -2.5t12 -1.5t11 -0.5h11.5h10l-10 -50q-134 0 -134 78q0 51 82 96h-2q-127 0 -179.5 59.5t-52.5 163.5v360h81v-364q0 -70 32.5 -109.5t118.5 -39.5q85 0 117.5 39.5t32.5 109.5v364h81v-360q0 -180 -149 -214
q-30 -18 -44.5 -26.5t-33.5 -29.5t-19 -40z" />
    <glyph glyph-name="einferior" horiz-adv-x="370" 
d="M332 -7h-233q4 -48 27.5 -75t61.5 -27q46 0 123 42l27 -40q-82 -50 -154 -50q-65 0 -107.5 42.5t-42.5 121.5q0 78 43 121.5t115 43.5q69 0 106.5 -38.5t37.5 -99.5zM191 125q-39 0 -62.5 -25t-28.5 -70h174q0 95 -83 95z" />
    <glyph glyph-name="O.sc" horiz-adv-x="655" 
d="M328 583q138 0 204 -81.5t66 -214.5q0 -132 -66 -214t-204 -82q-139 0 -205 82t-66 214q0 133 65.5 214.5t205.5 81.5zM328 61q186 0 186 226q0 225 -186 225q-187 0 -187 -225q0 -103 44 -164.5t143 -61.5z" />
    <glyph glyph-name="Ntilde.sc" horiz-adv-x="648" 
d="M476 0l-308 461v-461h-81v574h85l308 -463v463h81v-574h-85zM216 634l-45 20q22 42 42 63t51 21q27 0 69.5 -24.5t56.5 -24.5q25 0 50 46l45 -19q-20 -42 -40.5 -63.5t-52.5 -21.5q-27 0 -69.5 24.5t-56.5 24.5q-25 0 -50 -46z" />
    <glyph glyph-name="Nsuperior" horiz-adv-x="468" 
d="M341 385l-215 326v-326h-66v420h67l216 -327v327h67v-420h-69z" />
    <glyph glyph-name="Ninferior" horiz-adv-x="468" 
d="M341 -150l-215 326v-326h-66v420h67l216 -327v327h67v-420h-69z" />
    <glyph glyph-name="Ncommaaccent.sc" horiz-adv-x="648" 
d="M476 0l-308 461v-461h-81v574h85l308 -463v463h81v-574h-85zM286 -160v97h80l9 -101l-71 -108l-24 26l43 86h-37z" />
    <glyph glyph-name="Ncaron.sc" horiz-adv-x="648" 
d="M476 0l-308 461v-461h-81v574h85l308 -463v463h81v-574h-85zM475 754l-100 -130h-95l-99 130h62l85 -86l85 86h62z" />
    <glyph glyph-name="Nacute.sc" horiz-adv-x="648" 
d="M476 0l-308 461v-461h-81v574h85l308 -463v463h81v-574h-85zM315 624h-69l122 130h114z" />
    <glyph glyph-name="N.sc" horiz-adv-x="648" 
d="M476 0l-308 461v-461h-81v574h85l308 -463v463h81v-574h-85z" />
    <glyph glyph-name="nine.dnom" horiz-adv-x="415" 
d="M128 47q62 0 108 38.5t60 108.5q-46 -43 -115 -43q-65 0 -103 37.5t-38 94.5q0 60 43 102t115 42q82 0 125.5 -53t43.5 -134q0 -106 -66.5 -176.5t-171.5 -70.5q-16 0 -31 1.5t-22 3.5l-8 2l17 52q18 -5 43 -5zM196 201q37 0 65.5 17t39.5 37q-2 56 -29.5 87t-72.5 31
t-69.5 -26.5t-24.5 -61.5q0 -34 23.5 -59t67.5 -25z" />
    <glyph glyph-name="eight.onum" horiz-adv-x="624" 
d="M53 181q0 126 169 197q-128 58 -128 164q0 77 60.5 123t157.5 46t157.5 -46t60.5 -123q0 -106 -128 -164q170 -71 170 -197q0 -89 -73 -140.5t-187 -51.5t-186.5 51.5t-72.5 140.5zM483 184q0 57 -46.5 94t-124.5 66q-36 -13 -63 -26.5t-53.5 -32.5t-40.5 -45t-14 -56
q0 -57 49 -91.5t122 -34.5t122 34.5t49 91.5zM179 535q0 -79 133 -125q133 47 133 125q0 45 -37.5 76.5t-95.5 31.5q-57 0 -95 -32t-38 -76z" />
    <glyph glyph-name="nine.onum" horiz-adv-x="604" 
d="M182 -66q96 0 174 67t100 202q-71 -79 -187 -79q-104 0 -164 63.5t-60 158.5q0 99 67 168t178 69q65 0 116 -25t81.5 -67t46.5 -93t16 -107q1 -201 -106.5 -315.5t-259.5 -114.5q-24 0 -47 2.5t-35 5.5l-11 3l21 70q31 -8 70 -8zM286 193q63 0 111 31.5t66 68.5v4
q0 91 -45 152t-127 61q-75 0 -117 -48.5t-42 -114.5q0 -62 39 -108t115 -46z" />
    <glyph glyph-name="eight.numr" horiz-adv-x="422" 
d="M42 390q0 74 104 117q-77 37 -77 98q0 46 39.5 74t103.5 28t103 -28t39 -74q0 -61 -78 -98q104 -44 104 -117q0 -54 -47 -85.5t-121 -31.5q-76 0 -123 31.5t-47 85.5zM312 394q0 52 -101 88q-102 -36 -102 -88q0 -32 29.5 -51t73.5 -19q43 0 71.5 19t28.5 51zM133 599
q0 -26 21.5 -41.5t56.5 -27.5q78 28 78 69q0 24 -22 41t-55 17q-35 0 -57 -17t-22 -41z" />
    <glyph glyph-name="eight.dnom" horiz-adv-x="422" 
d="M42 110q0 74 104 117q-77 37 -77 98q0 46 39.5 74t103.5 28t103 -28t39 -74q0 -61 -78 -98q104 -44 104 -117q0 -54 -47 -85.5t-121 -31.5q-76 0 -123 31.5t-47 85.5zM312 114q0 52 -101 88q-102 -36 -102 -88q0 -32 29.5 -51t73.5 -19q43 0 71.5 19t28.5 51zM133 319
q0 -26 21.5 -41.5t56.5 -27.5q78 28 78 69q0 24 -22 41t-55 17q-35 0 -57 -17t-22 -41z" />
    <glyph glyph-name="Uring.sc" horiz-adv-x="625" 
d="M544 574v-360q0 -223 -231 -223q-127 0 -179.5 59.5t-52.5 163.5v360h81v-364q0 -70 32.5 -109.5t118.5 -39.5q85 0 117.5 39.5t32.5 109.5v364h81zM208 717q0 44 30 74.5t73 30.5t74 -31t31 -74t-30.5 -73t-74.5 -30q-43 0 -73 30t-30 73zM255 717q0 -23 16.5 -39.5
t39.5 -16.5q24 0 40.5 16.5t16.5 39.5q0 24 -16.5 40.5t-40.5 16.5q-23 0 -39.5 -16.5t-16.5 -40.5z" />
    <glyph glyph-name="ninferior" horiz-adv-x="393" 
d="M115 165v-43q68 50 135 50q94 0 94 -99v-223h-63v211q0 60 -53 60q-29 0 -61 -15t-52 -32v-224h-63v315h63z" />
    <glyph glyph-name="Usuperior" horiz-adv-x="452" 
d="M397 805v-261q0 -166 -170 -166q-94 0 -132.5 44.5t-38.5 121.5v261h66v-265q0 -50 22.5 -77.5t82.5 -27.5q59 0 81.5 27.5t22.5 77.5v265h66z" />
    <glyph glyph-name="Utilde.sc" horiz-adv-x="625" 
d="M544 574v-360q0 -223 -231 -223q-127 0 -179.5 59.5t-52.5 163.5v360h81v-364q0 -70 32.5 -109.5t118.5 -39.5q85 0 117.5 39.5t32.5 109.5v364h81zM200 634l-45 20q22 42 42 63t51 21q27 0 69.5 -24.5t56.5 -24.5q25 0 50 46l45 -19q-20 -42 -40.5 -63.5t-52.5 -21.5
q-27 0 -69.5 24.5t-56.5 24.5q-25 0 -50 -46z" />
    <glyph glyph-name="Msuperior" horiz-adv-x="539" 
d="M415 385v318l-124 -248h-41l-124 246v-316h-66v420h68l142 -280l143 280h68v-420h-66z" />
    <glyph glyph-name="Minferior" horiz-adv-x="539" 
d="M415 -150v318l-124 -248h-41l-124 246v-316h-66v420h68l142 -280l143 280h68v-420h-66z" />
    <glyph glyph-name="numbersign.onum" horiz-adv-x="667" 
d="M368 0l23 143h-164l-23 -143h-64l23 143h-114v62h125l27 163h-114v62h124l24 144h64l-24 -144h164l24 144h63l-24 -144h116v-62h-126l-27 -163h116v-62h-127l-23 -143h-63zM265 368l-27 -163h164l27 163h-164z" />
    <glyph glyph-name="numbersigninferior" horiz-adv-x="476" 
d="M260 -150l17 103h-114l-16 -103h-51l16 103h-81v48h89l19 117h-81v49h89l17 103h51l-17 -103h114l17 103h50l-17 -103h82v-49h-90l-19 -117h82v-48h-90l-17 -103h-50zM190 118l-19 -117h114l19 117h-114z" />
    <glyph glyph-name="numbersignsuperior" horiz-adv-x="476" 
d="M260 385l17 103h-114l-16 -103h-51l16 103h-81v48h89l19 117h-81v49h89l17 103h51l-17 -103h114l17 103h50l-17 -103h82v-49h-90l-19 -117h82v-48h-90l-17 -103h-50zM190 653l-19 -117h114l19 117h-114z" />
    <glyph glyph-name="M.sc" horiz-adv-x="746" 
d="M578 0v450l-180 -354h-49l-181 356v-452h-81v574h85l201 -393l201 393h85v-574h-81z" />
    <glyph glyph-name="Lsuperior" horiz-adv-x="357" 
d="M341 385h-281v420h66v-365h215v-55z" />
    <glyph glyph-name="Lslash.sc" horiz-adv-x="499" 
d="M475 0h-381v217l-64 -34v75l64 34v282h81v-239l118 63v-76l-118 -63v-190h300v-69z" />
    <glyph glyph-name="Linferior" horiz-adv-x="357" 
d="M341 -150h-281v420h66v-365h215v-55z" />
    <glyph glyph-name="Ldot.sc" horiz-adv-x="495" 
d="M468 0h-381v574h81v-505h300v-69zM336 256v93h83v-93h-83z" />
    <glyph glyph-name="Lcommaaccent.sc" horiz-adv-x="493" 
d="M468 0h-381v574h81v-505h300v-69zM234 -160v97h80l9 -101l-71 -108l-24 26l43 86h-37z" />
    <glyph glyph-name="V.sc" horiz-adv-x="614" 
d="M120 574l186 -494l188 494h92l-235 -574h-89l-235 574h93z" />
    <glyph glyph-name="Lcaron.sc" horiz-adv-x="493" 
d="M468 0h-381v574h81v-505h300v-69zM213 477v97h80l9 -101l-71 -108l-24 26l43 86h-37z" />
    <glyph glyph-name="Lacute.sc" horiz-adv-x="493" 
d="M469 0h-381v574h81v-505h300v-69zM119 624h-69l122 130h114z" />
    <glyph glyph-name="oinferior" horiz-adv-x="390" 
d="M355 7q0 -77 -41.5 -120.5t-118.5 -43.5t-118.5 43.5t-41.5 120.5q0 78 41.5 121.5t118.5 43.5t118.5 -43.5t41.5 -121.5zM291 7q0 115 -96 115t-96 -115q0 -114 96 -114t96 114z" />
    <glyph glyph-name="L.sc" horiz-adv-x="493" 
d="M468 0h-381v574h81v-505h300v-69z" />
    <glyph glyph-name="Ksuperior" horiz-adv-x="426" 
d="M60 385v420h66v-225l196 225h79l-179 -200l196 -220h-79l-157 176l-56 -63v-113h-66z" />
    <glyph glyph-name="one.dnom" horiz-adv-x="264" 
d="M193 0h-66v357l-78 -39l-28 44l111 58h61v-420z" />
    <glyph glyph-name="one.numr" horiz-adv-x="264" 
d="M193 280h-66v357l-78 -39l-28 44l111 58h61v-420z" />
    <glyph glyph-name="one.onum" horiz-adv-x="360" 
d="M272 0h-87v487l-125 -65l-36 59l169 93h79v-574z" />
    <glyph glyph-name="Vinferior" horiz-adv-x="440" 
d="M90 270l130 -356l130 356h76l-169 -420h-73l-169 420h75z" />
    <glyph glyph-name="Vsuperior" horiz-adv-x="440" 
d="M90 805l130 -356l130 356h76l-169 -420h-73l-169 420h75z" />
    <glyph glyph-name="oneeighth.onum" horiz-adv-x="740" 
d="M397 90q0 62 91 97q-68 29 -68 79q0 38 34 61t90 23q55 0 88.5 -23t33.5 -61q0 -50 -67 -80q91 -35 91 -96q0 -44 -40.5 -70t-105.5 -26t-106 26t-41 70zM493 574l-290 -574h-60l290 574h60zM178 230h-56v292l-67 -32l-23 36l95 48h51v-344zM634 93q0 18 -15 33.5
t-32 23.5t-43 17q-90 -32 -90 -74q0 -26 25.5 -41t64.5 -15t64.5 15t25.5 41zM475 260q0 -36 68 -56q69 22 69 56q0 20 -19.5 34.5t-48.5 14.5q-30 0 -49.5 -15t-19.5 -34z" />
    <glyph glyph-name="onefifth" horiz-adv-x="834" 
d="M200 280h-66v357l-78 -39l-28 44l111 58h61v-420zM562 700l-334 -700h-70l334 700h70zM486 211l24 209h251v-55h-197l-9 -110q35 14 73 14q70 0 111 -39t41 -96q0 -58 -42 -99.5t-119 -41.5q-73 0 -151 46l30 49q52 -38 113 -38q42 0 71 23t29 60q0 36 -25.5 59.5
t-71.5 23.5q-44 0 -91 -25z" />
    <glyph glyph-name="onefifth.onum" horiz-adv-x="737" 
d="M428 173l20 171h217v-45h-172l-9 -90q31 12 66 12q60 0 95.5 -32.5t35.5 -78.5q0 -48 -36.5 -82t-102.5 -34q-63 0 -130 38l25 40q47 -31 97 -31q38 0 64 19t26 50q0 28 -23 47.5t-63 19.5q-41 0 -81 -21zM493 574l-290 -574h-60l290 574h60zM178 230h-56v292l-67 -32
l-23 36l95 48h51v-344z" />
    <glyph glyph-name="Kinferior" horiz-adv-x="426" 
d="M60 -150v420h66v-225l196 225h79l-179 -200l196 -220h-79l-157 176l-56 -62v-114h-66z" />
    <glyph glyph-name="onehalf.onum" horiz-adv-x="738" 
d="M178 230h-56v292l-67 -32l-23 36l95 48h51v-344zM493 574l-290 -574h-60l290 574h60zM682 46v-46h-265v30q0 25 9 46t30 39t36 28.5t46 28.5q61 38 75 55q12 15 12 31q0 20 -18.5 33.5t-51.5 13.5q-54 0 -102 -32l-26 36q67 41 134 41q55 0 88 -25.5t33 -65.5
q0 -55 -73 -102q-10 -6 -57 -33q-37 -21 -54 -37.5t-17 -40.5h201z" />
    <glyph glyph-name="W.sc" horiz-adv-x="840" 
d="M551 0l-131 468l-129 -468h-86l-168 574h90l126 -481l132 481h71l131 -481l127 481h90l-168 -574h-85z" />
    <glyph glyph-name="Kcommaaccent.sc" horiz-adv-x="585" 
d="M87 0v574h81v-317l279 317h98l-247 -274l272 -300h-98l-223 246l-81 -90v-156h-81zM254 -160v97h80l9 -101l-71 -108l-24 26l43 86h-37z" />
    <glyph glyph-name="onequarter.onum" horiz-adv-x="716" 
d="M558 0v73h-199v39l182 232h73v-226h59v-45h-59v-73h-56zM493 574l-290 -574h-60l290 574h60zM178 230h-56v292l-67 -32l-23 36l95 48h51v-344zM419 118h139v181z" />
    <glyph glyph-name="onesixth" horiz-adv-x="812" 
d="M200 280h-66v357l-78 -39l-28 44l111 58h61v-420zM562 700l-334 -700h-70l334 700h70zM673 373q-63 0 -109 -39t-59 -109q41 44 115 44q65 0 103.5 -38t38.5 -95q0 -59 -43.5 -101t-115.5 -42q-83 0 -126 53t-43 134q0 106 66.5 176.5t171.5 70.5q16 0 31 -1.5t23 -3.5
l7 -2l-15 -52q-21 5 -45 5zM605 218q-37 0 -65 -16t-40 -36q1 -57 28.5 -88t73.5 -31q45 0 69.5 26.5t24.5 61.5q0 34 -23.5 58.5t-67.5 24.5z" />
    <glyph glyph-name="onesixth.onum" horiz-adv-x="718" 
d="M588 306q-55 0 -95 -32t-51 -90q36 36 100 36q57 0 90 -30.5t33 -77.5q0 -49 -37 -83.5t-100 -34.5q-71 0 -108 43.5t-37 109.5q0 87 57 145t147 58q14 0 27.5 -1.5t19.5 -2.5l7 -2l-13 -42q-18 4 -40 4zM493 574l-290 -574h-60l290 574h60zM178 230h-56v292l-67 -32
l-23 36l95 48h51v-344zM530 179q-32 0 -57 -14t-35 -30q1 -45 25.5 -70.5t63.5 -25.5t61 21.5t22 50.5q0 27 -20.5 47.5t-59.5 20.5z" />
    <glyph glyph-name="K.sc" horiz-adv-x="585" 
d="M87 0v574h81v-317l279 317h98l-247 -274l272 -300h-98l-223 246l-81 -90v-156h-81z" />
    <glyph glyph-name="Wacute.sc" horiz-adv-x="840" 
d="M551 0l-131 468l-129 -468h-86l-168 574h90l126 -481l132 481h71l131 -481l127 481h90l-168 -574h-85zM411 624h-69l122 130h114z" />
    <glyph glyph-name="onethird.onum" horiz-adv-x="732" 
d="M178 230h-56v292l-67 -32l-23 36l95 48h51v-344zM493 574l-290 -574h-60l290 574h60zM404 32l25 38q54 -30 111 -30q37 0 61 16t24 43q0 34 -36 49t-82 15h-17v46h21q39 0 68 13.5t29 39.5q0 20 -17.5 31.5t-48.5 11.5q-42 0 -97 -29l-23 34q53 40 128 40q54 0 84 -24
t30 -58q0 -55 -72 -78q39 -9 64 -33.5t25 -58.5q0 -43 -34.5 -73.5t-100.5 -30.5q-69 0 -142 38z" />
    <glyph glyph-name="Jsuperior" horiz-adv-x="187" 
d="M129 805v-389q0 -33 -2 -47t-13 -31t-35.5 -27t-68.5 -20l-22 48q54 16 64.5 28t10.5 46v392h66z" />
    <glyph glyph-name="Jinferior" horiz-adv-x="187" 
d="M129 270v-389q0 -33 -2 -47t-13 -31t-35.5 -27t-68.5 -20l-22 48q54 16 64.5 28t10.5 46v392h66z" />
    <glyph glyph-name="Jcircumflex.sc" horiz-adv-x="259" 
d="M170 574v-534q0 -44 -2.5 -62.5t-17 -41t-46.5 -35.5t-90 -27l-27 62q74 23 88 38t14 63v537h81zM176 754l100 -130h-62l-85 85l-85 -85h-62l99 130h95z" />
    <glyph glyph-name="J.sc" horiz-adv-x="258" 
d="M171 574v-534q0 -44 -2.5 -62.5t-17 -41t-46.5 -35.5t-90 -27l-27 62q74 23 88 38t14 63v537h81z" />
    <glyph glyph-name="dollar.onum" horiz-adv-x="558" 
d="M313 -82h-60v77q-104 12 -200 67l38 60q76 -44 162 -59v200l-13 4q-39 13 -63.5 23.5t-53 29t-42.5 45.5t-14 63q0 69 52 110.5t134 44.5v74h60v-77q90 -11 175 -52l-39 -60q-64 29 -136 42v-183l7 -2q40 -13 66.5 -24.5t58.5 -31.5t48.5 -50t16.5 -69q0 -72 -56 -114
t-141 -45v-73zM427 146q0 34 -29.5 56t-84.5 41v-184q48 2 81 24.5t33 62.5zM151 432q0 -33 25 -51t77 -35v168q-45 -2 -73.5 -23t-28.5 -59z" />
    <glyph glyph-name="Itilde.sc" horiz-adv-x="261" 
d="M171 0h-81v574h81v-574zM17 634l-45 20q22 42 42 63t51 21q27 0 69.5 -24.5t56.5 -24.5q25 0 50 46l45 -19q-20 -42 -40.5 -63.5t-52.5 -21.5q-27 0 -69.5 24.5t-56.5 24.5q-25 0 -50 -46z" />
    <glyph glyph-name="Isuperior" horiz-adv-x="184" 
d="M126 385h-66v420h66v-420z" />
    <glyph glyph-name="Iogonek.sc" horiz-adv-x="258" 
d="M69 -96q0 -7 1.5 -12.5t5.5 -9t7.5 -6.5t9.5 -4.5t10.5 -2.5t12 -1.5t11 -0.5h11.5h10l-10 -50q-134 0 -134 78q0 57 99 105h-14v574h81v-574h-3q-64 -37 -82 -58q-16 -19 -16 -38z" />
    <glyph glyph-name="paragraph.sc" horiz-adv-x="573" 
d="M255 574h68v-726h-70v365q-99 0 -158.5 46t-59.5 134q0 181 220 181zM417 -153v727h70v-727h-70z" />
    <glyph glyph-name="Imacron.sc" horiz-adv-x="261" 
d="M171 0h-81v574h81v-574zM-16 649v55h292v-55h-292z" />
    <glyph glyph-name="parenleft.sc" horiz-adv-x="290" 
d="M76 43v484q0 33 1.5 48.5t9 35.5t24.5 31t45.5 23t74.5 23l23 -49q-69 -22 -83 -38t-14 -64v-504q0 -27 1.5 -37.5t11.5 -23.5t28.5 -20.5t55.5 -19.5l-23 -49q-38 9 -64 17.5t-43.5 20.5t-27 21.5t-14 27.5t-5.5 32t-1 41z" />
    <glyph glyph-name="Wcircumflex.sc" horiz-adv-x="840" 
d="M551 0l-131 468l-129 -468h-86l-168 574h90l126 -481l132 481h71l131 -481l127 481h90l-168 -574h-85zM468 754l100 -130h-62l-85 85l-85 -85h-62l99 130h95z" />
    <glyph glyph-name="dinferior" horiz-adv-x="391" 
d="M340 -150h-63v39q-52 -46 -115 -46q-57 0 -92 41.5t-35 122.5q0 82 35 123.5t92 41.5q62 0 115 -47v162h63v-437zM177 -106q54 0 100 48v131q-45 47 -100 47q-77 0 -77 -113t77 -113z" />
    <glyph glyph-name="Iinferior" horiz-adv-x="184" 
d="M126 -150h-66v420h66v-420z" />
    <glyph glyph-name="parenright.sc" horiz-adv-x="290" 
d="M214 528v-484q0 -33 -1.5 -48.5t-9 -35.5t-24.5 -31t-45.5 -23t-74.5 -23l-23 49q69 22 83 38t14 64v504q0 27 -1.5 37.5t-11.5 23.5t-28.5 20.5t-55.5 19.5l23 49q38 -9 64 -17.5t43.5 -20.5t27 -21.5t14 -27.5t5.5 -32t1 -41z" />
    <glyph glyph-name="Wdieresis.sc" horiz-adv-x="840" 
d="M551 0l-131 468l-129 -468h-86l-168 574h90l126 -481l132 481h71l131 -481l127 481h90l-168 -574h-85zM295 634v93h83v-93h-83zM464 634v93h82v-93h-82z" />
    <glyph glyph-name="Wgrave.sc" horiz-adv-x="840" 
d="M551 0l-131 468l-129 -468h-86l-168 574h90l126 -481l132 481h71l131 -481l127 481h90l-168 -574h-85zM499 624h-70l-166 130h112z" />
    <glyph glyph-name="Winferior" horiz-adv-x="608" 
d="M394 -150l-90 332l-91 -332h-68l-123 420h75l86 -340l92 340h58l92 -342l86 342h74l-122 -420h-69z" />
    <glyph glyph-name="Igrave.sc" horiz-adv-x="259" 
d="M171 0h-81v574h81v-574zM209 624h-70l-166 130h112z" />
    <glyph glyph-name="percent.onum" horiz-adv-x="875" 
d="M832 144q0 -73 -43 -113t-115 -40q-73 0 -116 40t-43 113q0 74 43 114t116 40q72 0 115 -40t43 -114zM768 144q0 49 -25 76t-69 27q-45 0 -70 -27t-25 -76t25 -75t70 -26q44 0 69 26.5t25 74.5zM630 574l-319 -574h-66l318 574h67zM359 429q0 -73 -43 -113t-115 -40
q-73 0 -116 39.5t-43 113.5t43 114t116 40q72 0 115 -40t43 -114zM295 429q0 48 -25 75t-69 27q-45 0 -70 -27t-25 -75q0 -49 25 -75t70 -26q44 0 69 26t25 75z" />
    <glyph glyph-name="percentinferior" horiz-adv-x="633" 
d="M261 164q0 -54 -31.5 -83t-85.5 -29q-55 0 -85.5 29t-30.5 83t30.5 83.5t85.5 29.5q54 0 85.5 -29.5t31.5 -83.5zM210 164q0 34 -17 53t-49 19q-31 0 -47.5 -18.5t-16.5 -53.5q0 -72 64 -72q66 0 66 72zM459 270l-235 -427h-53l234 427h54zM604 -44q0 -55 -31 -84
t-84 -29q-55 0 -86 29t-31 84q0 54 31 83t86 29q53 0 84 -29t31 -83zM554 -44q0 34 -17 52.5t-48 18.5q-66 0 -66 -71q0 -72 66 -72q65 0 65 72z" />
    <glyph glyph-name="f_f_j.ss01" horiz-adv-x="879" 
d="M32 461v64h74v62q0 132 138 132q82 0 212 -34q34 44 115 44q90 0 208 -35l-32 -61q-128 24 -168 24q-28 0 -47 -13.5t-19 -42.5v-76h300v-545q0 -30 -0.5 -43.5t-3.5 -34.5t-9.5 -30.5t-18.5 -23.5t-31 -22.5t-45.5 -18.5t-63.5 -20l-29 63q31 10 49.5 16.5t33 16t21 15
t10 20t4 24.5t0.5 34v485h-217v-461h-82v461h-244v-461h-81v461h-74zM431 597q0 17 1 25q-139 25 -180 25q-65 0 -65 -56v-66h244v72z" />
    <glyph glyph-name="Idieresis.sc" horiz-adv-x="258" 
d="M169 0h-81v574h81v-574zM3 634v93h83v-93h-83zM172 634v93h82v-93h-82z" />
    <glyph glyph-name="Icircumflex.sc" horiz-adv-x="259" 
d="M170 0h-81v574h81v-574zM176 754l100 -130h-62l-85 85l-85 -85h-62l99 130h95z" />
    <glyph glyph-name="Wsuperior" horiz-adv-x="608" 
d="M394 385l-90 332l-91 -332h-68l-123 420h75l86 -340l92 340h58l92 -342l86 342h74l-122 -420h-69z" />
    <glyph glyph-name="csuperior" horiz-adv-x="339" 
d="M317 662l-28 -45q-1 1 -13.5 7.5t-20.5 10t-20.5 8.5t-24.5 7.5t-23 2.5q-39 0 -63 -30t-24 -80t24 -80.5t63 -30.5q11 0 23 2.5t24.5 7.5t20.5 8.5t20.5 10t13.5 7.5l28 -46q-88 -44 -137 -44q-61 0 -103.5 43t-42.5 122q0 78 42.5 121t103.5 43q53 0 137 -45z" />
    <glyph glyph-name="copyright.sc" horiz-adv-x="735" 
d="M488 414l-26 -29q-60 44 -112 44q-47 0 -75.5 -39.5t-28.5 -103.5t28.5 -102.5t75.5 -38.5q54 0 112 43l26 -29q-75 -51 -139 -51q-62 0 -104 47t-42 131q0 85 42 132t104 47q64 0 139 -51zM56 287q0 129 79.5 212.5t219.5 83.5q139 0 217.5 -83.5t78.5 -212.5
t-78.5 -212.5t-217.5 -83.5q-140 0 -219.5 83.5t-79.5 212.5zM90 287q0 -116 70 -190.5t194 -74.5t194.5 74.5t70.5 190.5t-70.5 190.5t-194.5 74.5t-194 -74.5t-70 -190.5z" />
    <glyph glyph-name="perthousand.onum" horiz-adv-x="1245" 
d="M359 429q0 -73 -43 -113t-115 -40q-73 0 -116 39.5t-43 113.5t43 114t116 40q72 0 115 -40t43 -114zM295 429q0 48 -25 75t-69 27q-45 0 -70 -27t-25 -75q0 -49 25 -75t70 -26q44 0 69 26t25 75zM832 144q0 -73 -43 -113t-115 -40q-73 0 -116 40t-43 113q0 74 43 114
t116 40q72 0 115 -40t43 -114zM768 144q0 49 -25 76t-69 27q-45 0 -70 -27t-25 -76t25 -75t70 -26q44 0 69 26.5t25 74.5zM1204 144q0 -74 -43 -113.5t-116 -39.5t-116 39.5t-43 113.5t43 114t116 40t116 -40t43 -114zM1139 144q0 49 -24.5 76t-69.5 27q-44 0 -69 -27
t-25 -76q0 -48 24.5 -74.5t69.5 -26.5t69.5 26t24.5 75zM630 574l-319 -574h-66l318 574h67z" />
    <glyph glyph-name="X.sc" horiz-adv-x="557" 
d="M33 574h93l152 -241l151 241h95l-200 -288l211 -286h-98l-159 235l-159 -235h-97l209 287z" />
    <glyph glyph-name="peseta.onum" horiz-adv-x="601" 
d="M66 378v35h26v161h222q216 0 227 -161h25v-35h-25q-11 -159 -227 -159h-141v-219h-81v378h-26zM173 505v-92h285q-12 92 -144 92h-141zM314 287q132 0 144 91h-285v-91h141z" />
    <glyph glyph-name="pesetainferior" horiz-adv-x="437" 
d="M45 123v30h20v117h165q158 0 166 -117h18v-30h-18q-10 -115 -166 -115h-99v-158h-66v273h-20zM131 215v-62h198q-9 62 -101 62h-97zM228 62q90 0 101 61h-198v-61h97z" />
    <glyph glyph-name="pesetasuperior" horiz-adv-x="437" 
d="M45 658v30h20v117h165q158 0 166 -117h18v-30h-18q-10 -115 -166 -115h-99v-158h-66v273h-20zM131 750v-62h198q-9 62 -101 62h-97zM228 597q90 0 101 61h-198v-61h97z" />
    <glyph glyph-name="Xinferior" horiz-adv-x="405" 
d="M22 270h76l105 -173l106 173h76l-144 -211l152 -209h-80l-110 167l-110 -167h-79l151 209z" />
    <glyph glyph-name="pinferior" horiz-adv-x="391" 
d="M115 165v-40q55 47 115 47q57 0 92 -41.5t35 -123.5q0 -81 -35 -122.5t-92 -41.5q-61 0 -115 46v-161h-63v437h63zM216 120q-56 0 -101 -47v-131q46 -48 101 -48q77 0 77 113t-77 113z" />
    <glyph glyph-name="Ibreve.sc" horiz-adv-x="260" 
d="M170 0h-81v574h81v-574zM128 624q-67 0 -104.5 28.5t-37.5 78.5h59q0 -53 83 -53q84 0 84 53h60q0 -50 -38 -78.5t-106 -28.5z" />
    <glyph glyph-name="plusinferior" horiz-adv-x="409" 
d="M179 188h51v-114h134v-48h-134v-114h-51v114h-134v48h134v114z" />
    <glyph glyph-name="Iacute.sc" horiz-adv-x="259" 
d="M170 0h-81v574h81v-574zM119 624h-69l122 130h114z" />
    <glyph glyph-name="colonsuperior" horiz-adv-x="168" 
d="M49 385v81h70v-81h-70zM49 584v81h70v-81h-70z" />
    <glyph glyph-name="colonmonetarysuperior" horiz-adv-x="359" 
d="M137 385h-34l15 62q-77 41 -77 148q0 79 42.5 121.5t103.5 42.5h6l11 46h35l-12 -51q7 -1 21 -5l14 56h35l-17 -68q8 -4 16.5 -8t17 -8.5t12.5 -6.5l-28 -45l-15 7.5t-16 7.5l-47 -196q22 5 78 33l28 -47q-69 -36 -120 -42l-11 -47h-36l11 47l-21 3zM107 595
q0 -54 26 -83l46 192q-33 -5 -52.5 -34.5t-19.5 -74.5zM163 491q9 -4 20 -6l52 212l-21 6z" />
    <glyph glyph-name="psuperior" horiz-adv-x="391" 
d="M115 700v-40q55 47 115 47q57 0 92 -41.5t35 -123.5q0 -81 -35 -122.5t-92 -41.5q-61 0 -115 46v-161h-63v437h63zM216 655q-56 0 -101 -47v-131q46 -48 101 -48q77 0 77 113t-77 113z" />
    <glyph glyph-name="IJ.sc" horiz-adv-x="515" 
d="M168 0h-81v574h81v-574zM415 574v-534q0 -44 -2.5 -62.5t-17 -41t-46.5 -35.5t-90 -27l-27 62q74 23 88 38t14 63v537h81z" />
    <glyph glyph-name="qinferior" horiz-adv-x="391" 
d="M277 -272v161q-52 -46 -115 -46q-57 0 -92 41.5t-35 122.5q0 82 35 123.5t92 41.5q62 0 115 -47v40h63v-437h-63zM177 -106q54 0 100 48v131q-45 47 -100 47q-77 0 -77 -113t77 -113z" />
    <glyph glyph-name="qsuperior" horiz-adv-x="391" 
d="M277 263v161q-52 -46 -115 -46q-57 0 -92 41.5t-35 122.5q0 82 35 123.5t92 41.5q62 0 115 -47v40h63v-437h-63zM177 429q54 0 100 48v131q-45 47 -100 47q-77 0 -77 -113t77 -113z" />
    <glyph glyph-name="I.sc" horiz-adv-x="255" 
d="M168 0h-81v574h81v-574z" />
    <glyph glyph-name="question.sc" horiz-adv-x="453" 
d="M142 0v101h89v-101h-89zM411 442q0 -122 -192 -169l-5 -99h-56l-6 143q91 18 134.5 43t43.5 71q0 38 -31.5 60.5t-79.5 22.5q-66 0 -150 -47l-37 54q97 62 197 62q76 0 129 -37.5t53 -103.5z" />
    <glyph glyph-name="Hsuperior" horiz-adv-x="458" 
d="M333 385v193h-207v-193h-66v420h66v-172h207v172h66v-420h-66z" />
    <glyph glyph-name="questiondown.sc" horiz-adv-x="454" 
d="M311 574v-101h-89v101h89zM42 132q0 122 192 169l5 99h56l6 -143q-91 -18 -134.5 -43t-43.5 -71q0 -38 31.5 -60.5t79.5 -22.5q66 0 150 47l37 -54q-97 -62 -197 -62q-76 0 -129 37.5t-53 103.5z" />
    <glyph glyph-name="questiondowninferior" horiz-adv-x="330" 
d="M232 270v-76h-72v76h72zM30 -52q0 90 140 124l4 69h43l5 -103q-65 -14 -95.5 -31.5t-30.5 -49.5q0 -27 21.5 -43t55.5 -16q46 0 106 35l30 -44q-76 -46 -145 -46q-56 0 -95 28t-39 77z" />
    <glyph glyph-name="questiondownsuperior" horiz-adv-x="330" 
d="M232 805v-76h-72v76h72zM30 483q0 90 140 124l4 69h43l5 -103q-65 -14 -95.5 -31.5t-30.5 -49.5q0 -27 21.5 -43t55.5 -16q46 0 106 35l30 -44q-76 -46 -145 -46q-56 0 -95 28t-39 77z" />
    <glyph glyph-name="questioninferior" horiz-adv-x="332" 
d="M101 -150v76h72v-76h-72zM303 172q0 -90 -140 -124l-4 -69h-43l-5 103q65 14 95.5 31.5t30.5 49.5q0 27 -21.5 43t-55.5 16q-46 0 -106 -35l-30 44q76 46 145 46q56 0 95 -28t39 -77z" />
    <glyph glyph-name="questionsuperior" horiz-adv-x="332" 
d="M101 385v76h72v-76h-72zM303 707q0 -90 -140 -124l-4 -69h-43l-5 103q65 14 95.5 31.5t30.5 49.5q0 27 -21.5 43t-55.5 16q-46 0 -106 -35l-30 44q76 46 145 46q56 0 95 -28t39 -77z" />
    <glyph glyph-name="Hinferior" horiz-adv-x="458" 
d="M333 -150v193h-207v-193h-66v420h66v-172h207v172h66v-420h-66z" />
    <glyph glyph-name="colonmonetaryinferior" horiz-adv-x="359" 
d="M137 -150h-34l15 62q-77 41 -77 148q0 79 42.5 121.5t103.5 42.5h6l11 46h35l-12 -51q7 -1 21 -5l14 56h35l-17 -68q8 -4 16.5 -8t17 -8.5t12.5 -6.5l-28 -45q-4 2 -15 7t-16 8l-47 -196q22 5 78 33l28 -47q-69 -36 -120 -42l-11 -47h-36l11 47l-21 3zM107 60
q0 -54 26 -83l46 192q-33 -5 -52.5 -34.5t-19.5 -74.5zM163 -44q9 -4 20 -6l52 212l-21 6z" />
    <glyph glyph-name="colonmonetary.onum" horiz-adv-x="498" 
d="M187 0h-45l20 85q-105 57 -105 203q0 107 58 165.5t141 58.5h10l15 62h45l-17 -68q11 -2 31 -8l19 76h44l-22 -92q13 -6 64 -31l-35 -57l-45 22l-69 -283q37 8 114 48l35 -57q-101 -53 -166 -60l-15 -64h-45l15 64q-15 2 -30 6zM137 288q0 -79 44 -125l68 281
q-50 -5 -81 -47.5t-31 -108.5zM220 137q20 -6 31 -7l74 303q-14 6 -31 9z" />
    <glyph glyph-name="coloninferior" horiz-adv-x="168" 
d="M49 -150v81h70v-81h-70zM49 49v81h70v-81h-70z" />
    <glyph glyph-name="Xsuperior" horiz-adv-x="405" 
d="M22 805h76l105 -173l106 173h76l-144 -211l152 -209h-80l-110 167l-110 -167h-79l151 209z" />
    <glyph glyph-name="cinferior" horiz-adv-x="340" 
d="M317 127l-28 -45q-1 1 -13.5 7.5t-20.5 10t-20.5 8.5t-24.5 7.5t-23 2.5q-39 0 -63 -30t-24 -80t24 -80.5t63 -30.5q11 0 23 2.5t24.5 7.5t20.5 8.5t20.5 10t13.5 7.5l28 -46q-88 -44 -137 -44q-61 0 -103.5 43t-42.5 122q0 78 42.5 121t103.5 43q53 0 137 -45z" />
    <glyph glyph-name="cent.onum" horiz-adv-x="499" 
d="M303 0h-60v63q-79 5 -132.5 63.5t-53.5 161.5q0 102 53.5 160t132.5 63v63h60v-67q57 -11 142 -56l-35 -57q-4 2 -25.5 13t-41.5 19.5t-40 13.5v-305q28 6 107 46l35 -57q-85 -45 -142 -57v-67zM137 288q0 -65 29.5 -106.5t76.5 -49.5v311q-48 -8 -77 -49.5t-29 -105.5z
" />
    <glyph glyph-name="Hbar.sc" horiz-adv-x="645" 
d="M26 425v51h66v98h81v-98h298v98h81v-98h65v-51h-65v-425h-81v267h-298v-267h-81v425h-66zM173 335h298v90h-298v-90z" />
    <glyph glyph-name="H.sc" horiz-adv-x="634" 
d="M466 0v267h-298v-267h-81v574h81v-239h298v239h81v-574h-81z" />
    <glyph glyph-name="Gsuperior" horiz-adv-x="451" 
d="M343 385v47q-67 -54 -132 -54q-73 0 -122 55.5t-49 161.5q0 107 49.5 162t127.5 55t182 -65l-33 -48q-31 18 -45.5 25.5t-44 18t-53.5 10.5q-52 0 -83.5 -42.5t-31.5 -115.5q0 -74 31 -117t84 -43t120 55v75h-116v53h180v-233h-64z" />
    <glyph glyph-name="Y.sc" horiz-adv-x="571" 
d="M245 0v226l-223 348h92l171 -286l172 286h91l-222 -346v-228h-81z" />
    <glyph glyph-name="Ginferior" horiz-adv-x="451" 
d="M343 -150v47q-67 -54 -132 -54q-73 0 -122 55.5t-49 161.5q0 107 49.5 162t127.5 55t182 -65l-33 -48q-31 18 -45.5 25.5t-44 18t-53.5 10.5q-52 0 -83.5 -42.5t-31.5 -115.5q0 -74 31 -117t84 -43t120 55v75h-116v53h180v-233h-64z" />
    <glyph glyph-name="Gdotaccent.sc" horiz-adv-x="622" 
d="M478 0v67q-93 -76 -185 -76q-101 0 -168.5 75t-67.5 221q0 147 68 221.5t174 74.5q110 0 247 -89l-43 -59q-123 75 -197 75q-75 0 -120 -59.5t-45 -163.5t45 -165t120 -61q78 0 172 80v109h-165v66h243v-316h-78zM265 634v93h83v-93h-83z" />
    <glyph glyph-name="Gcommaaccent.sc" horiz-adv-x="622" 
d="M478 0v67q-93 -76 -185 -76q-101 0 -168.5 75t-67.5 221q0 147 68 221.5t174 74.5q110 0 247 -89l-43 -59q-123 75 -197 75q-75 0 -120 -59.5t-45 -163.5t45 -165t120 -61q78 0 172 80v109h-165v66h243v-316h-78zM281 -160v97h80l9 -101l-71 -108l-24 26l43 86h-37z" />
    <glyph glyph-name="rinferior" horiz-adv-x="257" 
d="M115 165v-67q5 12 15.5 26.5t40.5 31t69 13.5v-60q-31 0 -55.5 -10t-37 -24.5t-20.5 -29.5t-10 -25l-2 -10v-160h-63v315h63z" />
    <glyph glyph-name="Yacute.sc" horiz-adv-x="571" 
d="M245 0v226l-223 348h92l171 -286l172 286h91l-222 -346v-228h-81zM277 624h-69l122 130h114z" />
    <glyph glyph-name="Ydieresis.sc" horiz-adv-x="571" 
d="M245 0v226l-223 348h92l171 -286l172 286h91l-222 -346v-228h-81zM160 634v93h83v-93h-83zM329 634v93h82v-93h-82z" />
    <glyph glyph-name="Gbreve.sc" horiz-adv-x="622" 
d="M478 0v67q-93 -76 -185 -76q-101 0 -168.5 75t-67.5 221q0 147 68 221.5t174 74.5q110 0 247 -89l-43 -59q-123 75 -197 75q-75 0 -120 -59.5t-45 -163.5t45 -165t120 -61q78 0 172 80v109h-165v66h243v-316h-78zM305 624q-67 0 -104.5 28.5t-37.5 78.5h59q0 -53 83 -53
q84 0 84 53h60q0 -50 -38 -78.5t-106 -28.5z" />
    <glyph glyph-name="s_h" horiz-adv-x="1119" 
d="M676 729v-278q41 31 99 58t117 27q150 0 150 -162v-374h-83v359q0 109 -91 109q-49 0 -103.5 -28t-88.5 -58v-382h-83v684h-88q-56 0 -87.5 -31t-31.5 -83q0 -39 18 -68q10 -4 43 -19l-36 -58q-94 44 -169 44q-46 0 -75 -19.5t-29 -53.5q0 -21 11.5 -37t34.5 -27
t39.5 -16t44.5 -12l12 -3q93 -25 141.5 -63t48.5 -103q0 -71 -54.5 -108.5t-136.5 -37.5q-119 0 -234 64l37 61q110 -58 193 -58q46 0 79 20t33 56q0 54 -91 84q-18 6 -53 16l-12 3q-37 10 -62.5 20t-54 28t-43.5 45.5t-15 63.5q0 67 50.5 105.5t133.5 38.5q54 0 108 -16
q-11 27 -11 59q0 70 45.5 110t124.5 40h169z" />
    <glyph glyph-name="s_k" horiz-adv-x="1040" 
d="M991 525l-177 -212l210 -313h-90l-170 254l-88 -106v-148h-83v684h-88q-56 0 -87.5 -31t-31.5 -83q0 -39 18 -68q10 -4 43 -19l-36 -58q-94 44 -169 44q-46 0 -75 -19.5t-29 -53.5q0 -21 11.5 -37t34.5 -27t39.5 -16t44.5 -12l12 -3q93 -25 141.5 -63t48.5 -103
q0 -71 -54.5 -108.5t-136.5 -37.5q-119 0 -234 64l37 61q110 -58 193 -58q46 0 79 20t33 56q0 54 -91 84q-18 6 -53 16l-12 3q-37 10 -62.5 20t-54 28t-43.5 45.5t-15 63.5q0 67 50.5 105.5t133.5 38.5q54 0 108 -16q-11 27 -11 59q0 70 45.5 110t124.5 40h169v-481l220 277
h95z" />
    <glyph glyph-name="s_l" horiz-adv-x="766" 
d="M680 0h-82v684h-93q-56 0 -87.5 -31t-31.5 -83q0 -39 18 -68q10 -4 43 -19l-36 -58q-94 44 -169 44q-46 0 -75 -19.5t-29 -53.5q0 -21 11.5 -37t34.5 -27t39.5 -16t44.5 -12l12 -3q93 -25 141.5 -63t48.5 -103q0 -71 -54.5 -108.5t-136.5 -37.5q-119 0 -234 64l37 61
q110 -58 193 -58q46 0 79 20t33 56q0 54 -91 84q-18 6 -53 16l-12 3q-37 10 -62.5 20t-54 28t-43.5 45.5t-15 63.5q0 67 50.5 105.5t133.5 38.5q54 0 108 -16q-11 27 -11 59q0 70 45.5 110t124.5 40h173v-729z" />
    <glyph glyph-name="Ygrave.sc" horiz-adv-x="571" 
d="M245 0v226l-223 348h92l171 -286l172 286h91l-222 -346v-228h-81zM369 624h-70l-166 130h112z" />
    <glyph glyph-name="G.sc" horiz-adv-x="622" 
d="M478 0v67q-93 -76 -185 -76q-101 0 -168.5 75t-67.5 221q0 147 68 221.5t174 74.5q110 0 247 -89l-43 -59q-123 75 -197 75q-75 0 -120 -59.5t-45 -163.5t45 -165t120 -61q78 0 172 80v109h-165v66h243v-316h-78z" />
    <glyph glyph-name="Fsuperior" horiz-adv-x="368" 
d="M348 749h-222v-127h177v-54h-177v-183h-66v420h288v-56z" />
    <glyph glyph-name="Finferior" horiz-adv-x="368" 
d="M348 214h-222v-127h177v-54h-177v-183h-66v420h288v-56z" />
    <glyph glyph-name="F.sc" horiz-adv-x="511" 
d="M478 505h-310v-184h247v-68h-247v-253h-81v574h391v-69z" />
    <glyph glyph-name="Eurosuperior" horiz-adv-x="456" 
d="M422 751l-33 -48q-87 50 -137 50q-38 0 -66.5 -25t-39.5 -70h169v-34h-175q-1 -9 -1 -29q0 -22 1 -32h175v-34h-169q12 -44 40 -68t66 -24q50 0 137 50l33 -48q-102 -61 -176 -61q-63 0 -109 38t-60 113h-44v34h39q-1 10 -1 32q0 19 1 29h-39v34h43q14 76 60 115t110 39
q71 0 176 -61z" />
    <glyph glyph-name="Euroinferior" horiz-adv-x="456" 
d="M422 216l-33 -48q-87 50 -137 50q-38 0 -66.5 -25t-39.5 -70h169v-34h-175q-1 -9 -1 -29q0 -22 1 -32h175v-34h-169q12 -44 40 -68t66 -24q50 0 137 50l33 -48q-102 -61 -176 -61q-63 0 -109 38.5t-60 112.5h-44v34h39q-1 10 -1 32q0 19 1 29h-39v34h43q14 76 60 115
t110 39q71 0 176 -61z" />
    <glyph glyph-name="Euro.onum" horiz-adv-x="635" 
d="M581 498l-42 -58q-117 70 -188 70q-57 0 -98 -36t-57 -102h243v-44h-250q-2 -13 -2 -41q0 -18 2 -46h250v-44h-241q16 -64 56.5 -98.5t96.5 -34.5q71 0 188 70l42 -58q-136 -85 -237 -85q-87 0 -150.5 51.5t-82.5 154.5h-59v44h53q-2 14 -2 46q0 15 2 41h-53v44h58
q19 105 82 158t152 53q98 0 237 -85z" />
    <glyph glyph-name="semicoloninferior" horiz-adv-x="178" 
d="M55 49v81h70v-81h-70zM55 -150v81h69l8 -87l-59 -80l-21 23l35 63h-32z" />
    <glyph glyph-name="semicolonsuperior" horiz-adv-x="178" 
d="M55 584v81h70v-81h-70zM55 385v81h69l8 -87l-59 -80l-21 23l35 63h-32z" />
    <glyph glyph-name="Yinferior" horiz-adv-x="412" 
d="M173 -150v166l-160 254h74l120 -204l118 204h75l-161 -254v-166h-66z" />
    <glyph glyph-name="c_t" horiz-adv-x="903" 
d="M484 467l-38 -62q-1 1 -16 9.5t-23.5 13t-25.5 12.5t-30.5 12.5t-30.5 8t-32 3.5q-65 0 -107 -55t-42 -146t42 -146.5t107 -55.5q18 0 37.5 4.5t38.5 12.5t32 14t30 16t20 11l38 -61q-120 -69 -203 -69q-95 0 -161.5 72t-66.5 202t66.5 201.5t161.5 71.5q40 0 90 -16
q-10 23 -10 55q0 71 46 112.5t122 41.5q86 0 133 -49t47 -134v-21h145v-64h-145v-344q0 -55 50 -55q38 0 99 27l31 -63q-81 -37 -144 -37q-118 0 -118 132v340h-73v64h73v31q0 59 -26.5 93.5t-80.5 34.5q-51 0 -81 -31.5t-30 -83.5q0 -44 20 -73q21 -9 55 -29z" />
    <glyph glyph-name="seven.dnom" horiz-adv-x="346" 
d="M321 370q-7 -8 -17.5 -21.5t-38.5 -56t-49 -84t-38.5 -99.5t-17.5 -109h-69q0 58 21.5 123t54 119.5t50 80t31.5 42.5h-219v55h292v-50z" />
    <glyph glyph-name="seven.numr" horiz-adv-x="346" 
d="M321 650q-7 -8 -17.5 -21.5t-38.5 -56t-49 -84t-38.5 -99.5t-17.5 -109h-69q0 58 21.5 123t54 119.5t50 80t31.5 42.5h-219v55h292v-50z" />
    <glyph glyph-name="seven.onum" horiz-adv-x="500" 
d="M480 509q-10 -13 -27.5 -36.5t-62 -95.5t-78.5 -143.5t-62 -171t-28 -188.5h-91q0 80 25 172.5t55 160t73.5 142t61 100t36.5 51.5h-355v74h453v-65z" />
    <glyph glyph-name="c_l" horiz-adv-x="775" 
d="M688 0h-82v684h-81q-54 0 -85 -30.5t-31 -82.5q0 -46 22 -75l53 -29l-38 -62q-1 1 -16 9.5t-23.5 13t-25.5 12.5t-30.5 12.5t-30.5 8t-32 3.5q-65 0 -107 -55t-42 -146t42 -146.5t107 -55.5q18 0 37.5 4.5t38.5 12.5t32 14t30 16t20 11l38 -61q-120 -69 -203 -69
q-95 0 -161.5 72t-66.5 202t66.5 201.5t161.5 71.5q39 0 91 -16q-11 27 -11 59q0 70 43.5 110t119.5 40h164v-729z" />
    <glyph glyph-name="c_k" horiz-adv-x="1048" 
d="M999 525l-177 -212l210 -313h-90l-170 254l-88 -106v-148h-83v684h-76q-54 0 -85 -30.5t-31 -82.5q0 -46 22 -75l53 -29l-38 -62q-1 1 -16 9.5t-23.5 13t-25.5 12.5t-30.5 12.5t-30.5 8t-32 3.5q-65 0 -107 -55t-42 -146t42 -146.5t107 -55.5q18 0 37.5 4.5t38.5 12.5
t32 14t30 16t20 11l38 -61q-120 -69 -203 -69q-95 0 -161.5 72t-66.5 202t66.5 201.5t161.5 71.5q39 0 91 -16q-11 27 -11 59q0 70 43.5 110t119.5 40h160v-481l220 277h95z" />
    <glyph glyph-name="seveneighths.onum" horiz-adv-x="743" 
d="M403 90q0 62 91 96q-67 32 -67 80q0 38 33.5 61t89.5 23q55 0 89 -23.5t34 -60.5q0 -50 -68 -79q91 -35 91 -97q0 -44 -40.5 -70t-105.5 -26t-106 26t-41 70zM498 574l-290 -574h-59l290 574h59zM290 533q-6 -6 -15.5 -17.5t-33.5 -46t-43 -69t-34 -81.5t-15 -89h-58
q0 46 18 98t45.5 96t43.5 66t29 38h-190v46h253v-41zM639 93q0 18 -15 33.5t-32 23.5t-43 17q-88 -31 -88 -74q0 -26 25 -41t64 -15q38 0 63.5 15t25.5 41zM481 260q0 -35 69 -56q68 22 68 56q0 20 -19.5 34.5t-48.5 14.5q-30 0 -49.5 -15t-19.5 -34z" />
    <glyph glyph-name="c_h" horiz-adv-x="1127" 
d="M684 729v-278q41 31 99 58t117 27q150 0 150 -162v-374h-83v359q0 109 -91 109q-49 0 -103.5 -28t-88.5 -58v-382h-83v684h-76q-54 0 -85 -30.5t-31 -82.5q0 -46 22 -75l53 -29l-38 -62q-1 1 -16 9.5t-23.5 13t-25.5 12.5t-30.5 12.5t-30.5 8t-32 3.5q-65 0 -107 -55
t-42 -146t42 -146.5t107 -55.5q18 0 37.5 4.5t38.5 12.5t32 14t30 16t20 11l38 -61q-120 -69 -203 -69q-95 0 -161.5 72t-66.5 202t66.5 201.5t161.5 71.5q39 0 91 -16q-11 27 -11 59q0 70 43.5 110t119.5 40h160z" />
    <glyph glyph-name="Ysuperior" horiz-adv-x="412" 
d="M173 385v166l-160 254h74l120 -204l118 204h75l-161 -254v-166h-66z" />
    <glyph glyph-name="sinferior" horiz-adv-x="334" 
d="M187 34q58 -14 88.5 -37t30.5 -64q0 -43 -34.5 -66.5t-89.5 -23.5q-77 0 -153 39l25 43q72 -35 123 -35q28 0 47 10.5t19 30.5q0 6 -1.5 10.5t-5.5 9t-8 7.5t-11 6.5t-12 5.5t-14 4.5t-14 4t-15 4l-14 3.5q-50 13 -81.5 34t-31.5 62t33 65.5t88 24.5q66 0 136 -33
l-26 -40q-62 27 -106 27q-28 0 -45.5 -11t-17.5 -30q0 -7 2.5 -13t9 -10.5t11.5 -8t16.5 -6.5t16.5 -4.5t18 -4.5t16 -4z" />
    <glyph glyph-name="Eth.sc" horiz-adv-x="631" 
d="M573 287q0 -287 -290 -287h-191v254h-64v66h64v254h191q290 0 290 -287zM490 287q0 115 -51 166t-162 51h-104v-184h145v-66h-145v-185h104q110 0 161.5 51.5t51.5 166.5z" />
    <glyph glyph-name="six.dnom" horiz-adv-x="416" 
d="M287 373q-63 0 -109 -39t-59 -109q41 44 115 44q65 0 103.5 -38t38.5 -95q0 -59 -43.5 -101t-115.5 -42q-83 0 -126 53t-43 134q0 106 66.5 176.5t171.5 70.5q16 0 31 -1.5t23 -3.5l7 -2l-15 -52q-21 5 -45 5zM219 218q-37 0 -65 -16t-40 -36q1 -57 28.5 -88t73.5 -31
q45 0 69.5 26.5t24.5 61.5q0 34 -23.5 58.5t-67.5 24.5z" />
    <glyph glyph-name="six.numr" horiz-adv-x="416" 
d="M287 653q-63 0 -109 -39t-59 -109q41 44 115 44q65 0 103.5 -38t38.5 -95q0 -59 -43.5 -101t-115.5 -42q-83 0 -126 53t-43 134q0 106 66.5 176.5t171.5 70.5q16 0 31 -1.5t23 -3.5l7 -2l-15 -52q-21 5 -45 5zM219 498q-37 0 -65 -16t-40 -36q1 -57 28.5 -88t73.5 -31
q45 0 69.5 26.5t24.5 61.5q0 34 -23.5 58.5t-67.5 24.5z" />
    <glyph glyph-name="six.onum" horiz-adv-x="612" 
d="M428 638q-96 0 -173.5 -67t-99.5 -201q72 77 186 77q104 0 164 -63.5t60 -157.5q0 -99 -67 -168t-177 -69q-85 0 -146 44t-87.5 108t-27.5 140q0 102 30 185.5t81.5 136t117 80.5t137.5 28q24 0 47 -2.5t35 -5.5l11 -3l-20 -70q-32 8 -71 8zM325 379q-63 0 -110.5 -30.5
t-66.5 -67.5v-7q0 -90 45 -151t127 -61q75 0 117 48.5t42 113.5q0 63 -39.5 109t-114.5 46z" />
    <glyph glyph-name="brokenbar.sc" horiz-adv-x="241" 
d="M151 332h-61v339h61v-339zM151 -101h-61v339h61v-339z" />
    <glyph glyph-name="Z.sc" horiz-adv-x="553" 
d="M41 64l357 440h-339v70h442v-63l-359 -442h364v-69h-465v64z" />
    <glyph glyph-name="bracketrightsuperior" horiz-adv-x="226" 
d="M23 888h149v-589h-149v40h83v508h-83v41z" />
    <glyph glyph-name="Esuperior" horiz-adv-x="385" 
d="M352 385h-292v420h288v-56h-222v-127h184v-54h-184v-128h226v-55z" />
    <glyph glyph-name="slash.sc" horiz-adv-x="407" 
d="M377 648l-289 -722h-64l289 722h64z" />
    <glyph glyph-name="Eogonek.sc" horiz-adv-x="534" 
d="M382 -96q0 -7 1.5 -12.5t5.5 -9t7.5 -6.5t9.5 -4.5t10.5 -2.5t12 -1.5t11 -0.5h11.5h10l-10 -50q-134 0 -134 78q0 57 99 105h-329v574h391v-69h-310v-184h256v-68h-256v-185h315v-68h-3q-64 -37 -82 -58q-16 -19 -16 -38z" />
    <glyph glyph-name="spaceinferior" horiz-adv-x="178" 
 />
    <glyph glyph-name="spacesuperior" horiz-adv-x="178" 
 />
    <glyph glyph-name="bracketrightinferior" horiz-adv-x="226" 
d="M23 353h149v-589h-149v40h83v508h-83v41z" />
    <glyph glyph-name="Eng.sc" horiz-adv-x="648" 
d="M561 574v-544q0 -39 -3 -57.5t-18.5 -39t-47 -33.5t-88.5 -26l-27 62q58 16 76.5 28.5t22.5 35.5l-308 461v-461h-81v574h85l308 -463v463h81z" />
    <glyph glyph-name="sterling.onum" horiz-adv-x="498" 
d="M69 210v53h88q-8 23 -29 53.5t-36 61t-15 65.5q0 63 47.5 101.5t126.5 38.5q82 0 197 -60l-38 -55q-92 46 -149 46q-48 0 -75 -23.5t-27 -58.5q0 -33 35 -85.5t43 -83.5h142v-53h-138q-5 -44 -30.5 -82.5t-48.5 -59.5h276v-68h-379v57q4 2 10.5 7t23.5 20t30.5 32
t25.5 42.5t14 51.5h-94z" />
    <glyph glyph-name="sterlinginferior" horiz-adv-x="362" 
d="M46 3v41h65q-3 7 -29.5 51.5t-26.5 77.5q0 47 34.5 75.5t92.5 28.5q64 0 146 -46l-30 -43q-65 34 -107 34q-33 0 -51.5 -16.5t-18.5 -41.5q0 -23 25 -60.5t31 -59.5h102v-41h-99q-3 -31 -21 -58t-34 -40h196v-55h-280v45q8 5 20 13.5t33.5 36.5t23.5 58h-72z" />
    <glyph glyph-name="sterlingsuperior" horiz-adv-x="362" 
d="M46 538v41h65q-3 7 -29.5 51.5t-26.5 77.5q0 47 34.5 75.5t92.5 28.5q64 0 146 -46l-30 -43q-65 34 -107 34q-33 0 -51.5 -16.5t-18.5 -41.5q0 -23 25 -60.5t31 -59.5h102v-41h-99q-3 -31 -21 -58t-34 -40h196v-55h-280v45q8 5 20 13.5t33.5 36.5t23.5 58h-72z" />
    <glyph glyph-name="bracketright.sc" horiz-adv-x="325" 
d="M40 688h196v-806h-196v52h115v702h-115v52z" />
    <glyph glyph-name="Emacron.sc" horiz-adv-x="534" 
d="M483 0h-396v574h391v-69h-310v-184h256v-68h-256v-185h315v-68zM138 649v55h292v-55h-292z" />
    <glyph glyph-name="Einferior" horiz-adv-x="385" 
d="M352 -150h-292v420h288v-56h-222v-127h184v-54h-184v-128h226v-55z" />
    <glyph glyph-name="Egrave.sc" horiz-adv-x="534" 
d="M483 0h-396v574h391v-69h-310v-184h256v-68h-256v-185h315v-68zM363 624h-70l-166 130h112z" />
    <glyph glyph-name="Edotaccent.sc" horiz-adv-x="534" 
d="M483 0h-396v574h391v-69h-310v-184h256v-68h-256v-185h315v-68zM243 634v93h83v-93h-83z" />
    <glyph glyph-name="Edieresis.sc" horiz-adv-x="534" 
d="M483 0h-396v574h391v-69h-310v-184h256v-68h-256v-185h315v-68zM158 634v93h83v-93h-83zM327 634v93h82v-93h-82z" />
    <glyph glyph-name="Ecircumflex.sc" horiz-adv-x="534" 
d="M483 0h-396v574h391v-69h-310v-184h256v-68h-256v-185h315v-68zM331 754l100 -130h-62l-85 85l-85 -85h-62l99 130h95z" />
    <glyph glyph-name="three.dnom" horiz-adv-x="397" 
d="M31 40l31 45q65 -37 127 -37q42 0 69 19.5t27 52.5q0 41 -41 60t-93 19h-21v56h24q45 0 78.5 16t33.5 49q0 24 -20 38t-54 14q-53 0 -113 -35l-27 41q62 49 149 49q63 0 97 -29t34 -71q0 -30 -20.5 -55.5t-60.5 -39.5q45 -12 73 -42t28 -70q0 -52 -39.5 -89.5
t-115.5 -37.5q-82 0 -166 47z" />
    <glyph glyph-name="three.numr" horiz-adv-x="397" 
d="M31 320l31 45q65 -37 127 -37q42 0 69 19.5t27 52.5q0 41 -41 60t-93 19h-21v56h24q45 0 78.5 16t33.5 49q0 24 -20 38t-54 14q-53 0 -113 -35l-27 41q62 49 149 49q63 0 97 -29t34 -71q0 -30 -20.5 -55.5t-60.5 -39.5q45 -12 73 -42t28 -70q0 -52 -39.5 -89.5
t-115.5 -37.5q-82 0 -166 47z" />
    <glyph glyph-name="three.onum" horiz-adv-x="577" 
d="M32 -67l40 63q101 -61 200 -61q72 0 119 36.5t47 97.5q0 39 -21 69t-55.5 46t-71 24t-74.5 8h-31v75h36q75 0 130.5 31.5t55.5 89.5q0 45 -35 71t-94 26q-89 0 -176 -58l-38 57q103 75 225 75q97 0 150.5 -47.5t53.5 -116.5q0 -51 -33 -94.5t-101 -66.5q73 -18 119.5 -69
t46.5 -120q0 -86 -62.5 -147t-180.5 -61q-75 0 -142 23t-108 49z" />
    <glyph glyph-name="Zacute.sc" horiz-adv-x="553" 
d="M41 64l357 440h-339v70h442v-63l-359 -442h364v-69h-465v64zM271 624h-69l122 130h114z" />
    <glyph glyph-name="bracketleftsuperior" horiz-adv-x="226" 
d="M204 299h-149v589h149v-40h-83v-508h83v-41z" />
    <glyph glyph-name="threeeighths.onum" horiz-adv-x="838" 
d="M498 90q0 61 90 96q-67 32 -67 80q0 38 34 61t90 23q55 0 89 -23.5t34 -60.5q0 -49 -68 -80q90 -35 90 -96q0 -44 -40 -70t-105 -26t-106 26t-41 70zM45 262l26 38q50 -31 110 -31q37 0 61.5 16.5t24.5 42.5q0 34 -37 49.5t-82 15.5h-17v46h19q40 0 69 13.5t29 39.5
q0 20 -17 31t-48 11q-49 0 -97 -29l-24 35q58 40 129 40q54 0 84 -24t30 -59q0 -55 -71 -77q39 -9 63.5 -34t24.5 -58q0 -43 -34 -73.5t-100 -30.5q-80 0 -143 38zM593 574l-290 -574h-59l290 574h59zM733 93q0 43 -89 73q-89 -30 -89 -73q0 -26 25.5 -41t64.5 -15
q38 0 63 15t25 41zM575 260q0 -35 69 -56q68 21 68 56q0 20 -19 34.5t-48 14.5q-30 0 -50 -14.5t-20 -34.5z" />
    <glyph glyph-name="threefifths" horiz-adv-x="945" 
d="M41 320l31 45q65 -37 127 -37q42 0 69 19.5t27 52.5q0 41 -41 60t-93 19h-21v56h24q45 0 78.5 16t33.5 49q0 24 -20 38t-54 14q-53 0 -113 -35l-27 41q62 49 149 49q63 0 97 -29t34 -71q0 -30 -20.5 -55.5t-60.5 -39.5q45 -12 73 -42t28 -70q0 -52 -39.5 -89.5
t-115.5 -37.5q-82 0 -166 47zM675 700l-334 -700h-70l334 700h70zM598 211l24 209h251v-55h-197l-9 -110q35 14 73 14q70 0 111 -39t41 -96q0 -58 -42 -99.5t-119 -41.5q-73 0 -151 46l30 49q52 -38 113 -38q42 0 71 23t29 60q0 36 -25.5 59.5t-71.5 23.5q-44 0 -91 -25z
" />
    <glyph glyph-name="threefifths.onum" horiz-adv-x="836" 
d="M528 173l21 171h217v-45h-172l-8 -90q31 12 64 12q61 0 96.5 -32.5t35.5 -78.5q0 -48 -36.5 -82t-102.5 -34q-61 0 -131 38l25 40q50 -31 99 -31q37 0 62.5 19t25.5 50q0 29 -22.5 48t-62.5 19q-43 0 -80 -21zM45 262l26 38q50 -31 110 -31q37 0 61.5 16.5t24.5 42.5
q0 34 -37 49.5t-82 15.5h-17v46h19q40 0 69 13.5t29 39.5q0 20 -17 31t-48 11q-49 0 -97 -29l-24 35q58 40 129 40q54 0 84 -24t30 -59q0 -55 -71 -77q39 -9 63.5 -34t24.5 -58q0 -43 -34 -73.5t-100 -30.5q-80 0 -143 38zM593 574l-290 -574h-59l290 574h59z" />
    <glyph glyph-name="bracketleftinferior" horiz-adv-x="226" 
d="M204 -236h-149v589h149v-40h-83v-508h83v-41z" />
    <glyph glyph-name="Ecaron.sc" horiz-adv-x="534" 
d="M483 0h-396v574h391v-69h-310v-184h256v-68h-256v-185h315v-68zM431 754l-100 -130h-95l-99 130h62l85 -86l85 86h62z" />
    <glyph glyph-name="threequarters.onum" horiz-adv-x="816" 
d="M659 0v73h-200v39l183 232h72v-226h60v-45h-60v-73h-55zM45 262l26 38q50 -31 110 -31q37 0 61.5 16.5t24.5 42.5q0 34 -37 49.5t-82 15.5h-17v46h19q40 0 69 13.5t29 39.5q0 20 -17 31t-48 11q-49 0 -97 -29l-24 35q58 40 129 40q54 0 84 -24t30 -59q0 -55 -71 -77
q39 -9 63.5 -34t24.5 -58q0 -43 -34 -73.5t-100 -30.5q-80 0 -143 38zM593 574l-290 -574h-59l290 574h59zM520 118h139v182z" />
    <glyph glyph-name="Eacute.sc" horiz-adv-x="534" 
d="M483 0h-396v574h391v-69h-310v-184h256v-68h-256v-185h315v-68zM275 624h-69l122 130h114z" />
    <glyph glyph-name="bracketleft.sc" horiz-adv-x="325" 
d="M285 -118h-196v806h196v-52h-115v-702h115v-52z" />
    <glyph glyph-name="tinferior" horiz-adv-x="255" 
d="M23 117v48h45v79l65 12v-91h90v-48h-90v-187q0 -32 29 -32q22 0 59 15l24 -47q-56 -23 -96 -23q-81 0 -81 89v185h-45z" />
    <glyph glyph-name="Zcaron.sc" horiz-adv-x="553" 
d="M41 64l357 440h-339v70h442v-63l-359 -442h364v-69h-465v64zM427 754l-100 -130h-95l-99 130h62l85 -86l85 86h62z" />
    <glyph glyph-name="bracerightsuperior" horiz-adv-x="257" 
d="M239 617v-47q-73 0 -62 -72l8 -55q11 -70 -27.5 -107t-121.5 -37h-12v39h12q93 0 83 97l-7 52q-13 90 71 107q-84 17 -71 106l7 51q10 97 -83 97h-12v40h12q83 0 121 -37t28 -108l-8 -55q-10 -71 62 -71z" />
    <glyph glyph-name="E.sc" horiz-adv-x="534" 
d="M483 0h-396v574h391v-69h-310v-184h256v-68h-256v-185h315v-68z" />
    <glyph glyph-name="two.dnom" horiz-adv-x="396" 
d="M347 55v-55h-307v36q0 31 10.5 56.5t34.5 48t41.5 35t52.5 34.5t52 34t32.5 31t15.5 39q0 26 -21 42t-59 16q-59 0 -116 -39l-31 43q77 51 154 51q65 0 102.5 -30.5t37.5 -80.5q0 -27 -10 -49.5t-34.5 -44t-39 -31t-51.5 -31.5q-4 -3 -7 -4.5t-6 -3.5
q-43 -26 -62.5 -46.5t-19.5 -50.5h231z" />
    <glyph glyph-name="two.numr" horiz-adv-x="396" 
d="M347 335v-55h-307v36q0 31 10.5 56.5t34.5 48t41.5 35t52.5 34.5t52 34t32.5 31t15.5 39q0 26 -21 42t-59 16q-59 0 -116 -39l-31 43q76 51 154 51q65 0 102.5 -30.5t37.5 -80.5q0 -27 -10 -49.5t-34.5 -44t-39 -31t-51.5 -31.5q-9 -5 -13 -8q-43 -26 -62.5 -46.5
t-19.5 -50.5h231z" />
    <glyph glyph-name="two.onum" horiz-adv-x="576" 
d="M50 0v54q0 40 16 73.5t48.5 60t62 44.5t75.5 40q106 50 135 73q43 34 43 74q0 45 -34.5 68.5t-94.5 23.5q-100 0 -191 -63l-41 58q114 77 236 77q97 0 153.5 -41.5t56.5 -119.5q0 -23 -7 -44.5t-16 -37.5t-28.5 -33t-34 -28t-43 -26t-45 -23t-50.5 -24q-77 -37 -110 -64
t-38 -70h373v-72h-466z" />
    <glyph glyph-name="bracerightinferior" horiz-adv-x="257" 
d="M239 82v-47q-73 0 -62 -72l8 -55q11 -70 -27.5 -107t-121.5 -37h-12v39h12q93 0 83 97l-7 52q-13 90 71 107q-84 17 -71 106l7 51q10 97 -83 97h-12v40h12q83 0 121 -37t28 -108l-8 -55q-10 -71 62 -71z" />
    <glyph glyph-name="twofifths" horiz-adv-x="967" 
d="M358 335v-55h-307v36q0 31 10.5 56.5t34.5 48t41.5 35t52.5 34.5t52 34t32.5 31t15.5 39q0 26 -21 42t-59 16q-59 0 -116 -39l-31 43q77 51 154 51q65 0 102.5 -30.5t37.5 -80.5q0 -27 -10 -49.5t-34.5 -44t-39 -31t-51.5 -31.5q-9 -5 -13 -8q-43 -26 -62.5 -46.5
t-19.5 -50.5h231zM698 700l-334 -700h-70l334 700h70zM622 211l24 209h251v-55h-197l-9 -110q35 14 73 14q70 0 111 -39t41 -96q0 -58 -42 -99.5t-119 -41.5q-73 0 -151 46l30 49q52 -38 113 -38q42 0 71 23t29 60q0 36 -25.5 59.5t-71.5 23.5q-44 0 -91 -25z" />
    <glyph glyph-name="twofifths.onum" horiz-adv-x="854" 
d="M548 173l20 171h217v-45h-172l-9 -90q31 12 65 12q60 0 96 -32.5t36 -78.5q0 -48 -36.5 -82t-103.5 -34q-63 0 -130 38l24 40q54 -31 99 -31q37 0 63 19t26 50q0 29 -22.5 48t-62.5 19q-41 0 -81 -21zM317 275v-45h-265v30q0 25 9 46t30 39t36 28.5t46 28.5q33 19 46 28
t27.5 25t14.5 32q0 21 -19 34t-53 13q-52 0 -101 -31l-25 35q62 42 132 42q56 0 89 -25.5t33 -66.5q0 -11 -2 -20.5t-8 -19t-10 -16.5t-14.5 -16t-15.5 -13.5t-19.5 -13t-19 -11.5t-21.5 -12.5t-20 -11.5q-37 -21 -54 -37.5t-17 -41.5h201zM612 574l-291 -574h-58l290 574
h59z" />
    <glyph glyph-name="braceright.sc" horiz-adv-x="372" 
d="M334 316v-61q-97 0 -85 -99l10 -76q13 -96 -37.5 -146.5t-164.5 -50.5h-16v52h16q138 0 121 134l-10 73q-17 121 95 144q-112 23 -95 143l10 74q18 135 -121 135h-16v50h16q114 0 165 -50t37 -147l-10 -76q-14 -99 85 -99z" />
    <glyph glyph-name="Dsuperior" horiz-adv-x="453" 
d="M414 595q0 -210 -211 -210h-143v420h143q211 0 211 -210zM347 595q0 82 -36 118t-113 36h-72v-309h72q77 0 113 36.5t36 118.5z" />
    <glyph glyph-name="Zdotaccent.sc" horiz-adv-x="553" 
d="M41 64l357 440h-339v70h442v-63l-359 -442h364v-69h-465v64zM238 634v93h83v-93h-83z" />
    <glyph glyph-name="twothirds.onum" horiz-adv-x="850" 
d="M317 275v-45h-265v30q0 25 9 46t30.5 39.5t35.5 28t46 28.5q33 19 46 28t27.5 25t14.5 32q0 21 -19 34t-52 13q-52 0 -101 -31l-26 35q64 42 133 42q56 0 88.5 -25.5t32.5 -66.5q0 -11 -2 -20.5t-8 -19t-10 -16.5t-14.5 -16t-15.5 -13.5t-19.5 -13t-19 -11.5t-21.5 -12.5
t-20 -11.5q-37 -21 -54 -37.5t-17 -41.5h201zM612 574l-291 -574h-58l290 574h59zM523 32l27 38q51 -30 110 -30q37 0 61 16t24 43q0 34 -36 49t-82 15h-18v46h21q39 0 68.5 13.5t29.5 39.5q0 20 -17.5 31.5t-47.5 11.5q-48 0 -98 -29l-24 34q58 40 128 40q55 0 85 -24
t30 -58q0 -54 -71 -78q39 -9 63.5 -33.5t24.5 -58.5q0 -43 -34 -73.5t-101 -30.5q-70 0 -143 38z" />
    <glyph glyph-name="Dinferior" horiz-adv-x="453" 
d="M414 60q0 -210 -211 -210h-143v420h143q211 0 211 -210zM347 60q0 82 -36 118t-113 36h-72v-309h72q77 0 113 36.5t36 118.5z" />
    <glyph glyph-name="braceleftsuperior" horiz-adv-x="257" 
d="M18 570v47q73 0 62 72l-8 55q-11 70 27.5 107t121.5 37h12v-39h-12q-93 0 -83 -97l7 -52q13 -90 -71 -107q84 -17 71 -106l-7 -51q-10 -97 83 -97h12v-40h-12q-83 0 -121 37t-28 108l8 55q10 71 -62 71z" />
    <glyph glyph-name="Dcroat.sc" horiz-adv-x="631" 
d="M574 287q0 -287 -290 -287h-191v254h-65v66h65v254h191q290 0 290 -287zM491 287q0 115 -51.5 166t-161.5 51h-104v-184h144v-66h-144v-185h104q110 0 161.5 51.5t51.5 166.5z" />
    <glyph glyph-name="Dcaron.sc" horiz-adv-x="626" 
d="M568 287q0 -287 -290 -287h-191v574h191q290 0 290 -287zM485 287q0 115 -51.5 166t-161.5 51h-104v-435h104q110 0 161.5 51.5t51.5 166.5zM474 754l-100 -130h-95l-99 130h62l85 -86l85 86h62z" />
    <glyph glyph-name="D.sc" horiz-adv-x="626" 
d="M568 287q0 -287 -290 -287h-191v574h191q290 0 290 -287zM485 287q0 115 -51.5 166t-161.5 51h-104v-435h104q110 0 161.5 51.5t51.5 166.5z" />
    <glyph glyph-name="Csuperior" horiz-adv-x="414" 
d="M391 751l-33 -48q-87 50 -137 50q-51 0 -82 -42.5t-31 -115.5q0 -74 31 -116t82 -42q50 0 137 50l33 -48q-102 -61 -176 -61q-76 0 -125.5 55t-49.5 162t49.5 162t125.5 55q71 0 176 -61z" />
    <glyph glyph-name="Cinferior" horiz-adv-x="414" 
d="M391 216l-33 -48q-87 50 -137 50q-51 0 -82 -42.5t-31 -115.5q0 -74 31 -116t82 -42q50 0 137 50l33 -48q-102 -61 -176 -61q-76 0 -125.5 55t-49.5 162t49.5 162t125.5 55q71 0 176 -61z" />
    <glyph glyph-name="uinferior" horiz-adv-x="393" 
d="M277 -151v41q-73 -48 -133 -48q-96 0 -96 98v224h64v-211q0 -61 53 -61q28 0 60 15.5t52 32.5v224h64v-315h-64z" />
    <glyph glyph-name="Cdotaccent.sc" horiz-adv-x="573" 
d="M535 498l-42 -58q-117 70 -188 70q-74 0 -119 -59.5t-45 -163.5t45 -163.5t119 -59.5q71 0 188 70l42 -58q-136 -85 -237 -85q-105 0 -173 74.5t-68 221.5t68 221.5t173 74.5q98 0 237 -85zM264 634v93h83v-93h-83z" />
    </font>
</defs>
</svg>
