<?xml version="1.0" standalone="no"?>
<!DOCTYPE svg PUBLIC "-//W3C//DTD SVG 1.1//EN" "http://www.w3.org/Graphics/SVG/1.1/DTD/svg11.dtd" >
<svg xmlns="http://www.w3.org/2000/svg" xmlns:xlink="http://www.w3.org/1999/xlink" version="1.1">
<metadata>
Created by FontForge 20141024 at Wed Oct 14 21:00:53 2015
 By Jimmy Warting
Copyright (c) 2013 by Yellow Design Studio. All rights reserved.
</metadata>
<defs>
<font id="VerbExtrabold" horiz-adv-x="631" >
  <font-face 
    font-family="VerbExtrabold"
    font-weight="400"
    font-stretch="normal"
    units-per-em="1000"
    panose-1="2 0 9 0 3 0 0 2 0 4"
    ascent="760"
    descent="-240"
    x-height="525"
    cap-height="700"
    bbox="-117 -304 1428 959"
    underline-thickness="50"
    underline-position="-50"
    unicode-range="U+0020-FB06"
  />
<missing-glyph horiz-adv-x="262" 
 />
    <glyph glyph-name=".notdef" horiz-adv-x="262" 
 />
    <glyph glyph-name=".null" horiz-adv-x="0" 
 />
    <glyph glyph-name="nonmarkingreturn" horiz-adv-x="333" 
 />
    <glyph glyph-name="space" unicode=" " horiz-adv-x="274" 
 />
    <glyph glyph-name="exclam" unicode="!" horiz-adv-x="288" 
d="M61 0v164h167v-164h-167zM244 700l-51 -468h-98l-51 468h200z" />
    <glyph glyph-name="quotedbl" unicode="&#x22;" horiz-adv-x="505" 
d="M193 700l-27 -278h-102l-27 278h156zM409 700l-27 -278h-102l-27 278h156z" />
    <glyph glyph-name="numbersign" unicode="#" horiz-adv-x="733" 
d="M379 0l23 151h-133l-23 -151h-126l23 151h-110v123h129l24 152h-111v123h130l23 151h125l-23 -151h133l23 151h126l-23 -151h110v-123h-129l-23 -152h111v-123h-130l-23 -151h-126zM311 426l-23 -152h133l23 152h-133z" />
    <glyph glyph-name="dollar" unicode="$" horiz-adv-x="655" 
d="M392 -100h-118v96q-138 23 -244 90l76 121q50 -28 123.5 -52.5t123.5 -24.5q39 0 65.5 15t26.5 43q0 17 -10.5 29.5t-33.5 22.5t-46.5 17.5t-62.5 19.5t-70 24q-177 60 -177 201q0 86 60 143t169 65v91h118v-97q113 -17 211 -68l-76 -123q-47 22 -108.5 39.5t-103.5 17.5
q-39 0 -64 -14.5t-25 -42.5q0 -17 10.5 -29t32.5 -21t45.5 -16t61 -18t66.5 -22q36 -14 62 -27.5t57 -37.5t47.5 -60t16.5 -81q0 -88 -62 -146t-171 -65v-90z" />
    <glyph glyph-name="percent" unicode="%" horiz-adv-x="1013" 
d="M984 176q0 -88 -52 -137.5t-147 -49.5q-94 0 -145.5 49.5t-51.5 137.5t51.5 138t145.5 50t146.5 -50t52.5 -138zM863 176q0 89 -78 89q-77 0 -77 -89q0 -88 77 -88q78 0 78 88zM425 523q0 -88 -52 -137.5t-146 -49.5t-146 49.5t-52 137.5t52 138t146 50t146 -50t52 -138z
M305 523q0 89 -78 89q-77 0 -77 -89q0 -88 77 -88q78 0 78 88zM750 700l-362 -700h-126l361 700h127z" />
    <glyph glyph-name="ampersand" unicode="&#x26;" horiz-adv-x="734" 
d="M750 0h-188l-55 54q-97 -65 -219 -65q-105 0 -172.5 53t-67.5 136q0 61 37 106t103 87q-43 44 -66 83t-23 85q0 78 60.5 125t153.5 47t150 -47t57 -116q0 -55 -35.5 -99t-98.5 -90l112 -111q34 60 37 121h164q-17 -120 -97 -224zM302 111q55 0 109 38l-133 132
q-68 -56 -68 -98q0 -29 24 -50.5t68 -21.5zM246 533q0 -37 56 -93q71 48 71 94q0 24 -16 42.5t-46 18.5t-47.5 -18.5t-17.5 -43.5z" />
    <glyph glyph-name="quotesingle" unicode="'" horiz-adv-x="255" 
d="M193 700l-27 -278h-102l-27 278h156z" />
    <glyph glyph-name="parenleft" unicode="(" horiz-adv-x="355" 
d="M50 109v478q0 33 0.5 49.5t3.5 41.5t9 37.5t17 30.5t27.5 28.5t41 23t57.5 22t76 19.5l40 -91q-70 -24 -85.5 -45.5t-15.5 -74.5v-560q0 -53 15.5 -74.5t85.5 -45.5l-40 -91q-43 10 -76 19.5t-57.5 22t-41 23t-27.5 28.5t-17 30.5t-9 37.5t-3.5 41.5t-0.5 49.5z" />
    <glyph glyph-name="parenright" unicode=")" horiz-adv-x="355" 
d="M305 587v-478q0 -33 -0.5 -49.5t-3.5 -41.5t-9 -37.5t-17 -30.5t-27.5 -28.5t-41 -23t-57.5 -22t-76 -19.5l-40 91q70 24 85.5 45.5t15.5 74.5v560q0 53 -15.5 74.5t-85.5 45.5l40 91q43 -10 76 -19.5t57.5 -22t41 -23t27.5 -28.5t17 -30.5t9 -37.5t3.5 -41.5t0.5 -49.5z
" />
    <glyph glyph-name="asterisk" unicode="*" horiz-adv-x="473" 
d="M169 305l46 157l-113 -119l-68 118l160 37l-160 39l68 118l113 -120l-46 157h136l-47 -156l112 119l68 -118l-152 -37l152 -39l-68 -118l-109 113l44 -151h-136z" />
    <glyph glyph-name="plus" unicode="+" horiz-adv-x="633" 
d="M254 573h123v-178h198v-123h-198v-178h-123v178h-197v123h197v178z" />
    <glyph glyph-name="comma" unicode="," horiz-adv-x="281" 
d="M55 0v179h165l11 -201l-136 -146l-43 54l77 114h-74z" />
    <glyph glyph-name="hyphen" unicode="-" horiz-adv-x="434" 
d="M381 219h-328v131h328v-131z" />
    <glyph glyph-name="period" unicode="." horiz-adv-x="271" 
d="M52 0v179h167v-179h-167z" />
    <glyph glyph-name="slash" unicode="/" horiz-adv-x="487" 
d="M469 790l-327 -880h-123l327 880h123z" />
    <glyph glyph-name="zero" unicode="0" horiz-adv-x="687" 
d="M344 711q147 0 224 -94.5t77 -266.5q0 -173 -77.5 -267t-224.5 -94t-224 94t-77 267q0 172 77.5 266.5t224.5 94.5zM343 121q64 0 96.5 54.5t32.5 174.5t-32 174.5t-96 54.5q-130 0 -130 -229q0 -120 32.5 -174.5t96.5 -54.5z" />
    <glyph glyph-name="one" unicode="1" horiz-adv-x="429" 
d="M359 0h-171v542l-121 -63l-67 111l197 110h162v-700z" />
    <glyph glyph-name="two" unicode="2" horiz-adv-x="620" 
d="M577 141v-141h-547v74q0 50 18 94.5t52 80.5t67.5 62t80.5 55q14 9 48 29.5t45.5 29t30.5 24t25.5 29t6.5 28.5q0 27 -24.5 45.5t-68.5 18.5q-79 0 -187 -65l-76 109q138 97 287 97q116 0 178.5 -56t62.5 -141q0 -29 -8.5 -56t-18 -46.5t-32 -42t-35 -34.5t-44 -32
t-42.5 -26.5t-45 -25.5q-57 -32 -86 -57t-29 -53h341z" />
    <glyph glyph-name="three" unicode="3" horiz-adv-x="621" 
d="M14 80l74 116q120 -64 210 -64q52 0 82.5 20t30.5 57q0 90 -191 90h-31v141h36q38 0 70 5t59 22.5t27 46.5q0 56 -83 56q-80 0 -183 -59l-70 106q127 94 281 94q112 0 169 -48.5t57 -122.5q0 -104 -113 -154q63 -19 103.5 -68.5t40.5 -111.5q0 -42 -14 -79t-43.5 -69
t-82.5 -50.5t-123 -18.5q-157 0 -306 91z" />
    <glyph glyph-name="four" unicode="4" horiz-adv-x="688" 
d="M19 128v118l313 454h226v-431h106v-141h-106v-128h-171v128h-368zM192 269h195v290z" />
    <glyph glyph-name="five" unicode="5" horiz-adv-x="614" 
d="M57 346l38 354h457v-141h-315l-7 -110q49 13 97 13q121 0 186.5 -67t65.5 -165q0 -101 -70 -171t-202 -70q-140 0 -284 90l75 123q100 -67 185 -67q53 0 88 25t35 69q0 40 -31 68t-89 28q-63 0 -135 -38z" />
    <glyph glyph-name="six" unicode="6" horiz-adv-x="641" 
d="M465 573q-78 0 -142.5 -40.5t-92.5 -131.5q64 51 159 51q100 0 163.5 -60.5t63.5 -157.5q0 -103 -75.5 -174t-201.5 -71q-100 0 -169.5 44t-99.5 110t-30 146q-1 191 118.5 306.5t305.5 115.5q28 0 54.5 -2.5t39.5 -5.5l13 -3l-39 -133q-30 6 -67 6zM335 326
q-42 0 -74.5 -17.5t-48.5 -40.5q0 -69 35.5 -105t86.5 -36q55 0 83 30t28 70q0 43 -29 71t-81 28z" />
    <glyph glyph-name="seven" unicode="7" horiz-adv-x="540" 
d="M527 568q-10 -12 -27 -34t-60.5 -88.5t-77 -131t-60.5 -152t-27 -162.5h-177q0 70 24 151t54 143.5t70 126t60.5 91.5t36.5 47h-321v141h505v-132z" />
    <glyph glyph-name="eight" unicode="8" horiz-adv-x="659" 
d="M32 190q0 123 152 192q-107 63 -107 156q0 78 66.5 125.5t185.5 47.5t186.5 -48t67.5 -125q0 -94 -108 -156q152 -69 152 -192q0 -94 -79 -147.5t-219 -53.5t-218.5 53.5t-78.5 147.5zM454 203q0 38 -32.5 64t-92.5 51q-59 -25 -91.5 -51t-32.5 -64t34.5 -62t89.5 -24
t90 24t35 62zM243 522q0 -50 86 -86q87 36 87 86q0 25 -23.5 45t-63.5 20q-39 0 -62.5 -20t-23.5 -45z" />
    <glyph glyph-name="nine" unicode="9" horiz-adv-x="642" 
d="M177 127q78 0 142.5 40.5t92.5 130.5q-67 -51 -159 -51q-100 0 -163.5 61t-63.5 158q0 103 76 174t202 71q75 0 134 -25t94 -68t53 -95.5t18 -111.5q0 -191 -119 -306.5t-305 -115.5q-28 0 -55 2.5t-40 5.5l-13 3l40 133q29 -6 66 -6zM307 374q79 0 123 57
q-1 69 -36 105.5t-86 36.5q-55 0 -83 -30t-28 -71q0 -42 29.5 -70t80.5 -28z" />
    <glyph glyph-name="colon" unicode=":" horiz-adv-x="282" 
d="M57 306v179h167v-179h-167zM57 0v179h167v-179h-167z" />
    <glyph glyph-name="semicolon" unicode=";" horiz-adv-x="294" 
d="M62 306v179h167v-179h-167zM62 0v179h165l11 -201l-136 -146l-43 54l77 114h-74z" />
    <glyph glyph-name="less" unicode="&#x3c;" horiz-adv-x="633" 
d="M43 389l517 203v-138l-340 -121l340 -122v-136l-517 203v111z" />
    <glyph glyph-name="equal" unicode="=" horiz-adv-x="633" 
d="M57 370v122h518v-122h-518zM57 177v123h518v-123h-518z" />
    <glyph glyph-name="greater" unicode="&#x3e;" horiz-adv-x="633" 
d="M589 278l-517 -203v138l340 121l-340 122v136l517 -203v-111z" />
    <glyph glyph-name="question" unicode="?" horiz-adv-x="546" 
d="M137 0v164h166v-164h-166zM513 525q0 -47 -19 -84.5t-54.5 -62.5t-73.5 -41t-87 -29l-8 -76h-102l-9 164q101 20 141.5 41t40.5 61q0 30 -24 51t-68 21q-70 0 -155 -54l-70 115q127 80 253 80q103 0 169 -51t66 -135z" />
    <glyph glyph-name="at" unicode="@" horiz-adv-x="953" 
d="M461 -125q53 0 100.5 10.5t68.5 20.5l21 11l34 -44q-9 -6 -26 -14.5t-76 -23t-125 -14.5q-187 0 -303 122t-116 310q0 192 121.5 312.5t330.5 120.5q204 0 316 -119t113 -313q0 -79 -18 -140t-65.5 -103.5t-120.5 -42.5q-70 0 -104.5 37.5t-41.5 82.5q-72 -66 -162 -66
q-68 0 -112 40t-44 111q0 72 46.5 111.5t119.5 39.5q30 0 151 -22v38q0 42 -17.5 59.5t-63.5 17.5q-73 0 -166 -38l-40 82q129 47 229 47q90 0 133 -41t43 -129v-160q0 -35 1.5 -54.5t6.5 -41t17.5 -31t33.5 -9.5q47 0 82.5 54.5t35.5 161.5q0 78 -23 145t-68 118.5
t-117.5 80.5t-165.5 29q-187 0 -290.5 -106.5t-103.5 -271.5t100 -271.5t265 -106.5zM445 114q64 0 124 54v73q-86 16 -112 16q-85 0 -85 -75q0 -68 73 -68z" />
    <glyph glyph-name="A" unicode="A" horiz-adv-x="719" 
d="M528 0l-40 128h-258l-39 -128h-187l261 700h189l260 -700h-186zM359 543l-87 -282h175z" />
    <glyph glyph-name="B" unicode="B" horiz-adv-x="693" 
d="M667 189q0 -89 -64 -139t-196 -50h-340v700h295q268 0 268 -170q0 -66 -37 -107.5t-77 -48.5q22 -3 46 -15t49 -32.5t40.5 -56.5t15.5 -81zM461 500q0 69 -112 69h-111v-141h110q113 0 113 72zM498 217q0 89 -142 89h-118v-175h133q127 0 127 86z" />
    <glyph glyph-name="C" unicode="C" horiz-adv-x="655" 
d="M638 611l-79 -126q-132 73 -207 73q-66 0 -102.5 -56t-36.5 -152t36.5 -152t102.5 -56q75 0 207 73l79 -126q-87 -48 -158 -74t-149 -26q-132 0 -212.5 91.5t-80.5 269.5q0 177 80.5 269t212.5 92q78 0 149 -26t158 -74z" />
    <glyph glyph-name="D" unicode="D" horiz-adv-x="727" 
d="M688 350q0 -183 -90.5 -266.5t-268.5 -83.5h-262v700h262q178 0 268.5 -83.5t90.5 -266.5zM517 350q0 115 -50.5 160.5t-154.5 45.5h-73v-412h73q104 0 154.5 45t50.5 161z" />
    <glyph glyph-name="E" unicode="E" horiz-adv-x="619" 
d="M581 0h-514v700h509v-144h-338v-135h276v-141h-276v-136h343v-144z" />
    <glyph glyph-name="F" unicode="F" horiz-adv-x="593" 
d="M576 556h-338v-136h267v-141h-267v-279h-171v700h509v-144z" />
    <glyph glyph-name="G" unicode="G" horiz-adv-x="713" 
d="M506 0v67q-92 -78 -190 -78q-119 0 -198.5 92.5t-79.5 267.5q0 178 81.5 270t216.5 92q82 0 157 -26.5t164 -75.5l-80 -126q-146 75 -220 75q-68 0 -106 -56t-38 -152q0 -99 36 -157.5t106 -58.5q69 0 151 74v65h-159v134h318v-407h-159z" />
    <glyph glyph-name="H" unicode="H" horiz-adv-x="733" 
d="M495 0v297h-257v-297h-171v700h171v-262h257v262h170v-700h-170z" />
    <glyph glyph-name="I" unicode="I" horiz-adv-x="306" 
d="M238 0h-171v700h171v-700z" />
    <glyph glyph-name="J" unicode="J" horiz-adv-x="313" 
d="M246 700v-631q0 -34 -0.5 -50t-3 -42t-8.5 -38t-17 -30.5t-27.5 -28.5t-41 -23t-58 -22.5t-76.5 -19.5l-56 125q45 15 68 25t34.5 25.5t13 27.5t1.5 42v640h171z" />
    <glyph glyph-name="K" unicode="K" horiz-adv-x="707" 
d="M67 0v700h171v-310l251 310h208l-284 -326l296 -374h-203l-196 256l-72 -83v-173h-171z" />
    <glyph glyph-name="L" unicode="L" horiz-adv-x="577" 
d="M565 0h-498v700h171v-556h327v-144z" />
    <glyph glyph-name="M" unicode="M" horiz-adv-x="861" 
d="M623 0v428l-147 -311h-91l-147 309v-426h-171v700h174l189 -398l188 398h175v-700h-170z" />
    <glyph glyph-name="N" unicode="N" horiz-adv-x="749" 
d="M508 0l-270 443v-443h-171v700h173l271 -445v445h170v-700h-173z" />
    <glyph glyph-name="O" unicode="O" horiz-adv-x="767" 
d="M383 711q90 0 158 -27.5t108.5 -77.5t60 -114t19.5 -142t-19.5 -142t-60 -114t-108.5 -77.5t-158 -27.5q-176 0 -260.5 99.5t-84.5 261.5t84.5 261.5t260.5 99.5zM383 135q171 0 171 215t-171 215q-170 0 -170 -215t170 -215z" />
    <glyph glyph-name="P" unicode="P" horiz-adv-x="673" 
d="M655 469q0 -229 -286 -229h-131v-240h-171v700h302q286 0 286 -231zM482 469q0 90 -123 90h-121v-179h121q58 0 90.5 19.5t32.5 69.5z" />
    <glyph glyph-name="Q" unicode="Q" horiz-adv-x="767" 
d="M383 -11q-176 0 -260.5 99.5t-84.5 261.5t84.5 261.5t260.5 99.5q90 0 158 -27.5t108.5 -77.5t60 -114t19.5 -142q0 -113 -41.5 -198t-127.5 -127l108 -84l-113 -116zM383 135q171 0 171 215t-171 215q-170 0 -170 -215t170 -215z" />
    <glyph glyph-name="R" unicode="R" horiz-adv-x="711" 
d="M493 0l-155 263h-100v-263h-171v700h322q145 0 216.5 -54t71.5 -165q0 -169 -170 -207l171 -274h-185zM505 481q0 86 -125 86h-142v-171h140q61 0 94 18.5t33 66.5z" />
    <glyph glyph-name="S" unicode="S" horiz-adv-x="641" 
d="M436 407q36 -14 62 -27.5t57 -37.5t47.5 -60t16.5 -81q0 -94 -71 -153t-194 -59q-89 0 -179 29t-151 68l76 121q50 -28 123.5 -52.5t123.5 -24.5q39 0 65.5 15t26.5 43q0 17 -10.5 29.5t-33.5 22.5t-46.5 17.5t-62.5 19.5t-70 24q-177 60 -177 201q0 93 68.5 151
t191.5 58q75 0 156 -21.5t142 -53.5l-76 -123q-47 22 -108.5 39.5t-103.5 17.5q-39 0 -64 -14.5t-25 -42.5q0 -17 10.5 -29t32.5 -21t45.5 -16t61 -18t66.5 -22z" />
    <glyph glyph-name="T" unicode="T" horiz-adv-x="601" 
d="M588 556h-201v-556h-170v556h-204v144h575v-144z" />
    <glyph glyph-name="U" unicode="U" horiz-adv-x="722" 
d="M661 700v-409q0 -68 -13 -119t-44.5 -94.5t-92.5 -66t-150 -22.5q-72 0 -125.5 15.5t-86.5 42t-53.5 66t-28 82t-7.5 96.5v409h171v-424q0 -67 27.5 -104t102.5 -37t102.5 37t27.5 104v424h170z" />
    <glyph glyph-name="V" unicode="V" horiz-adv-x="715" 
d="M201 700l156 -508l158 508h197l-260 -700h-188l-261 700h198z" />
    <glyph glyph-name="W" unicode="W" horiz-adv-x="987" 
d="M610 0l-117 452l-117 -452h-167l-196 700h196l99 -464l117 464h136l117 -463l100 463h195l-196 -700h-167z" />
    <glyph glyph-name="X" unicode="X" horiz-adv-x="677" 
d="M13 700h198l127 -244l128 244h197l-221 -347l233 -353h-203l-134 236l-134 -236h-203l232 353z" />
    <glyph glyph-name="Y" unicode="Y" horiz-adv-x="674" 
d="M252 0v277l-252 423h193l144 -278l144 278h193l-252 -423v-277h-170z" />
    <glyph glyph-name="Z" unicode="Z" horiz-adv-x="644" 
d="M29 131l354 425h-332v144h553v-130l-353 -426h358v-144h-580v131z" />
    <glyph glyph-name="bracketleft" unicode="[" horiz-adv-x="368" 
d="M351 -143h-290v982h290v-95h-119v-793h119v-94z" />
    <glyph glyph-name="backslash" unicode="\" horiz-adv-x="487" 
d="M345 -90l-327 880h123l327 -880h-123z" />
    <glyph glyph-name="bracketright" unicode="]" horiz-adv-x="368" 
d="M17 839h290v-982h-290v95h119v793h-119v94z" />
    <glyph glyph-name="asciicircum" unicode="^" horiz-adv-x="627" 
d="M407 320l-94 222l-94 -222h-177l187 380h168l188 -380h-178z" />
    <glyph glyph-name="underscore" unicode="_" horiz-adv-x="710" 
d="M658 -185h-606v117h606v-117z" />
    <glyph glyph-name="grave" unicode="`" horiz-adv-x="241" 
d="M274 589h-134l-173 140h181z" />
    <glyph glyph-name="a" unicode="a" horiz-adv-x="604" 
d="M389 0v59q-78 -70 -181 -70q-81 0 -132.5 48t-51.5 125q0 79 54 124t142 45q49 0 169 -24v33q0 40 -19.5 56t-68.5 16q-67 0 -191 -37l-50 112q153 49 272 49q117 0 169 -47t52 -158v-331h-164zM262 115q67 0 127 50v63q-75 16 -114 16q-84 0 -84 -67q0 -62 71 -62z" />
    <glyph glyph-name="b" unicode="b" 
d="M56 0v729h164v-259q81 66 172 66q95 0 150.5 -70.5t55.5 -203.5q0 -132 -55.5 -202.5t-150.5 -70.5q-93 0 -172 65v-54h-164zM340 404q-68 0 -120 -62v-160q52 -61 120 -61q92 0 92 142q0 141 -92 141z" />
    <glyph glyph-name="c" unicode="c" horiz-adv-x="523" 
d="M508 474l-65 -122q-96 44 -142 44q-48 0 -75 -36t-27 -97t27 -97.5t75 -36.5q43 0 142 43l65 -121q-138 -62 -233 -62q-103 0 -173 69.5t-70 204.5q0 134 69.5 203.5t172.5 69.5q96 0 234 -62z" />
    <glyph glyph-name="d" unicode="d" 
d="M575 0h-164v54q-79 -65 -173 -65q-95 0 -150.5 70.5t-55.5 202.5q0 133 55.5 203.5t150.5 70.5q92 0 173 -66v259h164v-729zM290 121q66 0 121 61v160q-55 62 -121 62q-92 0 -92 -141q0 -142 92 -142z" />
    <glyph glyph-name="e" unicode="e" horiz-adv-x="584" 
d="M544 228h-345q12 -118 105 -118q73 0 192 62l60 -102q-147 -81 -269 -81q-113 0 -184.5 68.5t-71.5 203.5q0 130 71 202.5t197 72.5q123 0 188.5 -64t65.5 -169q0 -20 -2.5 -38.5t-4.5 -27.5zM300 420q-86 0 -100 -106h193q-2 106 -93 106z" />
    <glyph glyph-name="f" unicode="f" horiz-adv-x="398" 
d="M19 405v120h72v12q0 98 40 145t123 47q89 0 185 -44l-54 -117q-60 20 -87 20q-12 0 -20.5 -2.5t-16 -14t-7.5 -31.5v-15h128v-120h-128v-405h-163v405h-72z" />
    <glyph glyph-name="g" unicode="g" 
d="M411 525h164v-518q0 -112 -58 -166.5t-178 -54.5q-135 0 -284 43q3 11 14.5 56.5t17.5 69.5q137 -42 217 -42q60 0 83.5 20t23.5 66v55q-79 -65 -173 -65q-95 0 -150.5 70.5t-55.5 202.5q0 133 55.5 203.5t150.5 70.5q92 0 173 -66v55zM290 121q66 0 121 61v160
q-55 62 -121 62q-92 0 -92 -141q0 -142 92 -142z" />
    <glyph glyph-name="h" unicode="h" 
d="M220 729v-263q105 70 199 70q160 0 160 -167v-369h-164v331q0 37 -13.5 57.5t-48.5 20.5q-34 0 -71 -18.5t-62 -42.5v-348h-164v729h164z" />
    <glyph glyph-name="i" unicode="i" horiz-adv-x="276" 
d="M220 0h-165v525h165v-525zM52 592v134h172v-134h-172z" />
    <glyph glyph-name="j" unicode="j" horiz-adv-x="282" 
d="M58 592v134h172v-134h-172zM226 525v-500v-41t-1.5 -35t-4.5 -32.5t-8.5 -27.5t-14 -26t-21 -22t-29 -20.5l-38.5 -17.5t-49.5 -17.5t-61.5 -15.5l-53 119q45 15 67.5 24.5t34.5 25.5t13.5 28.5t1.5 44.5v513h164z" />
    <glyph glyph-name="k" unicode="k" horiz-adv-x="588" 
d="M560 525l-177 -207l208 -318h-177l-128 203l-66 -77v-126h-164v729h164v-404l150 200h190z" />
    <glyph glyph-name="l" unicode="l" horiz-adv-x="279" 
d="M221 0h-164v729h164v-729z" />
    <glyph glyph-name="m" unicode="m" horiz-adv-x="938" 
d="M220 525v-63q85 74 176 74q111 0 144 -87q34 33 84.5 60t104.5 27q158 0 158 -167v-369h-164v331q0 38 -11.5 58t-44.5 20q-59 0 -114 -63v-346h-164v331q0 38 -11.5 58t-45.5 20q-55 0 -112 -61v-348h-164v525h164z" />
    <glyph glyph-name="n" unicode="n" 
d="M220 525v-59q105 70 199 70q160 0 160 -167v-369h-164v331q0 37 -13.5 57.5t-48.5 20.5q-34 0 -71 -18.5t-62 -42.5v-348h-164v525h164z" />
    <glyph glyph-name="o" unicode="o" horiz-adv-x="622" 
d="M591 262q0 -130 -72.5 -201.5t-207.5 -71.5t-207.5 71.5t-72.5 202.5q0 130 72.5 201.5t207.5 71.5q134 0 207 -72t73 -202zM425 262q0 148 -114 148q-113 0 -113 -147q0 -148 113 -148q114 0 114 147z" />
    <glyph glyph-name="p" unicode="p" 
d="M220 525v-55q81 66 172 66q95 0 150.5 -70.5t55.5 -203.5q0 -132 -55.5 -202.5t-150.5 -70.5q-93 0 -172 65v-258h-164v729h164zM340 404q-68 0 -120 -62v-160q52 -61 120 -61q92 0 92 142q0 141 -92 141z" />
    <glyph glyph-name="q" unicode="q" 
d="M411 -204v258q-79 -65 -173 -65q-95 0 -150.5 70.5t-55.5 202.5q0 133 55.5 203.5t150.5 70.5q92 0 173 -66v55h164v-729h-164zM290 121q66 0 121 61v160q-55 62 -121 62q-92 0 -92 -141q0 -142 92 -142z" />
    <glyph glyph-name="r" unicode="r" horiz-adv-x="430" 
d="M220 525v-109q6 16 17.5 32.5t34 38.5t60.5 34.5t84 9.5v-154q-50 0 -88 -17.5t-57.5 -42.5t-32 -49.5t-15.5 -41.5l-3 -18v-208h-164v525h164z" />
    <glyph glyph-name="s" unicode="s" horiz-adv-x="541" 
d="M333 323q187 -46 187 -173q0 -74 -58 -117.5t-161 -43.5q-74 0 -151.5 21t-127.5 48l63 115q47 -22 108.5 -40.5t101.5 -18.5q25 0 42 8t17 22q0 10 -8 18t-26 15t-31 10.5t-39.5 10t-35.5 8.5q-181 46 -181 170q0 71 55 115.5t156 44.5q125 0 252 -58l-63 -107
q-106 41 -178 41q-57 0 -57 -30q0 -7 3.5 -13t12 -11t16.5 -8.5t22.5 -7.5t24.5 -6.5t28 -6t28 -6.5z" />
    <glyph glyph-name="t" unicode="t" horiz-adv-x="434" 
d="M20 405v120h72v132l163 20v-152h143v-120h-143v-225q0 -20 7.5 -31.5t16 -14t20.5 -2.5q20 0 77 22l57 -121q-99 -44 -178 -44q-163 0 -163 192v224h-72z" />
    <glyph glyph-name="u" unicode="u" 
d="M411 0v59q-104 -70 -201 -70q-159 0 -159 166v370h165v-331q0 -78 61 -78q32 0 69.5 18t64.5 43v348h164v-525h-164z" />
    <glyph glyph-name="v" unicode="v" horiz-adv-x="595" 
d="M378 0h-162l-208 525h177l112 -350l112 350h177z" />
    <glyph glyph-name="w" unicode="w" horiz-adv-x="850" 
d="M522 0l-97 329l-98 -329h-154l-161 525h174l77 -349l95 349h134l95 -349l77 349h174l-163 -525h-153z" />
    <glyph glyph-name="x" unicode="x" horiz-adv-x="618" 
d="M423 0l-115 172l-113 -172h-193l206 262l-195 263h186l110 -169l109 169h187l-195 -262l207 -263h-194z" />
    <glyph glyph-name="y" unicode="y" horiz-adv-x="595" 
d="M9 525h176l112 -329l112 329h177l-287 -729h-176l91 205z" />
    <glyph glyph-name="z" unicode="z" horiz-adv-x="566" 
d="M30 0v113l273 277h-263v135h492v-113l-273 -277h273v-135h-502z" />
    <glyph glyph-name="braceleft" unicode="{" horiz-adv-x="401" 
d="M9 299v97q59 0 80.5 28.5t14.5 81.5l-12 93q-16 121 57 180.5t213 59.5h18v-92h-18q-115 0 -98 -135l9 -75q11 -87 -25 -131t-117 -59q82 -14 117.5 -57.5t24.5 -130.5l-9 -75q-17 -135 98 -135h18v-92h-18q-141 0 -214 59.5t-56 180.5l13 93q16 109 -96 109z" />
    <glyph glyph-name="bar" unicode="|" horiz-adv-x="243" 
d="M182 -123h-120v941h120v-941z" />
    <glyph glyph-name="braceright" unicode="}" horiz-adv-x="401" 
d="M392 397v-97q-59 0 -80.5 -28.5t-14.5 -81.5l12 -93q16 -121 -57 -180.5t-213 -59.5h-18v92h18q115 0 98 135l-9 75q-11 87 25 131t117 59q-82 14 -117.5 57.5t-24.5 130.5l9 75q17 135 -98 135h-18v92h18q141 0 214 -59.5t56 -180.5l-13 -93q-16 -109 96 -109z" />
    <glyph glyph-name="asciitilde" unicode="~" horiz-adv-x="641" 
d="M112 177l-94 38q67 162 186 162q52 0 126 -37t112 -37q51 0 88 65l94 -38q-65 -162 -185 -162q-49 0 -125.5 37t-113.5 37q-25 0 -44 -13t-44 -52z" />
    <glyph glyph-name="uni00A0" unicode="&#xa0;" horiz-adv-x="274" 
 />
    <glyph glyph-name="exclamdown" unicode="&#xa1;" horiz-adv-x="288" 
d="M227 700v-164h-167v164h167zM44 0l51 468h98l51 -468h-200z" />
    <glyph glyph-name="cent" unicode="&#xa2;" horiz-adv-x="565" 
d="M381 0h-117v78q-96 7 -158.5 76.5t-62.5 196.5t63 196.5t158 75.5v77h117v-88q66 -16 151 -55l-66 -121q-107 48 -154 48q-48 0 -75 -36t-27 -97t27 -97.5t75 -36.5q47 0 154 48l66 -121q-89 -41 -151 -55v-89z" />
    <glyph glyph-name="sterling" unicode="&#xa3;" horiz-adv-x="586" 
d="M56 246v96h86q-7 13 -23.5 41t-25.5 45.5t-17.5 47t-8.5 58.5q0 83 57 130t159 47q42 0 81.5 -8t78 -24.5t56.5 -26.5t53 -30l-75 -109q-100 57 -161 57q-38 0 -58 -17t-20 -45q0 -31 33.5 -85t42.5 -81h161v-96h-153q-7 -36 -26 -64t-39 -41h283v-141h-495v114
q4 1 11.5 4t26.5 14.5t34 25.5t29 37.5t17 50.5h-107z" />
    <glyph glyph-name="yen" unicode="&#xa5;" horiz-adv-x="720" 
d="M97 288v95h115l-189 317h193l144 -278l144 278h193l-189 -317h115v-95h-172l-6 -11v-45h178v-95h-178v-137h-170v137h-178v95h178v45l-7 11h-171z" />
    <glyph glyph-name="brokenbar" unicode="&#xa6;" horiz-adv-x="245" 
d="M183 405h-120v413h120v-413zM183 -123h-120v413h120v-413z" />
    <glyph glyph-name="section" unicode="&#xa7;" horiz-adv-x="560" 
d="M227 141q-187 48 -187 169q0 84 81 121q-62 47 -62 120q0 71 55 115.5t156 44.5q125 0 252 -58l-63 -107q-104 41 -179 41q-58 0 -58 -30q0 -10 7.5 -18t24.5 -14t30.5 -9.5t38.5 -9t36 -8.5q187 -46 187 -169q0 -85 -81 -122q62 -47 62 -119q0 -71 -55.5 -115.5
t-156.5 -44.5q-127 0 -252 58l64 107q114 -42 179 -42q56 0 56 30q0 10 -6.5 17.5t-23 14t-28.5 10t-38.5 9.5t-38.5 9zM390 310q0 23 -32 36.5t-87 27.5q-10 2 -14 3q-32 -6 -46 -20t-14 -29q0 -23 30 -36t88 -27q3 0 5 -0.5t4.5 -1t4.5 -1.5q32 6 46.5 20t14.5 28z" />
    <glyph glyph-name="dieresis" unicode="&#xa8;" horiz-adv-x="254" 
d="M-29 599v122h127v-122h-127zM156 599v122h127v-122h-127z" />
    <glyph glyph-name="copyright" unicode="&#xa9;" horiz-adv-x="789" 
d="M555 505l-29 -35q-73 55 -136 55q-56 0 -91 -48.5t-35 -127.5q0 -78 35 -126t91 -48q29 0 59.5 11t41.5 17.5t35 23.5l29 -33q-88 -62 -167 -62q-74 0 -124 57t-50 160q0 104 50 161t124 57q79 0 167 -62zM38 350q0 157 95 259t262 102t261.5 -102t94.5 -259t-94.5 -259
t-261.5 -102t-262 102t-95 259zM78 350q0 -142 84 -233t232 -91q149 0 234 91.5t85 232.5t-85 232t-234 91q-148 0 -232 -91t-84 -232z" />
    <glyph glyph-name="ordfeminine" unicode="&#xaa;" horiz-adv-x="385" 
d="M244 385v33q-52 -40 -113 -40q-52 0 -84 30t-32 75q0 47 34.5 74t90.5 27q32 0 104 -13v15q0 22 -11.5 30t-41.5 8q-39 0 -120 -21l-34 74q99 30 175 30t110 -29.5t34 -98.5v-194h-112zM169 462q41 0 75 26v30q-51 9 -66 9q-50 0 -50 -34q0 -31 41 -31z" />
    <glyph glyph-name="guillemotleft" unicode="&#xab;" horiz-adv-x="680" 
d="M26 317l305 210v-153l-168 -106l168 -105v-153l-305 209v98zM327 317l305 210v-153l-168 -106l168 -105v-153l-305 209v98z" />
    <glyph glyph-name="logicalnot" unicode="&#xac;" horiz-adv-x="636" 
d="M608 90h-132v182h-461v123h593v-305z" />
    <glyph glyph-name="registered" unicode="&#xae;" horiz-adv-x="468" 
d="M37 520q0 87 53 143.5t145 56.5t144.5 -56.5t52.5 -143.5t-52.5 -143.5t-144.5 -56.5t-145 56.5t-53 143.5zM73 520q0 -74 41.5 -120.5t120.5 -46.5t120 46.5t41 120.5t-41 120.5t-120 46.5t-120.5 -46.5t-41.5 -120.5zM322 565q0 -20 -14 -35.5t-36 -20.5l47 -87h-37
l-44 85h-44v-85h-33v201h93q31 0 49.5 -16t18.5 -42zM288 565q0 28 -33 28h-61v-55h59q35 0 35 27z" />
    <glyph glyph-name="macron" unicode="&#xaf;" horiz-adv-x="312" 
d="M0 614v94h312v-94h-312z" />
    <glyph glyph-name="degree" unicode="&#xb0;" horiz-adv-x="458" 
d="M27 521q0 74 53 127t127 53t127 -53t53 -127t-53 -127t-127 -53t-127 53t-53 127zM121 521q0 -35 25.5 -60.5t60.5 -25.5t60.5 25.5t25.5 60.5t-25.5 60.5t-60.5 25.5t-60.5 -25.5t-25.5 -60.5z" />
    <glyph glyph-name="plusminus" unicode="&#xb1;" horiz-adv-x="633" 
d="M253 547h124v-132h198v-122h-198v-132h-124v132h-196v122h196v132zM57 0v105h518v-105h-518z" />
    <glyph glyph-name="twosuperior" unicode="&#xb2;" horiz-adv-x="396" 
d="M370 480v-95h-352v47q0 96 136 176q11 6 30.5 17t28.5 16.5t20 13.5t15 15t4 15q0 14 -14 23t-40 9q-50 0 -117 -40l-51 73q90 62 185 62q75 0 115 -34.5t40 -87.5q0 -29 -12 -54t-36.5 -44t-43 -30t-48.5 -26q-71 -36 -71 -56h211z" />
    <glyph glyph-name="threesuperior" unicode="&#xb3;" horiz-adv-x="396" 
d="M8 436l51 77q73 -39 133 -39q64 0 64 38q0 45 -116 45h-20v96h23q96 0 96 37q0 27 -48 27q-50 0 -117 -36l-46 71q80 60 182 60q72 0 108.5 -29.5t36.5 -74.5q0 -61 -69 -91q39 -12 63.5 -41t24.5 -66q0 -55 -40 -93.5t-128 -38.5q-100 0 -198 58z" />
    <glyph glyph-name="acute" unicode="&#xb4;" horiz-adv-x="241" 
d="M101 589h-134l125 140h182z" />
    <glyph glyph-name="mu" unicode="&#xb5;" horiz-adv-x="633" 
d="M421 0v59q-101 -68 -195 -70v-193h-164l-1 729h165v-331q0 -78 61 -78q32 0 69.5 18t64.5 43v348h164v-525h-164z" />
    <glyph glyph-name="paragraph" unicode="&#xb6;" horiz-adv-x="733" 
d="M309 700h136v-885h-138v391q-123 0 -202 61.5t-79 185.5q0 126 75.5 186.5t207.5 60.5zM521 -186v886h138v-886h-138z" />
    <glyph glyph-name="periodcentered" unicode="&#xb7;" horiz-adv-x="273" 
d="M53 195v179h167v-179h-167z" />
    <glyph glyph-name="cedilla" unicode="&#xb8;" horiz-adv-x="186" 
d="M-11 -164l32 79q24 -12 47 -12q46 0 46 35q0 13 -7 29t-14 25l-7 10h72q39 -43 39 -94q0 -48 -33 -71.5t-84 -23.5q-53 0 -91 23z" />
    <glyph glyph-name="onesuperior" unicode="&#xb9;" horiz-adv-x="278" 
d="M237 385h-116v315l-76 -38l-46 74l127 69h111v-420z" />
    <glyph glyph-name="ordmasculine" unicode="&#xba;" horiz-adv-x="396" 
d="M377 542q0 -78 -46.5 -121t-132.5 -43t-132.5 43.5t-46.5 121.5t46 121t133 43q86 0 132.5 -43.5t46.5 -121.5zM265 542q0 80 -67 80t-67 -79q0 -80 67 -80t67 79z" />
    <glyph glyph-name="guillemotright" unicode="&#xbb;" horiz-adv-x="680" 
d="M353 220l-305 -210v153l168 106l-168 105v153l305 -209v-98zM654 220l-305 -210v153l168 106l-168 105v153l305 -209v-98z" />
    <glyph glyph-name="onequarter" unicode="&#xbc;" horiz-adv-x="910" 
d="M259 280h-116v315l-76 -38l-46 74l127 69h111v-420zM636 700l-328 -700h-124l328 700h124zM458 73v79l195 268h154v-252h67v-95h-67v-73h-116v73h-233zM578 168h113v161z" />
    <glyph glyph-name="onehalf" unicode="&#xbd;" horiz-adv-x="914" 
d="M259 280h-116v315l-76 -38l-46 74l127 69h111v-420zM636 700l-328 -700h-124l328 700h124zM870 95v-95h-352v47q0 96 136 176q11 6 30.5 17t28.5 16.5t20 13.5t15 15t4 15q0 14 -14 23t-40 9q-50 0 -117 -40l-51 73q90 62 185 62q75 0 115 -34.5t40 -87.5q0 -29 -12 -54
t-36.5 -44t-43 -30t-48.5 -26q-71 -36 -71 -56h211z" />
    <glyph glyph-name="threequarters" unicode="&#xbe;" horiz-adv-x="996" 
d="M27 331l51 77q73 -39 133 -39q64 0 64 38q0 45 -116 45h-20v96h23q96 0 96 37q0 27 -48 27q-50 0 -117 -36l-46 71q80 60 182 60q72 0 108.5 -29.5t36.5 -74.5q0 -61 -69 -91q39 -12 63.5 -41t24.5 -66q0 -55 -40 -93.5t-128 -38.5q-100 0 -198 58zM727 700l-328 -700
h-124l328 700h124zM548 73v79l195 268h154v-252h67v-95h-67v-73h-116v73h-233zM668 168h113v161z" />
    <glyph glyph-name="questiondown" unicode="&#xbf;" horiz-adv-x="545" 
d="M408 700v-164h-166v164h166zM32 175q0 47 19 84.5t54.5 62.5t73.5 41t87 29l8 76h102l9 -164q-101 -20 -141.5 -41t-40.5 -61q0 -30 24 -51t68 -21q70 0 155 54l70 -115q-127 -80 -253 -80q-103 0 -169 51t-66 135z" />
    <glyph glyph-name="Agrave" unicode="&#xc0;" horiz-adv-x="719" 
d="M528 0l-40 128h-258l-39 -128h-187l261 700h189l260 -700h-186zM359 543l-87 -282h175zM469 740h-134l-173 140h181z" />
    <glyph glyph-name="Aacute" unicode="&#xc1;" horiz-adv-x="719" 
d="M528 0l-40 128h-258l-39 -128h-187l261 700h189l260 -700h-186zM359 543l-87 -282h175zM384 740h-134l125 140h182z" />
    <glyph glyph-name="Acircumflex" unicode="&#xc2;" horiz-adv-x="719" 
d="M528 0l-40 128h-258l-39 -128h-187l261 700h189l260 -700h-186zM359 543l-87 -282h175zM436 880l108 -140h-112l-73 70l-73 -70h-112l108 140h154z" />
    <glyph glyph-name="Atilde" unicode="&#xc3;" horiz-adv-x="719" 
d="M528 0l-40 128h-258l-39 -128h-187l261 700h189l260 -700h-186zM359 543l-87 -282h175zM238 744l-72 35q15 29 22.5 42t22.5 33t32.5 28t39.5 8q31 0 80.5 -24t63.5 -24q25 0 52 46l71 -35q-14 -28 -22 -41.5t-22.5 -33t-32.5 -28t-40 -8.5q-30 0 -79.5 24t-63.5 24
q-26 0 -52 -46z" />
    <glyph glyph-name="Adieresis" unicode="&#xc4;" horiz-adv-x="719" 
d="M528 0l-40 128h-258l-39 -128h-187l261 700h189l260 -700h-186zM359 543l-87 -282h175zM204 754v122h127v-122h-127zM389 754v122h127v-122h-127z" />
    <glyph glyph-name="Aring" unicode="&#xc5;" horiz-adv-x="719" 
d="M528 0l-40 128h-258l-39 -128h-187l261 700h189l260 -700h-186zM359 543l-87 -282h175zM246 844q0 48 33.5 81.5t80.5 33.5q48 0 81.5 -33.5t33.5 -81.5q0 -47 -33.5 -80.5t-81.5 -33.5q-47 0 -80.5 33.5t-33.5 80.5zM322 844q0 -16 11 -27t27 -11t27.5 11t11.5 27
t-11.5 27.5t-27.5 11.5t-27 -11.5t-11 -27.5z" />
    <glyph glyph-name="AE" unicode="&#xc6;" horiz-adv-x="1089" 
d="M1050 0h-514v128h-270l-81 -128h-205l473 700h592v-144h-338v-135h276v-141h-276v-136h343v-144zM354 266h182v284z" />
    <glyph glyph-name="Ccedilla" unicode="&#xc7;" horiz-adv-x="655" 
d="M205 -164l32 79q24 -12 47 -12q46 0 46 35q0 21 -19 52q-124 7 -198.5 98t-74.5 262q0 177 80.5 269t212.5 92q78 0 149 -26t158 -74l-79 -126q-132 73 -207 73q-66 0 -102.5 -56t-36.5 -152t36.5 -152t102.5 -56q75 0 207 73l79 -126q-155 -85 -256 -97q31 -42 31 -84
q0 -48 -33 -71.5t-84 -23.5q-53 0 -91 23z" />
    <glyph glyph-name="Egrave" unicode="&#xc8;" horiz-adv-x="619" 
d="M581 0h-514v700h509v-144h-338v-135h276v-141h-276v-136h343v-144zM434 740h-134l-173 140h181z" />
    <glyph glyph-name="Eacute" unicode="&#xc9;" horiz-adv-x="619" 
d="M581 0h-514v700h509v-144h-338v-135h276v-141h-276v-136h343v-144zM350 740h-134l125 140h182z" />
    <glyph glyph-name="Ecircumflex" unicode="&#xca;" horiz-adv-x="619" 
d="M581 0h-514v700h509v-144h-338v-135h276v-141h-276v-136h343v-144zM401 880l108 -140h-112l-73 70l-73 -70h-112l108 140h154z" />
    <glyph glyph-name="Edieresis" unicode="&#xcb;" horiz-adv-x="619" 
d="M581 0h-514v700h509v-144h-338v-135h276v-141h-276v-136h343v-144zM169 750v122h127v-122h-127zM354 750v122h127v-122h-127z" />
    <glyph glyph-name="Igrave" unicode="&#xcc;" horiz-adv-x="314" 
d="M245 0h-171v700h171v-700zM268 740h-134l-173 140h181z" />
    <glyph glyph-name="Iacute" unicode="&#xcd;" horiz-adv-x="314" 
d="M240 0h-171v700h171v-700zM180 740h-134l125 140h182z" />
    <glyph glyph-name="Icircumflex" unicode="&#xce;" horiz-adv-x="319" 
d="M244 0h-171v700h171v-700zM236 880l108 -140h-112l-73 70l-73 -70h-112l108 140h154z" />
    <glyph glyph-name="Idieresis" unicode="&#xcf;" horiz-adv-x="319" 
d="M244 0h-171v700h171v-700zM3 748v122h127v-122h-127zM188 748v122h127v-122h-127z" />
    <glyph glyph-name="Eth" unicode="&#xd0;" horiz-adv-x="743" 
d="M705 350q0 -183 -90.5 -266.5t-268.5 -83.5h-262v285h-73v131h73v284h262q178 0 268.5 -83.5t90.5 -266.5zM534 350q0 115 -50.5 160.5t-154.5 45.5h-73v-140h138v-131h-138v-141h73q104 0 154.5 45t50.5 161z" />
    <glyph glyph-name="Ntilde" unicode="&#xd1;" horiz-adv-x="749" 
d="M508 0l-270 443v-443h-171v700h173l271 -445v445h170v-700h-173zM259 751l-72 35q15 29 22.5 42t22.5 33t32.5 28t39.5 8q31 0 80.5 -24t63.5 -24q25 0 52 46l71 -35q-14 -28 -22 -41.5t-22.5 -33t-32.5 -28t-40 -8.5q-30 0 -79.5 24t-63.5 24q-26 0 -52 -46z" />
    <glyph glyph-name="Ograve" unicode="&#xd2;" horiz-adv-x="767" 
d="M383 711q90 0 158 -27.5t108.5 -77.5t60 -114t19.5 -142t-19.5 -142t-60 -114t-108.5 -77.5t-158 -27.5q-176 0 -260.5 99.5t-84.5 261.5t84.5 261.5t260.5 99.5zM383 135q171 0 171 215t-171 215q-170 0 -170 -215t170 -215zM493 740h-134l-173 140h181z" />
    <glyph glyph-name="Oacute" unicode="&#xd3;" horiz-adv-x="767" 
d="M383 711q90 0 158 -27.5t108.5 -77.5t60 -114t19.5 -142t-19.5 -142t-60 -114t-108.5 -77.5t-158 -27.5q-176 0 -260.5 99.5t-84.5 261.5t84.5 261.5t260.5 99.5zM383 135q171 0 171 215t-171 215q-170 0 -170 -215t170 -215zM408 740h-134l125 140h182z" />
    <glyph glyph-name="Ocircumflex" unicode="&#xd4;" horiz-adv-x="767" 
d="M383 711q90 0 158 -27.5t108.5 -77.5t60 -114t19.5 -142t-19.5 -142t-60 -114t-108.5 -77.5t-158 -27.5q-176 0 -260.5 99.5t-84.5 261.5t84.5 261.5t260.5 99.5zM383 135q171 0 171 215t-171 215q-170 0 -170 -215t170 -215zM460 880l108 -140h-112l-73 70l-73 -70h-112
l108 140h154z" />
    <glyph glyph-name="Otilde" unicode="&#xd5;" horiz-adv-x="767" 
d="M383 711q90 0 158 -27.5t108.5 -77.5t60 -114t19.5 -142t-19.5 -142t-60 -114t-108.5 -77.5t-158 -27.5q-176 0 -260.5 99.5t-84.5 261.5t84.5 261.5t260.5 99.5zM383 135q171 0 171 215t-171 215q-170 0 -170 -215t170 -215zM262 744l-72 35q15 29 22.5 42t22.5 33
t32.5 28t39.5 8q31 0 80.5 -24t63.5 -24q25 0 52 46l71 -35q-14 -28 -22 -41.5t-22.5 -33t-32.5 -28t-40 -8.5q-30 0 -79.5 24t-63.5 24q-26 0 -52 -46z" />
    <glyph glyph-name="Odieresis" unicode="&#xd6;" horiz-adv-x="767" 
d="M383 711q90 0 158 -27.5t108.5 -77.5t60 -114t19.5 -142t-19.5 -142t-60 -114t-108.5 -77.5t-158 -27.5q-176 0 -260.5 99.5t-84.5 261.5t84.5 261.5t260.5 99.5zM383 135q171 0 171 215t-171 215q-170 0 -170 -215t170 -215zM228 750v122h127v-122h-127zM413 750v122
h127v-122h-127z" />
    <glyph glyph-name="multiply" unicode="&#xd7;" horiz-adv-x="626" 
d="M540 459l-133 -123l134 -124l-90 -90l-138 127l-137 -126l-91 90l134 123l-135 125l90 90l138 -128l137 126z" />
    <glyph glyph-name="Oslash" unicode="&#xd8;" horiz-adv-x="766" 
d="M382 711q112 0 192 -45l26 34h118l-72 -92q82 -94 82 -258q0 -78 -19.5 -142t-60 -114t-108.5 -77.5t-158 -27.5q-110 0 -190 43l-25 -32h-117l70 90q-83 93 -83 260q0 162 84.5 261.5t260.5 99.5zM212 350q0 -71 19 -119l244 310q-38 24 -93 24q-170 0 -170 -215z
M382 135q171 0 171 215q0 69 -19 117l-243 -310q38 -22 91 -22z" />
    <glyph glyph-name="Ugrave" unicode="&#xd9;" horiz-adv-x="722" 
d="M661 700v-409q0 -68 -13 -119t-44.5 -94.5t-92.5 -66t-150 -22.5q-72 0 -125.5 15.5t-86.5 42t-53.5 66t-28 82t-7.5 96.5v409h171v-424q0 -67 27.5 -104t102.5 -37t102.5 37t27.5 104v424h170zM471 740h-134l-173 140h181z" />
    <glyph glyph-name="Uacute" unicode="&#xda;" horiz-adv-x="722" 
d="M661 700v-409q0 -68 -13 -119t-44.5 -94.5t-92.5 -66t-150 -22.5q-72 0 -125.5 15.5t-86.5 42t-53.5 66t-28 82t-7.5 96.5v409h171v-424q0 -67 27.5 -104t102.5 -37t102.5 37t27.5 104v424h170zM386 740h-134l125 140h182z" />
    <glyph glyph-name="Ucircumflex" unicode="&#xdb;" horiz-adv-x="722" 
d="M661 700v-409q0 -68 -13 -119t-44.5 -94.5t-92.5 -66t-150 -22.5q-72 0 -125.5 15.5t-86.5 42t-53.5 66t-28 82t-7.5 96.5v409h171v-424q0 -67 27.5 -104t102.5 -37t102.5 37t27.5 104v424h170zM438 880l108 -140h-112l-73 70l-73 -70h-112l108 140h154z" />
    <glyph glyph-name="Udieresis" unicode="&#xdc;" horiz-adv-x="722" 
d="M661 700v-409q0 -68 -13 -119t-44.5 -94.5t-92.5 -66t-150 -22.5q-72 0 -125.5 15.5t-86.5 42t-53.5 66t-28 82t-7.5 96.5v409h171v-424q0 -67 27.5 -104t102.5 -37t102.5 37t27.5 104v424h170zM206 750v122h127v-122h-127zM391 750v122h127v-122h-127z" />
    <glyph glyph-name="Yacute" unicode="&#xdd;" horiz-adv-x="674" 
d="M252 0v277l-252 423h193l144 -278l144 278h193l-252 -423v-277h-170zM362 740h-134l125 140h182z" />
    <glyph glyph-name="Thorn" unicode="&#xde;" horiz-adv-x="681" 
d="M655 361q0 -229 -286 -229h-131v-132h-171v700h171v-108h131q286 0 286 -231zM482 361q0 51 -34.5 70t-111.5 19h-98v-179h98q76 0 111 19.5t35 70.5z" />
    <glyph glyph-name="germandbls" unicode="&#xdf;" horiz-adv-x="714" 
d="M339 731q141 0 211.5 -58t70.5 -138q0 -28 -9.5 -53t-19.5 -36l-9 -10q-34 -7 -63 -23t-29 -39q0 -15 13 -25t46.5 -27.5t59.5 -35.5q83 -60 83 -137q0 -70 -52.5 -115t-140.5 -45q-107 0 -229 61l63 115q95 -44 152 -44q43 0 43 26q0 25 -52 48q-1 0 -14 5.5t-17.5 7.5
t-18 9t-19.5 11.5t-18 13t-18 16t-14.5 18.5t-13 22.5t-7.5 26t-3 30.5q0 107 126 157q2 10 2 16q0 33 -29.5 55t-86.5 22q-64 0 -95 -35.5t-31 -120.5v-449h-164v459q0 272 283 272z" />
    <glyph glyph-name="agrave" unicode="&#xe0;" horiz-adv-x="604" 
d="M389 0v59q-78 -70 -181 -70q-81 0 -132.5 48t-51.5 125q0 79 54 124t142 45q49 0 169 -24v33q0 40 -19.5 56t-68.5 16q-67 0 -191 -37l-50 112q153 49 272 49q117 0 169 -47t52 -158v-331h-164zM262 115q67 0 127 50v63q-75 16 -114 16q-84 0 -84 -67q0 -62 71 -62z
M416 589h-134l-173 140h181z" />
    <glyph glyph-name="aacute" unicode="&#xe1;" horiz-adv-x="604" 
d="M389 0v59q-78 -70 -181 -70q-81 0 -132.5 48t-51.5 125q0 79 54 124t142 45q49 0 169 -24v33q0 40 -19.5 56t-68.5 16q-67 0 -191 -37l-50 112q153 49 272 49q117 0 169 -47t52 -158v-331h-164zM262 115q67 0 127 50v63q-75 16 -114 16q-84 0 -84 -67q0 -62 71 -62z
M331 589h-134l125 140h182z" />
    <glyph glyph-name="acircumflex" unicode="&#xe2;" horiz-adv-x="604" 
d="M389 0v59q-78 -70 -181 -70q-81 0 -132.5 48t-51.5 125q0 79 54 124t142 45q49 0 169 -24v33q0 40 -19.5 56t-68.5 16q-67 0 -191 -37l-50 112q153 49 272 49q117 0 169 -47t52 -158v-331h-164zM262 115q67 0 127 50v63q-75 16 -114 16q-84 0 -84 -67q0 -62 71 -62z
M383 729l108 -140h-112l-73 70l-73 -70h-112l108 140h154z" />
    <glyph glyph-name="atilde" unicode="&#xe3;" horiz-adv-x="604" 
d="M389 0v59q-78 -70 -181 -70q-81 0 -132.5 48t-51.5 125q0 79 54 124t142 45q49 0 169 -24v33q0 40 -19.5 56t-68.5 16q-67 0 -191 -37l-50 112q153 49 272 49q117 0 169 -47t52 -158v-331h-164zM262 115q67 0 127 50v63q-75 16 -114 16q-84 0 -84 -67q0 -62 71 -62z
M186 593l-72 35q15 29 22.5 42t22.5 33t32.5 28t39.5 8q31 0 80.5 -24t63.5 -24q25 0 52 46l71 -35q-14 -28 -22 -41.5t-22.5 -33t-32.5 -28t-40 -8.5q-30 0 -79.5 24t-63.5 24q-26 0 -52 -46z" />
    <glyph glyph-name="adieresis" unicode="&#xe4;" horiz-adv-x="604" 
d="M389 0v59q-78 -70 -181 -70q-81 0 -132.5 48t-51.5 125q0 79 54 124t142 45q49 0 169 -24v33q0 40 -19.5 56t-68.5 16q-67 0 -191 -37l-50 112q153 49 272 49q117 0 169 -47t52 -158v-331h-164zM262 115q67 0 127 50v63q-75 16 -114 16q-84 0 -84 -67q0 -62 71 -62z
M150 599v122h127v-122h-127zM335 599v122h127v-122h-127z" />
    <glyph glyph-name="aring" unicode="&#xe5;" horiz-adv-x="604" 
d="M389 0v59q-78 -70 -181 -70q-81 0 -132.5 48t-51.5 125q0 79 54 124t142 45q49 0 169 -24v33q0 40 -19.5 56t-68.5 16q-67 0 -191 -37l-50 112q153 49 272 49q117 0 169 -47t52 -158v-331h-164zM262 115q67 0 127 50v63q-75 16 -114 16q-84 0 -84 -67q0 -62 71 -62z
M192 693q0 48 33.5 81.5t80.5 33.5q48 0 81.5 -33.5t33.5 -81.5q0 -47 -33.5 -80.5t-81.5 -33.5q-47 0 -80.5 33.5t-33.5 80.5zM268 693q0 -16 11 -27t27 -11t27.5 11t11.5 27q0 17 -11.5 28t-27.5 11t-27 -11.5t-11 -27.5z" />
    <glyph glyph-name="ae" unicode="&#xe6;" horiz-adv-x="929" 
d="M890 228h-345q12 -118 105 -118q73 0 192 62l60 -102q-147 -81 -269 -81q-145 0 -212 102q-95 -102 -213 -102q-81 0 -132.5 48t-51.5 125q0 79 54 124t142 45q54 0 159 -24q3 25 9 48q-3 31 -23 44t-64 13q-67 0 -191 -37l-50 112q153 49 272 49q105 0 159 -39
q64 39 154 39q123 0 188.5 -64t65.5 -169q0 -20 -2.5 -38.5t-4.5 -27.5zM262 115q66 0 126 50q-7 25 -10 62q-79 17 -103 17q-84 0 -84 -67q0 -62 71 -62zM646 420q-86 0 -100 -106h193q-2 106 -93 106z" />
    <glyph glyph-name="ccedilla" unicode="&#xe7;" horiz-adv-x="523" 
d="M131 -164l32 79q24 -12 47 -12q46 0 46 35q0 26 -21 54q-89 13 -146 81.5t-57 189.5q0 134 69.5 203.5t172.5 69.5q96 0 234 -62l-65 -122q-96 44 -142 44q-48 0 -75 -36t-27 -97t27 -97.5t75 -36.5q43 0 142 43l65 -121q-110 -51 -199 -60q30 -44 30 -83
q0 -48 -33 -71.5t-84 -23.5q-53 0 -91 23z" />
    <glyph glyph-name="egrave" unicode="&#xe8;" horiz-adv-x="584" 
d="M544 228h-345q12 -118 105 -118q73 0 192 62l60 -102q-147 -81 -269 -81q-113 0 -184.5 68.5t-71.5 203.5q0 130 71 202.5t197 72.5q123 0 188.5 -64t65.5 -169q0 -20 -2.5 -38.5t-4.5 -27.5zM300 420q-86 0 -100 -106h193q-2 106 -93 106zM412 589h-134l-173 140h181z
" />
    <glyph glyph-name="eacute" unicode="&#xe9;" horiz-adv-x="584" 
d="M544 228h-345q12 -118 105 -118q73 0 192 62l60 -102q-147 -81 -269 -81q-113 0 -184.5 68.5t-71.5 203.5q0 130 71 202.5t197 72.5q123 0 188.5 -64t65.5 -169q0 -20 -2.5 -38.5t-4.5 -27.5zM300 420q-86 0 -100 -106h193q-2 106 -93 106zM328 589h-134l125 140h182z
" />
    <glyph glyph-name="ecircumflex" unicode="&#xea;" horiz-adv-x="584" 
d="M544 228h-345q12 -118 105 -118q73 0 192 62l60 -102q-147 -81 -269 -81q-113 0 -184.5 68.5t-71.5 203.5q0 130 71 202.5t197 72.5q123 0 188.5 -64t65.5 -169q0 -20 -2.5 -38.5t-4.5 -27.5zM300 420q-86 0 -100 -106h193q-2 106 -93 106zM380 729l108 -140h-112l-73 70
l-73 -70h-112l108 140h154z" />
    <glyph glyph-name="edieresis" unicode="&#xeb;" horiz-adv-x="584" 
d="M544 228h-345q12 -118 105 -118q73 0 192 62l60 -102q-147 -81 -269 -81q-113 0 -184.5 68.5t-71.5 203.5q0 130 71 202.5t197 72.5q123 0 188.5 -64t65.5 -169q0 -20 -2.5 -38.5t-4.5 -27.5zM300 420q-86 0 -100 -106h193q-2 106 -93 106zM147 599v122h127v-122h-127z
M332 599v122h127v-122h-127z" />
    <glyph glyph-name="igrave" unicode="&#xec;" horiz-adv-x="284" 
d="M226 0h-164v525h164v-525zM253 589h-134l-173 140h181z" />
    <glyph glyph-name="iacute" unicode="&#xed;" horiz-adv-x="284" 
d="M222 0h-164v525h164v-525zM165 589h-134l125 140h182z" />
    <glyph glyph-name="icircumflex" unicode="&#xee;" horiz-adv-x="288" 
d="M226 0h-164v525h164v-525zM220 729l108 -140h-112l-73 70l-73 -70h-112l108 140h154z" />
    <glyph glyph-name="idieresis" unicode="&#xef;" horiz-adv-x="287" 
d="M226 0h-164v525h164v-525zM-12 599v122h127v-122h-127zM173 599v122h127v-122h-127z" />
    <glyph glyph-name="eth" unicode="&#xf0;" horiz-adv-x="636" 
d="M256 509h-132l55 62q-20 0 -39.5 -2t-28.5 -4l-9 -2l-19 126q40 11 107 11q43 0 97 -9l34 38h132l-63 -71q103 -48 158 -145.5t55 -219.5q0 -146 -78 -225t-215 -79q-130 0 -204.5 66t-74.5 178q0 109 67.5 176t171.5 67q52 0 93 -16.5t57 -33.5l15 -16q-30 102 -140 143
zM439 232q0 52 -28 85t-90 33t-90.5 -34t-28.5 -84t28.5 -83.5t90.5 -33.5q61 0 89.5 33t28.5 84z" />
    <glyph glyph-name="ntilde" unicode="&#xf1;" 
d="M220 525v-59q105 70 199 70q160 0 160 -167v-369h-164v331q0 37 -13.5 57.5t-48.5 20.5q-34 0 -71 -18.5t-62 -42.5v-348h-164v525h164zM195 593l-72 35q15 29 22.5 42t22.5 33t32.5 28t39.5 8q31 0 80.5 -24t63.5 -24q25 0 52 46l71 -35q-14 -28 -22 -41.5t-22.5 -33
t-32.5 -28t-40 -8.5q-30 0 -79.5 24t-63.5 24q-26 0 -52 -46z" />
    <glyph glyph-name="ograve" unicode="&#xf2;" horiz-adv-x="622" 
d="M591 262q0 -130 -72.5 -201.5t-207.5 -71.5t-207.5 71.5t-72.5 202.5q0 130 72.5 201.5t207.5 71.5q134 0 207 -72t73 -202zM425 262q0 148 -114 148q-113 0 -113 -147q0 -148 113 -148q114 0 114 147zM420 589h-134l-173 140h181z" />
    <glyph glyph-name="oacute" unicode="&#xf3;" horiz-adv-x="622" 
d="M591 262q0 -130 -72.5 -201.5t-207.5 -71.5t-207.5 71.5t-72.5 202.5q0 130 72.5 201.5t207.5 71.5q134 0 207 -72t73 -202zM425 262q0 148 -114 148q-113 0 -113 -147q0 -148 113 -148q114 0 114 147zM336 589h-134l125 140h182z" />
    <glyph glyph-name="ocircumflex" unicode="&#xf4;" horiz-adv-x="622" 
d="M591 262q0 -130 -72.5 -201.5t-207.5 -71.5t-207.5 71.5t-72.5 202.5q0 130 72.5 201.5t207.5 71.5q134 0 207 -72t73 -202zM425 262q0 148 -114 148q-113 0 -113 -147q0 -148 113 -148q114 0 114 147zM388 729l108 -140h-112l-73 70l-73 -70h-112l108 140h154z" />
    <glyph glyph-name="otilde" unicode="&#xf5;" horiz-adv-x="622" 
d="M591 262q0 -130 -72.5 -201.5t-207.5 -71.5t-207.5 71.5t-72.5 202.5q0 130 72.5 201.5t207.5 71.5q134 0 207 -72t73 -202zM425 262q0 148 -114 148q-113 0 -113 -147q0 -148 113 -148q114 0 114 147zM191 593l-72 35q15 29 22.5 42t22.5 33t32.5 28t39.5 8
q31 0 80.5 -24t63.5 -24q25 0 52 46l71 -35q-14 -28 -22 -41.5t-22.5 -33t-32.5 -28t-40 -8.5q-30 0 -79.5 24t-63.5 24q-26 0 -52 -46z" />
    <glyph glyph-name="odieresis" unicode="&#xf6;" horiz-adv-x="622" 
d="M591 262q0 -130 -72.5 -201.5t-207.5 -71.5t-207.5 71.5t-72.5 202.5q0 130 72.5 201.5t207.5 71.5q134 0 207 -72t73 -202zM425 262q0 148 -114 148q-113 0 -113 -147q0 -148 113 -148q114 0 114 147zM156 599v122h127v-122h-127zM341 599v122h127v-122h-127z" />
    <glyph glyph-name="divide" unicode="&#xf7;" horiz-adv-x="633" 
d="M237 522q0 33 22.5 56t56.5 23q33 0 56 -23t23 -56q0 -34 -23 -56.5t-56 -22.5q-34 0 -56.5 22.5t-22.5 56.5zM237 145q0 33 23 56.5t56 23.5t56 -23.5t23 -56.5t-23 -56t-56 -23q-34 0 -56.5 23t-22.5 56zM57 272v123h518v-123h-518z" />
    <glyph glyph-name="oslash" unicode="&#xf8;" horiz-adv-x="621" 
d="M590 262q0 -130 -72.5 -201.5t-207.5 -71.5q-91 0 -154 33l-18 -22h-96l55 66q-67 70 -67 197q0 130 72.5 201.5t207.5 71.5q86 0 152 -33l18 22h94l-54 -65q70 -72 70 -198zM424 262q0 41 -9 71l-168 -202q25 -16 63 -16q114 0 114 147zM197 263q0 -43 8 -68l166 199
q-27 16 -61 16q-113 0 -113 -147z" />
    <glyph glyph-name="ugrave" unicode="&#xf9;" 
d="M411 0v59q-104 -70 -201 -70q-159 0 -159 166v370h165v-331q0 -78 61 -78q32 0 69.5 18t64.5 43v348h164v-525h-164zM422 589h-134l-173 140h181z" />
    <glyph glyph-name="uacute" unicode="&#xfa;" 
d="M411 0v59q-104 -70 -201 -70q-159 0 -159 166v370h165v-331q0 -78 61 -78q32 0 69.5 18t64.5 43v348h164v-525h-164zM337 589h-134l125 140h182z" />
    <glyph glyph-name="ucircumflex" unicode="&#xfb;" 
d="M411 0v59q-104 -70 -201 -70q-159 0 -159 166v370h165v-331q0 -78 61 -78q32 0 69.5 18t64.5 43v348h164v-525h-164zM389 729l108 -140h-112l-73 70l-73 -70h-112l108 140h154z" />
    <glyph glyph-name="udieresis" unicode="&#xfc;" 
d="M411 0v59q-104 -70 -201 -70q-159 0 -159 166v370h165v-331q0 -78 61 -78q32 0 69.5 18t64.5 43v348h164v-525h-164zM157 599v122h127v-122h-127zM342 599v122h127v-122h-127z" />
    <glyph glyph-name="yacute" unicode="&#xfd;" horiz-adv-x="595" 
d="M9 525h176l112 -329l112 329h177l-287 -729h-176l91 205zM322 589h-134l125 140h182z" />
    <glyph glyph-name="thorn" unicode="&#xfe;" 
d="M392 -11q-93 0 -172 65v-258h-164v933h164v-259q81 66 172 66q95 0 150.5 -70.5t55.5 -203.5q0 -132 -55.5 -202.5t-150.5 -70.5zM340 404q-68 0 -120 -62v-160q52 -61 120 -61q92 0 92 142q0 141 -92 141z" />
    <glyph glyph-name="ydieresis" unicode="&#xff;" horiz-adv-x="595" 
d="M9 525h176l112 -329l112 329h177l-287 -729h-176l91 205zM142 599v122h127v-122h-127zM327 599v122h127v-122h-127z" />
    <glyph glyph-name="Amacron" unicode="&#x100;" horiz-adv-x="719" 
d="M528 0l-40 128h-258l-39 -128h-187l261 700h189l260 -700h-186zM359 543l-87 -282h175zM204 765v94h312v-94h-312z" />
    <glyph glyph-name="amacron" unicode="&#x101;" horiz-adv-x="604" 
d="M389 0v59q-78 -70 -181 -70q-81 0 -132.5 48t-51.5 125q0 79 54 124t142 45q49 0 169 -24v33q0 40 -19.5 56t-68.5 16q-67 0 -191 -37l-50 112q153 49 272 49q117 0 169 -47t52 -158v-331h-164zM262 115q67 0 127 50v63q-75 16 -114 16q-84 0 -84 -67q0 -62 71 -62z
M150 614v94h312v-94h-312z" />
    <glyph glyph-name="Abreve" unicode="&#x102;" horiz-adv-x="719" 
d="M528 0l-40 128h-258l-39 -128h-187l261 700h189l260 -700h-186zM359 543l-87 -282h175zM358 740q-81 0 -125.5 34t-44.5 94h99q0 -41 71 -41q72 0 72 41h100q0 -60 -45.5 -94t-126.5 -34z" />
    <glyph glyph-name="abreve" unicode="&#x103;" horiz-adv-x="604" 
d="M389 0v59q-78 -70 -181 -70q-81 0 -132.5 48t-51.5 125q0 79 54 124t142 45q49 0 169 -24v33q0 40 -19.5 56t-68.5 16q-67 0 -191 -37l-50 112q153 49 272 49q117 0 169 -47t52 -158v-331h-164zM262 115q67 0 127 50v63q-75 16 -114 16q-84 0 -84 -67q0 -62 71 -62z
M306 589q-81 0 -125.5 34t-44.5 94h99q0 -41 71 -41q72 0 72 41h100q0 -60 -45.5 -94t-126.5 -34z" />
    <glyph glyph-name="Aogonek" unicode="&#x104;" horiz-adv-x="719" 
d="M528 0l-40 128h-258l-39 -128h-187l261 700h189l260 -700h-3q-93 -54 -93 -93q0 -10 4.5 -16.5t10 -10t15.5 -5t15.5 -2t16.5 0t12 0.5l-14 -72q-82 0 -117 17q-47 22 -47 72q0 61 98 109h-84zM359 543l-87 -282h175z" />
    <glyph glyph-name="aogonek" unicode="&#x105;" horiz-adv-x="604" 
d="M389 0v59q-78 -70 -181 -70q-81 0 -132.5 48t-51.5 125q0 79 54 124t142 45q49 0 169 -24v33q0 40 -19.5 56t-68.5 16q-67 0 -191 -37l-50 112q153 49 272 49q117 0 169 -47t52 -158v-331h-3q-93 -54 -93 -93q0 -10 4.5 -16.5t10 -10t15.5 -5t15.5 -2t16.5 0t12 0.5
l-14 -72q-82 0 -117 17q-47 22 -47 72q0 61 98 109h-62zM262 115q67 0 127 50v63q-75 16 -114 16q-84 0 -84 -67q0 -62 71 -62z" />
    <glyph glyph-name="Cacute" unicode="&#x106;" horiz-adv-x="655" 
d="M638 611l-79 -126q-132 73 -207 73q-66 0 -102.5 -56t-36.5 -152t36.5 -152t102.5 -56q75 0 207 73l79 -126q-87 -48 -158 -74t-149 -26q-132 0 -212.5 91.5t-80.5 269.5q0 177 80.5 269t212.5 92q78 0 149 -26t158 -74zM406 740h-134l125 140h182z" />
    <glyph glyph-name="cacute" unicode="&#x107;" horiz-adv-x="523" 
d="M508 474l-65 -122q-96 44 -142 44q-48 0 -75 -36t-27 -97t27 -97.5t75 -36.5q43 0 142 43l65 -121q-138 -62 -233 -62q-103 0 -173 69.5t-70 204.5q0 134 69.5 203.5t172.5 69.5q96 0 234 -62zM310 589h-134l125 140h182z" />
    <glyph glyph-name="Cdotaccent" unicode="&#x10a;" horiz-adv-x="655" 
d="M638 611l-79 -126q-132 73 -207 73q-66 0 -102.5 -56t-36.5 -152t36.5 -152t102.5 -56q75 0 207 73l79 -126q-87 -48 -158 -74t-149 -26q-132 0 -212.5 91.5t-80.5 269.5q0 177 80.5 269t212.5 92q78 0 149 -26t158 -74zM285 750v122h127v-122h-127z" />
    <glyph glyph-name="cdotaccent" unicode="&#x10b;" horiz-adv-x="523" 
d="M508 474l-65 -122q-96 44 -142 44q-48 0 -75 -36t-27 -97t27 -97.5t75 -36.5q43 0 142 43l65 -121q-138 -62 -233 -62q-103 0 -173 69.5t-70 204.5q0 134 69.5 203.5t172.5 69.5q96 0 234 -62zM221 599v122h127v-122h-127z" />
    <glyph glyph-name="Ccaron" unicode="&#x10c;" horiz-adv-x="655" 
d="M638 611l-79 -126q-132 73 -207 73q-66 0 -102.5 -56t-36.5 -152t36.5 -152t102.5 -56q75 0 207 73l79 -126q-87 -48 -158 -74t-149 -26q-132 0 -212.5 91.5t-80.5 269.5q0 177 80.5 269t212.5 92q78 0 149 -26t158 -74zM537 880l-108 -140h-154l-108 140h112l73 -71
l73 71h112z" />
    <glyph glyph-name="ccaron" unicode="&#x10d;" horiz-adv-x="523" 
d="M508 474l-65 -122q-96 44 -142 44q-48 0 -75 -36t-27 -97t27 -97.5t75 -36.5q43 0 142 43l65 -121q-138 -62 -233 -62q-103 0 -173 69.5t-70 204.5q0 134 69.5 203.5t172.5 69.5q96 0 234 -62zM469 729l-108 -140h-154l-108 140h112l73 -71l73 71h112z" />
    <glyph glyph-name="Dcaron" unicode="&#x10e;" horiz-adv-x="727" 
d="M688 350q0 -183 -90.5 -266.5t-268.5 -83.5h-262v700h262q178 0 268.5 -83.5t90.5 -266.5zM517 350q0 115 -50.5 160.5t-154.5 45.5h-73v-412h73q104 0 154.5 45t50.5 161zM562 880l-108 -140h-154l-108 140h112l73 -71l73 71h112z" />
    <glyph glyph-name="dcaron" unicode="&#x10f;" horiz-adv-x="713" 
d="M575 0h-164v54q-79 -65 -173 -65q-95 0 -150.5 70.5t-55.5 202.5q0 133 55.5 203.5t150.5 70.5q92 0 173 -66v259h164v-729zM290 121q66 0 121 61v160q-55 62 -121 62q-92 0 -92 -141q0 -142 92 -142zM625 601v128h120l7 -142l-99 -107l-31 39l56 82h-53z" />
    <glyph glyph-name="Dcroat" unicode="&#x110;" horiz-adv-x="743" 
d="M705 350q0 -183 -90.5 -266.5t-268.5 -83.5h-262v285h-73v131h73v284h262q178 0 268.5 -83.5t90.5 -266.5zM534 350q0 115 -50.5 160.5t-154.5 45.5h-73v-140h138v-131h-138v-141h73q104 0 154.5 45t50.5 161z" />
    <glyph glyph-name="dcroat" unicode="&#x111;" horiz-adv-x="636" 
d="M242 575v94h169v60h164v-60h60v-94h-60v-575h-164v54q-79 -65 -173 -65q-95 0 -150.5 70.5t-55.5 202.5q0 133 55.5 203.5t150.5 70.5q92 0 173 -66v105h-169zM290 121q66 0 121 61v160q-55 62 -121 62q-92 0 -92 -141q0 -142 92 -142z" />
    <glyph glyph-name="Emacron" unicode="&#x112;" horiz-adv-x="619" 
d="M581 0h-514v700h509v-144h-338v-135h276v-141h-276v-136h343v-144zM168 765v94h312v-94h-312z" />
    <glyph glyph-name="emacron" unicode="&#x113;" horiz-adv-x="584" 
d="M544 228h-345q12 -118 105 -118q73 0 192 62l60 -102q-147 -81 -269 -81q-113 0 -184.5 68.5t-71.5 203.5q0 130 71 202.5t197 72.5q123 0 188.5 -64t65.5 -169q0 -20 -2.5 -38.5t-4.5 -27.5zM300 420q-86 0 -100 -106h193q-2 106 -93 106zM147 614v94h312v-94h-312z" />
    <glyph glyph-name="Edotaccent" unicode="&#x116;" horiz-adv-x="619" 
d="M581 0h-514v700h509v-144h-338v-135h276v-141h-276v-136h343v-144zM261 750v122h127v-122h-127z" />
    <glyph glyph-name="edotaccent" unicode="&#x117;" horiz-adv-x="584" 
d="M544 228h-345q12 -118 105 -118q73 0 192 62l60 -102q-147 -81 -269 -81q-113 0 -184.5 68.5t-71.5 203.5q0 130 71 202.5t197 72.5q123 0 188.5 -64t65.5 -169q0 -20 -2.5 -38.5t-4.5 -27.5zM300 420q-86 0 -100 -106h193q-2 106 -93 106zM240 599v122h127v-122h-127z
" />
    <glyph glyph-name="Eogonek" unicode="&#x118;" horiz-adv-x="619" 
d="M485 -93q0 -10 4.5 -16.5t10 -10t15.5 -5t15.5 -2t16.5 0t12 0.5l-14 -72q-82 0 -117 17q-47 22 -47 72q0 61 98 109h-412v700h509v-144h-338v-135h276v-141h-276v-136h343v-144h-3q-93 -54 -93 -93z" />
    <glyph glyph-name="eogonek" unicode="&#x119;" horiz-adv-x="585" 
d="M286 -93q0 -10 4.5 -16.5t10 -10t15.5 -5t15.5 -2t16.5 0t12 0.5l-14 -72q-82 0 -117 17q-46 23 -47 72q0 55 79 99q-103 8 -166.5 76t-63.5 195q0 130 71 202.5t197 72.5q123 0 188.5 -64t65.5 -169q0 -20 -2.5 -38.5t-4.5 -27.5l-2 -9h-345q12 -118 105 -118
q73 0 192 62l60 -102q-92 -52 -179 -71q-91 -53 -91 -92zM300 420q-86 0 -100 -106h193q-2 106 -93 106z" />
    <glyph glyph-name="Ecaron" unicode="&#x11a;" horiz-adv-x="619" 
d="M581 0h-514v700h509v-144h-338v-135h276v-141h-276v-136h343v-144zM509 877l-108 -140h-154l-108 140h112l73 -71l73 71h112z" />
    <glyph glyph-name="ecaron" unicode="&#x11b;" horiz-adv-x="584" 
d="M544 228h-345q12 -118 105 -118q73 0 192 62l60 -102q-147 -81 -269 -81q-113 0 -184.5 68.5t-71.5 203.5q0 130 71 202.5t197 72.5q123 0 188.5 -64t65.5 -169q0 -20 -2.5 -38.5t-4.5 -27.5zM300 420q-86 0 -100 -106h193q-2 106 -93 106zM488 729l-108 -140h-154
l-108 140h112l73 -71l73 71h112z" />
    <glyph glyph-name="Gbreve" unicode="&#x11e;" horiz-adv-x="713" 
d="M506 0v67q-92 -78 -190 -78q-119 0 -198.5 92.5t-79.5 267.5q0 178 81.5 270t216.5 92q82 0 157 -26.5t164 -75.5l-80 -126q-146 75 -220 75q-68 0 -106 -56t-38 -152q0 -99 36 -157.5t106 -58.5q69 0 151 74v65h-159v134h318v-407h-159zM350 740q-81 0 -125.5 34
t-44.5 94h99q0 -41 71 -41q72 0 72 41h100q0 -60 -45.5 -94t-126.5 -34z" />
    <glyph glyph-name="gbreve" unicode="&#x11f;" 
d="M411 525h164v-518q0 -112 -58 -166.5t-178 -54.5q-135 0 -284 43q3 11 14.5 56.5t17.5 69.5q137 -42 217 -42q60 0 83.5 20t23.5 66v55q-79 -65 -173 -65q-95 0 -150.5 70.5t-55.5 202.5q0 133 55.5 203.5t150.5 70.5q92 0 173 -66v55zM290 121q66 0 121 61v160
q-55 62 -121 62q-92 0 -92 -141q0 -142 92 -142zM315 589q-81 0 -125.5 34t-44.5 94h99q0 -41 71 -41q72 0 72 41h100q0 -60 -45.5 -94t-126.5 -34z" />
    <glyph glyph-name="Gdotaccent" unicode="&#x120;" horiz-adv-x="713" 
d="M506 0v67q-92 -78 -190 -78q-119 0 -198.5 92.5t-79.5 267.5q0 178 81.5 270t216.5 92q82 0 157 -26.5t164 -75.5l-80 -126q-146 75 -220 75q-68 0 -106 -56t-38 -152q0 -99 36 -157.5t106 -58.5q69 0 151 74v65h-159v134h318v-407h-159zM287 750v122h127v-122h-127z" />
    <glyph glyph-name="gdotaccent" unicode="&#x121;" 
d="M411 525h164v-518q0 -112 -58 -166.5t-178 -54.5q-135 0 -284 43q3 11 14.5 56.5t17.5 69.5q137 -42 217 -42q60 0 83.5 20t23.5 66v55q-79 -65 -173 -65q-95 0 -150.5 70.5t-55.5 202.5q0 133 55.5 203.5t150.5 70.5q92 0 173 -66v55zM290 121q66 0 121 61v160
q-55 62 -121 62q-92 0 -92 -141q0 -142 92 -142zM252 599v122h127v-122h-127z" />
    <glyph glyph-name="Gcommaaccent" unicode="&#x122;" horiz-adv-x="713" 
d="M506 0v67q-92 -78 -190 -78q-119 0 -198.5 92.5t-79.5 267.5q0 178 81.5 270t216.5 92q82 0 157 -26.5t164 -75.5l-80 -126q-146 75 -220 75q-68 0 -106 -56t-38 -152q0 -99 36 -157.5t106 -58.5q69 0 151 74v65h-159v134h318v-407h-159zM308 -183v128h120l7 -142
l-99 -107l-31 39l56 82h-53z" />
    <glyph glyph-name="gcommaaccent" unicode="&#x123;" 
d="M411 525h164v-518q0 -112 -58 -166.5t-178 -54.5q-135 0 -284 43q3 11 14.5 56.5t17.5 69.5q137 -42 217 -42q60 0 83.5 20t23.5 66v55q-79 -65 -173 -65q-95 0 -150.5 70.5t-55.5 202.5q0 133 55.5 203.5t150.5 70.5q92 0 173 -66v55zM290 121q66 0 121 61v160
q-55 62 -121 62q-92 0 -92 -141q0 -142 92 -142zM376 727v-128h-120l-7 142l99 107l31 -39l-56 -82h53z" />
    <glyph glyph-name="Hbar" unicode="&#x126;" horiz-adv-x="768" 
d="M10 514v94h75v92h171v-92h257v92h170v-92h76v-94h-76v-514h-170v297h-257v-297h-171v514h-75zM256 438h257v76h-257v-76z" />
    <glyph glyph-name="hbar" unicode="&#x127;" horiz-adv-x="636" 
d="M225 729v-60h170v-94h-170v-109q105 70 199 70q160 0 160 -167v-369h-164v331q0 37 -13.5 57.5t-48.5 20.5q-34 0 -71 -18.5t-62 -42.5v-348h-164v575h-60v94h60v60h164z" />
    <glyph glyph-name="Itilde" unicode="&#x128;" horiz-adv-x="319" 
d="M245 0h-171v700h171v-700zM38 744l-72 35q15 29 22.5 42t22.5 33t32.5 28t39.5 8q31 0 80.5 -24t63.5 -24q25 0 52 46l71 -35q-14 -28 -22 -41.5t-22.5 -33t-32.5 -28t-40 -8.5q-30 0 -79.5 24t-63.5 24q-26 0 -52 -46z" />
    <glyph glyph-name="itilde" unicode="&#x129;" horiz-adv-x="288" 
d="M226 0h-164v525h164v-525zM23 593l-72 35q15 29 22.5 42t22.5 33t32.5 28t39.5 8q31 0 80.5 -24t63.5 -24q25 0 52 46l71 -35q-14 -28 -22 -41.5t-22.5 -33t-32.5 -28t-40 -8.5q-30 0 -79.5 24t-63.5 24q-26 0 -52 -46z" />
    <glyph glyph-name="Imacron" unicode="&#x12a;" horiz-adv-x="321" 
d="M245 0h-171v700h171v-700zM4 765v94h312v-94h-312z" />
    <glyph glyph-name="imacron" unicode="&#x12b;" horiz-adv-x="289" 
d="M226 0h-164v525h164v-525zM-12 614v94h312v-94h-312z" />
    <glyph glyph-name="Ibreve" unicode="&#x12c;" horiz-adv-x="320" 
d="M244 0h-171v700h171v-700zM158 740q-81 0 -125.5 34t-44.5 94h99q0 -41 71 -41q72 0 72 41h100q0 -60 -45.5 -94t-126.5 -34z" />
    <glyph glyph-name="ibreve" unicode="&#x12d;" horiz-adv-x="287" 
d="M225 0h-164v525h164v-525zM142 589q-81 0 -125.5 34t-44.5 94h99q0 -41 71 -41q72 0 72 41h100q0 -60 -45.5 -94t-126.5 -34z" />
    <glyph glyph-name="Iogonek" unicode="&#x12e;" horiz-adv-x="309" 
d="M146 -93q0 -10 4.5 -16.5t10 -10t15.5 -5t15.5 -2t16.5 0t12 0.5l-14 -72q-82 0 -117 17q-47 22 -47 72q0 61 98 109h-70v700h171v-700h-2q-93 -54 -93 -93z" />
    <glyph glyph-name="iogonek" unicode="&#x12f;" horiz-adv-x="282" 
d="M131 -93q0 -10 4.5 -16.5t10 -10t15.5 -5t15.5 -2t16.5 0t12 0.5l-14 -72q-82 0 -117 17q-47 22 -47 72q0 61 98 109h-62v525h164v-525h-3q-93 -54 -93 -93zM58 592v134h172v-134h-172z" />
    <glyph glyph-name="Idotaccent" unicode="&#x130;" horiz-adv-x="306" 
d="M238 0h-171v700h171v-700zM89 750v122h127v-122h-127z" />
    <glyph glyph-name="dotlessi" unicode="&#x131;" horiz-adv-x="276" 
d="M220 0h-164v525h164v-525z" />
    <glyph glyph-name="IJ" unicode="&#x132;" horiz-adv-x="626" 
d="M238 0h-171v700h171v-700zM558 700v-631q0 -34 -0.5 -50t-3 -42t-8.5 -38t-17 -30.5t-27.5 -28.5t-41 -23t-58 -22.5t-76.5 -19.5l-56 125q45 15 68 25t34.5 25.5t13 27.5t1.5 42v640h171z" />
    <glyph glyph-name="ij" unicode="&#x133;" horiz-adv-x="563" 
d="M220 0h-165v525h165v-525zM52 592v134h172v-134h-172zM339 592v134h172v-134h-172zM507 525v-500v-41t-1.5 -35t-4.5 -32.5t-8.5 -27.5t-14 -26t-21 -22t-29 -20.5l-38.5 -17.5t-49.5 -17.5t-61.5 -15.5l-53 119q45 15 67.5 24.5t34.5 25.5t13.5 28.5t1.5 44.5v513h164z
" />
    <glyph glyph-name="Jcircumflex" unicode="&#x134;" horiz-adv-x="320" 
d="M246 700v-631q0 -34 -0.5 -50t-3 -42t-8.5 -38t-17 -30.5t-27.5 -28.5t-41 -23t-58 -22.5t-76.5 -19.5l-56 125q45 15 68 25t34.5 25.5t13 27.5t1.5 42v640h171zM237 880l108 -140h-112l-73 70l-73 -70h-112l108 140h154z" />
    <glyph glyph-name="jcircumflex" unicode="&#x135;" horiz-adv-x="288" 
d="M226 525v-500v-41t-1.5 -35t-4.5 -32.5t-8.5 -27.5t-14 -26t-21 -22t-29 -20.5l-38.5 -17.5t-49.5 -17.5t-61.5 -15.5l-53 119q45 15 67.5 24.5t34.5 25.5t13.5 28.5t1.5 44.5v513h164zM220 729l108 -140h-112l-73 70l-73 -70h-112l108 140h154z" />
    <glyph glyph-name="Kcommaaccent" unicode="&#x136;" horiz-adv-x="707" 
d="M67 0v700h171v-310l251 310h208l-284 -326l296 -374h-203l-196 256l-72 -83v-173h-171zM288 -183v128h120l7 -142l-99 -107l-31 39l56 82h-53z" />
    <glyph glyph-name="kcommaaccent" unicode="&#x137;" horiz-adv-x="588" 
d="M560 525l-177 -207l208 -318h-177l-128 203l-66 -77v-126h-164v729h164v-404l150 200h190zM237 -183v128h120l7 -142l-99 -107l-31 39l56 82h-53z" />
    <glyph glyph-name="kgreenlandic" unicode="&#x138;" horiz-adv-x="588" 
d="M560 525l-177 -207l208 -318h-177l-128 203l-66 -77v-126h-164v525h164v-200l150 200h190z" />
    <glyph glyph-name="Lacute" unicode="&#x139;" horiz-adv-x="580" 
d="M567 0h-498v700h171v-556h327v-144zM180 740h-134l125 140h182z" />
    <glyph glyph-name="lacute" unicode="&#x13a;" horiz-adv-x="288" 
d="M223 0h-164v729h164v-729zM167 771h-134l125 140h182z" />
    <glyph glyph-name="Lcommaaccent" unicode="&#x13b;" horiz-adv-x="577" 
d="M565 0h-498v700h171v-556h327v-144zM251 -183v128h120l7 -142l-99 -107l-31 39l56 82h-53z" />
    <glyph glyph-name="lcommaaccent" unicode="&#x13c;" horiz-adv-x="279" 
d="M222 0h-164v729h164v-729zM82 -183v128h120l7 -142l-99 -107l-31 39l56 82h-53z" />
    <glyph glyph-name="Lcaron" unicode="&#x13d;" horiz-adv-x="577" 
d="M565 0h-498v700h171v-556h327v-144zM289 572v128h120l7 -142l-99 -107l-31 39l56 82h-53z" />
    <glyph glyph-name="lcaron" unicode="&#x13e;" horiz-adv-x="360" 
d="M221 0h-164v729h164v-729zM272 601v128h120l7 -142l-99 -107l-31 39l56 82h-53z" />
    <glyph glyph-name="Ldot" unicode="&#x13f;" horiz-adv-x="579" 
d="M565 0h-498v700h171v-556h327v-144zM387 308v122h127v-122h-127z" />
    <glyph glyph-name="ldot" unicode="&#x140;" horiz-adv-x="386" 
d="M221 0h-164v729h164v-729zM271 308v122h127v-122h-127z" />
    <glyph glyph-name="Lslash" unicode="&#x141;" horiz-adv-x="593" 
d="M581 0h-498v226l-68 -38v149l68 38v325h171v-230l132 74v-150l-132 -73v-177h327v-144z" />
    <glyph glyph-name="lslash" unicode="&#x142;" horiz-adv-x="321" 
d="M242 0h-164v243l-61 -34v149l61 34v337h164v-245l61 35v-150l-61 -34v-335z" />
    <glyph glyph-name="Nacute" unicode="&#x143;" horiz-adv-x="749" 
d="M508 0l-270 443v-443h-171v700h173l271 -445v445h170v-700h-173zM405 740h-134l125 140h182z" />
    <glyph glyph-name="nacute" unicode="&#x144;" 
d="M220 525v-59q105 70 199 70q160 0 160 -167v-369h-164v331q0 37 -13.5 57.5t-48.5 20.5q-34 0 -71 -18.5t-62 -42.5v-348h-164v525h164zM341 589h-134l125 140h182z" />
    <glyph glyph-name="Ncommaaccent" unicode="&#x145;" horiz-adv-x="749" 
d="M508 0l-270 443v-443h-171v700h173l271 -445v445h170v-700h-173zM323 -183v128h120l7 -142l-99 -107l-31 39l56 82h-53z" />
    <glyph glyph-name="ncommaaccent" unicode="&#x146;" 
d="M220 525v-59q105 70 199 70q160 0 160 -167v-369h-164v331q0 37 -13.5 57.5t-48.5 20.5q-34 0 -71 -18.5t-62 -42.5v-348h-164v525h164zM259 -183v128h120l7 -142l-99 -107l-31 39l56 82h-53z" />
    <glyph glyph-name="Ncaron" unicode="&#x147;" horiz-adv-x="749" 
d="M508 0l-270 443v-443h-171v700h173l271 -445v445h170v-700h-173zM564 880l-108 -140h-154l-108 140h112l73 -71l73 71h112z" />
    <glyph glyph-name="ncaron" unicode="&#x148;" 
d="M220 525v-59q105 70 199 70q160 0 160 -167v-369h-164v331q0 37 -13.5 57.5t-48.5 20.5q-34 0 -71 -18.5t-62 -42.5v-348h-164v525h164zM501 729l-108 -140h-154l-108 140h112l73 -71l73 71h112z" />
    <glyph glyph-name="napostrophe" unicode="&#x149;" 
d="M220 525v-59q105 70 199 70q160 0 160 -167v-369h-164v331q0 37 -13.5 57.5t-48.5 20.5q-34 0 -71 -18.5t-62 -42.5v-348h-164v525h164zM56 679v128h120l7 -142l-99 -107l-31 39l56 82h-53z" />
    <glyph glyph-name="Eng" unicode="&#x14a;" horiz-adv-x="749" 
d="M681 700v-658q0 -43 -3.5 -67.5t-15.5 -51.5t-37 -44t-67 -33.5t-107 -30.5l-57 125q58 18 81 31t31 32l-268 440v-443h-171v700h173l271 -445v445h170z" />
    <glyph glyph-name="eng" unicode="&#x14b;" 
d="M579 369v-345q0 -98 -14 -133q-22 -59 -111 -92q-42 -15 -103 -29l-53 119q46 15 68 24.5t34 25t13.5 28.5t1.5 45v319q0 37 -13.5 57.5t-48.5 20.5q-34 0 -71 -18.5t-62 -42.5v-348h-164v525h164v-59q105 70 199 70q160 0 160 -167z" />
    <glyph glyph-name="Omacron" unicode="&#x14c;" horiz-adv-x="767" 
d="M383 711q90 0 158 -27.5t108.5 -77.5t60 -114t19.5 -142t-19.5 -142t-60 -114t-108.5 -77.5t-158 -27.5q-176 0 -260.5 99.5t-84.5 261.5t84.5 261.5t260.5 99.5zM383 135q171 0 171 215t-171 215q-170 0 -170 -215t170 -215zM227 765v94h312v-94h-312z" />
    <glyph glyph-name="omacron" unicode="&#x14d;" horiz-adv-x="622" 
d="M591 262q0 -130 -72.5 -201.5t-207.5 -71.5t-207.5 71.5t-72.5 202.5q0 130 72.5 201.5t207.5 71.5q134 0 207 -72t73 -202zM425 262q0 148 -114 148q-113 0 -113 -147q0 -148 113 -148q114 0 114 147zM155 614v94h312v-94h-312z" />
    <glyph glyph-name="Obreve" unicode="&#x14e;" horiz-adv-x="767" 
d="M383 711q90 0 158 -27.5t108.5 -77.5t60 -114t19.5 -142t-19.5 -142t-60 -114t-108.5 -77.5t-158 -27.5q-176 0 -260.5 99.5t-84.5 261.5t84.5 261.5t260.5 99.5zM383 135q171 0 171 215t-171 215q-170 0 -170 -215t170 -215zM382 740q-81 0 -125.5 34t-44.5 94h99
q0 -41 71 -41q72 0 72 41h100q0 -60 -45.5 -94t-126.5 -34z" />
    <glyph glyph-name="obreve" unicode="&#x14f;" horiz-adv-x="622" 
d="M591 262q0 -130 -72.5 -201.5t-207.5 -71.5t-207.5 71.5t-72.5 202.5q0 130 72.5 201.5t207.5 71.5q134 0 207 -72t73 -202zM425 262q0 148 -114 148q-113 0 -113 -147q0 -148 113 -148q114 0 114 147zM311 589q-81 0 -125.5 34t-44.5 94h99q0 -41 71 -41q72 0 72 41h100
q0 -60 -45.5 -94t-126.5 -34z" />
    <glyph glyph-name="Ohungarumlaut" unicode="&#x150;" horiz-adv-x="767" 
d="M383 711q90 0 158 -27.5t108.5 -77.5t60 -114t19.5 -142t-19.5 -142t-60 -114t-108.5 -77.5t-158 -27.5q-176 0 -260.5 99.5t-84.5 261.5t84.5 261.5t260.5 99.5zM383 135q171 0 171 215t-171 215q-170 0 -170 -215t170 -215zM507 740h-96l81 140h145zM324 740h-98
l82 140h145z" />
    <glyph glyph-name="ohungarumlaut" unicode="&#x151;" horiz-adv-x="622" 
d="M591 262q0 -130 -72.5 -201.5t-207.5 -71.5t-207.5 71.5t-72.5 202.5q0 130 72.5 201.5t207.5 71.5q134 0 207 -72t73 -202zM425 262q0 148 -114 148q-113 0 -113 -147q0 -148 113 -148q114 0 114 147zM434 589h-96l81 140h145zM251 589h-98l82 140h145z" />
    <glyph glyph-name="OE" unicode="&#x152;" horiz-adv-x="1106" 
d="M1069 0h-514v23q-73 -34 -172 -34q-176 0 -260.5 99.5t-84.5 261.5t84.5 261.5t260.5 99.5q99 0 172 -34v23h509v-144h-338v-135h276v-141h-276v-136h343v-144zM383 135q171 0 171 215t-171 215q-170 0 -170 -215t170 -215z" />
    <glyph glyph-name="oe" unicode="&#x153;" horiz-adv-x="978" 
d="M939 228h-345q12 -118 105 -118q73 0 192 62l60 -102q-147 -81 -269 -81q-109 0 -176 60q-72 -60 -195 -60q-135 0 -207.5 71.5t-72.5 202.5q0 130 72.5 201.5t207.5 71.5q124 0 196 -63q71 63 187 63q123 0 188.5 -64t65.5 -169q0 -20 -2 -38.5t-4 -27.5zM425 262
q0 148 -114 148q-113 0 -113 -147q0 -148 113 -148q114 0 114 147zM695 420q-86 0 -100 -106h193q-2 106 -93 106z" />
    <glyph glyph-name="Racute" unicode="&#x154;" horiz-adv-x="711" 
d="M493 0l-155 263h-100v-263h-171v700h322q145 0 216.5 -54t71.5 -165q0 -169 -170 -207l171 -274h-185zM505 481q0 86 -125 86h-142v-171h140q61 0 94 18.5t33 66.5zM397 740h-134l125 140h182z" />
    <glyph glyph-name="racute" unicode="&#x155;" horiz-adv-x="432" 
d="M220 525v-109q6 16 17.5 32.5t34 38.5t60.5 34.5t84 9.5v-154q-50 0 -88 -17.5t-57.5 -42.5t-32 -49.5t-15.5 -41.5l-3 -18v-208h-164v525h164zM261 589h-134l125 140h182z" />
    <glyph glyph-name="Rcommaaccent" unicode="&#x156;" horiz-adv-x="711" 
d="M493 0l-155 263h-100v-263h-171v700h322q145 0 216.5 -54t71.5 -165q0 -169 -170 -207l171 -274h-185zM505 481q0 86 -125 86h-142v-171h140q61 0 94 18.5t33 66.5zM294 -183v128h120l7 -142l-99 -107l-31 39l56 82h-53z" />
    <glyph glyph-name="rcommaaccent" unicode="&#x157;" horiz-adv-x="431" 
d="M220 525v-109q6 16 17.5 32.5t34 38.5t60.5 34.5t84 9.5v-154q-50 0 -88 -17.5t-57.5 -42.5t-32 -49.5t-15.5 -41.5l-3 -18v-208h-164v525h164zM80 -183v128h120l7 -142l-99 -107l-31 39l56 82h-53z" />
    <glyph glyph-name="Rcaron" unicode="&#x158;" horiz-adv-x="711" 
d="M493 0l-155 263h-100v-263h-171v700h322q145 0 216.5 -54t71.5 -165q0 -169 -170 -207l171 -274h-185zM505 481q0 86 -125 86h-142v-171h140q61 0 94 18.5t33 66.5zM557 880l-108 -140h-154l-108 140h112l73 -71l73 71h112z" />
    <glyph glyph-name="rcaron" unicode="&#x159;" horiz-adv-x="431" 
d="M220 525v-109q6 16 17.5 32.5t34 38.5t60.5 34.5t84 9.5v-154q-50 0 -88 -17.5t-57.5 -42.5t-32 -49.5t-15.5 -41.5l-3 -18v-208h-164v525h164zM421 729l-108 -140h-154l-108 140h112l73 -71l73 71h112z" />
    <glyph glyph-name="Sacute" unicode="&#x15a;" horiz-adv-x="641" 
d="M436 407q36 -14 62 -27.5t57 -37.5t47.5 -60t16.5 -81q0 -94 -71 -153t-194 -59q-89 0 -179 29t-151 68l76 121q50 -28 123.5 -52.5t123.5 -24.5q39 0 65.5 15t26.5 43q0 17 -10.5 29.5t-33.5 22.5t-46.5 17.5t-62.5 19.5t-70 24q-177 60 -177 201q0 93 68.5 151
t191.5 58q75 0 156 -21.5t142 -53.5l-76 -123q-47 22 -108.5 39.5t-103.5 17.5q-39 0 -64 -14.5t-25 -42.5q0 -17 10.5 -29t32.5 -21t45.5 -16t61 -18t66.5 -22zM346 740h-134l125 140h182z" />
    <glyph glyph-name="sacute" unicode="&#x15b;" horiz-adv-x="541" 
d="M333 323q187 -46 187 -173q0 -74 -58 -117.5t-161 -43.5q-74 0 -151.5 21t-127.5 48l63 115q47 -22 108.5 -40.5t101.5 -18.5q25 0 42 8t17 22q0 10 -8 18t-26 15t-31 10.5t-39.5 10t-35.5 8.5q-181 46 -181 170q0 71 55 115.5t156 44.5q125 0 252 -58l-63 -107
q-106 41 -178 41q-57 0 -57 -30q0 -7 3.5 -13t12 -11t16.5 -8.5t22.5 -7.5t24.5 -6.5t28 -6t28 -6.5zM296 589h-134l125 140h182z" />
    <glyph glyph-name="Scircumflex" unicode="&#x15c;" horiz-adv-x="641" 
d="M436 407q36 -14 62 -27.5t57 -37.5t47.5 -60t16.5 -81q0 -94 -71 -153t-194 -59q-89 0 -179 29t-151 68l76 121q50 -28 123.5 -52.5t123.5 -24.5q39 0 65.5 15t26.5 43q0 17 -10.5 29.5t-33.5 22.5t-46.5 17.5t-62.5 19.5t-70 24q-177 60 -177 201q0 93 68.5 151
t191.5 58q75 0 156 -21.5t142 -53.5l-76 -123q-47 22 -108.5 39.5t-103.5 17.5q-39 0 -64 -14.5t-25 -42.5q0 -17 10.5 -29t32.5 -21t45.5 -16t61 -18t66.5 -22zM398 880l108 -140h-112l-73 70l-73 -70h-112l108 140h154z" />
    <glyph glyph-name="scircumflex" unicode="&#x15d;" horiz-adv-x="541" 
d="M333 323q187 -46 187 -173q0 -74 -58 -117.5t-161 -43.5q-74 0 -151.5 21t-127.5 48l63 115q47 -22 108.5 -40.5t101.5 -18.5q25 0 42 8t17 22q0 10 -8 18t-26 15t-31 10.5t-39.5 10t-35.5 8.5q-181 46 -181 170q0 71 55 115.5t156 44.5q125 0 252 -58l-63 -107
q-106 41 -178 41q-57 0 -57 -30q0 -7 3.5 -13t12 -11t16.5 -8.5t22.5 -7.5t24.5 -6.5t28 -6t28 -6.5zM349 729l108 -140h-112l-73 70l-73 -70h-112l108 140h154z" />
    <glyph glyph-name="Scedilla" unicode="&#x15e;" horiz-adv-x="641" 
d="M215 -164l32 79q24 -12 47 -12q46 0 46 35q0 22 -20 52q-81 6 -161 33.5t-135 62.5l76 121q50 -28 123.5 -52.5t123.5 -24.5q39 0 65.5 15t26.5 43q0 17 -10.5 29.5t-33.5 22.5t-46.5 17.5t-62.5 19.5t-70 24q-177 60 -177 201q0 93 68.5 151t191.5 58q75 0 156 -21.5
t142 -53.5l-76 -123q-47 22 -108.5 39.5t-103.5 17.5q-39 0 -64 -14.5t-25 -42.5q0 -17 10.5 -29t32.5 -21t45.5 -16t61 -18t66.5 -22q36 -14 62 -27.5t57 -37.5t47.5 -60t16.5 -81q0 -86 -60 -143.5t-166 -66.5q30 -44 30 -83q0 -48 -33 -71.5t-84 -23.5q-53 0 -91 23z" />
    <glyph glyph-name="scedilla" unicode="&#x15f;" horiz-adv-x="541" 
d="M169 -164l32 79q24 -12 47 -12q46 0 46 35q0 21 -19 52q-70 4 -139 23.5t-114 44.5l63 115q47 -22 108.5 -40.5t101.5 -18.5q25 0 42 8t17 22q0 10 -8 18t-26 15t-31 10.5t-39.5 10t-35.5 8.5q-181 46 -181 170q0 71 55 115.5t156 44.5q125 0 252 -58l-63 -107
q-106 41 -178 41q-57 0 -57 -30q0 -7 3.5 -13t12 -11t16.5 -8.5t22.5 -7.5t24.5 -6.5t28 -6t28 -6.5q187 -46 187 -173q0 -66 -45.5 -107.5t-128.5 -50.5q31 -41 31 -84q0 -48 -33 -71.5t-84 -23.5q-53 0 -91 23z" />
    <glyph glyph-name="Scaron" unicode="&#x160;" horiz-adv-x="641" 
d="M436 407q36 -14 62 -27.5t57 -37.5t47.5 -60t16.5 -81q0 -94 -71 -153t-194 -59q-89 0 -179 29t-151 68l76 121q50 -28 123.5 -52.5t123.5 -24.5q39 0 65.5 15t26.5 43q0 17 -10.5 29.5t-33.5 22.5t-46.5 17.5t-62.5 19.5t-70 24q-177 60 -177 201q0 93 68.5 151
t191.5 58q75 0 156 -21.5t142 -53.5l-76 -123q-47 22 -108.5 39.5t-103.5 17.5q-39 0 -64 -14.5t-25 -42.5q0 -17 10.5 -29t32.5 -21t45.5 -16t61 -18t66.5 -22zM507 880l-108 -140h-154l-108 140h112l73 -71l73 71h112z" />
    <glyph glyph-name="scaron" unicode="&#x161;" horiz-adv-x="541" 
d="M459 729l-108 -140h-154l-108 140h112l73 -71l73 71h112zM333 323q187 -46 187 -173q0 -74 -58 -117.5t-161 -43.5q-74 0 -151.5 21t-127.5 48l63 115q47 -22 108.5 -40.5t101.5 -18.5q25 0 42 8t17 22q0 10 -8 18t-26 15t-31 10.5t-39.5 10t-35.5 8.5q-181 46 -181 170
q0 71 55 115.5t156 44.5q125 0 252 -58l-63 -107q-106 41 -178 41q-57 0 -57 -30q0 -7 3.5 -13t12 -11t16.5 -8.5t22.5 -7.5t24.5 -6.5t28 -6t28 -6.5z" />
    <glyph glyph-name="Tcedilla" unicode="&#x162;" horiz-adv-x="601" 
d="M167 -164l32 79q24 -12 47 -12q46 0 46 35q0 30 -27 62h-48v556h-204v144h575v-144h-201v-556h-50q38 -44 38 -92t-33 -71.5t-84 -23.5q-53 0 -91 23z" />
    <glyph glyph-name="tcedilla" unicode="&#x163;" horiz-adv-x="435" 
d="M110 -164l32 79q24 -12 47 -12q46 0 46 35q0 24 -21 55q-121 21 -121 188v224h-72v120h72v132l163 20v-152h143v-120h-143v-225q0 -20 7.5 -31.5t16 -14t20.5 -2.5q20 0 77 22l57 -121q-78 -35 -146 -42q30 -44 30 -83q0 -48 -33 -71.5t-84 -23.5q-53 0 -91 23z" />
    <glyph glyph-name="Tcaron" unicode="&#x164;" horiz-adv-x="601" 
d="M588 556h-201v-556h-170v556h-204v144h575v-144zM486 880l-108 -140h-154l-108 140h112l73 -71l73 71h112z" />
    <glyph glyph-name="tcaron" unicode="&#x165;" horiz-adv-x="434" 
d="M20 405v120h72v132l163 20v-152h143v-120h-143v-225q0 -20 7.5 -31.5t16 -14t20.5 -2.5q20 0 77 22l57 -121q-99 -44 -178 -44q-163 0 -163 192v224h-72zM305 679v128h120l7 -142l-99 -107l-31 39l56 82h-53z" />
    <glyph glyph-name="Tbar" unicode="&#x166;" horiz-adv-x="609" 
d="M592 556h-201v-254h91v-94h-91v-208h-170v208h-93v94h93v254h-204v144h575v-144z" />
    <glyph glyph-name="tbar" unicode="&#x167;" horiz-adv-x="435" 
d="M20 405v120h72v132l163 20v-152h143v-120h-143v-64h112v-95h-112v-66q0 -20 7.5 -31.5t16 -14t20.5 -2.5q20 0 77 22l57 -121q-99 -44 -178 -44q-163 0 -163 192v65h-51v95h51v64h-72z" />
    <glyph glyph-name="Utilde" unicode="&#x168;" horiz-adv-x="722" 
d="M661 700v-409q0 -68 -13 -119t-44.5 -94.5t-92.5 -66t-150 -22.5q-72 0 -125.5 15.5t-86.5 42t-53.5 66t-28 82t-7.5 96.5v409h171v-424q0 -67 27.5 -104t102.5 -37t102.5 37t27.5 104v424h170zM239 744l-72 35q15 29 22.5 42t22.5 33t32.5 28t39.5 8q31 0 80.5 -24
t63.5 -24q25 0 52 46l71 -35q-14 -28 -22 -41.5t-22.5 -33t-32.5 -28t-40 -8.5q-30 0 -79.5 24t-63.5 24q-26 0 -52 -46z" />
    <glyph glyph-name="utilde" unicode="&#x169;" 
d="M411 0v59q-104 -70 -201 -70q-159 0 -159 166v370h165v-331q0 -78 61 -78q32 0 69.5 18t64.5 43v348h164v-525h-164zM202 593l-72 35q15 29 22.5 42t22.5 33t32.5 28t39.5 8q31 0 80.5 -24t63.5 -24q25 0 52 46l71 -35q-14 -28 -22 -41.5t-22.5 -33t-32.5 -28t-40 -8.5
q-30 0 -79.5 24t-63.5 24q-26 0 -52 -46z" />
    <glyph glyph-name="Umacron" unicode="&#x16a;" horiz-adv-x="722" 
d="M661 700v-409q0 -68 -13 -119t-44.5 -94.5t-92.5 -66t-150 -22.5q-72 0 -125.5 15.5t-86.5 42t-53.5 66t-28 82t-7.5 96.5v409h171v-424q0 -67 27.5 -104t102.5 -37t102.5 37t27.5 104v424h170zM205 765v94h312v-94h-312z" />
    <glyph glyph-name="umacron" unicode="&#x16b;" 
d="M411 0v59q-104 -70 -201 -70q-159 0 -159 166v370h165v-331q0 -78 61 -78q32 0 69.5 18t64.5 43v348h164v-525h-164zM157 614v94h312v-94h-312z" />
    <glyph glyph-name="Ubreve" unicode="&#x16c;" horiz-adv-x="722" 
d="M661 700v-409q0 -68 -13 -119t-44.5 -94.5t-92.5 -66t-150 -22.5q-72 0 -125.5 15.5t-86.5 42t-53.5 66t-28 82t-7.5 96.5v409h171v-424q0 -67 27.5 -104t102.5 -37t102.5 37t27.5 104v424h170zM360 740q-81 0 -125.5 34t-44.5 94h99q0 -41 71 -41q72 0 72 41h100
q0 -60 -45.5 -94t-126.5 -34z" />
    <glyph glyph-name="ubreve" unicode="&#x16d;" 
d="M411 0v59q-104 -70 -201 -70q-159 0 -159 166v370h165v-331q0 -78 61 -78q32 0 69.5 18t64.5 43v348h164v-525h-164zM311 589q-81 0 -125.5 34t-44.5 94h99q0 -41 71 -41q72 0 72 41h100q0 -60 -45.5 -94t-126.5 -34z" />
    <glyph glyph-name="Uring" unicode="&#x16e;" horiz-adv-x="722" 
d="M661 700v-409q0 -68 -13 -119t-44.5 -94.5t-92.5 -66t-150 -22.5q-72 0 -125.5 15.5t-86.5 42t-53.5 66t-28 82t-7.5 96.5v409h171v-424q0 -67 27.5 -104t102.5 -37t102.5 37t27.5 104v424h170zM248 844q0 48 33.5 81.5t80.5 33.5q48 0 81.5 -33.5t33.5 -81.5
q0 -47 -33.5 -80.5t-81.5 -33.5q-47 0 -80.5 33.5t-33.5 80.5zM324 844q0 -16 11 -27t27 -11t27.5 11t11.5 27t-11.5 27.5t-27.5 11.5t-27 -11.5t-11 -27.5z" />
    <glyph glyph-name="uring" unicode="&#x16f;" 
d="M411 0v59q-104 -70 -201 -70q-159 0 -159 166v370h165v-331q0 -78 61 -78q32 0 69.5 18t64.5 43v348h164v-525h-164zM199 693q0 48 33.5 81.5t80.5 33.5q48 0 81.5 -33.5t33.5 -81.5q0 -47 -33.5 -80.5t-81.5 -33.5q-47 0 -80.5 33.5t-33.5 80.5zM275 693q0 -16 11 -27
t27 -11t27.5 11t11.5 27q0 17 -11 28t-28 11q-16 0 -27 -11.5t-11 -27.5z" />
    <glyph glyph-name="Uhungarumlaut" unicode="&#x170;" horiz-adv-x="722" 
d="M661 700v-409q0 -68 -13 -119t-44.5 -94.5t-92.5 -66t-150 -22.5q-72 0 -125.5 15.5t-86.5 42t-53.5 66t-28 82t-7.5 96.5v409h171v-424q0 -67 27.5 -104t102.5 -37t102.5 37t27.5 104v424h170zM484 740h-96l81 140h145zM301 740h-98l82 140h145z" />
    <glyph glyph-name="uhungarumlaut" unicode="&#x171;" 
d="M411 0v59q-104 -70 -201 -70q-159 0 -159 166v370h165v-331q0 -78 61 -78q32 0 69.5 18t64.5 43v348h164v-525h-164zM436 589h-96l81 140h145zM253 589h-98l82 140h145z" />
    <glyph glyph-name="Uogonek" unicode="&#x172;" horiz-adv-x="723" 
d="M377 -93q0 -10 4.5 -16.5t10 -10t15.5 -5t15.5 -2t16.5 0t12 0.5l-14 -72q-82 0 -117 17q-47 22 -47 72q0 54 77 98q-86 1 -144.5 24.5t-89.5 66.5t-43.5 93.5t-12.5 117.5v409h171v-424q0 -67 27.5 -104t102.5 -37t102.5 37t27.5 104v424h170v-409q0 -116 -42 -191
t-148 -100q-94 -52 -94 -93z" />
    <glyph glyph-name="uogonek" unicode="&#x173;" 
d="M411 0v59q-104 -70 -201 -70q-159 0 -159 166v370h165v-331q0 -78 61 -78q32 0 69.5 18t64.5 43v348h164v-525h-3q-93 -54 -93 -93q0 -10 4.5 -16.5t10 -10t15.5 -5t15.5 -2t16.5 0t12 0.5l-14 -72q-82 0 -117 17q-47 22 -47 72q0 61 98 109h-62z" />
    <glyph glyph-name="Wcircumflex" unicode="&#x174;" horiz-adv-x="987" 
d="M610 0l-117 452l-117 -452h-167l-196 700h196l99 -464l117 464h136l117 -463l100 463h195l-196 -700h-167zM570 880l108 -140h-112l-73 70l-73 -70h-112l108 140h154z" />
    <glyph glyph-name="wcircumflex" unicode="&#x175;" horiz-adv-x="850" 
d="M522 0l-97 329l-98 -329h-154l-161 525h174l77 -349l95 349h134l95 -349l77 349h174l-163 -525h-153zM502 729l108 -140h-112l-73 70l-73 -70h-112l108 140h154z" />
    <glyph glyph-name="ycircumflex" unicode="&#x177;" horiz-adv-x="595" 
d="M9 525h176l112 -329l112 329h177l-287 -729h-176l91 205zM374 729l108 -140h-112l-73 70l-73 -70h-112l108 140h154z" />
    <glyph glyph-name="Ydieresis" unicode="&#x178;" horiz-adv-x="674" 
d="M252 0v277l-252 423h193l144 -278l144 278h193l-252 -423v-277h-170zM181 750v122h127v-122h-127zM366 750v122h127v-122h-127z" />
    <glyph glyph-name="Zacute" unicode="&#x179;" horiz-adv-x="644" 
d="M29 131l354 425h-332v144h553v-130l-353 -426h358v-144h-580v131zM353 740h-134l125 140h182z" />
    <glyph glyph-name="zacute" unicode="&#x17a;" horiz-adv-x="566" 
d="M30 0v113l273 277h-263v135h492v-113l-273 -277h273v-135h-502zM306 589h-134l125 140h182z" />
    <glyph glyph-name="Zdotaccent" unicode="&#x17b;" horiz-adv-x="644" 
d="M29 131l354 425h-332v144h553v-130l-353 -426h358v-144h-580v131zM264 750v122h127v-122h-127z" />
    <glyph glyph-name="zdotaccent" unicode="&#x17c;" horiz-adv-x="566" 
d="M30 0v113l273 277h-263v135h492v-113l-273 -277h273v-135h-502zM217 599v122h127v-122h-127z" />
    <glyph glyph-name="Zcaron" unicode="&#x17d;" horiz-adv-x="644" 
d="M29 131l354 425h-332v144h553v-130l-353 -426h358v-144h-580v131zM512 880l-108 -140h-154l-108 140h112l73 -71l73 71h112z" />
    <glyph glyph-name="zcaron" unicode="&#x17e;" horiz-adv-x="566" 
d="M30 0v113l273 277h-263v135h492v-113l-273 -277h273v-135h-502zM466 729l-108 -140h-154l-108 140h112l73 -71l73 71h112z" />
    <glyph glyph-name="longs" unicode="&#x17f;" horiz-adv-x="340" 
d="M19 405v120h72v12q0 192 163 192q89 0 185 -44l-54 -117q-60 20 -87 20q-12 0 -20.5 -2.5t-16 -14t-7.5 -31.5v-540h-163v405h-72z" />
    <glyph glyph-name="florin" unicode="&#x192;" horiz-adv-x="601" 
d="M99 405l27 120h73l4 17q23 99 66 143t137 44q18 0 38.5 -3t36.5 -6.5t36 -9.5t30 -9.5t25.5 -9t16.5 -6.5l-77 -119q-71 24 -97 19q-38 -5 -49 -50l-3 -10h141l-26 -120h-143l-144 -609h-164l143 609h-71z" />
    <glyph glyph-name="AEacute" unicode="&#x1fc;" horiz-adv-x="1089" 
d="M1050 0h-514v128h-270l-81 -128h-205l473 700h592v-144h-338v-135h276v-141h-276v-136h343v-144zM354 266h182v284zM616 740h-134l125 140h182z" />
    <glyph glyph-name="aeacute" unicode="&#x1fd;" horiz-adv-x="929" 
d="M890 228h-345q12 -118 105 -118q73 0 192 62l60 -102q-147 -81 -269 -81q-145 0 -212 102q-95 -102 -213 -102q-81 0 -132.5 48t-51.5 125q0 79 54 124t142 45q54 0 159 -24q3 25 9 48q-3 31 -23 44t-64 13q-67 0 -191 -37l-50 112q153 49 272 49q105 0 159 -39
q64 39 154 39q123 0 188.5 -64t65.5 -169q0 -20 -2.5 -38.5t-4.5 -27.5zM487 589h-134l125 140h182zM262 115q66 0 126 50q-7 25 -10 62q-79 17 -103 17q-84 0 -84 -67q0 -62 71 -62zM646 420q-86 0 -100 -106h193q-2 106 -93 106z" />
    <glyph glyph-name="Oslashacute" unicode="&#x1fe;" horiz-adv-x="766" 
d="M382 711q112 0 192 -45l26 34h118l-72 -92q82 -94 82 -258q0 -78 -19.5 -142t-60 -114t-108.5 -77.5t-158 -27.5q-110 0 -190 43l-25 -32h-117l70 90q-83 93 -83 260q0 162 84.5 261.5t260.5 99.5zM212 350q0 -71 19 -119l244 310q-38 24 -93 24q-170 0 -170 -215z
M382 135q171 0 171 215q0 69 -19 117l-243 -310q38 -22 91 -22zM407 740h-134l125 140h182z" />
    <glyph glyph-name="oslashacute" unicode="&#x1ff;" horiz-adv-x="621" 
d="M590 262q0 -130 -72.5 -201.5t-207.5 -71.5q-91 0 -154 33l-18 -22h-96l55 66q-67 70 -67 197q0 130 72.5 201.5t207.5 71.5q86 0 152 -33l18 22h94l-54 -65q70 -72 70 -198zM329 589h-134l125 140h182zM424 262q0 41 -9 71l-168 -202q25 -16 63 -16q114 0 114 147z
M197 263q0 -43 8 -68l166 199q-27 16 -61 16q-113 0 -113 -147z" />
    <glyph glyph-name="Scommaaccent" unicode="&#x218;" horiz-adv-x="641" 
d="M436 407q36 -14 62 -27.5t57 -37.5t47.5 -60t16.5 -81q0 -94 -71 -153t-194 -59q-89 0 -179 29t-151 68l76 121q50 -28 123.5 -52.5t123.5 -24.5q39 0 65.5 15t26.5 43q0 17 -10.5 29.5t-33.5 22.5t-46.5 17.5t-62.5 19.5t-70 24q-177 60 -177 201q0 93 68.5 151
t191.5 58q75 0 156 -21.5t142 -53.5l-76 -123q-47 22 -108.5 39.5t-103.5 17.5q-39 0 -64 -14.5t-25 -42.5q0 -17 10.5 -29t32.5 -21t45.5 -16t61 -18t66.5 -22zM269 -183v128h120l7 -142l-99 -107l-31 39l56 82h-53z" />
    <glyph glyph-name="scommaaccent" unicode="&#x219;" horiz-adv-x="541" 
d="M333 323q187 -46 187 -173q0 -74 -58 -117.5t-161 -43.5q-74 0 -151.5 21t-127.5 48l63 115q47 -22 108.5 -40.5t101.5 -18.5q25 0 42 8t17 22q0 10 -8 18t-26 15t-31 10.5t-39.5 10t-35.5 8.5q-181 46 -181 170q0 71 55 115.5t156 44.5q125 0 252 -58l-63 -107
q-106 41 -178 41q-57 0 -57 -30q0 -7 3.5 -13t12 -11t16.5 -8.5t22.5 -7.5t24.5 -6.5t28 -6t28 -6.5zM208 -183v128h120l7 -142l-99 -107l-31 39l56 82h-53z" />
    <glyph glyph-name="uni021a" unicode="&#x21a;" horiz-adv-x="601" 
d="M588 556h-201v-556h-170v556h-204v144h575v-144zM243 -183v128h120l7 -142l-99 -107l-31 39l56 82h-53z" />
    <glyph glyph-name="uni021b" unicode="&#x21b;" horiz-adv-x="434" 
d="M20 405v120h72v132l163 20v-152h143v-120h-143v-225q0 -20 7.5 -31.5t16 -14t20.5 -2.5q20 0 77 22l57 -121q-99 -44 -178 -44q-163 0 -163 192v224h-72zM134 -183v128h120l7 -142l-99 -107l-31 39l56 82h-53z" />
    <glyph glyph-name="hsuperior" unicode="&#x2b0;" horiz-adv-x="402" 
d="M146 822v-156q61 41 124 41q101 0 101 -102v-220h-112v194q0 42 -36 42q-41 0 -77 -32v-204h-112v437h112z" />
    <glyph glyph-name="jsuperior" unicode="&#x2b2;" horiz-adv-x="184" 
d="M35 734v87h118v-87h-118zM150 700v-293q0 -34 -1 -49.5t-8.5 -37t-23 -32t-44 -22.5t-72.5 -21l-36 79q53 16 63.5 27.5t10.5 45.5v303h111z" />
    <glyph glyph-name="wsuperior" unicode="&#x2b7;" horiz-adv-x="541" 
d="M329 385l-58 189l-59 -189h-103l-102 315h118l45 -199l56 199h89l56 -199l45 199h118l-101 -315h-104z" />
    <glyph glyph-name="ysuperior" unicode="&#x2b8;" horiz-adv-x="381" 
d="M5 700h120l66 -184l65 184h120l-180 -437h-119l56 123z" />
    <glyph glyph-name="circumflex" unicode="&#x2c6;" horiz-adv-x="297" 
d="M225 729l108 -140h-112l-73 70l-73 -70h-112l108 140h154z" />
    <glyph glyph-name="caron" unicode="&#x2c7;" horiz-adv-x="297" 
d="M333 729l-108 -140h-154l-108 140h112l73 -71l73 71h112z" />
    <glyph glyph-name="breve" unicode="&#x2d8;" horiz-adv-x="284" 
d="M141 589q-81 0 -125.5 34t-44.5 94h99q0 -41 71 -41q72 0 72 41h100q0 -60 -45.5 -94t-126.5 -34z" />
    <glyph glyph-name="dotaccent" unicode="&#x2d9;" horiz-adv-x="97" 
d="M-15 599v122h127v-122h-127z" />
    <glyph glyph-name="ring" unicode="&#x2da;" horiz-adv-x="211" 
d="M-9 693q0 48 33.5 81.5t80.5 33.5q48 0 81.5 -33.5t33.5 -81.5q0 -47 -33.5 -80.5t-81.5 -33.5q-47 0 -80.5 33.5t-33.5 80.5zM67 693q0 -16 11 -27t27 -11t27.5 11t11.5 27q0 17 -11 28t-28 11q-16 0 -27 -11.5t-11 -27.5z" />
    <glyph glyph-name="ogonek" unicode="&#x2db;" horiz-adv-x="170" 
d="M75 -93q0 -10 4.5 -16.5t10 -10t15.5 -5t15.5 -2t16.5 0t12 0.5l-14 -72q-82 0 -117 17q-47 22 -47 72q0 67 122 120l77 -10q-95 -55 -95 -94z" />
    <glyph glyph-name="tilde" unicode="&#x2dc;" horiz-adv-x="305" 
d="M32 593l-72 35q15 29 22.5 42t22.5 33t32.5 28t39.5 8q31 0 80.5 -24t63.5 -24q25 0 52 46l71 -35q-14 -28 -22 -41.5t-22.5 -33t-32.5 -28t-40 -8.5q-30 0 -79.5 24t-63.5 24q-26 0 -52 -46z" />
    <glyph glyph-name="hungarumlaut" unicode="&#x2dd;" horiz-adv-x="345" 
d="M248 589h-96l81 140h145zM65 589h-98l82 140h145z" />
    <glyph glyph-name="xsuperior" unicode="&#x2e3;" horiz-adv-x="396" 
d="M266 385l-68 99l-66 -99h-131l128 157l-121 158h127l63 -96l64 96h127l-121 -157l128 -158h-130z" />
    <glyph glyph-name="pi" unicode="&#x3c0;" horiz-adv-x="591" 
d="M570 525v-140h-81v-385h-141v385h-104v-385h-142v385h-81v140h549z" />
    <glyph glyph-name="Wgrave" unicode="&#x1e80;" horiz-adv-x="987" 
d="M610 0l-117 452l-117 -452h-167l-196 700h196l99 -464l117 464h136l117 -463l100 463h195l-196 -700h-167zM603 740h-134l-173 140h181z" />
    <glyph glyph-name="wgrave" unicode="&#x1e81;" horiz-adv-x="850" 
d="M522 0l-97 329l-98 -329h-154l-161 525h174l77 -349l95 349h134l95 -349l77 349h174l-163 -525h-153zM534 589h-134l-173 140h181z" />
    <glyph glyph-name="Wacute" unicode="&#x1e82;" horiz-adv-x="987" 
d="M610 0l-117 452l-117 -452h-167l-196 700h196l99 -464l117 464h136l117 -463l100 463h195l-196 -700h-167zM518 740h-134l125 140h182z" />
    <glyph glyph-name="wacute" unicode="&#x1e83;" horiz-adv-x="850" 
d="M522 0l-97 329l-98 -329h-154l-161 525h174l77 -349l95 349h134l95 -349l77 349h174l-163 -525h-153zM450 589h-134l125 140h182z" />
    <glyph glyph-name="Wdieresis" unicode="&#x1e84;" horiz-adv-x="987" 
d="M610 0l-117 452l-117 -452h-167l-196 700h196l99 -464l117 464h136l117 -463l100 463h195l-196 -700h-167zM337 750v122h127v-122h-127zM522 750v122h127v-122h-127z" />
    <glyph glyph-name="wdieresis" unicode="&#x1e85;" horiz-adv-x="850" 
d="M522 0l-97 329l-98 -329h-154l-161 525h174l77 -349l95 349h134l95 -349l77 349h174l-163 -525h-153zM269 599v122h127v-122h-127zM454 599v122h127v-122h-127z" />
    <glyph glyph-name="uni1E9E" unicode="&#x1e9e;" horiz-adv-x="826" 
d="M370 412l132 144h-138q-64 0 -95 -35.5t-31 -120.5v-400h-171v428q0 272 284 272h367v-112l-146 -158q112 -21 172.5 -78.5t60.5 -144.5q0 -93 -67 -155.5t-193 -62.5q-134 0 -253 72l76 121q84 -52 157 -52q48 0 76 22.5t28 59.5q0 94 -206 94h-53v106z" />
    <glyph glyph-name="Ygrave" unicode="&#x1ef2;" horiz-adv-x="674" 
d="M252 0v277l-252 423h193l144 -278l144 278h193l-252 -423v-277h-170zM447 740h-134l-173 140h181z" />
    <glyph glyph-name="ygrave" unicode="&#x1ef3;" horiz-adv-x="595" 
d="M9 525h176l112 -329l112 329h177l-287 -729h-176l91 205zM406 589h-134l-173 140h181z" />
    <glyph glyph-name="endash" unicode="&#x2013;" horiz-adv-x="563" 
d="M510 220h-456v129h456v-129z" />
    <glyph glyph-name="emdash" unicode="&#x2014;" horiz-adv-x="669" 
d="M617 220h-564v129h564v-129z" />
    <glyph glyph-name="quoteleft" unicode="&#x2018;" horiz-adv-x="271" 
d="M213 552v-179h-165l-11 201l136 146l43 -54l-77 -114h74z" />
    <glyph glyph-name="quoteright" unicode="&#x2019;" horiz-adv-x="261" 
d="M48 520v179h165l11 -201l-136 -146l-43 54l77 114h-74z" />
    <glyph glyph-name="quotesinglbase" unicode="&#x201a;" horiz-adv-x="281" 
d="M55 0v179h165l11 -201l-136 -146l-43 54l77 114h-74z" />
    <glyph glyph-name="quotedblleft" unicode="&#x201c;" horiz-adv-x="508" 
d="M213 552v-179h-165l-11 201l136 146l43 -54l-77 -114h74zM452 552v-179h-165l-11 201l136 146l43 -54l-77 -114h74z" />
    <glyph glyph-name="quotedblright" unicode="&#x201d;" horiz-adv-x="500" 
d="M48 520v179h165l11 -201l-136 -146l-43 54l77 114h-74zM286 520v179h165l11 -201l-136 -146l-43 54l77 114h-74z" />
    <glyph glyph-name="quotedblbase" unicode="&#x201e;" horiz-adv-x="519" 
d="M55 0v179h165l11 -201l-136 -146l-43 54l77 114h-74zM294 0v179h165l11 -201l-136 -146l-43 54l77 114h-74z" />
    <glyph glyph-name="dagger" unicode="&#x2020;" horiz-adv-x="609" 
d="M24 365v131l218 -16v220h124v-219l218 15v-131l-218 16v-585h-124v585z" />
    <glyph glyph-name="daggerdbl" unicode="&#x2021;" horiz-adv-x="632" 
d="M36 365v131l218 -16v220h124v-219l218 15v-131l-218 16v-162l218 15v-131l-218 16v-323h-124v323l-218 -16v131l218 -16v163z" />
    <glyph glyph-name="bullet" unicode="&#x2022;" horiz-adv-x="469" 
d="M67 285q0 70 48.5 119t118.5 49t119.5 -49t49.5 -119t-49.5 -119t-119.5 -49t-118.5 49t-48.5 119z" />
    <glyph glyph-name="ellipsis" unicode="&#x2026;" horiz-adv-x="784" 
d="M309 0v179h167v-179h-167zM52 0v179h167v-179h-167zM565 0v179h167v-179h-167z" />
    <glyph glyph-name="perthousand" unicode="&#x2030;" horiz-adv-x="1457" 
d="M425 523q0 -88 -52 -137.5t-146 -49.5t-146 49.5t-52 137.5t52 138t146 50t146 -50t52 -138zM305 523q0 89 -78 89q-77 0 -77 -89q0 -88 77 -88q78 0 78 88zM984 176q0 -88 -52 -137.5t-147 -49.5q-94 0 -145.5 49.5t-51.5 137.5t51.5 138t145.5 50t146.5 -50t52.5 -138z
M863 176q0 89 -78 89q-77 0 -77 -89q0 -88 77 -88q78 0 78 88zM1428 176q0 -88 -52 -137.5t-147 -49.5q-94 0 -145.5 49.5t-51.5 137.5t51.5 138t145.5 50t146.5 -50t52.5 -138zM1307 176q0 89 -78 89q-77 0 -77 -89q0 -88 77 -88q78 0 78 88zM750 700l-361 -700h-127
l361 700h127z" />
    <glyph glyph-name="guilsinglleft" unicode="&#x2039;" horiz-adv-x="379" 
d="M26 317l305 210v-153l-168 -106l168 -105v-153l-305 209v98z" />
    <glyph glyph-name="guilsinglright" unicode="&#x203a;" horiz-adv-x="379" 
d="M353 220l-305 -210v153l168 106l-168 105v153l305 -209v-98z" />
    <glyph glyph-name="fraction" unicode="&#x2044;" horiz-adv-x="217" 
d="M335 700l-328 -700h-124l328 700h124z" />
    <glyph glyph-name="zerosuperior" unicode="&#x2070;" horiz-adv-x="438" 
d="M220 812q94 0 143.5 -57t49.5 -160t-50 -160t-144 -57t-143.5 57t-49.5 160t50 160t144 57zM219 467q39 0 58.5 29.5t19.5 98.5t-19.5 98.5t-57.5 29.5t-57.5 -29.5t-19.5 -98.5t19 -98.5t57 -29.5z" />
    <glyph glyph-name="foursuperior" unicode="&#x2074;" horiz-adv-x="442" 
d="M12 458v79l195 268h154v-252h67v-95h-67v-73h-116v73h-233zM132 553h113v161z" />
    <glyph glyph-name="fivesuperior" unicode="&#x2075;" horiz-adv-x="392" 
d="M35 591l24 214h295v-95h-198l-3 -52q31 7 58 7q78 0 120 -40.5t42 -100.5q0 -62 -45 -104t-130 -42q-89 0 -184 57l51 83q59 -42 117 -42q32 0 52 12.5t20 34.5q0 21 -18 35.5t-53 14.5q-41 0 -83 -22z" />
    <glyph glyph-name="sixsuperior" unicode="&#x2076;" horiz-adv-x="409" 
d="M296 719q-109 0 -144 -89q43 27 98 27q63 0 103 -36t40 -95q0 -62 -48.5 -105t-129.5 -43q-94 0 -143 53t-49 132q0 108 75.5 178.5t196.5 70.5q19 0 36.5 -2t25.5 -4l8 -1l-26 -89q-19 3 -43 3zM212 572q-45 0 -73 -28q1 -39 22.5 -56t50.5 -17q33 0 49.5 15.5
t16.5 35.5q0 22 -18 36t-48 14z" />
    <glyph glyph-name="sevensuperior" unicode="&#x2077;" horiz-adv-x="346" 
d="M338 716q-6 -7 -17 -20t-38 -52t-48 -77t-38 -88.5t-17 -93.5h-120q0 50 20.5 107.5t52 105.5t49.5 72t32 40h-199v95h323v-89z" />
    <glyph glyph-name="eightsuperior" unicode="&#x2078;" horiz-adv-x="420" 
d="M19 500q0 73 93 115q-64 38 -64 92q0 47 42.5 76t120.5 29q77 0 120 -29t43 -76q0 -54 -65 -92q93 -42 93 -115q0 -56 -50.5 -89t-140.5 -33q-91 0 -141.5 33t-50.5 89zM284 510q0 32 -74 61q-36 -14 -55 -28t-19 -33q0 -20 21 -33t54 -13t53 13t20 33zM160 696
q0 -27 50 -46q51 20 51 46q0 12 -13.5 22.5t-36.5 10.5q-24 0 -37.5 -10.5t-13.5 -22.5z" />
    <glyph glyph-name="ninesuperior" unicode="&#x2079;" horiz-adv-x="410" 
d="M114 471q107 0 142 88q-40 -26 -96 -26q-63 0 -103 35.5t-40 94.5q0 63 48.5 106t129.5 43q94 0 142.5 -53t48.5 -132q0 -109 -75 -179t-197 -70q-18 0 -35.5 2t-25.5 4l-8 1l27 89q18 -3 42 -3zM197 617q47 0 73 28q-1 39 -22.5 56.5t-49.5 17.5q-33 0 -49.5 -15.5
t-16.5 -35.5q0 -22 17.5 -36.5t47.5 -14.5z" />
    <glyph glyph-name="plussuperior" unicode="&#x207a;" horiz-adv-x="400" 
d="M158 730h84v-104h122v-82h-122v-104h-84v104h-122v82h122v104z" />
    <glyph glyph-name="parenleftsuperior" unicode="&#x207d;" horiz-adv-x="225" 
d="M31 460v267q0 41 2.5 59.5t16.5 41t45 35.5t87 25l28 -60q-43 -14 -53 -27t-10 -44v-327q0 -31 10 -44t53 -27l-28 -60q-55 12 -86.5 25t-45.5 35.5t-16.5 41t-2.5 59.5z" />
    <glyph glyph-name="parenrightsuperior" unicode="&#x207e;" horiz-adv-x="225" 
d="M195 727v-267q0 -41 -2.5 -59.5t-16.5 -41t-45 -35.5t-87 -25l-28 60q43 14 53 27t10 44v327q0 31 -10 44t-53 27l28 60q55 -12 86.5 -25t45.5 -35.5t16.5 -41t2.5 -59.5z" />
    <glyph glyph-name="nsuperior" unicode="&#x207f;" horiz-adv-x="402" 
d="M146 700v-34q61 41 124 41q101 0 101 -102v-220h-112v194q0 42 -36 42q-41 0 -77 -32v-204h-112v315h112z" />
    <glyph glyph-name="zeroinferior" unicode="&#x2080;" horiz-adv-x="438" 
d="M220 277q94 0 143.5 -57t49.5 -160t-50 -160t-144 -57t-143.5 57t-49.5 160t50 160t144 57zM219 -68q39 0 58.5 29.5t19.5 98.5t-19.5 98.5t-57.5 29.5t-57.5 -29.5t-19.5 -98.5t19 -98.5t57 -29.5z" />
    <glyph glyph-name="oneinferior" unicode="&#x2081;" horiz-adv-x="278" 
d="M237 -150h-116v315l-76 -38l-46 74l127 69h111v-420z" />
    <glyph glyph-name="twoinferior" unicode="&#x2082;" horiz-adv-x="396" 
d="M370 -55v-95h-352v47q0 96 136 176q11 6 30.5 17t28.5 16.5t20 13.5t15 15t4 15q0 14 -14 23t-40 9q-50 0 -117 -40l-51 73q90 62 185 62q75 0 115 -34.5t40 -87.5q0 -29 -12 -54t-36.5 -44t-43 -30t-48.5 -26q-71 -36 -71 -56h211z" />
    <glyph glyph-name="threeinferior" unicode="&#x2083;" horiz-adv-x="396" 
d="M8 -99l51 77q73 -39 133 -39q64 0 64 38q0 45 -116 45h-20v96h23q96 0 96 37q0 27 -48 27q-50 0 -117 -36l-46 71q80 60 182 60q72 0 108.5 -29.5t36.5 -74.5q0 -61 -69 -91q39 -12 63.5 -41t24.5 -66q0 -55 -40 -93.5t-128 -38.5q-100 0 -198 58z" />
    <glyph glyph-name="fourinferior" unicode="&#x2084;" horiz-adv-x="442" 
d="M12 -77v79l195 268h154v-252h67v-95h-67v-73h-116v73h-233zM132 18h113v161z" />
    <glyph glyph-name="fiveinferior" unicode="&#x2085;" horiz-adv-x="392" 
d="M35 56l24 214h295v-95h-198l-3 -52q31 7 58 7q78 0 120 -40.5t42 -100.5q0 -62 -45 -104t-130 -42q-89 0 -184 57l51 83q59 -42 117 -42q32 0 52 12.5t20 34.5q0 21 -18 35.5t-53 14.5q-41 0 -83 -22z" />
    <glyph glyph-name="sixinferior" unicode="&#x2086;" horiz-adv-x="409" 
d="M296 184q-109 0 -144 -89q43 27 98 27q63 0 103 -36t40 -95q0 -62 -48.5 -105t-129.5 -43q-94 0 -143 53t-49 132q0 108 75.5 178.5t196.5 70.5q19 0 36.5 -1.5t25.5 -3.5l8 -2l-26 -89q-19 3 -43 3zM212 37q-45 0 -73 -28q1 -39 22.5 -56t50.5 -17q33 0 49.5 15.5
t16.5 35.5q0 22 -18 36t-48 14z" />
    <glyph glyph-name="seveninferior" unicode="&#x2087;" horiz-adv-x="346" 
d="M338 181q-6 -7 -17 -20t-38 -52t-48 -77t-38 -88.5t-17 -93.5h-120q0 50 20.5 107.5t52 105.5t49.5 72t32 40h-199v95h323v-89z" />
    <glyph glyph-name="eightinferior" unicode="&#x2088;" horiz-adv-x="420" 
d="M19 -35q0 73 93 115q-64 38 -64 92q0 47 42.5 76t120.5 29q77 0 120 -29t43 -76q0 -54 -65 -92q93 -42 93 -115q0 -56 -50.5 -89t-140.5 -33q-91 0 -141.5 33t-50.5 89zM284 -25q0 32 -74 61q-36 -14 -55 -28t-19 -33q0 -20 21 -33t54 -13t53 13t20 33zM160 161
q0 -27 50 -46q51 20 51 46q0 12 -13.5 22.5t-36.5 10.5q-24 0 -37.5 -10.5t-13.5 -22.5z" />
    <glyph glyph-name="nineinferior" unicode="&#x2089;" horiz-adv-x="410" 
d="M114 -64q107 0 142 88q-40 -26 -96 -26q-63 0 -103 35.5t-40 94.5q0 63 48.5 106t129.5 43q94 0 142.5 -53t48.5 -132q0 -109 -75 -179t-197 -70q-18 0 -35.5 1.5t-25.5 3.5l-8 2l27 89q18 -3 42 -3zM197 82q47 0 73 28q-1 39 -22.5 56.5t-49.5 17.5q-33 0 -49.5 -15.5
t-16.5 -35.5q0 -22 17.5 -36.5t47.5 -14.5z" />
    <glyph glyph-name="parenleftinferior" unicode="&#x208d;" horiz-adv-x="225" 
d="M31 -75v267q0 41 2.5 59.5t16.5 41t45 35.5t87 25l28 -60q-43 -14 -53 -27t-10 -44v-327q0 -31 10 -44t53 -27l-28 -60q-55 12 -86.5 25t-45.5 35.5t-16.5 41t-2.5 59.5z" />
    <glyph glyph-name="parenrightinferior" unicode="&#x208e;" horiz-adv-x="225" 
d="M195 192v-267q0 -41 -2.5 -59.5t-16.5 -41t-45 -35.5t-87 -25l-28 60q43 14 53 27t10 44v327q0 31 -10 44t-53 27l28 60q55 -12 86.5 -25t45.5 -35.5t16.5 -41t2.5 -59.5z" />
    <glyph glyph-name="colonmonetary" unicode="&#x20a1;" horiz-adv-x="565" 
d="M228 0h-69l23 98q-64 29 -101.5 92.5t-37.5 160.5q0 134 70 203.5t173 69.5q11 0 17 -1l18 77h69l-20 -86q24 -5 26 -6l21 92h70l-26 -113q12 -4 25 -9.5t26.5 -11.5t19.5 -9l-65 -121l-37 16l-52 -224q30 10 89 37l65 -121q-109 -51 -188 -63l-19 -81h-70l18 77
q-13 0 -27 3zM279 222q8 -3 26 -5l60 259q-15 4 -26 5zM210 351q0 -44 13 -73l46 196q-59 -30 -59 -123z" />
    <glyph glyph-name="lira" unicode="&#x20a4;" horiz-adv-x="589" 
d="M59 332v80h46q-35 63 -35 122q0 83 56.5 130t158.5 47q55 0 112 -17t85.5 -31.5t71.5 -40.5l-74 -109q-100 57 -161 57q-38 0 -58 -17t-20 -45q0 -6 1 -12.5t2 -12t4.5 -12.5t5 -11t6 -12.5t6.5 -11t8 -12.5t7 -12h196v-80h-157q5 -17 7 -42h150v-79h-163
q-20 -48 -54 -70h283v-141h-495v114q9 3 23 9.5t43.5 31.5t42.5 56h-98v79h105q-4 19 -14 42h-91z" />
    <glyph glyph-name="peseta" unicode="&#x20a7;" horiz-adv-x="722" 
d="M53 437v64h28v199h302q264 0 284 -199h29v-64h-29q-20 -197 -284 -197h-131v-240h-171v437h-28zM252 559v-58h239q-18 58 -118 58h-121zM373 380q100 0 118 57h-239v-57h121z" />
    <glyph glyph-name="uni20A9" unicode="&#x20a9;" horiz-adv-x="1057" 
d="M645 0l-117 452l-117 -452h-167l-67 239h-135v95h108l-21 76h-88v95h61l-54 195h196l41 -195h126l49 195h136l49 -195h126l42 195h195l-55 -195h62v-95h-88l-22 -76h110v-95h-136l-67 -239h-167zM306 410l37 -174l44 174h-81zM669 410l44 -173l37 173h-81z" />
    <glyph glyph-name="Euro" unicode="&#x20ac;" horiz-adv-x="729" 
d="M696 611l-79 -126q-132 73 -207 73q-90 0 -123 -98h212v-85h-227v-56h227v-85h-210q35 -92 121 -92q75 0 207 73l79 -126q-87 -48 -158 -74t-149 -26q-108 0 -182.5 62t-99.5 183h-71v85h60v56h-60v85h69q24 124 99.5 187.5t184.5 63.5q78 0 149 -26t158 -74z" />
    <glyph glyph-name="uni2116" unicode="&#x2116;" horiz-adv-x="1216" 
d="M1178 482q0 -101 -57 -155t-163 -54t-163 54t-57 155q0 100 57 154.5t163 54.5t163 -54.5t57 -154.5zM1034 482q0 97 -76 97q-40 0 -57.5 -24t-17.5 -73q0 -50 17.5 -74t57.5 -24q76 0 76 98zM781 138v94h355v-94h-355zM513 0l-270 443v-443h-171v700h173l271 -445v445
h170v-700h-173z" />
    <glyph glyph-name="uni2117" unicode="&#x2117;" horiz-adv-x="789" 
d="M571 432q0 -129 -146 -129h-91v-164h-49v421h140q146 0 146 -128zM522 432q0 87 -96 87h-92v-174h92q96 0 96 87zM38 350q0 157 95 259t262 102t261.5 -102t94.5 -259t-94.5 -259t-261.5 -102t-262 102t-95 259zM78 350q0 -142 84 -233t232 -91q149 0 234 91.5t85 232.5
t-85 232t-234 91q-148 0 -232 -91t-84 -232z" />
    <glyph glyph-name="servicemark" unicode="&#x2120;" 
d="M512 476v132l-54 -95h-39l-54 95v-132h-64v224h66l71 -124l71 124h67v-224h-64zM198 608q73 -19 73 -66q0 -30 -28 -50t-75 -20q-63 0 -127 33l28 43q55 -25 100 -25q38 0 38 15q0 7 -11.5 11t-37 9t-43.5 10q-68 22 -68 66q0 30 26 50t71 20q51 0 116 -29l-28 -42
q-51 20 -86 20q-34 0 -34 -15q0 -7 9.5 -11t34.5 -9t42 -10z" />
    <glyph glyph-name="trademark" unicode="&#x2122;" horiz-adv-x="638" 
d="M508 476v132l-54 -95h-38l-55 98v-135h-64v224h68l70 -124l71 124h66v-224h-64zM270 648h-78v-172h-63v172h-77v52h218v-52z" />
    <glyph glyph-name="Omega" unicode="&#x2126;" horiz-adv-x="774" 
d="M387 711q167 0 255.5 -96t88.5 -240q0 -87 -35.5 -151t-83.5 -83h99v-141h-290v146q69 16 103.5 72.5t34.5 135.5q0 211 -172 211t-172 -210q0 -80 35 -136t103 -73v-146h-290v141h98q-48 20 -83 83.5t-35 150.5q0 144 88.5 240t255.5 96z" />
    <glyph glyph-name="onethird" unicode="&#x2153;" horiz-adv-x="913" 
d="M259 280h-116v315l-76 -38l-46 74l127 69h111v-420zM636 700l-328 -700h-124l328 700h124zM509 51l51 77q73 -39 133 -39q64 0 64 38q0 45 -116 45h-20v96h23q96 0 96 37q0 27 -48 27q-50 0 -117 -36l-46 71q80 60 182 60q72 0 108.5 -29.5t36.5 -74.5q0 -61 -69 -91
q39 -12 63.5 -41t24.5 -66q0 -55 -40 -93.5t-128 -38.5q-100 0 -198 58z" />
    <glyph glyph-name="twothirds" unicode="&#x2154;" horiz-adv-x="1029" 
d="M388 375v-95h-352v47q0 96 136 176q11 6 30.5 17t28.5 16.5t20 13.5t15 15t4 15q0 14 -14 23t-40 9q-50 0 -117 -40l-51 73q90 62 185 62q75 0 115 -34.5t40 -87.5q0 -29 -12 -54t-36.5 -44t-43 -30t-48.5 -26q-71 -36 -71 -56h211zM758 700l-328 -700h-124l328 700h124z
M632 51l51 77q73 -39 133 -39q64 0 64 38q0 45 -116 45h-20v96h23q96 0 96 37q0 27 -48 27q-50 0 -117 -36l-46 71q80 60 182 60q72 0 108.5 -29.5t36.5 -74.5q0 -61 -69 -91q39 -12 63.5 -41t24.5 -66q0 -55 -40 -93.5t-128 -38.5q-100 0 -198 58z" />
    <glyph glyph-name="oneeighth" unicode="&#x215b;" horiz-adv-x="920" 
d="M259 280h-116v315l-76 -38l-46 74l127 69h111v-420zM636 700l-328 -700h-124l328 700h124zM503 115q0 73 93 115q-64 38 -64 92q0 47 42.5 76t120.5 29q77 0 120 -29t43 -76q0 -54 -65 -92q93 -42 93 -115q0 -56 -50.5 -89t-140.5 -33q-91 0 -141.5 33t-50.5 89zM768 125
q0 32 -74 61q-36 -14 -55 -28t-19 -33q0 -20 21 -33t54 -13t53 13t20 33zM644 311q0 -27 50 -46q51 20 51 46q0 12 -13.5 22.5t-36.5 10.5q-24 0 -37.5 -10.5t-13.5 -22.5z" />
    <glyph glyph-name="threeeighths" unicode="&#x215c;" horiz-adv-x="1011" 
d="M27 331l51 77q73 -39 133 -39q64 0 64 38q0 45 -116 45h-20v96h23q96 0 96 37q0 27 -48 27q-50 0 -117 -36l-46 71q80 60 182 60q72 0 108.5 -29.5t36.5 -74.5q0 -61 -69 -91q39 -12 63.5 -41t24.5 -66q0 -55 -40 -93.5t-128 -38.5q-100 0 -198 58zM727 700l-328 -700
h-124l328 700h124zM594 115q0 73 93 115q-64 38 -64 92q0 47 42.5 76t120.5 29q77 0 120 -29t43 -76q0 -54 -65 -92q93 -42 93 -115q0 -56 -50.5 -89t-140.5 -33q-91 0 -141.5 33t-50.5 89zM859 125q0 32 -74 61q-36 -14 -55 -28t-19 -33q0 -20 21 -33t54 -13t53 13t20 33z
M735 311q0 -27 50 -46q51 20 51 46q0 12 -13.5 22.5t-36.5 10.5q-24 0 -37.5 -10.5t-13.5 -22.5z" />
    <glyph glyph-name="fiveeighths" unicode="&#x215d;" horiz-adv-x="993" 
d="M52 486l24 214h295v-95h-198l-3 -52q32 7 58 7q78 0 120 -40.5t42 -100.5q0 -62 -45 -104t-130 -42q-89 0 -184 57l51 83q59 -42 117 -42q32 0 52 12.5t20 34.5q0 21 -18 35.5t-53 14.5q-41 0 -83 -22zM714 700l-328 -700h-124l328 700h124zM580 115q0 73 93 115
q-64 38 -64 92q0 47 42.5 76t120.5 29q77 0 120 -29t43 -76q0 -54 -65 -92q93 -42 93 -115q0 -56 -50.5 -89t-140.5 -33q-91 0 -141.5 33t-50.5 89zM845 125q0 32 -74 61q-36 -14 -55 -28t-19 -33q0 -20 21 -33t54 -13t53 13t20 33zM721 311q0 -27 50 -46q51 20 51 46
q0 12 -13.5 22.5t-36.5 10.5q-24 0 -37.5 -10.5t-13.5 -22.5z" />
    <glyph glyph-name="seveneighths" unicode="&#x215e;" horiz-adv-x="900" 
d="M352 611q-6 -7 -17 -20t-38 -52t-48 -77t-38 -88.5t-17 -93.5h-120q0 50 20.5 107.5t52 105.5t49.5 72t32 40h-199v95h323v-89zM622 700l-328 -700h-124l328 700h124zM488 115q0 73 93 115q-64 38 -64 92q0 47 42.5 76t120.5 29q77 0 120 -29t43 -76q0 -54 -65 -92
q93 -42 93 -115q0 -56 -50.5 -89t-140.5 -33q-91 0 -141.5 33t-50.5 89zM753 125q0 32 -74 61q-36 -14 -55 -28t-19 -33q0 -20 21 -33t54 -13t53 13t20 33zM629 311q0 -27 50 -46q51 20 51 46q0 12 -13.5 22.5t-36.5 10.5q-24 0 -37.5 -10.5t-13.5 -22.5z" />
    <glyph glyph-name="partialdiff" unicode="&#x2202;" horiz-adv-x="649" 
d="M438 410q-21 72 -86 116.5t-163 44.5q-22 0 -43 -2t-31 -4l-10 -2l-19 126q40 11 107 11q195 0 304 -116t109 -291q0 -146 -78 -225t-215 -79q-130 0 -204.5 66t-74.5 178q0 109 67.5 176t171.5 67q33 0 62 -7t47 -16.5t31.5 -19t18.5 -16.5zM442 232q0 52 -28 85t-90 33
t-90.5 -34t-28.5 -84t28.5 -83.5t90.5 -33.5q61 0 89.5 33t28.5 84z" />
    <glyph glyph-name="Delta" unicode="&#x2206;" horiz-adv-x="752" 
d="M731 0h-711l266 700h179zM530 141l-154 393l-157 -393h311z" />
    <glyph glyph-name="product" unicode="&#x220f;" horiz-adv-x="735" 
d="M707 700v-141h-91v-559h-171v559h-155v-559h-171v559h-91v141h679z" />
    <glyph glyph-name="summation" unicode="&#x2211;" horiz-adv-x="606" 
d="M35 700h526v-141h-273l207 -209l-207 -209h273v-141h-526v74l264 276l-264 276v74z" />
    <glyph glyph-name="minus" unicode="&#x2212;" horiz-adv-x="633" 
d="M57 272v123h518v-123h-518z" />
    <glyph glyph-name="radical" unicode="&#x221a;" horiz-adv-x="657" 
d="M662 700l-292 -700h-190l-176 340h176l90 -187l220 547h172z" />
    <glyph glyph-name="infinity" unicode="&#x221e;" horiz-adv-x="914" 
d="M234 438q63 0 113.5 -28.5t110.5 -83.5q60 56 110 84t113 28q86 0 137.5 -50.5t51.5 -129.5q0 -80 -51.5 -130t-138.5 -50q-60 0 -109 27.5t-113 84.5q-63 -56 -112.5 -84t-111.5 -28q-86 0 -138 50.5t-52 129.5t52 129.5t138 50.5zM250 185q33 0 62.5 17.5t71.5 55.5
q-46 40 -74 56.5t-60 16.5q-37 0 -60.5 -20t-23.5 -53t23.5 -53t60.5 -20zM664 331q-31 0 -59 -16.5t-73 -56.5q42 -39 70.5 -56t61.5 -17q37 0 61.5 20t24.5 53t-24.5 53t-61.5 20z" />
    <glyph glyph-name="integral" unicode="&#x222b;" horiz-adv-x="399" 
d="M114 91v528q0 125 57.5 172.5t202.5 47.5h17v-92h-20q-25 0 -42 -9.5t-25.5 -21t-13 -34.5t-5 -37t-0.5 -41v-527q0 -125 -57.5 -172.5t-202.5 -47.5h-17v92h20q25 0 42 9.5t25.5 21t13 34t5 37t0.5 40.5z" />
    <glyph glyph-name="approxequal" unicode="&#x2248;" horiz-adv-x="633" 
d="M138 360l-80 32q59 136 159 136q45 0 108.5 -31.5t95.5 -31.5q22 0 39.5 11t36.5 44l80 -31q-56 -136 -158 -136q-42 0 -108 31.5t-98 31.5q-21 0 -38 -11.5t-37 -44.5zM138 169l-80 32q59 136 159 136q45 0 108.5 -31.5t95.5 -31.5q45 0 76 56l80 -32
q-57 -136 -158 -136q-42 0 -108 32t-98 32q-41 0 -75 -57z" />
    <glyph glyph-name="notequal" unicode="&#x2260;" horiz-adv-x="633" 
d="M57 370v122h263l58 137l104 -39l-41 -98h134v-122h-186l-29 -70h215v-123h-267l-58 -137l-103 39l41 98h-131v123h182l30 70h-212z" />
    <glyph glyph-name="lessequal" unicode="&#x2264;" horiz-adv-x="633" 
d="M568 447l-300 -91l300 -93v-135l-517 180v96l517 181v-138zM50 0v105h518v-105h-518z" />
    <glyph glyph-name="greaterequal" unicode="&#x2265;" horiz-adv-x="633" 
d="M581 404v-96l-518 -180v135l301 93l-301 91v138zM581 105v-105h-518v105h518z" />
    <glyph glyph-name="uni2318" unicode="&#x2318;" horiz-adv-x="770" 
d="M568 40q-63 0 -107 41.5t-44 100.5v51h-69v-51q0 -59 -44 -100.5t-106 -41.5q-64 0 -108 41.5t-44 100.5t44 100t108 41h58v57h-58q-63 0 -107.5 41.5t-44.5 100.5t44 100t108 41q62 0 106 -41t44 -100v-52h69v52q0 59 44 100t107 41t107 -41t44 -100t-44 -100.5
t-107 -41.5h-59v-57h59q63 0 107 -41t44 -100t-44 -100.5t-107 -41.5zM568 233h-59v-51q0 -22 17 -37t42 -15q24 0 41.5 15t17.5 37q0 21 -17.5 36t-41.5 15zM256 233h-58q-25 0 -42.5 -15t-17.5 -36q0 -22 17.5 -37t42.5 -15q24 0 41 15t17 37v51zM348 380v-57h69v57h-69z
M509 522v-52h59q24 0 41.5 15t17.5 37q0 21 -17.5 36t-41.5 15q-25 0 -42 -15t-17 -36zM198 470h58v52q0 21 -17 36t-41 15q-25 0 -42.5 -15t-17.5 -36q0 -22 17.5 -37t42.5 -15z" />
    <glyph glyph-name="lozenge" unicode="&#x25ca;" horiz-adv-x="592" 
d="M379 0h-167l-187 350l187 350h167l188 -350zM411 350l-116 214l-115 -214l115 -214z" />
    <glyph glyph-name="zero.tnum" unicode="&#xf639;" horiz-adv-x="684" 
d="M342 711q147 0 224 -94.5t77 -266.5q0 -173 -77.5 -267t-224.5 -94t-224 94t-77 267q0 172 77.5 266.5t224.5 94.5zM341 121q64 0 96.5 54.5t32.5 174.5t-32 174.5t-96 54.5q-130 0 -130 -229q0 -120 32.5 -174.5t96.5 -54.5z" />
    <glyph glyph-name="two.tnum" unicode="&#xf63a;" horiz-adv-x="684" 
d="M615 141v-141h-547v74q0 50 18 94.5t52 80.5t67.5 62t80.5 55q14 9 48 29.5t45.5 29t30.5 24t25.5 29t6.5 28.5q0 27 -24.5 45.5t-68.5 18.5q-79 0 -187 -65l-76 109q138 97 287 97q116 0 178.5 -56t62.5 -141q0 -29 -8.5 -56t-18 -46.5t-32 -42t-35 -34.5t-44 -32
t-42.5 -26.5t-45 -25.5q-57 -32 -86 -57t-29 -53h341z" />
    <glyph glyph-name="three.tnum" unicode="&#xf63b;" horiz-adv-x="684" 
d="M57 80l74 116q120 -64 210 -64q52 0 82.5 20t30.5 57q0 90 -191 90h-31v141h36q38 0 70 5t59 22.5t27 46.5q0 56 -83 56q-80 0 -183 -59l-70 106q127 94 281 94q112 0 169 -48.5t57 -122.5q0 -104 -113 -154q63 -19 103.5 -68.5t40.5 -111.5q0 -42 -14 -79t-43.5 -69
t-82.5 -50.5t-123 -18.5q-157 0 -306 91z" />
    <glyph glyph-name="four.tnum" unicode="&#xf63c;" horiz-adv-x="684" 
d="M28 128v118l314 454h215v-431h99v-141h-99v-128h-167v128h-362zM194 269h196v292z" />
    <glyph glyph-name="five.tnum" unicode="&#xf63d;" horiz-adv-x="684" 
d="M97 346l38 354h457v-141h-315l-7 -110q49 13 97 13q121 0 186.5 -67t65.5 -165q0 -101 -70 -171t-202 -70q-140 0 -284 90l75 123q100 -67 185 -67q53 0 88 25t35 69q0 40 -31 68t-89 28q-63 0 -135 -38z" />
    <glyph glyph-name="six.tnum" unicode="&#xf63e;" horiz-adv-x="684" 
d="M481 573q-78 0 -142.5 -40.5t-92.5 -131.5q64 51 159 51q100 0 163.5 -60.5t63.5 -157.5q0 -103 -75.5 -174t-201.5 -71q-100 0 -169.5 44t-99.5 110t-30 146q-1 191 118.5 306.5t305.5 115.5q28 0 54.5 -2.5t39.5 -5.5l13 -3l-39 -133q-30 6 -67 6zM351 326
q-42 0 -74.5 -17.5t-48.5 -40.5q0 -69 35.5 -105t86.5 -36q55 0 83 30t28 70q0 43 -29 71t-81 28z" />
    <glyph glyph-name="seven.tnum" unicode="&#xf63f;" horiz-adv-x="684" 
d="M594 568q-10 -12 -27 -34t-60.5 -88.5t-77 -131t-60.5 -152t-27 -162.5h-177q0 70 24 151t54 143.5t70 126t60.5 91.5t36.5 47h-321v141h505v-132z" />
    <glyph glyph-name="eight.tnum" unicode="&#xf640;" horiz-adv-x="684" 
d="M44 190q0 123 152 192q-107 63 -107 156q0 78 66.5 125.5t185.5 47.5t186.5 -48t67.5 -125q0 -94 -108 -156q152 -69 152 -192q0 -94 -79 -147.5t-219 -53.5t-218.5 53.5t-78.5 147.5zM466 203q0 38 -32.5 64t-92.5 51q-59 -25 -91.5 -51t-32.5 -64t34.5 -62t89.5 -24
t90 24t35 62zM255 522q0 -50 86 -86q87 36 87 86q0 25 -23.5 45t-63.5 20q-39 0 -62.5 -20t-23.5 -45z" />
    <glyph glyph-name="nine.tnum" unicode="&#xf641;" horiz-adv-x="684" 
d="M204 127q78 0 142.5 40.5t92.5 130.5q-67 -51 -159 -51q-100 0 -163.5 61t-63.5 158q0 103 76 174t202 71q75 0 134 -25t94 -68t53 -95.5t18 -111.5q0 -191 -119 -306.5t-305 -115.5q-28 0 -55 2.5t-40 5.5l-13 3l40 133q29 -6 66 -6zM334 374q79 0 123 57
q-1 69 -36 105.5t-86 36.5q-55 0 -83 -30t-28 -71q0 -42 29.5 -70t80.5 -28z" />
    <glyph glyph-name="commaaccent" unicode="&#xf6c3;" horiz-adv-x="137" 
d="M6 -183v128h120l7 -142l-99 -107l-31 39l56 82h-53z" />
    <glyph glyph-name="one.tnum" unicode="&#xf6dc;" horiz-adv-x="684" 
d="M50 0v141h206v401l-139 -70l-67 110l215 118h162v-559h205v-141h-582z" />
    <glyph glyph-name="centinferior" unicode="&#xf6df;" horiz-adv-x="360" 
d="M250 -150h-79v46q-63 3 -104 44.5t-41 119.5q0 79 41 120t104 43v47h79v-55q35 -8 89 -31l-44 -81q-59 27 -95 27q-29 0 -44.5 -19t-15.5 -51t15.5 -51t44.5 -19q36 0 95 27l44 -83q-43 -19 -89 -30v-54z" />
    <glyph glyph-name="centsuperior" unicode="&#xf6e0;" horiz-adv-x="360" 
d="M250 385h-79v46q-63 3 -104 44.5t-41 119.5q0 79 41 120t104 43v47h79v-55q35 -8 89 -31l-44 -81q-58 27 -95 27q-29 0 -44.5 -19t-15.5 -51t15.5 -51t44.5 -19q36 0 95 27l44 -83q-43 -19 -89 -30v-54z" />
    <glyph glyph-name="commainferior" unicode="&#xf6e1;" horiz-adv-x="181" 
d="M33 -150v116h111l8 -131l-91 -91l-29 36l51 70h-50z" />
    <glyph glyph-name="commasuperior" unicode="&#xf6e2;" horiz-adv-x="181" 
d="M33 385v116h111l8 -131l-91 -91l-29 36l51 70h-50z" />
    <glyph glyph-name="dollarinferior" unicode="&#xf6e3;" horiz-adv-x="419" 
d="M253 -210h-80v58q-83 13 -155 55l52 82q32 -17 78.5 -32t78.5 -15q52 0 52 27q0 14 -17 22t-58 18.5t-67 20.5q-109 36 -109 120q0 53 38 89t107 41v55h80v-59q74 -12 134 -41l-51 -83q-83 34 -135 34q-51 0 -51 -27q0 -14 15.5 -21.5t55.5 -17t67 -19.5
q113 -42 113 -122q0 -54 -39.5 -90t-108.5 -41v-54z" />
    <glyph glyph-name="dollarsuperior" unicode="&#xf6e4;" horiz-adv-x="419" 
d="M253 325h-80v58q-88 14 -155 55l52 82q32 -17 78.5 -32t78.5 -15q52 0 52 27q0 14 -17 22t-58 18.5t-67 20.5q-109 36 -109 120q0 53 38 89t107 41v55h80v-59q74 -12 134 -41l-51 -83q-83 34 -135 34q-51 0 -51 -27q0 -14 15.5 -21.5t55.5 -17t67 -19.5q113 -42 113 -122
q0 -54 -39.5 -90.5t-108.5 -40.5v-54z" />
    <glyph glyph-name="periodinferior" unicode="&#xf6e7;" horiz-adv-x="175" 
d="M32 -150v116h112v-116h-112z" />
    <glyph glyph-name="periodsuperior" unicode="&#xf6e8;" horiz-adv-x="175" 
d="M32 385v116h112v-116h-112z" />
    <glyph glyph-name="asuperior" unicode="&#xf6e9;" horiz-adv-x="385" 
d="M244 385v33q-52 -40 -113 -40q-52 0 -84 30t-32 75q0 47 34.5 74t90.5 27q32 0 104 -13v15q0 22 -11.5 30t-41.5 8q-39 0 -120 -21l-34 74q99 30 175 30t110 -29.5t34 -98.5v-194h-112zM169 462q41 0 75 26v30q-51 9 -66 9q-50 0 -50 -34q0 -31 41 -31z" />
    <glyph glyph-name="bsuperior" unicode="&#xf6ea;" horiz-adv-x="402" 
d="M34 385v437h112v-153q50 38 107 38q60 0 95 -43t35 -122q0 -78 -35 -121t-95 -43q-56 0 -107 37v-30h-112zM217 618q-41 0 -71 -33v-86q30 -33 71 -33q53 0 53 77q0 75 -53 75z" />
    <glyph glyph-name="dsuperior" unicode="&#xf6eb;" horiz-adv-x="402" 
d="M369 385h-112v30q-49 -37 -107 -37q-60 0 -95 43t-35 121q0 79 35 122t95 43q56 0 107 -38v153h112v-437zM186 466q39 0 71 33v86q-32 33 -71 33q-53 0 -53 -75q0 -77 53 -77z" />
    <glyph glyph-name="esuperior" unicode="&#xf6ec;" horiz-adv-x="371" 
d="M348 520h-215q7 -61 62 -61q46 0 121 36l39 -68q-87 -49 -172 -49q-73 0 -118.5 41t-45.5 122q0 78 45 122t127 44q79 0 120.5 -39t41.5 -102zM190 629q-47 0 -56 -53h111q-2 53 -55 53z" />
    <glyph glyph-name="isuperior" unicode="&#xf6ed;" horiz-adv-x="180" 
d="M146 385h-112v315h112v-315zM32 734v87h117v-87h-117z" />
    <glyph glyph-name="lsuperior" unicode="&#xf6ee;" horiz-adv-x="180" 
d="M146 385h-111v437h111v-437z" />
    <glyph glyph-name="msuperior" unicode="&#xf6ef;" horiz-adv-x="595" 
d="M146 700v-36q52 43 109 43q71 0 92 -51q19 19 51 35t66 16q100 0 100 -102v-220h-111v194q0 21 -6.5 31.5t-26.5 10.5q-33 0 -65 -32v-204h-112v194q0 21 -6.5 31.5t-25.5 10.5q-34 0 -65 -31v-205h-112v315h112z" />
    <glyph glyph-name="osuperior" unicode="&#xf6f0;" horiz-adv-x="396" 
d="M377 542q0 -78 -46.5 -121t-132.5 -43t-132.5 43.5t-46.5 121.5t46 121t133 43q86 0 132.5 -43.5t46.5 -121.5zM265 542q0 80 -67 80t-67 -79q0 -80 67 -80t67 79z" />
    <glyph glyph-name="rsuperior" unicode="&#xf6f1;" horiz-adv-x="278" 
d="M146 700v-65q5 14 16 28.5t40 28.5t66 12v-105q-49 0 -79.5 -25.5t-36.5 -50.5l-6 -25v-113h-112v315h112z" />
    <glyph glyph-name="ssuperior" unicode="&#xf6f2;" horiz-adv-x="345" 
d="M216 582q117 -27 117 -105q0 -45 -36.5 -72t-103.5 -27q-96 0 -180 42l40 71q77 -35 132 -35q36 0 36 17q0 5 -4.5 8.5t-14 6.5t-19 5t-24 5t-24.5 6q-116 28 -116 104q0 43 35.5 71t100.5 28q81 0 164 -36l-40 -65q-72 24 -113 24q-36 0 -36 -17q0 -5 4 -9t13.5 -6.5
t18.5 -4.5t24 -5t26 -6z" />
    <glyph glyph-name="tsuperior" unicode="&#xf6f3;" horiz-adv-x="280" 
d="M13 619v81h44v79l113 12v-91h88v-81h-88v-117q0 -28 25 -28q7 0 16.5 2.5t19 6t11.5 4.5l38 -81q-59 -28 -115 -28q-108 0 -108 124v117h-44z" />
    <glyph glyph-name="apple" unicode="&#xf8ff;" horiz-adv-x="857" 
d="M747 327q-9 -4 -10 -11t7 -12l28 -20q8 -5 7.5 -10.5t-10.5 -7.5l-34 -6q-10 -1 -12 -8t5 -14l24 -24q6 -7 4 -12t-12 -5l-35 2q-10 0 -13 -6t3 -14l18 -30q5 -8 2 -12.5t-13 -2.5l-34 9q-9 3 -13.5 -2.5t-1.5 -14.5l11 -33q4 -9 0 -12.5t-13 0.5l-31 15q-8 5 -14 0.5
t-5 -14.5l5 -33q1 -10 -3 -12.5t-12 3.5l-28 21q-8 6 -14 3t-7 -13l-2 -34q-1 -10 -6 -11.5t-11 5.5l-23 27q-16 16 -22 -5l-10 -33q-2 -10 -8 -10t-10 8l-17 30q-10 20 -23 0l-15 -30q-4 -8 -10 -8t-8 10l-10 33q-6 21 -22 5l-23 -27q-14 -15 -17 6l-2 34q-1 10 -7.5 13
t-14.5 -3l-26 -21q-8 -6 -13 -3.5t-3 12.5l5 33q1 10 -5 14.5t-15 -0.5l-30 -15q-9 -4 -13 -0.5t0 12.5l11 33q4 9 -1 14.5t-14 2.5l-34 -9q-10 -2 -13 2.5t2 12.5l19 30q5 8 2 14t-13 6l-35 -2q-10 0 -12 5t4 12l25 24q6 7 4 14t-12 8l-33 6q-7 1 -10 4t-1 7t7 7l28 20l6 6
q9 8 18 -6l16 -31q5 -9 10 -8t8 10l9 34q2 6 5.5 8.5t8 1.5t8.5 -6l23 -26q7 -7 11.5 -5.5t5.5 11.5l2 34q2 10 7.5 12.5t13.5 -3.5l28 -21q8 -6 12.5 -3.5t2.5 12.5l-4 34q-1 10 4.5 14t13.5 -1l31 -14q9 -4 13 -0.5t1 12.5l-11 33q-4 9 0.5 14t13.5 2l7 -1
q20 -38 34.5 -99t14.5 -106q-14 -18 -46 -18h-4q0 22 -16 35q9 -10 9 -27v-7q-16 1 -16 19q0 21 -13.5 35t-37.5 14q-20 0 -33.5 -15.5t-13.5 -38.5q0 -29 24.5 -47t67.5 -18q68 0 134.5 53t105 127t38.5 139q0 29 -18 48t-46 19q-23 0 -41.5 -16.5t-18.5 -41.5
q0 -52 58 -58q-15 -60 -29 -85q-13 102 -58 150q44 -58 52 -161l-14 -20q0 76 -25 140t-64 84q-6 11 12 15l34 6q9 2 10 7t-7 10l-29 19q-17 15 3 23l31 14q7 2 9.5 5.5t0 7t-9.5 5.5l-31 13q-11 5 -10 14q6 3 7 8l17 30q5 9 10.5 8.5t7.5 -9.5l10 -33q7 -23 22 -5l23 26
q6 8 11 6.5t6 -11.5l2 -35q1 -10 7.5 -12.5t13.5 3.5l28 21q7 6 11.5 3t3.5 -13l-5 -34q-1 -10 5 -14t14 1l31 16q9 4 13 0t0 -14l-11 -31q-3 -10 1.5 -15t13.5 -2l34 7q10 3 13 -1t-2 -13l-18 -29q-6 -8 -3 -14.5t13 -5.5l35 2q10 0 12 -5t-4 -12l-24 -26q-7 -7 -5 -13.5
t12 -7.5l34 -6q20 -5 3 -19l-28 -19q-8 -5 -7.5 -11.5t10.5 -10.5l31 -13q9 -4 9 -9t-9 -9zM366 124q69 0 135 52.5t104.5 127t38.5 139.5q0 31 -20 49q12 -18 12 -41q0 -103 -85 -210q-92 -113 -196 -113q-29 0 -49 9q20 -13 60 -13z" />
    <glyph glyph-name="f_f" unicode="&#xfb00;" horiz-adv-x="789" 
d="M410 405v120h72v12q0 98 40 145t123 47q89 0 185 -44l-54 -117q-60 20 -87 20q-12 0 -20.5 -2.5t-16 -14t-7.5 -31.5v-15h128v-120h-128v-405h-163v405h-72zM19 405v120h72v12q0 98 40 145t123 47q89 0 185 -44l-54 -117q-60 20 -87 20q-12 0 -20.5 -2.5t-16 -14
t-7.5 -31.5v-15h115v-120h-115v-405h-163v405h-72z" />
    <glyph glyph-name="f_i" unicode="&#xfb01;" horiz-adv-x="674" 
d="M19 405v120h72v12q0 192 162 192q69 0 147 -35l-37 -119q-42 13 -65 13q-12 0 -20.5 -2.5t-16 -14t-7.5 -31.5v-15h128v-120h-128v-405h-163v405h-72zM618 0h-165v525h165v-525zM450 592v134h172v-134h-172z" />
    <glyph glyph-name="f_l" unicode="&#xfb02;" horiz-adv-x="677" 
d="M19 405v120h72v12q0 192 162 192q69 0 147 -35l-37 -119q-42 13 -65 13q-12 0 -20.5 -2.5t-16 -14t-7.5 -31.5v-15h128v-120h-128v-405h-163v405h-72zM619 0h-164v729h164v-729z" />
    <glyph glyph-name="f_f_i" unicode="&#xfb03;" horiz-adv-x="1065" 
d="M19 405v120h72v12q0 98 40 145t123 47q89 0 185 -44l-54 -117q-60 20 -87 20q-12 0 -20.5 -2.5t-16 -14t-7.5 -31.5v-15h115v-120h-115v-405h-163v405h-72zM410 405v120h72v12q0 192 162 192q69 0 147 -35l-37 -119q-42 13 -65 13q-12 0 -20.5 -2.5t-16 -14t-7.5 -31.5
v-15h128v-120h-128v-405h-163v405h-72zM1009 0h-165v525h165v-525zM841 592v134h172v-134h-172z" />
    <glyph glyph-name="f_f_l" unicode="&#xfb04;" horiz-adv-x="1068" 
d="M19 405v120h72v12q0 98 40 145t123 47q89 0 185 -44l-54 -117q-60 20 -87 20q-12 0 -20.5 -2.5t-16 -14t-7.5 -31.5v-15h115v-120h-115v-405h-163v405h-72zM410 405v120h72v12q0 192 162 192q69 0 147 -35l-37 -119q-42 13 -65 13q-12 0 -20.5 -2.5t-16 -14t-7.5 -31.5
v-15h128v-120h-128v-405h-163v405h-72zM1010 0h-164v729h164v-729z" />
    <glyph glyph-name="s_t" unicode="&#xfb06;" horiz-adv-x="972" 
d="M333 323q187 -46 187 -173q0 -74 -58 -117.5t-161 -43.5q-74 0 -151.5 21t-127.5 48l63 115q47 -22 108.5 -40.5t101.5 -18.5q25 0 42 8t17 22q0 10 -8 18t-26 15t-31 10.5t-39.5 10t-35.5 8.5q-181 46 -181 170q0 71 55 115.5t156 44.5q55 0 126 -16q-6 21 -6 48
q0 72 53.5 116.5t146.5 44.5q111 0 170.5 -51.5t59.5 -144.5v-8h142v-120h-142v-225q0 -30 11.5 -39t30.5 -9q30 0 78 22l57 -121q-99 -44 -178 -44q-162 0 -162 192v224h-72v120h72v18q0 59 -21.5 86.5t-71.5 27.5q-43 0 -71 -26.5t-28 -71.5q0 -40 11 -63q30 -10 46 -18
l-63 -107q-106 41 -178 41q-57 0 -57 -30q0 -7 3.5 -13t12 -11t16.5 -8.5t22.5 -7.5t24.5 -6.5t28 -6t28 -6.5z" />
    <glyph glyph-name="nine.numr" horiz-adv-x="426" 
d="M122 366q107 0 142 88q-40 -26 -96 -26q-63 0 -103 35.5t-40 94.5q0 63 48.5 106t129.5 43q94 0 142.5 -53t48.5 -132q0 -109 -75 -179t-197 -70q-18 0 -35.5 1.5t-25.5 3.5l-8 2l27 89q18 -3 42 -3zM205 512q47 0 73 28q-1 39 -22.5 56.5t-49.5 17.5q-33 0 -49.5 -15.5
t-16.5 -35.5q0 -22 17.5 -36.5t47.5 -14.5z" />
    <glyph glyph-name="percentsuperior" horiz-adv-x="644" 
d="M272 699q0 -53 -32.5 -82.5t-94.5 -29.5t-94 29.5t-32 82.5t32 83t94 30q61 0 94 -30t33 -83zM191 699q0 47 -46 47q-44 0 -44 -47t44 -47q46 0 46 47zM478 805l-231 -427h-85l230 427h86zM625 491q0 -54 -32 -83.5t-94 -29.5t-94 29.5t-32 83.5q0 53 32.5 82.5
t93.5 29.5t93.5 -29.5t32.5 -82.5zM544 491q0 46 -45 46t-45 -46q0 -47 45 -47t45 47z" />
    <glyph glyph-name="f_f_k" horiz-adv-x="1377" 
d="M1349 525l-177 -207l208 -318h-177l-128 203l-66 -77v-126h-164v729h164v-404l150 200h190zM19 405v120h72v12q0 98 40 145t123 47q89 0 185 -44l-54 -117q-60 20 -87 20q-12 0 -20.5 -2.5t-16 -14t-7.5 -31.5v-15h115v-120h-115v-405h-163v405h-72zM410 405v120h72v12
q0 192 162 192q69 0 147 -35l-37 -119q-42 13 -65 13q-12 0 -20.5 -2.5t-16 -14t-7.5 -31.5v-15h128v-120h-128v-405h-163v405h-72z" />
    <glyph glyph-name="f_f_k.ss01" horiz-adv-x="1337" 
d="M19 405v120h72v2q0 192 178 192q107 0 228 -41q43 51 137 51q86 0 188 -30v30h164v-404l150 200h190l-177 -207l208 -318h-177l-128 203l-66 -77v-126h-164v568l-39 6.5t-62 9.5t-46 4q-55 0 -55 -48v-15h127v-120h-127v-405h-164v405h-202v-405h-163v405h-72zM456 558
q-120 20 -146 20q-56 0 -56 -48v-5h202v33z" />
    <glyph glyph-name="f_f_j" horiz-adv-x="1071" 
d="M19 405v120h72v12q0 98 40 145t123 47q89 0 185 -44l-54 -117q-60 20 -87 20q-12 0 -20.5 -2.5t-16 -14t-7.5 -31.5v-15h115v-120h-115v-405h-163v405h-72zM410 405v120h72v12q0 192 162 192q69 0 147 -35l-37 -119q-42 13 -65 13q-12 0 -20.5 -2.5t-16 -14t-7.5 -31.5
v-15h128v-120h-128v-405h-163v405h-72zM1015 525v-500v-41t-1.5 -35t-4.5 -32.5t-8.5 -27.5t-14 -26t-21 -22t-29 -20.5l-38.5 -17.5t-49.5 -17.5t-61.5 -15.5l-53 119q45 15 67.5 24.5t34.5 25.5t13.5 28.5t1.5 44.5v513h164zM847 592v134h172v-134h-172z" />
    <glyph glyph-name="f_f_l.ss01" horiz-adv-x="1032" 
d="M19 405v120h72v2q0 192 178 192q107 0 228 -41q43 51 137 51q86 0 188 -30v30h164v-729h-164v568l-39 6.5t-62 9.5t-46 4q-55 0 -55 -48v-15h127v-120h-127v-405h-164v405h-202v-405h-163v405h-72zM456 558q-120 20 -146 20q-56 0 -56 -48v-5h202v33z" />
    <glyph glyph-name="f_f_t" horiz-adv-x="1216" 
d="M410 405v120h72v12q0 98 40 145t123 47q89 0 185 -44l-54 -117q-60 20 -87 20q-12 0 -20.5 -2.5t-16 -14t-7.5 -31.5v-15h115v-120h-115v-405h-163v405h-72zM19 405v120h72v12q0 98 40 145t123 47q89 0 185 -44l-54 -117q-60 20 -87 20q-12 0 -20.5 -2.5t-16 -14
t-7.5 -31.5v-15h115v-120h-115v-405h-163v405h-72zM801 405v120h72v132l163 20v-152h143v-120h-143v-225q0 -20 7.5 -31.5t16 -14t20.5 -2.5q20 0 77 22l57 -121q-99 -44 -178 -44q-163 0 -163 192v224h-72z" />
    <glyph glyph-name="f_f_t.ss01" horiz-adv-x="1159" 
d="M19 405v120h72v2q0 192 178 192q104 0 224 -40q40 50 125 50q87 0 185 -44l-55 -117q-60 20 -87 20q-19 0 -30.5 -9t-11.5 -39v-15h202v132l163 20v-152h143v-120h-143v-225q0 -20 7.5 -31.5t16 -14t20.5 -2.5q20 0 77 22l57 -121q-99 -44 -178 -44q-163 0 -163 192v224
h-202v-405h-164v405h-201v-405h-163v405h-72zM455 558q-124 20 -145 20q-56 0 -56 -48v-5h201v33z" />
    <glyph glyph-name="f_h" horiz-adv-x="1029" 
d="M19 405v120h72v12q0 192 162 192q69 0 147 -35l-37 -119q-42 13 -65 13q-12 0 -20.5 -2.5t-16 -14t-7.5 -31.5v-15h128v-120h-128v-405h-163v405h-72zM618 729v-263q105 70 199 70q160 0 160 -167v-369h-164v331q0 37 -13.5 57.5t-48.5 20.5q-34 0 -71 -18.5t-62 -42.5
v-348h-164v729h164z" />
    <glyph glyph-name="f_h.ss01" horiz-adv-x="1024" 
d="M19 405v120h72v12q0 192 178 192q86 0 188 -30v30h164v-262q106 69 200 69q159 0 159 -167v-369h-165v331q0 78 -61 78q-32 0 -69 -18t-64 -42v-349h-164v568l-39 6.5t-62 9.5t-46 4q-56 0 -56 -48v-15h128v-120h-128v-405h-163v405h-72z" />
    <glyph glyph-name="f_f_i.ss01" horiz-adv-x="1004" 
d="M19 405v120h72v2q0 192 178 192q105 0 229 -42q46 52 144 52q118 0 250 -44l-54 -117q-112 20 -156 20q-62 0 -62 -48v-15h334v-525h-164v405h-170v-405h-164v405h-202v-405h-163v405h-72zM456 558q-120 20 -146 20q-56 0 -56 -48v-5h202v33z" />
    <glyph glyph-name="f_i.ss01" horiz-adv-x="644" 
d="M19 405v120h72v12q0 192 186 192q118 0 250 -44l-54 -117q-112 20 -156 20q-63 0 -63 -48v-15h335v-525h-164v405h-171v-405h-163v405h-72z" />
    <glyph glyph-name="f_j" horiz-adv-x="680" 
d="M19 405v120h72v12q0 192 162 192q69 0 147 -35l-37 -119q-42 13 -65 13q-12 0 -20.5 -2.5t-16 -14t-7.5 -31.5v-15h128v-120h-128v-405h-163v405h-72zM456 592v134h172v-134h-172zM624 525v-500v-41t-1.5 -35t-4.5 -32.5t-8.5 -27.5t-14 -26t-21 -22t-29 -20.5
l-38.5 -17.5t-49.5 -17.5t-61.5 -15.5l-53 119q45 15 67.5 24.5t34.5 25.5t13.5 28.5t1.5 44.5v513h164z" />
    <glyph glyph-name="f_j.ss01" horiz-adv-x="644" 
d="M19 405v120h72v12q0 192 186 192q118 0 250 -44l-54 -117q-112 20 -156 20q-63 0 -63 -48v-15h335v-500v-41t-1.5 -35t-4.5 -32.5t-8.5 -27.5t-14 -26t-20.5 -22t-28.5 -20.5l-38.5 -17.5t-49.5 -17.5t-61.5 -15.5l-54 119q45 15 67.5 24.5t34.5 25.5t13.5 28.5t1.5 44.5
v393h-171v-405h-163v405h-72z" />
    <glyph glyph-name="f_k" horiz-adv-x="986" 
d="M958 525l-177 -207l208 -318h-177l-128 203l-66 -77v-126h-164v729h164v-404l150 200h190zM19 405v120h72v12q0 192 162 192q69 0 147 -35l-37 -119q-42 13 -65 13q-12 0 -20.5 -2.5t-16 -14t-7.5 -31.5v-15h128v-120h-128v-405h-163v405h-72z" />
    <glyph glyph-name="f_k.ss01" horiz-adv-x="981" 
d="M19 405v120h72v12q0 192 178 192q86 0 188 -30v30h164v-404l150 200h190l-177 -207l208 -318h-177l-128 203l-66 -77v-126h-164v568l-39 6.5t-62 9.5t-46 4q-56 0 -56 -48v-15h128v-120h-128v-405h-163v405h-72z" />
    <glyph glyph-name="f_f_h.ss01" horiz-adv-x="1385" 
d="M19 405v120h72v2q0 192 178 192q107 0 228 -41q43 51 137 51q86 0 188 -30v30h164v-262q106 69 200 69q159 0 159 -167v-369h-165v331q0 78 -61 78q-32 0 -69 -18t-64 -42v-349h-164v568l-39 6.5t-62 9.5t-46 4q-55 0 -55 -48v-15h127v-120h-127v-405h-164v405h-202v-405
h-163v405h-72zM456 558q-120 20 -146 20q-56 0 -56 -48v-5h202v33z" />
    <glyph glyph-name="f_l.ss01" horiz-adv-x="672" 
d="M19 405v120h72v12q0 192 178 192q86 0 188 -30v30h164v-729h-164v568l-39 6.5t-62 9.5t-46 4q-56 0 -56 -48v-15h128v-120h-128v-405h-163v405h-72z" />
    <glyph glyph-name="f_t" horiz-adv-x="825" 
d="M19 405v120h72v12q0 98 40 145t123 47q89 0 185 -44l-54 -117q-60 20 -87 20q-12 0 -20.5 -2.5t-16 -14t-7.5 -31.5v-15h115v-120h-115v-405h-163v405h-72zM411 405v120h72v132l163 20v-152h143v-120h-143v-225q0 -20 7.5 -31.5t16 -14t20.5 -2.5q20 0 77 22l57 -121
q-99 -44 -178 -44q-163 0 -163 192v224h-72z" />
    <glyph glyph-name="f_t.ss01" horiz-adv-x="800" 
d="M19 405v120h72v12q0 98 40 145t123 47q89 0 185 -44l-54 -117q-60 20 -87 20q-12 0 -20.5 -2.5t-16 -14t-7.5 -31.5v-15h203v132l164 20v-152h142v-120h-142v-225q0 -20 7 -31.5t15 -14t20 -2.5q25 0 78 22l57 -121q-99 -44 -177 -44q-83 0 -123.5 47.5t-40.5 144.5v224
h-203v-405h-163v405h-72z" />
    <glyph glyph-name="finferior" horiz-adv-x="257" 
d="M12 84v81h45q0 122 107 122q55 0 120 -27l-37 -79q-32 12 -53 12q-25 0 -25 -28h79v-81h-79v-234h-112v234h-45z" />
    <glyph glyph-name="Uacute.sc" horiz-adv-x="640" 
d="M585 574v-328q0 -58 -11 -100.5t-39 -79.5t-82 -56t-133 -19t-133.5 19t-82.5 56t-39 79.5t-11 100.5v328h157v-343q0 -51 23.5 -79t85.5 -28t85 28t23 79v343h157zM345 614h-134l125 140h182z" />
    <glyph glyph-name="five.dnom" horiz-adv-x="411" 
d="M43 206l24 214h295v-95h-198l-3 -52q31 7 58 7q78 0 120 -40.5t42 -100.5q0 -62 -45 -104t-130 -42q-89 0 -184 57l51 83q59 -42 117 -42q32 0 52 12.5t20 34.5q0 21 -18 35.5t-53 14.5q-41 0 -83 -22z" />
    <glyph glyph-name="five.numr" horiz-adv-x="411" 
d="M43 486l24 214h295v-95h-198l-3 -52q32 7 58 7q78 0 120 -40.5t42 -100.5q0 -62 -45 -104t-130 -42q-89 0 -184 57l51 83q59 -42 117 -42q32 0 52 12.5t20 34.5q0 21 -18 35.5t-53 14.5q-41 0 -83 -22z" />
    <glyph glyph-name="five.onum" horiz-adv-x="606" 
d="M52 220l38 354h457v-141h-315l-7 -110q49 13 97 13q121 0 186.5 -67t65.5 -165q0 -101 -70 -171t-202 -70q-140 0 -284 90l75 123q101 -67 185 -67q53 0 88 25t35 69q0 40 -31 68t-89 28q-63 0 -135 -38z" />
    <glyph glyph-name="f_f_h" horiz-adv-x="1420" 
d="M1009 729v-263q105 70 199 70q160 0 160 -167v-369h-164v331q0 37 -13.5 57.5t-48.5 20.5q-34 0 -71 -18.5t-62 -42.5v-348h-164v729h164zM19 405v120h72v12q0 98 40 145t123 47q89 0 185 -44l-54 -117q-60 20 -87 20q-12 0 -20.5 -2.5t-16 -14t-7.5 -31.5v-15h115v-120
h-115v-405h-163v405h-72zM410 405v120h72v12q0 192 162 192q69 0 147 -35l-37 -119q-42 13 -65 13q-12 0 -20.5 -2.5t-16 -14t-7.5 -31.5v-15h128v-120h-128v-405h-163v405h-72z" />
    <glyph glyph-name="f_f_b.ss01" horiz-adv-x="1385" 
d="M19 405v120h72v2q0 192 178 192q107 0 228 -41q43 51 137 51q86 0 188 -30v30h164v-258q84 65 172 65q96 0 151.5 -70.5t55.5 -203.5q0 -132 -56 -202.5t-151 -70.5q-91 0 -172 65v-54h-164v568l-39 6.5t-62 9.5t-46 4q-55 0 -55 -48v-15h127v-120h-127v-405h-164v405
h-202v-405h-163v405h-72zM1107 404q-67 0 -121 -61v-162q53 -60 121 -60q92 0 92 142q0 141 -92 141zM456 558q-120 20 -146 20q-56 0 -56 -48v-5h202v33z" />
    <glyph glyph-name="fiveeighths.onum" horiz-adv-x="857" 
d="M500 94q0 60 82 94q-58 33 -58 77q0 38 37 61.5t102 23.5q64 0 101.5 -24t37.5 -61q0 -45 -57 -77q81 -35 81 -94q0 -46 -43.5 -73t-119.5 -27q-77 0 -120 27t-43 73zM48 399l22 175h248v-75h-172l-4 -48q28 7 53 7q67 0 103 -33.5t36 -81.5q0 -50 -38.5 -84.5
t-110.5 -34.5q-75 0 -155 46l40 65q56 -34 103 -34q29 0 48 11t19 31q0 18 -17 30t-50 12q-37 0 -73 -17zM612 574l-286 -574h-99l287 574h98zM732 102q0 29 -69 53q-69 -24 -69 -53q0 -17 19.5 -28t49.5 -11t49.5 11t19.5 28zM614 253q0 -21 49 -37q48 14 48 37
q0 12 -13 21.5t-35 9.5t-35.5 -10t-13.5 -21z" />
    <glyph glyph-name="f_f_b" horiz-adv-x="1420" 
d="M845 0v729h164v-259q81 66 172 66q95 0 150.5 -70.5t55.5 -203.5q0 -132 -55.5 -202.5t-150.5 -70.5q-93 0 -172 65v-54h-164zM19 405v120h72v12q0 98 40 145t123 47q89 0 185 -44l-54 -117q-60 20 -87 20q-12 0 -20.5 -2.5t-16 -14t-7.5 -31.5v-15h115v-120h-115v-405
h-163v405h-72zM410 405v120h72v12q0 192 162 192q69 0 147 -35l-37 -119q-42 13 -65 13q-12 0 -20.5 -2.5t-16 -14t-7.5 -31.5v-15h128v-120h-128v-405h-163v405h-72zM1129 404q-68 0 -120 -62v-160q52 -61 120 -61q92 0 92 142q0 141 -92 141z" />
    <glyph glyph-name="fivesixths" horiz-adv-x="966" 
d="M52 486l24 214h295v-95h-198l-3 -52q32 7 58 7q78 0 120 -40.5t42 -100.5q0 -62 -45 -104t-130 -42q-89 0 -184 57l51 83q59 -42 117 -42q32 0 52 12.5t20 34.5q0 21 -18 35.5t-53 14.5q-41 0 -83 -22zM714 700l-328 -700h-124l328 700h124zM835 334q-109 0 -144 -89
q43 27 98 27q63 0 103 -36t40 -95q0 -62 -48.5 -105t-129.5 -43q-94 0 -143 53t-49 132q0 108 75.5 178.5t196.5 70.5q19 0 36.5 -1.5t25.5 -3.5l8 -2l-26 -89q-19 3 -43 3zM751 187q-45 0 -73 -28q1 -39 22.5 -56t50.5 -17q33 0 49.5 15.5t16.5 35.5q0 22 -18 36t-48 14z
" />
    <glyph glyph-name="fivesixths.onum" horiz-adv-x="831" 
d="M716 277q-99 0 -129 -77q36 23 87 23q55 0 90 -29.5t35 -77.5q0 -51 -41.5 -86.5t-110.5 -35.5q-80 0 -121.5 43.5t-41.5 108.5q0 89 64 146.5t167 57.5q16 0 30.5 -1.5t21.5 -2.5l7 -2l-20 -70q-17 3 -38 3zM48 399l22 175h248v-75h-172l-4 -48q28 7 53 7
q67 0 103 -33.5t36 -81.5q0 -50 -38.5 -84.5t-110.5 -34.5q-75 0 -155 46l40 65q56 -34 103 -34q29 0 48 11t19 31q0 18 -17 30t-50 12q-37 0 -73 -17zM612 574l-286 -574h-99l287 574h98zM645 156q-44 0 -68 -26q1 -32 20.5 -47t47.5 -15q31 0 46.5 13t15.5 31
q0 19 -16.5 31.5t-45.5 12.5z" />
    <glyph glyph-name="f_f.ss01" horiz-adv-x="757" 
d="M19 405v120h72v2q0 192 178 192q104 0 224 -40q41 50 126 50q89 0 185 -44l-54 -117q-60 20 -87 20q-12 0 -20.5 -2.5t-15.5 -13.5t-7 -32v-15h127v-120h-127v-405h-164v405h-202v-405h-163v405h-72zM254 530v-5h202v33q-120 20 -146 20q-56 0 -56 -48z" />
    <glyph glyph-name="U.sc" horiz-adv-x="640" 
d="M585 574v-328q0 -58 -11 -100.5t-39 -79.5t-82 -56t-133 -19t-133.5 19t-82.5 56t-39 79.5t-11 100.5v328h157v-343q0 -51 23.5 -79t85.5 -28t85 28t23 79v343h157z" />
    <glyph glyph-name="Tsuperior" horiz-adv-x="384" 
d="M376 708h-125v-323h-116v323h-126v97h367v-97z" />
    <glyph glyph-name="four.dnom" horiz-adv-x="457" 
d="M18 73v79l195 268h154v-252h67v-95h-67v-73h-116v73h-233zM138 168h113v161z" />
    <glyph glyph-name="four.numr" horiz-adv-x="457" 
d="M18 353v79l195 268h154v-252h67v-95h-67v-73h-116v73h-233zM138 448h113v161z" />
    <glyph glyph-name="four.onum" horiz-adv-x="683" 
d="M16 2v118l313 454h226v-431h106v-141h-106v-128h-171v128h-368zM189 143h195v290z" />
    <glyph glyph-name="f_f.calt" horiz-adv-x="789" 
d="M19 405v120h72v12q0 98 40 145t123 47q89 0 185 -44l-54 -117q-60 20 -87 20q-12 0 -20.5 -2.5t-16 -14t-7.5 -31.5v-15h115v-120h-115v-405h-163v405h-72zM410 405v120h72v12q0 192 162 192q69 0 147 -35l-37 -119q-42 13 -65 13q-12 0 -20.5 -2.5t-16 -14t-7.5 -31.5
v-15h128v-120h-128v-405h-163v405h-72z" />
    <glyph glyph-name="fourfifths" horiz-adv-x="1057" 
d="M25 353v79l195 268h154v-252h67v-95h-67v-73h-116v73h-233zM145 448h113v161zM776 700l-328 -700h-124l328 700h124zM681 206l24 214h295v-95h-198l-3 -52q31 7 58 7q78 0 120 -40.5t42 -100.5q0 -62 -45 -104t-130 -42q-89 0 -184 57l51 83q59 -42 117 -42q32 0 52 12.5
t20 34.5q0 21 -18 35.5t-53 14.5q-41 0 -83 -22z" />
    <glyph glyph-name="fourfifths.onum" horiz-adv-x="910" 
d="M26 291v62l172 221h123v-209h58v-74h-58v-61h-92v61h-203zM587 170l21 174h250v-74h-173l-4 -49q28 7 53 7q68 0 103.5 -33t35.5 -81q0 -51 -38.5 -85.5t-110.5 -34.5q-74 0 -155 47l41 65q48 -34 102 -34q29 0 48 11t19 30q0 18 -17 30.5t-50 12.5q-37 0 -73 -18z
M666 574l-286 -574h-99l286 574h99zM124 365h105v141z" />
    <glyph glyph-name="f_b.ss01" horiz-adv-x="1026" 
d="M19 405v120h72v12q0 192 178 192q86 0 188 -30v30h164v-258q84 65 172 65q96 0 151.5 -70.5t55.5 -203.5q0 -132 -56 -202.5t-151 -70.5q-91 0 -172 65v-54h-164v568l-39 6.5t-62 9.5t-46 4q-56 0 -56 -48v-15h128v-120h-128v-405h-163v405h-72zM742 404q-67 0 -121 -61
v-162q53 -60 121 -60q92 0 92 142q0 141 -92 141z" />
    <glyph glyph-name="f_b" horiz-adv-x="1030" 
d="M19 405v120h72v12q0 192 162 192q69 0 147 -35l-37 -119q-42 13 -65 13q-12 0 -20.5 -2.5t-16 -14t-7.5 -31.5v-15h128v-120h-128v-405h-163v405h-72zM454 0v729h164v-259q81 66 172 66q95 0 150.5 -70.5t55.5 -203.5q0 -132 -55.5 -202.5t-150.5 -70.5q-93 0 -172 65
v-54h-164zM738 404q-68 0 -120 -62v-160q52 -61 120 -61q92 0 92 142q0 141 -92 141z" />
    <glyph glyph-name="f.calt" horiz-adv-x="398" 
d="M19 405v120h72v12q0 192 162 192q69 0 147 -35l-37 -119q-42 13 -65 13q-12 0 -20.5 -2.5t-16 -14t-7.5 -31.5v-15h128v-120h-128v-405h-163v405h-72z" />
    <glyph glyph-name="frenchfranc" horiz-adv-x="643" 
d="M613 556h-338v-136h267v-141h-267v-85h180v-95h-180v-99h-171v99h-67v95h67v506h509v-144z" />
    <glyph glyph-name="frenchfranc.onum" horiz-adv-x="572" 
d="M544 444h-293v-93h230v-129h-230v-62h157v-85h-157v-75h-157v75h-60v85h60v414h450v-130z" />
    <glyph glyph-name="frenchfrancinferior" horiz-adv-x="412" 
d="M393 173h-211v-66h167v-95h-167v-45h114v-62h-114v-55h-116v55h-43v62h43v303h327v-97z" />
    <glyph glyph-name="frenchfrancsuperior" horiz-adv-x="412" 
d="M392 708h-211v-66h167v-95h-167v-45h115v-62h-115v-55h-116v55h-42v62h42v303h327v-97z" />
    <glyph glyph-name="fsuperior" horiz-adv-x="257" 
d="M12 619v81h45q0 122 107 122q55 0 120 -27l-37 -79q-32 12 -53 12q-25 0 -25 -28h79v-81h-79v-234h-112v234h-45z" />
    <glyph glyph-name="Tinferior" horiz-adv-x="384" 
d="M376 173h-125v-323h-116v323h-126v97h367v-97z" />
    <glyph glyph-name="Thorn.sc" horiz-adv-x="609" 
d="M580 296q0 -191 -252 -191h-110v-105h-157v574h157v-86h110q252 0 252 -192zM421 296q0 37 -29 50t-95 13h-79v-126h79q66 0 95 13t29 50z" />
    <glyph glyph-name="Tcedilla.sc" horiz-adv-x="533" 
d="M134 -164l32 79q24 -12 47 -12q46 0 46 35q0 30 -27 62h-44v441h-175v133h506v-133h-173v-441h-42q38 -44 38 -92t-33 -71.5t-84 -23.5q-53 0 -91 23z" />
    <glyph glyph-name="Tcaron.sc" horiz-adv-x="533" 
d="M519 441h-173v-441h-158v441h-175v133h506v-133zM451 754l-108 -140h-154l-108 140h112l73 -71l73 71h112z" />
    <glyph glyph-name="Tbar.sc" horiz-adv-x="541" 
d="M522 441h-173v-190h78v-85h-78v-166h-158v166h-77v85h77v190h-175v133h506v-133z" />
    <glyph glyph-name="germandblsinferior" horiz-adv-x="443" 
d="M210 289q90 0 133.5 -37t43.5 -85q0 -17 -6 -32.5t-12 -22.5l-6 -6q-52 -13 -52 -34q0 -8 9 -13.5t29 -15.5t35 -21q46 -34 46 -79q0 -43 -32 -71.5t-87 -28.5q-65 0 -141 38l39 70q54 -26 86 -26q23 0 23 16q0 15 -24 22q-15 5 -25 9.5t-27.5 16t-27 29.5t-9.5 42
q0 66 74 96q1 3 1 6q0 18 -16 30t-49 12q-37 0 -53 -20t-16 -70v-264h-112v272q0 167 176 167z" />
    <glyph glyph-name="germandblssuperior" horiz-adv-x="443" 
d="M210 824q90 0 133.5 -37t43.5 -85q0 -17 -6 -32.5t-12 -21.5l-6 -7q-52 -13 -52 -34q0 -8 9 -13.5t28.5 -15t35.5 -21.5q46 -34 46 -79q0 -43 -32 -71.5t-87 -28.5q-65 0 -141 38l39 70q54 -26 86 -26q23 0 23 16q0 14 -24 22q-15 5 -25 9.5t-27.5 16t-27 29.5t-9.5 42
q0 66 74 96q1 4 1 6q0 18 -16 30t-49 12q-37 0 -53 -20t-16 -70v-264h-112v272q0 167 176 167z" />
    <glyph glyph-name="ginferior" horiz-adv-x="402" 
d="M257 165h112v-305q0 -70 -37 -104t-116 -34q-89 0 -182 26q3 12 10.5 40.5t11.5 43.5q84 -26 135 -26q38 0 52 11t14 37v26q-49 -37 -107 -37q-60 0 -95 43t-35 121q0 79 35 122t95 43q56 0 107 -38v31zM186 -69q39 0 71 33v86q-32 33 -71 33q-53 0 -53 -75q0 -77 53 -77
z" />
    <glyph glyph-name="T.sc" horiz-adv-x="533" 
d="M519 441h-173v-441h-158v441h-175v133h506v-133z" />
    <glyph glyph-name="Ssuperior" horiz-adv-x="409" 
d="M284 632q113 -42 113 -122q0 -58 -45 -95t-123 -37q-114 0 -215 60l52 82q32 -17 78.5 -32t78.5 -15q52 0 52 27q0 14 -17 22t-58 18.5t-67 20.5q-109 36 -109 120q0 58 43.5 94.5t121.5 36.5q100 0 194 -46l-51 -83q-83 34 -135 34q-51 0 -51 -27q0 -14 15.5 -21.5
t55.5 -17t67 -19.5z" />
    <glyph glyph-name="Ubreve.sc" horiz-adv-x="640" 
d="M585 574v-328q0 -58 -11 -100.5t-39 -79.5t-82 -56t-133 -19t-133.5 19t-82.5 56t-39 79.5t-11 100.5v328h157v-343q0 -51 23.5 -79t85.5 -28t85 28t23 79v343h157zM319 614q-81 0 -125.5 34t-44.5 94h99q0 -41 71 -41q72 0 72 41h100q0 -60 -45.5 -94t-126.5 -34z" />
    <glyph glyph-name="gsuperior" horiz-adv-x="402" 
d="M257 700h112v-305q0 -70 -37 -104t-116 -34q-89 0 -182 26q3 12 10.5 40.5t11.5 43.5q84 -26 135 -26q38 0 52 11t14 37v26q-49 -37 -107 -37q-60 0 -95 43t-35 121q0 79 35 122t95 43q56 0 107 -38v31zM186 466q39 0 71 33v86q-32 33 -71 33q-53 0 -53 -75q0 -77 53 -77
z" />
    <glyph glyph-name="Sinferior" horiz-adv-x="409" 
d="M284 97q113 -42 113 -122q0 -58 -45 -95t-123 -37q-114 0 -215 60l52 82q32 -17 78.5 -32t78.5 -15q52 0 52 27q0 14 -17 22t-58 18.5t-67 20.5q-109 36 -109 120q0 58 43.5 94.5t121.5 36.5q100 0 194 -46l-51 -83q-83 34 -135 34q-51 0 -51 -27q0 -14 15.5 -21.5
t55.5 -17t67 -19.5z" />
    <glyph glyph-name="Scommaaccent.sc" horiz-adv-x="573" 
d="M393 337q31 -11 54 -23t49.5 -32t40.5 -48.5t14 -64.5q0 -78 -62.5 -128t-172.5 -50q-78 0 -158 24.5t-133 57.5l69 111q45 -24 109 -44t110 -20q30 0 51 9.5t21 29.5q0 18 -24.5 29.5t-81.5 26.5t-91 27q-66 24 -108 62t-42 104q0 76 60.5 125.5t168.5 49.5
q134 0 266 -63l-71 -113q-112 46 -189 46q-69 0 -69 -37q0 -19 23 -29.5t77.5 -23.5t88.5 -26zM236 -183v128h120l7 -142l-99 -107l-31 39l56 82h-53z" />
    <glyph glyph-name="exclamsuperior" horiz-adv-x="186" 
d="M38 385v105h112v-105h-112zM161 805l-34 -278h-67l-35 278h136z" />
    <glyph glyph-name="exclaminferior" horiz-adv-x="186" 
d="M38 -150v105h112v-105h-112zM161 270l-34 -278h-67l-35 278h136z" />
    <glyph glyph-name="Scircumflex.sc" horiz-adv-x="573" 
d="M393 337q31 -11 54 -23t49.5 -32t40.5 -48.5t14 -64.5q0 -78 -62.5 -128t-172.5 -50q-78 0 -158 24.5t-133 57.5l69 111q45 -24 109 -44t110 -20q30 0 51 9.5t21 29.5q0 18 -24.5 29.5t-81.5 26.5t-91 27q-66 24 -108 62t-42 104q0 76 60.5 125.5t168.5 49.5
q134 0 266 -63l-71 -113q-112 46 -189 46q-69 0 -69 -37q0 -19 23 -29.5t77.5 -23.5t88.5 -26zM365 754l108 -140h-112l-73 70l-73 -70h-112l108 140h154z" />
    <glyph glyph-name="Scedilla.sc" horiz-adv-x="573" 
d="M181 -164l32 79q24 -12 47 -12q46 0 46 35q0 26 -21 54q-72 5 -142.5 28.5t-117.5 52.5l69 111q45 -24 109 -44t110 -20q30 0 51 9.5t21 29.5q0 18 -24.5 29.5t-81.5 26.5t-91 27q-66 24 -108 62t-42 104q0 76 60.5 125.5t168.5 49.5q134 0 266 -63l-71 -113
q-112 46 -189 46q-69 0 -69 -37q0 -19 23 -29.5t77.5 -23.5t88.5 -26q31 -11 54 -23t49.5 -32t40.5 -48.5t14 -64.5q0 -70 -51 -118t-143 -57q32 -44 32 -86q0 -48 -33 -71.5t-84 -23.5q-53 0 -91 23z" />
    <glyph glyph-name="hinferior" horiz-adv-x="402" 
d="M146 287v-156q61 41 124 41q101 0 101 -102v-220h-112v194q0 42 -36 42q-41 0 -77 -32v-204h-112v437h112z" />
    <glyph glyph-name="Scaron.sc" horiz-adv-x="573" 
d="M393 337q31 -11 54 -23t49.5 -32t40.5 -48.5t14 -64.5q0 -78 -62.5 -128t-172.5 -50q-78 0 -158 24.5t-133 57.5l69 111q45 -24 109 -44t110 -20q30 0 51 9.5t21 29.5q0 18 -24.5 29.5t-81.5 26.5t-91 27q-66 24 -108 62t-42 104q0 76 60.5 125.5t168.5 49.5
q134 0 266 -63l-71 -113q-112 46 -189 46q-69 0 -69 -37q0 -19 23 -29.5t77.5 -23.5t88.5 -26zM472 754l-108 -140h-154l-108 140h112l73 -71l73 71h112z" />
    <glyph glyph-name="exclamdownsuperior" horiz-adv-x="186" 
d="M149 805v-105h-112v105h112zM26 385l34 278h67l35 -278h-136z" />
    <glyph glyph-name="Sacute.sc" horiz-adv-x="573" 
d="M393 337q31 -11 54 -23t49.5 -32t40.5 -48.5t14 -64.5q0 -78 -62.5 -128t-172.5 -50q-78 0 -158 24.5t-133 57.5l69 111q45 -24 109 -44t110 -20q30 0 51 9.5t21 29.5q0 18 -24.5 29.5t-81.5 26.5t-91 27q-66 24 -108 62t-42 104q0 76 60.5 125.5t168.5 49.5
q134 0 266 -63l-71 -113q-112 46 -189 46q-69 0 -69 -37q0 -19 23 -29.5t77.5 -23.5t88.5 -26zM313 614h-134l125 140h182z" />
    <glyph glyph-name="S.sc" horiz-adv-x="573" 
d="M393 337q31 -11 54 -23t49.5 -32t40.5 -48.5t14 -64.5q0 -78 -62.5 -128t-172.5 -50q-78 0 -158 24.5t-133 57.5l69 111q45 -24 109 -44t110 -20q30 0 51 9.5t21 29.5q0 18 -24.5 29.5t-81.5 26.5t-91 27q-66 24 -108 62t-42 104q0 76 60.5 125.5t168.5 49.5
q134 0 266 -63l-71 -113q-112 46 -189 46q-69 0 -69 -37q0 -19 23 -29.5t77.5 -23.5t88.5 -26z" />
    <glyph glyph-name="Rsuperior" horiz-adv-x="452" 
d="M308 385l-94 153h-58v-153h-115v420h208q183 0 183 -134q0 -102 -104 -126l105 -160h-125zM316 671q0 45 -74 45h-86v-89h85q75 0 75 44z" />
    <glyph glyph-name="Rinferior" horiz-adv-x="452" 
d="M308 -150l-94 153h-58v-153h-115v420h208q183 0 183 -134q0 -102 -104 -126l105 -160h-125zM316 136q0 45 -74 45h-86v-89h85q75 0 75 44z" />
    <glyph glyph-name="Rcommaaccent.sc" horiz-adv-x="635" 
d="M430 0l-130 209h-82v-209h-157v574h285q253 0 253 -183q0 -139 -144 -172l145 -219h-170zM440 391q0 35 -27 48.5t-77 13.5h-118v-123h118q50 0 77 13t27 48zM252 -183v128h120l7 -142l-99 -107l-31 39l56 82h-53z" />
    <glyph glyph-name="Rcaron.sc" horiz-adv-x="635" 
d="M430 0l-130 209h-82v-209h-157v574h285q253 0 253 -183q0 -139 -144 -172l145 -219h-170zM515 754l-108 -140h-154l-108 140h112l73 -71l73 71h112zM440 391q0 35 -27 48.5t-77 13.5h-118v-123h118q50 0 77 13t27 48z" />
    <glyph glyph-name="Racute.sc" horiz-adv-x="635" 
d="M430 0l-130 209h-82v-209h-157v574h285q253 0 253 -183q0 -139 -144 -172l145 -219h-170zM440 391q0 35 -27 48.5t-77 13.5h-118v-123h118q50 0 77 13t27 48zM354 614h-134l125 140h182z" />
    <glyph glyph-name="iinferior" horiz-adv-x="180" 
d="M146 -150h-112v315h112v-315zM32 199v87h117v-87h-117z" />
    <glyph glyph-name="R.sc" horiz-adv-x="635" 
d="M430 0l-130 209h-82v-209h-157v574h285q253 0 253 -183q0 -139 -144 -172l145 -219h-170zM440 391q0 35 -27 48.5t-77 13.5h-118v-123h118q50 0 77 13t27 48z" />
    <glyph glyph-name="Qsuperior" horiz-adv-x="489" 
d="M245 378q-113 0 -167.5 60t-54.5 157t54.5 157t167.5 60q112 0 166.5 -60t54.5 -157q0 -139 -101 -191l66 -49l-76 -78zM245 476q102 0 102 119t-102 119q-103 0 -103 -119t103 -119z" />
    <glyph glyph-name="exclamdowninferior" horiz-adv-x="186" 
d="M149 270v-105h-112v105h112zM26 -150l34 278h67l35 -278h-136z" />
    <glyph glyph-name="exclamdown.sc" horiz-adv-x="273" 
d="M213 574v-145h-153v145h153zM44 0l47 379h90l47 -379h-184z" />
    <glyph glyph-name="Qinferior" horiz-adv-x="489" 
d="M245 -157q-113 0 -167.5 60t-54.5 157t54.5 157t167.5 60q112 0 166.5 -60t54.5 -157q0 -139 -101 -191l66 -49l-76 -78zM245 -59q102 0 102 119t-102 119q-103 0 -103 -119t103 -119z" />
    <glyph glyph-name="Ucircumflex.sc" horiz-adv-x="640" 
d="M585 574v-328q0 -58 -11 -100.5t-39 -79.5t-82 -56t-133 -19t-133.5 19t-82.5 56t-39 79.5t-11 100.5v328h157v-343q0 -51 23.5 -79t85.5 -28t85 28t23 79v343h157zM397 754l108 -140h-112l-73 70l-73 -70h-112l108 140h154z" />
    <glyph glyph-name="Q.sc" horiz-adv-x="679" 
d="M339 -9q-155 0 -230 81.5t-75 214.5t75 214.5t230 81.5t230 -81.5t75 -214.5q0 -190 -141 -262l91 -67l-104 -106zM339 124q143 0 143 163q0 162 -143 162t-143 -162q0 -163 143 -163z" />
    <glyph glyph-name="Psuperior" horiz-adv-x="429" 
d="M419 664q0 -140 -183 -140h-79v-139h-116v420h195q183 0 183 -141zM302 664q0 46 -74 46h-71v-92h71q74 0 74 46z" />
    <glyph glyph-name="Pinferior" horiz-adv-x="429" 
d="M419 129q0 -140 -183 -140h-79v-139h-116v420h195q183 0 183 -141zM302 129q0 46 -74 46h-71v-92h71q74 0 74 46z" />
    <glyph glyph-name="jinferior" horiz-adv-x="184" 
d="M35 199v87h118v-87h-118zM150 165v-293q0 -34 -1 -49.5t-8.5 -37t-23 -32t-44 -22.5t-72.5 -21l-36 79q53 16 63.5 27.5t10.5 45.5v303h111z" />
    <glyph glyph-name="exclam.sc" horiz-adv-x="273" 
d="M59 0v145h153v-145h-153zM228 574l-47 -379h-90l-47 379h184z" />
    <glyph glyph-name="P.sc" horiz-adv-x="599" 
d="M580 381q0 -191 -252 -191h-110v-190h-157v574h267q252 0 252 -193zM421 381q0 36 -26.5 49.5t-76.5 13.5h-100v-126h100q49 0 76 13.5t27 49.5z" />
    <glyph glyph-name="Otilde.sc" horiz-adv-x="678" 
d="M339 583q155 0 230 -81.5t75 -214.5t-75 -214.5t-230 -81.5t-230 81.5t-75 214.5t75 214.5t230 81.5zM339 124q143 0 143 163q0 162 -143 162t-143 -162q0 -163 143 -163zM218 618l-72 35q15 29 22.5 42t22.5 33t32.5 28t39.5 8q31 0 80.5 -24t63.5 -24q25 0 52 46
l71 -35q-14 -28 -22 -41.5t-22.5 -33t-32.5 -28t-40 -8.5q-30 0 -79.5 24t-63.5 24q-26 0 -52 -46z" />
    <glyph glyph-name="Osuperior" horiz-adv-x="489" 
d="M245 812q112 0 166.5 -60t54.5 -157t-54.5 -157t-166.5 -60t-166.5 60t-54.5 157t54.5 157t166.5 60zM245 476q103 0 103 119t-103 119t-103 -119t103 -119z" />
    <glyph glyph-name="kinferior" horiz-adv-x="378" 
d="M363 164l-111 -124l130 -191h-120l-77 117l-39 -43v-74h-111v437h111v-234l88 112h129z" />
    <glyph glyph-name="ksuperior" horiz-adv-x="378" 
d="M363 700l-111 -124l130 -191h-120l-77 117l-39 -44v-73h-111v437h111v-234l88 112h129z" />
    <glyph glyph-name="Oslashacute.sc" horiz-adv-x="678" 
d="M339 583q96 0 166 -35l22 26h107l-63 -75q73 -79 73 -212t-75 -214.5t-230 -81.5q-99 0 -166 35l-21 -26h-106l62 74q-74 77 -74 213q0 133 75 214.5t230 81.5zM196 287q0 -53 16 -89l198 237q-30 14 -71 14q-143 0 -143 -162zM339 124q143 0 143 163q0 51 -15 88
l-199 -237q30 -14 71 -14zM364 614h-134l125 140h182z" />
    <glyph glyph-name="Udieresis.sc" horiz-adv-x="640" 
d="M585 574v-328q0 -58 -11 -100.5t-39 -79.5t-82 -56t-133 -19t-133.5 19t-82.5 56t-39 79.5t-11 100.5v328h157v-343q0 -51 23.5 -79t85.5 -28t85 28t23 79v343h157zM165 624v122h127v-122h-127zM350 624v122h127v-122h-127z" />
    <glyph glyph-name="Omacron.sc" horiz-adv-x="678" 
d="M339 583q155 0 230 -81.5t75 -214.5t-75 -214.5t-230 -81.5t-230 81.5t-75 214.5t75 214.5t230 81.5zM339 124q143 0 143 163q0 162 -143 162t-143 -162q0 -163 143 -163zM183 639v94h312v-94h-312z" />
    <glyph glyph-name="Oinferior" horiz-adv-x="489" 
d="M245 277q112 0 166.5 -60t54.5 -157t-54.5 -157t-166.5 -60t-166.5 60t-54.5 157t54.5 157t166.5 60zM245 -59q103 0 103 119t-103 119t-103 -119t103 -119z" />
    <glyph glyph-name="Ohungarumlaut.sc" horiz-adv-x="678" 
d="M339 583q155 0 230 -81.5t75 -214.5t-75 -214.5t-230 -81.5t-230 81.5t-75 214.5t75 214.5t230 81.5zM339 124q143 0 143 163q0 162 -143 162t-143 -162q0 -163 143 -163zM462 614h-96l81 140h145zM279 614h-98l82 140h145z" />
    <glyph glyph-name="Ograve.sc" horiz-adv-x="678" 
d="M339 583q155 0 230 -81.5t75 -214.5t-75 -214.5t-230 -81.5t-230 81.5t-75 214.5t75 214.5t230 81.5zM339 124q143 0 143 163q0 162 -143 162t-143 -162q0 -163 143 -163zM449 614h-134l-173 140h181z" />
    <glyph glyph-name="Ugrave.sc" horiz-adv-x="640" 
d="M585 574v-328q0 -58 -11 -100.5t-39 -79.5t-82 -56t-133 -19t-133.5 19t-82.5 56t-39 79.5t-11 100.5v328h157v-343q0 -51 23.5 -79t85.5 -28t85 28t23 79v343h157zM429 614h-134l-173 140h181z" />
    <glyph glyph-name="linferior" horiz-adv-x="180" 
d="M146 -150h-111v437h111v-437z" />
    <glyph glyph-name="Uhungarumlaut.sc" horiz-adv-x="640" 
d="M585 574v-328q0 -58 -11 -100.5t-39 -79.5t-82 -56t-133 -19t-133.5 19t-82.5 56t-39 79.5t-11 100.5v328h157v-343q0 -51 23.5 -79t85.5 -28t85 28t23 79v343h157zM443 614h-96l81 140h145zM260 614h-98l82 140h145z" />
    <glyph glyph-name="lira.onum" horiz-adv-x="524" 
d="M54 274v66h36q-28 47 -28 97q0 68 50 107t140 39q110 0 239 -77l-68 -99q-85 46 -139 46q-64 0 -64 -41q0 -23 33 -72h171v-66h-137q6 -20 7 -30h130v-66h-141q-15 -34 -44 -49h242v-129h-437v104q3 1 8 2.5t19 7.5t25.5 13.5t24.5 21t19 29.5h-86v66h88q-4 15 -12 30
h-76z" />
    <glyph glyph-name="lirainferior" horiz-adv-x="376" 
d="M36 51v46h29q-21 35 -21 73q0 50 36.5 78.5t100.5 28.5q80 0 174 -57l-50 -72q-63 34 -101 34q-44 0 -44 -31q0 -17 25 -54h122v-46h-99q3 -8 5 -24h94v-45h-101q-11 -26 -32 -37h174v-95h-318v76q6 1 15.5 4.5t29 18t26.5 33.5h-65v45h66q-2 8 -10 24h-56z" />
    <glyph glyph-name="lirasuperior" horiz-adv-x="376" 
d="M36 586v46h29q-21 35 -21 73q0 50 36.5 78.5t100.5 28.5q80 0 174 -57l-50 -72q-63 34 -101 34q-44 0 -44 -31q0 -17 25 -54h122v-46h-99q3 -8 5 -24h94v-45h-101q-11 -26 -32 -37h174v-95h-318v76q6 1 15.5 4.5t29 18t26.5 33.5h-65v45h66q-2 8 -10 24h-56z" />
    <glyph glyph-name="Odieresis.sc" horiz-adv-x="678" 
d="M339 583q155 0 230 -81.5t75 -214.5t-75 -214.5t-230 -81.5t-230 81.5t-75 214.5t75 214.5t230 81.5zM339 124q143 0 143 163q0 162 -143 162t-143 -162q0 -163 143 -163zM183 624v122h127v-122h-127zM368 624v122h127v-122h-127z" />
    <glyph glyph-name="Ocircumflex.sc" horiz-adv-x="678" 
d="M339 583q155 0 230 -81.5t75 -214.5t-75 -214.5t-230 -81.5t-230 81.5t-75 214.5t75 214.5t230 81.5zM339 124q143 0 143 163q0 162 -143 162t-143 -162q0 -163 143 -163zM416 754l108 -140h-112l-73 70l-73 -70h-112l108 140h154z" />
    <glyph glyph-name="Uinferior" horiz-adv-x="460" 
d="M424 270v-240q0 -88 -41.5 -137.5t-151.5 -49.5q-111 0 -152.5 49.5t-41.5 137.5v240h116v-251q0 -37 16.5 -57.5t61.5 -20.5q44 0 60.5 20.5t16.5 57.5v251h116z" />
    <glyph glyph-name="Obreve.sc" horiz-adv-x="678" 
d="M339 583q155 0 230 -81.5t75 -214.5t-75 -214.5t-230 -81.5t-230 81.5t-75 214.5t75 214.5t230 81.5zM339 124q143 0 143 163q0 162 -143 162t-143 -162q0 -163 143 -163zM338 614q-81 0 -125.5 34t-44.5 94h99q0 -41 71 -41q72 0 72 41h100q0 -60 -45.5 -94t-126.5 -34z
" />
    <glyph glyph-name="Umacron.sc" horiz-adv-x="640" 
d="M585 574v-328q0 -58 -11 -100.5t-39 -79.5t-82 -56t-133 -19t-133.5 19t-82.5 56t-39 79.5t-11 100.5v328h157v-343q0 -51 23.5 -79t85.5 -28t85 28t23 79v343h157zM164 639v94h312v-94h-312z" />
    <glyph glyph-name="Oacute.sc" horiz-adv-x="678" 
d="M339 583q155 0 230 -81.5t75 -214.5t-75 -214.5t-230 -81.5t-230 81.5t-75 214.5t75 214.5t230 81.5zM339 124q143 0 143 163q0 162 -143 162t-143 -162q0 -163 143 -163zM364 614h-134l125 140h182z" />
    <glyph glyph-name="OE.sc" horiz-adv-x="977" 
d="M937 0h-454v16q-63 -25 -144 -25q-155 0 -230 81.5t-75 214.5t75 214.5t230 81.5q81 0 144 -25v16h450v-130h-293v-92h239v-129h-239v-94h297v-129zM339 124q143 0 143 163q0 162 -143 162t-143 -162q0 -163 143 -163z" />
    <glyph glyph-name="minferior" horiz-adv-x="595" 
d="M146 165v-36q52 43 109 43q71 0 92 -51q19 19 51 35t66 16q100 0 100 -102v-220h-111v194q0 21 -6.5 31.5t-26.5 10.5q-33 0 -65 -32v-204h-112v194q0 21 -6.5 31.5t-25.5 10.5q-34 0 -65 -31v-205h-112v315h112z" />
    <glyph glyph-name="Uogonek.sc" horiz-adv-x="642" 
d="M323 -93q0 -10 4.5 -16.5t10 -10t15.5 -5t15.5 -2t16.5 0t12 0.5l-14 -72q-82 0 -117 17q-47 22 -47 72q0 56 81 100q-73 3 -123 23t-76 56t-36.5 78t-10.5 98v328h157v-343q0 -51 23.5 -79t85.5 -28t85 28t23 79v343h157v-328q0 -99 -36.5 -162t-132.5 -84
q-93 -51 -93 -93z" />
    <glyph glyph-name="einferior" horiz-adv-x="371" 
d="M348 -15h-215q7 -61 62 -61q46 0 121 36l39 -68q-87 -49 -172 -49q-73 0 -118.5 41t-45.5 122q0 78 45 122t127 44q79 0 120.5 -39t41.5 -102zM190 94q-47 0 -56 -53h111q-2 53 -55 53z" />
    <glyph glyph-name="O.sc" horiz-adv-x="678" 
d="M339 583q155 0 230 -81.5t75 -214.5t-75 -214.5t-230 -81.5t-230 81.5t-75 214.5t75 214.5t230 81.5zM339 124q143 0 143 163q0 162 -143 162t-143 -162q0 -163 143 -163z" />
    <glyph glyph-name="Ntilde.sc" horiz-adv-x="665" 
d="M443 0l-225 354v-354h-157v574h160l225 -354v354h157v-574h-160zM216 618l-72 35q15 29 22.5 42t22.5 33t32.5 28t39.5 8q31 0 80.5 -24t63.5 -24q25 0 52 46l71 -35q-14 -28 -22 -41.5t-22.5 -33t-32.5 -28t-40 -8.5q-30 0 -79.5 24t-63.5 24q-26 0 -52 -46z" />
    <glyph glyph-name="Nsuperior" horiz-adv-x="476" 
d="M318 385l-161 253v-253h-116v420h117l162 -254v254h117v-420h-119z" />
    <glyph glyph-name="Ninferior" horiz-adv-x="476" 
d="M318 -150l-161 253v-253h-116v420h117l162 -254v254h117v-420h-119z" />
    <glyph glyph-name="Ncommaaccent.sc" horiz-adv-x="665" 
d="M443 0l-225 354v-354h-157v574h160l225 -354v354h157v-574h-160zM272 -183v128h120l7 -142l-99 -107l-31 39l56 82h-53z" />
    <glyph glyph-name="Ncaron.sc" horiz-adv-x="665" 
d="M443 0l-225 354v-354h-157v574h160l225 -354v354h157v-574h-160zM521 754l-108 -140h-154l-108 140h112l73 -71l73 71h112z" />
    <glyph glyph-name="Nacute.sc" horiz-adv-x="665" 
d="M443 0l-225 354v-354h-157v574h160l225 -354v354h157v-574h-160zM357 614h-134l125 140h182z" />
    <glyph glyph-name="N.sc" horiz-adv-x="665" 
d="M443 0l-225 354v-354h-157v574h160l225 -354v354h157v-574h-160z" />
    <glyph glyph-name="nine.dnom" horiz-adv-x="426" 
d="M122 86q107 0 142 88q-40 -26 -96 -26q-63 0 -103 35.5t-40 94.5q0 63 48.5 106t129.5 43q94 0 142.5 -53t48.5 -132q0 -109 -75 -179t-197 -70q-18 0 -35.5 1.5t-25.5 3.5l-8 2l27 89q18 -3 42 -3zM205 232q47 0 73 28q-1 39 -22.5 56.5t-49.5 17.5q-33 0 -49.5 -15.5
t-16.5 -35.5q0 -22 17.5 -36.5t47.5 -14.5z" />
    <glyph glyph-name="eight.onum" horiz-adv-x="659" 
d="M32 190q0 123 152 192q-107 63 -107 156q0 78 66.5 125.5t185.5 47.5t186.5 -48t67.5 -125q0 -94 -108 -156q152 -69 152 -192q0 -94 -79 -147.5t-219 -53.5t-218.5 53.5t-78.5 147.5zM454 203q0 38 -32.5 64t-92.5 51q-59 -25 -91.5 -51t-32.5 -64t34.5 -62t89.5 -24
t90 24t35 62zM243 522q0 -50 86 -86q87 36 87 86q0 25 -23.5 45t-63.5 20q-39 0 -62.5 -20t-23.5 -45z" />
    <glyph glyph-name="nine.onum" horiz-adv-x="633" 
d="M176 -1q78 0 142.5 40.5t92.5 130.5q-67 -51 -159 -51q-100 0 -163.5 61t-63.5 158q0 103 76 174t202 71q75 0 134 -25t94 -68t53 -95.5t18 -111.5q0 -191 -119 -306.5t-305 -115.5q-28 0 -55 2.5t-40 5.5l-13 3l40 133q29 -6 66 -6zM306 246q79 0 123 57
q-1 69 -36 105.5t-86 36.5q-55 0 -83 -30t-28 -71q0 -42 29.5 -70t80.5 -28z" />
    <glyph glyph-name="eight.numr" horiz-adv-x="437" 
d="M27 395q0 73 93 115q-64 38 -64 92q0 47 42.5 76t120.5 29q77 0 120 -29t43 -76q0 -54 -65 -92q93 -42 93 -115q0 -56 -50.5 -89t-140.5 -33q-91 0 -141.5 33t-50.5 89zM292 405q0 32 -74 61q-36 -14 -55 -28t-19 -33q0 -20 21 -33t54 -13t53 13t20 33zM168 591
q0 -27 50 -46q51 20 51 46q0 12 -13.5 22.5t-36.5 10.5q-24 0 -37.5 -10.5t-13.5 -22.5z" />
    <glyph glyph-name="eight.dnom" horiz-adv-x="437" 
d="M27 115q0 73 93 115q-64 38 -64 92q0 47 42.5 76t120.5 29q77 0 120 -29t43 -76q0 -54 -65 -92q93 -42 93 -115q0 -56 -50.5 -89t-140.5 -33q-91 0 -141.5 33t-50.5 89zM292 125q0 32 -74 61q-36 -14 -55 -28t-19 -33q0 -20 21 -33t54 -13t53 13t20 33zM168 311
q0 -27 50 -46q51 20 51 46q0 12 -13.5 22.5t-36.5 10.5q-24 0 -37.5 -10.5t-13.5 -22.5z" />
    <glyph glyph-name="Uring.sc" horiz-adv-x="640" 
d="M585 574v-328q0 -58 -11 -100.5t-39 -79.5t-82 -56t-133 -19t-133.5 19t-82.5 56t-39 79.5t-11 100.5v328h157v-343q0 -51 23.5 -79t85.5 -28t85 28t23 79v343h157zM205 718q0 48 33.5 81.5t80.5 33.5q48 0 81.5 -33.5t33.5 -81.5q0 -47 -33.5 -80.5t-81.5 -33.5
q-47 0 -80.5 33.5t-33.5 80.5zM281 718q0 -16 11 -27t27 -11t27.5 11t11.5 27t-11 27.5t-28 11.5q-16 0 -27 -11.5t-11 -27.5z" />
    <glyph glyph-name="ninferior" horiz-adv-x="402" 
d="M146 165v-34q61 41 124 41q101 0 101 -102v-220h-112v194q0 42 -36 42q-41 0 -77 -32v-204h-112v315h112z" />
    <glyph glyph-name="Usuperior" horiz-adv-x="460" 
d="M424 805v-240q0 -88 -41.5 -137.5t-151.5 -49.5q-111 0 -152.5 49.5t-41.5 137.5v240h116v-251q0 -38 16.5 -58t61.5 -20q44 0 60.5 20.5t16.5 57.5v251h116z" />
    <glyph glyph-name="Utilde.sc" horiz-adv-x="640" 
d="M585 574v-328q0 -58 -11 -100.5t-39 -79.5t-82 -56t-133 -19t-133.5 19t-82.5 56t-39 79.5t-11 100.5v328h157v-343q0 -51 23.5 -79t85.5 -28t85 28t23 79v343h157zM199 618l-72 35q15 29 22.5 42t22.5 33t32.5 28t39.5 8q31 0 80.5 -24t63.5 -24q25 0 52 46l71 -35
q-14 -28 -22 -41.5t-22.5 -33t-32.5 -28t-40 -8.5q-30 0 -79.5 24t-63.5 24q-26 0 -52 -46z" />
    <glyph glyph-name="Msuperior" horiz-adv-x="546" 
d="M390 385v243l-85 -173h-62l-86 174v-244h-116v420h118l114 -229l115 229h118v-420h-116z" />
    <glyph glyph-name="Minferior" horiz-adv-x="546" 
d="M390 -150v243l-85 -173h-62l-86 174v-244h-116v420h118l114 -229l115 229h118v-420h-116z" />
    <glyph glyph-name="numbersign.onum" horiz-adv-x="648" 
d="M333 0l19 118h-110l-19 -118h-116l19 118h-92v112h110l18 113h-92v113h111l19 118h116l-19 -118h110l19 118h115l-19 -118h93v-113h-112l-18 -113h93v-112h-111l-19 -118h-115zM278 343l-18 -113h110l18 113h-110z" />
    <glyph glyph-name="numbersigninferior" horiz-adv-x="463" 
d="M237 -150l13 86h-78l-13 -86h-85l13 86h-66v82h79l14 83h-67v83h80l14 86h85l-14 -86h78l14 86h85l-14 -86h67v-83h-80l-14 -83h68v-82h-81l-14 -86h-84zM199 101l-14 -83h78l14 83h-78z" />
    <glyph glyph-name="numbersignsuperior" horiz-adv-x="463" 
d="M237 385l13 86h-78l-13 -86h-85l13 86h-66v82h79l14 83h-67v83h80l14 86h85l-14 -86h78l14 86h85l-14 -86h67v-83h-80l-14 -83h68v-82h-81l-14 -86h-84zM199 636l-14 -83h78l14 83h-78z" />
    <glyph glyph-name="M.sc" horiz-adv-x="761" 
d="M543 0v344l-124 -248h-77l-124 249v-345h-157v574h161l158 -315l159 315h161v-574h-157z" />
    <glyph glyph-name="Lsuperior" horiz-adv-x="368" 
d="M361 385h-320v420h116v-324h204v-96z" />
    <glyph glyph-name="Lslash.sc" horiz-adv-x="528" 
d="M515 0h-440v177l-59 -31v135l59 32v261h157v-176l114 62v-137l-114 -61v-130h283v-132z" />
    <glyph glyph-name="Linferior" horiz-adv-x="368" 
d="M361 -150h-320v420h116v-324h204v-96z" />
    <glyph glyph-name="Ldot.sc" horiz-adv-x="517" 
d="M501 0h-440v574h157v-442h283v-132zM336 247v122h127v-122h-127z" />
    <glyph glyph-name="Lcommaaccent.sc" horiz-adv-x="514" 
d="M501 0h-440v574h157v-442h283v-132zM215 -183v128h120l7 -142l-99 -107l-31 39l56 82h-53z" />
    <glyph glyph-name="V.sc" horiz-adv-x="643" 
d="M191 574l130 -405l130 405h183l-226 -574h-174l-226 574h183z" />
    <glyph glyph-name="Lcaron.sc" horiz-adv-x="515" 
d="M501 0h-440v574h157v-442h283v-132zM253 446v128h120l7 -142l-99 -107l-31 39l56 82h-53z" />
    <glyph glyph-name="Lacute.sc" horiz-adv-x="516" 
d="M503 0h-440v574h157v-442h283v-132zM167 614h-134l125 140h182z" />
    <glyph glyph-name="oinferior" horiz-adv-x="396" 
d="M377 7q0 -78 -46.5 -121t-132.5 -43t-132.5 43.5t-46.5 121.5t46 121t133 43q86 0 132.5 -43.5t46.5 -121.5zM265 7q0 80 -67 80t-67 -79q0 -80 67 -80t67 79z" />
    <glyph glyph-name="L.sc" horiz-adv-x="514" 
d="M501 0h-440v574h157v-442h283v-132z" />
    <glyph glyph-name="Ksuperior" horiz-adv-x="453" 
d="M42 385v420h115v-179l152 179h140l-179 -195l185 -225h-137l-118 148l-43 -47v-101h-115z" />
    <glyph glyph-name="one.dnom" horiz-adv-x="297" 
d="M243 0h-116v315l-76 -38l-46 74l127 69h111v-420z" />
    <glyph glyph-name="one.numr" horiz-adv-x="297" 
d="M243 280h-116v315l-76 -38l-46 74l127 69h111v-420z" />
    <glyph glyph-name="one.onum" horiz-adv-x="427" 
d="M363 0h-171v416l-121 -63l-66 111l196 110h162v-574z" />
    <glyph glyph-name="Vinferior" horiz-adv-x="456" 
d="M136 270l92 -292l93 292h135l-163 -420h-129l-163 420h135z" />
    <glyph glyph-name="Vsuperior" horiz-adv-x="456" 
d="M136 805l92 -292l93 292h135l-163 -420h-129l-163 420h135z" />
    <glyph glyph-name="oneeighth.onum" horiz-adv-x="791" 
d="M430 94q0 60 82 94q-58 33 -58 77q0 38 37 61.5t102 23.5t101.5 -24t36.5 -61q0 -47 -57 -77q82 -34 82 -94q0 -46 -43.5 -73t-119.5 -27q-77 0 -120 27t-43 73zM543 574l-286 -574h-100l287 574h99zM216 230h-93v261l-65 -31l-37 59l107 55h88v-344zM663 102
q0 28 -70 53q-69 -24 -69 -53q0 -17 19.5 -28t49.5 -11q31 0 50.5 11t19.5 28zM545 253q0 -21 47 -37q49 14 49 37q0 12 -13 21.5t-35 9.5t-35 -10t-13 -21z" />
    <glyph glyph-name="onefifth" horiz-adv-x="923" 
d="M259 280h-116v315l-76 -38l-46 74l127 69h111v-420zM636 700l-328 -700h-124l328 700h124zM542 206l24 214h295v-95h-198l-3 -52q32 7 58 7q78 0 120 -40.5t42 -100.5q0 -62 -45 -104t-130 -42q-89 0 -184 57l51 83q59 -42 117 -42q32 0 52 12.5t20 34.5q0 21 -18 35.5
t-53 14.5q-41 0 -83 -22z" />
    <glyph glyph-name="onefifth.onum" horiz-adv-x="790" 
d="M465 170l20 174h249v-74h-173l-4 -49q24 7 54 7q66 0 102.5 -33t36.5 -81q0 -51 -38.5 -85.5t-110.5 -34.5q-74 0 -155 47l40 65q51 -34 101 -34q30 0 49.5 10.5t19.5 30.5q0 18 -17 30.5t-50 12.5q-37 0 -75 -18zM543 574l-286 -574h-100l287 574h99zM216 230h-93v261
l-65 -31l-37 59l107 55h88v-344z" />
    <glyph glyph-name="Kinferior" horiz-adv-x="453" 
d="M42 -150v420h115v-179l152 179h140l-179 -195l185 -225h-137l-118 149l-43 -47v-102h-115z" />
    <glyph glyph-name="onehalf.onum" horiz-adv-x="785" 
d="M216 230h-93v261l-65 -31l-37 59l107 55h88v-344zM543 574l-286 -574h-100l287 574h99zM743 75v-75h-298v37q0 47 32.5 80.5t86.5 63.5q8 4 19.5 10.5t18.5 10t15.5 9t13.5 9t9.5 8.5t6.5 9.5t2 9.5q0 12 -13.5 20t-37.5 8q-42 0 -103 -32l-41 57q81 50 158 50
q63 0 97 -28t34 -71q0 -20 -8.5 -37.5t-18.5 -29t-30.5 -25t-32 -19.5t-34.5 -17q-63 -30 -63 -48h187z" />
    <glyph glyph-name="W.sc" horiz-adv-x="875" 
d="M536 0l-99 366l-97 -366h-154l-170 574h180l83 -372l97 372h123l97 -371l84 371h179l-169 -574h-154z" />
    <glyph glyph-name="Kcommaaccent.sc" horiz-adv-x="632" 
d="M61 0v574h157v-247l211 247h191l-246 -266l255 -308h-186l-165 204l-60 -66v-138h-157zM249 -183v128h120l7 -142l-99 -107l-31 39l56 82h-53z" />
    <glyph glyph-name="onequarter.onum" horiz-adv-x="777" 
d="M593 0v61h-201v62l171 221h123v-208h58v-75h-58v-61h-93zM543 574l-286 -574h-100l287 574h99zM216 230h-93v261l-65 -31l-37 59l107 55h88v-344zM490 136h103v138z" />
    <glyph glyph-name="onesixth" horiz-adv-x="893" 
d="M259 280h-116v315l-76 -38l-46 74l127 69h111v-420zM636 700l-328 -700h-124l328 700h124zM757 334q-109 0 -144 -89q43 27 98 27q63 0 103 -36t40 -95q0 -62 -48.5 -105t-129.5 -43q-94 0 -143 53t-49 132q0 108 75.5 178.5t196.5 70.5q19 0 36.5 -1.5t25.5 -3.5l8 -2
l-26 -89q-19 3 -43 3zM673 187q-45 0 -73 -28q1 -39 22.5 -56t50.5 -17q33 0 49.5 15.5t16.5 35.5q0 22 -18 36t-48 14z" />
    <glyph glyph-name="onesixth.onum" horiz-adv-x="766" 
d="M645 277q-98 0 -128 -77q36 23 87 23q55 0 89.5 -29.5t34.5 -77.5q0 -51 -41 -86.5t-110 -35.5q-80 0 -121.5 43.5t-41.5 108.5q0 89 64 146.5t166 57.5q16 0 31 -1.5t22 -2.5l7 -2l-21 -70q-16 3 -38 3zM543 574l-286 -574h-100l287 574h99zM216 230h-93v261l-65 -31
l-37 59l107 55h88v-344zM575 156q-44 0 -68 -26q1 -32 20.5 -47t46.5 -15q31 0 47 13t16 31q0 19 -16.5 31.5t-45.5 12.5z" />
    <glyph glyph-name="K.sc" horiz-adv-x="632" 
d="M61 0v574h157v-247l211 247h191l-246 -266l255 -308h-186l-165 204l-60 -66v-138h-157z" />
    <glyph glyph-name="Wacute.sc" horiz-adv-x="875" 
d="M536 0l-99 366l-97 -366h-154l-170 574h180l83 -372l97 372h123l97 -371l84 371h179l-169 -574h-154zM463 614h-134l125 140h182z" />
    <glyph glyph-name="onethird.onum" horiz-adv-x="784" 
d="M216 230h-93v261l-65 -31l-37 59l107 55h88v-344zM543 574l-286 -574h-100l287 574h99zM436 41l40 61q60 -32 115 -32q62 0 62 34q0 39 -105 39h-16v75h20q85 0 85 33q0 24 -46 24q-44 0 -100 -29l-38 56q68 48 154 48q61 0 92 -24t31 -61q0 -51 -63 -75
q35 -10 57.5 -33.5t22.5 -54.5q0 -45 -35 -76.5t-109 -31.5q-84 0 -167 47z" />
    <glyph glyph-name="Jsuperior" horiz-adv-x="203" 
d="M163 805v-375q0 -34 -1 -49t-8.5 -36.5t-23.5 -32.5t-45 -22.5t-74 -21.5l-38 84q52 16 63 28.5t11 43.5v381h116z" />
    <glyph glyph-name="Jinferior" horiz-adv-x="203" 
d="M163 270v-375q0 -34 -1 -49t-8.5 -36.5t-23.5 -32.5t-45 -22.5t-74 -21.5l-38 84q52 16 63 28.5t11 43.5v381h116z" />
    <glyph glyph-name="Jcircumflex.sc" horiz-adv-x="292" 
d="M225 574v-513q0 -34 -0.5 -49.5t-4 -40t-11.5 -36t-22.5 -28t-37 -26t-55.5 -20.5t-77 -20l-51 114q72 23 87 39t15 59v521h157zM222 754l108 -140h-112l-73 70l-73 -70h-112l108 140h154z" />
    <glyph glyph-name="J.sc" horiz-adv-x="287" 
d="M226 574v-513q0 -34 -0.5 -49.5t-4 -40t-11.5 -36t-22.5 -28t-37 -26t-55.5 -20.5t-77 -20l-51 114q72 23 87 39t15 59v521h157z" />
    <glyph glyph-name="dollar.onum" horiz-adv-x="591" 
d="M356 -82h-108v79q-122 18 -214 76l69 111q45 -24 109 -44t110 -20q30 0 51 9.5t21 29.5q0 18 -24.5 29.5t-81.5 26.5t-91 27q-66 24 -108 62t-42 104q0 71 53 119t148 55v75h108v-80q101 -16 186 -57l-71 -113q-112 46 -189 46q-69 0 -69 -37q0 -19 23 -29.5t77.5 -23.5
t88.5 -26q31 -11 54 -23t49.5 -32t40.5 -48.5t14 -64.5q0 -72 -54 -120.5t-150 -55.5v-75z" />
    <glyph glyph-name="Itilde.sc" horiz-adv-x="292" 
d="M224 0h-157v574h157v-574zM24 618l-72 35q15 29 22.5 42t22.5 33t32.5 28t39.5 8q31 0 80.5 -24t63.5 -24q25 0 52 46l71 -35q-14 -28 -22 -41.5t-22.5 -33t-32.5 -28t-40 -8.5q-30 0 -79.5 24t-63.5 24q-26 0 -52 -46z" />
    <glyph glyph-name="Isuperior" horiz-adv-x="197" 
d="M157 385h-116v420h116v-420z" />
    <glyph glyph-name="Iogonek.sc" horiz-adv-x="287" 
d="M130 -93q0 -10 4.5 -16.5t10 -10t15.5 -5t15.5 -2t16.5 0t12 0.5l-14 -72q-82 0 -117 17q-47 22 -47 72q0 61 98 109h-56v574h157v-574h-2q-93 -54 -93 -93z" />
    <glyph glyph-name="paragraph.sc" horiz-adv-x="656" 
d="M274 574h125v-726h-127v308q-108 0 -178 51.5t-70 158.5t67.5 157.5t182.5 50.5zM461 -153v727h127v-727h-127z" />
    <glyph glyph-name="Imacron.sc" horiz-adv-x="292" 
d="M224 0h-157v574h157v-574zM-11 639v94h312v-94h-312z" />
    <glyph glyph-name="parenleft.sc" horiz-adv-x="329" 
d="M53 102v366q0 26 0.5 38.5t2 33t5.5 30.5t10.5 25t17.5 23.5t26 19.5t36 18.5t48 16t61 15.5l38 -82q-60 -20 -74 -37.5t-14 -60.5v-446q0 -43 14 -60.5t74 -36.5l-38 -82q-34 7 -61 15t-48 15.5t-36 18.5t-26 19.5t-17.5 23.5t-10.5 25t-5.5 30.5t-2 33t-0.5 38.5z" />
    <glyph glyph-name="Wcircumflex.sc" horiz-adv-x="875" 
d="M536 0l-99 366l-97 -366h-154l-170 574h180l83 -372l97 372h123l97 -371l84 371h179l-169 -574h-154zM516 754l108 -140h-112l-73 70l-73 -70h-112l108 140h154z" />
    <glyph glyph-name="dinferior" horiz-adv-x="402" 
d="M369 -150h-112v30q-49 -37 -107 -37q-60 0 -95 43t-35 121q0 79 35 122t95 43q56 0 107 -38v153h112v-437zM186 -69q39 0 71 33v86q-32 33 -71 33q-53 0 -53 -75q0 -77 53 -77z" />
    <glyph glyph-name="Iinferior" horiz-adv-x="197" 
d="M157 -150h-116v420h116v-420z" />
    <glyph glyph-name="parenright.sc" horiz-adv-x="329" 
d="M276 469v-366q0 -26 -0.5 -38.5t-2 -33t-5.5 -30.5t-10.5 -25t-17.5 -23.5t-26 -19.5t-36 -18.5t-48 -16t-61 -15.5l-38 82q60 20 74 37.5t14 60.5v446q0 43 -14 60.5t-74 36.5l38 82q34 -7 61 -15t48 -15.5t36 -18.5t26 -19.5t17.5 -23.5t10.5 -25t5.5 -30.5t2 -33
t0.5 -38.5z" />
    <glyph glyph-name="Wdieresis.sc" horiz-adv-x="875" 
d="M536 0l-99 366l-97 -366h-154l-170 574h180l83 -372l97 372h123l97 -371l84 371h179l-169 -574h-154zM283 624v122h127v-122h-127zM468 624v122h127v-122h-127z" />
    <glyph glyph-name="Wgrave.sc" horiz-adv-x="875" 
d="M536 0l-99 366l-97 -366h-154l-170 574h180l83 -372l97 372h123l97 -371l84 371h179l-169 -574h-154zM547 615h-134l-173 140h181z" />
    <glyph glyph-name="Winferior" horiz-adv-x="627" 
d="M383 -150l-69 259l-70 -259h-113l-124 420h133l58 -264l70 264h92l69 -265l59 265h132l-123 -420h-114z" />
    <glyph glyph-name="Igrave.sc" horiz-adv-x="289" 
d="M225 0h-157v574h157v-574zM255 614h-134l-173 140h181z" />
    <glyph glyph-name="percent.onum" horiz-adv-x="893" 
d="M863 144q0 -71 -45.5 -112t-127.5 -41q-83 0 -128.5 41t-45.5 112t45.5 112.5t128.5 41.5q82 0 127.5 -41.5t45.5 -112.5zM753 144q0 31 -16.5 48t-46.5 17q-64 0 -64 -65q0 -64 64 -64q30 0 46.5 16.5t16.5 47.5zM660 574l-314 -574h-115l313 574h116zM376 429
q0 -71 -46 -112t-128 -41q-83 0 -128.5 41t-45.5 112t45.5 112.5t128.5 41.5q82 0 128 -41.5t46 -112.5zM266 429q0 31 -17 48t-47 17t-47 -17t-17 -48q0 -64 64 -64t64 64z" />
    <glyph glyph-name="percentinferior" horiz-adv-x="644" 
d="M272 164q0 -53 -32.5 -82.5t-94.5 -29.5t-94 29.5t-32 82.5q0 54 32 83.5t94 29.5q61 0 94 -30t33 -83zM191 164q0 47 -46 47q-44 0 -44 -47t44 -47q46 0 46 47zM478 270l-231 -427h-85l230 427h86zM625 -44q0 -54 -32 -83.5t-94 -29.5t-94 29.5t-32 83.5q0 53 32.5 82.5
t93.5 29.5t93.5 -29.5t32.5 -82.5zM544 -44q0 46 -45 46t-45 -46q0 -47 45 -47t45 47z" />
    <glyph glyph-name="f_f_j.ss01" horiz-adv-x="1003" 
d="M19 405v120h72v2q0 192 178 192q105 0 229 -42q46 52 144 52q118 0 250 -44l-54 -117q-112 20 -156 20q-62 0 -62 -48v-15h334v-500v-41t-1.5 -35t-4.5 -32.5t-8.5 -27.5t-14 -26t-20.5 -22t-28.5 -20.5l-38.5 -17.5t-49.5 -17.5t-61.5 -15.5l-54 119q45 15 67.5 24.5
t34.5 25.5t13.5 28.5t1.5 44.5v393h-170v-405h-164v405h-202v-405h-163v405h-72zM456 558q-120 20 -146 20q-56 0 -56 -48v-5h202v33z" />
    <glyph glyph-name="Idieresis.sc" horiz-adv-x="291" 
d="M224 0h-157v574h157v-574zM-11 624v122h127v-122h-127zM174 624v122h127v-122h-127z" />
    <glyph glyph-name="Icircumflex.sc" horiz-adv-x="292" 
d="M224 0h-157v574h157v-574zM222 754l108 -140h-112l-73 70l-73 -70h-112l108 140h154z" />
    <glyph glyph-name="Wsuperior" horiz-adv-x="627" 
d="M383 385l-69 259l-70 -259h-113l-124 420h133l58 -264l70 264h92l69 -265l59 265h132l-123 -420h-114z" />
    <glyph glyph-name="csuperior" horiz-adv-x="332" 
d="M326 667l-44 -81q-57 26 -89 26q-29 0 -44.5 -18.5t-15.5 -50.5t15.5 -51t44.5 -19q32 0 89 26l44 -82q-89 -39 -152 -39q-66 0 -110.5 41.5t-44.5 123.5q0 81 44.5 122.5t109.5 41.5q68 0 153 -40z" />
    <glyph glyph-name="copyright.sc" horiz-adv-x="692" 
d="M467 414l-26 -29q-60 44 -112 44q-47 0 -75.5 -39.5t-28.5 -103.5t28.5 -102.5t75.5 -38.5q54 0 112 43l26 -29q-75 -51 -139 -51q-62 0 -104 47t-42 131q0 85 42 132t104 47q64 0 139 -51zM35 287q0 129 79.5 212.5t219.5 83.5q139 0 217.5 -83.5t78.5 -212.5
t-78.5 -212.5t-217.5 -83.5q-140 0 -219.5 83.5t-79.5 212.5zM69 287q0 -116 70 -190.5t194 -74.5t194.5 74.5t70.5 190.5t-70.5 190.5t-194.5 74.5t-194 -74.5t-70 -190.5z" />
    <glyph glyph-name="perthousand.onum" horiz-adv-x="1280" 
d="M376 429q0 -71 -46 -112t-128 -41q-83 0 -128.5 41t-45.5 112t45.5 112.5t128.5 41.5q82 0 128 -41.5t46 -112.5zM266 429q0 31 -17 48t-47 17t-47 -17t-17 -48q0 -64 64 -64t64 64zM863 144q0 -71 -45.5 -112t-127.5 -41q-83 0 -128.5 41t-45.5 112t45.5 112.5
t128.5 41.5q82 0 127.5 -41.5t45.5 -112.5zM753 144q0 31 -16.5 48t-46.5 17q-64 0 -64 -65q0 -64 64 -64q30 0 46.5 16.5t16.5 47.5zM1252 144q0 -71 -45.5 -112t-128.5 -41t-128.5 41t-45.5 112t45.5 112.5t128.5 41.5t128.5 -41.5t45.5 -112.5zM1142 144q0 31 -17 48
t-47 17t-47 -17t-17 -48q0 -64 64 -64t64 64zM660 574l-314 -574h-115l313 574h116z" />
    <glyph glyph-name="X.sc" horiz-adv-x="604" 
d="M14 574h181l106 -195l106 195h182l-191 -284l202 -290h-188l-111 189l-111 -189h-187l201 291z" />
    <glyph glyph-name="peseta.onum" horiz-adv-x="642" 
d="M49 361v41h24v172h267q237 0 251 -172h24v-41h-24q-12 -171 -251 -171h-110v-190h-157v361h-24zM330 318q86 0 100 43h-200v-43h100zM230 444v-42h200q-14 42 -100 42h-100z" />
    <glyph glyph-name="pesetainferior" horiz-adv-x="462" 
d="M34 112v33h17v125h195q173 0 182 -125h18v-33h-18q-11 -123 -182 -123h-79v-139h-116v262h-17zM167 175v-30h142q-10 30 -71 30h-71zM238 83q61 0 71 29h-142v-29h71z" />
    <glyph glyph-name="pesetasuperior" horiz-adv-x="462" 
d="M34 647v33h17v125h195q173 0 182 -125h18v-33h-18q-11 -123 -182 -123h-79v-139h-116v262h-17zM167 710v-30h142q-10 30 -71 30h-71zM238 618q61 0 71 29h-142v-29h71z" />
    <glyph glyph-name="Xinferior" horiz-adv-x="434" 
d="M9 270h134l74 -141l76 141h134l-138 -207l146 -213h-139l-79 136l-79 -136h-137l145 212z" />
    <glyph glyph-name="pinferior" horiz-adv-x="402" 
d="M146 165v-31q52 38 107 38q60 0 95 -43t35 -122q0 -78 -35 -121t-95 -43q-56 0 -107 37v-152h-112v437h112zM217 83q-41 0 -71 -33v-86q30 -33 71 -33q53 0 53 77q0 75 -53 75z" />
    <glyph glyph-name="Ibreve.sc" horiz-adv-x="293" 
d="M224 0h-157v574h157v-574zM144 614q-81 0 -125.5 34t-44.5 94h99q0 -41 71 -41q72 0 72 41h100q0 -60 -45.5 -94t-126.5 -34z" />
    <glyph glyph-name="plusinferior" horiz-adv-x="400" 
d="M158 195h84v-104h122v-82h-122v-104h-84v104h-122v82h122v104z" />
    <glyph glyph-name="Iacute.sc" horiz-adv-x="289" 
d="M221 0h-157v574h157v-574zM167 614h-134l125 140h182z" />
    <glyph glyph-name="colonsuperior" horiz-adv-x="183" 
d="M36 385v116h112v-116h-112zM36 563v116h112v-116h-112z" />
    <glyph glyph-name="colonmonetarysuperior" horiz-adv-x="359" 
d="M146 385h-45l14 58q-89 37 -89 152q0 82 44 123t110 41h11l11 46h46l-13 -52l16 -3l14 55h46l-17 -68q9 -3 45 -18l-44 -81l-23 10l-28 -116q28 9 51 20l44 -83q-64 -27 -119 -35l-12 -49h-46l11 46q-2 0 -7.5 0.5t-8.5 0.5zM180 527q10 -2 16 -2l34 136l-16 3zM140 595
q0 -18 4 -30l22 91q-26 -18 -26 -61z" />
    <glyph glyph-name="psuperior" horiz-adv-x="402" 
d="M146 700v-31q52 38 107 38q60 0 95 -43t35 -122q0 -78 -35 -121t-95 -43q-56 0 -107 37v-152h-112v437h112zM217 618q-41 0 -71 -33v-86q30 -33 71 -33q53 0 53 77q0 75 -53 75z" />
    <glyph glyph-name="IJ.sc" horiz-adv-x="572" 
d="M218 0h-157v574h157v-574zM501 574v-513q0 -34 -0.5 -49.5t-4 -40t-11.5 -36t-22.5 -28t-37 -26t-55.5 -20.5t-77 -20l-51 114q72 23 87 39t15 59v521h157z" />
    <glyph glyph-name="qinferior" horiz-adv-x="402" 
d="M257 -272v152q-49 -37 -107 -37q-60 0 -95 43t-35 121q0 79 35 122t95 43q56 0 107 -38v31h112v-437h-112zM186 -69q39 0 71 33v86q-32 33 -71 33q-53 0 -53 -75q0 -77 53 -77z" />
    <glyph glyph-name="qsuperior" horiz-adv-x="402" 
d="M257 263v152q-49 -37 -107 -37q-60 0 -95 43t-35 121q0 79 35 122t95 43q56 0 107 -38v31h112v-437h-112zM186 466q39 0 71 33v86q-32 33 -71 33q-53 0 -53 -75q0 -77 53 -77z" />
    <glyph glyph-name="I.sc" horiz-adv-x="280" 
d="M218 0h-157v574h157v-574z" />
    <glyph glyph-name="question.sc" horiz-adv-x="484" 
d="M118 0v145h152v-145h-152zM454 427q0 -40 -17 -71t-48.5 -51.5t-64 -33.5t-76.5 -24l-7 -52h-94l-8 132q89 16 122.5 31t33.5 44q0 20 -19.5 35.5t-56.5 15.5q-59 0 -133 -42l-64 105q116 67 224 67q92 0 150 -43t58 -113z" />
    <glyph glyph-name="Hsuperior" horiz-adv-x="466" 
d="M310 385v173h-153v-173h-116v420h116v-152h153v152h116v-420h-116z" />
    <glyph glyph-name="questiondown.sc" horiz-adv-x="485" 
d="M366 574v-145h-152v145h152zM30 147q0 40 17 71t48.5 51.5t64 33.5t76.5 24l7 52h94l8 -132q-89 -16 -122.5 -31t-33.5 -44q0 -20 19.5 -35.5t56.5 -15.5q59 0 133 42l64 -105q-116 -67 -224 -67q-92 0 -150 43t-58 113z" />
    <glyph glyph-name="questiondowninferior" horiz-adv-x="349" 
d="M266 270v-105h-114v105h114zM20 -43q0 56 41 86t109 46l5 39h68l6 -97q-63 -12 -87.5 -23t-24.5 -32q0 -15 14 -26.5t40 -11.5q43 0 96 32l47 -78q-88 -49 -162 -49q-67 0 -109.5 31.5t-42.5 82.5z" />
    <glyph glyph-name="questiondownsuperior" horiz-adv-x="349" 
d="M266 805v-105h-114v105h114zM20 492q0 56 41 86t109 46l5 39h68l6 -97q-63 -12 -87.5 -23t-24.5 -32q0 -15 14 -26.5t40 -11.5q43 0 96 32l47 -78q-88 -49 -162 -49q-67 0 -109.5 31.5t-42.5 82.5z" />
    <glyph glyph-name="questioninferior" horiz-adv-x="349" 
d="M84 -150v105h114v-105h-114zM330 163q0 -56 -41 -86t-109 -46l-5 -39h-68l-6 97q63 12 87.5 23t24.5 32q0 15 -14 26.5t-40 11.5q-43 0 -96 -32l-47 78q88 49 162 49q67 0 109.5 -31.5t42.5 -82.5z" />
    <glyph glyph-name="questionsuperior" horiz-adv-x="349" 
d="M84 385v105h114v-105h-114zM330 698q0 -56 -41 -86t-109 -46l-5 -39h-68l-6 97q63 12 87.5 23t24.5 32q0 15 -14 26.5t-40 11.5q-43 0 -96 -32l-47 78q88 49 162 49q67 0 109.5 -31.5t42.5 -82.5z" />
    <glyph glyph-name="Hinferior" horiz-adv-x="466" 
d="M310 -150v173h-153v-173h-116v420h116v-152h153v152h116v-420h-116z" />
    <glyph glyph-name="colonmonetaryinferior" horiz-adv-x="359" 
d="M146 -150h-45l14 58q-89 37 -89 152q0 82 44 123t110 41h11l11 46h46l-13 -52l16 -3l14 55h46l-17 -68q9 -3 45 -18l-44 -81l-23 10l-28 -116q28 9 51 20l44 -83q-64 -27 -119 -35l-12 -49h-46l11 46q-2 0 -7.5 0.5t-8.5 0.5zM180 -8q10 -2 16 -2l34 136l-16 3zM140 60
q0 -18 4 -30l22 91q-26 -18 -26 -61z" />
    <glyph glyph-name="colonmonetary.onum" horiz-adv-x="503" 
d="M206 0h-63l19 79q-57 22 -90.5 74.5t-33.5 134.5q0 111 61 167.5t152 56.5h13l15 62h62l-17 -70l22 -4l18 74h62l-22 -91q27 -9 65 -25l-59 -111q-25 10 -34 13l-38 -159q32 10 72 27l59 -111q-86 -38 -162 -50l-16 -67h-63l15 63q-15 0 -22 1zM251 194q11 -3 22 -3
l45 188l-22 3zM192 288q0 -26 8 -47l31 132q-39 -24 -39 -85z" />
    <glyph glyph-name="coloninferior" horiz-adv-x="183" 
d="M36 -150v116h112v-116h-112zM36 28v116h112v-116h-112z" />
    <glyph glyph-name="Xsuperior" horiz-adv-x="434" 
d="M9 805h134l74 -141l76 141h134l-138 -207l146 -213h-139l-79 136l-79 -136h-137l145 212z" />
    <glyph glyph-name="cinferior" horiz-adv-x="333" 
d="M326 132l-44 -81q-57 26 -89 26q-29 0 -44.5 -18.5t-15.5 -50.5t15.5 -51t44.5 -19q32 0 89 26l44 -82q-89 -39 -152 -39q-66 0 -110.5 41.5t-44.5 123.5q0 81 44.5 122.5t109.5 41.5q68 0 153 -40z" />
    <glyph glyph-name="cent.onum" horiz-adv-x="503" 
d="M340 0h-108v63q-85 7 -139.5 63t-54.5 162q0 105 55 161t139 62v63h108v-73q58 -12 129 -43l-59 -111q-91 37 -134 37q-40 0 -62 -26t-22 -70t22 -70.5t62 -26.5q48 0 134 37l59 -111q-70 -30 -129 -44v-73z" />
    <glyph glyph-name="Hbar.sc" horiz-adv-x="678" 
d="M9 420v85h66v69h157v-69h214v69h157v-69h65v-85h-65v-420h-157v237h-214v-237h-157v420h-66zM232 366h214v54h-214v-54z" />
    <glyph glyph-name="H.sc" horiz-adv-x="651" 
d="M432 0v237h-214v-237h-157v574h157v-208h214v208h157v-574h-157z" />
    <glyph glyph-name="Gsuperior" horiz-adv-x="453" 
d="M315 385v37q-54 -44 -115 -44q-75 0 -126 56t-51 160q0 107 52 162.5t138 55.5q88 0 206 -61l-53 -85q-86 42 -138 42q-41 0 -63 -30.5t-22 -82.5q0 -54 20.5 -86.5t63.5 -32.5t88 40v28h-95v89h204v-248h-109z" />
    <glyph glyph-name="Y.sc" horiz-adv-x="600" 
d="M222 0v225l-219 349h177l120 -220l120 220h176l-218 -347v-227h-156z" />
    <glyph glyph-name="Ginferior" horiz-adv-x="453" 
d="M315 -150v37q-54 -44 -115 -44q-75 0 -126 56t-51 160q0 107 52 162.5t138 55.5q88 0 206 -61l-53 -85q-86 42 -138 42q-41 0 -63 -30.5t-22 -82.5q0 -54 20.5 -86.5t63.5 -32.5t88 40v28h-95v89h204v-248h-109z" />
    <glyph glyph-name="Gdotaccent.sc" 
d="M439 0v53q-75 -62 -160 -62q-105 0 -174.5 76.5t-69.5 218.5q0 146 71 221.5t190 75.5q121 0 283 -83l-72 -115q-116 57 -190 57q-58 0 -89.5 -42t-31.5 -113q0 -74 29.5 -118.5t89.5 -44.5q57 0 124 54v39h-133v122h280v-339h-147zM248 624v122h127v-122h-127z" />
    <glyph glyph-name="Gcommaaccent.sc" 
d="M439 0v53q-75 -62 -160 -62q-105 0 -174.5 76.5t-69.5 218.5q0 146 71 221.5t190 75.5q121 0 283 -83l-72 -115q-116 57 -190 57q-58 0 -89.5 -42t-31.5 -113q0 -74 29.5 -118.5t89.5 -44.5q57 0 124 54v39h-133v122h280v-339h-147zM265 -183v128h120l7 -142l-99 -107
l-31 39l56 82h-53z" />
    <glyph glyph-name="rinferior" horiz-adv-x="278" 
d="M146 165v-65q5 14 16 28.5t40 28.5t66 12v-105q-31 0 -55 -10.5t-36 -25t-19.5 -29.5t-9.5 -25l-2 -11v-113h-112v315h112z" />
    <glyph glyph-name="Yacute.sc" horiz-adv-x="600" 
d="M222 0v225l-219 349h177l120 -220l120 220h176l-218 -347v-227h-156zM324 614h-134l125 140h182z" />
    <glyph glyph-name="Ydieresis.sc" horiz-adv-x="600" 
d="M222 0v225l-219 349h177l120 -220l120 220h176l-218 -347v-227h-156zM144 624v122h127v-122h-127zM329 624v122h127v-122h-127z" />
    <glyph glyph-name="Gbreve.sc" 
d="M439 0v53q-75 -62 -160 -62q-105 0 -174.5 76.5t-69.5 218.5q0 146 71 221.5t190 75.5q121 0 283 -83l-72 -115q-116 57 -190 57q-58 0 -89.5 -42t-31.5 -113q0 -74 29.5 -118.5t89.5 -44.5q57 0 124 54v39h-133v122h280v-339h-147zM309 614q-81 0 -125.5 34t-44.5 94h99
q0 -41 71 -41q72 0 72 41h100q0 -60 -45.5 -94t-126.5 -34z" />
    <glyph glyph-name="s_h" horiz-adv-x="1172" 
d="M761 729v-263q105 70 199 70q160 0 160 -167v-369h-164v331q0 37 -13.5 57.5t-48.5 20.5q-34 0 -71 -18.5t-62 -42.5v-348h-164v657h-55q-48 0 -75.5 -24t-27.5 -70q0 -42 20 -70q19 -7 37 -15l-63 -107q-106 41 -178 41q-57 0 -57 -30q0 -7 3.5 -13t12 -11t16.5 -8.5
t22.5 -7.5t24.5 -6.5t28 -6t28 -6.5q187 -46 187 -173q0 -74 -58 -117.5t-161 -43.5q-74 0 -151.5 21t-127.5 48l63 115q47 -22 108.5 -40.5t101.5 -18.5q25 0 42 8t17 22q0 10 -8 18t-26 15t-31 10.5t-39.5 10t-35.5 8.5q-181 46 -181 170q0 71 55 115.5t156 44.5
q56 0 132 -18q-12 27 -12 62q0 68 48 108.5t141 40.5h208z" />
    <glyph glyph-name="s_k" horiz-adv-x="1129" 
d="M1101 525l-177 -207l208 -318h-177l-128 203l-66 -77v-126h-164v657h-55q-48 0 -75.5 -24t-27.5 -70q0 -42 20 -70q19 -7 37 -15l-63 -107q-106 41 -178 41q-57 0 -57 -30q0 -7 3.5 -13t12 -11t16.5 -8.5t22.5 -7.5t24.5 -6.5t28 -6t28 -6.5q187 -46 187 -173
q0 -74 -58 -117.5t-161 -43.5q-74 0 -151.5 21t-127.5 48l63 115q47 -22 108.5 -40.5t101.5 -18.5q25 0 42 8t17 22q0 10 -8 18t-26 15t-31 10.5t-39.5 10t-35.5 8.5q-181 46 -181 170q0 71 55 115.5t156 44.5q56 0 132 -18q-12 27 -12 62q0 68 48 108.5t141 40.5h208v-404
l150 200h190z" />
    <glyph glyph-name="s_l" horiz-adv-x="820" 
d="M762 0h-164v657h-56q-48 0 -75.5 -24t-27.5 -70q0 -42 20 -70q19 -7 37 -15l-63 -107q-106 41 -178 41q-57 0 -57 -30q0 -7 3.5 -13t12 -11t16.5 -8.5t22.5 -7.5t24.5 -6.5t28 -6t28 -6.5q187 -46 187 -173q0 -74 -58 -117.5t-161 -43.5q-74 0 -151.5 21t-127.5 48
l63 115q47 -22 108.5 -40.5t101.5 -18.5q25 0 42 8t17 22q0 10 -8 18t-26 15t-31 10.5t-39.5 10t-35.5 8.5q-181 46 -181 170q0 71 55 115.5t156 44.5q56 0 132 -18q-12 27 -12 62q0 68 48 108.5t141 40.5h209v-729z" />
    <glyph glyph-name="Ygrave.sc" horiz-adv-x="600" 
d="M222 0v225l-219 349h177l120 -220l120 220h176l-218 -347v-227h-156zM413 614h-134l-173 140h181z" />
    <glyph glyph-name="G.sc" 
d="M439 0v53q-75 -62 -160 -62q-105 0 -174.5 76.5t-69.5 218.5q0 146 71 221.5t190 75.5q121 0 283 -83l-72 -115q-116 57 -190 57q-58 0 -89.5 -42t-31.5 -113q0 -74 29.5 -118.5t89.5 -44.5q57 0 124 54v39h-133v122h280v-339h-147z" />
    <glyph glyph-name="Fsuperior" horiz-adv-x="377" 
d="M368 708h-211v-66h167v-95h-167v-162h-116v420h327v-97z" />
    <glyph glyph-name="Finferior" horiz-adv-x="377" 
d="M368 173h-211v-66h167v-95h-167v-162h-116v420h327v-97z" />
    <glyph glyph-name="F.sc" horiz-adv-x="530" 
d="M511 444h-293v-93h230v-129h-230v-222h-157v574h450v-130z" />
    <glyph glyph-name="Eurosuperior" horiz-adv-x="463" 
d="M444 752l-53 -85q-82 41 -131 41q-52 0 -71 -51h127v-46h-137v-35h137v-46h-126q20 -48 70 -48q49 0 131 41l53 -85q-116 -60 -198 -60q-70 0 -118 38.5t-63 113.5h-43v46h37v35h-37v46h42q15 76 63 115.5t119 39.5q78 0 198 -60z" />
    <glyph glyph-name="Euroinferior" horiz-adv-x="463" 
d="M444 217l-53 -85q-82 41 -131 41q-52 0 -71 -51h127v-46h-137v-35h137v-46h-126q21 -48 70 -48t131 41l53 -85q-116 -60 -198 -60q-70 0 -118 38.5t-63 113.5h-43v46h37v35h-37v46h42q15 76 63 115.5t119 39.5q78 0 198 -60z" />
    <glyph glyph-name="Euro.onum" horiz-adv-x="648" 
d="M615 501l-72 -115q-110 56 -180 56q-72 0 -101 -69h178v-66h-193v-45h193v-66h-176q28 -64 99 -64q70 0 180 56l72 -115q-158 -82 -271 -82q-96 0 -162.5 52t-87.5 153h-59v66h51v45h-51v66h58q20 103 86.5 156.5t164.5 53.5q68 0 130 -21t141 -61z" />
    <glyph glyph-name="semicoloninferior" horiz-adv-x="191" 
d="M38 28v116h112v-116h-112zM38 -150v116h111l8 -131l-91 -91l-29 36l51 70h-50z" />
    <glyph glyph-name="semicolonsuperior" horiz-adv-x="191" 
d="M38 563v116h112v-116h-112zM38 385v116h111l8 -131l-91 -91l-29 36l51 70h-50z" />
    <glyph glyph-name="Yinferior" horiz-adv-x="431" 
d="M158 -150v167l-158 253h131l85 -159l85 159h131l-158 -253v-167h-116z" />
    <glyph glyph-name="c_t" horiz-adv-x="958" 
d="M508 474l-65 -122q-96 44 -142 44q-48 0 -75 -36t-27 -97t27 -97.5t75 -36.5q43 0 142 43l65 -121q-138 -62 -233 -62q-103 0 -173 69.5t-70 204.5q0 134 69.5 203.5t172.5 69.5q47 0 97 -13q-7 20 -7 45q0 72 52 116.5t141 44.5q105 0 163.5 -51.5t58.5 -144.5v-8h142
v-120h-142v-225q0 -21 7 -32t15.5 -13.5t20.5 -2.5q24 0 77 22l57 -121q-99 -44 -177 -44q-83 0 -123 47t-40 145v224h-72v120h72v18q0 58 -20 86t-65 28q-40 0 -66.5 -26.5t-26.5 -70.5q0 -36 19 -65q11 -4 51 -21z" />
    <glyph glyph-name="seven.dnom" horiz-adv-x="357" 
d="M343 331q-6 -7 -17 -20t-38 -52t-48 -77t-38 -88.5t-17 -93.5h-120q0 50 20.5 107.5t52 105.5t49.5 72t32 40h-199v95h323v-89z" />
    <glyph glyph-name="seven.numr" horiz-adv-x="357" 
d="M343 611q-6 -7 -17 -20t-38 -52t-48 -77t-38 -88.5t-17 -93.5h-120q0 50 20.5 107.5t52 105.5t49.5 72t32 40h-199v95h323v-89z" />
    <glyph glyph-name="seven.onum" horiz-adv-x="537" 
d="M524 442q-10 -12 -27 -34t-60.5 -88.5t-77 -131t-60.5 -152t-27 -162.5h-177q0 70 24 151t54 143.5t70 126t60.5 91.5t36.5 47h-321v141h505v-132z" />
    <glyph glyph-name="c_l" horiz-adv-x="802" 
d="M744 0h-164v657h-38q-47 0 -75.5 -24t-28.5 -69q0 -39 22 -70q30 -12 48 -20l-65 -122q-96 44 -142 44q-48 0 -75 -36t-27 -97t27 -97.5t75 -36.5q43 0 142 43l65 -121q-138 -62 -233 -62q-103 0 -173 69.5t-70 204.5q0 134 69.5 203.5t172.5 69.5q43 0 101 -14
q-11 27 -11 58q0 68 46.5 108.5t134.5 40.5h199v-729z" />
    <glyph glyph-name="c_k" horiz-adv-x="1111" 
d="M1083 525l-177 -207l208 -318h-177l-128 203l-66 -77v-126h-164v657h-37q-47 0 -75.5 -24t-28.5 -69q0 -39 22 -70q30 -12 48 -20l-65 -122q-96 44 -142 44q-48 0 -75 -36t-27 -97t27 -97.5t75 -36.5q43 0 142 43l65 -121q-138 -62 -233 -62q-103 0 -173 69.5t-70 204.5
q0 134 69.5 203.5t172.5 69.5q43 0 101 -14q-11 27 -11 58q0 68 46.5 108.5t134.5 40.5h198v-404l150 200h190z" />
    <glyph glyph-name="seveneighths.onum" horiz-adv-x="778" 
d="M422 94q0 60 82 94q-57 33 -57 77q0 38 36.5 61.5t101.5 23.5t102 -24t37 -61q0 -44 -58 -77q82 -34 82 -94q0 -46 -43 -73t-120 -27q-76 0 -119.5 27t-43.5 73zM535 574l-286 -574h-99l285 574h100zM304 504q-6 -6 -15 -16.5t-33 -43t-42 -63.5t-33 -73t-15 -78h-96
q0 41 18 88.5t45.5 87.5t43 60.5t27.5 32.5h-176v75h276v-70zM654 102q0 29 -69 53q-69 -24 -69 -53q0 -17 19 -28t50 -11q30 0 49.5 11t19.5 28zM536 253q0 -21 49 -37q48 14 48 37q0 12 -13 21.5t-35 9.5t-35.5 -10t-13.5 -21z" />
    <glyph glyph-name="c_h" horiz-adv-x="1154" 
d="M743 729v-263q105 70 199 70q160 0 160 -167v-369h-164v331q0 37 -13.5 57.5t-48.5 20.5q-34 0 -71 -18.5t-62 -42.5v-348h-164v657h-37q-47 0 -75.5 -24t-28.5 -69q0 -39 22 -70q30 -12 48 -20l-65 -122q-96 44 -142 44q-48 0 -75 -36t-27 -97t27 -97.5t75 -36.5
q43 0 142 43l65 -121q-138 -62 -233 -62q-103 0 -173 69.5t-70 204.5q0 134 69.5 203.5t172.5 69.5q43 0 101 -14q-11 27 -11 58q0 68 46.5 108.5t134.5 40.5h198z" />
    <glyph glyph-name="Ysuperior" horiz-adv-x="431" 
d="M158 385v167l-158 253h131l85 -159l85 159h131l-158 -253v-167h-116z" />
    <glyph glyph-name="sinferior" horiz-adv-x="345" 
d="M216 47q117 -27 117 -105q0 -45 -36.5 -72t-103.5 -27q-96 0 -180 42l40 71q77 -35 132 -35q36 0 36 17q0 5 -4.5 8.5t-14 6.5t-19 5t-24 5t-24.5 6q-116 28 -116 104q0 43 35.5 71t100.5 28q81 0 164 -36l-40 -65q-72 24 -113 24q-36 0 -36 -17q0 -5 4 -9t13.5 -6.5
t18.5 -4.5t24 -5t26 -6z" />
    <glyph glyph-name="Eth.sc" horiz-adv-x="660" 
d="M624 287q0 -150 -79.5 -218.5t-236.5 -68.5h-232v227h-63v120h63v227h232q157 0 236.5 -68.5t79.5 -218.5zM467 287q0 89 -42 121.5t-133 32.5h-58v-94h118v-120h-118v-95h58q90 0 132.5 32.5t42.5 122.5z" />
    <glyph glyph-name="six.dnom" horiz-adv-x="426" 
d="M303 334q-109 0 -144 -89q43 27 98 27q63 0 103 -36t40 -95q0 -62 -48.5 -105t-129.5 -43q-94 0 -143 53t-49 132q0 108 75.5 178.5t196.5 70.5q19 0 36.5 -1.5t25.5 -3.5l8 -2l-26 -89q-19 3 -43 3zM219 187q-45 0 -73 -28q1 -39 22.5 -56t50.5 -17q33 0 49.5 15.5
t16.5 35.5q0 22 -18 36t-48 14z" />
    <glyph glyph-name="six.numr" horiz-adv-x="426" 
d="M303 614q-109 0 -144 -89q43 27 98 27q63 0 103 -36t40 -95q0 -62 -48.5 -105t-129.5 -43q-94 0 -143 53t-49 132q0 108 75.5 178.5t196.5 70.5q19 0 36.5 -1.5t25.5 -3.5l8 -2l-26 -89q-19 3 -43 3zM219 467q-45 0 -73 -28q1 -39 22.5 -56t50.5 -17q33 0 49.5 15.5
t16.5 35.5q0 22 -18 36t-48 14z" />
    <glyph glyph-name="six.onum" horiz-adv-x="641" 
d="M465 573q-78 0 -142.5 -40.5t-92.5 -131.5q64 51 159 51q100 0 163.5 -60.5t63.5 -157.5q0 -103 -75.5 -174t-201.5 -71q-100 0 -169.5 44t-99.5 110t-30 146q-1 191 118.5 306.5t305.5 115.5q28 0 54.5 -2.5t39.5 -5.5l13 -3l-39 -133q-30 6 -67 6zM335 326
q-42 0 -74.5 -17.5t-48.5 -40.5q0 -69 35.5 -105t86.5 -36q55 0 83 30t28 70q0 43 -29 71t-81 28z" />
    <glyph glyph-name="brokenbar.sc" horiz-adv-x="241" 
d="M175 332h-110v339h110v-339zM175 -101h-110v339h110v-339z" />
    <glyph glyph-name="Z.sc" horiz-adv-x="578" 
d="M30 120l300 321h-282v133h488v-119l-300 -323h305v-132h-511v120z" />
    <glyph glyph-name="bracketrightsuperior" horiz-adv-x="237" 
d="M11 888h189v-589h-189v62h73v465h-73v62z" />
    <glyph glyph-name="Esuperior" horiz-adv-x="394" 
d="M372 385h-331v420h327v-97h-211v-65h173v-95h-173v-67h215v-96z" />
    <glyph glyph-name="slash.sc" horiz-adv-x="436" 
d="M414 648l-284 -722h-113l283 722h114z" />
    <glyph glyph-name="Eogonek.sc" horiz-adv-x="553" 
d="M419 -93q0 -10 4.5 -16.5t10 -10t15.5 -5t15.5 -2t16.5 0t12 0.5l-14 -72q-82 0 -117 17q-47 22 -47 72q0 61 98 109h-352v574h450v-130h-293v-92h239v-129h-239v-94h297v-129h-3q-93 -54 -93 -93z" />
    <glyph glyph-name="spaceinferior" horiz-adv-x="171" 
 />
    <glyph glyph-name="spacesuperior" horiz-adv-x="171" 
 />
    <glyph glyph-name="bracketrightinferior" horiz-adv-x="237" 
d="M11 353h189v-589h-189v62h73v465h-73v62z" />
    <glyph glyph-name="Eng.sc" horiz-adv-x="665" 
d="M603 574v-539q0 -36 -3 -57.5t-14 -44.5t-34 -37.5t-61 -28.5t-96 -26l-51 114q84 23 97 49l-223 350v-354h-157v574h160l225 -354v354h157z" />
    <glyph glyph-name="sterling.onum" horiz-adv-x="523" 
d="M52 199v87h69q-4 7 -15.5 25t-17 28.5t-13.5 27.5t-11.5 34t-3.5 36q0 68 50.5 107t140.5 39q109 0 238 -77l-67 -99q-85 46 -140 46q-63 0 -63 -41q0 -22 27.5 -64t35.5 -62h140v-87h-132q-12 -45 -52 -70h242v-129h-438v104l10 2.5t22.5 9t30 17.5t25.5 27.5t15 38.5
h-93z" />
    <glyph glyph-name="sterlinginferior" horiz-adv-x="376" 
d="M35 -4v63h53q-1 2 -13.5 22t-16.5 28t-9 26t-5 35q0 50 36.5 78.5t100.5 28.5q80 0 174 -57l-50 -72q-63 34 -101 34q-44 0 -44 -31q0 -16 19.5 -47t25.5 -45h102v-63h-96q-8 -34 -37 -51h174v-95h-318v76q3 1 7.5 2t16.5 6.5t21.5 13t18 20.5t10.5 28h-69z" />
    <glyph glyph-name="sterlingsuperior" horiz-adv-x="376" 
d="M35 531v63h53q-1 2 -13.5 22t-16.5 28t-9 26t-5 35q0 50 36.5 78.5t100.5 28.5q80 0 174 -57l-50 -72q-63 34 -101 34q-44 0 -44 -31q0 -16 19.5 -47t25.5 -45h102v-63h-96q-8 -34 -37 -51h174v-95h-318v76q3 1 7.5 2t16.5 6.5t21.5 13t18 20.5t10.5 28h-69z" />
    <glyph glyph-name="bracketright.sc" horiz-adv-x="350" 
d="M27 688h259v-805h-259v85h102v636h-102v84z" />
    <glyph glyph-name="Emacron.sc" horiz-adv-x="553" 
d="M515 0h-454v574h450v-130h-293v-92h239v-129h-239v-94h297v-129zM131 639v94h312v-94h-312z" />
    <glyph glyph-name="Einferior" horiz-adv-x="394" 
d="M372 -150h-331v420h327v-97h-211v-65h173v-95h-173v-67h215v-96z" />
    <glyph glyph-name="Egrave.sc" horiz-adv-x="553" 
d="M515 0h-454v574h450v-130h-293v-92h239v-129h-239v-94h297v-129zM397 614h-134l-173 140h181z" />
    <glyph glyph-name="Edotaccent.sc" horiz-adv-x="553" 
d="M515 0h-454v574h450v-130h-293v-92h239v-129h-239v-94h297v-129zM224 624v122h127v-122h-127z" />
    <glyph glyph-name="Edieresis.sc" horiz-adv-x="553" 
d="M515 0h-454v574h450v-130h-293v-92h239v-129h-239v-94h297v-129zM132 624v122h127v-122h-127zM317 624v122h127v-122h-127z" />
    <glyph glyph-name="Ecircumflex.sc" horiz-adv-x="553" 
d="M515 0h-454v574h450v-130h-293v-92h239v-129h-239v-94h297v-129zM364 754l108 -140h-112l-73 70l-73 -70h-112l108 140h154z" />
    <glyph glyph-name="three.dnom" horiz-adv-x="410" 
d="M15 51l51 77q73 -39 133 -39q64 0 64 38q0 45 -116 45h-20v96h23q96 0 96 37q0 27 -48 27q-50 0 -117 -36l-46 71q80 60 182 60q72 0 108.5 -29.5t36.5 -74.5q0 -61 -69 -91q39 -12 63.5 -41t24.5 -66q0 -55 -40 -93.5t-128 -38.5q-100 0 -198 58z" />
    <glyph glyph-name="three.numr" horiz-adv-x="410" 
d="M15 331l51 77q73 -39 133 -39q64 0 64 38q0 45 -116 45h-20v96h23q96 0 96 37q0 27 -48 27q-50 0 -117 -36l-46 71q80 60 182 60q72 0 108.5 -29.5t36.5 -74.5q0 -61 -69 -91q39 -12 63.5 -41t24.5 -66q0 -55 -40 -93.5t-128 -38.5q-100 0 -198 58z" />
    <glyph glyph-name="three.onum" horiz-adv-x="612" 
d="M11 -48l74 116q120 -64 210 -64q52 0 82.5 20t30.5 57q0 90 -191 90h-31v141h36q38 0 70 5t59 22.5t27 46.5q0 56 -83 56q-80 0 -183 -59l-70 106q127 94 281 94q112 0 169 -48.5t57 -122.5q0 -104 -113 -154q63 -19 103.5 -68.5t40.5 -111.5q0 -42 -14 -79t-43.5 -69
t-82.5 -50.5t-123 -18.5q-157 0 -306 91z" />
    <glyph glyph-name="Zacute.sc" horiz-adv-x="578" 
d="M30 120l300 321h-282v133h488v-119l-300 -323h305v-132h-511v120zM317 614h-134l125 140h182z" />
    <glyph glyph-name="bracketleftsuperior" horiz-adv-x="237" 
d="M227 299h-189v589h189v-62h-73v-465h73v-62z" />
    <glyph glyph-name="threeeighths.onum" horiz-adv-x="871" 
d="M514 94q0 60 82 94q-58 33 -58 77q0 38 37 61.5t102 23.5q64 0 101.5 -24t37.5 -61q0 -44 -58 -77q81 -35 81 -94q0 -46 -43 -73t-119 -27t-119.5 27t-43.5 73zM28 271l41 61q58 -33 115 -33q28 0 45 9t17 25q0 40 -105 40h-17v75h19q86 0 86 33q0 24 -45 24t-101 -29
l-38 56q68 48 154 48q61 0 92 -24.5t31 -61.5q0 -50 -61 -74q34 -10 56 -34t22 -54q0 -45 -34.5 -76.5t-109.5 -31.5q-90 0 -167 47zM626 574l-286 -574h-99l286 574h99zM746 102q0 29 -69 53q-69 -24 -69 -53q0 -17 19 -28t50 -11q30 0 49.5 11t19.5 28zM628 253
q0 -21 49 -37q48 15 48 37q0 11 -13.5 21t-34.5 10q-22 0 -35.5 -10t-13.5 -21z" />
    <glyph glyph-name="threefifths" horiz-adv-x="1008" 
d="M27 331l51 77q73 -39 133 -39q64 0 64 38q0 45 -116 45h-20v96h23q96 0 96 37q0 27 -48 27q-50 0 -117 -36l-46 71q80 60 182 60q72 0 108.5 -29.5t36.5 -74.5q0 -61 -69 -91q39 -12 63.5 -41t24.5 -66q0 -55 -40 -93.5t-128 -38.5q-100 0 -198 58zM727 700l-328 -700
h-124l328 700h124zM632 206l24 214h295v-95h-198l-3 -52q32 7 58 7q78 0 120 -40.5t42 -100.5q0 -62 -45 -104t-130 -42q-89 0 -184 57l51 83q59 -42 117 -42q32 0 52 12.5t20 34.5q0 21 -18 35.5t-53 14.5q-41 0 -83 -22z" />
    <glyph glyph-name="threefifths.onum" horiz-adv-x="871" 
d="M547 170l21 174h250v-74h-173l-4 -49q30 7 54 7q67 0 102.5 -33t35.5 -81q0 -51 -38.5 -85.5t-110.5 -34.5q-74 0 -155 47l41 65q48 -34 101 -34q30 0 49 10.5t19 30.5q0 18 -17 30.5t-50 12.5q-39 0 -73 -18zM28 271l41 61q58 -33 115 -33q28 0 45 9t17 25q0 40 -105 40
h-17v75h19q86 0 86 33q0 24 -45 24t-101 -29l-38 56q68 48 154 48q61 0 92 -24.5t31 -61.5q0 -50 -61 -74q34 -10 56 -34t22 -54q0 -45 -34.5 -76.5t-109.5 -31.5q-90 0 -167 47zM626 574l-286 -574h-99l286 574h99z" />
    <glyph glyph-name="bracketleftinferior" horiz-adv-x="237" 
d="M227 -236h-189v589h189v-62h-73v-465h73v-62z" />
    <glyph glyph-name="Ecaron.sc" horiz-adv-x="553" 
d="M515 0h-454v574h450v-130h-293v-92h239v-129h-239v-94h297v-129zM472 754l-108 -140h-154l-108 140h112l73 -71l73 71h112z" />
    <glyph glyph-name="threequarters.onum" horiz-adv-x="858" 
d="M677 0v61h-203v62l173 221h122v-208h59v-75h-59v-61h-92zM28 271l41 61q58 -33 115 -33q28 0 45 9t17 25q0 40 -105 40h-17v75h19q86 0 86 33q0 24 -45 24t-101 -29l-38 56q68 48 154 48q61 0 92 -24.5t31 -61.5q0 -50 -61 -74q34 -10 56 -34t22 -54q0 -45 -34.5 -76.5
t-109.5 -31.5q-90 0 -167 47zM626 574l-286 -574h-99l286 574h99zM573 136h104v139z" />
    <glyph glyph-name="Eacute.sc" horiz-adv-x="553" 
d="M515 0h-454v574h450v-130h-293v-92h239v-129h-239v-94h297v-129zM313 614h-134l125 140h182z" />
    <glyph glyph-name="bracketleft.sc" horiz-adv-x="350" 
d="M323 -117h-259v805h259v-85h-102v-636h102v-84z" />
    <glyph glyph-name="tinferior" horiz-adv-x="280" 
d="M13 84v81h44v79l113 12v-91h88v-81h-88v-117q0 -28 25 -28q7 0 16.5 2.5t19 6t11.5 4.5l38 -81q-59 -28 -115 -28q-108 0 -108 124v117h-44z" />
    <glyph glyph-name="Zcaron.sc" horiz-adv-x="578" 
d="M30 120l300 321h-282v133h488v-119l-300 -323h305v-132h-511v120zM477 754l-108 -140h-154l-108 140h112l73 -71l73 71h112z" />
    <glyph glyph-name="bracerightsuperior" horiz-adv-x="256" 
d="M251 624v-62q-70 0 -61 -63l8 -56q11 -73 -36 -108.5t-136 -35.5h-12v60h12q65 0 56 75l-6 44q-8 53 15 80t76 36q-53 9 -76.5 35.5t-14.5 79.5l6 43q9 75 -56 75h-12v61h12q90 0 136.5 -35t35.5 -110l-8 -55q-9 -64 61 -64z" />
    <glyph glyph-name="E.sc" horiz-adv-x="553" 
d="M515 0h-454v574h450v-130h-293v-92h239v-129h-239v-94h297v-129z" />
    <glyph glyph-name="two.dnom" horiz-adv-x="413" 
d="M377 95v-95h-352v47q0 96 136 176q11 6 30.5 17t28.5 16.5t20 13.5t15 15t4 15q0 14 -14 23t-40 9q-50 0 -117 -40l-51 73q90 62 185 62q75 0 115 -34.5t40 -87.5q0 -29 -12 -54t-36.5 -44t-43 -30t-48.5 -26q-71 -36 -71 -56h211z" />
    <glyph glyph-name="two.numr" horiz-adv-x="413" 
d="M377 375v-95h-352v47q0 96 136 176q11 6 30.5 17t28.5 16.5t20 13.5t15 15t4 15q0 14 -14 23t-40 9q-50 0 -117 -40l-51 73q90 62 185 62q75 0 115 -34.5t40 -87.5q0 -29 -12 -54t-36.5 -44t-43 -30t-48.5 -26q-71 -36 -71 -56h211z" />
    <glyph glyph-name="two.onum" horiz-adv-x="607" 
d="M31 0v71q0 42 16 77.5t47 62.5t63 47t77 40q14 7 47.5 21t47.5 21t33.5 18t27 21.5t7.5 22.5q0 46 -79 46q-87 0 -195 -65l-74 106q142 94 285 94q110 0 169.5 -46t59.5 -126q0 -31 -9 -57.5t-28 -48.5t-38.5 -38.5t-52.5 -34t-56.5 -28t-63.5 -26.5q-63 -28 -78 -41h327
v-137h-533z" />
    <glyph glyph-name="bracerightinferior" horiz-adv-x="256" 
d="M251 89v-62q-70 0 -61 -63l8 -56q11 -73 -36 -108.5t-136 -35.5h-12v60h12q65 0 56 75l-6 44q-8 53 15 80t76 36q-53 9 -76.5 35.5t-14.5 79.5l6 43q9 75 -56 75h-12v61h12q90 0 136.5 -35t35.5 -110l-8 -55q-9 -64 61 -64z" />
    <glyph glyph-name="twofifths" horiz-adv-x="1034" 
d="M388 375v-95h-352v47q0 96 136 176q11 6 30.5 17t28.5 16.5t20 13.5t15 15t4 15q0 14 -14 23t-40 9q-50 0 -117 -40l-51 73q90 62 185 62q75 0 115 -34.5t40 -87.5q0 -29 -12 -54t-36.5 -44t-43 -30t-48.5 -26q-71 -36 -71 -56h211zM758 700l-328 -700h-124l328 700h124z
M663 206l24 214h295v-95h-198l-3 -52q31 7 58 7q78 0 120 -40.5t42 -100.5q0 -62 -45 -104t-130 -42q-89 0 -184 57l51 83q59 -42 117 -42q32 0 52 12.5t20 34.5q0 21 -18 35.5t-53 14.5q-41 0 -83 -22z" />
    <glyph glyph-name="twofifths.onum" horiz-adv-x="891" 
d="M572 170l20 174h250v-74h-173l-4 -49q28 7 53 7q66 0 102.5 -33t36.5 -81q0 -51 -38.5 -85.5t-111.5 -34.5q-70 0 -155 47l40 65q57 -34 103 -34q29 0 48 11t19 30q0 18 -16.5 30.5t-48.5 12.5q-39 0 -75 -18zM332 304v-74h-299v37q0 46 32.5 80t86.5 64q9 5 26.5 14.5
t25 14t17.5 11t13.5 12.5t3.5 13q0 29 -52 29q-43 0 -101 -33l-41 58q78 50 156 50q63 0 97.5 -28t34.5 -71q0 -24 -10 -44t-33 -36.5t-37 -24.5t-44 -23q-63 -30 -63 -49h187zM649 574l-286 -574h-99l287 574h98z" />
    <glyph glyph-name="braceright.sc" horiz-adv-x="379" 
d="M357 328v-85q-95 0 -83 -86l10 -77q13 -101 -50.5 -149t-187.5 -48h-16v83h16q94 0 81 104l-8 57q-11 74 21 110.5t105 48.5q-73 12 -105 48t-21 110l8 58q3 27 -0.5 48.5t-24 39t-56.5 17.5h-16v81h16q124 0 188 -48t50 -149l-11 -76q-12 -87 84 -87z" />
    <glyph glyph-name="Dsuperior" horiz-adv-x="462" 
d="M440 595q0 -110 -57.5 -160t-171.5 -50h-170v420h170q114 0 171.5 -50t57.5 -160zM324 595q0 65 -30.5 89t-94.5 24h-41v-227h41q64 0 94.5 24.5t30.5 89.5z" />
    <glyph glyph-name="Zdotaccent.sc" horiz-adv-x="578" 
d="M30 120l300 321h-282v133h488v-119l-300 -323h305v-132h-511v120zM228 624v122h127v-122h-127z" />
    <glyph glyph-name="twothirds.onum" horiz-adv-x="887" 
d="M334 304v-74h-299v37q0 47 32.5 80.5t86.5 63.5q10 6 26.5 15t24.5 13.5t17.5 11t13.5 12.5t4 13q0 13 -13.5 21t-38.5 8q-42 0 -102 -33l-40 58q78 50 155 50q64 0 98.5 -28t34.5 -71q0 -24 -10 -44t-33 -36.5t-37 -24.5t-44 -23q-63 -29 -63 -49h187zM651 574
l-287 -574h-98l286 574h99zM544 41l41 61q59 -32 115 -32q62 0 62 34q0 39 -105 39h-17v75h20q85 0 85 33q0 24 -45 24q-49 0 -100 -29l-39 56q72 48 153 48q62 0 93.5 -24t31.5 -61q0 -49 -63 -75q35 -10 57.5 -33.5t22.5 -54.5q0 -45 -35.5 -76.5t-109.5 -31.5
q-84 0 -167 47z" />
    <glyph glyph-name="Dinferior" horiz-adv-x="462" 
d="M440 60q0 -110 -57.5 -160t-171.5 -50h-170v420h170q114 0 171.5 -50t57.5 -160zM324 60q0 65 -30.5 89t-94.5 24h-41v-227h41q64 0 94.5 24.5t30.5 89.5z" />
    <glyph glyph-name="braceleftsuperior" horiz-adv-x="256" 
d="M5 563v62q70 0 61 63l-8 56q-11 73 36 108.5t136 35.5h12v-60h-12q-65 0 -56 -75l6 -44q8 -53 -15 -80t-76 -36q53 -9 76.5 -35.5t14.5 -79.5l-6 -43q-9 -75 56 -75h12v-61h-12q-90 0 -136.5 35t-35.5 110l8 55q9 64 -61 64z" />
    <glyph glyph-name="Dcroat.sc" horiz-adv-x="660" 
d="M624 287q0 -150 -79.5 -218.5t-236.5 -68.5h-232v227h-63v120h63v227h232q157 0 236.5 -68.5t79.5 -218.5zM467 287q0 89 -42 121.5t-133 32.5h-58v-94h118v-120h-118v-95h58q90 0 132.5 32.5t42.5 122.5z" />
    <glyph glyph-name="Dcaron.sc" horiz-adv-x="645" 
d="M609 287q0 -150 -79.5 -218.5t-236.5 -68.5h-232v574h232q157 0 236.5 -68.5t79.5 -218.5zM452 287q0 89 -42 121.5t-133 32.5h-58v-309h58q90 0 132.5 32.5t42.5 122.5zM519 754l-108 -140h-154l-108 140h112l73 -71l73 71h112z" />
    <glyph glyph-name="D.sc" horiz-adv-x="645" 
d="M609 287q0 -150 -79.5 -218.5t-236.5 -68.5h-232v574h232q157 0 236.5 -68.5t79.5 -218.5zM452 287q0 89 -42 121.5t-133 32.5h-58v-309h58q90 0 132.5 32.5t42.5 122.5z" />
    <glyph glyph-name="Csuperior" horiz-adv-x="416" 
d="M408 752l-53 -85q-82 41 -131 41q-39 0 -60 -30.5t-21 -82.5q0 -53 21 -83t60 -30q49 0 131 41l53 -85q-116 -60 -198 -60q-84 0 -135.5 55.5t-51.5 161.5t51.5 161.5t135.5 55.5q78 0 198 -60z" />
    <glyph glyph-name="Cinferior" horiz-adv-x="416" 
d="M408 217l-53 -85q-82 41 -131 41q-39 0 -60 -30.5t-21 -82.5q0 -53 21 -83t60 -30q49 0 131 41l53 -85q-116 -60 -198 -60q-84 0 -135.5 55.5t-51.5 161.5t51.5 161.5t135.5 55.5q78 0 198 -60z" />
    <glyph glyph-name="uinferior" horiz-adv-x="402" 
d="M256 -150v32q-64 -39 -123 -39q-102 0 -102 101v221h112v-194q0 -43 36 -43q42 0 77 33v204h112v-315h-112z" />
    <glyph glyph-name="Cdotaccent.sc" horiz-adv-x="582" 
d="M564 501l-72 -115q-110 56 -180 56q-55 0 -85.5 -42t-30.5 -113q0 -72 30.5 -113.5t85.5 -41.5q70 0 180 56l72 -115q-158 -82 -271 -82q-117 0 -187.5 75.5t-70.5 220.5t70.5 220.5t187.5 75.5q68 0 130 -21t141 -61zM245 624v122h127v-122h-127z" />
    <glyph glyph-name="Ccedilla.sc" horiz-adv-x="582" 
d="M156 -164l32 79q24 -12 47 -12q46 0 46 35q0 24 -21 55q-104 10 -164.5 85t-60.5 209q0 145 70.5 220.5t187.5 75.5q68 0 130 -21t141 -61l-72 -115q-110 56 -180 56q-55 0 -85.5 -42t-30.5 -113q0 -72 30.5 -113.5t85.5 -41.5q70 0 180 56l72 -115q-138 -71 -232 -80
q32 -41 32 -85q0 -48 -33 -71.5t-84 -23.5q-53 0 -91 23z" />
    <glyph glyph-name="Ccaron.sc" horiz-adv-x="582" 
d="M564 501l-72 -115q-110 56 -180 56q-55 0 -85.5 -42t-30.5 -113q0 -72 30.5 -113.5t85.5 -41.5q70 0 180 56l72 -115q-158 -82 -271 -82q-117 0 -187.5 75.5t-70.5 220.5t70.5 220.5t187.5 75.5q68 0 130 -21t141 -61zM495 754l-108 -140h-154l-108 140h112l73 -71l73 71
h112z" />
    <glyph glyph-name="Cacute.sc" horiz-adv-x="582" 
d="M564 501l-72 -115q-110 56 -180 56q-55 0 -85.5 -42t-30.5 -113q0 -72 30.5 -113.5t85.5 -41.5q70 0 180 56l72 -115q-158 -82 -271 -82q-117 0 -187.5 75.5t-70.5 220.5t70.5 220.5t187.5 75.5q68 0 130 -21t141 -61zM356 614h-134l125 140h182z" />
    <glyph glyph-name="uni021a.sc" horiz-adv-x="533" 
d="M519 441h-173v-441h-158v441h-175v133h506v-133zM209 -183v128h120l7 -142l-99 -107l-31 39l56 82h-53z" />
    <glyph glyph-name="C.sc" horiz-adv-x="582" 
d="M564 501l-72 -115q-110 56 -180 56q-55 0 -85.5 -42t-30.5 -113q0 -72 30.5 -113.5t85.5 -41.5q70 0 180 56l72 -115q-158 -82 -271 -82q-117 0 -187.5 75.5t-70.5 220.5t70.5 220.5t187.5 75.5q68 0 130 -21t141 -61z" />
    <glyph glyph-name="braceleftinferior" horiz-adv-x="256" 
d="M5 28v62q70 0 61 63l-8 56q-11 73 36 108.5t136 35.5h12v-60h-12q-65 0 -56 -75l6 -44q8 -53 -15 -80t-76 -36q53 -9 76.5 -35.5t14.5 -79.5l-6 -43q-9 -75 56 -75h12v-61h-12q-90 0 -136.5 35t-35.5 110l8 55q9 64 -61 64z" />
    <glyph glyph-name="braceleft.sc" horiz-adv-x="379" 
d="M21 243v85q95 0 83 86l-10 77q-13 101 50.5 149t187.5 48h16v-83h-16q-94 0 -81 -104l8 -57q11 -74 -21 -110.5t-105 -48.5q73 -12 105 -48t21 -110l-8 -58q-3 -27 0.5 -48.5t24 -39t56.5 -17.5h16v-81h-16q-124 0 -188 48t-50 149l11 76q12 87 -84 87z" />
    </font>
</defs>
</svg>
