<?xml version="1.0" encoding="utf-8"?>
<svg xmlns="http://www.w3.org/2000/svg" xmlns:xlink="http://www.w3.org/1999/xlink" style="margin: auto; background: none; display: block; shape-rendering: auto;" width="34px" height="34px" viewBox="0 0 100 100" preserveAspectRatio="xMidYMid">
    <circle cx="50" cy="50" r="42" stroke-width="9" stroke="#FFFFFF" stroke-dasharray="65.97344572538566 65.97344572538566" fill="none" stroke-linecap="round" transform="rotate(15.9403 50 50)">
        <animateTransform attributeName="transform" type="rotate" repeatCount="indefinite" dur="0.7407407407407407s" keyTimes="0;1" values="0 50 50;360 50 50"></animateTransform>
    </circle>
    <path d="M25.7730069,13.4831598 L25.9851487,13.1491121 C26.0043471,13.1187998 26.004987,13.081139 25.9867486,13.049602 C25.9685101,13.0192897 25.9342731,13 25.8968363,13 L21.4249,13 C21.3973823,13 21.3711446,13.0104103 21.3513063,13.0293938 L18.6587373,15.6313533 L18.6129813,15.597673 L20.1098128,13.1475811 C20.1280513,13.1169626 20.1283712,13.0799143 20.1098128,13.0492958 C20.0915744,13.0186773 20.0576573,13 20.0205405,13 L10.6459848,13 C10.6098279,13 10.5759108,13.0183711 10.5573524,13.0477648 L10.2383398,13.5560318 C10.223941,13.5793019 10.2201014,13.6074709 10.2281007,13.6334966 C10.23578,13.6601347 10.2552984,13.6815677 10.2808962,13.6941212 L14.3880638,15.6521739 L14.4063022,15.6610533 L10.0140391,22.852725 C9.99548064,22.8830374 9.99516067,22.9206981 10.0140391,22.9510104 C10.0322775,22.9813227 10.0661946,23 10.1033114,23 L14.0408935,23 C14.0776904,23 14.1116075,22.9816289 14.1301659,22.9513166 L16.4570062,19.139008 L16.4730049,19.1126761 L16.8297743,19.6895285 C16.8486526,19.720147 16.8832097,19.7379057 16.9187266,19.7379057 C16.9337653,19.7379057 16.949124,19.7348438 16.9635228,19.7281078 L18.2914088,19.1200245 L18.3416445,19.1702388 L16.1056764,22.8530312 C16.087118,22.8833435 16.087118,22.9206981 16.1056764,22.9510104 C16.1239148,22.9813227 16.1581519,23 16.1949487,23 L19.9171893,23 C19.9539862,23 19.9875833,22.9816289 20.0064617,22.9513166 L25.7621278,13.5079608 C25.7669274,13.5003062 25.7707671,13.491733 25.7730069,13.4831598 L25.7730069,13.4831598 Z"
          transform="scale(3.4) translate(-3 -3)" id="motocard-m" fill="#FFFFFF">
    </path>
</svg>
